M48
INCH
T01C0.0150
T02C0.0400
T03C0.0300
T04C0.0600
%
T01
X-045500Y+027250
X-012250Y-002000
X-025000Y-042000
X-013250Y-042000
X-007500Y-042000
X-021250Y+005000
X-038750Y+009000
X-040750Y+009000
X-036750Y+005000
X-032500Y+005000
X-038250Y+005750
X-039000Y+006750
X-036750Y+005500
X-020250Y+006750
X-026750Y+005500
X-032500Y+005500
X-033500Y+012750
X-040750Y+012750
X-020000Y+031750
X-023750Y+028500
X-027500Y+018500
X-010750Y+018500
X-008750Y-009500
X-013500Y-010000
X-011000Y-017000
X-012750Y-012500
X-012750Y+020500
X-008250Y+020500
X-001000Y-012750
X-008500Y-012750
X-003250Y-005500
X-042500Y+026000
X-044000Y+016750
X-009000Y+016750
X-034500Y-000500
X-034500Y+007750
X-007750Y+008500
X-029750Y+019000
X-004250Y+000000
X-005500Y-012000
X+000500Y-018750
X+000500Y+019250
X-038250Y+033500
X-025500Y-012750
X-004500Y-007500
X-023250Y-014500
X-011500Y-041500
X-006000Y-014500
X-000250Y-014000
X-005000Y-038500
X-039750Y-002750
X-011500Y-002750
X-028500Y+003250
X-019250Y+006250
X-034500Y+006000
X-036750Y+006000
X-005788Y-041500
X-023750Y+004500
X-031750Y+003250
X-030000Y-037250
X-020250Y+006250
X-017250Y-030000
X-029250Y-043750
X-041300Y-041500
X-011500Y-007500
X-005250Y-029750
X-004500Y-008000
X-040500Y+004750
X-012000Y-036000
X-018000Y-035750
X-012000Y-030500
X-012000Y-025000
X-023750Y-025000
X-000250Y-019250
X-006000Y-019250
X-012000Y-019250
X-017750Y-013750
X-035750Y-037250
X-019000Y-008000
X-033000Y-008000
X-033000Y-023250
X-019000Y-007250
X-033000Y-002750
X-044000Y+023250
X-002750Y-019500
X-006000Y+003750
X-012250Y-001500
X-004000Y-021000
X-002750Y-021000
X-005250Y+009000
X-015000Y+009000
X-022250Y-028000
X-025250Y-027500
X-004750Y-028000
X-003750Y+004250
X-011500Y+020000
X-012000Y+020000
X-013500Y+011750
X-041250Y+008250
X-008250Y+008250
X-007250Y+010250
X-013500Y+010250
X-009750Y+004000
X-007750Y+004000
X-007750Y-009750
X-007750Y-010750
X-037000Y+016000
X-008000Y+016000
X-004750Y+006750
X-036750Y+002500
X-031250Y+007750
X-004250Y+007750
X-044500Y+007250
X-003250Y+007250
X-035750Y+014000
X-003500Y+016250
X-027750Y-032000
X-030250Y+014500
X-043750Y+014500
X-036250Y+015000
X-006000Y+016250
X-035000Y+015500
X-007000Y+016250
X-006500Y+010750
X-005750Y+010750
X-004750Y+004250
X-005250Y-019500
X-000250Y+001750
X-010000Y+001750
X-010250Y-033500
X-025250Y-033000
X-002000Y+024750
X-029750Y+024500
X-032000Y+017500
X-010750Y+017500
X-014000Y-001000
X-014000Y+031000
X-010500Y-029500
X-020250Y-029500
X-013250Y+013000
X-005500Y+027750
X-003750Y+027750
X-005250Y-006750
X-043250Y+009500
X-007250Y+009500
X-011000Y+011000
X-007250Y-008000
X-016250Y-004000
X-014500Y-000500
X-014500Y+022000
X-005000Y+022000
X+001000Y-040750
X-015000Y-040750
X-002500Y+015750
X-030750Y+013500
X-035750Y+000750
X-003250Y-035250
X-016000Y+002500
X-037500Y+004250
X-032750Y+004250
X-026250Y+003750
X-028500Y+004250
X+003000Y-039000
X+004000Y+011750
X-002500Y-034750
X-031250Y+021750
X-004000Y+021750
T02
X-048070Y+025984
X-048070Y+028346
X-046496Y+025984
X-046496Y+028346
X-048070Y+021496
X-048070Y+023858
X-046496Y+021496
X-046496Y+023858
X-048070Y+017007
X-048070Y+019370
X-046496Y+017007
X-046496Y+019370
X-048070Y+012519
X-048070Y+014881
X-046496Y+012519
X-046496Y+014881
X-048149Y+008031
X-048149Y+010393
X-046574Y+008031
X-046574Y+010393
X-048110Y+003503
X-048110Y+005866
X-046535Y+003503
X-046535Y+005866
X+003346Y+025944
X+003346Y+028307
X+004921Y+025944
X+004921Y+028307
X+003346Y+021496
X+003346Y+023858
X+004921Y+021496
X+004921Y+023858
X+003346Y+017007
X+003346Y+019370
X+004921Y+017007
X+004921Y+019370
X+003385Y+012519
X+003385Y+014881
X+004960Y+012519
X+004960Y+014881
X+003385Y+007992
X+003385Y+010354
X+004960Y+007992
X+004960Y+010354
X+003385Y+003543
X+003385Y+005905
X+004960Y+003543
X+004960Y+005905
X-041968Y-006141
X-041968Y-003779
X-040393Y-006141
X-040393Y-003779
X-034842Y-006141
X-034842Y-003779
X-033267Y-006141
X-033267Y-003779
X-027716Y-006141
X-027716Y-003779
X-026141Y-006141
X-026141Y-003779
X-020748Y-006141
X-020748Y-003779
X-019173Y-006141
X-019173Y-003779
X-013740Y-006102
X-013740Y-003740
X-012165Y-006102
X-012165Y-003740
X-041968Y-011220
X-041968Y-008858
X-040393Y-011220
X-040393Y-008858
X-034842Y-011259
X-034842Y-008897
X-033267Y-011259
X-033267Y-008897
X-027716Y-011259
X-027716Y-008897
X-026141Y-011259
X-026141Y-008897
X-020748Y-011259
X-020748Y-008897
X-019173Y-011259
X-019173Y-008897
X-013740Y-011259
X-013740Y-008897
X-012165Y-011259
X-012165Y-008897
X-006732Y-011259
X-006732Y-008897
X-005157Y-011259
X-005157Y-008897
X-041968Y-016338
X-041968Y-013976
X-040393Y-016338
X-040393Y-013976
X-034881Y-021456
X-034881Y-019094
X-033307Y-021456
X-033307Y-019094
X-034881Y-026614
X-034881Y-024251
X-033307Y-026614
X-033307Y-024251
X-041968Y-021496
X-041968Y-019133
X-040393Y-021496
X-040393Y-019133
X-041968Y-026614
X-041968Y-024251
X-040393Y-026614
X-040393Y-024251
X-043425Y-031377
X-043425Y-029015
X-041850Y-031377
X-041850Y-029015
X-037519Y-031338
X-037519Y-028976
X-035944Y-031338
X-035944Y-028976
X-031692Y-031417
X-031692Y-029055
X-030118Y-031417
X-030118Y-029055
X-043425Y-036141
X-043425Y-033779
X-041850Y-036141
X-041850Y-033779
X-037519Y-036062
X-037519Y-033700
X-035944Y-036062
X-035944Y-033700
X-031692Y-036102
X-031692Y-033740
X-030118Y-036102
X-030118Y-033740
X-043425Y-040787
X-043425Y-038425
X-041850Y-040787
X-041850Y-038425
X-037519Y-040748
X-037519Y-038385
X-035944Y-040748
X-035944Y-038385
X-031692Y-040787
X-031692Y-038425
X-030118Y-040787
X-030118Y-038425
X-037559Y-045590
X-037559Y-043228
X-035984Y-045590
X-035984Y-043228
X-043425Y-045551
X-043425Y-043188
X-041850Y-045551
X-041850Y-043188
X-031692Y-045590
X-031692Y-043228
X-030118Y-045590
X-030118Y-043228
X-025472Y-017559
X-025472Y-015196
X-023897Y-017559
X-023897Y-015196
X-019566Y-017559
X-019566Y-015196
X-017992Y-017559
X-017992Y-015196
X-013740Y-017559
X-013740Y-015196
X-012165Y-017559
X-012165Y-015196
X-007913Y-017559
X-007913Y-015196
X-006338Y-017559
X-006338Y-015196
X-002047Y-017559
X-002047Y-015196
X-000472Y-017559
X-000472Y-015196
X-025472Y-023110
X-025472Y-020748
X-023897Y-023110
X-023897Y-020748
X-019566Y-023149
X-019566Y-020787
X-017992Y-023149
X-017992Y-020787
X-013740Y-023149
X-013740Y-020787
X-012165Y-023149
X-012165Y-020787
X-007913Y-023149
X-007913Y-020787
X-006338Y-023149
X-006338Y-020787
X-002047Y-023149
X-002047Y-020787
X-000472Y-023149
X-000472Y-020787
X-025472Y-028582
X-025472Y-026220
X-023897Y-028582
X-023897Y-026220
X-019566Y-028582
X-019566Y-026220
X-017992Y-028582
X-017992Y-026220
X-013740Y-028582
X-013740Y-026220
X-012165Y-028582
X-012165Y-026220
X-007913Y-028582
X-007913Y-026220
X-006338Y-028582
X-006338Y-026220
X-002047Y-028622
X-002047Y-026259
X-000472Y-028622
X-000472Y-026259
X-025472Y-034094
X-025472Y-031732
X-023897Y-034094
X-023897Y-031732
X-019645Y-034094
X-019645Y-031732
X-018070Y-034094
X-018070Y-031732
X-013740Y-034094
X-013740Y-031732
X-012165Y-034094
X-012165Y-031732
X-007913Y-034094
X-007913Y-031732
X-006338Y-034094
X-006338Y-031732
X-002047Y-034094
X-002047Y-031732
X-000472Y-034094
X-000472Y-031732
X-025472Y-039606
X-025472Y-037244
X-023897Y-039606
X-023897Y-037244
X-019645Y-039606
X-019645Y-037244
X-018070Y-039606
X-018070Y-037244
X-013740Y-039606
X-013740Y-037244
X-012165Y-039606
X-012165Y-037244
X-007913Y-039606
X-007913Y-037244
X-006338Y-039606
X-006338Y-037244
X-002047Y-039606
X-002047Y-037244
X-000472Y-039606
X-000472Y-037244
X-025472Y-045157
X-025472Y-042795
X-023897Y-045157
X-023897Y-042795
X-019645Y-045157
X-019645Y-042795
X-018070Y-045157
X-018070Y-042795
X-013740Y-045157
X-013740Y-042795
X-012165Y-045157
X-012165Y-042795
X-007913Y-045157
X-007913Y-042795
X-006338Y-045157
X-006338Y-042795
X-002047Y-045157
X-002047Y-042795
X-000472Y-045157
X-000472Y-042795
X+004228Y-047519
X+003228Y-047519
X-018629Y+029511
X-019629Y+029511
X-020629Y+029511
X-021629Y+029511
X-022629Y+029511
X-023629Y+029511
X-024629Y+029511
X-025629Y+029511
X-026629Y+029511
X-027629Y+029511
X-028629Y+029511
X-029629Y+029511
X-030629Y+029511
X-031629Y+029511
X-032629Y+029511
X-033629Y+029511
X-034629Y+029511
X-035629Y+029511
X-036629Y+029511
X-037629Y+029511
X-037629Y+030511
X-036629Y+030511
X-035629Y+030511
X-034629Y+030511
X-033629Y+030511
X-032629Y+030511
X-031629Y+030511
X-030629Y+030511
X-029629Y+030511
X-028629Y+030511
X-027629Y+030511
X-026629Y+030511
X-025629Y+030511
X-024629Y+030511
X-023629Y+030511
X-022629Y+030511
X-021629Y+030511
X-020629Y+030511
X-019629Y+030511
X-018629Y+030511
X-003055Y+029133
X-004055Y+029133
X-005055Y+029133
X-006055Y+029133
X-007055Y+029133
X-008055Y+029133
X-009055Y+029133
X-010055Y+029133
X-010055Y+030133
X-009055Y+030133
X-008055Y+030133
X-007055Y+030133
X-006055Y+030133
X-005055Y+030133
X-004055Y+030133
X-003055Y+030133
X-003149Y+004905
X-004149Y+004905
X-005149Y+004905
X-006149Y+004905
X-007149Y+004905
X-008149Y+004905
X-009149Y+004905
X-010149Y+004905
X-010149Y+005905
X-009149Y+005905
X-008149Y+005905
X-007149Y+005905
X-006149Y+005905
X-005149Y+005905
X-004149Y+005905
X-003149Y+005905
X-002937Y+017503
X-003937Y+017503
X-004937Y+017503
X-005937Y+017503
X-006937Y+017503
X-007937Y+017503
X-008937Y+017503
X-009937Y+017503
X-009937Y+018503
X-008937Y+018503
X-007937Y+018503
X-006937Y+018503
X-005937Y+018503
X-004937Y+018503
X-003937Y+018503
X-002937Y+018503
X-003055Y+011401
X-004055Y+011401
X-005055Y+011401
X-006055Y+011401
X-007055Y+011401
X-008055Y+011401
X-009055Y+011401
X-010055Y+011401
X-010055Y+012401
X-009055Y+012401
X-008055Y+012401
X-007055Y+012401
X-006055Y+012401
X-005055Y+012401
X-004055Y+012401
X-003055Y+012401
X-002937Y+023015
X-003937Y+023015
X-004937Y+023015
X-005937Y+023015
X-006937Y+023015
X-007937Y+023015
X-008937Y+023015
X-009937Y+023015
X-009937Y+024015
X-008937Y+024015
X-007937Y+024015
X-006937Y+024015
X-005937Y+024015
X-004937Y+024015
X-003937Y+024015
X-002937Y+024015
T03
X-048464Y+027165
X-046102Y+027165
X-048464Y+022677
X-046102Y+022677
X-048464Y+018188
X-046102Y+018188
X-048464Y+013700
X-046102Y+013700
X-048543Y+009212
X-046181Y+009212
X-048503Y+004685
X-046141Y+004685
X+002952Y+027125
X+005314Y+027125
X+002952Y+022677
X+005314Y+022677
X+002952Y+018188
X+005314Y+018188
X+002992Y+013700
X+005354Y+013700
X+002992Y+009173
X+005354Y+009173
X+002992Y+004724
X+005354Y+004724
X-042362Y-004960
X-040000Y-004960
X-035236Y-004960
X-032874Y-004960
X-028110Y-004960
X-025748Y-004960
X-021141Y-004960
X-018779Y-004960
X-014133Y-004921
X-011771Y-004921
X-042362Y-010039
X-040000Y-010039
X-035236Y-010078
X-032874Y-010078
X-028110Y-010078
X-025748Y-010078
X-021141Y-010078
X-018779Y-010078
X-014133Y-010078
X-011771Y-010078
X-007125Y-010078
X-004763Y-010078
X-042362Y-015157
X-040000Y-015157
X-035275Y-020275
X-032913Y-020275
X-035275Y-025433
X-032913Y-025433
X-042362Y-020314
X-040000Y-020314
X-042362Y-025433
X-040000Y-025433
X-043818Y-030196
X-041456Y-030196
X-037913Y-030157
X-035551Y-030157
X-032086Y-030236
X-029724Y-030236
X-043818Y-034960
X-041456Y-034960
X-037913Y-034881
X-035551Y-034881
X-032086Y-034921
X-029724Y-034921
X-043818Y-039606
X-041456Y-039606
X-037913Y-039566
X-035551Y-039566
X-032086Y-039606
X-029724Y-039606
X-037952Y-044409
X-035590Y-044409
X-043818Y-044370
X-041456Y-044370
X-032086Y-044409
X-029724Y-044409
X-025866Y-016377
X-023503Y-016377
X-019960Y-016377
X-017598Y-016377
X-014133Y-016377
X-011771Y-016377
X-008307Y-016377
X-005944Y-016377
X-002440Y-016377
X-000078Y-016377
X-025866Y-021929
X-023503Y-021929
X-019960Y-021968
X-017598Y-021968
X-014133Y-021968
X-011771Y-021968
X-008307Y-021968
X-005944Y-021968
X-002440Y-021968
X-000078Y-021968
X-025866Y-027401
X-023503Y-027401
X-019960Y-027401
X-017598Y-027401
X-014133Y-027401
X-011771Y-027401
X-008307Y-027401
X-005944Y-027401
X-002440Y-027440
X-000078Y-027440
X-025866Y-032913
X-023503Y-032913
X-020039Y-032913
X-017677Y-032913
X-014133Y-032913
X-011771Y-032913
X-008307Y-032913
X-005944Y-032913
X-002440Y-032913
X-000078Y-032913
X-025866Y-038425
X-023503Y-038425
X-020039Y-038425
X-017677Y-038425
X-014133Y-038425
X-011771Y-038425
X-008307Y-038425
X-005944Y-038425
X-002440Y-038425
X-000078Y-038425
X-025866Y-043976
X-023503Y-043976
X-020039Y-043976
X-017677Y-043976
X-014133Y-043976
X-011771Y-043976
X-008307Y-043976
X-005944Y-043976
X-002440Y-043976
X-000078Y-043976
T04
X-039771Y+030011
X-039732Y+020775
X-016661Y+020736
X-016661Y+030066
M30
