M48
INCH
T01C0.0150
T02C0.0400
T03C0.0300
%
T01
X-033250Y+034500
X-046250Y+036000
X-043000Y+035750
X-041750Y+030500
X-043000Y+035250
X-044000Y+035250
X-046250Y+031000
X-033250Y+030500
X-037500Y+030500
X-048500Y+042750
X-038750Y+031000
X-032500Y+036500
X-035250Y+032000
X-041750Y+031000
X-037500Y+036250
X-046250Y+036500
X-034250Y+035250
X-040750Y+030250
X-037000Y+031000
X-030250Y+036250
X-024750Y+039250
X-023750Y+039500
X-021750Y+040000
X-019750Y+041000
X-018750Y+042250
X-031500Y+035750
X-040500Y+035500
X-041250Y+037250
X-036500Y+030750
X-047750Y+045000
X-036500Y+037000
X-031000Y+031000
X-029750Y+031000
X-031500Y+036750
X-031500Y+036250
X-041750Y+036500
X-041750Y+034000
T02
X-046850Y+045669
X-045850Y+045669
X-044850Y+045669
X-043850Y+045669
X-042850Y+045669
X-041850Y+045669
X-040850Y+045669
X-039850Y+045669
X-038850Y+045669
X-037850Y+045669
X-036850Y+045669
X-035850Y+045669
X-034850Y+045669
X-033850Y+045669
X-032850Y+045669
X-031850Y+045669
X-030850Y+045669
X-029850Y+045669
X-028850Y+045669
X-027850Y+045669
X-027850Y+046669
X-028850Y+046669
X-029850Y+046669
X-030850Y+046669
X-031850Y+046669
X-032850Y+046669
X-033850Y+046669
X-034850Y+046669
X-035850Y+046669
X-036850Y+046669
X-037850Y+046669
X-038850Y+046669
X-039850Y+046669
X-040850Y+046669
X-041850Y+046669
X-042850Y+046669
X-043850Y+046669
X-044850Y+046669
X-045850Y+046669
X-046850Y+046669
X-024803Y+045669
X-023803Y+045669
X-022803Y+045669
X-021803Y+045669
X-020803Y+045669
X-019803Y+045669
X-018803Y+045669
X-017803Y+045669
X-017803Y+046669
X-018803Y+046669
X-019803Y+046669
X-020803Y+046669
X-021803Y+046669
X-022803Y+046669
X-023803Y+046669
X-024803Y+046669
T03
X-050000Y+046850
M30
