<?xml version="1.0" standalone="no"?>
 <!DOCTYPE svg PUBLIC "-//W3C//DTD SVG 1.1//EN" 
 "http://www.w3.org/Graphics/SVG/1.1/DTD/svg11.dtd"> 
<svg
  xmlns:svg="http://www.w3.org/2000/svg"
  xmlns="http://www.w3.org/2000/svg"
  xmlns:xlink="http://www.w3.org/1999/xlink"
  version="1.1"
  width="21.000720cm" height="29.700220cm" viewBox="0 0 82680 116930">
<title>SVG Picture created as opena3xx-mcdu-Edge_Cuts.svg date 2021/06/17 16:49:02 </title>
  <desc>Picture generated by PCBNEW </desc>
<g style="fill:#000000; fill-opacity:1;stroke:#000000; stroke-opacity:1;
stroke-linecap:round; stroke-linejoin:round;"
 transform="translate(0 0) scale(1 1)">
</g>
<g style="fill:#000000; fill-opacity:0.0; 
stroke:#000000; stroke-width:-0.000393701; stroke-opacity:1; 
stroke-linecap:round; stroke-linejoin:round;">
</g>
<g style="fill:#000000; fill-opacity:0.0; 
stroke:#000000; stroke-width:39.3701; stroke-opacity:1; 
stroke-linecap:round; stroke-linejoin:round;">
</g>
<g style="fill:#000000; fill-opacity:0.0; 
stroke:#000000; stroke-width:59.0551; stroke-opacity:1; 
stroke-linecap:round; stroke-linejoin:round;">
<rect x="35435.9" y="99607.2" width="42519.7" height="12598.4" rx="0" />
</g>
<g style="fill:#000000; fill-opacity:0.0; 
stroke:#000000; stroke-width:39.3701; stroke-opacity:1; 
stroke-linecap:round; stroke-linejoin:round;">
</g>
<g style="fill:#000000; fill-opacity:0.0; 
stroke:#000000; stroke-width:59.0551; stroke-opacity:1; 
stroke-linecap:round; stroke-linejoin:round;">
<rect x="3937.01" y="3937.01" width="74806" height="109056" rx="0" />
</g>
<g style="fill:#000000; fill-opacity:0.0; 
stroke:#000000; stroke-width:39.3701; stroke-opacity:1; 
stroke-linecap:round; stroke-linejoin:round;">
</g>
<g style="fill:#000000; fill-opacity:0.0; 
stroke:#000000; stroke-width:59.0551; stroke-opacity:1; 
stroke-linecap:round; stroke-linejoin:round;">
<rect x="4724.41" y="4724.41" width="73231.2" height="107481" rx="0" />
</g>
<g style="fill:#000000; fill-opacity:0.0; 
stroke:#000000; stroke-width:39.3701; stroke-opacity:1; 
stroke-linecap:round; stroke-linejoin:round;">
</g>
<g style="fill:#000000; fill-opacity:0.0; 
stroke:#000000; stroke-width:59.0551; stroke-opacity:1; 
stroke-linecap:round; stroke-linejoin:round;">
<path d="M23622 4724
L23622 3937
" />
</g>
<g style="fill:#000000; fill-opacity:0.0; 
stroke:#000000; stroke-width:39.3701; stroke-opacity:1; 
stroke-linecap:round; stroke-linejoin:round;">
</g>
<g style="fill:#000000; fill-opacity:0.0; 
stroke:#000000; stroke-width:59.0551; stroke-opacity:1; 
stroke-linecap:round; stroke-linejoin:round;">
<path d="M43307 4724
L43307 3937
" />
</g>
<g style="fill:#000000; fill-opacity:0.0; 
stroke:#000000; stroke-width:39.3701; stroke-opacity:1; 
stroke-linecap:round; stroke-linejoin:round;">
</g>
<g style="fill:#000000; fill-opacity:0.0; 
stroke:#000000; stroke-width:59.0551; stroke-opacity:1; 
stroke-linecap:round; stroke-linejoin:round;">
<path d="M62992 4724
L62992 3937
" />
</g>
<g style="fill:#000000; fill-opacity:0.0; 
stroke:#000000; stroke-width:39.3701; stroke-opacity:1; 
stroke-linecap:round; stroke-linejoin:round;">
</g>
<g style="fill:#000000; fill-opacity:0.0; 
stroke:#000000; stroke-width:59.0551; stroke-opacity:1; 
stroke-linecap:round; stroke-linejoin:round;">
<text x="13779.5" y="4586.61"
textLength="640.982" font-size="682.415" lengthAdjust="spacingAndGlyphs"
text-anchor="start" opacity="0">1</text>
<path d="M14199 4562
L13906 4562
" />
<path d="M14052 4562
L14052 4050
L14004 4123
L13955 4172
L13906 4196
" />
</g>
<g style="fill:#000000; fill-opacity:0.0; 
stroke:#000000; stroke-width:39.3701; stroke-opacity:1; 
stroke-linecap:round; stroke-linejoin:round;">
</g>
<g style="fill:#000000; fill-opacity:0.0; 
stroke:#000000; stroke-width:59.0551; stroke-opacity:1; 
stroke-linecap:round; stroke-linejoin:round;">
<text x="33464.6" y="4586.61"
textLength="546.494" font-size="682.415" lengthAdjust="spacingAndGlyphs"
text-anchor="start" opacity="0">2</text>
<path d="M33591 4099
L33615 4074
L33664 4050
L33786 4050
L33835 4074
L33859 4099
L33884 4147
L33884 4196
L33859 4269
L33567 4562
L33884 4562
" />
</g>
<g style="fill:#000000; fill-opacity:0.0; 
stroke:#000000; stroke-width:39.3701; stroke-opacity:1; 
stroke-linecap:round; stroke-linejoin:round;">
</g>
<g style="fill:#000000; fill-opacity:0.0; 
stroke:#000000; stroke-width:59.0551; stroke-opacity:1; 
stroke-linecap:round; stroke-linejoin:round;">
<text x="53149.6" y="4586.61"
textLength="546.494" font-size="682.415" lengthAdjust="spacingAndGlyphs"
text-anchor="start" opacity="0">3</text>
<path d="M53252 4050
L53569 4050
L53398 4245
L53471 4245
L53520 4269
L53544 4294
L53569 4342
L53569 4464
L53544 4513
L53520 4537
L53471 4562
L53325 4562
L53276 4537
L53252 4513
" />
</g>
<g style="fill:#000000; fill-opacity:0.0; 
stroke:#000000; stroke-width:39.3701; stroke-opacity:1; 
stroke-linecap:round; stroke-linejoin:round;">
</g>
<g style="fill:#000000; fill-opacity:0.0; 
stroke:#000000; stroke-width:59.0551; stroke-opacity:1; 
stroke-linecap:round; stroke-linejoin:round;">
<text x="72834.6" y="4586.61"
textLength="546.494" font-size="682.415" lengthAdjust="spacingAndGlyphs"
text-anchor="start" opacity="0">4</text>
<path d="M73205 4221
L73205 4562
" />
<path d="M73083 4026
L72961 4391
L73278 4391
" />
</g>
<g style="fill:#000000; fill-opacity:0.0; 
stroke:#000000; stroke-width:39.3701; stroke-opacity:1; 
stroke-linecap:round; stroke-linejoin:round;">
</g>
<g style="fill:#000000; fill-opacity:0.0; 
stroke:#000000; stroke-width:59.0551; stroke-opacity:1; 
stroke-linecap:round; stroke-linejoin:round;">
<path d="M23622 112205
L23622 112992
" />
</g>
<g style="fill:#000000; fill-opacity:0.0; 
stroke:#000000; stroke-width:39.3701; stroke-opacity:1; 
stroke-linecap:round; stroke-linejoin:round;">
</g>
<g style="fill:#000000; fill-opacity:0.0; 
stroke:#000000; stroke-width:59.0551; stroke-opacity:1; 
stroke-linecap:round; stroke-linejoin:round;">
<path d="M43307 112205
L43307 112992
" />
</g>
<g style="fill:#000000; fill-opacity:0.0; 
stroke:#000000; stroke-width:39.3701; stroke-opacity:1; 
stroke-linecap:round; stroke-linejoin:round;">
</g>
<g style="fill:#000000; fill-opacity:0.0; 
stroke:#000000; stroke-width:59.0551; stroke-opacity:1; 
stroke-linecap:round; stroke-linejoin:round;">
<path d="M62992 112205
L62992 112992
" />
</g>
<g style="fill:#000000; fill-opacity:0.0; 
stroke:#000000; stroke-width:39.3701; stroke-opacity:1; 
stroke-linecap:round; stroke-linejoin:round;">
</g>
<g style="fill:#000000; fill-opacity:0.0; 
stroke:#000000; stroke-width:59.0551; stroke-opacity:1; 
stroke-linecap:round; stroke-linejoin:round;">
<text x="13779.5" y="112855"
textLength="546.494" font-size="682.415" lengthAdjust="spacingAndGlyphs"
text-anchor="start" opacity="0">1</text>
<path d="M14199 112830
L13906 112830
" />
<path d="M14052 112830
L14052 112319
L14004 112392
L13955 112440
L13906 112465
" />
</g>
<g style="fill:#000000; fill-opacity:0.0; 
stroke:#000000; stroke-width:39.3701; stroke-opacity:1; 
stroke-linecap:round; stroke-linejoin:round;">
</g>
<g style="fill:#000000; fill-opacity:0.0; 
stroke:#000000; stroke-width:59.0551; stroke-opacity:1; 
stroke-linecap:round; stroke-linejoin:round;">
<text x="33464.6" y="112855"
textLength="546.494" font-size="682.415" lengthAdjust="spacingAndGlyphs"
text-anchor="start" opacity="0">2</text>
<path d="M33591 112367
L33615 112343
L33664 112319
L33786 112319
L33835 112343
L33859 112367
L33884 112416
L33884 112465
L33859 112538
L33567 112830
L33884 112830
" />
</g>
<g style="fill:#000000; fill-opacity:0.0; 
stroke:#000000; stroke-width:39.3701; stroke-opacity:1; 
stroke-linecap:round; stroke-linejoin:round;">
</g>
<g style="fill:#000000; fill-opacity:0.0; 
stroke:#000000; stroke-width:59.0551; stroke-opacity:1; 
stroke-linecap:round; stroke-linejoin:round;">
<text x="53149.6" y="112855"
textLength="546.494" font-size="682.415" lengthAdjust="spacingAndGlyphs"
text-anchor="start" opacity="0">3</text>
<path d="M53252 112319
L53569 112319
L53398 112513
L53471 112513
L53520 112538
L53544 112562
L53569 112611
L53569 112733
L53544 112782
L53520 112806
L53471 112830
L53325 112830
L53276 112806
L53252 112782
" />
</g>
<g style="fill:#000000; fill-opacity:0.0; 
stroke:#000000; stroke-width:39.3701; stroke-opacity:1; 
stroke-linecap:round; stroke-linejoin:round;">
</g>
<g style="fill:#000000; fill-opacity:0.0; 
stroke:#000000; stroke-width:59.0551; stroke-opacity:1; 
stroke-linecap:round; stroke-linejoin:round;">
<text x="72834.6" y="112855"
textLength="546.494" font-size="682.415" lengthAdjust="spacingAndGlyphs"
text-anchor="start" opacity="0">4</text>
<path d="M73205 112489
L73205 112830
" />
<path d="M73083 112294
L72961 112660
L73278 112660
" />
</g>
<g style="fill:#000000; fill-opacity:0.0; 
stroke:#000000; stroke-width:39.3701; stroke-opacity:1; 
stroke-linecap:round; stroke-linejoin:round;">
</g>
<g style="fill:#000000; fill-opacity:0.0; 
stroke:#000000; stroke-width:59.0551; stroke-opacity:1; 
stroke-linecap:round; stroke-linejoin:round;">
<path d="M3937 23622
L4724 23622
" />
</g>
<g style="fill:#000000; fill-opacity:0.0; 
stroke:#000000; stroke-width:39.3701; stroke-opacity:1; 
stroke-linecap:round; stroke-linejoin:round;">
</g>
<g style="fill:#000000; fill-opacity:0.0; 
stroke:#000000; stroke-width:59.0551; stroke-opacity:1; 
stroke-linecap:round; stroke-linejoin:round;">
<path d="M3937 43307
L4724 43307
" />
</g>
<g style="fill:#000000; fill-opacity:0.0; 
stroke:#000000; stroke-width:39.3701; stroke-opacity:1; 
stroke-linecap:round; stroke-linejoin:round;">
</g>
<g style="fill:#000000; fill-opacity:0.0; 
stroke:#000000; stroke-width:59.0551; stroke-opacity:1; 
stroke-linecap:round; stroke-linejoin:round;">
<path d="M3937 62992
L4724 62992
" />
</g>
<g style="fill:#000000; fill-opacity:0.0; 
stroke:#000000; stroke-width:39.3701; stroke-opacity:1; 
stroke-linecap:round; stroke-linejoin:round;">
</g>
<g style="fill:#000000; fill-opacity:0.0; 
stroke:#000000; stroke-width:59.0551; stroke-opacity:1; 
stroke-linecap:round; stroke-linejoin:round;">
<path d="M3937 82677
L4724 82677
" />
</g>
<g style="fill:#000000; fill-opacity:0.0; 
stroke:#000000; stroke-width:39.3701; stroke-opacity:1; 
stroke-linecap:round; stroke-linejoin:round;">
</g>
<g style="fill:#000000; fill-opacity:0.0; 
stroke:#000000; stroke-width:59.0551; stroke-opacity:1; 
stroke-linecap:round; stroke-linejoin:round;">
<path d="M3937 102362
L4724 102362
" />
</g>
<g style="fill:#000000; fill-opacity:0.0; 
stroke:#000000; stroke-width:39.3701; stroke-opacity:1; 
stroke-linecap:round; stroke-linejoin:round;">
</g>
<g style="fill:#000000; fill-opacity:0.0; 
stroke:#000000; stroke-width:59.0551; stroke-opacity:1; 
stroke-linecap:round; stroke-linejoin:round;">
<text x="4330.71" y="14035.4"
textLength="497.75" font-size="682.415" lengthAdjust="spacingAndGlyphs"
text-anchor="middle" opacity="0">A</text>
<path d="M4208 13864
L4452 13864
" />
<path d="M4160 14011
L4330 13499
L4501 14011
" />
</g>
<g style="fill:#000000; fill-opacity:0.0; 
stroke:#000000; stroke-width:39.3701; stroke-opacity:1; 
stroke-linecap:round; stroke-linejoin:round;">
</g>
<g style="fill:#000000; fill-opacity:0.0; 
stroke:#000000; stroke-width:59.0551; stroke-opacity:1; 
stroke-linecap:round; stroke-linejoin:round;">
<text x="4330.71" y="33720.5"
textLength="570.866" font-size="682.415" lengthAdjust="spacingAndGlyphs"
text-anchor="middle" opacity="0">B</text>
<path d="M4367 33428
L4440 33452
L4464 33476
L4489 33525
L4489 33598
L4464 33647
L4440 33671
L4391 33696
L4196 33696
L4196 33184
L4367 33184
L4416 33208
L4440 33233
L4464 33281
L4464 33330
L4440 33379
L4416 33403
L4367 33428
L4196 33428
" />
</g>
<g style="fill:#000000; fill-opacity:0.0; 
stroke:#000000; stroke-width:39.3701; stroke-opacity:1; 
stroke-linecap:round; stroke-linejoin:round;">
</g>
<g style="fill:#000000; fill-opacity:0.0; 
stroke:#000000; stroke-width:59.0551; stroke-opacity:1; 
stroke-linecap:round; stroke-linejoin:round;">
<text x="4330.71" y="53405.5"
textLength="570.866" font-size="682.415" lengthAdjust="spacingAndGlyphs"
text-anchor="middle" opacity="0">C</text>
<path d="M4489 53332
L4464 53356
L4391 53381
L4342 53381
L4269 53356
L4221 53308
L4196 53259
L4172 53161
L4172 53088
L4196 52991
L4221 52942
L4269 52893
L4342 52869
L4391 52869
L4464 52893
L4489 52918
" />
</g>
<g style="fill:#000000; fill-opacity:0.0; 
stroke:#000000; stroke-width:39.3701; stroke-opacity:1; 
stroke-linecap:round; stroke-linejoin:round;">
</g>
<g style="fill:#000000; fill-opacity:0.0; 
stroke:#000000; stroke-width:59.0551; stroke-opacity:1; 
stroke-linecap:round; stroke-linejoin:round;">
<text x="4330.71" y="73090.6"
textLength="570.866" font-size="682.415" lengthAdjust="spacingAndGlyphs"
text-anchor="middle" opacity="0">D</text>
<path d="M4196 73066
L4196 72554
L4318 72554
L4391 72578
L4440 72627
L4464 72676
L4489 72773
L4489 72846
L4464 72944
L4440 72993
L4391 73041
L4318 73066
L4196 73066
" />
</g>
<g style="fill:#000000; fill-opacity:0.0; 
stroke:#000000; stroke-width:39.3701; stroke-opacity:1; 
stroke-linecap:round; stroke-linejoin:round;">
</g>
<g style="fill:#000000; fill-opacity:0.0; 
stroke:#000000; stroke-width:59.0551; stroke-opacity:1; 
stroke-linecap:round; stroke-linejoin:round;">
<text x="4330.71" y="92775.6"
textLength="522.122" font-size="682.415" lengthAdjust="spacingAndGlyphs"
text-anchor="middle" opacity="0">E</text>
<path d="M4221 92483
L4391 92483
" />
<path d="M4464 92751
L4221 92751
L4221 92239
L4464 92239
" />
</g>
<g style="fill:#000000; fill-opacity:0.0; 
stroke:#000000; stroke-width:39.3701; stroke-opacity:1; 
stroke-linecap:round; stroke-linejoin:round;">
</g>
<g style="fill:#000000; fill-opacity:0.0; 
stroke:#000000; stroke-width:59.0551; stroke-opacity:1; 
stroke-linecap:round; stroke-linejoin:round;">
<text x="4330.71" y="112461"
textLength="497.75" font-size="682.415" lengthAdjust="spacingAndGlyphs"
text-anchor="middle" opacity="0">F</text>
<path d="M4403 112168
L4233 112168
" />
<path d="M4233 112436
L4233 111924
L4476 111924
" />
</g>
<g style="fill:#000000; fill-opacity:0.0; 
stroke:#000000; stroke-width:39.3701; stroke-opacity:1; 
stroke-linecap:round; stroke-linejoin:round;">
</g>
<g style="fill:#000000; fill-opacity:0.0; 
stroke:#000000; stroke-width:59.0551; stroke-opacity:1; 
stroke-linecap:round; stroke-linejoin:round;">
<path d="M78742 23622
L77955 23622
" />
</g>
<g style="fill:#000000; fill-opacity:0.0; 
stroke:#000000; stroke-width:39.3701; stroke-opacity:1; 
stroke-linecap:round; stroke-linejoin:round;">
</g>
<g style="fill:#000000; fill-opacity:0.0; 
stroke:#000000; stroke-width:59.0551; stroke-opacity:1; 
stroke-linecap:round; stroke-linejoin:round;">
<path d="M78742 43307
L77955 43307
" />
</g>
<g style="fill:#000000; fill-opacity:0.0; 
stroke:#000000; stroke-width:39.3701; stroke-opacity:1; 
stroke-linecap:round; stroke-linejoin:round;">
</g>
<g style="fill:#000000; fill-opacity:0.0; 
stroke:#000000; stroke-width:59.0551; stroke-opacity:1; 
stroke-linecap:round; stroke-linejoin:round;">
<path d="M78742 62992
L77955 62992
" />
</g>
<g style="fill:#000000; fill-opacity:0.0; 
stroke:#000000; stroke-width:39.3701; stroke-opacity:1; 
stroke-linecap:round; stroke-linejoin:round;">
</g>
<g style="fill:#000000; fill-opacity:0.0; 
stroke:#000000; stroke-width:59.0551; stroke-opacity:1; 
stroke-linecap:round; stroke-linejoin:round;">
<path d="M78742 82677
L77955 82677
" />
</g>
<g style="fill:#000000; fill-opacity:0.0; 
stroke:#000000; stroke-width:39.3701; stroke-opacity:1; 
stroke-linecap:round; stroke-linejoin:round;">
</g>
<g style="fill:#000000; fill-opacity:0.0; 
stroke:#000000; stroke-width:59.0551; stroke-opacity:1; 
stroke-linecap:round; stroke-linejoin:round;">
<path d="M78742 102362
L77955 102362
" />
</g>
<g style="fill:#000000; fill-opacity:0.0; 
stroke:#000000; stroke-width:39.3701; stroke-opacity:1; 
stroke-linecap:round; stroke-linejoin:round;">
</g>
<g style="fill:#000000; fill-opacity:0.0; 
stroke:#000000; stroke-width:59.0551; stroke-opacity:1; 
stroke-linecap:round; stroke-linejoin:round;">
<text x="78349.3" y="14035.4"
textLength="497.75" font-size="682.415" lengthAdjust="spacingAndGlyphs"
text-anchor="middle" opacity="0">A</text>
<path d="M78227 13864
L78471 13864
" />
<path d="M78178 14011
L78349 13499
L78519 14011
" />
</g>
<g style="fill:#000000; fill-opacity:0.0; 
stroke:#000000; stroke-width:39.3701; stroke-opacity:1; 
stroke-linecap:round; stroke-linejoin:round;">
</g>
<g style="fill:#000000; fill-opacity:0.0; 
stroke:#000000; stroke-width:59.0551; stroke-opacity:1; 
stroke-linecap:round; stroke-linejoin:round;">
<text x="78349.3" y="33720.5"
textLength="570.866" font-size="682.415" lengthAdjust="spacingAndGlyphs"
text-anchor="middle" opacity="0">B</text>
<path d="M78385 33428
L78458 33452
L78483 33476
L78507 33525
L78507 33598
L78483 33647
L78458 33671
L78410 33696
L78215 33696
L78215 33184
L78385 33184
L78434 33208
L78458 33233
L78483 33281
L78483 33330
L78458 33379
L78434 33403
L78385 33428
L78215 33428
" />
</g>
<g style="fill:#000000; fill-opacity:0.0; 
stroke:#000000; stroke-width:39.3701; stroke-opacity:1; 
stroke-linecap:round; stroke-linejoin:round;">
</g>
<g style="fill:#000000; fill-opacity:0.0; 
stroke:#000000; stroke-width:59.0551; stroke-opacity:1; 
stroke-linecap:round; stroke-linejoin:round;">
<text x="78349.3" y="53405.5"
textLength="570.866" font-size="682.415" lengthAdjust="spacingAndGlyphs"
text-anchor="middle" opacity="0">C</text>
<path d="M78507 53332
L78483 53356
L78410 53381
L78361 53381
L78288 53356
L78239 53308
L78215 53259
L78190 53161
L78190 53088
L78215 52991
L78239 52942
L78288 52893
L78361 52869
L78410 52869
L78483 52893
L78507 52918
" />
</g>
<g style="fill:#000000; fill-opacity:0.0; 
stroke:#000000; stroke-width:39.3701; stroke-opacity:1; 
stroke-linecap:round; stroke-linejoin:round;">
</g>
<g style="fill:#000000; fill-opacity:0.0; 
stroke:#000000; stroke-width:59.0551; stroke-opacity:1; 
stroke-linecap:round; stroke-linejoin:round;">
<text x="78349.3" y="73090.6"
textLength="570.866" font-size="682.415" lengthAdjust="spacingAndGlyphs"
text-anchor="middle" opacity="0">D</text>
<path d="M78215 73066
L78215 72554
L78337 72554
L78410 72578
L78458 72627
L78483 72676
L78507 72773
L78507 72846
L78483 72944
L78458 72993
L78410 73041
L78337 73066
L78215 73066
" />
</g>
<g style="fill:#000000; fill-opacity:0.0; 
stroke:#000000; stroke-width:39.3701; stroke-opacity:1; 
stroke-linecap:round; stroke-linejoin:round;">
</g>
<g style="fill:#000000; fill-opacity:0.0; 
stroke:#000000; stroke-width:59.0551; stroke-opacity:1; 
stroke-linecap:round; stroke-linejoin:round;">
<text x="78349.3" y="92775.6"
textLength="522.122" font-size="682.415" lengthAdjust="spacingAndGlyphs"
text-anchor="middle" opacity="0">E</text>
<path d="M78239 92483
L78410 92483
" />
<path d="M78483 92751
L78239 92751
L78239 92239
L78483 92239
" />
</g>
<g style="fill:#000000; fill-opacity:0.0; 
stroke:#000000; stroke-width:39.3701; stroke-opacity:1; 
stroke-linecap:round; stroke-linejoin:round;">
</g>
<g style="fill:#000000; fill-opacity:0.0; 
stroke:#000000; stroke-width:59.0551; stroke-opacity:1; 
stroke-linecap:round; stroke-linejoin:round;">
<text x="78349.3" y="112461"
textLength="497.75" font-size="682.415" lengthAdjust="spacingAndGlyphs"
text-anchor="middle" opacity="0">F</text>
<path d="M78422 112168
L78251 112168
" />
<path d="M78251 112436
L78251 111924
L78495 111924
" />
</g>
<g style="fill:#000000; fill-opacity:0.0; 
stroke:#000000; stroke-width:39.3701; stroke-opacity:1; 
stroke-linecap:round; stroke-linejoin:round;">
</g>
<g style="fill:#000000; fill-opacity:0.0; 
stroke:#000000; stroke-width:59.0551; stroke-opacity:1; 
stroke-linecap:round; stroke-linejoin:round;">
<text x="44491" y="110572"
textLength="8720.47" font-size="787.402" lengthAdjust="spacingAndGlyphs"
text-anchor="start" opacity="0">Date: 2021-05-11</text>
<path d="M44661 110543
L44661 109953
L44801 109953
L44886 109981
L44942 110037
L44970 110093
L44998 110206
L44998 110290
L44970 110403
L44942 110459
L44886 110515
L44801 110543
L44661 110543
" />
<path d="M45504 110543
L45504 110234
L45476 110178
L45420 110149
L45307 110149
L45251 110178
" />
<path d="M45504 110515
L45448 110543
L45307 110543
L45251 110515
L45223 110459
L45223 110403
L45251 110346
L45307 110318
L45448 110318
L45504 110290
" />
<path d="M45701 110149
L45926 110149
" />
<path d="M45786 109953
L45786 110459
L45814 110515
L45870 110543
L45926 110543
" />
<path d="M46348 110515
L46292 110543
L46179 110543
L46123 110515
L46095 110459
L46095 110234
L46123 110178
L46179 110149
L46292 110149
L46348 110178
L46376 110234
L46376 110290
L46095 110346
" />
<path d="M46629 110487
L46657 110515
L46629 110543
L46601 110515
L46629 110487
L46629 110543
" />
<path d="M46629 110178
L46657 110206
L46629 110234
L46601 110206
L46629 110178
L46629 110234
" />
<path d="M47332 110009
L47360 109981
L47417 109953
L47557 109953
L47613 109981
L47642 110009
L47670 110065
L47670 110121
L47642 110206
L47304 110543
L47670 110543
" />
<path d="M48035 109953
L48091 109953
L48148 109981
L48176 110009
L48204 110065
L48232 110178
L48232 110318
L48204 110431
L48176 110487
L48148 110515
L48091 110543
L48035 110543
L47979 110515
L47951 110487
L47923 110431
L47895 110318
L47895 110178
L47923 110065
L47951 110009
L47979 109981
L48035 109953
" />
<path d="M48457 110009
L48485 109981
L48541 109953
L48682 109953
L48738 109981
L48766 110009
L48795 110065
L48795 110121
L48766 110206
L48429 110543
L48795 110543
" />
<path d="M49357 110543
L49019 110543
" />
<path d="M49188 110543
L49188 109953
L49132 110037
L49076 110093
L49019 110121
" />
<path d="M49610 110318
L50060 110318
" />
<path d="M50454 109953
L50510 109953
L50566 109981
L50594 110009
L50622 110065
L50651 110178
L50651 110318
L50622 110431
L50594 110487
L50566 110515
L50510 110543
L50454 110543
L50397 110515
L50369 110487
L50341 110431
L50313 110318
L50313 110178
L50341 110065
L50369 110009
L50397 109981
L50454 109953
" />
<path d="M51185 109953
L50904 109953
L50876 110234
L50904 110206
L50960 110178
L51100 110178
L51157 110206
L51185 110234
L51213 110290
L51213 110431
L51185 110487
L51157 110515
L51100 110543
L50960 110543
L50904 110515
L50876 110487
" />
<path d="M51466 110318
L51916 110318
" />
<path d="M52507 110543
L52169 110543
" />
<path d="M52338 110543
L52338 109953
L52282 110037
L52225 110093
L52169 110121
" />
<path d="M53069 110543
L52732 110543
" />
<path d="M52900 110543
L52900 109953
L52844 110037
L52788 110093
L52732 110121
" />
</g>
<g style="fill:#000000; fill-opacity:0.0; 
stroke:#000000; stroke-width:39.3701; stroke-opacity:1; 
stroke-linecap:round; stroke-linejoin:round;">
</g>
<g style="fill:#000000; fill-opacity:0.0; 
stroke:#000000; stroke-width:59.0551; stroke-opacity:1; 
stroke-linecap:round; stroke-linejoin:round;">
<path d="M35435 110827
L77955 110827
" />
</g>
<g style="fill:#000000; fill-opacity:0.0; 
stroke:#000000; stroke-width:39.3701; stroke-opacity:1; 
stroke-linecap:round; stroke-linejoin:round;">
</g>
<g style="fill:#000000; fill-opacity:0.0; 
stroke:#000000; stroke-width:59.0551; stroke-opacity:1; 
stroke-linecap:round; stroke-linejoin:round;">
<text x="35829.6" y="111674"
textLength="13529.2" font-size="787.402" lengthAdjust="spacingAndGlyphs"
text-anchor="start" opacity="0">KiCad E.D.A.  kicad (5.1.9)-1</text>
<path d="M35999 111645
L35999 111055
" />
<path d="M36337 111645
L36084 111308
" />
<path d="M36337 111055
L35999 111392
" />
<path d="M36590 111645
L36590 111252
" />
<path d="M36590 111055
L36562 111083
L36590 111111
L36618 111083
L36590 111055
L36590 111111
" />
<path d="M37208 111589
L37180 111617
L37096 111645
L37040 111645
L36955 111617
L36899 111561
L36871 111505
L36843 111392
L36843 111308
L36871 111196
L36899 111139
L36955 111083
L37040 111055
L37096 111055
L37180 111083
L37208 111111
" />
<path d="M37715 111645
L37715 111336
L37687 111280
L37630 111252
L37518 111252
L37462 111280
" />
<path d="M37715 111617
L37658 111645
L37518 111645
L37462 111617
L37433 111561
L37433 111505
L37462 111449
L37518 111421
L37658 111421
L37715 111392
" />
<path d="M38249 111645
L38249 111055
" />
<path d="M38249 111617
L38193 111645
L38080 111645
L38024 111617
L37996 111589
L37968 111533
L37968 111364
L37996 111308
L38024 111280
L38080 111252
L38193 111252
L38249 111280
" />
<path d="M38980 111336
L39177 111336
" />
<path d="M39261 111645
L38980 111645
L38980 111055
L39261 111055
" />
<path d="M39514 111589
L39543 111617
L39514 111645
L39486 111617
L39514 111589
L39514 111645
" />
<path d="M39796 111645
L39796 111055
L39936 111055
L40021 111083
L40077 111139
L40105 111196
L40133 111308
L40133 111392
L40105 111505
L40077 111561
L40021 111617
L39936 111645
L39796 111645
" />
<path d="M40386 111589
L40414 111617
L40386 111645
L40358 111617
L40386 111589
L40386 111645
" />
<path d="M40639 111477
L40921 111477
" />
<path d="M40583 111645
L40780 111055
L40977 111645
" />
<path d="M41174 111589
L41202 111617
L41174 111645
L41145 111617
L41174 111589
L41174 111645
" />
<path d="M42355 111645
L42355 111055
" />
<path d="M42411 111421
L42580 111645
" />
<path d="M42580 111252
L42355 111477
" />
<path d="M42833 111645
L42833 111252
" />
<path d="M42833 111055
L42805 111083
L42833 111111
L42861 111083
L42833 111055
L42833 111111
" />
<path d="M43367 111617
L43311 111645
L43198 111645
L43142 111617
L43114 111589
L43086 111533
L43086 111364
L43114 111308
L43142 111280
L43198 111252
L43311 111252
L43367 111280
" />
<path d="M43873 111645
L43873 111336
L43845 111280
L43789 111252
L43676 111252
L43620 111280
" />
<path d="M43873 111617
L43817 111645
L43676 111645
L43620 111617
L43592 111561
L43592 111505
L43620 111449
L43676 111421
L43817 111421
L43873 111392
" />
<path d="M44408 111645
L44408 111055
" />
<path d="M44408 111617
L44351 111645
L44239 111645
L44183 111617
L44154 111589
L44126 111533
L44126 111364
L44154 111308
L44183 111280
L44239 111252
L44351 111252
L44408 111280
" />
<path d="M45307 111870
L45279 111842
L45223 111758
L45195 111702
L45167 111617
L45139 111477
L45139 111364
L45167 111224
L45195 111139
L45223 111083
L45279 110999
L45307 110971
" />
<path d="M45814 111055
L45532 111055
L45504 111336
L45532 111308
L45589 111280
L45729 111280
L45786 111308
L45814 111336
L45842 111392
L45842 111533
L45814 111589
L45786 111617
L45729 111645
L45589 111645
L45532 111617
L45504 111589
" />
<path d="M46095 111589
L46123 111617
L46095 111645
L46067 111617
L46095 111589
L46095 111645
" />
<path d="M46685 111645
L46348 111645
" />
<path d="M46517 111645
L46517 111055
L46460 111139
L46404 111196
L46348 111224
" />
<path d="M46938 111589
L46967 111617
L46938 111645
L46910 111617
L46938 111589
L46938 111645
" />
<path d="M47248 111645
L47360 111645
L47417 111617
L47445 111589
L47501 111505
L47529 111392
L47529 111167
L47501 111111
L47473 111083
L47417 111055
L47304 111055
L47248 111083
L47220 111111
L47192 111167
L47192 111308
L47220 111364
L47248 111392
L47304 111421
L47417 111421
L47473 111392
L47501 111364
L47529 111308
" />
<path d="M47726 111870
L47754 111842
L47810 111758
L47838 111702
L47867 111617
L47895 111477
L47895 111364
L47867 111224
L47838 111139
L47810 111083
L47754 110999
L47726 110971
" />
<path d="M48176 111421
L48626 111421
" />
<path d="M49216 111645
L48879 111645
" />
<path d="M49048 111645
L49048 111055
L48991 111139
L48935 111196
L48879 111224
" />
</g>
<g style="fill:#000000; fill-opacity:0.0; 
stroke:#000000; stroke-width:39.3701; stroke-opacity:1; 
stroke-linecap:round; stroke-linejoin:round;">
</g>
<g style="fill:#000000; fill-opacity:0.0; 
stroke:#000000; stroke-width:59.0551; stroke-opacity:1; 
stroke-linecap:round; stroke-linejoin:round;">
<path d="M35435 109646
L77955 109646
" />
</g>
<g style="fill:#000000; fill-opacity:0.0; 
stroke:#000000; stroke-width:39.3701; stroke-opacity:1; 
stroke-linecap:round; stroke-linejoin:round;">
</g>
<g style="fill:#000000; fill-opacity:0.0; 
stroke:#000000; stroke-width:118.11; stroke-opacity:1; 
stroke-linecap:round; stroke-linejoin:round;">
<text x="69294.2" y="110572"
textLength="3742.97" font-size="787.402" lengthAdjust="spacingAndGlyphs"
text-anchor="start" opacity="0">Rev: 0.1</text>
<path d="M69849 110543
L69652 110262
" />
<path d="M69511 110543
L69511 109953
L69736 109953
L69792 109981
L69820 110009
L69849 110065
L69849 110149
L69820 110206
L69792 110234
L69736 110262
L69511 110262
" />
<path d="M70327 110515
L70270 110543
L70158 110543
L70102 110515
L70073 110459
L70073 110234
L70102 110178
L70158 110149
L70270 110149
L70327 110178
L70355 110234
L70355 110290
L70073 110346
" />
<path d="M70552 110149
L70692 110543
L70833 110149
" />
<path d="M71058 110487
L71086 110515
L71058 110543
L71030 110515
L71058 110487
L71058 110543
" />
<path d="M71058 110178
L71086 110206
L71058 110234
L71030 110206
L71058 110178
L71058 110234
" />
<path d="M71901 109953
L71958 109953
L72014 109981
L72042 110009
L72070 110065
L72098 110178
L72098 110318
L72070 110431
L72042 110487
L72014 110515
L71958 110543
L71901 110543
L71845 110515
L71817 110487
L71789 110431
L71761 110318
L71761 110178
L71789 110065
L71817 110009
L71845 109981
L71901 109953
" />
<path d="M72351 110487
L72379 110515
L72351 110543
L72323 110515
L72351 110487
L72351 110543
" />
<path d="M72942 110543
L72604 110543
" />
<path d="M72773 110543
L72773 109953
L72717 110037
L72661 110093
L72604 110121
" />
</g>
<g style="fill:#000000; fill-opacity:0.0; 
stroke:#000000; stroke-width:39.3701; stroke-opacity:1; 
stroke-linecap:round; stroke-linejoin:round;">
</g>
<g style="fill:#000000; fill-opacity:0.0; 
stroke:#000000; stroke-width:59.0551; stroke-opacity:1; 
stroke-linecap:round; stroke-linejoin:round;">
<text x="35829.6" y="110572"
textLength="3781.21" font-size="787.402" lengthAdjust="spacingAndGlyphs"
text-anchor="start" opacity="0">Size: A4</text>
<path d="M35971 110515
L36055 110543
L36196 110543
L36252 110515
L36280 110487
L36309 110431
L36309 110374
L36280 110318
L36252 110290
L36196 110262
L36084 110234
L36027 110206
L35999 110178
L35971 110121
L35971 110065
L35999 110009
L36027 109981
L36084 109953
L36224 109953
L36309 109981
" />
<path d="M36562 110543
L36562 110149
" />
<path d="M36562 109953
L36534 109981
L36562 110009
L36590 109981
L36562 109953
L36562 110009
" />
<path d="M36787 110149
L37096 110149
L36787 110543
L37096 110543
" />
<path d="M37546 110515
L37490 110543
L37377 110543
L37321 110515
L37293 110459
L37293 110234
L37321 110178
L37377 110149
L37490 110149
L37546 110178
L37574 110234
L37574 110290
L37293 110346
" />
<path d="M37827 110487
L37855 110515
L37827 110543
L37799 110515
L37827 110487
L37827 110543
" />
<path d="M37827 110178
L37855 110206
L37827 110234
L37799 110206
L37827 110178
L37827 110234
" />
<path d="M38530 110374
L38811 110374
" />
<path d="M38474 110543
L38671 109953
L38868 110543
" />
<path d="M39318 110149
L39318 110543
" />
<path d="M39177 109924
L39036 110346
L39402 110346
" />
</g>
<g style="fill:#000000; fill-opacity:0.0; 
stroke:#000000; stroke-width:39.3701; stroke-opacity:1; 
stroke-linecap:round; stroke-linejoin:round;">
</g>
<g style="fill:#000000; fill-opacity:0.0; 
stroke:#000000; stroke-width:59.0551; stroke-opacity:1; 
stroke-linecap:round; stroke-linejoin:round;">
<text x="69294.2" y="111674"
textLength="3349.27" font-size="787.402" lengthAdjust="spacingAndGlyphs"
text-anchor="start" opacity="0">Id: 1/1</text>
<path d="M69464 111645
L69464 111055
" />
<path d="M69998 111645
L69998 111055
" />
<path d="M69998 111617
L69942 111645
L69829 111645
L69773 111617
L69745 111589
L69717 111533
L69717 111364
L69745 111308
L69773 111280
L69829 111252
L69942 111252
L69998 111280
" />
<path d="M70279 111589
L70307 111617
L70279 111645
L70251 111617
L70279 111589
L70279 111645
" />
<path d="M70279 111280
L70307 111308
L70279 111336
L70251 111308
L70279 111280
L70279 111336
" />
<path d="M71320 111645
L70982 111645
" />
<path d="M71151 111645
L71151 111055
L71095 111139
L71039 111196
L70982 111224
" />
<path d="M71995 111027
L71489 111786
" />
<path d="M72501 111645
L72163 111645
" />
<path d="M72332 111645
L72332 111055
L72276 111139
L72220 111196
L72163 111224
" />
</g>
<g style="fill:#000000; fill-opacity:0.0; 
stroke:#000000; stroke-width:39.3701; stroke-opacity:1; 
stroke-linecap:round; stroke-linejoin:round;">
</g>
<g style="fill:#000000; fill-opacity:0.0; 
stroke:#000000; stroke-width:59.0551; stroke-opacity:1; 
stroke-linecap:round; stroke-linejoin:round;">
<path d="M35435 108071
L77955 108071
" />
</g>
<g style="fill:#000000; fill-opacity:0.0; 
stroke:#000000; stroke-width:39.3701; stroke-opacity:1; 
stroke-linecap:round; stroke-linejoin:round;">
</g>
<g style="fill:#000000; fill-opacity:0.0; 
stroke:#000000; stroke-width:157.48; stroke-opacity:1; 
stroke-linecap:round; stroke-linejoin:round;">
<text x="35829.6" y="109174"
textLength="13449.9" font-size="1049.87" lengthAdjust="spacingAndGlyphs"
text-anchor="start" opacity="0">Title: OpenA3XX MCDU</text>
<path d="M36110 108349
L36560 108349
" />
<path d="M36236 109136
L36335 108349
" />
<path d="M36724 109136
L36789 108611
" />
<path d="M36822 108349
L36780 108386
L36813 108424
L36855 108386
L36822 108349
L36813 108424
" />
<path d="M37052 108611
L37352 108611
" />
<path d="M37197 108349
L37113 109024
L37141 109099
L37211 109136
L37286 109136
" />
<path d="M37661 109136
L37591 109099
L37563 109024
L37647 108349
" />
<path d="M38266 109099
L38186 109136
L38036 109136
L37966 109099
L37937 109024
L37975 108724
L38022 108649
L38102 108611
L38251 108611
L38322 108649
L38350 108724
L38341 108799
L37956 108874
" />
<path d="M38645 109061
L38678 109099
L38636 109136
L38603 109099
L38645 109061
L38636 109136
" />
<path d="M38697 108649
L38730 108686
L38687 108724
L38655 108686
L38697 108649
L38687 108724
" />
<path d="M39859 108349
L40009 108349
L40079 108386
L40145 108461
L40164 108611
L40131 108874
L40075 109024
L39990 109099
L39911 109136
L39761 109136
L39690 109099
L39625 109024
L39606 108874
L39639 108611
L39695 108461
L39779 108386
L39859 108349
" />
<path d="M40501 108611
L40403 109399
" />
<path d="M40497 108649
L40576 108611
L40726 108611
L40796 108649
L40829 108686
L40857 108761
L40829 108986
L40782 109061
L40740 109099
L40661 109136
L40511 109136
L40440 109099
" />
<path d="M41453 109099
L41373 109136
L41223 109136
L41153 109099
L41125 109024
L41162 108724
L41209 108649
L41289 108611
L41439 108611
L41509 108649
L41537 108724
L41528 108799
L41143 108874
" />
<path d="M41889 108611
L41823 109136
" />
<path d="M41879 108686
L41921 108649
L42001 108611
L42114 108611
L42184 108649
L42212 108724
L42160 109136
" />
<path d="M42526 108911
L42901 108911
" />
<path d="M42423 109136
L42784 108349
L42948 109136
" />
<path d="M43234 108349
L43721 108349
L43421 108649
L43534 108649
L43604 108686
L43637 108724
L43665 108799
L43641 108986
L43595 109061
L43552 109099
L43473 109136
L43248 109136
L43177 109099
L43145 109061
" />
<path d="M43984 108349
L44410 109136
" />
<path d="M44509 108349
L43885 109136
" />
<path d="M44733 108349
L45160 109136
" />
<path d="M45258 108349
L44635 109136
" />
<path d="M46060 109136
L46158 108349
L46350 108911
L46683 108349
L46585 109136
" />
<path d="M47419 109061
L47377 109099
L47260 109136
L47185 109136
L47077 109099
L47011 109024
L46983 108949
L46964 108799
L46979 108686
L47035 108536
L47082 108461
L47166 108386
L47283 108349
L47358 108349
L47466 108386
L47499 108424
" />
<path d="M47747 109136
L47846 108349
L48033 108349
L48141 108386
L48206 108461
L48235 108536
L48253 108686
L48239 108799
L48183 108949
L48136 109024
L48052 109099
L47935 109136
L47747 109136
" />
<path d="M48633 108349
L48553 108986
L48581 109061
L48614 109099
L48685 109136
L48835 109136
L48914 109099
L48956 109061
L49003 108986
L49083 108349
" />
</g>
<g style="fill:#000000; fill-opacity:0.0; 
stroke:#000000; stroke-width:39.3701; stroke-opacity:1; 
stroke-linecap:round; stroke-linejoin:round;">
</g>
<g style="fill:#000000; fill-opacity:0.0; 
stroke:#000000; stroke-width:59.0551; stroke-opacity:1; 
stroke-linecap:round; stroke-linejoin:round;">
<text x="35829.6" y="107658"
textLength="14434.2" font-size="787.402" lengthAdjust="spacingAndGlyphs"
text-anchor="start" opacity="0">File: opena3xx-mcdu.kicad_pcb</text>
<path d="M36196 107320
L35999 107320
" />
<path d="M35999 107630
L35999 107039
L36280 107039
" />
<path d="M36505 107630
L36505 107236
" />
<path d="M36505 107039
L36477 107067
L36505 107095
L36534 107067
L36505 107039
L36505 107095
" />
<path d="M36871 107630
L36815 107602
L36787 107545
L36787 107039
" />
<path d="M37321 107602
L37265 107630
L37152 107630
L37096 107602
L37068 107545
L37068 107320
L37096 107264
L37152 107236
L37265 107236
L37321 107264
L37349 107320
L37349 107377
L37068 107433
" />
<path d="M37602 107573
L37630 107602
L37602 107630
L37574 107602
L37602 107573
L37602 107630
" />
<path d="M37602 107264
L37630 107292
L37602 107320
L37574 107292
L37602 107264
L37602 107320
" />
<path d="M38418 107630
L38361 107602
L38333 107573
L38305 107517
L38305 107349
L38333 107292
L38361 107264
L38418 107236
L38502 107236
L38558 107264
L38586 107292
L38615 107349
L38615 107517
L38586 107573
L38558 107602
L38502 107630
L38418 107630
" />
<path d="M38868 107236
L38868 107827
" />
<path d="M38868 107264
L38924 107236
L39036 107236
L39093 107264
L39121 107292
L39149 107349
L39149 107517
L39121 107573
L39093 107602
L39036 107630
L38924 107630
L38868 107602
" />
<path d="M39627 107602
L39571 107630
L39458 107630
L39402 107602
L39374 107545
L39374 107320
L39402 107264
L39458 107236
L39571 107236
L39627 107264
L39655 107320
L39655 107377
L39374 107433
" />
<path d="M39908 107236
L39908 107630
" />
<path d="M39908 107292
L39936 107264
L39992 107236
L40077 107236
L40133 107264
L40161 107320
L40161 107630
" />
<path d="M40696 107630
L40696 107320
L40667 107264
L40611 107236
L40499 107236
L40442 107264
" />
<path d="M40696 107602
L40639 107630
L40499 107630
L40442 107602
L40414 107545
L40414 107489
L40442 107433
L40499 107405
L40639 107405
L40696 107377
" />
<path d="M40921 107039
L41286 107039
L41089 107264
L41174 107264
L41230 107292
L41258 107320
L41286 107377
L41286 107517
L41258 107573
L41230 107602
L41174 107630
L41005 107630
L40949 107602
L40921 107573
" />
<path d="M41483 107630
L41792 107236
" />
<path d="M41483 107236
L41792 107630
" />
<path d="M41961 107630
L42270 107236
" />
<path d="M41961 107236
L42270 107630
" />
<path d="M42495 107405
L42945 107405
" />
<path d="M43226 107630
L43226 107236
" />
<path d="M43226 107292
L43255 107264
L43311 107236
L43395 107236
L43451 107264
L43480 107320
L43480 107630
" />
<path d="M43480 107320
L43508 107264
L43564 107236
L43648 107236
L43705 107264
L43733 107320
L43733 107630
" />
<path d="M44267 107602
L44211 107630
L44098 107630
L44042 107602
L44014 107573
L43986 107517
L43986 107349
L44014 107292
L44042 107264
L44098 107236
L44211 107236
L44267 107264
" />
<path d="M44773 107630
L44773 107039
" />
<path d="M44773 107602
L44717 107630
L44604 107630
L44548 107602
L44520 107573
L44492 107517
L44492 107349
L44520 107292
L44548 107264
L44604 107236
L44717 107236
L44773 107264
" />
<path d="M45307 107236
L45307 107630
" />
<path d="M45054 107236
L45054 107545
L45082 107602
L45139 107630
L45223 107630
L45279 107602
L45307 107573
" />
<path d="M45589 107573
L45617 107602
L45589 107630
L45561 107602
L45589 107573
L45589 107630
" />
<path d="M45870 107630
L45870 107039
" />
<path d="M45926 107405
L46095 107630
" />
<path d="M46095 107236
L45870 107461
" />
<path d="M46348 107630
L46348 107236
" />
<path d="M46348 107039
L46320 107067
L46348 107095
L46376 107067
L46348 107039
L46348 107095
" />
<path d="M46882 107602
L46826 107630
L46714 107630
L46657 107602
L46629 107573
L46601 107517
L46601 107349
L46629 107292
L46657 107264
L46714 107236
L46826 107236
L46882 107264
" />
<path d="M47388 107630
L47388 107320
L47360 107264
L47304 107236
L47192 107236
L47135 107264
" />
<path d="M47388 107602
L47332 107630
L47192 107630
L47135 107602
L47107 107545
L47107 107489
L47135 107433
L47192 107405
L47332 107405
L47388 107377
" />
<path d="M47923 107630
L47923 107039
" />
<path d="M47923 107602
L47867 107630
L47754 107630
L47698 107602
L47670 107573
L47642 107517
L47642 107349
L47670 107292
L47698 107264
L47754 107236
L47867 107236
L47923 107264
" />
<path d="M48063 107686
L48513 107686
" />
<path d="M48654 107236
L48654 107827
" />
<path d="M48654 107264
L48710 107236
L48823 107236
L48879 107264
L48907 107292
L48935 107349
L48935 107517
L48907 107573
L48879 107602
L48823 107630
L48710 107630
L48654 107602
" />
<path d="M49441 107602
L49385 107630
L49273 107630
L49216 107602
L49188 107573
L49160 107517
L49160 107349
L49188 107292
L49216 107264
L49273 107236
L49385 107236
L49441 107264
" />
<path d="M49694 107630
L49694 107039
" />
<path d="M49694 107264
L49751 107236
L49863 107236
L49919 107264
L49947 107292
L49976 107349
L49976 107517
L49947 107573
L49919 107602
L49863 107630
L49751 107630
L49694 107602
" />
</g>
<g style="fill:#000000; fill-opacity:0.0; 
stroke:#000000; stroke-width:39.3701; stroke-opacity:1; 
stroke-linecap:round; stroke-linejoin:round;">
</g>
<g style="fill:#000000; fill-opacity:0.0; 
stroke:#000000; stroke-width:59.0551; stroke-opacity:1; 
stroke-linecap:round; stroke-linejoin:round;">
<path d="M35435 105709
L77955 105709
" />
</g>
<g style="fill:#000000; fill-opacity:0.0; 
stroke:#000000; stroke-width:39.3701; stroke-opacity:1; 
stroke-linecap:round; stroke-linejoin:round;">
</g>
<g style="fill:#000000; fill-opacity:0.0; 
stroke:#000000; stroke-width:59.0551; stroke-opacity:1; 
stroke-linecap:round; stroke-linejoin:round;">
<text x="35829.6" y="106595"
textLength="3236.78" font-size="787.402" lengthAdjust="spacingAndGlyphs"
text-anchor="start" opacity="0">Sheet: </text>
<path d="M35971 106539
L36055 106567
L36196 106567
L36252 106539
L36280 106510
L36309 106454
L36309 106398
L36280 106342
L36252 106314
L36196 106286
L36084 106257
L36027 106229
L35999 106201
L35971 106145
L35971 106089
L35999 106032
L36027 106004
L36084 105976
L36224 105976
L36309 106004
" />
<path d="M36562 106567
L36562 105976
" />
<path d="M36815 106567
L36815 106257
L36787 106201
L36730 106173
L36646 106173
L36590 106201
L36562 106229
" />
<path d="M37321 106539
L37265 106567
L37152 106567
L37096 106539
L37068 106482
L37068 106257
L37096 106201
L37152 106173
L37265 106173
L37321 106201
L37349 106257
L37349 106314
L37068 106370
" />
<path d="M37827 106539
L37771 106567
L37658 106567
L37602 106539
L37574 106482
L37574 106257
L37602 106201
L37658 106173
L37771 106173
L37827 106201
L37855 106257
L37855 106314
L37574 106370
" />
<path d="M38024 106173
L38249 106173
" />
<path d="M38108 105976
L38108 106482
L38136 106539
L38193 106567
L38249 106567
" />
<path d="M38446 106510
L38474 106539
L38446 106567
L38418 106539
L38446 106510
L38446 106567
" />
<path d="M38446 106201
L38474 106229
L38446 106257
L38418 106229
L38446 106201
L38446 106257
" />
</g>
<g style="fill:#000000; fill-opacity:0.0; 
stroke:#000000; stroke-width:39.3701; stroke-opacity:1; 
stroke-linecap:round; stroke-linejoin:round;">
</g>
<g style="fill:#000000; fill-opacity:0.0; 
stroke:#000000; stroke-width:118.11; stroke-opacity:1; 
stroke-linecap:round; stroke-linejoin:round;">
<text x="35829.6" y="105414"
textLength="4446.01" font-size="787.402" lengthAdjust="spacingAndGlyphs"
text-anchor="start" opacity="0">OpenA3XX</text>
<path d="M36159 104795
L36271 104795
L36328 104823
L36384 104879
L36412 104992
L36412 105189
L36384 105301
L36328 105358
L36271 105386
L36159 105386
L36103 105358
L36046 105301
L36018 105189
L36018 104992
L36046 104879
L36103 104823
L36159 104795
" />
<path d="M36665 104992
L36665 105582
" />
<path d="M36665 105020
L36721 104992
L36834 104992
L36890 105020
L36918 105048
L36946 105104
L36946 105273
L36918 105329
L36890 105358
L36834 105386
L36721 105386
L36665 105358
" />
<path d="M37424 105358
L37368 105386
L37256 105386
L37199 105358
L37171 105301
L37171 105076
L37199 105020
L37256 104992
L37368 104992
L37424 105020
L37453 105076
L37453 105133
L37171 105189
" />
<path d="M37706 104992
L37706 105386
" />
<path d="M37706 105048
L37734 105020
L37790 104992
L37874 104992
L37931 105020
L37959 105076
L37959 105386
" />
<path d="M38212 105217
L38493 105217
" />
<path d="M38156 105386
L38352 104795
L38549 105386
" />
<path d="M38690 104795
L39055 104795
L38859 105020
L38943 105020
L38999 105048
L39027 105076
L39055 105133
L39055 105273
L39027 105329
L38999 105358
L38943 105386
L38774 105386
L38718 105358
L38690 105329
" />
<path d="M39252 104795
L39646 105386
" />
<path d="M39646 104795
L39252 105386
" />
<path d="M39815 104795
L40208 105386
" />
<path d="M40208 104795
L39815 105386
" />
</g>
<g style="fill:#000000; fill-opacity:0.0; 
stroke:#000000; stroke-width:39.3701; stroke-opacity:1; 
stroke-linecap:round; stroke-linejoin:round;">
</g>
<g style="fill:#000000; fill-opacity:0.0; 
stroke:#000000; stroke-width:59.0551; stroke-opacity:1; 
stroke-linecap:round; stroke-linejoin:round;">
<path d="M43309 109646
L43309 110827
" />
</g>
<g style="fill:#000000; fill-opacity:0.0; 
stroke:#000000; stroke-width:39.3701; stroke-opacity:1; 
stroke-linecap:round; stroke-linejoin:round;">
</g>
<g style="fill:#000000; fill-opacity:0.0; 
stroke:#000000; stroke-width:59.0551; stroke-opacity:1; 
stroke-linecap:round; stroke-linejoin:round;">
<path d="M68506 109646
L68506 112205
" />
</g>
<g style="fill:#C2C200; fill-opacity:0.0; 
stroke:#C2C200; stroke-width:59.0551; stroke-opacity:1; 
stroke-linecap:round; stroke-linejoin:round;">
</g>
<g style="fill:#C2C200; fill-opacity:0.0; 
stroke:#C2C200; stroke-width:19.685; stroke-opacity:1; 
stroke-linecap:round; stroke-linejoin:round;">
<circle cx="57350" cy="33100" r="600" /> 
<circle cx="25460" cy="33100" r="600" /> 
<circle cx="57350" cy="48450" r="600" /> 
<circle cx="25460" cy="48450" r="600" /> 
</g>
<g style="fill:#C2C200; fill-opacity:0.0; 
stroke:#C2C200; stroke-width:78.7402; stroke-opacity:1; 
stroke-linecap:round; stroke-linejoin:round;">
<circle cx="14258.3" cy="14119.3" r="787.402" /> 
<path d="M12672 97654
L70153 97654
" />
<circle cx="68589.9" cy="56585" r="787.402" /> 
<circle cx="68589.9" cy="14115.9" r="787.402" /> 
<path d="M12672.9 9072.02 A393.701 393.701 0.0 0 0 12279.2 9465.72" />
<circle cx="14259.2" cy="92498.2" r="787.402" /> 
<path d="M70546 97260
L70546 9465
" />
<path d="M12279 9465
L12279 97260
" />
<path d="M12279.2 97261 A393.701 393.701 0.0 0 0 12672.9 97654.7" />
<path d="M70546.9 9465.72 A393.701 393.701 0.0 0 0 70153.2 9072.02" />
<path d="M70153 9072
L12672 9072
" />
<circle cx="14259.2" cy="56585.1" r="787.402" /> 
<path d="M70153.2 97654.7 A393.701 393.701 0.0 0 0 70546.9 97261" />
<circle cx="68589.9" cy="92480.4" r="787.402" /> 
</g>
<g style="fill:#C2C200; fill-opacity:0.0; 
stroke:#C2C200; stroke-width:19.685; stroke-opacity:1; 
stroke-linecap:round; stroke-linejoin:round;">
<circle cx="61930" cy="48450" r="590.339" /> 
<circle cx="20990" cy="48450" r="600" /> 
<circle cx="61930" cy="18130" r="600.083" /> 
<circle cx="20990" cy="18130" r="600.083" /> 
<path d="M35955 51270
L40780 51270
" />
<path d="M35955 51780
L35955 51270
" />
<path d="M47480 51780
L35955 51780
" />
<path d="M47480 51270
L47480 51780
" />
<path d="M40780 51270
L47480 51270
" />
<g >
</g>
<g >
</g>
<g >
</g>
<g >
</g>
<g >
</g>
<g >
</g>
<g >
</g>
<g >
</g>
<g >
</g>
<g >
</g>
<g >
</g>
<g >
</g>
<g >
</g>
<g >
</g>
<g >
</g>
<g >
</g>
<g >
</g>
<g >
</g>
<g >
</g>
<g >
</g>
<g >
</g>
<g >
</g>
<g >
</g>
<g >
</g>
<g >
</g>
<g >
</g>
<g >
</g>
<g >
</g>
<g >
</g>
<g >
</g>
<g >
</g>
<g >
</g>
<g >
</g>
<g >
</g>
<g >
</g>
<g >
</g>
<g >
</g>
<g >
</g>
<g >
</g>
<g >
</g>
<g >
</g>
<g >
</g>
<g >
</g>
<g >
</g>
<g >
</g>
<g >
</g>
<g >
</g>
<g >
</g>
<g >
</g>
<g >
</g>
<g >
</g>
<g >
</g>
<g >
</g>
<g >
</g>
<g >
</g>
<g >
</g>
<g >
</g>
<g >
</g>
<g >
</g>
<g >
</g>
<g >
</g>
<g >
</g>
<g >
</g>
<g >
</g>
<g >
</g>
<g >
</g>
<g >
</g>
<g >
</g>
<g >
</g>
<g >
</g>
<g >
</g>
<g >
</g>
<g >
</g>
<g >
</g>
<g >
</g>
<g >
</g>
<g >
</g>
<g >
</g>
<g >
</g>
<g >
</g>
<g >
</g>
<g >
</g>
<g >
</g>
<g >
</g>
<g >
</g>
<g >
</g>
<g >
</g>
<g >
</g>
<g >
</g>
<g >
</g>
<g >
</g>
<g >
</g>
<g >
</g>
<g >
</g>
<g >
</g>
<g >
</g>
<g >
</g>
<g >
</g>
<g >
</g>
<g >
</g>
<g >
</g>
<g >
</g>
<g >
</g>
<g >
</g>
<g >
</g>
<g >
</g>
<g >
</g>
<g >
</g>
<g >
</g>
<g >
</g>
<g >
</g>
<g >
</g>
<g >
</g>
<g >
</g>
<g >
</g>
<g >
</g>
<g >
</g>
<g >
</g>
<g >
</g>
<g >
</g>
<g >
</g>
<g >
</g>
<g >
</g>
<g >
</g>
<g >
</g>
<g >
</g>
<g >
</g>
<g >
</g>
<g >
</g>
<g >
</g>
<g >
</g>
<g >
</g>
<g >
</g>
<g >
</g>
<g >
</g>
<g >
</g>
<g >
</g>
<g >
</g>
<g >
</g>
<g >
</g>
<g >
</g>
<g >
</g>
<g >
</g>
<g >
</g>
<g >
</g>
<g >
</g>
<g >
</g>
<g >
</g>
<g >
</g>
<g >
</g>
</g> 
</svg>
