M48
; DRILL file {KiCad (5.1.9)-1} date 05/05/21 20:18:16
; FORMAT={-:-/ absolute / metric / decimal}
; #@! TF.CreationDate,2021-05-05T20:18:16+02:00
; #@! TF.GenerationSoftware,Kicad,Pcbnew,(5.1.9)-1
FMAT,2
METRIC
T1C0.400
T2C1.000
T3C1.520
%
G90
G05
T1
X73.165Y-71.13
X75.88Y-93.922
X76.503Y-111.276
X79.632Y-107.605
X81.15Y-91.987
X81.204Y-106.929
X84.34Y-94.866
X85.894Y-103.699
X93.169Y-106.689
X93.482Y-93.9
X94.145Y-98.412
X94.353Y-87.095
X94.563Y-110.73
X95.685Y-90.3
X95.685Y-91.792
X97.153Y-86.579
X98.844Y-122.996
X100.39Y-87.835
X100.529Y-120.78
X100.88Y-129.347
X100.913Y-82.68
X104.711Y-84.904
X107.284Y-94.729
X110.385Y-89.535
X111.152Y-122.67
X111.495Y-91.705
X111.502Y-111.125
X114.664Y-98.359
X115.387Y-93.211
X115.389Y-94.615
X115.403Y-120.309
X115.629Y-110.207
X116.186Y-116.117
X116.428Y-121.141
X116.595Y-95.808
X117.348Y-107.304
X117.689Y-102.425
X119.531Y-98.702
X119.62Y-120.015
X120.671Y-124.636
X120.812Y-94.615
X120.829Y-96.942
X123.731Y-125.056
X123.818Y-126.621
X124.697Y-91.588
X124.718Y-116.896
X125.124Y-93.345
X125.151Y-90.193
X127.399Y-104.813
X127.931Y-92.591
X130.323Y-88.215
X130.968Y-83.502
X132.066Y-113.665
X135.828Y-111.125
X136.053Y-87.436
X136.751Y-119.744
X137.266Y-88.099
X137.278Y-89.535
X137.798Y-116.954
X137.95Y-118.254
X138.177Y-92.075
X138.179Y-95.779
X139.225Y-98.364
X142.058Y-93.345
X142.059Y-94.655
X142.17Y-122.656
X143.308Y-118.745
X144.97Y-84.787
X146.706Y-98.727
X147.501Y-118.745
X147.501Y-116.205
X147.504Y-94.615
X150.069Y-125.041
X150.612Y-98.828
X150.743Y-126.291
X151.361Y-89.535
X151.366Y-92.021
X151.671Y-88.157
X152.516Y-95.885
X152.583Y-93.345
X153.674Y-90.805
X155.482Y-115.08
X160.951Y-97.155
X162.798Y-94.615
X164.182Y-107.428
X164.74Y-89.535
X164.856Y-92.075
X164.873Y-88.151
X168.692Y-95.25
X168.729Y-124.443
X168.741Y-93.345
X168.741Y-84.011
X168.746Y-122.555
X168.753Y-117.475
X168.772Y-80.856
X168.799Y-111.222
X169.241Y-90.959
X173.725Y-97.135
X173.96Y-92.395
X174.164Y-116.205
X174.173Y-94.615
X178.037Y-93.345
X178.047Y-89.849
X178.059Y-95.885
X178.18Y-125.651
X178.212Y-127.107
X178.256Y-91.2
X178.291Y-88.389
X180.033Y-129.951
X182.159Y-115.08
X190.624Y-90.47
X191.479Y-89.445
X191.517Y-92.075
X191.535Y-111.078
X191.543Y-87.762
X193.47Y-98.376
X195.396Y-120.015
X195.422Y-94.852
X195.423Y-93.345
X196.191Y-122.679
X196.447Y-120.818
X196.74Y-95.885
X197.884Y-84.455
X197.922Y-111.182
X198.637Y-87.153
X200.733Y-97.117
X200.823Y-94.615
X200.842Y-116.205
X202.77Y-125.04
X204.699Y-92.075
X204.703Y-89.159
X204.743Y-122.589
X204.959Y-87.858
X205.104Y-90.463
X206.397Y-129.494
X207.165Y-92.03
X207.465Y-94.13
X209.365Y-89.83
X210.165Y-68.83
X211.265Y-68.63
T2
X62.0Y-68.26
X62.0Y-70.8
X62.0Y-134.4
X62.0Y-136.94
X88.4Y-77.6
X88.4Y-80.14
X88.4Y-82.68
X88.4Y-85.22
X88.4Y-87.76
X88.4Y-90.3
X88.4Y-92.84
X88.4Y-95.38
X88.4Y-97.92
X88.4Y-100.46
X88.4Y-103.0
X88.4Y-105.54
X88.4Y-108.08
X88.4Y-110.62
X88.4Y-113.16
X88.4Y-115.7
X88.4Y-118.24
X88.4Y-120.78
X88.4Y-123.32
X88.4Y-125.86
X90.94Y-77.6
X90.94Y-80.14
X90.94Y-82.68
X90.94Y-85.22
X90.94Y-87.76
X90.94Y-90.3
X90.94Y-92.84
X90.94Y-95.38
X90.94Y-97.92
X90.94Y-100.46
X90.94Y-103.0
X90.94Y-105.54
X90.94Y-108.08
X90.94Y-110.62
X90.94Y-113.16
X90.94Y-115.7
X90.94Y-118.24
X90.94Y-120.78
X90.94Y-123.32
X90.94Y-125.86
X109.22Y-67.31
X109.22Y-69.85
X109.22Y-134.62
X109.22Y-137.16
X111.76Y-67.31
X111.76Y-69.85
X111.76Y-134.62
X111.76Y-137.16
X114.3Y-67.31
X114.3Y-69.85
X114.3Y-134.62
X114.3Y-137.16
X116.84Y-67.31
X116.84Y-69.85
X116.84Y-134.62
X116.84Y-137.16
X119.38Y-67.31
X119.38Y-69.85
X119.38Y-134.62
X119.38Y-137.16
X121.92Y-67.31
X121.92Y-69.85
X121.92Y-134.62
X121.92Y-137.16
X124.46Y-67.31
X124.46Y-69.85
X124.46Y-134.62
X124.46Y-137.16
X127.0Y-67.31
X127.0Y-69.85
X127.0Y-134.62
X127.0Y-137.16
X135.89Y-67.31
X135.89Y-69.85
X135.89Y-134.62
X135.89Y-137.16
X138.43Y-67.31
X138.43Y-69.85
X138.43Y-134.62
X138.43Y-137.16
X140.97Y-67.31
X140.97Y-69.85
X140.97Y-134.62
X140.97Y-137.16
X143.51Y-67.31
X143.51Y-69.85
X143.51Y-134.62
X143.51Y-137.16
X146.05Y-67.31
X146.05Y-69.85
X146.05Y-134.62
X146.05Y-137.16
X148.59Y-67.31
X148.59Y-69.85
X148.59Y-134.62
X148.59Y-137.16
X151.13Y-67.31
X151.13Y-69.85
X151.13Y-134.62
X151.13Y-137.16
X153.67Y-67.31
X153.67Y-69.85
X153.67Y-134.62
X153.67Y-137.16
X162.56Y-67.31
X162.56Y-69.85
X162.56Y-134.62
X162.56Y-137.16
X165.1Y-67.31
X165.1Y-69.85
X165.1Y-134.62
X165.1Y-137.16
X167.64Y-67.31
X167.64Y-69.85
X167.64Y-134.62
X167.64Y-137.16
X170.18Y-67.31
X170.18Y-69.85
X170.18Y-134.62
X170.18Y-137.16
X172.72Y-67.31
X172.72Y-69.85
X172.72Y-134.62
X172.72Y-137.16
X175.26Y-67.31
X175.26Y-69.85
X175.26Y-134.62
X175.26Y-137.16
X177.8Y-67.31
X177.8Y-69.85
X177.8Y-134.62
X177.8Y-137.16
X180.34Y-67.31
X180.34Y-69.85
X180.34Y-134.62
X180.34Y-137.16
X189.23Y-67.31
X189.23Y-69.85
X189.23Y-134.62
X189.23Y-137.16
X191.77Y-67.31
X191.77Y-69.85
X191.77Y-134.62
X191.77Y-137.16
X194.31Y-67.31
X194.31Y-69.85
X194.31Y-134.62
X194.31Y-137.16
X196.85Y-67.31
X196.85Y-69.85
X196.85Y-134.62
X196.85Y-137.16
X199.39Y-67.31
X199.39Y-69.85
X199.39Y-134.62
X199.39Y-137.16
X201.93Y-67.31
X201.93Y-69.85
X201.93Y-134.62
X201.93Y-137.16
X204.47Y-67.31
X204.47Y-69.85
X204.47Y-134.62
X204.47Y-137.16
X207.01Y-67.31
X207.01Y-69.85
X207.01Y-134.62
X207.01Y-137.16
T3
X96.8Y-135.255
X96.92Y-69.6
X101.88Y-135.255
X102.0Y-69.6
T0
M30
