%TF.GenerationSoftware,KiCad,Pcbnew,(5.1.9)-1*%
%TF.CreationDate,2021-05-05T20:18:33+02:00*%
%TF.ProjectId,opena3xx-hardware-controller-board,6f70656e-6133-4787-982d-686172647761,rev?*%
%TF.SameCoordinates,Original*%
%TF.FileFunction,Legend,Top*%
%TF.FilePolarity,Positive*%
%FSLAX46Y46*%
G04 Gerber Fmt 4.6, Leading zero omitted, Abs format (unit mm)*
G04 Created by KiCad (PCBNEW (5.1.9)-1) date 2021-05-05 20:18:33*
%MOMM*%
%LPD*%
G01*
G04 APERTURE LIST*
%ADD10C,0.150000*%
%ADD11C,0.120000*%
G04 APERTURE END LIST*
D10*
X213652380Y-113704761D02*
X212652380Y-113704761D01*
X213652380Y-113276190D02*
X213128571Y-113276190D01*
X213033333Y-113323809D01*
X212985714Y-113419047D01*
X212985714Y-113561904D01*
X213033333Y-113657142D01*
X213080952Y-113704761D01*
X212985714Y-112942857D02*
X212985714Y-112561904D01*
X212652380Y-112800000D02*
X213509523Y-112800000D01*
X213604761Y-112752380D01*
X213652380Y-112657142D01*
X213652380Y-112561904D01*
X212985714Y-112371428D02*
X212985714Y-111990476D01*
X212652380Y-112228571D02*
X213509523Y-112228571D01*
X213604761Y-112180952D01*
X213652380Y-112085714D01*
X213652380Y-111990476D01*
X212985714Y-111657142D02*
X213985714Y-111657142D01*
X213033333Y-111657142D02*
X212985714Y-111561904D01*
X212985714Y-111371428D01*
X213033333Y-111276190D01*
X213080952Y-111228571D01*
X213176190Y-111180952D01*
X213461904Y-111180952D01*
X213557142Y-111228571D01*
X213604761Y-111276190D01*
X213652380Y-111371428D01*
X213652380Y-111561904D01*
X213604761Y-111657142D01*
X213604761Y-110800000D02*
X213652380Y-110704761D01*
X213652380Y-110514285D01*
X213604761Y-110419047D01*
X213509523Y-110371428D01*
X213461904Y-110371428D01*
X213366666Y-110419047D01*
X213319047Y-110514285D01*
X213319047Y-110657142D01*
X213271428Y-110752380D01*
X213176190Y-110800000D01*
X213128571Y-110800000D01*
X213033333Y-110752380D01*
X212985714Y-110657142D01*
X212985714Y-110514285D01*
X213033333Y-110419047D01*
X213557142Y-109942857D02*
X213604761Y-109895238D01*
X213652380Y-109942857D01*
X213604761Y-109990476D01*
X213557142Y-109942857D01*
X213652380Y-109942857D01*
X213033333Y-109942857D02*
X213080952Y-109895238D01*
X213128571Y-109942857D01*
X213080952Y-109990476D01*
X213033333Y-109942857D01*
X213128571Y-109942857D01*
X212604761Y-108752380D02*
X213890476Y-109609523D01*
X212604761Y-107704761D02*
X213890476Y-108561904D01*
X212985714Y-107466666D02*
X213652380Y-107276190D01*
X213176190Y-107085714D01*
X213652380Y-106895238D01*
X212985714Y-106704761D01*
X212985714Y-106419047D02*
X213652380Y-106228571D01*
X213176190Y-106038095D01*
X213652380Y-105847619D01*
X212985714Y-105657142D01*
X212985714Y-105371428D02*
X213652380Y-105180952D01*
X213176190Y-104990476D01*
X213652380Y-104800000D01*
X212985714Y-104609523D01*
X213557142Y-104228571D02*
X213604761Y-104180952D01*
X213652380Y-104228571D01*
X213604761Y-104276190D01*
X213557142Y-104228571D01*
X213652380Y-104228571D01*
X212985714Y-103323809D02*
X213795238Y-103323809D01*
X213890476Y-103371428D01*
X213938095Y-103419047D01*
X213985714Y-103514285D01*
X213985714Y-103657142D01*
X213938095Y-103752380D01*
X213604761Y-103323809D02*
X213652380Y-103419047D01*
X213652380Y-103609523D01*
X213604761Y-103704761D01*
X213557142Y-103752380D01*
X213461904Y-103800000D01*
X213176190Y-103800000D01*
X213080952Y-103752380D01*
X213033333Y-103704761D01*
X212985714Y-103609523D01*
X212985714Y-103419047D01*
X213033333Y-103323809D01*
X213652380Y-102847619D02*
X212985714Y-102847619D01*
X212652380Y-102847619D02*
X212700000Y-102895238D01*
X212747619Y-102847619D01*
X212700000Y-102800000D01*
X212652380Y-102847619D01*
X212747619Y-102847619D01*
X212985714Y-102514285D02*
X212985714Y-102133333D01*
X212652380Y-102371428D02*
X213509523Y-102371428D01*
X213604761Y-102323809D01*
X213652380Y-102228571D01*
X213652380Y-102133333D01*
X213652380Y-101800000D02*
X212652380Y-101800000D01*
X213652380Y-101371428D02*
X213128571Y-101371428D01*
X213033333Y-101419047D01*
X212985714Y-101514285D01*
X212985714Y-101657142D01*
X213033333Y-101752380D01*
X213080952Y-101800000D01*
X212985714Y-100466666D02*
X213652380Y-100466666D01*
X212985714Y-100895238D02*
X213509523Y-100895238D01*
X213604761Y-100847619D01*
X213652380Y-100752380D01*
X213652380Y-100609523D01*
X213604761Y-100514285D01*
X213557142Y-100466666D01*
X213652380Y-99990476D02*
X212652380Y-99990476D01*
X213033333Y-99990476D02*
X212985714Y-99895238D01*
X212985714Y-99704761D01*
X213033333Y-99609523D01*
X213080952Y-99561904D01*
X213176190Y-99514285D01*
X213461904Y-99514285D01*
X213557142Y-99561904D01*
X213604761Y-99609523D01*
X213652380Y-99704761D01*
X213652380Y-99895238D01*
X213604761Y-99990476D01*
X213557142Y-99085714D02*
X213604761Y-99038095D01*
X213652380Y-99085714D01*
X213604761Y-99133333D01*
X213557142Y-99085714D01*
X213652380Y-99085714D01*
X213604761Y-98180952D02*
X213652380Y-98276190D01*
X213652380Y-98466666D01*
X213604761Y-98561904D01*
X213557142Y-98609523D01*
X213461904Y-98657142D01*
X213176190Y-98657142D01*
X213080952Y-98609523D01*
X213033333Y-98561904D01*
X212985714Y-98466666D01*
X212985714Y-98276190D01*
X213033333Y-98180952D01*
X213652380Y-97609523D02*
X213604761Y-97704761D01*
X213557142Y-97752380D01*
X213461904Y-97800000D01*
X213176190Y-97800000D01*
X213080952Y-97752380D01*
X213033333Y-97704761D01*
X212985714Y-97609523D01*
X212985714Y-97466666D01*
X213033333Y-97371428D01*
X213080952Y-97323809D01*
X213176190Y-97276190D01*
X213461904Y-97276190D01*
X213557142Y-97323809D01*
X213604761Y-97371428D01*
X213652380Y-97466666D01*
X213652380Y-97609523D01*
X213652380Y-96847619D02*
X212985714Y-96847619D01*
X213080952Y-96847619D02*
X213033333Y-96800000D01*
X212985714Y-96704761D01*
X212985714Y-96561904D01*
X213033333Y-96466666D01*
X213128571Y-96419047D01*
X213652380Y-96419047D01*
X213128571Y-96419047D02*
X213033333Y-96371428D01*
X212985714Y-96276190D01*
X212985714Y-96133333D01*
X213033333Y-96038095D01*
X213128571Y-95990476D01*
X213652380Y-95990476D01*
X212604761Y-94800000D02*
X213890476Y-95657142D01*
X213652380Y-94323809D02*
X213604761Y-94419047D01*
X213557142Y-94466666D01*
X213461904Y-94514285D01*
X213176190Y-94514285D01*
X213080952Y-94466666D01*
X213033333Y-94419047D01*
X212985714Y-94323809D01*
X212985714Y-94180952D01*
X213033333Y-94085714D01*
X213080952Y-94038095D01*
X213176190Y-93990476D01*
X213461904Y-93990476D01*
X213557142Y-94038095D01*
X213604761Y-94085714D01*
X213652380Y-94180952D01*
X213652380Y-94323809D01*
X212985714Y-93561904D02*
X213985714Y-93561904D01*
X213033333Y-93561904D02*
X212985714Y-93466666D01*
X212985714Y-93276190D01*
X213033333Y-93180952D01*
X213080952Y-93133333D01*
X213176190Y-93085714D01*
X213461904Y-93085714D01*
X213557142Y-93133333D01*
X213604761Y-93180952D01*
X213652380Y-93276190D01*
X213652380Y-93466666D01*
X213604761Y-93561904D01*
X213604761Y-92276190D02*
X213652380Y-92371428D01*
X213652380Y-92561904D01*
X213604761Y-92657142D01*
X213509523Y-92704761D01*
X213128571Y-92704761D01*
X213033333Y-92657142D01*
X212985714Y-92561904D01*
X212985714Y-92371428D01*
X213033333Y-92276190D01*
X213128571Y-92228571D01*
X213223809Y-92228571D01*
X213319047Y-92704761D01*
X212985714Y-91800000D02*
X213652380Y-91800000D01*
X213080952Y-91800000D02*
X213033333Y-91752380D01*
X212985714Y-91657142D01*
X212985714Y-91514285D01*
X213033333Y-91419047D01*
X213128571Y-91371428D01*
X213652380Y-91371428D01*
X213652380Y-90466666D02*
X213128571Y-90466666D01*
X213033333Y-90514285D01*
X212985714Y-90609523D01*
X212985714Y-90800000D01*
X213033333Y-90895238D01*
X213604761Y-90466666D02*
X213652380Y-90561904D01*
X213652380Y-90800000D01*
X213604761Y-90895238D01*
X213509523Y-90942857D01*
X213414285Y-90942857D01*
X213319047Y-90895238D01*
X213271428Y-90800000D01*
X213271428Y-90561904D01*
X213223809Y-90466666D01*
X212652380Y-90085714D02*
X212652380Y-89466666D01*
X213033333Y-89800000D01*
X213033333Y-89657142D01*
X213080952Y-89561904D01*
X213128571Y-89514285D01*
X213223809Y-89466666D01*
X213461904Y-89466666D01*
X213557142Y-89514285D01*
X213604761Y-89561904D01*
X213652380Y-89657142D01*
X213652380Y-89942857D01*
X213604761Y-90038095D01*
X213557142Y-90085714D01*
X213652380Y-89133333D02*
X212985714Y-88609523D01*
X212985714Y-89133333D02*
X213652380Y-88609523D01*
X213652380Y-88323809D02*
X212985714Y-87800000D01*
X212985714Y-88323809D02*
X213652380Y-87800000D01*
X78809523Y-85804761D02*
X78952380Y-85852380D01*
X79190476Y-85852380D01*
X79285714Y-85804761D01*
X79333333Y-85757142D01*
X79380952Y-85661904D01*
X79380952Y-85566666D01*
X79333333Y-85471428D01*
X79285714Y-85423809D01*
X79190476Y-85376190D01*
X79000000Y-85328571D01*
X78904761Y-85280952D01*
X78857142Y-85233333D01*
X78809523Y-85138095D01*
X78809523Y-85042857D01*
X78857142Y-84947619D01*
X78904761Y-84900000D01*
X79000000Y-84852380D01*
X79238095Y-84852380D01*
X79380952Y-84900000D01*
X80380952Y-85757142D02*
X80333333Y-85804761D01*
X80190476Y-85852380D01*
X80095238Y-85852380D01*
X79952380Y-85804761D01*
X79857142Y-85709523D01*
X79809523Y-85614285D01*
X79761904Y-85423809D01*
X79761904Y-85280952D01*
X79809523Y-85090476D01*
X79857142Y-84995238D01*
X79952380Y-84900000D01*
X80095238Y-84852380D01*
X80190476Y-84852380D01*
X80333333Y-84900000D01*
X80380952Y-84947619D01*
X81285714Y-85852380D02*
X80809523Y-85852380D01*
X80809523Y-84852380D01*
X78785714Y-80804761D02*
X78928571Y-80852380D01*
X79166666Y-80852380D01*
X79261904Y-80804761D01*
X79309523Y-80757142D01*
X79357142Y-80661904D01*
X79357142Y-80566666D01*
X79309523Y-80471428D01*
X79261904Y-80423809D01*
X79166666Y-80376190D01*
X78976190Y-80328571D01*
X78880952Y-80280952D01*
X78833333Y-80233333D01*
X78785714Y-80138095D01*
X78785714Y-80042857D01*
X78833333Y-79947619D01*
X78880952Y-79900000D01*
X78976190Y-79852380D01*
X79214285Y-79852380D01*
X79357142Y-79900000D01*
X79785714Y-80852380D02*
X79785714Y-79852380D01*
X80023809Y-79852380D01*
X80166666Y-79900000D01*
X80261904Y-79995238D01*
X80309523Y-80090476D01*
X80357142Y-80280952D01*
X80357142Y-80423809D01*
X80309523Y-80614285D01*
X80261904Y-80709523D01*
X80166666Y-80804761D01*
X80023809Y-80852380D01*
X79785714Y-80852380D01*
X80738095Y-80566666D02*
X81214285Y-80566666D01*
X80642857Y-80852380D02*
X80976190Y-79852380D01*
X81309523Y-80852380D01*
X73052380Y-86866666D02*
X72052380Y-86866666D01*
X72147619Y-86523809D02*
X72100000Y-86485714D01*
X72052380Y-86409523D01*
X72052380Y-86219047D01*
X72100000Y-86142857D01*
X72147619Y-86104761D01*
X72242857Y-86066666D01*
X72338095Y-86066666D01*
X72480952Y-86104761D01*
X73052380Y-86561904D01*
X73052380Y-86066666D01*
X72957142Y-85266666D02*
X73004761Y-85304761D01*
X73052380Y-85419047D01*
X73052380Y-85495238D01*
X73004761Y-85609523D01*
X72909523Y-85685714D01*
X72814285Y-85723809D01*
X72623809Y-85761904D01*
X72480952Y-85761904D01*
X72290476Y-85723809D01*
X72195238Y-85685714D01*
X72100000Y-85609523D01*
X72052380Y-85495238D01*
X72052380Y-85419047D01*
X72100000Y-85304761D01*
X72147619Y-85266666D01*
X73052380Y-84314285D02*
X72052380Y-84314285D01*
X72052380Y-84009523D01*
X72100000Y-83933333D01*
X72147619Y-83895238D01*
X72242857Y-83857142D01*
X72385714Y-83857142D01*
X72480952Y-83895238D01*
X72528571Y-83933333D01*
X72576190Y-84009523D01*
X72576190Y-84314285D01*
X72052380Y-83514285D02*
X72861904Y-83514285D01*
X72957142Y-83476190D01*
X73004761Y-83438095D01*
X73052380Y-83361904D01*
X73052380Y-83209523D01*
X73004761Y-83133333D01*
X72957142Y-83095238D01*
X72861904Y-83057142D01*
X72052380Y-83057142D01*
X73052380Y-82295238D02*
X73052380Y-82676190D01*
X72052380Y-82676190D01*
X73052380Y-81647619D02*
X73052380Y-82028571D01*
X72052380Y-82028571D01*
X72671428Y-81380952D02*
X72671428Y-80771428D01*
X72052380Y-80390476D02*
X72861904Y-80390476D01*
X72957142Y-80352380D01*
X73004761Y-80314285D01*
X73052380Y-80238095D01*
X73052380Y-80085714D01*
X73004761Y-80009523D01*
X72957142Y-79971428D01*
X72861904Y-79933333D01*
X72052380Y-79933333D01*
X73052380Y-79552380D02*
X72052380Y-79552380D01*
X72052380Y-79247619D01*
X72100000Y-79171428D01*
X72147619Y-79133333D01*
X72242857Y-79095238D01*
X72385714Y-79095238D01*
X72480952Y-79133333D01*
X72528571Y-79171428D01*
X72576190Y-79247619D01*
X72576190Y-79552380D01*
X83452380Y-110800000D02*
X82452380Y-110800000D01*
X83452380Y-110419047D02*
X82452380Y-110419047D01*
X83452380Y-109961904D01*
X82452380Y-109961904D01*
X82452380Y-109695238D02*
X82452380Y-109238095D01*
X83452380Y-109466666D02*
X82452380Y-109466666D01*
X83071428Y-108971428D02*
X83071428Y-108361904D01*
X82928571Y-107714285D02*
X82976190Y-107600000D01*
X83023809Y-107561904D01*
X83119047Y-107523809D01*
X83261904Y-107523809D01*
X83357142Y-107561904D01*
X83404761Y-107600000D01*
X83452380Y-107676190D01*
X83452380Y-107980952D01*
X82452380Y-107980952D01*
X82452380Y-107714285D01*
X82500000Y-107638095D01*
X82547619Y-107600000D01*
X82642857Y-107561904D01*
X82738095Y-107561904D01*
X82833333Y-107600000D01*
X82880952Y-107638095D01*
X82928571Y-107714285D01*
X82928571Y-107980952D01*
X82452380Y-107257142D02*
X82452380Y-106723809D01*
X83452380Y-107066666D01*
X83452380Y-105800000D02*
X82452380Y-105800000D01*
X83452380Y-105419047D02*
X82452380Y-105419047D01*
X83452380Y-104961904D01*
X82452380Y-104961904D01*
X82452380Y-104695238D02*
X82452380Y-104238095D01*
X83452380Y-104466666D02*
X82452380Y-104466666D01*
X83071428Y-103971428D02*
X83071428Y-103361904D01*
X82928571Y-102714285D02*
X82976190Y-102600000D01*
X83023809Y-102561904D01*
X83119047Y-102523809D01*
X83261904Y-102523809D01*
X83357142Y-102561904D01*
X83404761Y-102600000D01*
X83452380Y-102676190D01*
X83452380Y-102980952D01*
X82452380Y-102980952D01*
X82452380Y-102714285D01*
X82500000Y-102638095D01*
X82547619Y-102600000D01*
X82642857Y-102561904D01*
X82738095Y-102561904D01*
X82833333Y-102600000D01*
X82880952Y-102638095D01*
X82928571Y-102714285D01*
X82928571Y-102980952D01*
X82452380Y-101838095D02*
X82452380Y-101990476D01*
X82500000Y-102066666D01*
X82547619Y-102104761D01*
X82690476Y-102180952D01*
X82880952Y-102219047D01*
X83261904Y-102219047D01*
X83357142Y-102180952D01*
X83404761Y-102142857D01*
X83452380Y-102066666D01*
X83452380Y-101914285D01*
X83404761Y-101838095D01*
X83357142Y-101800000D01*
X83261904Y-101761904D01*
X83023809Y-101761904D01*
X82928571Y-101800000D01*
X82880952Y-101838095D01*
X82833333Y-101914285D01*
X82833333Y-102066666D01*
X82880952Y-102142857D01*
X82928571Y-102180952D01*
X83023809Y-102219047D01*
X83452380Y-100800000D02*
X82452380Y-100800000D01*
X83452380Y-100419047D02*
X82452380Y-100419047D01*
X83452380Y-99961904D01*
X82452380Y-99961904D01*
X82452380Y-99695238D02*
X82452380Y-99238095D01*
X83452380Y-99466666D02*
X82452380Y-99466666D01*
X83071428Y-98971428D02*
X83071428Y-98361904D01*
X82928571Y-97714285D02*
X82976190Y-97600000D01*
X83023809Y-97561904D01*
X83119047Y-97523809D01*
X83261904Y-97523809D01*
X83357142Y-97561904D01*
X83404761Y-97600000D01*
X83452380Y-97676190D01*
X83452380Y-97980952D01*
X82452380Y-97980952D01*
X82452380Y-97714285D01*
X82500000Y-97638095D01*
X82547619Y-97600000D01*
X82642857Y-97561904D01*
X82738095Y-97561904D01*
X82833333Y-97600000D01*
X82880952Y-97638095D01*
X82928571Y-97714285D01*
X82928571Y-97980952D01*
X82452380Y-96800000D02*
X82452380Y-97180952D01*
X82928571Y-97219047D01*
X82880952Y-97180952D01*
X82833333Y-97104761D01*
X82833333Y-96914285D01*
X82880952Y-96838095D01*
X82928571Y-96800000D01*
X83023809Y-96761904D01*
X83261904Y-96761904D01*
X83357142Y-96800000D01*
X83404761Y-96838095D01*
X83452380Y-96914285D01*
X83452380Y-97104761D01*
X83404761Y-97180952D01*
X83357142Y-97219047D01*
X83452380Y-95800000D02*
X82452380Y-95800000D01*
X83452380Y-95419047D02*
X82452380Y-95419047D01*
X83452380Y-94961904D01*
X82452380Y-94961904D01*
X82452380Y-94695238D02*
X82452380Y-94238095D01*
X83452380Y-94466666D02*
X82452380Y-94466666D01*
X83071428Y-93971428D02*
X83071428Y-93361904D01*
X82928571Y-92714285D02*
X82976190Y-92600000D01*
X83023809Y-92561904D01*
X83119047Y-92523809D01*
X83261904Y-92523809D01*
X83357142Y-92561904D01*
X83404761Y-92600000D01*
X83452380Y-92676190D01*
X83452380Y-92980952D01*
X82452380Y-92980952D01*
X82452380Y-92714285D01*
X82500000Y-92638095D01*
X82547619Y-92600000D01*
X82642857Y-92561904D01*
X82738095Y-92561904D01*
X82833333Y-92600000D01*
X82880952Y-92638095D01*
X82928571Y-92714285D01*
X82928571Y-92980952D01*
X82785714Y-91838095D02*
X83452380Y-91838095D01*
X82404761Y-92028571D02*
X83119047Y-92219047D01*
X83119047Y-91723809D01*
X74652380Y-110800000D02*
X73652380Y-110800000D01*
X74652380Y-110419047D02*
X73652380Y-110419047D01*
X74652380Y-109961904D01*
X73652380Y-109961904D01*
X73652380Y-109695238D02*
X73652380Y-109238095D01*
X74652380Y-109466666D02*
X73652380Y-109466666D01*
X74271428Y-108971428D02*
X74271428Y-108361904D01*
X74128571Y-107714285D02*
X74176190Y-107600000D01*
X74223809Y-107561904D01*
X74319047Y-107523809D01*
X74461904Y-107523809D01*
X74557142Y-107561904D01*
X74604761Y-107600000D01*
X74652380Y-107676190D01*
X74652380Y-107980952D01*
X73652380Y-107980952D01*
X73652380Y-107714285D01*
X73700000Y-107638095D01*
X73747619Y-107600000D01*
X73842857Y-107561904D01*
X73938095Y-107561904D01*
X74033333Y-107600000D01*
X74080952Y-107638095D01*
X74128571Y-107714285D01*
X74128571Y-107980952D01*
X73652380Y-107257142D02*
X73652380Y-106761904D01*
X74033333Y-107028571D01*
X74033333Y-106914285D01*
X74080952Y-106838095D01*
X74128571Y-106800000D01*
X74223809Y-106761904D01*
X74461904Y-106761904D01*
X74557142Y-106800000D01*
X74604761Y-106838095D01*
X74652380Y-106914285D01*
X74652380Y-107142857D01*
X74604761Y-107219047D01*
X74557142Y-107257142D01*
X74652380Y-105800000D02*
X73652380Y-105800000D01*
X74652380Y-105419047D02*
X73652380Y-105419047D01*
X74652380Y-104961904D01*
X73652380Y-104961904D01*
X73652380Y-104695238D02*
X73652380Y-104238095D01*
X74652380Y-104466666D02*
X73652380Y-104466666D01*
X74271428Y-103971428D02*
X74271428Y-103361904D01*
X74128571Y-102714285D02*
X74176190Y-102600000D01*
X74223809Y-102561904D01*
X74319047Y-102523809D01*
X74461904Y-102523809D01*
X74557142Y-102561904D01*
X74604761Y-102600000D01*
X74652380Y-102676190D01*
X74652380Y-102980952D01*
X73652380Y-102980952D01*
X73652380Y-102714285D01*
X73700000Y-102638095D01*
X73747619Y-102600000D01*
X73842857Y-102561904D01*
X73938095Y-102561904D01*
X74033333Y-102600000D01*
X74080952Y-102638095D01*
X74128571Y-102714285D01*
X74128571Y-102980952D01*
X73747619Y-102219047D02*
X73700000Y-102180952D01*
X73652380Y-102104761D01*
X73652380Y-101914285D01*
X73700000Y-101838095D01*
X73747619Y-101800000D01*
X73842857Y-101761904D01*
X73938095Y-101761904D01*
X74080952Y-101800000D01*
X74652380Y-102257142D01*
X74652380Y-101761904D01*
X74627380Y-100800000D02*
X73627380Y-100800000D01*
X74627380Y-100419047D02*
X73627380Y-100419047D01*
X74627380Y-99961904D01*
X73627380Y-99961904D01*
X73627380Y-99695238D02*
X73627380Y-99238095D01*
X74627380Y-99466666D02*
X73627380Y-99466666D01*
X74246428Y-98971428D02*
X74246428Y-98361904D01*
X74103571Y-97714285D02*
X74151190Y-97600000D01*
X74198809Y-97561904D01*
X74294047Y-97523809D01*
X74436904Y-97523809D01*
X74532142Y-97561904D01*
X74579761Y-97600000D01*
X74627380Y-97676190D01*
X74627380Y-97980952D01*
X73627380Y-97980952D01*
X73627380Y-97714285D01*
X73675000Y-97638095D01*
X73722619Y-97600000D01*
X73817857Y-97561904D01*
X73913095Y-97561904D01*
X74008333Y-97600000D01*
X74055952Y-97638095D01*
X74103571Y-97714285D01*
X74103571Y-97980952D01*
X74627380Y-96761904D02*
X74627380Y-97219047D01*
X74627380Y-96990476D02*
X73627380Y-96990476D01*
X73770238Y-97066666D01*
X73865476Y-97142857D01*
X73913095Y-97219047D01*
X74652380Y-95800000D02*
X73652380Y-95800000D01*
X74652380Y-95419047D02*
X73652380Y-95419047D01*
X74652380Y-94961904D01*
X73652380Y-94961904D01*
X73652380Y-94695238D02*
X73652380Y-94238095D01*
X74652380Y-94466666D02*
X73652380Y-94466666D01*
X74271428Y-93971428D02*
X74271428Y-93361904D01*
X74128571Y-92714285D02*
X74176190Y-92600000D01*
X74223809Y-92561904D01*
X74319047Y-92523809D01*
X74461904Y-92523809D01*
X74557142Y-92561904D01*
X74604761Y-92600000D01*
X74652380Y-92676190D01*
X74652380Y-92980952D01*
X73652380Y-92980952D01*
X73652380Y-92714285D01*
X73700000Y-92638095D01*
X73747619Y-92600000D01*
X73842857Y-92561904D01*
X73938095Y-92561904D01*
X74033333Y-92600000D01*
X74080952Y-92638095D01*
X74128571Y-92714285D01*
X74128571Y-92980952D01*
X73652380Y-92028571D02*
X73652380Y-91952380D01*
X73700000Y-91876190D01*
X73747619Y-91838095D01*
X73842857Y-91800000D01*
X74033333Y-91761904D01*
X74271428Y-91761904D01*
X74461904Y-91800000D01*
X74557142Y-91838095D01*
X74604761Y-91876190D01*
X74652380Y-91952380D01*
X74652380Y-92028571D01*
X74604761Y-92104761D01*
X74557142Y-92142857D01*
X74461904Y-92180952D01*
X74271428Y-92219047D01*
X74033333Y-92219047D01*
X73842857Y-92180952D01*
X73747619Y-92142857D01*
X73700000Y-92104761D01*
X73652380Y-92028571D01*
X61747619Y-80952380D02*
X61747619Y-81142857D01*
X61700000Y-81238095D01*
X61604761Y-81333333D01*
X61414285Y-81380952D01*
X61080952Y-81380952D01*
X60890476Y-81333333D01*
X60795238Y-81238095D01*
X60747619Y-81142857D01*
X60747619Y-80952380D01*
X60795238Y-80857142D01*
X60890476Y-80761904D01*
X61080952Y-80714285D01*
X61414285Y-80714285D01*
X61604761Y-80761904D01*
X61700000Y-80857142D01*
X61747619Y-80952380D01*
X60747619Y-81809523D02*
X61747619Y-81809523D01*
X61747619Y-82190476D01*
X61700000Y-82285714D01*
X61652380Y-82333333D01*
X61557142Y-82380952D01*
X61414285Y-82380952D01*
X61319047Y-82333333D01*
X61271428Y-82285714D01*
X61223809Y-82190476D01*
X61223809Y-81809523D01*
X61271428Y-82809523D02*
X61271428Y-83142857D01*
X60747619Y-83285714D02*
X60747619Y-82809523D01*
X61747619Y-82809523D01*
X61747619Y-83285714D01*
X60747619Y-83714285D02*
X61747619Y-83714285D01*
X60747619Y-84285714D01*
X61747619Y-84285714D01*
X61033333Y-84714285D02*
X61033333Y-85190476D01*
X60747619Y-84619047D02*
X61747619Y-84952380D01*
X60747619Y-85285714D01*
X61747619Y-85523809D02*
X61747619Y-86142857D01*
X61366666Y-85809523D01*
X61366666Y-85952380D01*
X61319047Y-86047619D01*
X61271428Y-86095238D01*
X61176190Y-86142857D01*
X60938095Y-86142857D01*
X60842857Y-86095238D01*
X60795238Y-86047619D01*
X60747619Y-85952380D01*
X60747619Y-85666666D01*
X60795238Y-85571428D01*
X60842857Y-85523809D01*
X61747619Y-86476190D02*
X60747619Y-87142857D01*
X61747619Y-87142857D02*
X60747619Y-86476190D01*
X61747619Y-87428571D02*
X60747619Y-88095238D01*
X61747619Y-88095238D02*
X60747619Y-87428571D01*
X61128571Y-89238095D02*
X61128571Y-90000000D01*
X60747619Y-91238095D02*
X61747619Y-91238095D01*
X61747619Y-91476190D01*
X61700000Y-91619047D01*
X61604761Y-91714285D01*
X61509523Y-91761904D01*
X61319047Y-91809523D01*
X61176190Y-91809523D01*
X60985714Y-91761904D01*
X60890476Y-91714285D01*
X60795238Y-91619047D01*
X60747619Y-91476190D01*
X60747619Y-91238095D01*
X60747619Y-92238095D02*
X61414285Y-92238095D01*
X61747619Y-92238095D02*
X61700000Y-92190476D01*
X61652380Y-92238095D01*
X61700000Y-92285714D01*
X61747619Y-92238095D01*
X61652380Y-92238095D01*
X61414285Y-93142857D02*
X60604761Y-93142857D01*
X60509523Y-93095238D01*
X60461904Y-93047619D01*
X60414285Y-92952380D01*
X60414285Y-92809523D01*
X60461904Y-92714285D01*
X60795238Y-93142857D02*
X60747619Y-93047619D01*
X60747619Y-92857142D01*
X60795238Y-92761904D01*
X60842857Y-92714285D01*
X60938095Y-92666666D01*
X61223809Y-92666666D01*
X61319047Y-92714285D01*
X61366666Y-92761904D01*
X61414285Y-92857142D01*
X61414285Y-93047619D01*
X61366666Y-93142857D01*
X60747619Y-93619047D02*
X61414285Y-93619047D01*
X61747619Y-93619047D02*
X61700000Y-93571428D01*
X61652380Y-93619047D01*
X61700000Y-93666666D01*
X61747619Y-93619047D01*
X61652380Y-93619047D01*
X61414285Y-93952380D02*
X61414285Y-94333333D01*
X61747619Y-94095238D02*
X60890476Y-94095238D01*
X60795238Y-94142857D01*
X60747619Y-94238095D01*
X60747619Y-94333333D01*
X60747619Y-95095238D02*
X61271428Y-95095238D01*
X61366666Y-95047619D01*
X61414285Y-94952380D01*
X61414285Y-94761904D01*
X61366666Y-94666666D01*
X60795238Y-95095238D02*
X60747619Y-95000000D01*
X60747619Y-94761904D01*
X60795238Y-94666666D01*
X60890476Y-94619047D01*
X60985714Y-94619047D01*
X61080952Y-94666666D01*
X61128571Y-94761904D01*
X61128571Y-95000000D01*
X61176190Y-95095238D01*
X60747619Y-95714285D02*
X60795238Y-95619047D01*
X60890476Y-95571428D01*
X61747619Y-95571428D01*
X60747619Y-96857142D02*
X61747619Y-96857142D01*
X61271428Y-96857142D02*
X61271428Y-97428571D01*
X60747619Y-97428571D02*
X61747619Y-97428571D01*
X60747619Y-98333333D02*
X61271428Y-98333333D01*
X61366666Y-98285714D01*
X61414285Y-98190476D01*
X61414285Y-98000000D01*
X61366666Y-97904761D01*
X60795238Y-98333333D02*
X60747619Y-98238095D01*
X60747619Y-98000000D01*
X60795238Y-97904761D01*
X60890476Y-97857142D01*
X60985714Y-97857142D01*
X61080952Y-97904761D01*
X61128571Y-98000000D01*
X61128571Y-98238095D01*
X61176190Y-98333333D01*
X60747619Y-98809523D02*
X61414285Y-98809523D01*
X61223809Y-98809523D02*
X61319047Y-98857142D01*
X61366666Y-98904761D01*
X61414285Y-99000000D01*
X61414285Y-99095238D01*
X60747619Y-99857142D02*
X61747619Y-99857142D01*
X60795238Y-99857142D02*
X60747619Y-99761904D01*
X60747619Y-99571428D01*
X60795238Y-99476190D01*
X60842857Y-99428571D01*
X60938095Y-99380952D01*
X61223809Y-99380952D01*
X61319047Y-99428571D01*
X61366666Y-99476190D01*
X61414285Y-99571428D01*
X61414285Y-99761904D01*
X61366666Y-99857142D01*
X61414285Y-100238095D02*
X60747619Y-100428571D01*
X61223809Y-100619047D01*
X60747619Y-100809523D01*
X61414285Y-101000000D01*
X60747619Y-101809523D02*
X61271428Y-101809523D01*
X61366666Y-101761904D01*
X61414285Y-101666666D01*
X61414285Y-101476190D01*
X61366666Y-101380952D01*
X60795238Y-101809523D02*
X60747619Y-101714285D01*
X60747619Y-101476190D01*
X60795238Y-101380952D01*
X60890476Y-101333333D01*
X60985714Y-101333333D01*
X61080952Y-101380952D01*
X61128571Y-101476190D01*
X61128571Y-101714285D01*
X61176190Y-101809523D01*
X60747619Y-102285714D02*
X61414285Y-102285714D01*
X61223809Y-102285714D02*
X61319047Y-102333333D01*
X61366666Y-102380952D01*
X61414285Y-102476190D01*
X61414285Y-102571428D01*
X60795238Y-103285714D02*
X60747619Y-103190476D01*
X60747619Y-103000000D01*
X60795238Y-102904761D01*
X60890476Y-102857142D01*
X61271428Y-102857142D01*
X61366666Y-102904761D01*
X61414285Y-103000000D01*
X61414285Y-103190476D01*
X61366666Y-103285714D01*
X61271428Y-103333333D01*
X61176190Y-103333333D01*
X61080952Y-102857142D01*
X60842857Y-105095238D02*
X60795238Y-105047619D01*
X60747619Y-104904761D01*
X60747619Y-104809523D01*
X60795238Y-104666666D01*
X60890476Y-104571428D01*
X60985714Y-104523809D01*
X61176190Y-104476190D01*
X61319047Y-104476190D01*
X61509523Y-104523809D01*
X61604761Y-104571428D01*
X61700000Y-104666666D01*
X61747619Y-104809523D01*
X61747619Y-104904761D01*
X61700000Y-105047619D01*
X61652380Y-105095238D01*
X60747619Y-105666666D02*
X60795238Y-105571428D01*
X60842857Y-105523809D01*
X60938095Y-105476190D01*
X61223809Y-105476190D01*
X61319047Y-105523809D01*
X61366666Y-105571428D01*
X61414285Y-105666666D01*
X61414285Y-105809523D01*
X61366666Y-105904761D01*
X61319047Y-105952380D01*
X61223809Y-106000000D01*
X60938095Y-106000000D01*
X60842857Y-105952380D01*
X60795238Y-105904761D01*
X60747619Y-105809523D01*
X60747619Y-105666666D01*
X61414285Y-106428571D02*
X60747619Y-106428571D01*
X61319047Y-106428571D02*
X61366666Y-106476190D01*
X61414285Y-106571428D01*
X61414285Y-106714285D01*
X61366666Y-106809523D01*
X61271428Y-106857142D01*
X60747619Y-106857142D01*
X61414285Y-107190476D02*
X61414285Y-107571428D01*
X61747619Y-107333333D02*
X60890476Y-107333333D01*
X60795238Y-107380952D01*
X60747619Y-107476190D01*
X60747619Y-107571428D01*
X60747619Y-107904761D02*
X61414285Y-107904761D01*
X61223809Y-107904761D02*
X61319047Y-107952380D01*
X61366666Y-107999999D01*
X61414285Y-108095238D01*
X61414285Y-108190476D01*
X60747619Y-108666666D02*
X60795238Y-108571428D01*
X60842857Y-108523809D01*
X60938095Y-108476190D01*
X61223809Y-108476190D01*
X61319047Y-108523809D01*
X61366666Y-108571428D01*
X61414285Y-108666666D01*
X61414285Y-108809523D01*
X61366666Y-108904761D01*
X61319047Y-108952380D01*
X61223809Y-108999999D01*
X60938095Y-108999999D01*
X60842857Y-108952380D01*
X60795238Y-108904761D01*
X60747619Y-108809523D01*
X60747619Y-108666666D01*
X60747619Y-109571428D02*
X60795238Y-109476190D01*
X60890476Y-109428571D01*
X61747619Y-109428571D01*
X60747619Y-110095238D02*
X60795238Y-109999999D01*
X60890476Y-109952380D01*
X61747619Y-109952380D01*
X60795238Y-110857142D02*
X60747619Y-110761904D01*
X60747619Y-110571428D01*
X60795238Y-110476190D01*
X60890476Y-110428571D01*
X61271428Y-110428571D01*
X61366666Y-110476190D01*
X61414285Y-110571428D01*
X61414285Y-110761904D01*
X61366666Y-110857142D01*
X61271428Y-110904761D01*
X61176190Y-110904761D01*
X61080952Y-110428571D01*
X60747619Y-111333333D02*
X61414285Y-111333333D01*
X61223809Y-111333333D02*
X61319047Y-111380952D01*
X61366666Y-111428571D01*
X61414285Y-111523809D01*
X61414285Y-111619047D01*
X61271428Y-113047619D02*
X61223809Y-113190476D01*
X61176190Y-113238095D01*
X61080952Y-113285714D01*
X60938095Y-113285714D01*
X60842857Y-113238095D01*
X60795238Y-113190476D01*
X60747619Y-113095238D01*
X60747619Y-112714285D01*
X61747619Y-112714285D01*
X61747619Y-113047619D01*
X61700000Y-113142857D01*
X61652380Y-113190476D01*
X61557142Y-113238095D01*
X61461904Y-113238095D01*
X61366666Y-113190476D01*
X61319047Y-113142857D01*
X61271428Y-113047619D01*
X61271428Y-112714285D01*
X60747619Y-113857142D02*
X60795238Y-113761904D01*
X60842857Y-113714285D01*
X60938095Y-113666666D01*
X61223809Y-113666666D01*
X61319047Y-113714285D01*
X61366666Y-113761904D01*
X61414285Y-113857142D01*
X61414285Y-113999999D01*
X61366666Y-114095238D01*
X61319047Y-114142857D01*
X61223809Y-114190476D01*
X60938095Y-114190476D01*
X60842857Y-114142857D01*
X60795238Y-114095238D01*
X60747619Y-113999999D01*
X60747619Y-113857142D01*
X60747619Y-115047619D02*
X61271428Y-115047619D01*
X61366666Y-114999999D01*
X61414285Y-114904761D01*
X61414285Y-114714285D01*
X61366666Y-114619047D01*
X60795238Y-115047619D02*
X60747619Y-114952380D01*
X60747619Y-114714285D01*
X60795238Y-114619047D01*
X60890476Y-114571428D01*
X60985714Y-114571428D01*
X61080952Y-114619047D01*
X61128571Y-114714285D01*
X61128571Y-114952380D01*
X61176190Y-115047619D01*
X60747619Y-115523809D02*
X61414285Y-115523809D01*
X61223809Y-115523809D02*
X61319047Y-115571428D01*
X61366666Y-115619047D01*
X61414285Y-115714285D01*
X61414285Y-115809523D01*
X60747619Y-116571428D02*
X61747619Y-116571428D01*
X60795238Y-116571428D02*
X60747619Y-116476190D01*
X60747619Y-116285714D01*
X60795238Y-116190476D01*
X60842857Y-116142857D01*
X60938095Y-116095238D01*
X61223809Y-116095238D01*
X61319047Y-116142857D01*
X61366666Y-116190476D01*
X61414285Y-116285714D01*
X61414285Y-116476190D01*
X61366666Y-116571428D01*
X61414285Y-117714285D02*
X60747619Y-117952380D01*
X61414285Y-118190476D01*
X61747619Y-119523809D02*
X61747619Y-119619047D01*
X61700000Y-119714285D01*
X61652380Y-119761904D01*
X61557142Y-119809523D01*
X61366666Y-119857142D01*
X61128571Y-119857142D01*
X60938095Y-119809523D01*
X60842857Y-119761904D01*
X60795238Y-119714285D01*
X60747619Y-119619047D01*
X60747619Y-119523809D01*
X60795238Y-119428571D01*
X60842857Y-119380952D01*
X60938095Y-119333333D01*
X61128571Y-119285714D01*
X61366666Y-119285714D01*
X61557142Y-119333333D01*
X61652380Y-119380952D01*
X61700000Y-119428571D01*
X61747619Y-119523809D01*
X60842857Y-120285714D02*
X60795238Y-120333333D01*
X60747619Y-120285714D01*
X60795238Y-120238095D01*
X60842857Y-120285714D01*
X60747619Y-120285714D01*
X61414285Y-121190476D02*
X60747619Y-121190476D01*
X61795238Y-120952380D02*
X61080952Y-120714285D01*
X61080952Y-121333333D01*
X62500000Y-139438095D02*
X62547619Y-139342857D01*
X62547619Y-139200000D01*
X62500000Y-139057142D01*
X62404761Y-138961904D01*
X62309523Y-138914285D01*
X62119047Y-138866666D01*
X61976190Y-138866666D01*
X61785714Y-138914285D01*
X61690476Y-138961904D01*
X61595238Y-139057142D01*
X61547619Y-139200000D01*
X61547619Y-139295238D01*
X61595238Y-139438095D01*
X61642857Y-139485714D01*
X61976190Y-139485714D01*
X61976190Y-139295238D01*
X61547619Y-139914285D02*
X62547619Y-139914285D01*
X61547619Y-140485714D01*
X62547619Y-140485714D01*
X61547619Y-140961904D02*
X62547619Y-140961904D01*
X62547619Y-141200000D01*
X62500000Y-141342857D01*
X62404761Y-141438095D01*
X62309523Y-141485714D01*
X62119047Y-141533333D01*
X61976190Y-141533333D01*
X61785714Y-141485714D01*
X61690476Y-141438095D01*
X61595238Y-141342857D01*
X61547619Y-141200000D01*
X61547619Y-140961904D01*
X61928571Y-128314285D02*
X61928571Y-129076190D01*
X61547619Y-128695238D02*
X62309523Y-128695238D01*
X62547619Y-130028571D02*
X62547619Y-129552380D01*
X62071428Y-129504761D01*
X62119047Y-129552380D01*
X62166666Y-129647619D01*
X62166666Y-129885714D01*
X62119047Y-129980952D01*
X62071428Y-130028571D01*
X61976190Y-130076190D01*
X61738095Y-130076190D01*
X61642857Y-130028571D01*
X61595238Y-129980952D01*
X61547619Y-129885714D01*
X61547619Y-129647619D01*
X61595238Y-129552380D01*
X61642857Y-129504761D01*
X62547619Y-130361904D02*
X61547619Y-130695238D01*
X62547619Y-131028571D01*
X62500000Y-63838095D02*
X62547619Y-63742857D01*
X62547619Y-63600000D01*
X62500000Y-63457142D01*
X62404761Y-63361904D01*
X62309523Y-63314285D01*
X62119047Y-63266666D01*
X61976190Y-63266666D01*
X61785714Y-63314285D01*
X61690476Y-63361904D01*
X61595238Y-63457142D01*
X61547619Y-63600000D01*
X61547619Y-63695238D01*
X61595238Y-63838095D01*
X61642857Y-63885714D01*
X61976190Y-63885714D01*
X61976190Y-63695238D01*
X61547619Y-64314285D02*
X62547619Y-64314285D01*
X61547619Y-64885714D01*
X62547619Y-64885714D01*
X61547619Y-65361904D02*
X62547619Y-65361904D01*
X62547619Y-65600000D01*
X62500000Y-65742857D01*
X62404761Y-65838095D01*
X62309523Y-65885714D01*
X62119047Y-65933333D01*
X61976190Y-65933333D01*
X61785714Y-65885714D01*
X61690476Y-65838095D01*
X61595238Y-65742857D01*
X61547619Y-65600000D01*
X61547619Y-65361904D01*
X61928571Y-73114285D02*
X61928571Y-73876190D01*
X61547619Y-73495238D02*
X62309523Y-73495238D01*
X62547619Y-74828571D02*
X62547619Y-74352380D01*
X62071428Y-74304761D01*
X62119047Y-74352380D01*
X62166666Y-74447619D01*
X62166666Y-74685714D01*
X62119047Y-74780952D01*
X62071428Y-74828571D01*
X61976190Y-74876190D01*
X61738095Y-74876190D01*
X61642857Y-74828571D01*
X61595238Y-74780952D01*
X61547619Y-74685714D01*
X61547619Y-74447619D01*
X61595238Y-74352380D01*
X61642857Y-74304761D01*
X62547619Y-75161904D02*
X61547619Y-75495238D01*
X62547619Y-75828571D01*
X97761904Y-64700000D02*
X97857142Y-64747619D01*
X98000000Y-64747619D01*
X98142857Y-64700000D01*
X98238095Y-64604761D01*
X98285714Y-64509523D01*
X98333333Y-64319047D01*
X98333333Y-64176190D01*
X98285714Y-63985714D01*
X98238095Y-63890476D01*
X98142857Y-63795238D01*
X98000000Y-63747619D01*
X97904761Y-63747619D01*
X97761904Y-63795238D01*
X97714285Y-63842857D01*
X97714285Y-64176190D01*
X97904761Y-64176190D01*
X97285714Y-63747619D02*
X97285714Y-64747619D01*
X96714285Y-63747619D01*
X96714285Y-64747619D01*
X96238095Y-63747619D02*
X96238095Y-64747619D01*
X96000000Y-64747619D01*
X95857142Y-64700000D01*
X95761904Y-64604761D01*
X95714285Y-64509523D01*
X95666666Y-64319047D01*
X95666666Y-64176190D01*
X95714285Y-63985714D01*
X95761904Y-63890476D01*
X95857142Y-63795238D01*
X96000000Y-63747619D01*
X96238095Y-63747619D01*
X103685714Y-64328571D02*
X102923809Y-64328571D01*
X103304761Y-63947619D02*
X103304761Y-64709523D01*
X101971428Y-64947619D02*
X102447619Y-64947619D01*
X102495238Y-64471428D01*
X102447619Y-64519047D01*
X102352380Y-64566666D01*
X102114285Y-64566666D01*
X102019047Y-64519047D01*
X101971428Y-64471428D01*
X101923809Y-64376190D01*
X101923809Y-64138095D01*
X101971428Y-64042857D01*
X102019047Y-63995238D01*
X102114285Y-63947619D01*
X102352380Y-63947619D01*
X102447619Y-63995238D01*
X102495238Y-64042857D01*
X101638095Y-64947619D02*
X101304761Y-63947619D01*
X100971428Y-64947619D01*
X101238095Y-140100000D02*
X101142857Y-140052380D01*
X101000000Y-140052380D01*
X100857142Y-140100000D01*
X100761904Y-140195238D01*
X100714285Y-140290476D01*
X100666666Y-140480952D01*
X100666666Y-140623809D01*
X100714285Y-140814285D01*
X100761904Y-140909523D01*
X100857142Y-141004761D01*
X101000000Y-141052380D01*
X101095238Y-141052380D01*
X101238095Y-141004761D01*
X101285714Y-140957142D01*
X101285714Y-140623809D01*
X101095238Y-140623809D01*
X101714285Y-141052380D02*
X101714285Y-140052380D01*
X102285714Y-141052380D01*
X102285714Y-140052380D01*
X102761904Y-141052380D02*
X102761904Y-140052380D01*
X103000000Y-140052380D01*
X103142857Y-140100000D01*
X103238095Y-140195238D01*
X103285714Y-140290476D01*
X103333333Y-140480952D01*
X103333333Y-140623809D01*
X103285714Y-140814285D01*
X103238095Y-140909523D01*
X103142857Y-141004761D01*
X103000000Y-141052380D01*
X102761904Y-141052380D01*
X95314285Y-140671428D02*
X96076190Y-140671428D01*
X95695238Y-141052380D02*
X95695238Y-140290476D01*
X97028571Y-140052380D02*
X96552380Y-140052380D01*
X96504761Y-140528571D01*
X96552380Y-140480952D01*
X96647619Y-140433333D01*
X96885714Y-140433333D01*
X96980952Y-140480952D01*
X97028571Y-140528571D01*
X97076190Y-140623809D01*
X97076190Y-140861904D01*
X97028571Y-140957142D01*
X96980952Y-141004761D01*
X96885714Y-141052380D01*
X96647619Y-141052380D01*
X96552380Y-141004761D01*
X96504761Y-140957142D01*
X97361904Y-140052380D02*
X97695238Y-141052380D01*
X98028571Y-140052380D01*
X108708928Y-62627380D02*
X108800357Y-62627380D01*
X108891785Y-62675000D01*
X108937500Y-62722619D01*
X108983214Y-62817857D01*
X109028928Y-63008333D01*
X109028928Y-63246428D01*
X108983214Y-63436904D01*
X108937500Y-63532142D01*
X108891785Y-63579761D01*
X108800357Y-63627380D01*
X108708928Y-63627380D01*
X108617500Y-63579761D01*
X108571785Y-63532142D01*
X108526071Y-63436904D01*
X108480357Y-63246428D01*
X108480357Y-63008333D01*
X108526071Y-62817857D01*
X108571785Y-62722619D01*
X108617500Y-62675000D01*
X108708928Y-62627380D01*
X109394642Y-62722619D02*
X109440357Y-62675000D01*
X109531785Y-62627380D01*
X109760357Y-62627380D01*
X109851785Y-62675000D01*
X109897500Y-62722619D01*
X109943214Y-62817857D01*
X109943214Y-62913095D01*
X109897500Y-63055952D01*
X109348928Y-63627380D01*
X109943214Y-63627380D01*
X111268928Y-62627380D02*
X111360357Y-62627380D01*
X111451785Y-62675000D01*
X111497500Y-62722619D01*
X111543214Y-62817857D01*
X111588928Y-63008333D01*
X111588928Y-63246428D01*
X111543214Y-63436904D01*
X111497500Y-63532142D01*
X111451785Y-63579761D01*
X111360357Y-63627380D01*
X111268928Y-63627380D01*
X111177500Y-63579761D01*
X111131785Y-63532142D01*
X111086071Y-63436904D01*
X111040357Y-63246428D01*
X111040357Y-63008333D01*
X111086071Y-62817857D01*
X111131785Y-62722619D01*
X111177500Y-62675000D01*
X111268928Y-62627380D01*
X112411785Y-62960714D02*
X112411785Y-63627380D01*
X112183214Y-62579761D02*
X111954642Y-63294047D01*
X112548928Y-63294047D01*
X113828928Y-62627380D02*
X113920357Y-62627380D01*
X114011785Y-62675000D01*
X114057500Y-62722619D01*
X114103214Y-62817857D01*
X114148928Y-63008333D01*
X114148928Y-63246428D01*
X114103214Y-63436904D01*
X114057500Y-63532142D01*
X114011785Y-63579761D01*
X113920357Y-63627380D01*
X113828928Y-63627380D01*
X113737500Y-63579761D01*
X113691785Y-63532142D01*
X113646071Y-63436904D01*
X113600357Y-63246428D01*
X113600357Y-63008333D01*
X113646071Y-62817857D01*
X113691785Y-62722619D01*
X113737500Y-62675000D01*
X113828928Y-62627380D01*
X114971785Y-62627380D02*
X114788928Y-62627380D01*
X114697500Y-62675000D01*
X114651785Y-62722619D01*
X114560357Y-62865476D01*
X114514642Y-63055952D01*
X114514642Y-63436904D01*
X114560357Y-63532142D01*
X114606071Y-63579761D01*
X114697500Y-63627380D01*
X114880357Y-63627380D01*
X114971785Y-63579761D01*
X115017500Y-63532142D01*
X115063214Y-63436904D01*
X115063214Y-63198809D01*
X115017500Y-63103571D01*
X114971785Y-63055952D01*
X114880357Y-63008333D01*
X114697500Y-63008333D01*
X114606071Y-63055952D01*
X114560357Y-63103571D01*
X114514642Y-63198809D01*
X116388928Y-62627380D02*
X116480357Y-62627380D01*
X116571785Y-62675000D01*
X116617500Y-62722619D01*
X116663214Y-62817857D01*
X116708928Y-63008333D01*
X116708928Y-63246428D01*
X116663214Y-63436904D01*
X116617500Y-63532142D01*
X116571785Y-63579761D01*
X116480357Y-63627380D01*
X116388928Y-63627380D01*
X116297500Y-63579761D01*
X116251785Y-63532142D01*
X116206071Y-63436904D01*
X116160357Y-63246428D01*
X116160357Y-63008333D01*
X116206071Y-62817857D01*
X116251785Y-62722619D01*
X116297500Y-62675000D01*
X116388928Y-62627380D01*
X117257500Y-63055952D02*
X117166071Y-63008333D01*
X117120357Y-62960714D01*
X117074642Y-62865476D01*
X117074642Y-62817857D01*
X117120357Y-62722619D01*
X117166071Y-62675000D01*
X117257500Y-62627380D01*
X117440357Y-62627380D01*
X117531785Y-62675000D01*
X117577500Y-62722619D01*
X117623214Y-62817857D01*
X117623214Y-62865476D01*
X117577500Y-62960714D01*
X117531785Y-63008333D01*
X117440357Y-63055952D01*
X117257500Y-63055952D01*
X117166071Y-63103571D01*
X117120357Y-63151190D01*
X117074642Y-63246428D01*
X117074642Y-63436904D01*
X117120357Y-63532142D01*
X117166071Y-63579761D01*
X117257500Y-63627380D01*
X117440357Y-63627380D01*
X117531785Y-63579761D01*
X117577500Y-63532142D01*
X117623214Y-63436904D01*
X117623214Y-63246428D01*
X117577500Y-63151190D01*
X117531785Y-63103571D01*
X117440357Y-63055952D01*
X119268928Y-63627380D02*
X118720357Y-63627380D01*
X118994642Y-63627380D02*
X118994642Y-62627380D01*
X118903214Y-62770238D01*
X118811785Y-62865476D01*
X118720357Y-62913095D01*
X119863214Y-62627380D02*
X119954642Y-62627380D01*
X120046071Y-62675000D01*
X120091785Y-62722619D01*
X120137500Y-62817857D01*
X120183214Y-63008333D01*
X120183214Y-63246428D01*
X120137500Y-63436904D01*
X120091785Y-63532142D01*
X120046071Y-63579761D01*
X119954642Y-63627380D01*
X119863214Y-63627380D01*
X119771785Y-63579761D01*
X119726071Y-63532142D01*
X119680357Y-63436904D01*
X119634642Y-63246428D01*
X119634642Y-63008333D01*
X119680357Y-62817857D01*
X119726071Y-62722619D01*
X119771785Y-62675000D01*
X119863214Y-62627380D01*
X121828928Y-63627380D02*
X121280357Y-63627380D01*
X121554642Y-63627380D02*
X121554642Y-62627380D01*
X121463214Y-62770238D01*
X121371785Y-62865476D01*
X121280357Y-62913095D01*
X122194642Y-62722619D02*
X122240357Y-62675000D01*
X122331785Y-62627380D01*
X122560357Y-62627380D01*
X122651785Y-62675000D01*
X122697500Y-62722619D01*
X122743214Y-62817857D01*
X122743214Y-62913095D01*
X122697500Y-63055952D01*
X122148928Y-63627380D01*
X122743214Y-63627380D01*
X124388928Y-63627380D02*
X123840357Y-63627380D01*
X124114642Y-63627380D02*
X124114642Y-62627380D01*
X124023214Y-62770238D01*
X123931785Y-62865476D01*
X123840357Y-62913095D01*
X125211785Y-62960714D02*
X125211785Y-63627380D01*
X124983214Y-62579761D02*
X124754642Y-63294047D01*
X125348928Y-63294047D01*
X126948928Y-63627380D02*
X126400357Y-63627380D01*
X126674642Y-63627380D02*
X126674642Y-62627380D01*
X126583214Y-62770238D01*
X126491785Y-62865476D01*
X126400357Y-62913095D01*
X127771785Y-62627380D02*
X127588928Y-62627380D01*
X127497500Y-62675000D01*
X127451785Y-62722619D01*
X127360357Y-62865476D01*
X127314642Y-63055952D01*
X127314642Y-63436904D01*
X127360357Y-63532142D01*
X127406071Y-63579761D01*
X127497500Y-63627380D01*
X127680357Y-63627380D01*
X127771785Y-63579761D01*
X127817500Y-63532142D01*
X127863214Y-63436904D01*
X127863214Y-63198809D01*
X127817500Y-63103571D01*
X127771785Y-63055952D01*
X127680357Y-63008333D01*
X127497500Y-63008333D01*
X127406071Y-63055952D01*
X127360357Y-63103571D01*
X127314642Y-63198809D01*
X108708928Y-64277380D02*
X108800357Y-64277380D01*
X108891785Y-64325000D01*
X108937500Y-64372619D01*
X108983214Y-64467857D01*
X109028928Y-64658333D01*
X109028928Y-64896428D01*
X108983214Y-65086904D01*
X108937500Y-65182142D01*
X108891785Y-65229761D01*
X108800357Y-65277380D01*
X108708928Y-65277380D01*
X108617500Y-65229761D01*
X108571785Y-65182142D01*
X108526071Y-65086904D01*
X108480357Y-64896428D01*
X108480357Y-64658333D01*
X108526071Y-64467857D01*
X108571785Y-64372619D01*
X108617500Y-64325000D01*
X108708928Y-64277380D01*
X109943214Y-65277380D02*
X109394642Y-65277380D01*
X109668928Y-65277380D02*
X109668928Y-64277380D01*
X109577500Y-64420238D01*
X109486071Y-64515476D01*
X109394642Y-64563095D01*
X111268928Y-64277380D02*
X111360357Y-64277380D01*
X111451785Y-64325000D01*
X111497500Y-64372619D01*
X111543214Y-64467857D01*
X111588928Y-64658333D01*
X111588928Y-64896428D01*
X111543214Y-65086904D01*
X111497500Y-65182142D01*
X111451785Y-65229761D01*
X111360357Y-65277380D01*
X111268928Y-65277380D01*
X111177500Y-65229761D01*
X111131785Y-65182142D01*
X111086071Y-65086904D01*
X111040357Y-64896428D01*
X111040357Y-64658333D01*
X111086071Y-64467857D01*
X111131785Y-64372619D01*
X111177500Y-64325000D01*
X111268928Y-64277380D01*
X111908928Y-64277380D02*
X112503214Y-64277380D01*
X112183214Y-64658333D01*
X112320357Y-64658333D01*
X112411785Y-64705952D01*
X112457500Y-64753571D01*
X112503214Y-64848809D01*
X112503214Y-65086904D01*
X112457500Y-65182142D01*
X112411785Y-65229761D01*
X112320357Y-65277380D01*
X112046071Y-65277380D01*
X111954642Y-65229761D01*
X111908928Y-65182142D01*
X113828928Y-64277380D02*
X113920357Y-64277380D01*
X114011785Y-64325000D01*
X114057500Y-64372619D01*
X114103214Y-64467857D01*
X114148928Y-64658333D01*
X114148928Y-64896428D01*
X114103214Y-65086904D01*
X114057500Y-65182142D01*
X114011785Y-65229761D01*
X113920357Y-65277380D01*
X113828928Y-65277380D01*
X113737500Y-65229761D01*
X113691785Y-65182142D01*
X113646071Y-65086904D01*
X113600357Y-64896428D01*
X113600357Y-64658333D01*
X113646071Y-64467857D01*
X113691785Y-64372619D01*
X113737500Y-64325000D01*
X113828928Y-64277380D01*
X115017500Y-64277380D02*
X114560357Y-64277380D01*
X114514642Y-64753571D01*
X114560357Y-64705952D01*
X114651785Y-64658333D01*
X114880357Y-64658333D01*
X114971785Y-64705952D01*
X115017500Y-64753571D01*
X115063214Y-64848809D01*
X115063214Y-65086904D01*
X115017500Y-65182142D01*
X114971785Y-65229761D01*
X114880357Y-65277380D01*
X114651785Y-65277380D01*
X114560357Y-65229761D01*
X114514642Y-65182142D01*
X116388928Y-64277380D02*
X116480357Y-64277380D01*
X116571785Y-64325000D01*
X116617500Y-64372619D01*
X116663214Y-64467857D01*
X116708928Y-64658333D01*
X116708928Y-64896428D01*
X116663214Y-65086904D01*
X116617500Y-65182142D01*
X116571785Y-65229761D01*
X116480357Y-65277380D01*
X116388928Y-65277380D01*
X116297500Y-65229761D01*
X116251785Y-65182142D01*
X116206071Y-65086904D01*
X116160357Y-64896428D01*
X116160357Y-64658333D01*
X116206071Y-64467857D01*
X116251785Y-64372619D01*
X116297500Y-64325000D01*
X116388928Y-64277380D01*
X117028928Y-64277380D02*
X117668928Y-64277380D01*
X117257500Y-65277380D01*
X118948928Y-64277380D02*
X119040357Y-64277380D01*
X119131785Y-64325000D01*
X119177500Y-64372619D01*
X119223214Y-64467857D01*
X119268928Y-64658333D01*
X119268928Y-64896428D01*
X119223214Y-65086904D01*
X119177500Y-65182142D01*
X119131785Y-65229761D01*
X119040357Y-65277380D01*
X118948928Y-65277380D01*
X118857500Y-65229761D01*
X118811785Y-65182142D01*
X118766071Y-65086904D01*
X118720357Y-64896428D01*
X118720357Y-64658333D01*
X118766071Y-64467857D01*
X118811785Y-64372619D01*
X118857500Y-64325000D01*
X118948928Y-64277380D01*
X119726071Y-65277380D02*
X119908928Y-65277380D01*
X120000357Y-65229761D01*
X120046071Y-65182142D01*
X120137500Y-65039285D01*
X120183214Y-64848809D01*
X120183214Y-64467857D01*
X120137500Y-64372619D01*
X120091785Y-64325000D01*
X120000357Y-64277380D01*
X119817500Y-64277380D01*
X119726071Y-64325000D01*
X119680357Y-64372619D01*
X119634642Y-64467857D01*
X119634642Y-64705952D01*
X119680357Y-64801190D01*
X119726071Y-64848809D01*
X119817500Y-64896428D01*
X120000357Y-64896428D01*
X120091785Y-64848809D01*
X120137500Y-64801190D01*
X120183214Y-64705952D01*
X121828928Y-65277380D02*
X121280357Y-65277380D01*
X121554642Y-65277380D02*
X121554642Y-64277380D01*
X121463214Y-64420238D01*
X121371785Y-64515476D01*
X121280357Y-64563095D01*
X122743214Y-65277380D02*
X122194642Y-65277380D01*
X122468928Y-65277380D02*
X122468928Y-64277380D01*
X122377500Y-64420238D01*
X122286071Y-64515476D01*
X122194642Y-64563095D01*
X124388928Y-65277380D02*
X123840357Y-65277380D01*
X124114642Y-65277380D02*
X124114642Y-64277380D01*
X124023214Y-64420238D01*
X123931785Y-64515476D01*
X123840357Y-64563095D01*
X124708928Y-64277380D02*
X125303214Y-64277380D01*
X124983214Y-64658333D01*
X125120357Y-64658333D01*
X125211785Y-64705952D01*
X125257500Y-64753571D01*
X125303214Y-64848809D01*
X125303214Y-65086904D01*
X125257500Y-65182142D01*
X125211785Y-65229761D01*
X125120357Y-65277380D01*
X124846071Y-65277380D01*
X124754642Y-65229761D01*
X124708928Y-65182142D01*
X126948928Y-65277380D02*
X126400357Y-65277380D01*
X126674642Y-65277380D02*
X126674642Y-64277380D01*
X126583214Y-64420238D01*
X126491785Y-64515476D01*
X126400357Y-64563095D01*
X127817500Y-64277380D02*
X127360357Y-64277380D01*
X127314642Y-64753571D01*
X127360357Y-64705952D01*
X127451785Y-64658333D01*
X127680357Y-64658333D01*
X127771785Y-64705952D01*
X127817500Y-64753571D01*
X127863214Y-64848809D01*
X127863214Y-65086904D01*
X127817500Y-65182142D01*
X127771785Y-65229761D01*
X127680357Y-65277380D01*
X127451785Y-65277380D01*
X127360357Y-65229761D01*
X127314642Y-65182142D01*
X135308928Y-62627380D02*
X135400357Y-62627380D01*
X135491785Y-62675000D01*
X135537500Y-62722619D01*
X135583214Y-62817857D01*
X135628928Y-63008333D01*
X135628928Y-63246428D01*
X135583214Y-63436904D01*
X135537500Y-63532142D01*
X135491785Y-63579761D01*
X135400357Y-63627380D01*
X135308928Y-63627380D01*
X135217500Y-63579761D01*
X135171785Y-63532142D01*
X135126071Y-63436904D01*
X135080357Y-63246428D01*
X135080357Y-63008333D01*
X135126071Y-62817857D01*
X135171785Y-62722619D01*
X135217500Y-62675000D01*
X135308928Y-62627380D01*
X135994642Y-62722619D02*
X136040357Y-62675000D01*
X136131785Y-62627380D01*
X136360357Y-62627380D01*
X136451785Y-62675000D01*
X136497500Y-62722619D01*
X136543214Y-62817857D01*
X136543214Y-62913095D01*
X136497500Y-63055952D01*
X135948928Y-63627380D01*
X136543214Y-63627380D01*
X137868928Y-62627380D02*
X137960357Y-62627380D01*
X138051785Y-62675000D01*
X138097500Y-62722619D01*
X138143214Y-62817857D01*
X138188928Y-63008333D01*
X138188928Y-63246428D01*
X138143214Y-63436904D01*
X138097500Y-63532142D01*
X138051785Y-63579761D01*
X137960357Y-63627380D01*
X137868928Y-63627380D01*
X137777500Y-63579761D01*
X137731785Y-63532142D01*
X137686071Y-63436904D01*
X137640357Y-63246428D01*
X137640357Y-63008333D01*
X137686071Y-62817857D01*
X137731785Y-62722619D01*
X137777500Y-62675000D01*
X137868928Y-62627380D01*
X139011785Y-62960714D02*
X139011785Y-63627380D01*
X138783214Y-62579761D02*
X138554642Y-63294047D01*
X139148928Y-63294047D01*
X140428928Y-62627380D02*
X140520357Y-62627380D01*
X140611785Y-62675000D01*
X140657500Y-62722619D01*
X140703214Y-62817857D01*
X140748928Y-63008333D01*
X140748928Y-63246428D01*
X140703214Y-63436904D01*
X140657500Y-63532142D01*
X140611785Y-63579761D01*
X140520357Y-63627380D01*
X140428928Y-63627380D01*
X140337500Y-63579761D01*
X140291785Y-63532142D01*
X140246071Y-63436904D01*
X140200357Y-63246428D01*
X140200357Y-63008333D01*
X140246071Y-62817857D01*
X140291785Y-62722619D01*
X140337500Y-62675000D01*
X140428928Y-62627380D01*
X141571785Y-62627380D02*
X141388928Y-62627380D01*
X141297500Y-62675000D01*
X141251785Y-62722619D01*
X141160357Y-62865476D01*
X141114642Y-63055952D01*
X141114642Y-63436904D01*
X141160357Y-63532142D01*
X141206071Y-63579761D01*
X141297500Y-63627380D01*
X141480357Y-63627380D01*
X141571785Y-63579761D01*
X141617500Y-63532142D01*
X141663214Y-63436904D01*
X141663214Y-63198809D01*
X141617500Y-63103571D01*
X141571785Y-63055952D01*
X141480357Y-63008333D01*
X141297500Y-63008333D01*
X141206071Y-63055952D01*
X141160357Y-63103571D01*
X141114642Y-63198809D01*
X142988928Y-62627380D02*
X143080357Y-62627380D01*
X143171785Y-62675000D01*
X143217500Y-62722619D01*
X143263214Y-62817857D01*
X143308928Y-63008333D01*
X143308928Y-63246428D01*
X143263214Y-63436904D01*
X143217500Y-63532142D01*
X143171785Y-63579761D01*
X143080357Y-63627380D01*
X142988928Y-63627380D01*
X142897500Y-63579761D01*
X142851785Y-63532142D01*
X142806071Y-63436904D01*
X142760357Y-63246428D01*
X142760357Y-63008333D01*
X142806071Y-62817857D01*
X142851785Y-62722619D01*
X142897500Y-62675000D01*
X142988928Y-62627380D01*
X143857500Y-63055952D02*
X143766071Y-63008333D01*
X143720357Y-62960714D01*
X143674642Y-62865476D01*
X143674642Y-62817857D01*
X143720357Y-62722619D01*
X143766071Y-62675000D01*
X143857500Y-62627380D01*
X144040357Y-62627380D01*
X144131785Y-62675000D01*
X144177500Y-62722619D01*
X144223214Y-62817857D01*
X144223214Y-62865476D01*
X144177500Y-62960714D01*
X144131785Y-63008333D01*
X144040357Y-63055952D01*
X143857500Y-63055952D01*
X143766071Y-63103571D01*
X143720357Y-63151190D01*
X143674642Y-63246428D01*
X143674642Y-63436904D01*
X143720357Y-63532142D01*
X143766071Y-63579761D01*
X143857500Y-63627380D01*
X144040357Y-63627380D01*
X144131785Y-63579761D01*
X144177500Y-63532142D01*
X144223214Y-63436904D01*
X144223214Y-63246428D01*
X144177500Y-63151190D01*
X144131785Y-63103571D01*
X144040357Y-63055952D01*
X145868928Y-63627380D02*
X145320357Y-63627380D01*
X145594642Y-63627380D02*
X145594642Y-62627380D01*
X145503214Y-62770238D01*
X145411785Y-62865476D01*
X145320357Y-62913095D01*
X146463214Y-62627380D02*
X146554642Y-62627380D01*
X146646071Y-62675000D01*
X146691785Y-62722619D01*
X146737500Y-62817857D01*
X146783214Y-63008333D01*
X146783214Y-63246428D01*
X146737500Y-63436904D01*
X146691785Y-63532142D01*
X146646071Y-63579761D01*
X146554642Y-63627380D01*
X146463214Y-63627380D01*
X146371785Y-63579761D01*
X146326071Y-63532142D01*
X146280357Y-63436904D01*
X146234642Y-63246428D01*
X146234642Y-63008333D01*
X146280357Y-62817857D01*
X146326071Y-62722619D01*
X146371785Y-62675000D01*
X146463214Y-62627380D01*
X148428928Y-63627380D02*
X147880357Y-63627380D01*
X148154642Y-63627380D02*
X148154642Y-62627380D01*
X148063214Y-62770238D01*
X147971785Y-62865476D01*
X147880357Y-62913095D01*
X148794642Y-62722619D02*
X148840357Y-62675000D01*
X148931785Y-62627380D01*
X149160357Y-62627380D01*
X149251785Y-62675000D01*
X149297500Y-62722619D01*
X149343214Y-62817857D01*
X149343214Y-62913095D01*
X149297500Y-63055952D01*
X148748928Y-63627380D01*
X149343214Y-63627380D01*
X150988928Y-63627380D02*
X150440357Y-63627380D01*
X150714642Y-63627380D02*
X150714642Y-62627380D01*
X150623214Y-62770238D01*
X150531785Y-62865476D01*
X150440357Y-62913095D01*
X151811785Y-62960714D02*
X151811785Y-63627380D01*
X151583214Y-62579761D02*
X151354642Y-63294047D01*
X151948928Y-63294047D01*
X153548928Y-63627380D02*
X153000357Y-63627380D01*
X153274642Y-63627380D02*
X153274642Y-62627380D01*
X153183214Y-62770238D01*
X153091785Y-62865476D01*
X153000357Y-62913095D01*
X154371785Y-62627380D02*
X154188928Y-62627380D01*
X154097500Y-62675000D01*
X154051785Y-62722619D01*
X153960357Y-62865476D01*
X153914642Y-63055952D01*
X153914642Y-63436904D01*
X153960357Y-63532142D01*
X154006071Y-63579761D01*
X154097500Y-63627380D01*
X154280357Y-63627380D01*
X154371785Y-63579761D01*
X154417500Y-63532142D01*
X154463214Y-63436904D01*
X154463214Y-63198809D01*
X154417500Y-63103571D01*
X154371785Y-63055952D01*
X154280357Y-63008333D01*
X154097500Y-63008333D01*
X154006071Y-63055952D01*
X153960357Y-63103571D01*
X153914642Y-63198809D01*
X135308928Y-64277380D02*
X135400357Y-64277380D01*
X135491785Y-64325000D01*
X135537500Y-64372619D01*
X135583214Y-64467857D01*
X135628928Y-64658333D01*
X135628928Y-64896428D01*
X135583214Y-65086904D01*
X135537500Y-65182142D01*
X135491785Y-65229761D01*
X135400357Y-65277380D01*
X135308928Y-65277380D01*
X135217500Y-65229761D01*
X135171785Y-65182142D01*
X135126071Y-65086904D01*
X135080357Y-64896428D01*
X135080357Y-64658333D01*
X135126071Y-64467857D01*
X135171785Y-64372619D01*
X135217500Y-64325000D01*
X135308928Y-64277380D01*
X136543214Y-65277380D02*
X135994642Y-65277380D01*
X136268928Y-65277380D02*
X136268928Y-64277380D01*
X136177500Y-64420238D01*
X136086071Y-64515476D01*
X135994642Y-64563095D01*
X137868928Y-64277380D02*
X137960357Y-64277380D01*
X138051785Y-64325000D01*
X138097500Y-64372619D01*
X138143214Y-64467857D01*
X138188928Y-64658333D01*
X138188928Y-64896428D01*
X138143214Y-65086904D01*
X138097500Y-65182142D01*
X138051785Y-65229761D01*
X137960357Y-65277380D01*
X137868928Y-65277380D01*
X137777500Y-65229761D01*
X137731785Y-65182142D01*
X137686071Y-65086904D01*
X137640357Y-64896428D01*
X137640357Y-64658333D01*
X137686071Y-64467857D01*
X137731785Y-64372619D01*
X137777500Y-64325000D01*
X137868928Y-64277380D01*
X138508928Y-64277380D02*
X139103214Y-64277380D01*
X138783214Y-64658333D01*
X138920357Y-64658333D01*
X139011785Y-64705952D01*
X139057500Y-64753571D01*
X139103214Y-64848809D01*
X139103214Y-65086904D01*
X139057500Y-65182142D01*
X139011785Y-65229761D01*
X138920357Y-65277380D01*
X138646071Y-65277380D01*
X138554642Y-65229761D01*
X138508928Y-65182142D01*
X140428928Y-64277380D02*
X140520357Y-64277380D01*
X140611785Y-64325000D01*
X140657500Y-64372619D01*
X140703214Y-64467857D01*
X140748928Y-64658333D01*
X140748928Y-64896428D01*
X140703214Y-65086904D01*
X140657500Y-65182142D01*
X140611785Y-65229761D01*
X140520357Y-65277380D01*
X140428928Y-65277380D01*
X140337500Y-65229761D01*
X140291785Y-65182142D01*
X140246071Y-65086904D01*
X140200357Y-64896428D01*
X140200357Y-64658333D01*
X140246071Y-64467857D01*
X140291785Y-64372619D01*
X140337500Y-64325000D01*
X140428928Y-64277380D01*
X141617500Y-64277380D02*
X141160357Y-64277380D01*
X141114642Y-64753571D01*
X141160357Y-64705952D01*
X141251785Y-64658333D01*
X141480357Y-64658333D01*
X141571785Y-64705952D01*
X141617500Y-64753571D01*
X141663214Y-64848809D01*
X141663214Y-65086904D01*
X141617500Y-65182142D01*
X141571785Y-65229761D01*
X141480357Y-65277380D01*
X141251785Y-65277380D01*
X141160357Y-65229761D01*
X141114642Y-65182142D01*
X142988928Y-64277380D02*
X143080357Y-64277380D01*
X143171785Y-64325000D01*
X143217500Y-64372619D01*
X143263214Y-64467857D01*
X143308928Y-64658333D01*
X143308928Y-64896428D01*
X143263214Y-65086904D01*
X143217500Y-65182142D01*
X143171785Y-65229761D01*
X143080357Y-65277380D01*
X142988928Y-65277380D01*
X142897500Y-65229761D01*
X142851785Y-65182142D01*
X142806071Y-65086904D01*
X142760357Y-64896428D01*
X142760357Y-64658333D01*
X142806071Y-64467857D01*
X142851785Y-64372619D01*
X142897500Y-64325000D01*
X142988928Y-64277380D01*
X143628928Y-64277380D02*
X144268928Y-64277380D01*
X143857500Y-65277380D01*
X145548928Y-64277380D02*
X145640357Y-64277380D01*
X145731785Y-64325000D01*
X145777500Y-64372619D01*
X145823214Y-64467857D01*
X145868928Y-64658333D01*
X145868928Y-64896428D01*
X145823214Y-65086904D01*
X145777500Y-65182142D01*
X145731785Y-65229761D01*
X145640357Y-65277380D01*
X145548928Y-65277380D01*
X145457500Y-65229761D01*
X145411785Y-65182142D01*
X145366071Y-65086904D01*
X145320357Y-64896428D01*
X145320357Y-64658333D01*
X145366071Y-64467857D01*
X145411785Y-64372619D01*
X145457500Y-64325000D01*
X145548928Y-64277380D01*
X146326071Y-65277380D02*
X146508928Y-65277380D01*
X146600357Y-65229761D01*
X146646071Y-65182142D01*
X146737500Y-65039285D01*
X146783214Y-64848809D01*
X146783214Y-64467857D01*
X146737500Y-64372619D01*
X146691785Y-64325000D01*
X146600357Y-64277380D01*
X146417500Y-64277380D01*
X146326071Y-64325000D01*
X146280357Y-64372619D01*
X146234642Y-64467857D01*
X146234642Y-64705952D01*
X146280357Y-64801190D01*
X146326071Y-64848809D01*
X146417500Y-64896428D01*
X146600357Y-64896428D01*
X146691785Y-64848809D01*
X146737500Y-64801190D01*
X146783214Y-64705952D01*
X148428928Y-65277380D02*
X147880357Y-65277380D01*
X148154642Y-65277380D02*
X148154642Y-64277380D01*
X148063214Y-64420238D01*
X147971785Y-64515476D01*
X147880357Y-64563095D01*
X149343214Y-65277380D02*
X148794642Y-65277380D01*
X149068928Y-65277380D02*
X149068928Y-64277380D01*
X148977500Y-64420238D01*
X148886071Y-64515476D01*
X148794642Y-64563095D01*
X150988928Y-65277380D02*
X150440357Y-65277380D01*
X150714642Y-65277380D02*
X150714642Y-64277380D01*
X150623214Y-64420238D01*
X150531785Y-64515476D01*
X150440357Y-64563095D01*
X151308928Y-64277380D02*
X151903214Y-64277380D01*
X151583214Y-64658333D01*
X151720357Y-64658333D01*
X151811785Y-64705952D01*
X151857500Y-64753571D01*
X151903214Y-64848809D01*
X151903214Y-65086904D01*
X151857500Y-65182142D01*
X151811785Y-65229761D01*
X151720357Y-65277380D01*
X151446071Y-65277380D01*
X151354642Y-65229761D01*
X151308928Y-65182142D01*
X153548928Y-65277380D02*
X153000357Y-65277380D01*
X153274642Y-65277380D02*
X153274642Y-64277380D01*
X153183214Y-64420238D01*
X153091785Y-64515476D01*
X153000357Y-64563095D01*
X154417500Y-64277380D02*
X153960357Y-64277380D01*
X153914642Y-64753571D01*
X153960357Y-64705952D01*
X154051785Y-64658333D01*
X154280357Y-64658333D01*
X154371785Y-64705952D01*
X154417500Y-64753571D01*
X154463214Y-64848809D01*
X154463214Y-65086904D01*
X154417500Y-65182142D01*
X154371785Y-65229761D01*
X154280357Y-65277380D01*
X154051785Y-65277380D01*
X153960357Y-65229761D01*
X153914642Y-65182142D01*
X161908928Y-62627380D02*
X162000357Y-62627380D01*
X162091785Y-62675000D01*
X162137500Y-62722619D01*
X162183214Y-62817857D01*
X162228928Y-63008333D01*
X162228928Y-63246428D01*
X162183214Y-63436904D01*
X162137500Y-63532142D01*
X162091785Y-63579761D01*
X162000357Y-63627380D01*
X161908928Y-63627380D01*
X161817500Y-63579761D01*
X161771785Y-63532142D01*
X161726071Y-63436904D01*
X161680357Y-63246428D01*
X161680357Y-63008333D01*
X161726071Y-62817857D01*
X161771785Y-62722619D01*
X161817500Y-62675000D01*
X161908928Y-62627380D01*
X162594642Y-62722619D02*
X162640357Y-62675000D01*
X162731785Y-62627380D01*
X162960357Y-62627380D01*
X163051785Y-62675000D01*
X163097500Y-62722619D01*
X163143214Y-62817857D01*
X163143214Y-62913095D01*
X163097500Y-63055952D01*
X162548928Y-63627380D01*
X163143214Y-63627380D01*
X164468928Y-62627380D02*
X164560357Y-62627380D01*
X164651785Y-62675000D01*
X164697500Y-62722619D01*
X164743214Y-62817857D01*
X164788928Y-63008333D01*
X164788928Y-63246428D01*
X164743214Y-63436904D01*
X164697500Y-63532142D01*
X164651785Y-63579761D01*
X164560357Y-63627380D01*
X164468928Y-63627380D01*
X164377500Y-63579761D01*
X164331785Y-63532142D01*
X164286071Y-63436904D01*
X164240357Y-63246428D01*
X164240357Y-63008333D01*
X164286071Y-62817857D01*
X164331785Y-62722619D01*
X164377500Y-62675000D01*
X164468928Y-62627380D01*
X165611785Y-62960714D02*
X165611785Y-63627380D01*
X165383214Y-62579761D02*
X165154642Y-63294047D01*
X165748928Y-63294047D01*
X167028928Y-62627380D02*
X167120357Y-62627380D01*
X167211785Y-62675000D01*
X167257500Y-62722619D01*
X167303214Y-62817857D01*
X167348928Y-63008333D01*
X167348928Y-63246428D01*
X167303214Y-63436904D01*
X167257500Y-63532142D01*
X167211785Y-63579761D01*
X167120357Y-63627380D01*
X167028928Y-63627380D01*
X166937500Y-63579761D01*
X166891785Y-63532142D01*
X166846071Y-63436904D01*
X166800357Y-63246428D01*
X166800357Y-63008333D01*
X166846071Y-62817857D01*
X166891785Y-62722619D01*
X166937500Y-62675000D01*
X167028928Y-62627380D01*
X168171785Y-62627380D02*
X167988928Y-62627380D01*
X167897500Y-62675000D01*
X167851785Y-62722619D01*
X167760357Y-62865476D01*
X167714642Y-63055952D01*
X167714642Y-63436904D01*
X167760357Y-63532142D01*
X167806071Y-63579761D01*
X167897500Y-63627380D01*
X168080357Y-63627380D01*
X168171785Y-63579761D01*
X168217500Y-63532142D01*
X168263214Y-63436904D01*
X168263214Y-63198809D01*
X168217500Y-63103571D01*
X168171785Y-63055952D01*
X168080357Y-63008333D01*
X167897500Y-63008333D01*
X167806071Y-63055952D01*
X167760357Y-63103571D01*
X167714642Y-63198809D01*
X169588928Y-62627380D02*
X169680357Y-62627380D01*
X169771785Y-62675000D01*
X169817500Y-62722619D01*
X169863214Y-62817857D01*
X169908928Y-63008333D01*
X169908928Y-63246428D01*
X169863214Y-63436904D01*
X169817500Y-63532142D01*
X169771785Y-63579761D01*
X169680357Y-63627380D01*
X169588928Y-63627380D01*
X169497500Y-63579761D01*
X169451785Y-63532142D01*
X169406071Y-63436904D01*
X169360357Y-63246428D01*
X169360357Y-63008333D01*
X169406071Y-62817857D01*
X169451785Y-62722619D01*
X169497500Y-62675000D01*
X169588928Y-62627380D01*
X170457500Y-63055952D02*
X170366071Y-63008333D01*
X170320357Y-62960714D01*
X170274642Y-62865476D01*
X170274642Y-62817857D01*
X170320357Y-62722619D01*
X170366071Y-62675000D01*
X170457500Y-62627380D01*
X170640357Y-62627380D01*
X170731785Y-62675000D01*
X170777500Y-62722619D01*
X170823214Y-62817857D01*
X170823214Y-62865476D01*
X170777500Y-62960714D01*
X170731785Y-63008333D01*
X170640357Y-63055952D01*
X170457500Y-63055952D01*
X170366071Y-63103571D01*
X170320357Y-63151190D01*
X170274642Y-63246428D01*
X170274642Y-63436904D01*
X170320357Y-63532142D01*
X170366071Y-63579761D01*
X170457500Y-63627380D01*
X170640357Y-63627380D01*
X170731785Y-63579761D01*
X170777500Y-63532142D01*
X170823214Y-63436904D01*
X170823214Y-63246428D01*
X170777500Y-63151190D01*
X170731785Y-63103571D01*
X170640357Y-63055952D01*
X172468928Y-63627380D02*
X171920357Y-63627380D01*
X172194642Y-63627380D02*
X172194642Y-62627380D01*
X172103214Y-62770238D01*
X172011785Y-62865476D01*
X171920357Y-62913095D01*
X173063214Y-62627380D02*
X173154642Y-62627380D01*
X173246071Y-62675000D01*
X173291785Y-62722619D01*
X173337500Y-62817857D01*
X173383214Y-63008333D01*
X173383214Y-63246428D01*
X173337500Y-63436904D01*
X173291785Y-63532142D01*
X173246071Y-63579761D01*
X173154642Y-63627380D01*
X173063214Y-63627380D01*
X172971785Y-63579761D01*
X172926071Y-63532142D01*
X172880357Y-63436904D01*
X172834642Y-63246428D01*
X172834642Y-63008333D01*
X172880357Y-62817857D01*
X172926071Y-62722619D01*
X172971785Y-62675000D01*
X173063214Y-62627380D01*
X175028928Y-63627380D02*
X174480357Y-63627380D01*
X174754642Y-63627380D02*
X174754642Y-62627380D01*
X174663214Y-62770238D01*
X174571785Y-62865476D01*
X174480357Y-62913095D01*
X175394642Y-62722619D02*
X175440357Y-62675000D01*
X175531785Y-62627380D01*
X175760357Y-62627380D01*
X175851785Y-62675000D01*
X175897500Y-62722619D01*
X175943214Y-62817857D01*
X175943214Y-62913095D01*
X175897500Y-63055952D01*
X175348928Y-63627380D01*
X175943214Y-63627380D01*
X177588928Y-63627380D02*
X177040357Y-63627380D01*
X177314642Y-63627380D02*
X177314642Y-62627380D01*
X177223214Y-62770238D01*
X177131785Y-62865476D01*
X177040357Y-62913095D01*
X178411785Y-62960714D02*
X178411785Y-63627380D01*
X178183214Y-62579761D02*
X177954642Y-63294047D01*
X178548928Y-63294047D01*
X180148928Y-63627380D02*
X179600357Y-63627380D01*
X179874642Y-63627380D02*
X179874642Y-62627380D01*
X179783214Y-62770238D01*
X179691785Y-62865476D01*
X179600357Y-62913095D01*
X180971785Y-62627380D02*
X180788928Y-62627380D01*
X180697500Y-62675000D01*
X180651785Y-62722619D01*
X180560357Y-62865476D01*
X180514642Y-63055952D01*
X180514642Y-63436904D01*
X180560357Y-63532142D01*
X180606071Y-63579761D01*
X180697500Y-63627380D01*
X180880357Y-63627380D01*
X180971785Y-63579761D01*
X181017500Y-63532142D01*
X181063214Y-63436904D01*
X181063214Y-63198809D01*
X181017500Y-63103571D01*
X180971785Y-63055952D01*
X180880357Y-63008333D01*
X180697500Y-63008333D01*
X180606071Y-63055952D01*
X180560357Y-63103571D01*
X180514642Y-63198809D01*
X161908928Y-64277380D02*
X162000357Y-64277380D01*
X162091785Y-64325000D01*
X162137500Y-64372619D01*
X162183214Y-64467857D01*
X162228928Y-64658333D01*
X162228928Y-64896428D01*
X162183214Y-65086904D01*
X162137500Y-65182142D01*
X162091785Y-65229761D01*
X162000357Y-65277380D01*
X161908928Y-65277380D01*
X161817500Y-65229761D01*
X161771785Y-65182142D01*
X161726071Y-65086904D01*
X161680357Y-64896428D01*
X161680357Y-64658333D01*
X161726071Y-64467857D01*
X161771785Y-64372619D01*
X161817500Y-64325000D01*
X161908928Y-64277380D01*
X163143214Y-65277380D02*
X162594642Y-65277380D01*
X162868928Y-65277380D02*
X162868928Y-64277380D01*
X162777500Y-64420238D01*
X162686071Y-64515476D01*
X162594642Y-64563095D01*
X164468928Y-64277380D02*
X164560357Y-64277380D01*
X164651785Y-64325000D01*
X164697500Y-64372619D01*
X164743214Y-64467857D01*
X164788928Y-64658333D01*
X164788928Y-64896428D01*
X164743214Y-65086904D01*
X164697500Y-65182142D01*
X164651785Y-65229761D01*
X164560357Y-65277380D01*
X164468928Y-65277380D01*
X164377500Y-65229761D01*
X164331785Y-65182142D01*
X164286071Y-65086904D01*
X164240357Y-64896428D01*
X164240357Y-64658333D01*
X164286071Y-64467857D01*
X164331785Y-64372619D01*
X164377500Y-64325000D01*
X164468928Y-64277380D01*
X165108928Y-64277380D02*
X165703214Y-64277380D01*
X165383214Y-64658333D01*
X165520357Y-64658333D01*
X165611785Y-64705952D01*
X165657500Y-64753571D01*
X165703214Y-64848809D01*
X165703214Y-65086904D01*
X165657500Y-65182142D01*
X165611785Y-65229761D01*
X165520357Y-65277380D01*
X165246071Y-65277380D01*
X165154642Y-65229761D01*
X165108928Y-65182142D01*
X167028928Y-64277380D02*
X167120357Y-64277380D01*
X167211785Y-64325000D01*
X167257500Y-64372619D01*
X167303214Y-64467857D01*
X167348928Y-64658333D01*
X167348928Y-64896428D01*
X167303214Y-65086904D01*
X167257500Y-65182142D01*
X167211785Y-65229761D01*
X167120357Y-65277380D01*
X167028928Y-65277380D01*
X166937500Y-65229761D01*
X166891785Y-65182142D01*
X166846071Y-65086904D01*
X166800357Y-64896428D01*
X166800357Y-64658333D01*
X166846071Y-64467857D01*
X166891785Y-64372619D01*
X166937500Y-64325000D01*
X167028928Y-64277380D01*
X168217500Y-64277380D02*
X167760357Y-64277380D01*
X167714642Y-64753571D01*
X167760357Y-64705952D01*
X167851785Y-64658333D01*
X168080357Y-64658333D01*
X168171785Y-64705952D01*
X168217500Y-64753571D01*
X168263214Y-64848809D01*
X168263214Y-65086904D01*
X168217500Y-65182142D01*
X168171785Y-65229761D01*
X168080357Y-65277380D01*
X167851785Y-65277380D01*
X167760357Y-65229761D01*
X167714642Y-65182142D01*
X169588928Y-64277380D02*
X169680357Y-64277380D01*
X169771785Y-64325000D01*
X169817500Y-64372619D01*
X169863214Y-64467857D01*
X169908928Y-64658333D01*
X169908928Y-64896428D01*
X169863214Y-65086904D01*
X169817500Y-65182142D01*
X169771785Y-65229761D01*
X169680357Y-65277380D01*
X169588928Y-65277380D01*
X169497500Y-65229761D01*
X169451785Y-65182142D01*
X169406071Y-65086904D01*
X169360357Y-64896428D01*
X169360357Y-64658333D01*
X169406071Y-64467857D01*
X169451785Y-64372619D01*
X169497500Y-64325000D01*
X169588928Y-64277380D01*
X170228928Y-64277380D02*
X170868928Y-64277380D01*
X170457500Y-65277380D01*
X172148928Y-64277380D02*
X172240357Y-64277380D01*
X172331785Y-64325000D01*
X172377500Y-64372619D01*
X172423214Y-64467857D01*
X172468928Y-64658333D01*
X172468928Y-64896428D01*
X172423214Y-65086904D01*
X172377500Y-65182142D01*
X172331785Y-65229761D01*
X172240357Y-65277380D01*
X172148928Y-65277380D01*
X172057500Y-65229761D01*
X172011785Y-65182142D01*
X171966071Y-65086904D01*
X171920357Y-64896428D01*
X171920357Y-64658333D01*
X171966071Y-64467857D01*
X172011785Y-64372619D01*
X172057500Y-64325000D01*
X172148928Y-64277380D01*
X172926071Y-65277380D02*
X173108928Y-65277380D01*
X173200357Y-65229761D01*
X173246071Y-65182142D01*
X173337500Y-65039285D01*
X173383214Y-64848809D01*
X173383214Y-64467857D01*
X173337500Y-64372619D01*
X173291785Y-64325000D01*
X173200357Y-64277380D01*
X173017500Y-64277380D01*
X172926071Y-64325000D01*
X172880357Y-64372619D01*
X172834642Y-64467857D01*
X172834642Y-64705952D01*
X172880357Y-64801190D01*
X172926071Y-64848809D01*
X173017500Y-64896428D01*
X173200357Y-64896428D01*
X173291785Y-64848809D01*
X173337500Y-64801190D01*
X173383214Y-64705952D01*
X175028928Y-65277380D02*
X174480357Y-65277380D01*
X174754642Y-65277380D02*
X174754642Y-64277380D01*
X174663214Y-64420238D01*
X174571785Y-64515476D01*
X174480357Y-64563095D01*
X175943214Y-65277380D02*
X175394642Y-65277380D01*
X175668928Y-65277380D02*
X175668928Y-64277380D01*
X175577500Y-64420238D01*
X175486071Y-64515476D01*
X175394642Y-64563095D01*
X177588928Y-65277380D02*
X177040357Y-65277380D01*
X177314642Y-65277380D02*
X177314642Y-64277380D01*
X177223214Y-64420238D01*
X177131785Y-64515476D01*
X177040357Y-64563095D01*
X177908928Y-64277380D02*
X178503214Y-64277380D01*
X178183214Y-64658333D01*
X178320357Y-64658333D01*
X178411785Y-64705952D01*
X178457500Y-64753571D01*
X178503214Y-64848809D01*
X178503214Y-65086904D01*
X178457500Y-65182142D01*
X178411785Y-65229761D01*
X178320357Y-65277380D01*
X178046071Y-65277380D01*
X177954642Y-65229761D01*
X177908928Y-65182142D01*
X180148928Y-65277380D02*
X179600357Y-65277380D01*
X179874642Y-65277380D02*
X179874642Y-64277380D01*
X179783214Y-64420238D01*
X179691785Y-64515476D01*
X179600357Y-64563095D01*
X181017500Y-64277380D02*
X180560357Y-64277380D01*
X180514642Y-64753571D01*
X180560357Y-64705952D01*
X180651785Y-64658333D01*
X180880357Y-64658333D01*
X180971785Y-64705952D01*
X181017500Y-64753571D01*
X181063214Y-64848809D01*
X181063214Y-65086904D01*
X181017500Y-65182142D01*
X180971785Y-65229761D01*
X180880357Y-65277380D01*
X180651785Y-65277380D01*
X180560357Y-65229761D01*
X180514642Y-65182142D01*
X188708928Y-62627380D02*
X188800357Y-62627380D01*
X188891785Y-62675000D01*
X188937500Y-62722619D01*
X188983214Y-62817857D01*
X189028928Y-63008333D01*
X189028928Y-63246428D01*
X188983214Y-63436904D01*
X188937500Y-63532142D01*
X188891785Y-63579761D01*
X188800357Y-63627380D01*
X188708928Y-63627380D01*
X188617500Y-63579761D01*
X188571785Y-63532142D01*
X188526071Y-63436904D01*
X188480357Y-63246428D01*
X188480357Y-63008333D01*
X188526071Y-62817857D01*
X188571785Y-62722619D01*
X188617500Y-62675000D01*
X188708928Y-62627380D01*
X189394642Y-62722619D02*
X189440357Y-62675000D01*
X189531785Y-62627380D01*
X189760357Y-62627380D01*
X189851785Y-62675000D01*
X189897500Y-62722619D01*
X189943214Y-62817857D01*
X189943214Y-62913095D01*
X189897500Y-63055952D01*
X189348928Y-63627380D01*
X189943214Y-63627380D01*
X191268928Y-62627380D02*
X191360357Y-62627380D01*
X191451785Y-62675000D01*
X191497500Y-62722619D01*
X191543214Y-62817857D01*
X191588928Y-63008333D01*
X191588928Y-63246428D01*
X191543214Y-63436904D01*
X191497500Y-63532142D01*
X191451785Y-63579761D01*
X191360357Y-63627380D01*
X191268928Y-63627380D01*
X191177500Y-63579761D01*
X191131785Y-63532142D01*
X191086071Y-63436904D01*
X191040357Y-63246428D01*
X191040357Y-63008333D01*
X191086071Y-62817857D01*
X191131785Y-62722619D01*
X191177500Y-62675000D01*
X191268928Y-62627380D01*
X192411785Y-62960714D02*
X192411785Y-63627380D01*
X192183214Y-62579761D02*
X191954642Y-63294047D01*
X192548928Y-63294047D01*
X193828928Y-62627380D02*
X193920357Y-62627380D01*
X194011785Y-62675000D01*
X194057500Y-62722619D01*
X194103214Y-62817857D01*
X194148928Y-63008333D01*
X194148928Y-63246428D01*
X194103214Y-63436904D01*
X194057500Y-63532142D01*
X194011785Y-63579761D01*
X193920357Y-63627380D01*
X193828928Y-63627380D01*
X193737500Y-63579761D01*
X193691785Y-63532142D01*
X193646071Y-63436904D01*
X193600357Y-63246428D01*
X193600357Y-63008333D01*
X193646071Y-62817857D01*
X193691785Y-62722619D01*
X193737500Y-62675000D01*
X193828928Y-62627380D01*
X194971785Y-62627380D02*
X194788928Y-62627380D01*
X194697500Y-62675000D01*
X194651785Y-62722619D01*
X194560357Y-62865476D01*
X194514642Y-63055952D01*
X194514642Y-63436904D01*
X194560357Y-63532142D01*
X194606071Y-63579761D01*
X194697500Y-63627380D01*
X194880357Y-63627380D01*
X194971785Y-63579761D01*
X195017500Y-63532142D01*
X195063214Y-63436904D01*
X195063214Y-63198809D01*
X195017500Y-63103571D01*
X194971785Y-63055952D01*
X194880357Y-63008333D01*
X194697500Y-63008333D01*
X194606071Y-63055952D01*
X194560357Y-63103571D01*
X194514642Y-63198809D01*
X196388928Y-62627380D02*
X196480357Y-62627380D01*
X196571785Y-62675000D01*
X196617500Y-62722619D01*
X196663214Y-62817857D01*
X196708928Y-63008333D01*
X196708928Y-63246428D01*
X196663214Y-63436904D01*
X196617500Y-63532142D01*
X196571785Y-63579761D01*
X196480357Y-63627380D01*
X196388928Y-63627380D01*
X196297500Y-63579761D01*
X196251785Y-63532142D01*
X196206071Y-63436904D01*
X196160357Y-63246428D01*
X196160357Y-63008333D01*
X196206071Y-62817857D01*
X196251785Y-62722619D01*
X196297500Y-62675000D01*
X196388928Y-62627380D01*
X197257500Y-63055952D02*
X197166071Y-63008333D01*
X197120357Y-62960714D01*
X197074642Y-62865476D01*
X197074642Y-62817857D01*
X197120357Y-62722619D01*
X197166071Y-62675000D01*
X197257500Y-62627380D01*
X197440357Y-62627380D01*
X197531785Y-62675000D01*
X197577500Y-62722619D01*
X197623214Y-62817857D01*
X197623214Y-62865476D01*
X197577500Y-62960714D01*
X197531785Y-63008333D01*
X197440357Y-63055952D01*
X197257500Y-63055952D01*
X197166071Y-63103571D01*
X197120357Y-63151190D01*
X197074642Y-63246428D01*
X197074642Y-63436904D01*
X197120357Y-63532142D01*
X197166071Y-63579761D01*
X197257500Y-63627380D01*
X197440357Y-63627380D01*
X197531785Y-63579761D01*
X197577500Y-63532142D01*
X197623214Y-63436904D01*
X197623214Y-63246428D01*
X197577500Y-63151190D01*
X197531785Y-63103571D01*
X197440357Y-63055952D01*
X199268928Y-63627380D02*
X198720357Y-63627380D01*
X198994642Y-63627380D02*
X198994642Y-62627380D01*
X198903214Y-62770238D01*
X198811785Y-62865476D01*
X198720357Y-62913095D01*
X199863214Y-62627380D02*
X199954642Y-62627380D01*
X200046071Y-62675000D01*
X200091785Y-62722619D01*
X200137500Y-62817857D01*
X200183214Y-63008333D01*
X200183214Y-63246428D01*
X200137500Y-63436904D01*
X200091785Y-63532142D01*
X200046071Y-63579761D01*
X199954642Y-63627380D01*
X199863214Y-63627380D01*
X199771785Y-63579761D01*
X199726071Y-63532142D01*
X199680357Y-63436904D01*
X199634642Y-63246428D01*
X199634642Y-63008333D01*
X199680357Y-62817857D01*
X199726071Y-62722619D01*
X199771785Y-62675000D01*
X199863214Y-62627380D01*
X201828928Y-63627380D02*
X201280357Y-63627380D01*
X201554642Y-63627380D02*
X201554642Y-62627380D01*
X201463214Y-62770238D01*
X201371785Y-62865476D01*
X201280357Y-62913095D01*
X202194642Y-62722619D02*
X202240357Y-62675000D01*
X202331785Y-62627380D01*
X202560357Y-62627380D01*
X202651785Y-62675000D01*
X202697500Y-62722619D01*
X202743214Y-62817857D01*
X202743214Y-62913095D01*
X202697500Y-63055952D01*
X202148928Y-63627380D01*
X202743214Y-63627380D01*
X204388928Y-63627380D02*
X203840357Y-63627380D01*
X204114642Y-63627380D02*
X204114642Y-62627380D01*
X204023214Y-62770238D01*
X203931785Y-62865476D01*
X203840357Y-62913095D01*
X205211785Y-62960714D02*
X205211785Y-63627380D01*
X204983214Y-62579761D02*
X204754642Y-63294047D01*
X205348928Y-63294047D01*
X206948928Y-63627380D02*
X206400357Y-63627380D01*
X206674642Y-63627380D02*
X206674642Y-62627380D01*
X206583214Y-62770238D01*
X206491785Y-62865476D01*
X206400357Y-62913095D01*
X207771785Y-62627380D02*
X207588928Y-62627380D01*
X207497500Y-62675000D01*
X207451785Y-62722619D01*
X207360357Y-62865476D01*
X207314642Y-63055952D01*
X207314642Y-63436904D01*
X207360357Y-63532142D01*
X207406071Y-63579761D01*
X207497500Y-63627380D01*
X207680357Y-63627380D01*
X207771785Y-63579761D01*
X207817500Y-63532142D01*
X207863214Y-63436904D01*
X207863214Y-63198809D01*
X207817500Y-63103571D01*
X207771785Y-63055952D01*
X207680357Y-63008333D01*
X207497500Y-63008333D01*
X207406071Y-63055952D01*
X207360357Y-63103571D01*
X207314642Y-63198809D01*
X188708928Y-64277380D02*
X188800357Y-64277380D01*
X188891785Y-64325000D01*
X188937500Y-64372619D01*
X188983214Y-64467857D01*
X189028928Y-64658333D01*
X189028928Y-64896428D01*
X188983214Y-65086904D01*
X188937500Y-65182142D01*
X188891785Y-65229761D01*
X188800357Y-65277380D01*
X188708928Y-65277380D01*
X188617500Y-65229761D01*
X188571785Y-65182142D01*
X188526071Y-65086904D01*
X188480357Y-64896428D01*
X188480357Y-64658333D01*
X188526071Y-64467857D01*
X188571785Y-64372619D01*
X188617500Y-64325000D01*
X188708928Y-64277380D01*
X189943214Y-65277380D02*
X189394642Y-65277380D01*
X189668928Y-65277380D02*
X189668928Y-64277380D01*
X189577500Y-64420238D01*
X189486071Y-64515476D01*
X189394642Y-64563095D01*
X191268928Y-64277380D02*
X191360357Y-64277380D01*
X191451785Y-64325000D01*
X191497500Y-64372619D01*
X191543214Y-64467857D01*
X191588928Y-64658333D01*
X191588928Y-64896428D01*
X191543214Y-65086904D01*
X191497500Y-65182142D01*
X191451785Y-65229761D01*
X191360357Y-65277380D01*
X191268928Y-65277380D01*
X191177500Y-65229761D01*
X191131785Y-65182142D01*
X191086071Y-65086904D01*
X191040357Y-64896428D01*
X191040357Y-64658333D01*
X191086071Y-64467857D01*
X191131785Y-64372619D01*
X191177500Y-64325000D01*
X191268928Y-64277380D01*
X191908928Y-64277380D02*
X192503214Y-64277380D01*
X192183214Y-64658333D01*
X192320357Y-64658333D01*
X192411785Y-64705952D01*
X192457500Y-64753571D01*
X192503214Y-64848809D01*
X192503214Y-65086904D01*
X192457500Y-65182142D01*
X192411785Y-65229761D01*
X192320357Y-65277380D01*
X192046071Y-65277380D01*
X191954642Y-65229761D01*
X191908928Y-65182142D01*
X193828928Y-64277380D02*
X193920357Y-64277380D01*
X194011785Y-64325000D01*
X194057500Y-64372619D01*
X194103214Y-64467857D01*
X194148928Y-64658333D01*
X194148928Y-64896428D01*
X194103214Y-65086904D01*
X194057500Y-65182142D01*
X194011785Y-65229761D01*
X193920357Y-65277380D01*
X193828928Y-65277380D01*
X193737500Y-65229761D01*
X193691785Y-65182142D01*
X193646071Y-65086904D01*
X193600357Y-64896428D01*
X193600357Y-64658333D01*
X193646071Y-64467857D01*
X193691785Y-64372619D01*
X193737500Y-64325000D01*
X193828928Y-64277380D01*
X195017500Y-64277380D02*
X194560357Y-64277380D01*
X194514642Y-64753571D01*
X194560357Y-64705952D01*
X194651785Y-64658333D01*
X194880357Y-64658333D01*
X194971785Y-64705952D01*
X195017500Y-64753571D01*
X195063214Y-64848809D01*
X195063214Y-65086904D01*
X195017500Y-65182142D01*
X194971785Y-65229761D01*
X194880357Y-65277380D01*
X194651785Y-65277380D01*
X194560357Y-65229761D01*
X194514642Y-65182142D01*
X196388928Y-64277380D02*
X196480357Y-64277380D01*
X196571785Y-64325000D01*
X196617500Y-64372619D01*
X196663214Y-64467857D01*
X196708928Y-64658333D01*
X196708928Y-64896428D01*
X196663214Y-65086904D01*
X196617500Y-65182142D01*
X196571785Y-65229761D01*
X196480357Y-65277380D01*
X196388928Y-65277380D01*
X196297500Y-65229761D01*
X196251785Y-65182142D01*
X196206071Y-65086904D01*
X196160357Y-64896428D01*
X196160357Y-64658333D01*
X196206071Y-64467857D01*
X196251785Y-64372619D01*
X196297500Y-64325000D01*
X196388928Y-64277380D01*
X197028928Y-64277380D02*
X197668928Y-64277380D01*
X197257500Y-65277380D01*
X198948928Y-64277380D02*
X199040357Y-64277380D01*
X199131785Y-64325000D01*
X199177500Y-64372619D01*
X199223214Y-64467857D01*
X199268928Y-64658333D01*
X199268928Y-64896428D01*
X199223214Y-65086904D01*
X199177500Y-65182142D01*
X199131785Y-65229761D01*
X199040357Y-65277380D01*
X198948928Y-65277380D01*
X198857500Y-65229761D01*
X198811785Y-65182142D01*
X198766071Y-65086904D01*
X198720357Y-64896428D01*
X198720357Y-64658333D01*
X198766071Y-64467857D01*
X198811785Y-64372619D01*
X198857500Y-64325000D01*
X198948928Y-64277380D01*
X199726071Y-65277380D02*
X199908928Y-65277380D01*
X200000357Y-65229761D01*
X200046071Y-65182142D01*
X200137500Y-65039285D01*
X200183214Y-64848809D01*
X200183214Y-64467857D01*
X200137500Y-64372619D01*
X200091785Y-64325000D01*
X200000357Y-64277380D01*
X199817500Y-64277380D01*
X199726071Y-64325000D01*
X199680357Y-64372619D01*
X199634642Y-64467857D01*
X199634642Y-64705952D01*
X199680357Y-64801190D01*
X199726071Y-64848809D01*
X199817500Y-64896428D01*
X200000357Y-64896428D01*
X200091785Y-64848809D01*
X200137500Y-64801190D01*
X200183214Y-64705952D01*
X201828928Y-65277380D02*
X201280357Y-65277380D01*
X201554642Y-65277380D02*
X201554642Y-64277380D01*
X201463214Y-64420238D01*
X201371785Y-64515476D01*
X201280357Y-64563095D01*
X202743214Y-65277380D02*
X202194642Y-65277380D01*
X202468928Y-65277380D02*
X202468928Y-64277380D01*
X202377500Y-64420238D01*
X202286071Y-64515476D01*
X202194642Y-64563095D01*
X204388928Y-65277380D02*
X203840357Y-65277380D01*
X204114642Y-65277380D02*
X204114642Y-64277380D01*
X204023214Y-64420238D01*
X203931785Y-64515476D01*
X203840357Y-64563095D01*
X204708928Y-64277380D02*
X205303214Y-64277380D01*
X204983214Y-64658333D01*
X205120357Y-64658333D01*
X205211785Y-64705952D01*
X205257500Y-64753571D01*
X205303214Y-64848809D01*
X205303214Y-65086904D01*
X205257500Y-65182142D01*
X205211785Y-65229761D01*
X205120357Y-65277380D01*
X204846071Y-65277380D01*
X204754642Y-65229761D01*
X204708928Y-65182142D01*
X206948928Y-65277380D02*
X206400357Y-65277380D01*
X206674642Y-65277380D02*
X206674642Y-64277380D01*
X206583214Y-64420238D01*
X206491785Y-64515476D01*
X206400357Y-64563095D01*
X207817500Y-64277380D02*
X207360357Y-64277380D01*
X207314642Y-64753571D01*
X207360357Y-64705952D01*
X207451785Y-64658333D01*
X207680357Y-64658333D01*
X207771785Y-64705952D01*
X207817500Y-64753571D01*
X207863214Y-64848809D01*
X207863214Y-65086904D01*
X207817500Y-65182142D01*
X207771785Y-65229761D01*
X207680357Y-65277380D01*
X207451785Y-65277380D01*
X207360357Y-65229761D01*
X207314642Y-65182142D01*
X188508928Y-139427380D02*
X188600357Y-139427380D01*
X188691785Y-139475000D01*
X188737500Y-139522619D01*
X188783214Y-139617857D01*
X188828928Y-139808333D01*
X188828928Y-140046428D01*
X188783214Y-140236904D01*
X188737500Y-140332142D01*
X188691785Y-140379761D01*
X188600357Y-140427380D01*
X188508928Y-140427380D01*
X188417500Y-140379761D01*
X188371785Y-140332142D01*
X188326071Y-140236904D01*
X188280357Y-140046428D01*
X188280357Y-139808333D01*
X188326071Y-139617857D01*
X188371785Y-139522619D01*
X188417500Y-139475000D01*
X188508928Y-139427380D01*
X189194642Y-139522619D02*
X189240357Y-139475000D01*
X189331785Y-139427380D01*
X189560357Y-139427380D01*
X189651785Y-139475000D01*
X189697500Y-139522619D01*
X189743214Y-139617857D01*
X189743214Y-139713095D01*
X189697500Y-139855952D01*
X189148928Y-140427380D01*
X189743214Y-140427380D01*
X191068928Y-139427380D02*
X191160357Y-139427380D01*
X191251785Y-139475000D01*
X191297500Y-139522619D01*
X191343214Y-139617857D01*
X191388928Y-139808333D01*
X191388928Y-140046428D01*
X191343214Y-140236904D01*
X191297500Y-140332142D01*
X191251785Y-140379761D01*
X191160357Y-140427380D01*
X191068928Y-140427380D01*
X190977500Y-140379761D01*
X190931785Y-140332142D01*
X190886071Y-140236904D01*
X190840357Y-140046428D01*
X190840357Y-139808333D01*
X190886071Y-139617857D01*
X190931785Y-139522619D01*
X190977500Y-139475000D01*
X191068928Y-139427380D01*
X192211785Y-139760714D02*
X192211785Y-140427380D01*
X191983214Y-139379761D02*
X191754642Y-140094047D01*
X192348928Y-140094047D01*
X193628928Y-139427380D02*
X193720357Y-139427380D01*
X193811785Y-139475000D01*
X193857500Y-139522619D01*
X193903214Y-139617857D01*
X193948928Y-139808333D01*
X193948928Y-140046428D01*
X193903214Y-140236904D01*
X193857500Y-140332142D01*
X193811785Y-140379761D01*
X193720357Y-140427380D01*
X193628928Y-140427380D01*
X193537500Y-140379761D01*
X193491785Y-140332142D01*
X193446071Y-140236904D01*
X193400357Y-140046428D01*
X193400357Y-139808333D01*
X193446071Y-139617857D01*
X193491785Y-139522619D01*
X193537500Y-139475000D01*
X193628928Y-139427380D01*
X194771785Y-139427380D02*
X194588928Y-139427380D01*
X194497500Y-139475000D01*
X194451785Y-139522619D01*
X194360357Y-139665476D01*
X194314642Y-139855952D01*
X194314642Y-140236904D01*
X194360357Y-140332142D01*
X194406071Y-140379761D01*
X194497500Y-140427380D01*
X194680357Y-140427380D01*
X194771785Y-140379761D01*
X194817500Y-140332142D01*
X194863214Y-140236904D01*
X194863214Y-139998809D01*
X194817500Y-139903571D01*
X194771785Y-139855952D01*
X194680357Y-139808333D01*
X194497500Y-139808333D01*
X194406071Y-139855952D01*
X194360357Y-139903571D01*
X194314642Y-139998809D01*
X196188928Y-139427380D02*
X196280357Y-139427380D01*
X196371785Y-139475000D01*
X196417500Y-139522619D01*
X196463214Y-139617857D01*
X196508928Y-139808333D01*
X196508928Y-140046428D01*
X196463214Y-140236904D01*
X196417500Y-140332142D01*
X196371785Y-140379761D01*
X196280357Y-140427380D01*
X196188928Y-140427380D01*
X196097500Y-140379761D01*
X196051785Y-140332142D01*
X196006071Y-140236904D01*
X195960357Y-140046428D01*
X195960357Y-139808333D01*
X196006071Y-139617857D01*
X196051785Y-139522619D01*
X196097500Y-139475000D01*
X196188928Y-139427380D01*
X197057500Y-139855952D02*
X196966071Y-139808333D01*
X196920357Y-139760714D01*
X196874642Y-139665476D01*
X196874642Y-139617857D01*
X196920357Y-139522619D01*
X196966071Y-139475000D01*
X197057500Y-139427380D01*
X197240357Y-139427380D01*
X197331785Y-139475000D01*
X197377500Y-139522619D01*
X197423214Y-139617857D01*
X197423214Y-139665476D01*
X197377500Y-139760714D01*
X197331785Y-139808333D01*
X197240357Y-139855952D01*
X197057500Y-139855952D01*
X196966071Y-139903571D01*
X196920357Y-139951190D01*
X196874642Y-140046428D01*
X196874642Y-140236904D01*
X196920357Y-140332142D01*
X196966071Y-140379761D01*
X197057500Y-140427380D01*
X197240357Y-140427380D01*
X197331785Y-140379761D01*
X197377500Y-140332142D01*
X197423214Y-140236904D01*
X197423214Y-140046428D01*
X197377500Y-139951190D01*
X197331785Y-139903571D01*
X197240357Y-139855952D01*
X199068928Y-140427380D02*
X198520357Y-140427380D01*
X198794642Y-140427380D02*
X198794642Y-139427380D01*
X198703214Y-139570238D01*
X198611785Y-139665476D01*
X198520357Y-139713095D01*
X199663214Y-139427380D02*
X199754642Y-139427380D01*
X199846071Y-139475000D01*
X199891785Y-139522619D01*
X199937500Y-139617857D01*
X199983214Y-139808333D01*
X199983214Y-140046428D01*
X199937500Y-140236904D01*
X199891785Y-140332142D01*
X199846071Y-140379761D01*
X199754642Y-140427380D01*
X199663214Y-140427380D01*
X199571785Y-140379761D01*
X199526071Y-140332142D01*
X199480357Y-140236904D01*
X199434642Y-140046428D01*
X199434642Y-139808333D01*
X199480357Y-139617857D01*
X199526071Y-139522619D01*
X199571785Y-139475000D01*
X199663214Y-139427380D01*
X201628928Y-140427380D02*
X201080357Y-140427380D01*
X201354642Y-140427380D02*
X201354642Y-139427380D01*
X201263214Y-139570238D01*
X201171785Y-139665476D01*
X201080357Y-139713095D01*
X201994642Y-139522619D02*
X202040357Y-139475000D01*
X202131785Y-139427380D01*
X202360357Y-139427380D01*
X202451785Y-139475000D01*
X202497500Y-139522619D01*
X202543214Y-139617857D01*
X202543214Y-139713095D01*
X202497500Y-139855952D01*
X201948928Y-140427380D01*
X202543214Y-140427380D01*
X204188928Y-140427380D02*
X203640357Y-140427380D01*
X203914642Y-140427380D02*
X203914642Y-139427380D01*
X203823214Y-139570238D01*
X203731785Y-139665476D01*
X203640357Y-139713095D01*
X205011785Y-139760714D02*
X205011785Y-140427380D01*
X204783214Y-139379761D02*
X204554642Y-140094047D01*
X205148928Y-140094047D01*
X206748928Y-140427380D02*
X206200357Y-140427380D01*
X206474642Y-140427380D02*
X206474642Y-139427380D01*
X206383214Y-139570238D01*
X206291785Y-139665476D01*
X206200357Y-139713095D01*
X207571785Y-139427380D02*
X207388928Y-139427380D01*
X207297500Y-139475000D01*
X207251785Y-139522619D01*
X207160357Y-139665476D01*
X207114642Y-139855952D01*
X207114642Y-140236904D01*
X207160357Y-140332142D01*
X207206071Y-140379761D01*
X207297500Y-140427380D01*
X207480357Y-140427380D01*
X207571785Y-140379761D01*
X207617500Y-140332142D01*
X207663214Y-140236904D01*
X207663214Y-139998809D01*
X207617500Y-139903571D01*
X207571785Y-139855952D01*
X207480357Y-139808333D01*
X207297500Y-139808333D01*
X207206071Y-139855952D01*
X207160357Y-139903571D01*
X207114642Y-139998809D01*
X188508928Y-141077380D02*
X188600357Y-141077380D01*
X188691785Y-141125000D01*
X188737500Y-141172619D01*
X188783214Y-141267857D01*
X188828928Y-141458333D01*
X188828928Y-141696428D01*
X188783214Y-141886904D01*
X188737500Y-141982142D01*
X188691785Y-142029761D01*
X188600357Y-142077380D01*
X188508928Y-142077380D01*
X188417500Y-142029761D01*
X188371785Y-141982142D01*
X188326071Y-141886904D01*
X188280357Y-141696428D01*
X188280357Y-141458333D01*
X188326071Y-141267857D01*
X188371785Y-141172619D01*
X188417500Y-141125000D01*
X188508928Y-141077380D01*
X189743214Y-142077380D02*
X189194642Y-142077380D01*
X189468928Y-142077380D02*
X189468928Y-141077380D01*
X189377500Y-141220238D01*
X189286071Y-141315476D01*
X189194642Y-141363095D01*
X191068928Y-141077380D02*
X191160357Y-141077380D01*
X191251785Y-141125000D01*
X191297500Y-141172619D01*
X191343214Y-141267857D01*
X191388928Y-141458333D01*
X191388928Y-141696428D01*
X191343214Y-141886904D01*
X191297500Y-141982142D01*
X191251785Y-142029761D01*
X191160357Y-142077380D01*
X191068928Y-142077380D01*
X190977500Y-142029761D01*
X190931785Y-141982142D01*
X190886071Y-141886904D01*
X190840357Y-141696428D01*
X190840357Y-141458333D01*
X190886071Y-141267857D01*
X190931785Y-141172619D01*
X190977500Y-141125000D01*
X191068928Y-141077380D01*
X191708928Y-141077380D02*
X192303214Y-141077380D01*
X191983214Y-141458333D01*
X192120357Y-141458333D01*
X192211785Y-141505952D01*
X192257500Y-141553571D01*
X192303214Y-141648809D01*
X192303214Y-141886904D01*
X192257500Y-141982142D01*
X192211785Y-142029761D01*
X192120357Y-142077380D01*
X191846071Y-142077380D01*
X191754642Y-142029761D01*
X191708928Y-141982142D01*
X193628928Y-141077380D02*
X193720357Y-141077380D01*
X193811785Y-141125000D01*
X193857500Y-141172619D01*
X193903214Y-141267857D01*
X193948928Y-141458333D01*
X193948928Y-141696428D01*
X193903214Y-141886904D01*
X193857500Y-141982142D01*
X193811785Y-142029761D01*
X193720357Y-142077380D01*
X193628928Y-142077380D01*
X193537500Y-142029761D01*
X193491785Y-141982142D01*
X193446071Y-141886904D01*
X193400357Y-141696428D01*
X193400357Y-141458333D01*
X193446071Y-141267857D01*
X193491785Y-141172619D01*
X193537500Y-141125000D01*
X193628928Y-141077380D01*
X194817500Y-141077380D02*
X194360357Y-141077380D01*
X194314642Y-141553571D01*
X194360357Y-141505952D01*
X194451785Y-141458333D01*
X194680357Y-141458333D01*
X194771785Y-141505952D01*
X194817500Y-141553571D01*
X194863214Y-141648809D01*
X194863214Y-141886904D01*
X194817500Y-141982142D01*
X194771785Y-142029761D01*
X194680357Y-142077380D01*
X194451785Y-142077380D01*
X194360357Y-142029761D01*
X194314642Y-141982142D01*
X196188928Y-141077380D02*
X196280357Y-141077380D01*
X196371785Y-141125000D01*
X196417500Y-141172619D01*
X196463214Y-141267857D01*
X196508928Y-141458333D01*
X196508928Y-141696428D01*
X196463214Y-141886904D01*
X196417500Y-141982142D01*
X196371785Y-142029761D01*
X196280357Y-142077380D01*
X196188928Y-142077380D01*
X196097500Y-142029761D01*
X196051785Y-141982142D01*
X196006071Y-141886904D01*
X195960357Y-141696428D01*
X195960357Y-141458333D01*
X196006071Y-141267857D01*
X196051785Y-141172619D01*
X196097500Y-141125000D01*
X196188928Y-141077380D01*
X196828928Y-141077380D02*
X197468928Y-141077380D01*
X197057500Y-142077380D01*
X198748928Y-141077380D02*
X198840357Y-141077380D01*
X198931785Y-141125000D01*
X198977500Y-141172619D01*
X199023214Y-141267857D01*
X199068928Y-141458333D01*
X199068928Y-141696428D01*
X199023214Y-141886904D01*
X198977500Y-141982142D01*
X198931785Y-142029761D01*
X198840357Y-142077380D01*
X198748928Y-142077380D01*
X198657500Y-142029761D01*
X198611785Y-141982142D01*
X198566071Y-141886904D01*
X198520357Y-141696428D01*
X198520357Y-141458333D01*
X198566071Y-141267857D01*
X198611785Y-141172619D01*
X198657500Y-141125000D01*
X198748928Y-141077380D01*
X199526071Y-142077380D02*
X199708928Y-142077380D01*
X199800357Y-142029761D01*
X199846071Y-141982142D01*
X199937500Y-141839285D01*
X199983214Y-141648809D01*
X199983214Y-141267857D01*
X199937500Y-141172619D01*
X199891785Y-141125000D01*
X199800357Y-141077380D01*
X199617500Y-141077380D01*
X199526071Y-141125000D01*
X199480357Y-141172619D01*
X199434642Y-141267857D01*
X199434642Y-141505952D01*
X199480357Y-141601190D01*
X199526071Y-141648809D01*
X199617500Y-141696428D01*
X199800357Y-141696428D01*
X199891785Y-141648809D01*
X199937500Y-141601190D01*
X199983214Y-141505952D01*
X201628928Y-142077380D02*
X201080357Y-142077380D01*
X201354642Y-142077380D02*
X201354642Y-141077380D01*
X201263214Y-141220238D01*
X201171785Y-141315476D01*
X201080357Y-141363095D01*
X202543214Y-142077380D02*
X201994642Y-142077380D01*
X202268928Y-142077380D02*
X202268928Y-141077380D01*
X202177500Y-141220238D01*
X202086071Y-141315476D01*
X201994642Y-141363095D01*
X204188928Y-142077380D02*
X203640357Y-142077380D01*
X203914642Y-142077380D02*
X203914642Y-141077380D01*
X203823214Y-141220238D01*
X203731785Y-141315476D01*
X203640357Y-141363095D01*
X204508928Y-141077380D02*
X205103214Y-141077380D01*
X204783214Y-141458333D01*
X204920357Y-141458333D01*
X205011785Y-141505952D01*
X205057500Y-141553571D01*
X205103214Y-141648809D01*
X205103214Y-141886904D01*
X205057500Y-141982142D01*
X205011785Y-142029761D01*
X204920357Y-142077380D01*
X204646071Y-142077380D01*
X204554642Y-142029761D01*
X204508928Y-141982142D01*
X206748928Y-142077380D02*
X206200357Y-142077380D01*
X206474642Y-142077380D02*
X206474642Y-141077380D01*
X206383214Y-141220238D01*
X206291785Y-141315476D01*
X206200357Y-141363095D01*
X207617500Y-141077380D02*
X207160357Y-141077380D01*
X207114642Y-141553571D01*
X207160357Y-141505952D01*
X207251785Y-141458333D01*
X207480357Y-141458333D01*
X207571785Y-141505952D01*
X207617500Y-141553571D01*
X207663214Y-141648809D01*
X207663214Y-141886904D01*
X207617500Y-141982142D01*
X207571785Y-142029761D01*
X207480357Y-142077380D01*
X207251785Y-142077380D01*
X207160357Y-142029761D01*
X207114642Y-141982142D01*
X161908928Y-139427380D02*
X162000357Y-139427380D01*
X162091785Y-139475000D01*
X162137500Y-139522619D01*
X162183214Y-139617857D01*
X162228928Y-139808333D01*
X162228928Y-140046428D01*
X162183214Y-140236904D01*
X162137500Y-140332142D01*
X162091785Y-140379761D01*
X162000357Y-140427380D01*
X161908928Y-140427380D01*
X161817500Y-140379761D01*
X161771785Y-140332142D01*
X161726071Y-140236904D01*
X161680357Y-140046428D01*
X161680357Y-139808333D01*
X161726071Y-139617857D01*
X161771785Y-139522619D01*
X161817500Y-139475000D01*
X161908928Y-139427380D01*
X162594642Y-139522619D02*
X162640357Y-139475000D01*
X162731785Y-139427380D01*
X162960357Y-139427380D01*
X163051785Y-139475000D01*
X163097500Y-139522619D01*
X163143214Y-139617857D01*
X163143214Y-139713095D01*
X163097500Y-139855952D01*
X162548928Y-140427380D01*
X163143214Y-140427380D01*
X164468928Y-139427380D02*
X164560357Y-139427380D01*
X164651785Y-139475000D01*
X164697500Y-139522619D01*
X164743214Y-139617857D01*
X164788928Y-139808333D01*
X164788928Y-140046428D01*
X164743214Y-140236904D01*
X164697500Y-140332142D01*
X164651785Y-140379761D01*
X164560357Y-140427380D01*
X164468928Y-140427380D01*
X164377500Y-140379761D01*
X164331785Y-140332142D01*
X164286071Y-140236904D01*
X164240357Y-140046428D01*
X164240357Y-139808333D01*
X164286071Y-139617857D01*
X164331785Y-139522619D01*
X164377500Y-139475000D01*
X164468928Y-139427380D01*
X165611785Y-139760714D02*
X165611785Y-140427380D01*
X165383214Y-139379761D02*
X165154642Y-140094047D01*
X165748928Y-140094047D01*
X167028928Y-139427380D02*
X167120357Y-139427380D01*
X167211785Y-139475000D01*
X167257500Y-139522619D01*
X167303214Y-139617857D01*
X167348928Y-139808333D01*
X167348928Y-140046428D01*
X167303214Y-140236904D01*
X167257500Y-140332142D01*
X167211785Y-140379761D01*
X167120357Y-140427380D01*
X167028928Y-140427380D01*
X166937500Y-140379761D01*
X166891785Y-140332142D01*
X166846071Y-140236904D01*
X166800357Y-140046428D01*
X166800357Y-139808333D01*
X166846071Y-139617857D01*
X166891785Y-139522619D01*
X166937500Y-139475000D01*
X167028928Y-139427380D01*
X168171785Y-139427380D02*
X167988928Y-139427380D01*
X167897500Y-139475000D01*
X167851785Y-139522619D01*
X167760357Y-139665476D01*
X167714642Y-139855952D01*
X167714642Y-140236904D01*
X167760357Y-140332142D01*
X167806071Y-140379761D01*
X167897500Y-140427380D01*
X168080357Y-140427380D01*
X168171785Y-140379761D01*
X168217500Y-140332142D01*
X168263214Y-140236904D01*
X168263214Y-139998809D01*
X168217500Y-139903571D01*
X168171785Y-139855952D01*
X168080357Y-139808333D01*
X167897500Y-139808333D01*
X167806071Y-139855952D01*
X167760357Y-139903571D01*
X167714642Y-139998809D01*
X169588928Y-139427380D02*
X169680357Y-139427380D01*
X169771785Y-139475000D01*
X169817500Y-139522619D01*
X169863214Y-139617857D01*
X169908928Y-139808333D01*
X169908928Y-140046428D01*
X169863214Y-140236904D01*
X169817500Y-140332142D01*
X169771785Y-140379761D01*
X169680357Y-140427380D01*
X169588928Y-140427380D01*
X169497500Y-140379761D01*
X169451785Y-140332142D01*
X169406071Y-140236904D01*
X169360357Y-140046428D01*
X169360357Y-139808333D01*
X169406071Y-139617857D01*
X169451785Y-139522619D01*
X169497500Y-139475000D01*
X169588928Y-139427380D01*
X170457500Y-139855952D02*
X170366071Y-139808333D01*
X170320357Y-139760714D01*
X170274642Y-139665476D01*
X170274642Y-139617857D01*
X170320357Y-139522619D01*
X170366071Y-139475000D01*
X170457500Y-139427380D01*
X170640357Y-139427380D01*
X170731785Y-139475000D01*
X170777500Y-139522619D01*
X170823214Y-139617857D01*
X170823214Y-139665476D01*
X170777500Y-139760714D01*
X170731785Y-139808333D01*
X170640357Y-139855952D01*
X170457500Y-139855952D01*
X170366071Y-139903571D01*
X170320357Y-139951190D01*
X170274642Y-140046428D01*
X170274642Y-140236904D01*
X170320357Y-140332142D01*
X170366071Y-140379761D01*
X170457500Y-140427380D01*
X170640357Y-140427380D01*
X170731785Y-140379761D01*
X170777500Y-140332142D01*
X170823214Y-140236904D01*
X170823214Y-140046428D01*
X170777500Y-139951190D01*
X170731785Y-139903571D01*
X170640357Y-139855952D01*
X172468928Y-140427380D02*
X171920357Y-140427380D01*
X172194642Y-140427380D02*
X172194642Y-139427380D01*
X172103214Y-139570238D01*
X172011785Y-139665476D01*
X171920357Y-139713095D01*
X173063214Y-139427380D02*
X173154642Y-139427380D01*
X173246071Y-139475000D01*
X173291785Y-139522619D01*
X173337500Y-139617857D01*
X173383214Y-139808333D01*
X173383214Y-140046428D01*
X173337500Y-140236904D01*
X173291785Y-140332142D01*
X173246071Y-140379761D01*
X173154642Y-140427380D01*
X173063214Y-140427380D01*
X172971785Y-140379761D01*
X172926071Y-140332142D01*
X172880357Y-140236904D01*
X172834642Y-140046428D01*
X172834642Y-139808333D01*
X172880357Y-139617857D01*
X172926071Y-139522619D01*
X172971785Y-139475000D01*
X173063214Y-139427380D01*
X175028928Y-140427380D02*
X174480357Y-140427380D01*
X174754642Y-140427380D02*
X174754642Y-139427380D01*
X174663214Y-139570238D01*
X174571785Y-139665476D01*
X174480357Y-139713095D01*
X175394642Y-139522619D02*
X175440357Y-139475000D01*
X175531785Y-139427380D01*
X175760357Y-139427380D01*
X175851785Y-139475000D01*
X175897500Y-139522619D01*
X175943214Y-139617857D01*
X175943214Y-139713095D01*
X175897500Y-139855952D01*
X175348928Y-140427380D01*
X175943214Y-140427380D01*
X177588928Y-140427380D02*
X177040357Y-140427380D01*
X177314642Y-140427380D02*
X177314642Y-139427380D01*
X177223214Y-139570238D01*
X177131785Y-139665476D01*
X177040357Y-139713095D01*
X178411785Y-139760714D02*
X178411785Y-140427380D01*
X178183214Y-139379761D02*
X177954642Y-140094047D01*
X178548928Y-140094047D01*
X180148928Y-140427380D02*
X179600357Y-140427380D01*
X179874642Y-140427380D02*
X179874642Y-139427380D01*
X179783214Y-139570238D01*
X179691785Y-139665476D01*
X179600357Y-139713095D01*
X180971785Y-139427380D02*
X180788928Y-139427380D01*
X180697500Y-139475000D01*
X180651785Y-139522619D01*
X180560357Y-139665476D01*
X180514642Y-139855952D01*
X180514642Y-140236904D01*
X180560357Y-140332142D01*
X180606071Y-140379761D01*
X180697500Y-140427380D01*
X180880357Y-140427380D01*
X180971785Y-140379761D01*
X181017500Y-140332142D01*
X181063214Y-140236904D01*
X181063214Y-139998809D01*
X181017500Y-139903571D01*
X180971785Y-139855952D01*
X180880357Y-139808333D01*
X180697500Y-139808333D01*
X180606071Y-139855952D01*
X180560357Y-139903571D01*
X180514642Y-139998809D01*
X161908928Y-141077380D02*
X162000357Y-141077380D01*
X162091785Y-141125000D01*
X162137500Y-141172619D01*
X162183214Y-141267857D01*
X162228928Y-141458333D01*
X162228928Y-141696428D01*
X162183214Y-141886904D01*
X162137500Y-141982142D01*
X162091785Y-142029761D01*
X162000357Y-142077380D01*
X161908928Y-142077380D01*
X161817500Y-142029761D01*
X161771785Y-141982142D01*
X161726071Y-141886904D01*
X161680357Y-141696428D01*
X161680357Y-141458333D01*
X161726071Y-141267857D01*
X161771785Y-141172619D01*
X161817500Y-141125000D01*
X161908928Y-141077380D01*
X163143214Y-142077380D02*
X162594642Y-142077380D01*
X162868928Y-142077380D02*
X162868928Y-141077380D01*
X162777500Y-141220238D01*
X162686071Y-141315476D01*
X162594642Y-141363095D01*
X164468928Y-141077380D02*
X164560357Y-141077380D01*
X164651785Y-141125000D01*
X164697500Y-141172619D01*
X164743214Y-141267857D01*
X164788928Y-141458333D01*
X164788928Y-141696428D01*
X164743214Y-141886904D01*
X164697500Y-141982142D01*
X164651785Y-142029761D01*
X164560357Y-142077380D01*
X164468928Y-142077380D01*
X164377500Y-142029761D01*
X164331785Y-141982142D01*
X164286071Y-141886904D01*
X164240357Y-141696428D01*
X164240357Y-141458333D01*
X164286071Y-141267857D01*
X164331785Y-141172619D01*
X164377500Y-141125000D01*
X164468928Y-141077380D01*
X165108928Y-141077380D02*
X165703214Y-141077380D01*
X165383214Y-141458333D01*
X165520357Y-141458333D01*
X165611785Y-141505952D01*
X165657500Y-141553571D01*
X165703214Y-141648809D01*
X165703214Y-141886904D01*
X165657500Y-141982142D01*
X165611785Y-142029761D01*
X165520357Y-142077380D01*
X165246071Y-142077380D01*
X165154642Y-142029761D01*
X165108928Y-141982142D01*
X167028928Y-141077380D02*
X167120357Y-141077380D01*
X167211785Y-141125000D01*
X167257500Y-141172619D01*
X167303214Y-141267857D01*
X167348928Y-141458333D01*
X167348928Y-141696428D01*
X167303214Y-141886904D01*
X167257500Y-141982142D01*
X167211785Y-142029761D01*
X167120357Y-142077380D01*
X167028928Y-142077380D01*
X166937500Y-142029761D01*
X166891785Y-141982142D01*
X166846071Y-141886904D01*
X166800357Y-141696428D01*
X166800357Y-141458333D01*
X166846071Y-141267857D01*
X166891785Y-141172619D01*
X166937500Y-141125000D01*
X167028928Y-141077380D01*
X168217500Y-141077380D02*
X167760357Y-141077380D01*
X167714642Y-141553571D01*
X167760357Y-141505952D01*
X167851785Y-141458333D01*
X168080357Y-141458333D01*
X168171785Y-141505952D01*
X168217500Y-141553571D01*
X168263214Y-141648809D01*
X168263214Y-141886904D01*
X168217500Y-141982142D01*
X168171785Y-142029761D01*
X168080357Y-142077380D01*
X167851785Y-142077380D01*
X167760357Y-142029761D01*
X167714642Y-141982142D01*
X169588928Y-141077380D02*
X169680357Y-141077380D01*
X169771785Y-141125000D01*
X169817500Y-141172619D01*
X169863214Y-141267857D01*
X169908928Y-141458333D01*
X169908928Y-141696428D01*
X169863214Y-141886904D01*
X169817500Y-141982142D01*
X169771785Y-142029761D01*
X169680357Y-142077380D01*
X169588928Y-142077380D01*
X169497500Y-142029761D01*
X169451785Y-141982142D01*
X169406071Y-141886904D01*
X169360357Y-141696428D01*
X169360357Y-141458333D01*
X169406071Y-141267857D01*
X169451785Y-141172619D01*
X169497500Y-141125000D01*
X169588928Y-141077380D01*
X170228928Y-141077380D02*
X170868928Y-141077380D01*
X170457500Y-142077380D01*
X172148928Y-141077380D02*
X172240357Y-141077380D01*
X172331785Y-141125000D01*
X172377500Y-141172619D01*
X172423214Y-141267857D01*
X172468928Y-141458333D01*
X172468928Y-141696428D01*
X172423214Y-141886904D01*
X172377500Y-141982142D01*
X172331785Y-142029761D01*
X172240357Y-142077380D01*
X172148928Y-142077380D01*
X172057500Y-142029761D01*
X172011785Y-141982142D01*
X171966071Y-141886904D01*
X171920357Y-141696428D01*
X171920357Y-141458333D01*
X171966071Y-141267857D01*
X172011785Y-141172619D01*
X172057500Y-141125000D01*
X172148928Y-141077380D01*
X172926071Y-142077380D02*
X173108928Y-142077380D01*
X173200357Y-142029761D01*
X173246071Y-141982142D01*
X173337500Y-141839285D01*
X173383214Y-141648809D01*
X173383214Y-141267857D01*
X173337500Y-141172619D01*
X173291785Y-141125000D01*
X173200357Y-141077380D01*
X173017500Y-141077380D01*
X172926071Y-141125000D01*
X172880357Y-141172619D01*
X172834642Y-141267857D01*
X172834642Y-141505952D01*
X172880357Y-141601190D01*
X172926071Y-141648809D01*
X173017500Y-141696428D01*
X173200357Y-141696428D01*
X173291785Y-141648809D01*
X173337500Y-141601190D01*
X173383214Y-141505952D01*
X175028928Y-142077380D02*
X174480357Y-142077380D01*
X174754642Y-142077380D02*
X174754642Y-141077380D01*
X174663214Y-141220238D01*
X174571785Y-141315476D01*
X174480357Y-141363095D01*
X175943214Y-142077380D02*
X175394642Y-142077380D01*
X175668928Y-142077380D02*
X175668928Y-141077380D01*
X175577500Y-141220238D01*
X175486071Y-141315476D01*
X175394642Y-141363095D01*
X177588928Y-142077380D02*
X177040357Y-142077380D01*
X177314642Y-142077380D02*
X177314642Y-141077380D01*
X177223214Y-141220238D01*
X177131785Y-141315476D01*
X177040357Y-141363095D01*
X177908928Y-141077380D02*
X178503214Y-141077380D01*
X178183214Y-141458333D01*
X178320357Y-141458333D01*
X178411785Y-141505952D01*
X178457500Y-141553571D01*
X178503214Y-141648809D01*
X178503214Y-141886904D01*
X178457500Y-141982142D01*
X178411785Y-142029761D01*
X178320357Y-142077380D01*
X178046071Y-142077380D01*
X177954642Y-142029761D01*
X177908928Y-141982142D01*
X180148928Y-142077380D02*
X179600357Y-142077380D01*
X179874642Y-142077380D02*
X179874642Y-141077380D01*
X179783214Y-141220238D01*
X179691785Y-141315476D01*
X179600357Y-141363095D01*
X181017500Y-141077380D02*
X180560357Y-141077380D01*
X180514642Y-141553571D01*
X180560357Y-141505952D01*
X180651785Y-141458333D01*
X180880357Y-141458333D01*
X180971785Y-141505952D01*
X181017500Y-141553571D01*
X181063214Y-141648809D01*
X181063214Y-141886904D01*
X181017500Y-141982142D01*
X180971785Y-142029761D01*
X180880357Y-142077380D01*
X180651785Y-142077380D01*
X180560357Y-142029761D01*
X180514642Y-141982142D01*
X135308928Y-139427380D02*
X135400357Y-139427380D01*
X135491785Y-139475000D01*
X135537500Y-139522619D01*
X135583214Y-139617857D01*
X135628928Y-139808333D01*
X135628928Y-140046428D01*
X135583214Y-140236904D01*
X135537500Y-140332142D01*
X135491785Y-140379761D01*
X135400357Y-140427380D01*
X135308928Y-140427380D01*
X135217500Y-140379761D01*
X135171785Y-140332142D01*
X135126071Y-140236904D01*
X135080357Y-140046428D01*
X135080357Y-139808333D01*
X135126071Y-139617857D01*
X135171785Y-139522619D01*
X135217500Y-139475000D01*
X135308928Y-139427380D01*
X135994642Y-139522619D02*
X136040357Y-139475000D01*
X136131785Y-139427380D01*
X136360357Y-139427380D01*
X136451785Y-139475000D01*
X136497500Y-139522619D01*
X136543214Y-139617857D01*
X136543214Y-139713095D01*
X136497500Y-139855952D01*
X135948928Y-140427380D01*
X136543214Y-140427380D01*
X137868928Y-139427380D02*
X137960357Y-139427380D01*
X138051785Y-139475000D01*
X138097500Y-139522619D01*
X138143214Y-139617857D01*
X138188928Y-139808333D01*
X138188928Y-140046428D01*
X138143214Y-140236904D01*
X138097500Y-140332142D01*
X138051785Y-140379761D01*
X137960357Y-140427380D01*
X137868928Y-140427380D01*
X137777500Y-140379761D01*
X137731785Y-140332142D01*
X137686071Y-140236904D01*
X137640357Y-140046428D01*
X137640357Y-139808333D01*
X137686071Y-139617857D01*
X137731785Y-139522619D01*
X137777500Y-139475000D01*
X137868928Y-139427380D01*
X139011785Y-139760714D02*
X139011785Y-140427380D01*
X138783214Y-139379761D02*
X138554642Y-140094047D01*
X139148928Y-140094047D01*
X140428928Y-139427380D02*
X140520357Y-139427380D01*
X140611785Y-139475000D01*
X140657500Y-139522619D01*
X140703214Y-139617857D01*
X140748928Y-139808333D01*
X140748928Y-140046428D01*
X140703214Y-140236904D01*
X140657500Y-140332142D01*
X140611785Y-140379761D01*
X140520357Y-140427380D01*
X140428928Y-140427380D01*
X140337500Y-140379761D01*
X140291785Y-140332142D01*
X140246071Y-140236904D01*
X140200357Y-140046428D01*
X140200357Y-139808333D01*
X140246071Y-139617857D01*
X140291785Y-139522619D01*
X140337500Y-139475000D01*
X140428928Y-139427380D01*
X141571785Y-139427380D02*
X141388928Y-139427380D01*
X141297500Y-139475000D01*
X141251785Y-139522619D01*
X141160357Y-139665476D01*
X141114642Y-139855952D01*
X141114642Y-140236904D01*
X141160357Y-140332142D01*
X141206071Y-140379761D01*
X141297500Y-140427380D01*
X141480357Y-140427380D01*
X141571785Y-140379761D01*
X141617500Y-140332142D01*
X141663214Y-140236904D01*
X141663214Y-139998809D01*
X141617500Y-139903571D01*
X141571785Y-139855952D01*
X141480357Y-139808333D01*
X141297500Y-139808333D01*
X141206071Y-139855952D01*
X141160357Y-139903571D01*
X141114642Y-139998809D01*
X142988928Y-139427380D02*
X143080357Y-139427380D01*
X143171785Y-139475000D01*
X143217500Y-139522619D01*
X143263214Y-139617857D01*
X143308928Y-139808333D01*
X143308928Y-140046428D01*
X143263214Y-140236904D01*
X143217500Y-140332142D01*
X143171785Y-140379761D01*
X143080357Y-140427380D01*
X142988928Y-140427380D01*
X142897500Y-140379761D01*
X142851785Y-140332142D01*
X142806071Y-140236904D01*
X142760357Y-140046428D01*
X142760357Y-139808333D01*
X142806071Y-139617857D01*
X142851785Y-139522619D01*
X142897500Y-139475000D01*
X142988928Y-139427380D01*
X143857500Y-139855952D02*
X143766071Y-139808333D01*
X143720357Y-139760714D01*
X143674642Y-139665476D01*
X143674642Y-139617857D01*
X143720357Y-139522619D01*
X143766071Y-139475000D01*
X143857500Y-139427380D01*
X144040357Y-139427380D01*
X144131785Y-139475000D01*
X144177500Y-139522619D01*
X144223214Y-139617857D01*
X144223214Y-139665476D01*
X144177500Y-139760714D01*
X144131785Y-139808333D01*
X144040357Y-139855952D01*
X143857500Y-139855952D01*
X143766071Y-139903571D01*
X143720357Y-139951190D01*
X143674642Y-140046428D01*
X143674642Y-140236904D01*
X143720357Y-140332142D01*
X143766071Y-140379761D01*
X143857500Y-140427380D01*
X144040357Y-140427380D01*
X144131785Y-140379761D01*
X144177500Y-140332142D01*
X144223214Y-140236904D01*
X144223214Y-140046428D01*
X144177500Y-139951190D01*
X144131785Y-139903571D01*
X144040357Y-139855952D01*
X145868928Y-140427380D02*
X145320357Y-140427380D01*
X145594642Y-140427380D02*
X145594642Y-139427380D01*
X145503214Y-139570238D01*
X145411785Y-139665476D01*
X145320357Y-139713095D01*
X146463214Y-139427380D02*
X146554642Y-139427380D01*
X146646071Y-139475000D01*
X146691785Y-139522619D01*
X146737500Y-139617857D01*
X146783214Y-139808333D01*
X146783214Y-140046428D01*
X146737500Y-140236904D01*
X146691785Y-140332142D01*
X146646071Y-140379761D01*
X146554642Y-140427380D01*
X146463214Y-140427380D01*
X146371785Y-140379761D01*
X146326071Y-140332142D01*
X146280357Y-140236904D01*
X146234642Y-140046428D01*
X146234642Y-139808333D01*
X146280357Y-139617857D01*
X146326071Y-139522619D01*
X146371785Y-139475000D01*
X146463214Y-139427380D01*
X148428928Y-140427380D02*
X147880357Y-140427380D01*
X148154642Y-140427380D02*
X148154642Y-139427380D01*
X148063214Y-139570238D01*
X147971785Y-139665476D01*
X147880357Y-139713095D01*
X148794642Y-139522619D02*
X148840357Y-139475000D01*
X148931785Y-139427380D01*
X149160357Y-139427380D01*
X149251785Y-139475000D01*
X149297500Y-139522619D01*
X149343214Y-139617857D01*
X149343214Y-139713095D01*
X149297500Y-139855952D01*
X148748928Y-140427380D01*
X149343214Y-140427380D01*
X150988928Y-140427380D02*
X150440357Y-140427380D01*
X150714642Y-140427380D02*
X150714642Y-139427380D01*
X150623214Y-139570238D01*
X150531785Y-139665476D01*
X150440357Y-139713095D01*
X151811785Y-139760714D02*
X151811785Y-140427380D01*
X151583214Y-139379761D02*
X151354642Y-140094047D01*
X151948928Y-140094047D01*
X153548928Y-140427380D02*
X153000357Y-140427380D01*
X153274642Y-140427380D02*
X153274642Y-139427380D01*
X153183214Y-139570238D01*
X153091785Y-139665476D01*
X153000357Y-139713095D01*
X154371785Y-139427380D02*
X154188928Y-139427380D01*
X154097500Y-139475000D01*
X154051785Y-139522619D01*
X153960357Y-139665476D01*
X153914642Y-139855952D01*
X153914642Y-140236904D01*
X153960357Y-140332142D01*
X154006071Y-140379761D01*
X154097500Y-140427380D01*
X154280357Y-140427380D01*
X154371785Y-140379761D01*
X154417500Y-140332142D01*
X154463214Y-140236904D01*
X154463214Y-139998809D01*
X154417500Y-139903571D01*
X154371785Y-139855952D01*
X154280357Y-139808333D01*
X154097500Y-139808333D01*
X154006071Y-139855952D01*
X153960357Y-139903571D01*
X153914642Y-139998809D01*
X135308928Y-141077380D02*
X135400357Y-141077380D01*
X135491785Y-141125000D01*
X135537500Y-141172619D01*
X135583214Y-141267857D01*
X135628928Y-141458333D01*
X135628928Y-141696428D01*
X135583214Y-141886904D01*
X135537500Y-141982142D01*
X135491785Y-142029761D01*
X135400357Y-142077380D01*
X135308928Y-142077380D01*
X135217500Y-142029761D01*
X135171785Y-141982142D01*
X135126071Y-141886904D01*
X135080357Y-141696428D01*
X135080357Y-141458333D01*
X135126071Y-141267857D01*
X135171785Y-141172619D01*
X135217500Y-141125000D01*
X135308928Y-141077380D01*
X136543214Y-142077380D02*
X135994642Y-142077380D01*
X136268928Y-142077380D02*
X136268928Y-141077380D01*
X136177500Y-141220238D01*
X136086071Y-141315476D01*
X135994642Y-141363095D01*
X137868928Y-141077380D02*
X137960357Y-141077380D01*
X138051785Y-141125000D01*
X138097500Y-141172619D01*
X138143214Y-141267857D01*
X138188928Y-141458333D01*
X138188928Y-141696428D01*
X138143214Y-141886904D01*
X138097500Y-141982142D01*
X138051785Y-142029761D01*
X137960357Y-142077380D01*
X137868928Y-142077380D01*
X137777500Y-142029761D01*
X137731785Y-141982142D01*
X137686071Y-141886904D01*
X137640357Y-141696428D01*
X137640357Y-141458333D01*
X137686071Y-141267857D01*
X137731785Y-141172619D01*
X137777500Y-141125000D01*
X137868928Y-141077380D01*
X138508928Y-141077380D02*
X139103214Y-141077380D01*
X138783214Y-141458333D01*
X138920357Y-141458333D01*
X139011785Y-141505952D01*
X139057500Y-141553571D01*
X139103214Y-141648809D01*
X139103214Y-141886904D01*
X139057500Y-141982142D01*
X139011785Y-142029761D01*
X138920357Y-142077380D01*
X138646071Y-142077380D01*
X138554642Y-142029761D01*
X138508928Y-141982142D01*
X140428928Y-141077380D02*
X140520357Y-141077380D01*
X140611785Y-141125000D01*
X140657500Y-141172619D01*
X140703214Y-141267857D01*
X140748928Y-141458333D01*
X140748928Y-141696428D01*
X140703214Y-141886904D01*
X140657500Y-141982142D01*
X140611785Y-142029761D01*
X140520357Y-142077380D01*
X140428928Y-142077380D01*
X140337500Y-142029761D01*
X140291785Y-141982142D01*
X140246071Y-141886904D01*
X140200357Y-141696428D01*
X140200357Y-141458333D01*
X140246071Y-141267857D01*
X140291785Y-141172619D01*
X140337500Y-141125000D01*
X140428928Y-141077380D01*
X141617500Y-141077380D02*
X141160357Y-141077380D01*
X141114642Y-141553571D01*
X141160357Y-141505952D01*
X141251785Y-141458333D01*
X141480357Y-141458333D01*
X141571785Y-141505952D01*
X141617500Y-141553571D01*
X141663214Y-141648809D01*
X141663214Y-141886904D01*
X141617500Y-141982142D01*
X141571785Y-142029761D01*
X141480357Y-142077380D01*
X141251785Y-142077380D01*
X141160357Y-142029761D01*
X141114642Y-141982142D01*
X142988928Y-141077380D02*
X143080357Y-141077380D01*
X143171785Y-141125000D01*
X143217500Y-141172619D01*
X143263214Y-141267857D01*
X143308928Y-141458333D01*
X143308928Y-141696428D01*
X143263214Y-141886904D01*
X143217500Y-141982142D01*
X143171785Y-142029761D01*
X143080357Y-142077380D01*
X142988928Y-142077380D01*
X142897500Y-142029761D01*
X142851785Y-141982142D01*
X142806071Y-141886904D01*
X142760357Y-141696428D01*
X142760357Y-141458333D01*
X142806071Y-141267857D01*
X142851785Y-141172619D01*
X142897500Y-141125000D01*
X142988928Y-141077380D01*
X143628928Y-141077380D02*
X144268928Y-141077380D01*
X143857500Y-142077380D01*
X145548928Y-141077380D02*
X145640357Y-141077380D01*
X145731785Y-141125000D01*
X145777500Y-141172619D01*
X145823214Y-141267857D01*
X145868928Y-141458333D01*
X145868928Y-141696428D01*
X145823214Y-141886904D01*
X145777500Y-141982142D01*
X145731785Y-142029761D01*
X145640357Y-142077380D01*
X145548928Y-142077380D01*
X145457500Y-142029761D01*
X145411785Y-141982142D01*
X145366071Y-141886904D01*
X145320357Y-141696428D01*
X145320357Y-141458333D01*
X145366071Y-141267857D01*
X145411785Y-141172619D01*
X145457500Y-141125000D01*
X145548928Y-141077380D01*
X146326071Y-142077380D02*
X146508928Y-142077380D01*
X146600357Y-142029761D01*
X146646071Y-141982142D01*
X146737500Y-141839285D01*
X146783214Y-141648809D01*
X146783214Y-141267857D01*
X146737500Y-141172619D01*
X146691785Y-141125000D01*
X146600357Y-141077380D01*
X146417500Y-141077380D01*
X146326071Y-141125000D01*
X146280357Y-141172619D01*
X146234642Y-141267857D01*
X146234642Y-141505952D01*
X146280357Y-141601190D01*
X146326071Y-141648809D01*
X146417500Y-141696428D01*
X146600357Y-141696428D01*
X146691785Y-141648809D01*
X146737500Y-141601190D01*
X146783214Y-141505952D01*
X148428928Y-142077380D02*
X147880357Y-142077380D01*
X148154642Y-142077380D02*
X148154642Y-141077380D01*
X148063214Y-141220238D01*
X147971785Y-141315476D01*
X147880357Y-141363095D01*
X149343214Y-142077380D02*
X148794642Y-142077380D01*
X149068928Y-142077380D02*
X149068928Y-141077380D01*
X148977500Y-141220238D01*
X148886071Y-141315476D01*
X148794642Y-141363095D01*
X150988928Y-142077380D02*
X150440357Y-142077380D01*
X150714642Y-142077380D02*
X150714642Y-141077380D01*
X150623214Y-141220238D01*
X150531785Y-141315476D01*
X150440357Y-141363095D01*
X151308928Y-141077380D02*
X151903214Y-141077380D01*
X151583214Y-141458333D01*
X151720357Y-141458333D01*
X151811785Y-141505952D01*
X151857500Y-141553571D01*
X151903214Y-141648809D01*
X151903214Y-141886904D01*
X151857500Y-141982142D01*
X151811785Y-142029761D01*
X151720357Y-142077380D01*
X151446071Y-142077380D01*
X151354642Y-142029761D01*
X151308928Y-141982142D01*
X153548928Y-142077380D02*
X153000357Y-142077380D01*
X153274642Y-142077380D02*
X153274642Y-141077380D01*
X153183214Y-141220238D01*
X153091785Y-141315476D01*
X153000357Y-141363095D01*
X154417500Y-141077380D02*
X153960357Y-141077380D01*
X153914642Y-141553571D01*
X153960357Y-141505952D01*
X154051785Y-141458333D01*
X154280357Y-141458333D01*
X154371785Y-141505952D01*
X154417500Y-141553571D01*
X154463214Y-141648809D01*
X154463214Y-141886904D01*
X154417500Y-141982142D01*
X154371785Y-142029761D01*
X154280357Y-142077380D01*
X154051785Y-142077380D01*
X153960357Y-142029761D01*
X153914642Y-141982142D01*
X108708928Y-139427380D02*
X108800357Y-139427380D01*
X108891785Y-139475000D01*
X108937500Y-139522619D01*
X108983214Y-139617857D01*
X109028928Y-139808333D01*
X109028928Y-140046428D01*
X108983214Y-140236904D01*
X108937500Y-140332142D01*
X108891785Y-140379761D01*
X108800357Y-140427380D01*
X108708928Y-140427380D01*
X108617500Y-140379761D01*
X108571785Y-140332142D01*
X108526071Y-140236904D01*
X108480357Y-140046428D01*
X108480357Y-139808333D01*
X108526071Y-139617857D01*
X108571785Y-139522619D01*
X108617500Y-139475000D01*
X108708928Y-139427380D01*
X109394642Y-139522619D02*
X109440357Y-139475000D01*
X109531785Y-139427380D01*
X109760357Y-139427380D01*
X109851785Y-139475000D01*
X109897500Y-139522619D01*
X109943214Y-139617857D01*
X109943214Y-139713095D01*
X109897500Y-139855952D01*
X109348928Y-140427380D01*
X109943214Y-140427380D01*
X111268928Y-139427380D02*
X111360357Y-139427380D01*
X111451785Y-139475000D01*
X111497500Y-139522619D01*
X111543214Y-139617857D01*
X111588928Y-139808333D01*
X111588928Y-140046428D01*
X111543214Y-140236904D01*
X111497500Y-140332142D01*
X111451785Y-140379761D01*
X111360357Y-140427380D01*
X111268928Y-140427380D01*
X111177500Y-140379761D01*
X111131785Y-140332142D01*
X111086071Y-140236904D01*
X111040357Y-140046428D01*
X111040357Y-139808333D01*
X111086071Y-139617857D01*
X111131785Y-139522619D01*
X111177500Y-139475000D01*
X111268928Y-139427380D01*
X112411785Y-139760714D02*
X112411785Y-140427380D01*
X112183214Y-139379761D02*
X111954642Y-140094047D01*
X112548928Y-140094047D01*
X113828928Y-139427380D02*
X113920357Y-139427380D01*
X114011785Y-139475000D01*
X114057500Y-139522619D01*
X114103214Y-139617857D01*
X114148928Y-139808333D01*
X114148928Y-140046428D01*
X114103214Y-140236904D01*
X114057500Y-140332142D01*
X114011785Y-140379761D01*
X113920357Y-140427380D01*
X113828928Y-140427380D01*
X113737500Y-140379761D01*
X113691785Y-140332142D01*
X113646071Y-140236904D01*
X113600357Y-140046428D01*
X113600357Y-139808333D01*
X113646071Y-139617857D01*
X113691785Y-139522619D01*
X113737500Y-139475000D01*
X113828928Y-139427380D01*
X114971785Y-139427380D02*
X114788928Y-139427380D01*
X114697500Y-139475000D01*
X114651785Y-139522619D01*
X114560357Y-139665476D01*
X114514642Y-139855952D01*
X114514642Y-140236904D01*
X114560357Y-140332142D01*
X114606071Y-140379761D01*
X114697500Y-140427380D01*
X114880357Y-140427380D01*
X114971785Y-140379761D01*
X115017500Y-140332142D01*
X115063214Y-140236904D01*
X115063214Y-139998809D01*
X115017500Y-139903571D01*
X114971785Y-139855952D01*
X114880357Y-139808333D01*
X114697500Y-139808333D01*
X114606071Y-139855952D01*
X114560357Y-139903571D01*
X114514642Y-139998809D01*
X116388928Y-139427380D02*
X116480357Y-139427380D01*
X116571785Y-139475000D01*
X116617500Y-139522619D01*
X116663214Y-139617857D01*
X116708928Y-139808333D01*
X116708928Y-140046428D01*
X116663214Y-140236904D01*
X116617500Y-140332142D01*
X116571785Y-140379761D01*
X116480357Y-140427380D01*
X116388928Y-140427380D01*
X116297500Y-140379761D01*
X116251785Y-140332142D01*
X116206071Y-140236904D01*
X116160357Y-140046428D01*
X116160357Y-139808333D01*
X116206071Y-139617857D01*
X116251785Y-139522619D01*
X116297500Y-139475000D01*
X116388928Y-139427380D01*
X117257500Y-139855952D02*
X117166071Y-139808333D01*
X117120357Y-139760714D01*
X117074642Y-139665476D01*
X117074642Y-139617857D01*
X117120357Y-139522619D01*
X117166071Y-139475000D01*
X117257500Y-139427380D01*
X117440357Y-139427380D01*
X117531785Y-139475000D01*
X117577500Y-139522619D01*
X117623214Y-139617857D01*
X117623214Y-139665476D01*
X117577500Y-139760714D01*
X117531785Y-139808333D01*
X117440357Y-139855952D01*
X117257500Y-139855952D01*
X117166071Y-139903571D01*
X117120357Y-139951190D01*
X117074642Y-140046428D01*
X117074642Y-140236904D01*
X117120357Y-140332142D01*
X117166071Y-140379761D01*
X117257500Y-140427380D01*
X117440357Y-140427380D01*
X117531785Y-140379761D01*
X117577500Y-140332142D01*
X117623214Y-140236904D01*
X117623214Y-140046428D01*
X117577500Y-139951190D01*
X117531785Y-139903571D01*
X117440357Y-139855952D01*
X119268928Y-140427380D02*
X118720357Y-140427380D01*
X118994642Y-140427380D02*
X118994642Y-139427380D01*
X118903214Y-139570238D01*
X118811785Y-139665476D01*
X118720357Y-139713095D01*
X119863214Y-139427380D02*
X119954642Y-139427380D01*
X120046071Y-139475000D01*
X120091785Y-139522619D01*
X120137500Y-139617857D01*
X120183214Y-139808333D01*
X120183214Y-140046428D01*
X120137500Y-140236904D01*
X120091785Y-140332142D01*
X120046071Y-140379761D01*
X119954642Y-140427380D01*
X119863214Y-140427380D01*
X119771785Y-140379761D01*
X119726071Y-140332142D01*
X119680357Y-140236904D01*
X119634642Y-140046428D01*
X119634642Y-139808333D01*
X119680357Y-139617857D01*
X119726071Y-139522619D01*
X119771785Y-139475000D01*
X119863214Y-139427380D01*
X121828928Y-140427380D02*
X121280357Y-140427380D01*
X121554642Y-140427380D02*
X121554642Y-139427380D01*
X121463214Y-139570238D01*
X121371785Y-139665476D01*
X121280357Y-139713095D01*
X122194642Y-139522619D02*
X122240357Y-139475000D01*
X122331785Y-139427380D01*
X122560357Y-139427380D01*
X122651785Y-139475000D01*
X122697500Y-139522619D01*
X122743214Y-139617857D01*
X122743214Y-139713095D01*
X122697500Y-139855952D01*
X122148928Y-140427380D01*
X122743214Y-140427380D01*
X124388928Y-140427380D02*
X123840357Y-140427380D01*
X124114642Y-140427380D02*
X124114642Y-139427380D01*
X124023214Y-139570238D01*
X123931785Y-139665476D01*
X123840357Y-139713095D01*
X125211785Y-139760714D02*
X125211785Y-140427380D01*
X124983214Y-139379761D02*
X124754642Y-140094047D01*
X125348928Y-140094047D01*
X126948928Y-140427380D02*
X126400357Y-140427380D01*
X126674642Y-140427380D02*
X126674642Y-139427380D01*
X126583214Y-139570238D01*
X126491785Y-139665476D01*
X126400357Y-139713095D01*
X127771785Y-139427380D02*
X127588928Y-139427380D01*
X127497500Y-139475000D01*
X127451785Y-139522619D01*
X127360357Y-139665476D01*
X127314642Y-139855952D01*
X127314642Y-140236904D01*
X127360357Y-140332142D01*
X127406071Y-140379761D01*
X127497500Y-140427380D01*
X127680357Y-140427380D01*
X127771785Y-140379761D01*
X127817500Y-140332142D01*
X127863214Y-140236904D01*
X127863214Y-139998809D01*
X127817500Y-139903571D01*
X127771785Y-139855952D01*
X127680357Y-139808333D01*
X127497500Y-139808333D01*
X127406071Y-139855952D01*
X127360357Y-139903571D01*
X127314642Y-139998809D01*
X108708928Y-141077380D02*
X108800357Y-141077380D01*
X108891785Y-141125000D01*
X108937500Y-141172619D01*
X108983214Y-141267857D01*
X109028928Y-141458333D01*
X109028928Y-141696428D01*
X108983214Y-141886904D01*
X108937500Y-141982142D01*
X108891785Y-142029761D01*
X108800357Y-142077380D01*
X108708928Y-142077380D01*
X108617500Y-142029761D01*
X108571785Y-141982142D01*
X108526071Y-141886904D01*
X108480357Y-141696428D01*
X108480357Y-141458333D01*
X108526071Y-141267857D01*
X108571785Y-141172619D01*
X108617500Y-141125000D01*
X108708928Y-141077380D01*
X109943214Y-142077380D02*
X109394642Y-142077380D01*
X109668928Y-142077380D02*
X109668928Y-141077380D01*
X109577500Y-141220238D01*
X109486071Y-141315476D01*
X109394642Y-141363095D01*
X111268928Y-141077380D02*
X111360357Y-141077380D01*
X111451785Y-141125000D01*
X111497500Y-141172619D01*
X111543214Y-141267857D01*
X111588928Y-141458333D01*
X111588928Y-141696428D01*
X111543214Y-141886904D01*
X111497500Y-141982142D01*
X111451785Y-142029761D01*
X111360357Y-142077380D01*
X111268928Y-142077380D01*
X111177500Y-142029761D01*
X111131785Y-141982142D01*
X111086071Y-141886904D01*
X111040357Y-141696428D01*
X111040357Y-141458333D01*
X111086071Y-141267857D01*
X111131785Y-141172619D01*
X111177500Y-141125000D01*
X111268928Y-141077380D01*
X111908928Y-141077380D02*
X112503214Y-141077380D01*
X112183214Y-141458333D01*
X112320357Y-141458333D01*
X112411785Y-141505952D01*
X112457500Y-141553571D01*
X112503214Y-141648809D01*
X112503214Y-141886904D01*
X112457500Y-141982142D01*
X112411785Y-142029761D01*
X112320357Y-142077380D01*
X112046071Y-142077380D01*
X111954642Y-142029761D01*
X111908928Y-141982142D01*
X113828928Y-141077380D02*
X113920357Y-141077380D01*
X114011785Y-141125000D01*
X114057500Y-141172619D01*
X114103214Y-141267857D01*
X114148928Y-141458333D01*
X114148928Y-141696428D01*
X114103214Y-141886904D01*
X114057500Y-141982142D01*
X114011785Y-142029761D01*
X113920357Y-142077380D01*
X113828928Y-142077380D01*
X113737500Y-142029761D01*
X113691785Y-141982142D01*
X113646071Y-141886904D01*
X113600357Y-141696428D01*
X113600357Y-141458333D01*
X113646071Y-141267857D01*
X113691785Y-141172619D01*
X113737500Y-141125000D01*
X113828928Y-141077380D01*
X115017500Y-141077380D02*
X114560357Y-141077380D01*
X114514642Y-141553571D01*
X114560357Y-141505952D01*
X114651785Y-141458333D01*
X114880357Y-141458333D01*
X114971785Y-141505952D01*
X115017500Y-141553571D01*
X115063214Y-141648809D01*
X115063214Y-141886904D01*
X115017500Y-141982142D01*
X114971785Y-142029761D01*
X114880357Y-142077380D01*
X114651785Y-142077380D01*
X114560357Y-142029761D01*
X114514642Y-141982142D01*
X116388928Y-141077380D02*
X116480357Y-141077380D01*
X116571785Y-141125000D01*
X116617500Y-141172619D01*
X116663214Y-141267857D01*
X116708928Y-141458333D01*
X116708928Y-141696428D01*
X116663214Y-141886904D01*
X116617500Y-141982142D01*
X116571785Y-142029761D01*
X116480357Y-142077380D01*
X116388928Y-142077380D01*
X116297500Y-142029761D01*
X116251785Y-141982142D01*
X116206071Y-141886904D01*
X116160357Y-141696428D01*
X116160357Y-141458333D01*
X116206071Y-141267857D01*
X116251785Y-141172619D01*
X116297500Y-141125000D01*
X116388928Y-141077380D01*
X117028928Y-141077380D02*
X117668928Y-141077380D01*
X117257500Y-142077380D01*
X118948928Y-141077380D02*
X119040357Y-141077380D01*
X119131785Y-141125000D01*
X119177500Y-141172619D01*
X119223214Y-141267857D01*
X119268928Y-141458333D01*
X119268928Y-141696428D01*
X119223214Y-141886904D01*
X119177500Y-141982142D01*
X119131785Y-142029761D01*
X119040357Y-142077380D01*
X118948928Y-142077380D01*
X118857500Y-142029761D01*
X118811785Y-141982142D01*
X118766071Y-141886904D01*
X118720357Y-141696428D01*
X118720357Y-141458333D01*
X118766071Y-141267857D01*
X118811785Y-141172619D01*
X118857500Y-141125000D01*
X118948928Y-141077380D01*
X119726071Y-142077380D02*
X119908928Y-142077380D01*
X120000357Y-142029761D01*
X120046071Y-141982142D01*
X120137500Y-141839285D01*
X120183214Y-141648809D01*
X120183214Y-141267857D01*
X120137500Y-141172619D01*
X120091785Y-141125000D01*
X120000357Y-141077380D01*
X119817500Y-141077380D01*
X119726071Y-141125000D01*
X119680357Y-141172619D01*
X119634642Y-141267857D01*
X119634642Y-141505952D01*
X119680357Y-141601190D01*
X119726071Y-141648809D01*
X119817500Y-141696428D01*
X120000357Y-141696428D01*
X120091785Y-141648809D01*
X120137500Y-141601190D01*
X120183214Y-141505952D01*
X121828928Y-142077380D02*
X121280357Y-142077380D01*
X121554642Y-142077380D02*
X121554642Y-141077380D01*
X121463214Y-141220238D01*
X121371785Y-141315476D01*
X121280357Y-141363095D01*
X122743214Y-142077380D02*
X122194642Y-142077380D01*
X122468928Y-142077380D02*
X122468928Y-141077380D01*
X122377500Y-141220238D01*
X122286071Y-141315476D01*
X122194642Y-141363095D01*
X124388928Y-142077380D02*
X123840357Y-142077380D01*
X124114642Y-142077380D02*
X124114642Y-141077380D01*
X124023214Y-141220238D01*
X123931785Y-141315476D01*
X123840357Y-141363095D01*
X124708928Y-141077380D02*
X125303214Y-141077380D01*
X124983214Y-141458333D01*
X125120357Y-141458333D01*
X125211785Y-141505952D01*
X125257500Y-141553571D01*
X125303214Y-141648809D01*
X125303214Y-141886904D01*
X125257500Y-141982142D01*
X125211785Y-142029761D01*
X125120357Y-142077380D01*
X124846071Y-142077380D01*
X124754642Y-142029761D01*
X124708928Y-141982142D01*
X126948928Y-142077380D02*
X126400357Y-142077380D01*
X126674642Y-142077380D02*
X126674642Y-141077380D01*
X126583214Y-141220238D01*
X126491785Y-141315476D01*
X126400357Y-141363095D01*
X127817500Y-141077380D02*
X127360357Y-141077380D01*
X127314642Y-141553571D01*
X127360357Y-141505952D01*
X127451785Y-141458333D01*
X127680357Y-141458333D01*
X127771785Y-141505952D01*
X127817500Y-141553571D01*
X127863214Y-141648809D01*
X127863214Y-141886904D01*
X127817500Y-141982142D01*
X127771785Y-142029761D01*
X127680357Y-142077380D01*
X127451785Y-142077380D01*
X127360357Y-142029761D01*
X127314642Y-141982142D01*
X95890476Y-107128571D02*
X95557142Y-107128571D01*
X95557142Y-107652380D02*
X95557142Y-106652380D01*
X96033333Y-106652380D01*
X96842857Y-107652380D02*
X96842857Y-107128571D01*
X96795238Y-107033333D01*
X96700000Y-106985714D01*
X96509523Y-106985714D01*
X96414285Y-107033333D01*
X96842857Y-107604761D02*
X96747619Y-107652380D01*
X96509523Y-107652380D01*
X96414285Y-107604761D01*
X96366666Y-107509523D01*
X96366666Y-107414285D01*
X96414285Y-107319047D01*
X96509523Y-107271428D01*
X96747619Y-107271428D01*
X96842857Y-107223809D01*
X97747619Y-106985714D02*
X97747619Y-107652380D01*
X97319047Y-106985714D02*
X97319047Y-107509523D01*
X97366666Y-107604761D01*
X97461904Y-107652380D01*
X97604761Y-107652380D01*
X97700000Y-107604761D01*
X97747619Y-107557142D01*
X98366666Y-107652380D02*
X98271428Y-107604761D01*
X98223809Y-107509523D01*
X98223809Y-106652380D01*
X98604761Y-106985714D02*
X98985714Y-106985714D01*
X98747619Y-106652380D02*
X98747619Y-107509523D01*
X98795238Y-107604761D01*
X98890476Y-107652380D01*
X98985714Y-107652380D01*
X95033333Y-102404761D02*
X95176190Y-102452380D01*
X95414285Y-102452380D01*
X95509523Y-102404761D01*
X95557142Y-102357142D01*
X95604761Y-102261904D01*
X95604761Y-102166666D01*
X95557142Y-102071428D01*
X95509523Y-102023809D01*
X95414285Y-101976190D01*
X95223809Y-101928571D01*
X95128571Y-101880952D01*
X95080952Y-101833333D01*
X95033333Y-101738095D01*
X95033333Y-101642857D01*
X95080952Y-101547619D01*
X95128571Y-101500000D01*
X95223809Y-101452380D01*
X95461904Y-101452380D01*
X95604761Y-101500000D01*
X95890476Y-101785714D02*
X96271428Y-101785714D01*
X96033333Y-101452380D02*
X96033333Y-102309523D01*
X96080952Y-102404761D01*
X96176190Y-102452380D01*
X96271428Y-102452380D01*
X97033333Y-102452380D02*
X97033333Y-101928571D01*
X96985714Y-101833333D01*
X96890476Y-101785714D01*
X96700000Y-101785714D01*
X96604761Y-101833333D01*
X97033333Y-102404761D02*
X96938095Y-102452380D01*
X96700000Y-102452380D01*
X96604761Y-102404761D01*
X96557142Y-102309523D01*
X96557142Y-102214285D01*
X96604761Y-102119047D01*
X96700000Y-102071428D01*
X96938095Y-102071428D01*
X97033333Y-102023809D01*
X97366666Y-101785714D02*
X97747619Y-101785714D01*
X97509523Y-101452380D02*
X97509523Y-102309523D01*
X97557142Y-102404761D01*
X97652380Y-102452380D01*
X97747619Y-102452380D01*
X98509523Y-101785714D02*
X98509523Y-102452380D01*
X98080952Y-101785714D02*
X98080952Y-102309523D01*
X98128571Y-102404761D01*
X98223809Y-102452380D01*
X98366666Y-102452380D01*
X98461904Y-102404761D01*
X98509523Y-102357142D01*
X98938095Y-102404761D02*
X99033333Y-102452380D01*
X99223809Y-102452380D01*
X99319047Y-102404761D01*
X99366666Y-102309523D01*
X99366666Y-102261904D01*
X99319047Y-102166666D01*
X99223809Y-102119047D01*
X99080952Y-102119047D01*
X98985714Y-102071428D01*
X98938095Y-101976190D01*
X98938095Y-101928571D01*
X98985714Y-101833333D01*
X99080952Y-101785714D01*
X99223809Y-101785714D01*
X99319047Y-101833333D01*
X93580952Y-97452380D02*
X93580952Y-96452380D01*
X93914285Y-97166666D01*
X94247619Y-96452380D01*
X94247619Y-97452380D01*
X95104761Y-97404761D02*
X95009523Y-97452380D01*
X94819047Y-97452380D01*
X94723809Y-97404761D01*
X94676190Y-97309523D01*
X94676190Y-96928571D01*
X94723809Y-96833333D01*
X94819047Y-96785714D01*
X95009523Y-96785714D01*
X95104761Y-96833333D01*
X95152380Y-96928571D01*
X95152380Y-97023809D01*
X94676190Y-97119047D01*
X95533333Y-97404761D02*
X95628571Y-97452380D01*
X95819047Y-97452380D01*
X95914285Y-97404761D01*
X95961904Y-97309523D01*
X95961904Y-97261904D01*
X95914285Y-97166666D01*
X95819047Y-97119047D01*
X95676190Y-97119047D01*
X95580952Y-97071428D01*
X95533333Y-96976190D01*
X95533333Y-96928571D01*
X95580952Y-96833333D01*
X95676190Y-96785714D01*
X95819047Y-96785714D01*
X95914285Y-96833333D01*
X96342857Y-97404761D02*
X96438095Y-97452380D01*
X96628571Y-97452380D01*
X96723809Y-97404761D01*
X96771428Y-97309523D01*
X96771428Y-97261904D01*
X96723809Y-97166666D01*
X96628571Y-97119047D01*
X96485714Y-97119047D01*
X96390476Y-97071428D01*
X96342857Y-96976190D01*
X96342857Y-96928571D01*
X96390476Y-96833333D01*
X96485714Y-96785714D01*
X96628571Y-96785714D01*
X96723809Y-96833333D01*
X97628571Y-97452380D02*
X97628571Y-96928571D01*
X97580952Y-96833333D01*
X97485714Y-96785714D01*
X97295238Y-96785714D01*
X97200000Y-96833333D01*
X97628571Y-97404761D02*
X97533333Y-97452380D01*
X97295238Y-97452380D01*
X97200000Y-97404761D01*
X97152380Y-97309523D01*
X97152380Y-97214285D01*
X97200000Y-97119047D01*
X97295238Y-97071428D01*
X97533333Y-97071428D01*
X97628571Y-97023809D01*
X98533333Y-96785714D02*
X98533333Y-97595238D01*
X98485714Y-97690476D01*
X98438095Y-97738095D01*
X98342857Y-97785714D01*
X98200000Y-97785714D01*
X98104761Y-97738095D01*
X98533333Y-97404761D02*
X98438095Y-97452380D01*
X98247619Y-97452380D01*
X98152380Y-97404761D01*
X98104761Y-97357142D01*
X98057142Y-97261904D01*
X98057142Y-96976190D01*
X98104761Y-96880952D01*
X98152380Y-96833333D01*
X98247619Y-96785714D01*
X98438095Y-96785714D01*
X98533333Y-96833333D01*
X99009523Y-97452380D02*
X99009523Y-96785714D01*
X99009523Y-96452380D02*
X98961904Y-96500000D01*
X99009523Y-96547619D01*
X99057142Y-96500000D01*
X99009523Y-96452380D01*
X99009523Y-96547619D01*
X99485714Y-96785714D02*
X99485714Y-97452380D01*
X99485714Y-96880952D02*
X99533333Y-96833333D01*
X99628571Y-96785714D01*
X99771428Y-96785714D01*
X99866666Y-96833333D01*
X99914285Y-96928571D01*
X99914285Y-97452380D01*
X100819047Y-96785714D02*
X100819047Y-97595238D01*
X100771428Y-97690476D01*
X100723809Y-97738095D01*
X100628571Y-97785714D01*
X100485714Y-97785714D01*
X100390476Y-97738095D01*
X100819047Y-97404761D02*
X100723809Y-97452380D01*
X100533333Y-97452380D01*
X100438095Y-97404761D01*
X100390476Y-97357142D01*
X100342857Y-97261904D01*
X100342857Y-96976190D01*
X100390476Y-96880952D01*
X100438095Y-96833333D01*
X100533333Y-96785714D01*
X100723809Y-96785714D01*
X100819047Y-96833333D01*
X95223809Y-92252380D02*
X95223809Y-91252380D01*
X95604761Y-91252380D01*
X95700000Y-91300000D01*
X95747619Y-91347619D01*
X95795238Y-91442857D01*
X95795238Y-91585714D01*
X95747619Y-91680952D01*
X95700000Y-91728571D01*
X95604761Y-91776190D01*
X95223809Y-91776190D01*
X96366666Y-92252380D02*
X96271428Y-92204761D01*
X96223809Y-92157142D01*
X96176190Y-92061904D01*
X96176190Y-91776190D01*
X96223809Y-91680952D01*
X96271428Y-91633333D01*
X96366666Y-91585714D01*
X96509523Y-91585714D01*
X96604761Y-91633333D01*
X96652380Y-91680952D01*
X96700000Y-91776190D01*
X96700000Y-92061904D01*
X96652380Y-92157142D01*
X96604761Y-92204761D01*
X96509523Y-92252380D01*
X96366666Y-92252380D01*
X97033333Y-91585714D02*
X97223809Y-92252380D01*
X97414285Y-91776190D01*
X97604761Y-92252380D01*
X97795238Y-91585714D01*
X98557142Y-92204761D02*
X98461904Y-92252380D01*
X98271428Y-92252380D01*
X98176190Y-92204761D01*
X98128571Y-92109523D01*
X98128571Y-91728571D01*
X98176190Y-91633333D01*
X98271428Y-91585714D01*
X98461904Y-91585714D01*
X98557142Y-91633333D01*
X98604761Y-91728571D01*
X98604761Y-91823809D01*
X98128571Y-91919047D01*
X99033333Y-92252380D02*
X99033333Y-91585714D01*
X99033333Y-91776190D02*
X99080952Y-91680952D01*
X99128571Y-91633333D01*
X99223809Y-91585714D01*
X99319047Y-91585714D01*
X84747619Y-95752380D02*
X85223809Y-95419047D01*
X84747619Y-95180952D02*
X85747619Y-95180952D01*
X85747619Y-95561904D01*
X85700000Y-95657142D01*
X85652380Y-95704761D01*
X85557142Y-95752380D01*
X85414285Y-95752380D01*
X85319047Y-95704761D01*
X85271428Y-95657142D01*
X85223809Y-95561904D01*
X85223809Y-95180952D01*
X84747619Y-96609523D02*
X85271428Y-96609523D01*
X85366666Y-96561904D01*
X85414285Y-96466666D01*
X85414285Y-96276190D01*
X85366666Y-96180952D01*
X84795238Y-96609523D02*
X84747619Y-96514285D01*
X84747619Y-96276190D01*
X84795238Y-96180952D01*
X84890476Y-96133333D01*
X84985714Y-96133333D01*
X85080952Y-96180952D01*
X85128571Y-96276190D01*
X85128571Y-96514285D01*
X85176190Y-96609523D01*
X84795238Y-97038095D02*
X84747619Y-97133333D01*
X84747619Y-97323809D01*
X84795238Y-97419047D01*
X84890476Y-97466666D01*
X84938095Y-97466666D01*
X85033333Y-97419047D01*
X85080952Y-97323809D01*
X85080952Y-97180952D01*
X85128571Y-97085714D01*
X85223809Y-97038095D01*
X85271428Y-97038095D01*
X85366666Y-97085714D01*
X85414285Y-97180952D01*
X85414285Y-97323809D01*
X85366666Y-97419047D01*
X85414285Y-97895238D02*
X84414285Y-97895238D01*
X85366666Y-97895238D02*
X85414285Y-97990476D01*
X85414285Y-98180952D01*
X85366666Y-98276190D01*
X85319047Y-98323809D01*
X85223809Y-98371428D01*
X84938095Y-98371428D01*
X84842857Y-98323809D01*
X84795238Y-98276190D01*
X84747619Y-98180952D01*
X84747619Y-97990476D01*
X84795238Y-97895238D01*
X84747619Y-98800000D02*
X85747619Y-98800000D01*
X85366666Y-98800000D02*
X85414285Y-98895238D01*
X85414285Y-99085714D01*
X85366666Y-99180952D01*
X85319047Y-99228571D01*
X85223809Y-99276190D01*
X84938095Y-99276190D01*
X84842857Y-99228571D01*
X84795238Y-99180952D01*
X84747619Y-99085714D01*
X84747619Y-98895238D01*
X84795238Y-98800000D01*
X84795238Y-100085714D02*
X84747619Y-99990476D01*
X84747619Y-99800000D01*
X84795238Y-99704761D01*
X84890476Y-99657142D01*
X85271428Y-99657142D01*
X85366666Y-99704761D01*
X85414285Y-99800000D01*
X85414285Y-99990476D01*
X85366666Y-100085714D01*
X85271428Y-100133333D01*
X85176190Y-100133333D01*
X85080952Y-99657142D01*
X84747619Y-100561904D02*
X85414285Y-100561904D01*
X85223809Y-100561904D02*
X85319047Y-100609523D01*
X85366666Y-100657142D01*
X85414285Y-100752380D01*
X85414285Y-100847619D01*
X84747619Y-101180952D02*
X85414285Y-101180952D01*
X85223809Y-101180952D02*
X85319047Y-101228571D01*
X85366666Y-101276190D01*
X85414285Y-101371428D01*
X85414285Y-101466666D01*
X85414285Y-101704761D02*
X84747619Y-101942857D01*
X85414285Y-102180952D02*
X84747619Y-101942857D01*
X84509523Y-101847619D01*
X84461904Y-101800000D01*
X84414285Y-101704761D01*
X84747619Y-103323809D02*
X85747619Y-103323809D01*
X85747619Y-103704761D01*
X85700000Y-103800000D01*
X85652380Y-103847619D01*
X85557142Y-103895238D01*
X85414285Y-103895238D01*
X85319047Y-103847619D01*
X85271428Y-103800000D01*
X85223809Y-103704761D01*
X85223809Y-103323809D01*
X84747619Y-104323809D02*
X85747619Y-104323809D01*
X85747619Y-105466666D02*
X85747619Y-106133333D01*
X84747619Y-105466666D01*
X84747619Y-106133333D01*
X84795238Y-106895238D02*
X84747619Y-106800000D01*
X84747619Y-106609523D01*
X84795238Y-106514285D01*
X84890476Y-106466666D01*
X85271428Y-106466666D01*
X85366666Y-106514285D01*
X85414285Y-106609523D01*
X85414285Y-106800000D01*
X85366666Y-106895238D01*
X85271428Y-106942857D01*
X85176190Y-106942857D01*
X85080952Y-106466666D01*
X84747619Y-107371428D02*
X85414285Y-107371428D01*
X85223809Y-107371428D02*
X85319047Y-107419047D01*
X85366666Y-107466666D01*
X85414285Y-107561904D01*
X85414285Y-107657142D01*
X84747619Y-108133333D02*
X84795238Y-108038095D01*
X84842857Y-107990476D01*
X84938095Y-107942857D01*
X85223809Y-107942857D01*
X85319047Y-107990476D01*
X85366666Y-108038095D01*
X85414285Y-108133333D01*
X85414285Y-108276190D01*
X85366666Y-108371428D01*
X85319047Y-108419047D01*
X85223809Y-108466666D01*
X84938095Y-108466666D01*
X84842857Y-108419047D01*
X84795238Y-108371428D01*
X84747619Y-108276190D01*
X84747619Y-108133333D01*
D11*
X92800000Y-129600000D02*
G75*
G02*
X90000000Y-132400000I-2800000J0D01*
G01*
X90000000Y-70400000D02*
G75*
G02*
X92800000Y-73200000I0J-2800000D01*
G01*
X67000000Y-132400000D02*
G75*
G02*
X64200000Y-129600000I0J2800000D01*
G01*
X64400000Y-73200000D02*
G75*
G02*
X67200000Y-70400000I2800000J0D01*
G01*
X92800000Y-129600000D02*
X92800000Y-76200000D01*
X67000000Y-132400000D02*
X90000000Y-132400000D01*
X64400000Y-73200000D02*
X64200000Y-129600000D01*
X90000000Y-70400000D02*
X67200000Y-70400000D01*
X92800000Y-76200000D02*
X92800000Y-73200000D01*
%TO.C,J5*%
X87070000Y-127190000D02*
X92270000Y-127190000D01*
X87070000Y-78870000D02*
X87070000Y-127190000D01*
X92270000Y-76270000D02*
X92270000Y-127190000D01*
X87070000Y-78870000D02*
X89670000Y-78870000D01*
X89670000Y-78870000D02*
X89670000Y-76270000D01*
X89670000Y-76270000D02*
X92270000Y-76270000D01*
X87070000Y-77600000D02*
X87070000Y-76270000D01*
X87070000Y-76270000D02*
X88400000Y-76270000D01*
%TO.C,J4*%
X94380000Y-67060000D02*
X104540000Y-67060000D01*
X94380000Y-65790000D02*
X94380000Y-73410000D01*
X94380000Y-73410000D02*
X104540000Y-73410000D01*
X104540000Y-73410000D02*
X104540000Y-65790000D01*
X104540000Y-65790000D02*
X94380000Y-65790000D01*
%TO.C,J3*%
X104420000Y-137795000D02*
X94260000Y-137795000D01*
X104420000Y-139065000D02*
X104420000Y-131445000D01*
X104420000Y-131445000D02*
X94260000Y-131445000D01*
X94260000Y-131445000D02*
X94260000Y-139065000D01*
X94260000Y-139065000D02*
X104420000Y-139065000D01*
%TO.C,J2*%
X63330000Y-66930000D02*
X60670000Y-66930000D01*
X63330000Y-69530000D02*
X63330000Y-66930000D01*
X60670000Y-69530000D02*
X60670000Y-66930000D01*
X63330000Y-69530000D02*
X60670000Y-69530000D01*
X63330000Y-70800000D02*
X63330000Y-72130000D01*
X63330000Y-72130000D02*
X62000000Y-72130000D01*
%TO.C,J1*%
X60670000Y-138270000D02*
X63330000Y-138270000D01*
X60670000Y-135670000D02*
X60670000Y-138270000D01*
X63330000Y-135670000D02*
X63330000Y-138270000D01*
X60670000Y-135670000D02*
X63330000Y-135670000D01*
X60670000Y-134400000D02*
X60670000Y-133070000D01*
X60670000Y-133070000D02*
X62000000Y-133070000D01*
%TO.C,U8*%
X198120000Y-106510000D02*
X194260000Y-106510000D01*
X194260000Y-106510000D02*
X194260000Y-106755000D01*
X198120000Y-106510000D02*
X201980000Y-106510000D01*
X201980000Y-106510000D02*
X201980000Y-106755000D01*
X198120000Y-124630000D02*
X194260000Y-124630000D01*
X194260000Y-124630000D02*
X194260000Y-124385000D01*
X198120000Y-124630000D02*
X201980000Y-124630000D01*
X201980000Y-124630000D02*
X201980000Y-124385000D01*
X201980000Y-124385000D02*
X203795000Y-124385000D01*
%TO.C,U7*%
X171450000Y-106510000D02*
X167590000Y-106510000D01*
X167590000Y-106510000D02*
X167590000Y-106755000D01*
X171450000Y-106510000D02*
X175310000Y-106510000D01*
X175310000Y-106510000D02*
X175310000Y-106755000D01*
X171450000Y-124630000D02*
X167590000Y-124630000D01*
X167590000Y-124630000D02*
X167590000Y-124385000D01*
X171450000Y-124630000D02*
X175310000Y-124630000D01*
X175310000Y-124630000D02*
X175310000Y-124385000D01*
X175310000Y-124385000D02*
X177125000Y-124385000D01*
%TO.C,U6*%
X144780000Y-106510000D02*
X140920000Y-106510000D01*
X140920000Y-106510000D02*
X140920000Y-106755000D01*
X144780000Y-106510000D02*
X148640000Y-106510000D01*
X148640000Y-106510000D02*
X148640000Y-106755000D01*
X144780000Y-124630000D02*
X140920000Y-124630000D01*
X140920000Y-124630000D02*
X140920000Y-124385000D01*
X144780000Y-124630000D02*
X148640000Y-124630000D01*
X148640000Y-124630000D02*
X148640000Y-124385000D01*
X148640000Y-124385000D02*
X150455000Y-124385000D01*
%TO.C,U5*%
X118110000Y-106510000D02*
X114250000Y-106510000D01*
X114250000Y-106510000D02*
X114250000Y-106755000D01*
X118110000Y-106510000D02*
X121970000Y-106510000D01*
X121970000Y-106510000D02*
X121970000Y-106755000D01*
X118110000Y-124630000D02*
X114250000Y-124630000D01*
X114250000Y-124630000D02*
X114250000Y-124385000D01*
X118110000Y-124630000D02*
X121970000Y-124630000D01*
X121970000Y-124630000D02*
X121970000Y-124385000D01*
X121970000Y-124385000D02*
X123785000Y-124385000D01*
%TO.C,U4*%
X198120000Y-79840000D02*
X194260000Y-79840000D01*
X194260000Y-79840000D02*
X194260000Y-80085000D01*
X198120000Y-79840000D02*
X201980000Y-79840000D01*
X201980000Y-79840000D02*
X201980000Y-80085000D01*
X198120000Y-97960000D02*
X194260000Y-97960000D01*
X194260000Y-97960000D02*
X194260000Y-97715000D01*
X198120000Y-97960000D02*
X201980000Y-97960000D01*
X201980000Y-97960000D02*
X201980000Y-97715000D01*
X201980000Y-97715000D02*
X203795000Y-97715000D01*
%TO.C,U3*%
X171450000Y-79840000D02*
X167590000Y-79840000D01*
X167590000Y-79840000D02*
X167590000Y-80085000D01*
X171450000Y-79840000D02*
X175310000Y-79840000D01*
X175310000Y-79840000D02*
X175310000Y-80085000D01*
X171450000Y-97960000D02*
X167590000Y-97960000D01*
X167590000Y-97960000D02*
X167590000Y-97715000D01*
X171450000Y-97960000D02*
X175310000Y-97960000D01*
X175310000Y-97960000D02*
X175310000Y-97715000D01*
X175310000Y-97715000D02*
X177125000Y-97715000D01*
%TO.C,U2*%
X144780000Y-79840000D02*
X140920000Y-79840000D01*
X140920000Y-79840000D02*
X140920000Y-80085000D01*
X144780000Y-79840000D02*
X148640000Y-79840000D01*
X148640000Y-79840000D02*
X148640000Y-80085000D01*
X144780000Y-97960000D02*
X140920000Y-97960000D01*
X140920000Y-97960000D02*
X140920000Y-97715000D01*
X144780000Y-97960000D02*
X148640000Y-97960000D01*
X148640000Y-97960000D02*
X148640000Y-97715000D01*
X148640000Y-97715000D02*
X150455000Y-97715000D01*
%TO.C,U1*%
X118110000Y-79840000D02*
X114250000Y-79840000D01*
X114250000Y-79840000D02*
X114250000Y-80085000D01*
X118110000Y-79840000D02*
X121970000Y-79840000D01*
X121970000Y-79840000D02*
X121970000Y-80085000D01*
X118110000Y-97960000D02*
X114250000Y-97960000D01*
X114250000Y-97960000D02*
X114250000Y-97715000D01*
X118110000Y-97960000D02*
X121970000Y-97960000D01*
X121970000Y-97960000D02*
X121970000Y-97715000D01*
X121970000Y-97715000D02*
X123785000Y-97715000D01*
%TO.C,R14*%
X76683064Y-86254000D02*
X75228936Y-86254000D01*
X76683064Y-84434000D02*
X75228936Y-84434000D01*
%TO.C,R13*%
X76657064Y-81301000D02*
X75202936Y-81301000D01*
X76657064Y-79481000D02*
X75202936Y-79481000D01*
%TO.C,R12*%
X78912936Y-107840000D02*
X80367064Y-107840000D01*
X78912936Y-109660000D02*
X80367064Y-109660000D01*
%TO.C,R11*%
X78912936Y-102760000D02*
X80367064Y-102760000D01*
X78912936Y-104580000D02*
X80367064Y-104580000D01*
%TO.C,R10*%
X78938936Y-97807000D02*
X80393064Y-97807000D01*
X78938936Y-99627000D02*
X80393064Y-99627000D01*
%TO.C,R9*%
X78912936Y-92854000D02*
X80367064Y-92854000D01*
X78912936Y-94674000D02*
X80367064Y-94674000D01*
%TO.C,R8*%
X70044936Y-107713000D02*
X71499064Y-107713000D01*
X70044936Y-109533000D02*
X71499064Y-109533000D01*
%TO.C,R7*%
X70044936Y-102760000D02*
X71499064Y-102760000D01*
X70044936Y-104580000D02*
X71499064Y-104580000D01*
%TO.C,R6*%
X70044936Y-97807000D02*
X71499064Y-97807000D01*
X70044936Y-99627000D02*
X71499064Y-99627000D01*
%TO.C,R5*%
X70044936Y-92854000D02*
X71499064Y-92854000D01*
X70044936Y-94674000D02*
X71499064Y-94674000D01*
%TO.C,R4*%
X103152936Y-98070000D02*
X104607064Y-98070000D01*
X103152936Y-99890000D02*
X104607064Y-99890000D01*
%TO.C,R3*%
X103227936Y-108357000D02*
X104682064Y-108357000D01*
X103227936Y-110177000D02*
X104682064Y-110177000D01*
%TO.C,R2*%
X103227936Y-103150000D02*
X104682064Y-103150000D01*
X103227936Y-104970000D02*
X104682064Y-104970000D01*
%TO.C,R1*%
X103152936Y-92990000D02*
X104607064Y-92990000D01*
X103152936Y-94810000D02*
X104607064Y-94810000D01*
%TO.C,D4*%
X95650000Y-100115000D02*
X99710000Y-100115000D01*
X99710000Y-100115000D02*
X99710000Y-97845000D01*
X99710000Y-97845000D02*
X95650000Y-97845000D01*
%TO.C,D3*%
X95740500Y-110402000D02*
X99800500Y-110402000D01*
X99800500Y-110402000D02*
X99800500Y-108132000D01*
X99800500Y-108132000D02*
X95740500Y-108132000D01*
%TO.C,D2*%
X95686500Y-105195000D02*
X99746500Y-105195000D01*
X99746500Y-105195000D02*
X99746500Y-102925000D01*
X99746500Y-102925000D02*
X95686500Y-102925000D01*
%TO.C,D1*%
X95650000Y-95035000D02*
X99710000Y-95035000D01*
X99710000Y-95035000D02*
X99710000Y-92765000D01*
X99710000Y-92765000D02*
X95650000Y-92765000D01*
%TO.C,C8*%
X206100000Y-114033252D02*
X206100000Y-112610748D01*
X207920000Y-114033252D02*
X207920000Y-112610748D01*
%TO.C,C7*%
X179430000Y-113449252D02*
X179430000Y-112026748D01*
X181250000Y-113449252D02*
X181250000Y-112026748D01*
%TO.C,C6*%
X152760000Y-113741252D02*
X152760000Y-112318748D01*
X154580000Y-113741252D02*
X154580000Y-112318748D01*
%TO.C,C5*%
X126090000Y-113449252D02*
X126090000Y-112026748D01*
X127910000Y-113449252D02*
X127910000Y-112026748D01*
%TO.C,C4*%
X206100000Y-87363752D02*
X206100000Y-85941248D01*
X207920000Y-87363752D02*
X207920000Y-85941248D01*
%TO.C,C3*%
X179430000Y-87363752D02*
X179430000Y-85941248D01*
X181250000Y-87363752D02*
X181250000Y-85941248D01*
%TO.C,C2*%
X152760000Y-87363752D02*
X152760000Y-85941248D01*
X154580000Y-87363752D02*
X154580000Y-85941248D01*
%TO.C,C1*%
X126090000Y-87363752D02*
X126090000Y-85941248D01*
X127910000Y-87363752D02*
X127910000Y-85941248D01*
%TO.C,BUS7*%
X208340000Y-138490000D02*
X208340000Y-133290000D01*
X190500000Y-138490000D02*
X208340000Y-138490000D01*
X187900000Y-133290000D02*
X208340000Y-133290000D01*
X190500000Y-138490000D02*
X190500000Y-135890000D01*
X190500000Y-135890000D02*
X187900000Y-135890000D01*
X187900000Y-135890000D02*
X187900000Y-133290000D01*
X189230000Y-138490000D02*
X187900000Y-138490000D01*
X187900000Y-138490000D02*
X187900000Y-137160000D01*
%TO.C,BUS6*%
X181670000Y-138490000D02*
X181670000Y-133290000D01*
X163830000Y-138490000D02*
X181670000Y-138490000D01*
X161230000Y-133290000D02*
X181670000Y-133290000D01*
X163830000Y-138490000D02*
X163830000Y-135890000D01*
X163830000Y-135890000D02*
X161230000Y-135890000D01*
X161230000Y-135890000D02*
X161230000Y-133290000D01*
X162560000Y-138490000D02*
X161230000Y-138490000D01*
X161230000Y-138490000D02*
X161230000Y-137160000D01*
%TO.C,BUS5*%
X155000000Y-138490000D02*
X155000000Y-133290000D01*
X137160000Y-138490000D02*
X155000000Y-138490000D01*
X134560000Y-133290000D02*
X155000000Y-133290000D01*
X137160000Y-138490000D02*
X137160000Y-135890000D01*
X137160000Y-135890000D02*
X134560000Y-135890000D01*
X134560000Y-135890000D02*
X134560000Y-133290000D01*
X135890000Y-138490000D02*
X134560000Y-138490000D01*
X134560000Y-138490000D02*
X134560000Y-137160000D01*
%TO.C,BUS4*%
X128330000Y-138490000D02*
X128330000Y-133290000D01*
X110490000Y-138490000D02*
X128330000Y-138490000D01*
X107890000Y-133290000D02*
X128330000Y-133290000D01*
X110490000Y-138490000D02*
X110490000Y-135890000D01*
X110490000Y-135890000D02*
X107890000Y-135890000D01*
X107890000Y-135890000D02*
X107890000Y-133290000D01*
X109220000Y-138490000D02*
X107890000Y-138490000D01*
X107890000Y-138490000D02*
X107890000Y-137160000D01*
%TO.C,BUS3*%
X208340000Y-71180000D02*
X208340000Y-65980000D01*
X190500000Y-71180000D02*
X208340000Y-71180000D01*
X187900000Y-65980000D02*
X208340000Y-65980000D01*
X190500000Y-71180000D02*
X190500000Y-68580000D01*
X190500000Y-68580000D02*
X187900000Y-68580000D01*
X187900000Y-68580000D02*
X187900000Y-65980000D01*
X189230000Y-71180000D02*
X187900000Y-71180000D01*
X187900000Y-71180000D02*
X187900000Y-69850000D01*
%TO.C,BUS2*%
X181670000Y-71180000D02*
X181670000Y-65980000D01*
X163830000Y-71180000D02*
X181670000Y-71180000D01*
X161230000Y-65980000D02*
X181670000Y-65980000D01*
X163830000Y-71180000D02*
X163830000Y-68580000D01*
X163830000Y-68580000D02*
X161230000Y-68580000D01*
X161230000Y-68580000D02*
X161230000Y-65980000D01*
X162560000Y-71180000D02*
X161230000Y-71180000D01*
X161230000Y-71180000D02*
X161230000Y-69850000D01*
%TO.C,BUS1*%
X155000000Y-71180000D02*
X155000000Y-65980000D01*
X137160000Y-71180000D02*
X155000000Y-71180000D01*
X134560000Y-65980000D02*
X155000000Y-65980000D01*
X137160000Y-71180000D02*
X137160000Y-68580000D01*
X137160000Y-68580000D02*
X134560000Y-68580000D01*
X134560000Y-68580000D02*
X134560000Y-65980000D01*
X135890000Y-71180000D02*
X134560000Y-71180000D01*
X134560000Y-71180000D02*
X134560000Y-69850000D01*
%TO.C,BUS0*%
X128330000Y-71180000D02*
X128330000Y-65980000D01*
X110490000Y-71180000D02*
X128330000Y-71180000D01*
X107890000Y-65980000D02*
X128330000Y-65980000D01*
X110490000Y-71180000D02*
X110490000Y-68580000D01*
X110490000Y-68580000D02*
X107890000Y-68580000D01*
X107890000Y-68580000D02*
X107890000Y-65980000D01*
X109220000Y-71180000D02*
X107890000Y-71180000D01*
X107890000Y-71180000D02*
X107890000Y-69850000D01*
%TO.C,J5*%
D10*
X89466666Y-74452380D02*
X89466666Y-75166666D01*
X89419047Y-75309523D01*
X89323809Y-75404761D01*
X89180952Y-75452380D01*
X89085714Y-75452380D01*
X90419047Y-74452380D02*
X89942857Y-74452380D01*
X89895238Y-74928571D01*
X89942857Y-74880952D01*
X90038095Y-74833333D01*
X90276190Y-74833333D01*
X90371428Y-74880952D01*
X90419047Y-74928571D01*
X90466666Y-75023809D01*
X90466666Y-75261904D01*
X90419047Y-75357142D01*
X90371428Y-75404761D01*
X90276190Y-75452380D01*
X90038095Y-75452380D01*
X89942857Y-75404761D01*
X89895238Y-75357142D01*
%TO.C,J4*%
X99066666Y-74982380D02*
X99066666Y-75696666D01*
X99019047Y-75839523D01*
X98923809Y-75934761D01*
X98780952Y-75982380D01*
X98685714Y-75982380D01*
X99971428Y-75315714D02*
X99971428Y-75982380D01*
X99733333Y-74934761D02*
X99495238Y-75649047D01*
X100114285Y-75649047D01*
%TO.C,J3*%
X99006666Y-128782380D02*
X99006666Y-129496666D01*
X98959047Y-129639523D01*
X98863809Y-129734761D01*
X98720952Y-129782380D01*
X98625714Y-129782380D01*
X99387619Y-128782380D02*
X100006666Y-128782380D01*
X99673333Y-129163333D01*
X99816190Y-129163333D01*
X99911428Y-129210952D01*
X99959047Y-129258571D01*
X100006666Y-129353809D01*
X100006666Y-129591904D01*
X99959047Y-129687142D01*
X99911428Y-129734761D01*
X99816190Y-129782380D01*
X99530476Y-129782380D01*
X99435238Y-129734761D01*
X99387619Y-129687142D01*
%TO.C,J2*%
X64852380Y-69533333D02*
X65566666Y-69533333D01*
X65709523Y-69580952D01*
X65804761Y-69676190D01*
X65852380Y-69819047D01*
X65852380Y-69914285D01*
X64947619Y-69104761D02*
X64900000Y-69057142D01*
X64852380Y-68961904D01*
X64852380Y-68723809D01*
X64900000Y-68628571D01*
X64947619Y-68580952D01*
X65042857Y-68533333D01*
X65138095Y-68533333D01*
X65280952Y-68580952D01*
X65852380Y-69152380D01*
X65852380Y-68533333D01*
%TO.C,J1*%
X64452380Y-135733333D02*
X65166666Y-135733333D01*
X65309523Y-135780952D01*
X65404761Y-135876190D01*
X65452380Y-136019047D01*
X65452380Y-136114285D01*
X65452380Y-134733333D02*
X65452380Y-135304761D01*
X65452380Y-135019047D02*
X64452380Y-135019047D01*
X64595238Y-135114285D01*
X64690476Y-135209523D01*
X64738095Y-135304761D01*
%TO.C,U8*%
X197358095Y-124922380D02*
X197358095Y-125731904D01*
X197405714Y-125827142D01*
X197453333Y-125874761D01*
X197548571Y-125922380D01*
X197739047Y-125922380D01*
X197834285Y-125874761D01*
X197881904Y-125827142D01*
X197929523Y-125731904D01*
X197929523Y-124922380D01*
X198548571Y-125350952D02*
X198453333Y-125303333D01*
X198405714Y-125255714D01*
X198358095Y-125160476D01*
X198358095Y-125112857D01*
X198405714Y-125017619D01*
X198453333Y-124970000D01*
X198548571Y-124922380D01*
X198739047Y-124922380D01*
X198834285Y-124970000D01*
X198881904Y-125017619D01*
X198929523Y-125112857D01*
X198929523Y-125160476D01*
X198881904Y-125255714D01*
X198834285Y-125303333D01*
X198739047Y-125350952D01*
X198548571Y-125350952D01*
X198453333Y-125398571D01*
X198405714Y-125446190D01*
X198358095Y-125541428D01*
X198358095Y-125731904D01*
X198405714Y-125827142D01*
X198453333Y-125874761D01*
X198548571Y-125922380D01*
X198739047Y-125922380D01*
X198834285Y-125874761D01*
X198881904Y-125827142D01*
X198929523Y-125731904D01*
X198929523Y-125541428D01*
X198881904Y-125446190D01*
X198834285Y-125398571D01*
X198739047Y-125350952D01*
%TO.C,U7*%
X170688095Y-124922380D02*
X170688095Y-125731904D01*
X170735714Y-125827142D01*
X170783333Y-125874761D01*
X170878571Y-125922380D01*
X171069047Y-125922380D01*
X171164285Y-125874761D01*
X171211904Y-125827142D01*
X171259523Y-125731904D01*
X171259523Y-124922380D01*
X171640476Y-124922380D02*
X172307142Y-124922380D01*
X171878571Y-125922380D01*
%TO.C,U6*%
X144018095Y-124922380D02*
X144018095Y-125731904D01*
X144065714Y-125827142D01*
X144113333Y-125874761D01*
X144208571Y-125922380D01*
X144399047Y-125922380D01*
X144494285Y-125874761D01*
X144541904Y-125827142D01*
X144589523Y-125731904D01*
X144589523Y-124922380D01*
X145494285Y-124922380D02*
X145303809Y-124922380D01*
X145208571Y-124970000D01*
X145160952Y-125017619D01*
X145065714Y-125160476D01*
X145018095Y-125350952D01*
X145018095Y-125731904D01*
X145065714Y-125827142D01*
X145113333Y-125874761D01*
X145208571Y-125922380D01*
X145399047Y-125922380D01*
X145494285Y-125874761D01*
X145541904Y-125827142D01*
X145589523Y-125731904D01*
X145589523Y-125493809D01*
X145541904Y-125398571D01*
X145494285Y-125350952D01*
X145399047Y-125303333D01*
X145208571Y-125303333D01*
X145113333Y-125350952D01*
X145065714Y-125398571D01*
X145018095Y-125493809D01*
%TO.C,U5*%
X117348095Y-124922380D02*
X117348095Y-125731904D01*
X117395714Y-125827142D01*
X117443333Y-125874761D01*
X117538571Y-125922380D01*
X117729047Y-125922380D01*
X117824285Y-125874761D01*
X117871904Y-125827142D01*
X117919523Y-125731904D01*
X117919523Y-124922380D01*
X118871904Y-124922380D02*
X118395714Y-124922380D01*
X118348095Y-125398571D01*
X118395714Y-125350952D01*
X118490952Y-125303333D01*
X118729047Y-125303333D01*
X118824285Y-125350952D01*
X118871904Y-125398571D01*
X118919523Y-125493809D01*
X118919523Y-125731904D01*
X118871904Y-125827142D01*
X118824285Y-125874761D01*
X118729047Y-125922380D01*
X118490952Y-125922380D01*
X118395714Y-125874761D01*
X118348095Y-125827142D01*
%TO.C,U4*%
X197358095Y-98252380D02*
X197358095Y-99061904D01*
X197405714Y-99157142D01*
X197453333Y-99204761D01*
X197548571Y-99252380D01*
X197739047Y-99252380D01*
X197834285Y-99204761D01*
X197881904Y-99157142D01*
X197929523Y-99061904D01*
X197929523Y-98252380D01*
X198834285Y-98585714D02*
X198834285Y-99252380D01*
X198596190Y-98204761D02*
X198358095Y-98919047D01*
X198977142Y-98919047D01*
%TO.C,U3*%
X170688095Y-98252380D02*
X170688095Y-99061904D01*
X170735714Y-99157142D01*
X170783333Y-99204761D01*
X170878571Y-99252380D01*
X171069047Y-99252380D01*
X171164285Y-99204761D01*
X171211904Y-99157142D01*
X171259523Y-99061904D01*
X171259523Y-98252380D01*
X171640476Y-98252380D02*
X172259523Y-98252380D01*
X171926190Y-98633333D01*
X172069047Y-98633333D01*
X172164285Y-98680952D01*
X172211904Y-98728571D01*
X172259523Y-98823809D01*
X172259523Y-99061904D01*
X172211904Y-99157142D01*
X172164285Y-99204761D01*
X172069047Y-99252380D01*
X171783333Y-99252380D01*
X171688095Y-99204761D01*
X171640476Y-99157142D01*
%TO.C,U2*%
X144018095Y-98252380D02*
X144018095Y-99061904D01*
X144065714Y-99157142D01*
X144113333Y-99204761D01*
X144208571Y-99252380D01*
X144399047Y-99252380D01*
X144494285Y-99204761D01*
X144541904Y-99157142D01*
X144589523Y-99061904D01*
X144589523Y-98252380D01*
X145018095Y-98347619D02*
X145065714Y-98300000D01*
X145160952Y-98252380D01*
X145399047Y-98252380D01*
X145494285Y-98300000D01*
X145541904Y-98347619D01*
X145589523Y-98442857D01*
X145589523Y-98538095D01*
X145541904Y-98680952D01*
X144970476Y-99252380D01*
X145589523Y-99252380D01*
%TO.C,U1*%
X117348095Y-98252380D02*
X117348095Y-99061904D01*
X117395714Y-99157142D01*
X117443333Y-99204761D01*
X117538571Y-99252380D01*
X117729047Y-99252380D01*
X117824285Y-99204761D01*
X117871904Y-99157142D01*
X117919523Y-99061904D01*
X117919523Y-98252380D01*
X118919523Y-99252380D02*
X118348095Y-99252380D01*
X118633809Y-99252380D02*
X118633809Y-98252380D01*
X118538571Y-98395238D01*
X118443333Y-98490476D01*
X118348095Y-98538095D01*
%TO.C,R14*%
X75313142Y-87616380D02*
X74979809Y-87140190D01*
X74741714Y-87616380D02*
X74741714Y-86616380D01*
X75122666Y-86616380D01*
X75217904Y-86664000D01*
X75265523Y-86711619D01*
X75313142Y-86806857D01*
X75313142Y-86949714D01*
X75265523Y-87044952D01*
X75217904Y-87092571D01*
X75122666Y-87140190D01*
X74741714Y-87140190D01*
X76265523Y-87616380D02*
X75694095Y-87616380D01*
X75979809Y-87616380D02*
X75979809Y-86616380D01*
X75884571Y-86759238D01*
X75789333Y-86854476D01*
X75694095Y-86902095D01*
X77122666Y-86949714D02*
X77122666Y-87616380D01*
X76884571Y-86568761D02*
X76646476Y-87283047D01*
X77265523Y-87283047D01*
%TO.C,R13*%
X75287142Y-82663380D02*
X74953809Y-82187190D01*
X74715714Y-82663380D02*
X74715714Y-81663380D01*
X75096666Y-81663380D01*
X75191904Y-81711000D01*
X75239523Y-81758619D01*
X75287142Y-81853857D01*
X75287142Y-81996714D01*
X75239523Y-82091952D01*
X75191904Y-82139571D01*
X75096666Y-82187190D01*
X74715714Y-82187190D01*
X76239523Y-82663380D02*
X75668095Y-82663380D01*
X75953809Y-82663380D02*
X75953809Y-81663380D01*
X75858571Y-81806238D01*
X75763333Y-81901476D01*
X75668095Y-81949095D01*
X76572857Y-81663380D02*
X77191904Y-81663380D01*
X76858571Y-82044333D01*
X77001428Y-82044333D01*
X77096666Y-82091952D01*
X77144285Y-82139571D01*
X77191904Y-82234809D01*
X77191904Y-82472904D01*
X77144285Y-82568142D01*
X77096666Y-82615761D01*
X77001428Y-82663380D01*
X76715714Y-82663380D01*
X76620476Y-82615761D01*
X76572857Y-82568142D01*
%TO.C,R12*%
X78997142Y-107382380D02*
X78663809Y-106906190D01*
X78425714Y-107382380D02*
X78425714Y-106382380D01*
X78806666Y-106382380D01*
X78901904Y-106430000D01*
X78949523Y-106477619D01*
X78997142Y-106572857D01*
X78997142Y-106715714D01*
X78949523Y-106810952D01*
X78901904Y-106858571D01*
X78806666Y-106906190D01*
X78425714Y-106906190D01*
X79949523Y-107382380D02*
X79378095Y-107382380D01*
X79663809Y-107382380D02*
X79663809Y-106382380D01*
X79568571Y-106525238D01*
X79473333Y-106620476D01*
X79378095Y-106668095D01*
X80330476Y-106477619D02*
X80378095Y-106430000D01*
X80473333Y-106382380D01*
X80711428Y-106382380D01*
X80806666Y-106430000D01*
X80854285Y-106477619D01*
X80901904Y-106572857D01*
X80901904Y-106668095D01*
X80854285Y-106810952D01*
X80282857Y-107382380D01*
X80901904Y-107382380D01*
%TO.C,R11*%
X78997142Y-102302380D02*
X78663809Y-101826190D01*
X78425714Y-102302380D02*
X78425714Y-101302380D01*
X78806666Y-101302380D01*
X78901904Y-101350000D01*
X78949523Y-101397619D01*
X78997142Y-101492857D01*
X78997142Y-101635714D01*
X78949523Y-101730952D01*
X78901904Y-101778571D01*
X78806666Y-101826190D01*
X78425714Y-101826190D01*
X79949523Y-102302380D02*
X79378095Y-102302380D01*
X79663809Y-102302380D02*
X79663809Y-101302380D01*
X79568571Y-101445238D01*
X79473333Y-101540476D01*
X79378095Y-101588095D01*
X80901904Y-102302380D02*
X80330476Y-102302380D01*
X80616190Y-102302380D02*
X80616190Y-101302380D01*
X80520952Y-101445238D01*
X80425714Y-101540476D01*
X80330476Y-101588095D01*
%TO.C,R10*%
X79023142Y-97349380D02*
X78689809Y-96873190D01*
X78451714Y-97349380D02*
X78451714Y-96349380D01*
X78832666Y-96349380D01*
X78927904Y-96397000D01*
X78975523Y-96444619D01*
X79023142Y-96539857D01*
X79023142Y-96682714D01*
X78975523Y-96777952D01*
X78927904Y-96825571D01*
X78832666Y-96873190D01*
X78451714Y-96873190D01*
X79975523Y-97349380D02*
X79404095Y-97349380D01*
X79689809Y-97349380D02*
X79689809Y-96349380D01*
X79594571Y-96492238D01*
X79499333Y-96587476D01*
X79404095Y-96635095D01*
X80594571Y-96349380D02*
X80689809Y-96349380D01*
X80785047Y-96397000D01*
X80832666Y-96444619D01*
X80880285Y-96539857D01*
X80927904Y-96730333D01*
X80927904Y-96968428D01*
X80880285Y-97158904D01*
X80832666Y-97254142D01*
X80785047Y-97301761D01*
X80689809Y-97349380D01*
X80594571Y-97349380D01*
X80499333Y-97301761D01*
X80451714Y-97254142D01*
X80404095Y-97158904D01*
X80356476Y-96968428D01*
X80356476Y-96730333D01*
X80404095Y-96539857D01*
X80451714Y-96444619D01*
X80499333Y-96397000D01*
X80594571Y-96349380D01*
%TO.C,R9*%
X79473333Y-92396380D02*
X79140000Y-91920190D01*
X78901904Y-92396380D02*
X78901904Y-91396380D01*
X79282857Y-91396380D01*
X79378095Y-91444000D01*
X79425714Y-91491619D01*
X79473333Y-91586857D01*
X79473333Y-91729714D01*
X79425714Y-91824952D01*
X79378095Y-91872571D01*
X79282857Y-91920190D01*
X78901904Y-91920190D01*
X79949523Y-92396380D02*
X80140000Y-92396380D01*
X80235238Y-92348761D01*
X80282857Y-92301142D01*
X80378095Y-92158285D01*
X80425714Y-91967809D01*
X80425714Y-91586857D01*
X80378095Y-91491619D01*
X80330476Y-91444000D01*
X80235238Y-91396380D01*
X80044761Y-91396380D01*
X79949523Y-91444000D01*
X79901904Y-91491619D01*
X79854285Y-91586857D01*
X79854285Y-91824952D01*
X79901904Y-91920190D01*
X79949523Y-91967809D01*
X80044761Y-92015428D01*
X80235238Y-92015428D01*
X80330476Y-91967809D01*
X80378095Y-91920190D01*
X80425714Y-91824952D01*
%TO.C,R8*%
X70605333Y-107255380D02*
X70272000Y-106779190D01*
X70033904Y-107255380D02*
X70033904Y-106255380D01*
X70414857Y-106255380D01*
X70510095Y-106303000D01*
X70557714Y-106350619D01*
X70605333Y-106445857D01*
X70605333Y-106588714D01*
X70557714Y-106683952D01*
X70510095Y-106731571D01*
X70414857Y-106779190D01*
X70033904Y-106779190D01*
X71176761Y-106683952D02*
X71081523Y-106636333D01*
X71033904Y-106588714D01*
X70986285Y-106493476D01*
X70986285Y-106445857D01*
X71033904Y-106350619D01*
X71081523Y-106303000D01*
X71176761Y-106255380D01*
X71367238Y-106255380D01*
X71462476Y-106303000D01*
X71510095Y-106350619D01*
X71557714Y-106445857D01*
X71557714Y-106493476D01*
X71510095Y-106588714D01*
X71462476Y-106636333D01*
X71367238Y-106683952D01*
X71176761Y-106683952D01*
X71081523Y-106731571D01*
X71033904Y-106779190D01*
X70986285Y-106874428D01*
X70986285Y-107064904D01*
X71033904Y-107160142D01*
X71081523Y-107207761D01*
X71176761Y-107255380D01*
X71367238Y-107255380D01*
X71462476Y-107207761D01*
X71510095Y-107160142D01*
X71557714Y-107064904D01*
X71557714Y-106874428D01*
X71510095Y-106779190D01*
X71462476Y-106731571D01*
X71367238Y-106683952D01*
%TO.C,R7*%
X70605333Y-102302380D02*
X70272000Y-101826190D01*
X70033904Y-102302380D02*
X70033904Y-101302380D01*
X70414857Y-101302380D01*
X70510095Y-101350000D01*
X70557714Y-101397619D01*
X70605333Y-101492857D01*
X70605333Y-101635714D01*
X70557714Y-101730952D01*
X70510095Y-101778571D01*
X70414857Y-101826190D01*
X70033904Y-101826190D01*
X70938666Y-101302380D02*
X71605333Y-101302380D01*
X71176761Y-102302380D01*
%TO.C,R6*%
X70605333Y-97349380D02*
X70272000Y-96873190D01*
X70033904Y-97349380D02*
X70033904Y-96349380D01*
X70414857Y-96349380D01*
X70510095Y-96397000D01*
X70557714Y-96444619D01*
X70605333Y-96539857D01*
X70605333Y-96682714D01*
X70557714Y-96777952D01*
X70510095Y-96825571D01*
X70414857Y-96873190D01*
X70033904Y-96873190D01*
X71462476Y-96349380D02*
X71272000Y-96349380D01*
X71176761Y-96397000D01*
X71129142Y-96444619D01*
X71033904Y-96587476D01*
X70986285Y-96777952D01*
X70986285Y-97158904D01*
X71033904Y-97254142D01*
X71081523Y-97301761D01*
X71176761Y-97349380D01*
X71367238Y-97349380D01*
X71462476Y-97301761D01*
X71510095Y-97254142D01*
X71557714Y-97158904D01*
X71557714Y-96920809D01*
X71510095Y-96825571D01*
X71462476Y-96777952D01*
X71367238Y-96730333D01*
X71176761Y-96730333D01*
X71081523Y-96777952D01*
X71033904Y-96825571D01*
X70986285Y-96920809D01*
%TO.C,R5*%
X70605333Y-92396380D02*
X70272000Y-91920190D01*
X70033904Y-92396380D02*
X70033904Y-91396380D01*
X70414857Y-91396380D01*
X70510095Y-91444000D01*
X70557714Y-91491619D01*
X70605333Y-91586857D01*
X70605333Y-91729714D01*
X70557714Y-91824952D01*
X70510095Y-91872571D01*
X70414857Y-91920190D01*
X70033904Y-91920190D01*
X71510095Y-91396380D02*
X71033904Y-91396380D01*
X70986285Y-91872571D01*
X71033904Y-91824952D01*
X71129142Y-91777333D01*
X71367238Y-91777333D01*
X71462476Y-91824952D01*
X71510095Y-91872571D01*
X71557714Y-91967809D01*
X71557714Y-92205904D01*
X71510095Y-92301142D01*
X71462476Y-92348761D01*
X71367238Y-92396380D01*
X71129142Y-92396380D01*
X71033904Y-92348761D01*
X70986285Y-92301142D01*
%TO.C,R4*%
X103713333Y-97612380D02*
X103380000Y-97136190D01*
X103141904Y-97612380D02*
X103141904Y-96612380D01*
X103522857Y-96612380D01*
X103618095Y-96660000D01*
X103665714Y-96707619D01*
X103713333Y-96802857D01*
X103713333Y-96945714D01*
X103665714Y-97040952D01*
X103618095Y-97088571D01*
X103522857Y-97136190D01*
X103141904Y-97136190D01*
X104570476Y-96945714D02*
X104570476Y-97612380D01*
X104332380Y-96564761D02*
X104094285Y-97279047D01*
X104713333Y-97279047D01*
%TO.C,R3*%
X103788333Y-107899380D02*
X103455000Y-107423190D01*
X103216904Y-107899380D02*
X103216904Y-106899380D01*
X103597857Y-106899380D01*
X103693095Y-106947000D01*
X103740714Y-106994619D01*
X103788333Y-107089857D01*
X103788333Y-107232714D01*
X103740714Y-107327952D01*
X103693095Y-107375571D01*
X103597857Y-107423190D01*
X103216904Y-107423190D01*
X104121666Y-106899380D02*
X104740714Y-106899380D01*
X104407380Y-107280333D01*
X104550238Y-107280333D01*
X104645476Y-107327952D01*
X104693095Y-107375571D01*
X104740714Y-107470809D01*
X104740714Y-107708904D01*
X104693095Y-107804142D01*
X104645476Y-107851761D01*
X104550238Y-107899380D01*
X104264523Y-107899380D01*
X104169285Y-107851761D01*
X104121666Y-107804142D01*
%TO.C,R2*%
X103788333Y-102692380D02*
X103455000Y-102216190D01*
X103216904Y-102692380D02*
X103216904Y-101692380D01*
X103597857Y-101692380D01*
X103693095Y-101740000D01*
X103740714Y-101787619D01*
X103788333Y-101882857D01*
X103788333Y-102025714D01*
X103740714Y-102120952D01*
X103693095Y-102168571D01*
X103597857Y-102216190D01*
X103216904Y-102216190D01*
X104169285Y-101787619D02*
X104216904Y-101740000D01*
X104312142Y-101692380D01*
X104550238Y-101692380D01*
X104645476Y-101740000D01*
X104693095Y-101787619D01*
X104740714Y-101882857D01*
X104740714Y-101978095D01*
X104693095Y-102120952D01*
X104121666Y-102692380D01*
X104740714Y-102692380D01*
%TO.C,R1*%
X103713333Y-92532380D02*
X103380000Y-92056190D01*
X103141904Y-92532380D02*
X103141904Y-91532380D01*
X103522857Y-91532380D01*
X103618095Y-91580000D01*
X103665714Y-91627619D01*
X103713333Y-91722857D01*
X103713333Y-91865714D01*
X103665714Y-91960952D01*
X103618095Y-92008571D01*
X103522857Y-92056190D01*
X103141904Y-92056190D01*
X104665714Y-92532380D02*
X104094285Y-92532380D01*
X104380000Y-92532380D02*
X104380000Y-91532380D01*
X104284761Y-91675238D01*
X104189523Y-91770476D01*
X104094285Y-91818095D01*
%TO.C,D4*%
X96511904Y-101252380D02*
X96511904Y-100252380D01*
X96750000Y-100252380D01*
X96892857Y-100300000D01*
X96988095Y-100395238D01*
X97035714Y-100490476D01*
X97083333Y-100680952D01*
X97083333Y-100823809D01*
X97035714Y-101014285D01*
X96988095Y-101109523D01*
X96892857Y-101204761D01*
X96750000Y-101252380D01*
X96511904Y-101252380D01*
X97940476Y-100585714D02*
X97940476Y-101252380D01*
X97702380Y-100204761D02*
X97464285Y-100919047D01*
X98083333Y-100919047D01*
%TO.C,D3*%
X96602404Y-111539380D02*
X96602404Y-110539380D01*
X96840500Y-110539380D01*
X96983357Y-110587000D01*
X97078595Y-110682238D01*
X97126214Y-110777476D01*
X97173833Y-110967952D01*
X97173833Y-111110809D01*
X97126214Y-111301285D01*
X97078595Y-111396523D01*
X96983357Y-111491761D01*
X96840500Y-111539380D01*
X96602404Y-111539380D01*
X97507166Y-110539380D02*
X98126214Y-110539380D01*
X97792880Y-110920333D01*
X97935738Y-110920333D01*
X98030976Y-110967952D01*
X98078595Y-111015571D01*
X98126214Y-111110809D01*
X98126214Y-111348904D01*
X98078595Y-111444142D01*
X98030976Y-111491761D01*
X97935738Y-111539380D01*
X97650023Y-111539380D01*
X97554785Y-111491761D01*
X97507166Y-111444142D01*
%TO.C,D2*%
X96548404Y-106332380D02*
X96548404Y-105332380D01*
X96786500Y-105332380D01*
X96929357Y-105380000D01*
X97024595Y-105475238D01*
X97072214Y-105570476D01*
X97119833Y-105760952D01*
X97119833Y-105903809D01*
X97072214Y-106094285D01*
X97024595Y-106189523D01*
X96929357Y-106284761D01*
X96786500Y-106332380D01*
X96548404Y-106332380D01*
X97500785Y-105427619D02*
X97548404Y-105380000D01*
X97643642Y-105332380D01*
X97881738Y-105332380D01*
X97976976Y-105380000D01*
X98024595Y-105427619D01*
X98072214Y-105522857D01*
X98072214Y-105618095D01*
X98024595Y-105760952D01*
X97453166Y-106332380D01*
X98072214Y-106332380D01*
%TO.C,D1*%
X96511904Y-96172380D02*
X96511904Y-95172380D01*
X96750000Y-95172380D01*
X96892857Y-95220000D01*
X96988095Y-95315238D01*
X97035714Y-95410476D01*
X97083333Y-95600952D01*
X97083333Y-95743809D01*
X97035714Y-95934285D01*
X96988095Y-96029523D01*
X96892857Y-96124761D01*
X96750000Y-96172380D01*
X96511904Y-96172380D01*
X98035714Y-96172380D02*
X97464285Y-96172380D01*
X97750000Y-96172380D02*
X97750000Y-95172380D01*
X97654761Y-95315238D01*
X97559523Y-95410476D01*
X97464285Y-95458095D01*
%TO.C,C8*%
X205517142Y-113488666D02*
X205564761Y-113536285D01*
X205612380Y-113679142D01*
X205612380Y-113774380D01*
X205564761Y-113917238D01*
X205469523Y-114012476D01*
X205374285Y-114060095D01*
X205183809Y-114107714D01*
X205040952Y-114107714D01*
X204850476Y-114060095D01*
X204755238Y-114012476D01*
X204660000Y-113917238D01*
X204612380Y-113774380D01*
X204612380Y-113679142D01*
X204660000Y-113536285D01*
X204707619Y-113488666D01*
X205040952Y-112917238D02*
X204993333Y-113012476D01*
X204945714Y-113060095D01*
X204850476Y-113107714D01*
X204802857Y-113107714D01*
X204707619Y-113060095D01*
X204660000Y-113012476D01*
X204612380Y-112917238D01*
X204612380Y-112726761D01*
X204660000Y-112631523D01*
X204707619Y-112583904D01*
X204802857Y-112536285D01*
X204850476Y-112536285D01*
X204945714Y-112583904D01*
X204993333Y-112631523D01*
X205040952Y-112726761D01*
X205040952Y-112917238D01*
X205088571Y-113012476D01*
X205136190Y-113060095D01*
X205231428Y-113107714D01*
X205421904Y-113107714D01*
X205517142Y-113060095D01*
X205564761Y-113012476D01*
X205612380Y-112917238D01*
X205612380Y-112726761D01*
X205564761Y-112631523D01*
X205517142Y-112583904D01*
X205421904Y-112536285D01*
X205231428Y-112536285D01*
X205136190Y-112583904D01*
X205088571Y-112631523D01*
X205040952Y-112726761D01*
%TO.C,C7*%
X178847142Y-112904666D02*
X178894761Y-112952285D01*
X178942380Y-113095142D01*
X178942380Y-113190380D01*
X178894761Y-113333238D01*
X178799523Y-113428476D01*
X178704285Y-113476095D01*
X178513809Y-113523714D01*
X178370952Y-113523714D01*
X178180476Y-113476095D01*
X178085238Y-113428476D01*
X177990000Y-113333238D01*
X177942380Y-113190380D01*
X177942380Y-113095142D01*
X177990000Y-112952285D01*
X178037619Y-112904666D01*
X177942380Y-112571333D02*
X177942380Y-111904666D01*
X178942380Y-112333238D01*
%TO.C,C6*%
X152177142Y-113196666D02*
X152224761Y-113244285D01*
X152272380Y-113387142D01*
X152272380Y-113482380D01*
X152224761Y-113625238D01*
X152129523Y-113720476D01*
X152034285Y-113768095D01*
X151843809Y-113815714D01*
X151700952Y-113815714D01*
X151510476Y-113768095D01*
X151415238Y-113720476D01*
X151320000Y-113625238D01*
X151272380Y-113482380D01*
X151272380Y-113387142D01*
X151320000Y-113244285D01*
X151367619Y-113196666D01*
X151272380Y-112339523D02*
X151272380Y-112530000D01*
X151320000Y-112625238D01*
X151367619Y-112672857D01*
X151510476Y-112768095D01*
X151700952Y-112815714D01*
X152081904Y-112815714D01*
X152177142Y-112768095D01*
X152224761Y-112720476D01*
X152272380Y-112625238D01*
X152272380Y-112434761D01*
X152224761Y-112339523D01*
X152177142Y-112291904D01*
X152081904Y-112244285D01*
X151843809Y-112244285D01*
X151748571Y-112291904D01*
X151700952Y-112339523D01*
X151653333Y-112434761D01*
X151653333Y-112625238D01*
X151700952Y-112720476D01*
X151748571Y-112768095D01*
X151843809Y-112815714D01*
%TO.C,C5*%
X125507142Y-112904666D02*
X125554761Y-112952285D01*
X125602380Y-113095142D01*
X125602380Y-113190380D01*
X125554761Y-113333238D01*
X125459523Y-113428476D01*
X125364285Y-113476095D01*
X125173809Y-113523714D01*
X125030952Y-113523714D01*
X124840476Y-113476095D01*
X124745238Y-113428476D01*
X124650000Y-113333238D01*
X124602380Y-113190380D01*
X124602380Y-113095142D01*
X124650000Y-112952285D01*
X124697619Y-112904666D01*
X124602380Y-111999904D02*
X124602380Y-112476095D01*
X125078571Y-112523714D01*
X125030952Y-112476095D01*
X124983333Y-112380857D01*
X124983333Y-112142761D01*
X125030952Y-112047523D01*
X125078571Y-111999904D01*
X125173809Y-111952285D01*
X125411904Y-111952285D01*
X125507142Y-111999904D01*
X125554761Y-112047523D01*
X125602380Y-112142761D01*
X125602380Y-112380857D01*
X125554761Y-112476095D01*
X125507142Y-112523714D01*
%TO.C,C4*%
X205517142Y-86819166D02*
X205564761Y-86866785D01*
X205612380Y-87009642D01*
X205612380Y-87104880D01*
X205564761Y-87247738D01*
X205469523Y-87342976D01*
X205374285Y-87390595D01*
X205183809Y-87438214D01*
X205040952Y-87438214D01*
X204850476Y-87390595D01*
X204755238Y-87342976D01*
X204660000Y-87247738D01*
X204612380Y-87104880D01*
X204612380Y-87009642D01*
X204660000Y-86866785D01*
X204707619Y-86819166D01*
X204945714Y-85962023D02*
X205612380Y-85962023D01*
X204564761Y-86200119D02*
X205279047Y-86438214D01*
X205279047Y-85819166D01*
%TO.C,C3*%
X178847142Y-86819166D02*
X178894761Y-86866785D01*
X178942380Y-87009642D01*
X178942380Y-87104880D01*
X178894761Y-87247738D01*
X178799523Y-87342976D01*
X178704285Y-87390595D01*
X178513809Y-87438214D01*
X178370952Y-87438214D01*
X178180476Y-87390595D01*
X178085238Y-87342976D01*
X177990000Y-87247738D01*
X177942380Y-87104880D01*
X177942380Y-87009642D01*
X177990000Y-86866785D01*
X178037619Y-86819166D01*
X177942380Y-86485833D02*
X177942380Y-85866785D01*
X178323333Y-86200119D01*
X178323333Y-86057261D01*
X178370952Y-85962023D01*
X178418571Y-85914404D01*
X178513809Y-85866785D01*
X178751904Y-85866785D01*
X178847142Y-85914404D01*
X178894761Y-85962023D01*
X178942380Y-86057261D01*
X178942380Y-86342976D01*
X178894761Y-86438214D01*
X178847142Y-86485833D01*
%TO.C,C2*%
X152177142Y-86819166D02*
X152224761Y-86866785D01*
X152272380Y-87009642D01*
X152272380Y-87104880D01*
X152224761Y-87247738D01*
X152129523Y-87342976D01*
X152034285Y-87390595D01*
X151843809Y-87438214D01*
X151700952Y-87438214D01*
X151510476Y-87390595D01*
X151415238Y-87342976D01*
X151320000Y-87247738D01*
X151272380Y-87104880D01*
X151272380Y-87009642D01*
X151320000Y-86866785D01*
X151367619Y-86819166D01*
X151367619Y-86438214D02*
X151320000Y-86390595D01*
X151272380Y-86295357D01*
X151272380Y-86057261D01*
X151320000Y-85962023D01*
X151367619Y-85914404D01*
X151462857Y-85866785D01*
X151558095Y-85866785D01*
X151700952Y-85914404D01*
X152272380Y-86485833D01*
X152272380Y-85866785D01*
%TO.C,C1*%
X125507142Y-86819166D02*
X125554761Y-86866785D01*
X125602380Y-87009642D01*
X125602380Y-87104880D01*
X125554761Y-87247738D01*
X125459523Y-87342976D01*
X125364285Y-87390595D01*
X125173809Y-87438214D01*
X125030952Y-87438214D01*
X124840476Y-87390595D01*
X124745238Y-87342976D01*
X124650000Y-87247738D01*
X124602380Y-87104880D01*
X124602380Y-87009642D01*
X124650000Y-86866785D01*
X124697619Y-86819166D01*
X125602380Y-85866785D02*
X125602380Y-86438214D01*
X125602380Y-86152500D02*
X124602380Y-86152500D01*
X124745238Y-86247738D01*
X124840476Y-86342976D01*
X124888095Y-86438214D01*
%TO.C,BUS7*%
X186828571Y-137294761D02*
X186876190Y-137151904D01*
X186923809Y-137104285D01*
X187019047Y-137056666D01*
X187161904Y-137056666D01*
X187257142Y-137104285D01*
X187304761Y-137151904D01*
X187352380Y-137247142D01*
X187352380Y-137628095D01*
X186352380Y-137628095D01*
X186352380Y-137294761D01*
X186400000Y-137199523D01*
X186447619Y-137151904D01*
X186542857Y-137104285D01*
X186638095Y-137104285D01*
X186733333Y-137151904D01*
X186780952Y-137199523D01*
X186828571Y-137294761D01*
X186828571Y-137628095D01*
X186352380Y-136628095D02*
X187161904Y-136628095D01*
X187257142Y-136580476D01*
X187304761Y-136532857D01*
X187352380Y-136437619D01*
X187352380Y-136247142D01*
X187304761Y-136151904D01*
X187257142Y-136104285D01*
X187161904Y-136056666D01*
X186352380Y-136056666D01*
X187304761Y-135628095D02*
X187352380Y-135485238D01*
X187352380Y-135247142D01*
X187304761Y-135151904D01*
X187257142Y-135104285D01*
X187161904Y-135056666D01*
X187066666Y-135056666D01*
X186971428Y-135104285D01*
X186923809Y-135151904D01*
X186876190Y-135247142D01*
X186828571Y-135437619D01*
X186780952Y-135532857D01*
X186733333Y-135580476D01*
X186638095Y-135628095D01*
X186542857Y-135628095D01*
X186447619Y-135580476D01*
X186400000Y-135532857D01*
X186352380Y-135437619D01*
X186352380Y-135199523D01*
X186400000Y-135056666D01*
X186352380Y-134723333D02*
X186352380Y-134056666D01*
X187352380Y-134485238D01*
%TO.C,BUS6*%
X160158571Y-137294761D02*
X160206190Y-137151904D01*
X160253809Y-137104285D01*
X160349047Y-137056666D01*
X160491904Y-137056666D01*
X160587142Y-137104285D01*
X160634761Y-137151904D01*
X160682380Y-137247142D01*
X160682380Y-137628095D01*
X159682380Y-137628095D01*
X159682380Y-137294761D01*
X159730000Y-137199523D01*
X159777619Y-137151904D01*
X159872857Y-137104285D01*
X159968095Y-137104285D01*
X160063333Y-137151904D01*
X160110952Y-137199523D01*
X160158571Y-137294761D01*
X160158571Y-137628095D01*
X159682380Y-136628095D02*
X160491904Y-136628095D01*
X160587142Y-136580476D01*
X160634761Y-136532857D01*
X160682380Y-136437619D01*
X160682380Y-136247142D01*
X160634761Y-136151904D01*
X160587142Y-136104285D01*
X160491904Y-136056666D01*
X159682380Y-136056666D01*
X160634761Y-135628095D02*
X160682380Y-135485238D01*
X160682380Y-135247142D01*
X160634761Y-135151904D01*
X160587142Y-135104285D01*
X160491904Y-135056666D01*
X160396666Y-135056666D01*
X160301428Y-135104285D01*
X160253809Y-135151904D01*
X160206190Y-135247142D01*
X160158571Y-135437619D01*
X160110952Y-135532857D01*
X160063333Y-135580476D01*
X159968095Y-135628095D01*
X159872857Y-135628095D01*
X159777619Y-135580476D01*
X159730000Y-135532857D01*
X159682380Y-135437619D01*
X159682380Y-135199523D01*
X159730000Y-135056666D01*
X159682380Y-134199523D02*
X159682380Y-134390000D01*
X159730000Y-134485238D01*
X159777619Y-134532857D01*
X159920476Y-134628095D01*
X160110952Y-134675714D01*
X160491904Y-134675714D01*
X160587142Y-134628095D01*
X160634761Y-134580476D01*
X160682380Y-134485238D01*
X160682380Y-134294761D01*
X160634761Y-134199523D01*
X160587142Y-134151904D01*
X160491904Y-134104285D01*
X160253809Y-134104285D01*
X160158571Y-134151904D01*
X160110952Y-134199523D01*
X160063333Y-134294761D01*
X160063333Y-134485238D01*
X160110952Y-134580476D01*
X160158571Y-134628095D01*
X160253809Y-134675714D01*
%TO.C,BUS5*%
X133488571Y-137294761D02*
X133536190Y-137151904D01*
X133583809Y-137104285D01*
X133679047Y-137056666D01*
X133821904Y-137056666D01*
X133917142Y-137104285D01*
X133964761Y-137151904D01*
X134012380Y-137247142D01*
X134012380Y-137628095D01*
X133012380Y-137628095D01*
X133012380Y-137294761D01*
X133060000Y-137199523D01*
X133107619Y-137151904D01*
X133202857Y-137104285D01*
X133298095Y-137104285D01*
X133393333Y-137151904D01*
X133440952Y-137199523D01*
X133488571Y-137294761D01*
X133488571Y-137628095D01*
X133012380Y-136628095D02*
X133821904Y-136628095D01*
X133917142Y-136580476D01*
X133964761Y-136532857D01*
X134012380Y-136437619D01*
X134012380Y-136247142D01*
X133964761Y-136151904D01*
X133917142Y-136104285D01*
X133821904Y-136056666D01*
X133012380Y-136056666D01*
X133964761Y-135628095D02*
X134012380Y-135485238D01*
X134012380Y-135247142D01*
X133964761Y-135151904D01*
X133917142Y-135104285D01*
X133821904Y-135056666D01*
X133726666Y-135056666D01*
X133631428Y-135104285D01*
X133583809Y-135151904D01*
X133536190Y-135247142D01*
X133488571Y-135437619D01*
X133440952Y-135532857D01*
X133393333Y-135580476D01*
X133298095Y-135628095D01*
X133202857Y-135628095D01*
X133107619Y-135580476D01*
X133060000Y-135532857D01*
X133012380Y-135437619D01*
X133012380Y-135199523D01*
X133060000Y-135056666D01*
X133012380Y-134151904D02*
X133012380Y-134628095D01*
X133488571Y-134675714D01*
X133440952Y-134628095D01*
X133393333Y-134532857D01*
X133393333Y-134294761D01*
X133440952Y-134199523D01*
X133488571Y-134151904D01*
X133583809Y-134104285D01*
X133821904Y-134104285D01*
X133917142Y-134151904D01*
X133964761Y-134199523D01*
X134012380Y-134294761D01*
X134012380Y-134532857D01*
X133964761Y-134628095D01*
X133917142Y-134675714D01*
%TO.C,BUS4*%
X106818571Y-137294761D02*
X106866190Y-137151904D01*
X106913809Y-137104285D01*
X107009047Y-137056666D01*
X107151904Y-137056666D01*
X107247142Y-137104285D01*
X107294761Y-137151904D01*
X107342380Y-137247142D01*
X107342380Y-137628095D01*
X106342380Y-137628095D01*
X106342380Y-137294761D01*
X106390000Y-137199523D01*
X106437619Y-137151904D01*
X106532857Y-137104285D01*
X106628095Y-137104285D01*
X106723333Y-137151904D01*
X106770952Y-137199523D01*
X106818571Y-137294761D01*
X106818571Y-137628095D01*
X106342380Y-136628095D02*
X107151904Y-136628095D01*
X107247142Y-136580476D01*
X107294761Y-136532857D01*
X107342380Y-136437619D01*
X107342380Y-136247142D01*
X107294761Y-136151904D01*
X107247142Y-136104285D01*
X107151904Y-136056666D01*
X106342380Y-136056666D01*
X107294761Y-135628095D02*
X107342380Y-135485238D01*
X107342380Y-135247142D01*
X107294761Y-135151904D01*
X107247142Y-135104285D01*
X107151904Y-135056666D01*
X107056666Y-135056666D01*
X106961428Y-135104285D01*
X106913809Y-135151904D01*
X106866190Y-135247142D01*
X106818571Y-135437619D01*
X106770952Y-135532857D01*
X106723333Y-135580476D01*
X106628095Y-135628095D01*
X106532857Y-135628095D01*
X106437619Y-135580476D01*
X106390000Y-135532857D01*
X106342380Y-135437619D01*
X106342380Y-135199523D01*
X106390000Y-135056666D01*
X106675714Y-134199523D02*
X107342380Y-134199523D01*
X106294761Y-134437619D02*
X107009047Y-134675714D01*
X107009047Y-134056666D01*
%TO.C,BUS3*%
X186828571Y-69984761D02*
X186876190Y-69841904D01*
X186923809Y-69794285D01*
X187019047Y-69746666D01*
X187161904Y-69746666D01*
X187257142Y-69794285D01*
X187304761Y-69841904D01*
X187352380Y-69937142D01*
X187352380Y-70318095D01*
X186352380Y-70318095D01*
X186352380Y-69984761D01*
X186400000Y-69889523D01*
X186447619Y-69841904D01*
X186542857Y-69794285D01*
X186638095Y-69794285D01*
X186733333Y-69841904D01*
X186780952Y-69889523D01*
X186828571Y-69984761D01*
X186828571Y-70318095D01*
X186352380Y-69318095D02*
X187161904Y-69318095D01*
X187257142Y-69270476D01*
X187304761Y-69222857D01*
X187352380Y-69127619D01*
X187352380Y-68937142D01*
X187304761Y-68841904D01*
X187257142Y-68794285D01*
X187161904Y-68746666D01*
X186352380Y-68746666D01*
X187304761Y-68318095D02*
X187352380Y-68175238D01*
X187352380Y-67937142D01*
X187304761Y-67841904D01*
X187257142Y-67794285D01*
X187161904Y-67746666D01*
X187066666Y-67746666D01*
X186971428Y-67794285D01*
X186923809Y-67841904D01*
X186876190Y-67937142D01*
X186828571Y-68127619D01*
X186780952Y-68222857D01*
X186733333Y-68270476D01*
X186638095Y-68318095D01*
X186542857Y-68318095D01*
X186447619Y-68270476D01*
X186400000Y-68222857D01*
X186352380Y-68127619D01*
X186352380Y-67889523D01*
X186400000Y-67746666D01*
X186352380Y-67413333D02*
X186352380Y-66794285D01*
X186733333Y-67127619D01*
X186733333Y-66984761D01*
X186780952Y-66889523D01*
X186828571Y-66841904D01*
X186923809Y-66794285D01*
X187161904Y-66794285D01*
X187257142Y-66841904D01*
X187304761Y-66889523D01*
X187352380Y-66984761D01*
X187352380Y-67270476D01*
X187304761Y-67365714D01*
X187257142Y-67413333D01*
%TO.C,BUS2*%
X160158571Y-69984761D02*
X160206190Y-69841904D01*
X160253809Y-69794285D01*
X160349047Y-69746666D01*
X160491904Y-69746666D01*
X160587142Y-69794285D01*
X160634761Y-69841904D01*
X160682380Y-69937142D01*
X160682380Y-70318095D01*
X159682380Y-70318095D01*
X159682380Y-69984761D01*
X159730000Y-69889523D01*
X159777619Y-69841904D01*
X159872857Y-69794285D01*
X159968095Y-69794285D01*
X160063333Y-69841904D01*
X160110952Y-69889523D01*
X160158571Y-69984761D01*
X160158571Y-70318095D01*
X159682380Y-69318095D02*
X160491904Y-69318095D01*
X160587142Y-69270476D01*
X160634761Y-69222857D01*
X160682380Y-69127619D01*
X160682380Y-68937142D01*
X160634761Y-68841904D01*
X160587142Y-68794285D01*
X160491904Y-68746666D01*
X159682380Y-68746666D01*
X160634761Y-68318095D02*
X160682380Y-68175238D01*
X160682380Y-67937142D01*
X160634761Y-67841904D01*
X160587142Y-67794285D01*
X160491904Y-67746666D01*
X160396666Y-67746666D01*
X160301428Y-67794285D01*
X160253809Y-67841904D01*
X160206190Y-67937142D01*
X160158571Y-68127619D01*
X160110952Y-68222857D01*
X160063333Y-68270476D01*
X159968095Y-68318095D01*
X159872857Y-68318095D01*
X159777619Y-68270476D01*
X159730000Y-68222857D01*
X159682380Y-68127619D01*
X159682380Y-67889523D01*
X159730000Y-67746666D01*
X159777619Y-67365714D02*
X159730000Y-67318095D01*
X159682380Y-67222857D01*
X159682380Y-66984761D01*
X159730000Y-66889523D01*
X159777619Y-66841904D01*
X159872857Y-66794285D01*
X159968095Y-66794285D01*
X160110952Y-66841904D01*
X160682380Y-67413333D01*
X160682380Y-66794285D01*
%TO.C,BUS1*%
X133488571Y-69984761D02*
X133536190Y-69841904D01*
X133583809Y-69794285D01*
X133679047Y-69746666D01*
X133821904Y-69746666D01*
X133917142Y-69794285D01*
X133964761Y-69841904D01*
X134012380Y-69937142D01*
X134012380Y-70318095D01*
X133012380Y-70318095D01*
X133012380Y-69984761D01*
X133060000Y-69889523D01*
X133107619Y-69841904D01*
X133202857Y-69794285D01*
X133298095Y-69794285D01*
X133393333Y-69841904D01*
X133440952Y-69889523D01*
X133488571Y-69984761D01*
X133488571Y-70318095D01*
X133012380Y-69318095D02*
X133821904Y-69318095D01*
X133917142Y-69270476D01*
X133964761Y-69222857D01*
X134012380Y-69127619D01*
X134012380Y-68937142D01*
X133964761Y-68841904D01*
X133917142Y-68794285D01*
X133821904Y-68746666D01*
X133012380Y-68746666D01*
X133964761Y-68318095D02*
X134012380Y-68175238D01*
X134012380Y-67937142D01*
X133964761Y-67841904D01*
X133917142Y-67794285D01*
X133821904Y-67746666D01*
X133726666Y-67746666D01*
X133631428Y-67794285D01*
X133583809Y-67841904D01*
X133536190Y-67937142D01*
X133488571Y-68127619D01*
X133440952Y-68222857D01*
X133393333Y-68270476D01*
X133298095Y-68318095D01*
X133202857Y-68318095D01*
X133107619Y-68270476D01*
X133060000Y-68222857D01*
X133012380Y-68127619D01*
X133012380Y-67889523D01*
X133060000Y-67746666D01*
X134012380Y-66794285D02*
X134012380Y-67365714D01*
X134012380Y-67080000D02*
X133012380Y-67080000D01*
X133155238Y-67175238D01*
X133250476Y-67270476D01*
X133298095Y-67365714D01*
%TO.C,BUS0*%
X106818571Y-69984761D02*
X106866190Y-69841904D01*
X106913809Y-69794285D01*
X107009047Y-69746666D01*
X107151904Y-69746666D01*
X107247142Y-69794285D01*
X107294761Y-69841904D01*
X107342380Y-69937142D01*
X107342380Y-70318095D01*
X106342380Y-70318095D01*
X106342380Y-69984761D01*
X106390000Y-69889523D01*
X106437619Y-69841904D01*
X106532857Y-69794285D01*
X106628095Y-69794285D01*
X106723333Y-69841904D01*
X106770952Y-69889523D01*
X106818571Y-69984761D01*
X106818571Y-70318095D01*
X106342380Y-69318095D02*
X107151904Y-69318095D01*
X107247142Y-69270476D01*
X107294761Y-69222857D01*
X107342380Y-69127619D01*
X107342380Y-68937142D01*
X107294761Y-68841904D01*
X107247142Y-68794285D01*
X107151904Y-68746666D01*
X106342380Y-68746666D01*
X107294761Y-68318095D02*
X107342380Y-68175238D01*
X107342380Y-67937142D01*
X107294761Y-67841904D01*
X107247142Y-67794285D01*
X107151904Y-67746666D01*
X107056666Y-67746666D01*
X106961428Y-67794285D01*
X106913809Y-67841904D01*
X106866190Y-67937142D01*
X106818571Y-68127619D01*
X106770952Y-68222857D01*
X106723333Y-68270476D01*
X106628095Y-68318095D01*
X106532857Y-68318095D01*
X106437619Y-68270476D01*
X106390000Y-68222857D01*
X106342380Y-68127619D01*
X106342380Y-67889523D01*
X106390000Y-67746666D01*
X106342380Y-67127619D02*
X106342380Y-67032380D01*
X106390000Y-66937142D01*
X106437619Y-66889523D01*
X106532857Y-66841904D01*
X106723333Y-66794285D01*
X106961428Y-66794285D01*
X107151904Y-66841904D01*
X107247142Y-66889523D01*
X107294761Y-66937142D01*
X107342380Y-67032380D01*
X107342380Y-67127619D01*
X107294761Y-67222857D01*
X107247142Y-67270476D01*
X107151904Y-67318095D01*
X106961428Y-67365714D01*
X106723333Y-67365714D01*
X106532857Y-67318095D01*
X106437619Y-67270476D01*
X106390000Y-67222857D01*
X106342380Y-67127619D01*
%TD*%
M02*
