%TF.GenerationSoftware,KiCad,Pcbnew,(5.1.9)-1*%
%TF.CreationDate,2021-05-05T20:18:33+02:00*%
%TF.ProjectId,opena3xx-hardware-controller-board,6f70656e-6133-4787-982d-686172647761,rev?*%
%TF.SameCoordinates,Original*%
%TF.FileFunction,Paste,Top*%
%TF.FilePolarity,Positive*%
%FSLAX46Y46*%
G04 Gerber Fmt 4.6, Leading zero omitted, Abs format (unit mm)*
G04 Created by KiCad (PCBNEW (5.1.9)-1) date 2021-05-05 20:18:33*
%MOMM*%
%LPD*%
G01*
G04 APERTURE LIST*
G04 APERTURE END LIST*
%TO.C,U8*%
G36*
G01*
X194495000Y-123675000D02*
X194495000Y-123975000D01*
G75*
G02*
X194345000Y-124125000I-150000J0D01*
G01*
X192595000Y-124125000D01*
G75*
G02*
X192445000Y-123975000I0J150000D01*
G01*
X192445000Y-123675000D01*
G75*
G02*
X192595000Y-123525000I150000J0D01*
G01*
X194345000Y-123525000D01*
G75*
G02*
X194495000Y-123675000I0J-150000D01*
G01*
G37*
G36*
G01*
X194495000Y-122405000D02*
X194495000Y-122705000D01*
G75*
G02*
X194345000Y-122855000I-150000J0D01*
G01*
X192595000Y-122855000D01*
G75*
G02*
X192445000Y-122705000I0J150000D01*
G01*
X192445000Y-122405000D01*
G75*
G02*
X192595000Y-122255000I150000J0D01*
G01*
X194345000Y-122255000D01*
G75*
G02*
X194495000Y-122405000I0J-150000D01*
G01*
G37*
G36*
G01*
X194495000Y-121135000D02*
X194495000Y-121435000D01*
G75*
G02*
X194345000Y-121585000I-150000J0D01*
G01*
X192595000Y-121585000D01*
G75*
G02*
X192445000Y-121435000I0J150000D01*
G01*
X192445000Y-121135000D01*
G75*
G02*
X192595000Y-120985000I150000J0D01*
G01*
X194345000Y-120985000D01*
G75*
G02*
X194495000Y-121135000I0J-150000D01*
G01*
G37*
G36*
G01*
X194495000Y-119865000D02*
X194495000Y-120165000D01*
G75*
G02*
X194345000Y-120315000I-150000J0D01*
G01*
X192595000Y-120315000D01*
G75*
G02*
X192445000Y-120165000I0J150000D01*
G01*
X192445000Y-119865000D01*
G75*
G02*
X192595000Y-119715000I150000J0D01*
G01*
X194345000Y-119715000D01*
G75*
G02*
X194495000Y-119865000I0J-150000D01*
G01*
G37*
G36*
G01*
X194495000Y-118595000D02*
X194495000Y-118895000D01*
G75*
G02*
X194345000Y-119045000I-150000J0D01*
G01*
X192595000Y-119045000D01*
G75*
G02*
X192445000Y-118895000I0J150000D01*
G01*
X192445000Y-118595000D01*
G75*
G02*
X192595000Y-118445000I150000J0D01*
G01*
X194345000Y-118445000D01*
G75*
G02*
X194495000Y-118595000I0J-150000D01*
G01*
G37*
G36*
G01*
X194495000Y-117325000D02*
X194495000Y-117625000D01*
G75*
G02*
X194345000Y-117775000I-150000J0D01*
G01*
X192595000Y-117775000D01*
G75*
G02*
X192445000Y-117625000I0J150000D01*
G01*
X192445000Y-117325000D01*
G75*
G02*
X192595000Y-117175000I150000J0D01*
G01*
X194345000Y-117175000D01*
G75*
G02*
X194495000Y-117325000I0J-150000D01*
G01*
G37*
G36*
G01*
X194495000Y-116055000D02*
X194495000Y-116355000D01*
G75*
G02*
X194345000Y-116505000I-150000J0D01*
G01*
X192595000Y-116505000D01*
G75*
G02*
X192445000Y-116355000I0J150000D01*
G01*
X192445000Y-116055000D01*
G75*
G02*
X192595000Y-115905000I150000J0D01*
G01*
X194345000Y-115905000D01*
G75*
G02*
X194495000Y-116055000I0J-150000D01*
G01*
G37*
G36*
G01*
X194495000Y-114785000D02*
X194495000Y-115085000D01*
G75*
G02*
X194345000Y-115235000I-150000J0D01*
G01*
X192595000Y-115235000D01*
G75*
G02*
X192445000Y-115085000I0J150000D01*
G01*
X192445000Y-114785000D01*
G75*
G02*
X192595000Y-114635000I150000J0D01*
G01*
X194345000Y-114635000D01*
G75*
G02*
X194495000Y-114785000I0J-150000D01*
G01*
G37*
G36*
G01*
X194495000Y-113515000D02*
X194495000Y-113815000D01*
G75*
G02*
X194345000Y-113965000I-150000J0D01*
G01*
X192595000Y-113965000D01*
G75*
G02*
X192445000Y-113815000I0J150000D01*
G01*
X192445000Y-113515000D01*
G75*
G02*
X192595000Y-113365000I150000J0D01*
G01*
X194345000Y-113365000D01*
G75*
G02*
X194495000Y-113515000I0J-150000D01*
G01*
G37*
G36*
G01*
X194495000Y-112245000D02*
X194495000Y-112545000D01*
G75*
G02*
X194345000Y-112695000I-150000J0D01*
G01*
X192595000Y-112695000D01*
G75*
G02*
X192445000Y-112545000I0J150000D01*
G01*
X192445000Y-112245000D01*
G75*
G02*
X192595000Y-112095000I150000J0D01*
G01*
X194345000Y-112095000D01*
G75*
G02*
X194495000Y-112245000I0J-150000D01*
G01*
G37*
G36*
G01*
X194495000Y-110975000D02*
X194495000Y-111275000D01*
G75*
G02*
X194345000Y-111425000I-150000J0D01*
G01*
X192595000Y-111425000D01*
G75*
G02*
X192445000Y-111275000I0J150000D01*
G01*
X192445000Y-110975000D01*
G75*
G02*
X192595000Y-110825000I150000J0D01*
G01*
X194345000Y-110825000D01*
G75*
G02*
X194495000Y-110975000I0J-150000D01*
G01*
G37*
G36*
G01*
X194495000Y-109705000D02*
X194495000Y-110005000D01*
G75*
G02*
X194345000Y-110155000I-150000J0D01*
G01*
X192595000Y-110155000D01*
G75*
G02*
X192445000Y-110005000I0J150000D01*
G01*
X192445000Y-109705000D01*
G75*
G02*
X192595000Y-109555000I150000J0D01*
G01*
X194345000Y-109555000D01*
G75*
G02*
X194495000Y-109705000I0J-150000D01*
G01*
G37*
G36*
G01*
X194495000Y-108435000D02*
X194495000Y-108735000D01*
G75*
G02*
X194345000Y-108885000I-150000J0D01*
G01*
X192595000Y-108885000D01*
G75*
G02*
X192445000Y-108735000I0J150000D01*
G01*
X192445000Y-108435000D01*
G75*
G02*
X192595000Y-108285000I150000J0D01*
G01*
X194345000Y-108285000D01*
G75*
G02*
X194495000Y-108435000I0J-150000D01*
G01*
G37*
G36*
G01*
X194495000Y-107165000D02*
X194495000Y-107465000D01*
G75*
G02*
X194345000Y-107615000I-150000J0D01*
G01*
X192595000Y-107615000D01*
G75*
G02*
X192445000Y-107465000I0J150000D01*
G01*
X192445000Y-107165000D01*
G75*
G02*
X192595000Y-107015000I150000J0D01*
G01*
X194345000Y-107015000D01*
G75*
G02*
X194495000Y-107165000I0J-150000D01*
G01*
G37*
G36*
G01*
X203795000Y-107165000D02*
X203795000Y-107465000D01*
G75*
G02*
X203645000Y-107615000I-150000J0D01*
G01*
X201895000Y-107615000D01*
G75*
G02*
X201745000Y-107465000I0J150000D01*
G01*
X201745000Y-107165000D01*
G75*
G02*
X201895000Y-107015000I150000J0D01*
G01*
X203645000Y-107015000D01*
G75*
G02*
X203795000Y-107165000I0J-150000D01*
G01*
G37*
G36*
G01*
X203795000Y-108435000D02*
X203795000Y-108735000D01*
G75*
G02*
X203645000Y-108885000I-150000J0D01*
G01*
X201895000Y-108885000D01*
G75*
G02*
X201745000Y-108735000I0J150000D01*
G01*
X201745000Y-108435000D01*
G75*
G02*
X201895000Y-108285000I150000J0D01*
G01*
X203645000Y-108285000D01*
G75*
G02*
X203795000Y-108435000I0J-150000D01*
G01*
G37*
G36*
G01*
X203795000Y-109705000D02*
X203795000Y-110005000D01*
G75*
G02*
X203645000Y-110155000I-150000J0D01*
G01*
X201895000Y-110155000D01*
G75*
G02*
X201745000Y-110005000I0J150000D01*
G01*
X201745000Y-109705000D01*
G75*
G02*
X201895000Y-109555000I150000J0D01*
G01*
X203645000Y-109555000D01*
G75*
G02*
X203795000Y-109705000I0J-150000D01*
G01*
G37*
G36*
G01*
X203795000Y-110975000D02*
X203795000Y-111275000D01*
G75*
G02*
X203645000Y-111425000I-150000J0D01*
G01*
X201895000Y-111425000D01*
G75*
G02*
X201745000Y-111275000I0J150000D01*
G01*
X201745000Y-110975000D01*
G75*
G02*
X201895000Y-110825000I150000J0D01*
G01*
X203645000Y-110825000D01*
G75*
G02*
X203795000Y-110975000I0J-150000D01*
G01*
G37*
G36*
G01*
X203795000Y-112245000D02*
X203795000Y-112545000D01*
G75*
G02*
X203645000Y-112695000I-150000J0D01*
G01*
X201895000Y-112695000D01*
G75*
G02*
X201745000Y-112545000I0J150000D01*
G01*
X201745000Y-112245000D01*
G75*
G02*
X201895000Y-112095000I150000J0D01*
G01*
X203645000Y-112095000D01*
G75*
G02*
X203795000Y-112245000I0J-150000D01*
G01*
G37*
G36*
G01*
X203795000Y-113515000D02*
X203795000Y-113815000D01*
G75*
G02*
X203645000Y-113965000I-150000J0D01*
G01*
X201895000Y-113965000D01*
G75*
G02*
X201745000Y-113815000I0J150000D01*
G01*
X201745000Y-113515000D01*
G75*
G02*
X201895000Y-113365000I150000J0D01*
G01*
X203645000Y-113365000D01*
G75*
G02*
X203795000Y-113515000I0J-150000D01*
G01*
G37*
G36*
G01*
X203795000Y-114785000D02*
X203795000Y-115085000D01*
G75*
G02*
X203645000Y-115235000I-150000J0D01*
G01*
X201895000Y-115235000D01*
G75*
G02*
X201745000Y-115085000I0J150000D01*
G01*
X201745000Y-114785000D01*
G75*
G02*
X201895000Y-114635000I150000J0D01*
G01*
X203645000Y-114635000D01*
G75*
G02*
X203795000Y-114785000I0J-150000D01*
G01*
G37*
G36*
G01*
X203795000Y-116055000D02*
X203795000Y-116355000D01*
G75*
G02*
X203645000Y-116505000I-150000J0D01*
G01*
X201895000Y-116505000D01*
G75*
G02*
X201745000Y-116355000I0J150000D01*
G01*
X201745000Y-116055000D01*
G75*
G02*
X201895000Y-115905000I150000J0D01*
G01*
X203645000Y-115905000D01*
G75*
G02*
X203795000Y-116055000I0J-150000D01*
G01*
G37*
G36*
G01*
X203795000Y-117325000D02*
X203795000Y-117625000D01*
G75*
G02*
X203645000Y-117775000I-150000J0D01*
G01*
X201895000Y-117775000D01*
G75*
G02*
X201745000Y-117625000I0J150000D01*
G01*
X201745000Y-117325000D01*
G75*
G02*
X201895000Y-117175000I150000J0D01*
G01*
X203645000Y-117175000D01*
G75*
G02*
X203795000Y-117325000I0J-150000D01*
G01*
G37*
G36*
G01*
X203795000Y-118595000D02*
X203795000Y-118895000D01*
G75*
G02*
X203645000Y-119045000I-150000J0D01*
G01*
X201895000Y-119045000D01*
G75*
G02*
X201745000Y-118895000I0J150000D01*
G01*
X201745000Y-118595000D01*
G75*
G02*
X201895000Y-118445000I150000J0D01*
G01*
X203645000Y-118445000D01*
G75*
G02*
X203795000Y-118595000I0J-150000D01*
G01*
G37*
G36*
G01*
X203795000Y-119865000D02*
X203795000Y-120165000D01*
G75*
G02*
X203645000Y-120315000I-150000J0D01*
G01*
X201895000Y-120315000D01*
G75*
G02*
X201745000Y-120165000I0J150000D01*
G01*
X201745000Y-119865000D01*
G75*
G02*
X201895000Y-119715000I150000J0D01*
G01*
X203645000Y-119715000D01*
G75*
G02*
X203795000Y-119865000I0J-150000D01*
G01*
G37*
G36*
G01*
X203795000Y-121135000D02*
X203795000Y-121435000D01*
G75*
G02*
X203645000Y-121585000I-150000J0D01*
G01*
X201895000Y-121585000D01*
G75*
G02*
X201745000Y-121435000I0J150000D01*
G01*
X201745000Y-121135000D01*
G75*
G02*
X201895000Y-120985000I150000J0D01*
G01*
X203645000Y-120985000D01*
G75*
G02*
X203795000Y-121135000I0J-150000D01*
G01*
G37*
G36*
G01*
X203795000Y-122405000D02*
X203795000Y-122705000D01*
G75*
G02*
X203645000Y-122855000I-150000J0D01*
G01*
X201895000Y-122855000D01*
G75*
G02*
X201745000Y-122705000I0J150000D01*
G01*
X201745000Y-122405000D01*
G75*
G02*
X201895000Y-122255000I150000J0D01*
G01*
X203645000Y-122255000D01*
G75*
G02*
X203795000Y-122405000I0J-150000D01*
G01*
G37*
G36*
G01*
X203795000Y-123675000D02*
X203795000Y-123975000D01*
G75*
G02*
X203645000Y-124125000I-150000J0D01*
G01*
X201895000Y-124125000D01*
G75*
G02*
X201745000Y-123975000I0J150000D01*
G01*
X201745000Y-123675000D01*
G75*
G02*
X201895000Y-123525000I150000J0D01*
G01*
X203645000Y-123525000D01*
G75*
G02*
X203795000Y-123675000I0J-150000D01*
G01*
G37*
%TD*%
%TO.C,U7*%
G36*
G01*
X167825000Y-123675000D02*
X167825000Y-123975000D01*
G75*
G02*
X167675000Y-124125000I-150000J0D01*
G01*
X165925000Y-124125000D01*
G75*
G02*
X165775000Y-123975000I0J150000D01*
G01*
X165775000Y-123675000D01*
G75*
G02*
X165925000Y-123525000I150000J0D01*
G01*
X167675000Y-123525000D01*
G75*
G02*
X167825000Y-123675000I0J-150000D01*
G01*
G37*
G36*
G01*
X167825000Y-122405000D02*
X167825000Y-122705000D01*
G75*
G02*
X167675000Y-122855000I-150000J0D01*
G01*
X165925000Y-122855000D01*
G75*
G02*
X165775000Y-122705000I0J150000D01*
G01*
X165775000Y-122405000D01*
G75*
G02*
X165925000Y-122255000I150000J0D01*
G01*
X167675000Y-122255000D01*
G75*
G02*
X167825000Y-122405000I0J-150000D01*
G01*
G37*
G36*
G01*
X167825000Y-121135000D02*
X167825000Y-121435000D01*
G75*
G02*
X167675000Y-121585000I-150000J0D01*
G01*
X165925000Y-121585000D01*
G75*
G02*
X165775000Y-121435000I0J150000D01*
G01*
X165775000Y-121135000D01*
G75*
G02*
X165925000Y-120985000I150000J0D01*
G01*
X167675000Y-120985000D01*
G75*
G02*
X167825000Y-121135000I0J-150000D01*
G01*
G37*
G36*
G01*
X167825000Y-119865000D02*
X167825000Y-120165000D01*
G75*
G02*
X167675000Y-120315000I-150000J0D01*
G01*
X165925000Y-120315000D01*
G75*
G02*
X165775000Y-120165000I0J150000D01*
G01*
X165775000Y-119865000D01*
G75*
G02*
X165925000Y-119715000I150000J0D01*
G01*
X167675000Y-119715000D01*
G75*
G02*
X167825000Y-119865000I0J-150000D01*
G01*
G37*
G36*
G01*
X167825000Y-118595000D02*
X167825000Y-118895000D01*
G75*
G02*
X167675000Y-119045000I-150000J0D01*
G01*
X165925000Y-119045000D01*
G75*
G02*
X165775000Y-118895000I0J150000D01*
G01*
X165775000Y-118595000D01*
G75*
G02*
X165925000Y-118445000I150000J0D01*
G01*
X167675000Y-118445000D01*
G75*
G02*
X167825000Y-118595000I0J-150000D01*
G01*
G37*
G36*
G01*
X167825000Y-117325000D02*
X167825000Y-117625000D01*
G75*
G02*
X167675000Y-117775000I-150000J0D01*
G01*
X165925000Y-117775000D01*
G75*
G02*
X165775000Y-117625000I0J150000D01*
G01*
X165775000Y-117325000D01*
G75*
G02*
X165925000Y-117175000I150000J0D01*
G01*
X167675000Y-117175000D01*
G75*
G02*
X167825000Y-117325000I0J-150000D01*
G01*
G37*
G36*
G01*
X167825000Y-116055000D02*
X167825000Y-116355000D01*
G75*
G02*
X167675000Y-116505000I-150000J0D01*
G01*
X165925000Y-116505000D01*
G75*
G02*
X165775000Y-116355000I0J150000D01*
G01*
X165775000Y-116055000D01*
G75*
G02*
X165925000Y-115905000I150000J0D01*
G01*
X167675000Y-115905000D01*
G75*
G02*
X167825000Y-116055000I0J-150000D01*
G01*
G37*
G36*
G01*
X167825000Y-114785000D02*
X167825000Y-115085000D01*
G75*
G02*
X167675000Y-115235000I-150000J0D01*
G01*
X165925000Y-115235000D01*
G75*
G02*
X165775000Y-115085000I0J150000D01*
G01*
X165775000Y-114785000D01*
G75*
G02*
X165925000Y-114635000I150000J0D01*
G01*
X167675000Y-114635000D01*
G75*
G02*
X167825000Y-114785000I0J-150000D01*
G01*
G37*
G36*
G01*
X167825000Y-113515000D02*
X167825000Y-113815000D01*
G75*
G02*
X167675000Y-113965000I-150000J0D01*
G01*
X165925000Y-113965000D01*
G75*
G02*
X165775000Y-113815000I0J150000D01*
G01*
X165775000Y-113515000D01*
G75*
G02*
X165925000Y-113365000I150000J0D01*
G01*
X167675000Y-113365000D01*
G75*
G02*
X167825000Y-113515000I0J-150000D01*
G01*
G37*
G36*
G01*
X167825000Y-112245000D02*
X167825000Y-112545000D01*
G75*
G02*
X167675000Y-112695000I-150000J0D01*
G01*
X165925000Y-112695000D01*
G75*
G02*
X165775000Y-112545000I0J150000D01*
G01*
X165775000Y-112245000D01*
G75*
G02*
X165925000Y-112095000I150000J0D01*
G01*
X167675000Y-112095000D01*
G75*
G02*
X167825000Y-112245000I0J-150000D01*
G01*
G37*
G36*
G01*
X167825000Y-110975000D02*
X167825000Y-111275000D01*
G75*
G02*
X167675000Y-111425000I-150000J0D01*
G01*
X165925000Y-111425000D01*
G75*
G02*
X165775000Y-111275000I0J150000D01*
G01*
X165775000Y-110975000D01*
G75*
G02*
X165925000Y-110825000I150000J0D01*
G01*
X167675000Y-110825000D01*
G75*
G02*
X167825000Y-110975000I0J-150000D01*
G01*
G37*
G36*
G01*
X167825000Y-109705000D02*
X167825000Y-110005000D01*
G75*
G02*
X167675000Y-110155000I-150000J0D01*
G01*
X165925000Y-110155000D01*
G75*
G02*
X165775000Y-110005000I0J150000D01*
G01*
X165775000Y-109705000D01*
G75*
G02*
X165925000Y-109555000I150000J0D01*
G01*
X167675000Y-109555000D01*
G75*
G02*
X167825000Y-109705000I0J-150000D01*
G01*
G37*
G36*
G01*
X167825000Y-108435000D02*
X167825000Y-108735000D01*
G75*
G02*
X167675000Y-108885000I-150000J0D01*
G01*
X165925000Y-108885000D01*
G75*
G02*
X165775000Y-108735000I0J150000D01*
G01*
X165775000Y-108435000D01*
G75*
G02*
X165925000Y-108285000I150000J0D01*
G01*
X167675000Y-108285000D01*
G75*
G02*
X167825000Y-108435000I0J-150000D01*
G01*
G37*
G36*
G01*
X167825000Y-107165000D02*
X167825000Y-107465000D01*
G75*
G02*
X167675000Y-107615000I-150000J0D01*
G01*
X165925000Y-107615000D01*
G75*
G02*
X165775000Y-107465000I0J150000D01*
G01*
X165775000Y-107165000D01*
G75*
G02*
X165925000Y-107015000I150000J0D01*
G01*
X167675000Y-107015000D01*
G75*
G02*
X167825000Y-107165000I0J-150000D01*
G01*
G37*
G36*
G01*
X177125000Y-107165000D02*
X177125000Y-107465000D01*
G75*
G02*
X176975000Y-107615000I-150000J0D01*
G01*
X175225000Y-107615000D01*
G75*
G02*
X175075000Y-107465000I0J150000D01*
G01*
X175075000Y-107165000D01*
G75*
G02*
X175225000Y-107015000I150000J0D01*
G01*
X176975000Y-107015000D01*
G75*
G02*
X177125000Y-107165000I0J-150000D01*
G01*
G37*
G36*
G01*
X177125000Y-108435000D02*
X177125000Y-108735000D01*
G75*
G02*
X176975000Y-108885000I-150000J0D01*
G01*
X175225000Y-108885000D01*
G75*
G02*
X175075000Y-108735000I0J150000D01*
G01*
X175075000Y-108435000D01*
G75*
G02*
X175225000Y-108285000I150000J0D01*
G01*
X176975000Y-108285000D01*
G75*
G02*
X177125000Y-108435000I0J-150000D01*
G01*
G37*
G36*
G01*
X177125000Y-109705000D02*
X177125000Y-110005000D01*
G75*
G02*
X176975000Y-110155000I-150000J0D01*
G01*
X175225000Y-110155000D01*
G75*
G02*
X175075000Y-110005000I0J150000D01*
G01*
X175075000Y-109705000D01*
G75*
G02*
X175225000Y-109555000I150000J0D01*
G01*
X176975000Y-109555000D01*
G75*
G02*
X177125000Y-109705000I0J-150000D01*
G01*
G37*
G36*
G01*
X177125000Y-110975000D02*
X177125000Y-111275000D01*
G75*
G02*
X176975000Y-111425000I-150000J0D01*
G01*
X175225000Y-111425000D01*
G75*
G02*
X175075000Y-111275000I0J150000D01*
G01*
X175075000Y-110975000D01*
G75*
G02*
X175225000Y-110825000I150000J0D01*
G01*
X176975000Y-110825000D01*
G75*
G02*
X177125000Y-110975000I0J-150000D01*
G01*
G37*
G36*
G01*
X177125000Y-112245000D02*
X177125000Y-112545000D01*
G75*
G02*
X176975000Y-112695000I-150000J0D01*
G01*
X175225000Y-112695000D01*
G75*
G02*
X175075000Y-112545000I0J150000D01*
G01*
X175075000Y-112245000D01*
G75*
G02*
X175225000Y-112095000I150000J0D01*
G01*
X176975000Y-112095000D01*
G75*
G02*
X177125000Y-112245000I0J-150000D01*
G01*
G37*
G36*
G01*
X177125000Y-113515000D02*
X177125000Y-113815000D01*
G75*
G02*
X176975000Y-113965000I-150000J0D01*
G01*
X175225000Y-113965000D01*
G75*
G02*
X175075000Y-113815000I0J150000D01*
G01*
X175075000Y-113515000D01*
G75*
G02*
X175225000Y-113365000I150000J0D01*
G01*
X176975000Y-113365000D01*
G75*
G02*
X177125000Y-113515000I0J-150000D01*
G01*
G37*
G36*
G01*
X177125000Y-114785000D02*
X177125000Y-115085000D01*
G75*
G02*
X176975000Y-115235000I-150000J0D01*
G01*
X175225000Y-115235000D01*
G75*
G02*
X175075000Y-115085000I0J150000D01*
G01*
X175075000Y-114785000D01*
G75*
G02*
X175225000Y-114635000I150000J0D01*
G01*
X176975000Y-114635000D01*
G75*
G02*
X177125000Y-114785000I0J-150000D01*
G01*
G37*
G36*
G01*
X177125000Y-116055000D02*
X177125000Y-116355000D01*
G75*
G02*
X176975000Y-116505000I-150000J0D01*
G01*
X175225000Y-116505000D01*
G75*
G02*
X175075000Y-116355000I0J150000D01*
G01*
X175075000Y-116055000D01*
G75*
G02*
X175225000Y-115905000I150000J0D01*
G01*
X176975000Y-115905000D01*
G75*
G02*
X177125000Y-116055000I0J-150000D01*
G01*
G37*
G36*
G01*
X177125000Y-117325000D02*
X177125000Y-117625000D01*
G75*
G02*
X176975000Y-117775000I-150000J0D01*
G01*
X175225000Y-117775000D01*
G75*
G02*
X175075000Y-117625000I0J150000D01*
G01*
X175075000Y-117325000D01*
G75*
G02*
X175225000Y-117175000I150000J0D01*
G01*
X176975000Y-117175000D01*
G75*
G02*
X177125000Y-117325000I0J-150000D01*
G01*
G37*
G36*
G01*
X177125000Y-118595000D02*
X177125000Y-118895000D01*
G75*
G02*
X176975000Y-119045000I-150000J0D01*
G01*
X175225000Y-119045000D01*
G75*
G02*
X175075000Y-118895000I0J150000D01*
G01*
X175075000Y-118595000D01*
G75*
G02*
X175225000Y-118445000I150000J0D01*
G01*
X176975000Y-118445000D01*
G75*
G02*
X177125000Y-118595000I0J-150000D01*
G01*
G37*
G36*
G01*
X177125000Y-119865000D02*
X177125000Y-120165000D01*
G75*
G02*
X176975000Y-120315000I-150000J0D01*
G01*
X175225000Y-120315000D01*
G75*
G02*
X175075000Y-120165000I0J150000D01*
G01*
X175075000Y-119865000D01*
G75*
G02*
X175225000Y-119715000I150000J0D01*
G01*
X176975000Y-119715000D01*
G75*
G02*
X177125000Y-119865000I0J-150000D01*
G01*
G37*
G36*
G01*
X177125000Y-121135000D02*
X177125000Y-121435000D01*
G75*
G02*
X176975000Y-121585000I-150000J0D01*
G01*
X175225000Y-121585000D01*
G75*
G02*
X175075000Y-121435000I0J150000D01*
G01*
X175075000Y-121135000D01*
G75*
G02*
X175225000Y-120985000I150000J0D01*
G01*
X176975000Y-120985000D01*
G75*
G02*
X177125000Y-121135000I0J-150000D01*
G01*
G37*
G36*
G01*
X177125000Y-122405000D02*
X177125000Y-122705000D01*
G75*
G02*
X176975000Y-122855000I-150000J0D01*
G01*
X175225000Y-122855000D01*
G75*
G02*
X175075000Y-122705000I0J150000D01*
G01*
X175075000Y-122405000D01*
G75*
G02*
X175225000Y-122255000I150000J0D01*
G01*
X176975000Y-122255000D01*
G75*
G02*
X177125000Y-122405000I0J-150000D01*
G01*
G37*
G36*
G01*
X177125000Y-123675000D02*
X177125000Y-123975000D01*
G75*
G02*
X176975000Y-124125000I-150000J0D01*
G01*
X175225000Y-124125000D01*
G75*
G02*
X175075000Y-123975000I0J150000D01*
G01*
X175075000Y-123675000D01*
G75*
G02*
X175225000Y-123525000I150000J0D01*
G01*
X176975000Y-123525000D01*
G75*
G02*
X177125000Y-123675000I0J-150000D01*
G01*
G37*
%TD*%
%TO.C,U6*%
G36*
G01*
X141155000Y-123675000D02*
X141155000Y-123975000D01*
G75*
G02*
X141005000Y-124125000I-150000J0D01*
G01*
X139255000Y-124125000D01*
G75*
G02*
X139105000Y-123975000I0J150000D01*
G01*
X139105000Y-123675000D01*
G75*
G02*
X139255000Y-123525000I150000J0D01*
G01*
X141005000Y-123525000D01*
G75*
G02*
X141155000Y-123675000I0J-150000D01*
G01*
G37*
G36*
G01*
X141155000Y-122405000D02*
X141155000Y-122705000D01*
G75*
G02*
X141005000Y-122855000I-150000J0D01*
G01*
X139255000Y-122855000D01*
G75*
G02*
X139105000Y-122705000I0J150000D01*
G01*
X139105000Y-122405000D01*
G75*
G02*
X139255000Y-122255000I150000J0D01*
G01*
X141005000Y-122255000D01*
G75*
G02*
X141155000Y-122405000I0J-150000D01*
G01*
G37*
G36*
G01*
X141155000Y-121135000D02*
X141155000Y-121435000D01*
G75*
G02*
X141005000Y-121585000I-150000J0D01*
G01*
X139255000Y-121585000D01*
G75*
G02*
X139105000Y-121435000I0J150000D01*
G01*
X139105000Y-121135000D01*
G75*
G02*
X139255000Y-120985000I150000J0D01*
G01*
X141005000Y-120985000D01*
G75*
G02*
X141155000Y-121135000I0J-150000D01*
G01*
G37*
G36*
G01*
X141155000Y-119865000D02*
X141155000Y-120165000D01*
G75*
G02*
X141005000Y-120315000I-150000J0D01*
G01*
X139255000Y-120315000D01*
G75*
G02*
X139105000Y-120165000I0J150000D01*
G01*
X139105000Y-119865000D01*
G75*
G02*
X139255000Y-119715000I150000J0D01*
G01*
X141005000Y-119715000D01*
G75*
G02*
X141155000Y-119865000I0J-150000D01*
G01*
G37*
G36*
G01*
X141155000Y-118595000D02*
X141155000Y-118895000D01*
G75*
G02*
X141005000Y-119045000I-150000J0D01*
G01*
X139255000Y-119045000D01*
G75*
G02*
X139105000Y-118895000I0J150000D01*
G01*
X139105000Y-118595000D01*
G75*
G02*
X139255000Y-118445000I150000J0D01*
G01*
X141005000Y-118445000D01*
G75*
G02*
X141155000Y-118595000I0J-150000D01*
G01*
G37*
G36*
G01*
X141155000Y-117325000D02*
X141155000Y-117625000D01*
G75*
G02*
X141005000Y-117775000I-150000J0D01*
G01*
X139255000Y-117775000D01*
G75*
G02*
X139105000Y-117625000I0J150000D01*
G01*
X139105000Y-117325000D01*
G75*
G02*
X139255000Y-117175000I150000J0D01*
G01*
X141005000Y-117175000D01*
G75*
G02*
X141155000Y-117325000I0J-150000D01*
G01*
G37*
G36*
G01*
X141155000Y-116055000D02*
X141155000Y-116355000D01*
G75*
G02*
X141005000Y-116505000I-150000J0D01*
G01*
X139255000Y-116505000D01*
G75*
G02*
X139105000Y-116355000I0J150000D01*
G01*
X139105000Y-116055000D01*
G75*
G02*
X139255000Y-115905000I150000J0D01*
G01*
X141005000Y-115905000D01*
G75*
G02*
X141155000Y-116055000I0J-150000D01*
G01*
G37*
G36*
G01*
X141155000Y-114785000D02*
X141155000Y-115085000D01*
G75*
G02*
X141005000Y-115235000I-150000J0D01*
G01*
X139255000Y-115235000D01*
G75*
G02*
X139105000Y-115085000I0J150000D01*
G01*
X139105000Y-114785000D01*
G75*
G02*
X139255000Y-114635000I150000J0D01*
G01*
X141005000Y-114635000D01*
G75*
G02*
X141155000Y-114785000I0J-150000D01*
G01*
G37*
G36*
G01*
X141155000Y-113515000D02*
X141155000Y-113815000D01*
G75*
G02*
X141005000Y-113965000I-150000J0D01*
G01*
X139255000Y-113965000D01*
G75*
G02*
X139105000Y-113815000I0J150000D01*
G01*
X139105000Y-113515000D01*
G75*
G02*
X139255000Y-113365000I150000J0D01*
G01*
X141005000Y-113365000D01*
G75*
G02*
X141155000Y-113515000I0J-150000D01*
G01*
G37*
G36*
G01*
X141155000Y-112245000D02*
X141155000Y-112545000D01*
G75*
G02*
X141005000Y-112695000I-150000J0D01*
G01*
X139255000Y-112695000D01*
G75*
G02*
X139105000Y-112545000I0J150000D01*
G01*
X139105000Y-112245000D01*
G75*
G02*
X139255000Y-112095000I150000J0D01*
G01*
X141005000Y-112095000D01*
G75*
G02*
X141155000Y-112245000I0J-150000D01*
G01*
G37*
G36*
G01*
X141155000Y-110975000D02*
X141155000Y-111275000D01*
G75*
G02*
X141005000Y-111425000I-150000J0D01*
G01*
X139255000Y-111425000D01*
G75*
G02*
X139105000Y-111275000I0J150000D01*
G01*
X139105000Y-110975000D01*
G75*
G02*
X139255000Y-110825000I150000J0D01*
G01*
X141005000Y-110825000D01*
G75*
G02*
X141155000Y-110975000I0J-150000D01*
G01*
G37*
G36*
G01*
X141155000Y-109705000D02*
X141155000Y-110005000D01*
G75*
G02*
X141005000Y-110155000I-150000J0D01*
G01*
X139255000Y-110155000D01*
G75*
G02*
X139105000Y-110005000I0J150000D01*
G01*
X139105000Y-109705000D01*
G75*
G02*
X139255000Y-109555000I150000J0D01*
G01*
X141005000Y-109555000D01*
G75*
G02*
X141155000Y-109705000I0J-150000D01*
G01*
G37*
G36*
G01*
X141155000Y-108435000D02*
X141155000Y-108735000D01*
G75*
G02*
X141005000Y-108885000I-150000J0D01*
G01*
X139255000Y-108885000D01*
G75*
G02*
X139105000Y-108735000I0J150000D01*
G01*
X139105000Y-108435000D01*
G75*
G02*
X139255000Y-108285000I150000J0D01*
G01*
X141005000Y-108285000D01*
G75*
G02*
X141155000Y-108435000I0J-150000D01*
G01*
G37*
G36*
G01*
X141155000Y-107165000D02*
X141155000Y-107465000D01*
G75*
G02*
X141005000Y-107615000I-150000J0D01*
G01*
X139255000Y-107615000D01*
G75*
G02*
X139105000Y-107465000I0J150000D01*
G01*
X139105000Y-107165000D01*
G75*
G02*
X139255000Y-107015000I150000J0D01*
G01*
X141005000Y-107015000D01*
G75*
G02*
X141155000Y-107165000I0J-150000D01*
G01*
G37*
G36*
G01*
X150455000Y-107165000D02*
X150455000Y-107465000D01*
G75*
G02*
X150305000Y-107615000I-150000J0D01*
G01*
X148555000Y-107615000D01*
G75*
G02*
X148405000Y-107465000I0J150000D01*
G01*
X148405000Y-107165000D01*
G75*
G02*
X148555000Y-107015000I150000J0D01*
G01*
X150305000Y-107015000D01*
G75*
G02*
X150455000Y-107165000I0J-150000D01*
G01*
G37*
G36*
G01*
X150455000Y-108435000D02*
X150455000Y-108735000D01*
G75*
G02*
X150305000Y-108885000I-150000J0D01*
G01*
X148555000Y-108885000D01*
G75*
G02*
X148405000Y-108735000I0J150000D01*
G01*
X148405000Y-108435000D01*
G75*
G02*
X148555000Y-108285000I150000J0D01*
G01*
X150305000Y-108285000D01*
G75*
G02*
X150455000Y-108435000I0J-150000D01*
G01*
G37*
G36*
G01*
X150455000Y-109705000D02*
X150455000Y-110005000D01*
G75*
G02*
X150305000Y-110155000I-150000J0D01*
G01*
X148555000Y-110155000D01*
G75*
G02*
X148405000Y-110005000I0J150000D01*
G01*
X148405000Y-109705000D01*
G75*
G02*
X148555000Y-109555000I150000J0D01*
G01*
X150305000Y-109555000D01*
G75*
G02*
X150455000Y-109705000I0J-150000D01*
G01*
G37*
G36*
G01*
X150455000Y-110975000D02*
X150455000Y-111275000D01*
G75*
G02*
X150305000Y-111425000I-150000J0D01*
G01*
X148555000Y-111425000D01*
G75*
G02*
X148405000Y-111275000I0J150000D01*
G01*
X148405000Y-110975000D01*
G75*
G02*
X148555000Y-110825000I150000J0D01*
G01*
X150305000Y-110825000D01*
G75*
G02*
X150455000Y-110975000I0J-150000D01*
G01*
G37*
G36*
G01*
X150455000Y-112245000D02*
X150455000Y-112545000D01*
G75*
G02*
X150305000Y-112695000I-150000J0D01*
G01*
X148555000Y-112695000D01*
G75*
G02*
X148405000Y-112545000I0J150000D01*
G01*
X148405000Y-112245000D01*
G75*
G02*
X148555000Y-112095000I150000J0D01*
G01*
X150305000Y-112095000D01*
G75*
G02*
X150455000Y-112245000I0J-150000D01*
G01*
G37*
G36*
G01*
X150455000Y-113515000D02*
X150455000Y-113815000D01*
G75*
G02*
X150305000Y-113965000I-150000J0D01*
G01*
X148555000Y-113965000D01*
G75*
G02*
X148405000Y-113815000I0J150000D01*
G01*
X148405000Y-113515000D01*
G75*
G02*
X148555000Y-113365000I150000J0D01*
G01*
X150305000Y-113365000D01*
G75*
G02*
X150455000Y-113515000I0J-150000D01*
G01*
G37*
G36*
G01*
X150455000Y-114785000D02*
X150455000Y-115085000D01*
G75*
G02*
X150305000Y-115235000I-150000J0D01*
G01*
X148555000Y-115235000D01*
G75*
G02*
X148405000Y-115085000I0J150000D01*
G01*
X148405000Y-114785000D01*
G75*
G02*
X148555000Y-114635000I150000J0D01*
G01*
X150305000Y-114635000D01*
G75*
G02*
X150455000Y-114785000I0J-150000D01*
G01*
G37*
G36*
G01*
X150455000Y-116055000D02*
X150455000Y-116355000D01*
G75*
G02*
X150305000Y-116505000I-150000J0D01*
G01*
X148555000Y-116505000D01*
G75*
G02*
X148405000Y-116355000I0J150000D01*
G01*
X148405000Y-116055000D01*
G75*
G02*
X148555000Y-115905000I150000J0D01*
G01*
X150305000Y-115905000D01*
G75*
G02*
X150455000Y-116055000I0J-150000D01*
G01*
G37*
G36*
G01*
X150455000Y-117325000D02*
X150455000Y-117625000D01*
G75*
G02*
X150305000Y-117775000I-150000J0D01*
G01*
X148555000Y-117775000D01*
G75*
G02*
X148405000Y-117625000I0J150000D01*
G01*
X148405000Y-117325000D01*
G75*
G02*
X148555000Y-117175000I150000J0D01*
G01*
X150305000Y-117175000D01*
G75*
G02*
X150455000Y-117325000I0J-150000D01*
G01*
G37*
G36*
G01*
X150455000Y-118595000D02*
X150455000Y-118895000D01*
G75*
G02*
X150305000Y-119045000I-150000J0D01*
G01*
X148555000Y-119045000D01*
G75*
G02*
X148405000Y-118895000I0J150000D01*
G01*
X148405000Y-118595000D01*
G75*
G02*
X148555000Y-118445000I150000J0D01*
G01*
X150305000Y-118445000D01*
G75*
G02*
X150455000Y-118595000I0J-150000D01*
G01*
G37*
G36*
G01*
X150455000Y-119865000D02*
X150455000Y-120165000D01*
G75*
G02*
X150305000Y-120315000I-150000J0D01*
G01*
X148555000Y-120315000D01*
G75*
G02*
X148405000Y-120165000I0J150000D01*
G01*
X148405000Y-119865000D01*
G75*
G02*
X148555000Y-119715000I150000J0D01*
G01*
X150305000Y-119715000D01*
G75*
G02*
X150455000Y-119865000I0J-150000D01*
G01*
G37*
G36*
G01*
X150455000Y-121135000D02*
X150455000Y-121435000D01*
G75*
G02*
X150305000Y-121585000I-150000J0D01*
G01*
X148555000Y-121585000D01*
G75*
G02*
X148405000Y-121435000I0J150000D01*
G01*
X148405000Y-121135000D01*
G75*
G02*
X148555000Y-120985000I150000J0D01*
G01*
X150305000Y-120985000D01*
G75*
G02*
X150455000Y-121135000I0J-150000D01*
G01*
G37*
G36*
G01*
X150455000Y-122405000D02*
X150455000Y-122705000D01*
G75*
G02*
X150305000Y-122855000I-150000J0D01*
G01*
X148555000Y-122855000D01*
G75*
G02*
X148405000Y-122705000I0J150000D01*
G01*
X148405000Y-122405000D01*
G75*
G02*
X148555000Y-122255000I150000J0D01*
G01*
X150305000Y-122255000D01*
G75*
G02*
X150455000Y-122405000I0J-150000D01*
G01*
G37*
G36*
G01*
X150455000Y-123675000D02*
X150455000Y-123975000D01*
G75*
G02*
X150305000Y-124125000I-150000J0D01*
G01*
X148555000Y-124125000D01*
G75*
G02*
X148405000Y-123975000I0J150000D01*
G01*
X148405000Y-123675000D01*
G75*
G02*
X148555000Y-123525000I150000J0D01*
G01*
X150305000Y-123525000D01*
G75*
G02*
X150455000Y-123675000I0J-150000D01*
G01*
G37*
%TD*%
%TO.C,U5*%
G36*
G01*
X114485000Y-123675000D02*
X114485000Y-123975000D01*
G75*
G02*
X114335000Y-124125000I-150000J0D01*
G01*
X112585000Y-124125000D01*
G75*
G02*
X112435000Y-123975000I0J150000D01*
G01*
X112435000Y-123675000D01*
G75*
G02*
X112585000Y-123525000I150000J0D01*
G01*
X114335000Y-123525000D01*
G75*
G02*
X114485000Y-123675000I0J-150000D01*
G01*
G37*
G36*
G01*
X114485000Y-122405000D02*
X114485000Y-122705000D01*
G75*
G02*
X114335000Y-122855000I-150000J0D01*
G01*
X112585000Y-122855000D01*
G75*
G02*
X112435000Y-122705000I0J150000D01*
G01*
X112435000Y-122405000D01*
G75*
G02*
X112585000Y-122255000I150000J0D01*
G01*
X114335000Y-122255000D01*
G75*
G02*
X114485000Y-122405000I0J-150000D01*
G01*
G37*
G36*
G01*
X114485000Y-121135000D02*
X114485000Y-121435000D01*
G75*
G02*
X114335000Y-121585000I-150000J0D01*
G01*
X112585000Y-121585000D01*
G75*
G02*
X112435000Y-121435000I0J150000D01*
G01*
X112435000Y-121135000D01*
G75*
G02*
X112585000Y-120985000I150000J0D01*
G01*
X114335000Y-120985000D01*
G75*
G02*
X114485000Y-121135000I0J-150000D01*
G01*
G37*
G36*
G01*
X114485000Y-119865000D02*
X114485000Y-120165000D01*
G75*
G02*
X114335000Y-120315000I-150000J0D01*
G01*
X112585000Y-120315000D01*
G75*
G02*
X112435000Y-120165000I0J150000D01*
G01*
X112435000Y-119865000D01*
G75*
G02*
X112585000Y-119715000I150000J0D01*
G01*
X114335000Y-119715000D01*
G75*
G02*
X114485000Y-119865000I0J-150000D01*
G01*
G37*
G36*
G01*
X114485000Y-118595000D02*
X114485000Y-118895000D01*
G75*
G02*
X114335000Y-119045000I-150000J0D01*
G01*
X112585000Y-119045000D01*
G75*
G02*
X112435000Y-118895000I0J150000D01*
G01*
X112435000Y-118595000D01*
G75*
G02*
X112585000Y-118445000I150000J0D01*
G01*
X114335000Y-118445000D01*
G75*
G02*
X114485000Y-118595000I0J-150000D01*
G01*
G37*
G36*
G01*
X114485000Y-117325000D02*
X114485000Y-117625000D01*
G75*
G02*
X114335000Y-117775000I-150000J0D01*
G01*
X112585000Y-117775000D01*
G75*
G02*
X112435000Y-117625000I0J150000D01*
G01*
X112435000Y-117325000D01*
G75*
G02*
X112585000Y-117175000I150000J0D01*
G01*
X114335000Y-117175000D01*
G75*
G02*
X114485000Y-117325000I0J-150000D01*
G01*
G37*
G36*
G01*
X114485000Y-116055000D02*
X114485000Y-116355000D01*
G75*
G02*
X114335000Y-116505000I-150000J0D01*
G01*
X112585000Y-116505000D01*
G75*
G02*
X112435000Y-116355000I0J150000D01*
G01*
X112435000Y-116055000D01*
G75*
G02*
X112585000Y-115905000I150000J0D01*
G01*
X114335000Y-115905000D01*
G75*
G02*
X114485000Y-116055000I0J-150000D01*
G01*
G37*
G36*
G01*
X114485000Y-114785000D02*
X114485000Y-115085000D01*
G75*
G02*
X114335000Y-115235000I-150000J0D01*
G01*
X112585000Y-115235000D01*
G75*
G02*
X112435000Y-115085000I0J150000D01*
G01*
X112435000Y-114785000D01*
G75*
G02*
X112585000Y-114635000I150000J0D01*
G01*
X114335000Y-114635000D01*
G75*
G02*
X114485000Y-114785000I0J-150000D01*
G01*
G37*
G36*
G01*
X114485000Y-113515000D02*
X114485000Y-113815000D01*
G75*
G02*
X114335000Y-113965000I-150000J0D01*
G01*
X112585000Y-113965000D01*
G75*
G02*
X112435000Y-113815000I0J150000D01*
G01*
X112435000Y-113515000D01*
G75*
G02*
X112585000Y-113365000I150000J0D01*
G01*
X114335000Y-113365000D01*
G75*
G02*
X114485000Y-113515000I0J-150000D01*
G01*
G37*
G36*
G01*
X114485000Y-112245000D02*
X114485000Y-112545000D01*
G75*
G02*
X114335000Y-112695000I-150000J0D01*
G01*
X112585000Y-112695000D01*
G75*
G02*
X112435000Y-112545000I0J150000D01*
G01*
X112435000Y-112245000D01*
G75*
G02*
X112585000Y-112095000I150000J0D01*
G01*
X114335000Y-112095000D01*
G75*
G02*
X114485000Y-112245000I0J-150000D01*
G01*
G37*
G36*
G01*
X114485000Y-110975000D02*
X114485000Y-111275000D01*
G75*
G02*
X114335000Y-111425000I-150000J0D01*
G01*
X112585000Y-111425000D01*
G75*
G02*
X112435000Y-111275000I0J150000D01*
G01*
X112435000Y-110975000D01*
G75*
G02*
X112585000Y-110825000I150000J0D01*
G01*
X114335000Y-110825000D01*
G75*
G02*
X114485000Y-110975000I0J-150000D01*
G01*
G37*
G36*
G01*
X114485000Y-109705000D02*
X114485000Y-110005000D01*
G75*
G02*
X114335000Y-110155000I-150000J0D01*
G01*
X112585000Y-110155000D01*
G75*
G02*
X112435000Y-110005000I0J150000D01*
G01*
X112435000Y-109705000D01*
G75*
G02*
X112585000Y-109555000I150000J0D01*
G01*
X114335000Y-109555000D01*
G75*
G02*
X114485000Y-109705000I0J-150000D01*
G01*
G37*
G36*
G01*
X114485000Y-108435000D02*
X114485000Y-108735000D01*
G75*
G02*
X114335000Y-108885000I-150000J0D01*
G01*
X112585000Y-108885000D01*
G75*
G02*
X112435000Y-108735000I0J150000D01*
G01*
X112435000Y-108435000D01*
G75*
G02*
X112585000Y-108285000I150000J0D01*
G01*
X114335000Y-108285000D01*
G75*
G02*
X114485000Y-108435000I0J-150000D01*
G01*
G37*
G36*
G01*
X114485000Y-107165000D02*
X114485000Y-107465000D01*
G75*
G02*
X114335000Y-107615000I-150000J0D01*
G01*
X112585000Y-107615000D01*
G75*
G02*
X112435000Y-107465000I0J150000D01*
G01*
X112435000Y-107165000D01*
G75*
G02*
X112585000Y-107015000I150000J0D01*
G01*
X114335000Y-107015000D01*
G75*
G02*
X114485000Y-107165000I0J-150000D01*
G01*
G37*
G36*
G01*
X123785000Y-107165000D02*
X123785000Y-107465000D01*
G75*
G02*
X123635000Y-107615000I-150000J0D01*
G01*
X121885000Y-107615000D01*
G75*
G02*
X121735000Y-107465000I0J150000D01*
G01*
X121735000Y-107165000D01*
G75*
G02*
X121885000Y-107015000I150000J0D01*
G01*
X123635000Y-107015000D01*
G75*
G02*
X123785000Y-107165000I0J-150000D01*
G01*
G37*
G36*
G01*
X123785000Y-108435000D02*
X123785000Y-108735000D01*
G75*
G02*
X123635000Y-108885000I-150000J0D01*
G01*
X121885000Y-108885000D01*
G75*
G02*
X121735000Y-108735000I0J150000D01*
G01*
X121735000Y-108435000D01*
G75*
G02*
X121885000Y-108285000I150000J0D01*
G01*
X123635000Y-108285000D01*
G75*
G02*
X123785000Y-108435000I0J-150000D01*
G01*
G37*
G36*
G01*
X123785000Y-109705000D02*
X123785000Y-110005000D01*
G75*
G02*
X123635000Y-110155000I-150000J0D01*
G01*
X121885000Y-110155000D01*
G75*
G02*
X121735000Y-110005000I0J150000D01*
G01*
X121735000Y-109705000D01*
G75*
G02*
X121885000Y-109555000I150000J0D01*
G01*
X123635000Y-109555000D01*
G75*
G02*
X123785000Y-109705000I0J-150000D01*
G01*
G37*
G36*
G01*
X123785000Y-110975000D02*
X123785000Y-111275000D01*
G75*
G02*
X123635000Y-111425000I-150000J0D01*
G01*
X121885000Y-111425000D01*
G75*
G02*
X121735000Y-111275000I0J150000D01*
G01*
X121735000Y-110975000D01*
G75*
G02*
X121885000Y-110825000I150000J0D01*
G01*
X123635000Y-110825000D01*
G75*
G02*
X123785000Y-110975000I0J-150000D01*
G01*
G37*
G36*
G01*
X123785000Y-112245000D02*
X123785000Y-112545000D01*
G75*
G02*
X123635000Y-112695000I-150000J0D01*
G01*
X121885000Y-112695000D01*
G75*
G02*
X121735000Y-112545000I0J150000D01*
G01*
X121735000Y-112245000D01*
G75*
G02*
X121885000Y-112095000I150000J0D01*
G01*
X123635000Y-112095000D01*
G75*
G02*
X123785000Y-112245000I0J-150000D01*
G01*
G37*
G36*
G01*
X123785000Y-113515000D02*
X123785000Y-113815000D01*
G75*
G02*
X123635000Y-113965000I-150000J0D01*
G01*
X121885000Y-113965000D01*
G75*
G02*
X121735000Y-113815000I0J150000D01*
G01*
X121735000Y-113515000D01*
G75*
G02*
X121885000Y-113365000I150000J0D01*
G01*
X123635000Y-113365000D01*
G75*
G02*
X123785000Y-113515000I0J-150000D01*
G01*
G37*
G36*
G01*
X123785000Y-114785000D02*
X123785000Y-115085000D01*
G75*
G02*
X123635000Y-115235000I-150000J0D01*
G01*
X121885000Y-115235000D01*
G75*
G02*
X121735000Y-115085000I0J150000D01*
G01*
X121735000Y-114785000D01*
G75*
G02*
X121885000Y-114635000I150000J0D01*
G01*
X123635000Y-114635000D01*
G75*
G02*
X123785000Y-114785000I0J-150000D01*
G01*
G37*
G36*
G01*
X123785000Y-116055000D02*
X123785000Y-116355000D01*
G75*
G02*
X123635000Y-116505000I-150000J0D01*
G01*
X121885000Y-116505000D01*
G75*
G02*
X121735000Y-116355000I0J150000D01*
G01*
X121735000Y-116055000D01*
G75*
G02*
X121885000Y-115905000I150000J0D01*
G01*
X123635000Y-115905000D01*
G75*
G02*
X123785000Y-116055000I0J-150000D01*
G01*
G37*
G36*
G01*
X123785000Y-117325000D02*
X123785000Y-117625000D01*
G75*
G02*
X123635000Y-117775000I-150000J0D01*
G01*
X121885000Y-117775000D01*
G75*
G02*
X121735000Y-117625000I0J150000D01*
G01*
X121735000Y-117325000D01*
G75*
G02*
X121885000Y-117175000I150000J0D01*
G01*
X123635000Y-117175000D01*
G75*
G02*
X123785000Y-117325000I0J-150000D01*
G01*
G37*
G36*
G01*
X123785000Y-118595000D02*
X123785000Y-118895000D01*
G75*
G02*
X123635000Y-119045000I-150000J0D01*
G01*
X121885000Y-119045000D01*
G75*
G02*
X121735000Y-118895000I0J150000D01*
G01*
X121735000Y-118595000D01*
G75*
G02*
X121885000Y-118445000I150000J0D01*
G01*
X123635000Y-118445000D01*
G75*
G02*
X123785000Y-118595000I0J-150000D01*
G01*
G37*
G36*
G01*
X123785000Y-119865000D02*
X123785000Y-120165000D01*
G75*
G02*
X123635000Y-120315000I-150000J0D01*
G01*
X121885000Y-120315000D01*
G75*
G02*
X121735000Y-120165000I0J150000D01*
G01*
X121735000Y-119865000D01*
G75*
G02*
X121885000Y-119715000I150000J0D01*
G01*
X123635000Y-119715000D01*
G75*
G02*
X123785000Y-119865000I0J-150000D01*
G01*
G37*
G36*
G01*
X123785000Y-121135000D02*
X123785000Y-121435000D01*
G75*
G02*
X123635000Y-121585000I-150000J0D01*
G01*
X121885000Y-121585000D01*
G75*
G02*
X121735000Y-121435000I0J150000D01*
G01*
X121735000Y-121135000D01*
G75*
G02*
X121885000Y-120985000I150000J0D01*
G01*
X123635000Y-120985000D01*
G75*
G02*
X123785000Y-121135000I0J-150000D01*
G01*
G37*
G36*
G01*
X123785000Y-122405000D02*
X123785000Y-122705000D01*
G75*
G02*
X123635000Y-122855000I-150000J0D01*
G01*
X121885000Y-122855000D01*
G75*
G02*
X121735000Y-122705000I0J150000D01*
G01*
X121735000Y-122405000D01*
G75*
G02*
X121885000Y-122255000I150000J0D01*
G01*
X123635000Y-122255000D01*
G75*
G02*
X123785000Y-122405000I0J-150000D01*
G01*
G37*
G36*
G01*
X123785000Y-123675000D02*
X123785000Y-123975000D01*
G75*
G02*
X123635000Y-124125000I-150000J0D01*
G01*
X121885000Y-124125000D01*
G75*
G02*
X121735000Y-123975000I0J150000D01*
G01*
X121735000Y-123675000D01*
G75*
G02*
X121885000Y-123525000I150000J0D01*
G01*
X123635000Y-123525000D01*
G75*
G02*
X123785000Y-123675000I0J-150000D01*
G01*
G37*
%TD*%
%TO.C,U4*%
G36*
G01*
X194495000Y-97005000D02*
X194495000Y-97305000D01*
G75*
G02*
X194345000Y-97455000I-150000J0D01*
G01*
X192595000Y-97455000D01*
G75*
G02*
X192445000Y-97305000I0J150000D01*
G01*
X192445000Y-97005000D01*
G75*
G02*
X192595000Y-96855000I150000J0D01*
G01*
X194345000Y-96855000D01*
G75*
G02*
X194495000Y-97005000I0J-150000D01*
G01*
G37*
G36*
G01*
X194495000Y-95735000D02*
X194495000Y-96035000D01*
G75*
G02*
X194345000Y-96185000I-150000J0D01*
G01*
X192595000Y-96185000D01*
G75*
G02*
X192445000Y-96035000I0J150000D01*
G01*
X192445000Y-95735000D01*
G75*
G02*
X192595000Y-95585000I150000J0D01*
G01*
X194345000Y-95585000D01*
G75*
G02*
X194495000Y-95735000I0J-150000D01*
G01*
G37*
G36*
G01*
X194495000Y-94465000D02*
X194495000Y-94765000D01*
G75*
G02*
X194345000Y-94915000I-150000J0D01*
G01*
X192595000Y-94915000D01*
G75*
G02*
X192445000Y-94765000I0J150000D01*
G01*
X192445000Y-94465000D01*
G75*
G02*
X192595000Y-94315000I150000J0D01*
G01*
X194345000Y-94315000D01*
G75*
G02*
X194495000Y-94465000I0J-150000D01*
G01*
G37*
G36*
G01*
X194495000Y-93195000D02*
X194495000Y-93495000D01*
G75*
G02*
X194345000Y-93645000I-150000J0D01*
G01*
X192595000Y-93645000D01*
G75*
G02*
X192445000Y-93495000I0J150000D01*
G01*
X192445000Y-93195000D01*
G75*
G02*
X192595000Y-93045000I150000J0D01*
G01*
X194345000Y-93045000D01*
G75*
G02*
X194495000Y-93195000I0J-150000D01*
G01*
G37*
G36*
G01*
X194495000Y-91925000D02*
X194495000Y-92225000D01*
G75*
G02*
X194345000Y-92375000I-150000J0D01*
G01*
X192595000Y-92375000D01*
G75*
G02*
X192445000Y-92225000I0J150000D01*
G01*
X192445000Y-91925000D01*
G75*
G02*
X192595000Y-91775000I150000J0D01*
G01*
X194345000Y-91775000D01*
G75*
G02*
X194495000Y-91925000I0J-150000D01*
G01*
G37*
G36*
G01*
X194495000Y-90655000D02*
X194495000Y-90955000D01*
G75*
G02*
X194345000Y-91105000I-150000J0D01*
G01*
X192595000Y-91105000D01*
G75*
G02*
X192445000Y-90955000I0J150000D01*
G01*
X192445000Y-90655000D01*
G75*
G02*
X192595000Y-90505000I150000J0D01*
G01*
X194345000Y-90505000D01*
G75*
G02*
X194495000Y-90655000I0J-150000D01*
G01*
G37*
G36*
G01*
X194495000Y-89385000D02*
X194495000Y-89685000D01*
G75*
G02*
X194345000Y-89835000I-150000J0D01*
G01*
X192595000Y-89835000D01*
G75*
G02*
X192445000Y-89685000I0J150000D01*
G01*
X192445000Y-89385000D01*
G75*
G02*
X192595000Y-89235000I150000J0D01*
G01*
X194345000Y-89235000D01*
G75*
G02*
X194495000Y-89385000I0J-150000D01*
G01*
G37*
G36*
G01*
X194495000Y-88115000D02*
X194495000Y-88415000D01*
G75*
G02*
X194345000Y-88565000I-150000J0D01*
G01*
X192595000Y-88565000D01*
G75*
G02*
X192445000Y-88415000I0J150000D01*
G01*
X192445000Y-88115000D01*
G75*
G02*
X192595000Y-87965000I150000J0D01*
G01*
X194345000Y-87965000D01*
G75*
G02*
X194495000Y-88115000I0J-150000D01*
G01*
G37*
G36*
G01*
X194495000Y-86845000D02*
X194495000Y-87145000D01*
G75*
G02*
X194345000Y-87295000I-150000J0D01*
G01*
X192595000Y-87295000D01*
G75*
G02*
X192445000Y-87145000I0J150000D01*
G01*
X192445000Y-86845000D01*
G75*
G02*
X192595000Y-86695000I150000J0D01*
G01*
X194345000Y-86695000D01*
G75*
G02*
X194495000Y-86845000I0J-150000D01*
G01*
G37*
G36*
G01*
X194495000Y-85575000D02*
X194495000Y-85875000D01*
G75*
G02*
X194345000Y-86025000I-150000J0D01*
G01*
X192595000Y-86025000D01*
G75*
G02*
X192445000Y-85875000I0J150000D01*
G01*
X192445000Y-85575000D01*
G75*
G02*
X192595000Y-85425000I150000J0D01*
G01*
X194345000Y-85425000D01*
G75*
G02*
X194495000Y-85575000I0J-150000D01*
G01*
G37*
G36*
G01*
X194495000Y-84305000D02*
X194495000Y-84605000D01*
G75*
G02*
X194345000Y-84755000I-150000J0D01*
G01*
X192595000Y-84755000D01*
G75*
G02*
X192445000Y-84605000I0J150000D01*
G01*
X192445000Y-84305000D01*
G75*
G02*
X192595000Y-84155000I150000J0D01*
G01*
X194345000Y-84155000D01*
G75*
G02*
X194495000Y-84305000I0J-150000D01*
G01*
G37*
G36*
G01*
X194495000Y-83035000D02*
X194495000Y-83335000D01*
G75*
G02*
X194345000Y-83485000I-150000J0D01*
G01*
X192595000Y-83485000D01*
G75*
G02*
X192445000Y-83335000I0J150000D01*
G01*
X192445000Y-83035000D01*
G75*
G02*
X192595000Y-82885000I150000J0D01*
G01*
X194345000Y-82885000D01*
G75*
G02*
X194495000Y-83035000I0J-150000D01*
G01*
G37*
G36*
G01*
X194495000Y-81765000D02*
X194495000Y-82065000D01*
G75*
G02*
X194345000Y-82215000I-150000J0D01*
G01*
X192595000Y-82215000D01*
G75*
G02*
X192445000Y-82065000I0J150000D01*
G01*
X192445000Y-81765000D01*
G75*
G02*
X192595000Y-81615000I150000J0D01*
G01*
X194345000Y-81615000D01*
G75*
G02*
X194495000Y-81765000I0J-150000D01*
G01*
G37*
G36*
G01*
X194495000Y-80495000D02*
X194495000Y-80795000D01*
G75*
G02*
X194345000Y-80945000I-150000J0D01*
G01*
X192595000Y-80945000D01*
G75*
G02*
X192445000Y-80795000I0J150000D01*
G01*
X192445000Y-80495000D01*
G75*
G02*
X192595000Y-80345000I150000J0D01*
G01*
X194345000Y-80345000D01*
G75*
G02*
X194495000Y-80495000I0J-150000D01*
G01*
G37*
G36*
G01*
X203795000Y-80495000D02*
X203795000Y-80795000D01*
G75*
G02*
X203645000Y-80945000I-150000J0D01*
G01*
X201895000Y-80945000D01*
G75*
G02*
X201745000Y-80795000I0J150000D01*
G01*
X201745000Y-80495000D01*
G75*
G02*
X201895000Y-80345000I150000J0D01*
G01*
X203645000Y-80345000D01*
G75*
G02*
X203795000Y-80495000I0J-150000D01*
G01*
G37*
G36*
G01*
X203795000Y-81765000D02*
X203795000Y-82065000D01*
G75*
G02*
X203645000Y-82215000I-150000J0D01*
G01*
X201895000Y-82215000D01*
G75*
G02*
X201745000Y-82065000I0J150000D01*
G01*
X201745000Y-81765000D01*
G75*
G02*
X201895000Y-81615000I150000J0D01*
G01*
X203645000Y-81615000D01*
G75*
G02*
X203795000Y-81765000I0J-150000D01*
G01*
G37*
G36*
G01*
X203795000Y-83035000D02*
X203795000Y-83335000D01*
G75*
G02*
X203645000Y-83485000I-150000J0D01*
G01*
X201895000Y-83485000D01*
G75*
G02*
X201745000Y-83335000I0J150000D01*
G01*
X201745000Y-83035000D01*
G75*
G02*
X201895000Y-82885000I150000J0D01*
G01*
X203645000Y-82885000D01*
G75*
G02*
X203795000Y-83035000I0J-150000D01*
G01*
G37*
G36*
G01*
X203795000Y-84305000D02*
X203795000Y-84605000D01*
G75*
G02*
X203645000Y-84755000I-150000J0D01*
G01*
X201895000Y-84755000D01*
G75*
G02*
X201745000Y-84605000I0J150000D01*
G01*
X201745000Y-84305000D01*
G75*
G02*
X201895000Y-84155000I150000J0D01*
G01*
X203645000Y-84155000D01*
G75*
G02*
X203795000Y-84305000I0J-150000D01*
G01*
G37*
G36*
G01*
X203795000Y-85575000D02*
X203795000Y-85875000D01*
G75*
G02*
X203645000Y-86025000I-150000J0D01*
G01*
X201895000Y-86025000D01*
G75*
G02*
X201745000Y-85875000I0J150000D01*
G01*
X201745000Y-85575000D01*
G75*
G02*
X201895000Y-85425000I150000J0D01*
G01*
X203645000Y-85425000D01*
G75*
G02*
X203795000Y-85575000I0J-150000D01*
G01*
G37*
G36*
G01*
X203795000Y-86845000D02*
X203795000Y-87145000D01*
G75*
G02*
X203645000Y-87295000I-150000J0D01*
G01*
X201895000Y-87295000D01*
G75*
G02*
X201745000Y-87145000I0J150000D01*
G01*
X201745000Y-86845000D01*
G75*
G02*
X201895000Y-86695000I150000J0D01*
G01*
X203645000Y-86695000D01*
G75*
G02*
X203795000Y-86845000I0J-150000D01*
G01*
G37*
G36*
G01*
X203795000Y-88115000D02*
X203795000Y-88415000D01*
G75*
G02*
X203645000Y-88565000I-150000J0D01*
G01*
X201895000Y-88565000D01*
G75*
G02*
X201745000Y-88415000I0J150000D01*
G01*
X201745000Y-88115000D01*
G75*
G02*
X201895000Y-87965000I150000J0D01*
G01*
X203645000Y-87965000D01*
G75*
G02*
X203795000Y-88115000I0J-150000D01*
G01*
G37*
G36*
G01*
X203795000Y-89385000D02*
X203795000Y-89685000D01*
G75*
G02*
X203645000Y-89835000I-150000J0D01*
G01*
X201895000Y-89835000D01*
G75*
G02*
X201745000Y-89685000I0J150000D01*
G01*
X201745000Y-89385000D01*
G75*
G02*
X201895000Y-89235000I150000J0D01*
G01*
X203645000Y-89235000D01*
G75*
G02*
X203795000Y-89385000I0J-150000D01*
G01*
G37*
G36*
G01*
X203795000Y-90655000D02*
X203795000Y-90955000D01*
G75*
G02*
X203645000Y-91105000I-150000J0D01*
G01*
X201895000Y-91105000D01*
G75*
G02*
X201745000Y-90955000I0J150000D01*
G01*
X201745000Y-90655000D01*
G75*
G02*
X201895000Y-90505000I150000J0D01*
G01*
X203645000Y-90505000D01*
G75*
G02*
X203795000Y-90655000I0J-150000D01*
G01*
G37*
G36*
G01*
X203795000Y-91925000D02*
X203795000Y-92225000D01*
G75*
G02*
X203645000Y-92375000I-150000J0D01*
G01*
X201895000Y-92375000D01*
G75*
G02*
X201745000Y-92225000I0J150000D01*
G01*
X201745000Y-91925000D01*
G75*
G02*
X201895000Y-91775000I150000J0D01*
G01*
X203645000Y-91775000D01*
G75*
G02*
X203795000Y-91925000I0J-150000D01*
G01*
G37*
G36*
G01*
X203795000Y-93195000D02*
X203795000Y-93495000D01*
G75*
G02*
X203645000Y-93645000I-150000J0D01*
G01*
X201895000Y-93645000D01*
G75*
G02*
X201745000Y-93495000I0J150000D01*
G01*
X201745000Y-93195000D01*
G75*
G02*
X201895000Y-93045000I150000J0D01*
G01*
X203645000Y-93045000D01*
G75*
G02*
X203795000Y-93195000I0J-150000D01*
G01*
G37*
G36*
G01*
X203795000Y-94465000D02*
X203795000Y-94765000D01*
G75*
G02*
X203645000Y-94915000I-150000J0D01*
G01*
X201895000Y-94915000D01*
G75*
G02*
X201745000Y-94765000I0J150000D01*
G01*
X201745000Y-94465000D01*
G75*
G02*
X201895000Y-94315000I150000J0D01*
G01*
X203645000Y-94315000D01*
G75*
G02*
X203795000Y-94465000I0J-150000D01*
G01*
G37*
G36*
G01*
X203795000Y-95735000D02*
X203795000Y-96035000D01*
G75*
G02*
X203645000Y-96185000I-150000J0D01*
G01*
X201895000Y-96185000D01*
G75*
G02*
X201745000Y-96035000I0J150000D01*
G01*
X201745000Y-95735000D01*
G75*
G02*
X201895000Y-95585000I150000J0D01*
G01*
X203645000Y-95585000D01*
G75*
G02*
X203795000Y-95735000I0J-150000D01*
G01*
G37*
G36*
G01*
X203795000Y-97005000D02*
X203795000Y-97305000D01*
G75*
G02*
X203645000Y-97455000I-150000J0D01*
G01*
X201895000Y-97455000D01*
G75*
G02*
X201745000Y-97305000I0J150000D01*
G01*
X201745000Y-97005000D01*
G75*
G02*
X201895000Y-96855000I150000J0D01*
G01*
X203645000Y-96855000D01*
G75*
G02*
X203795000Y-97005000I0J-150000D01*
G01*
G37*
%TD*%
%TO.C,U3*%
G36*
G01*
X167825000Y-97005000D02*
X167825000Y-97305000D01*
G75*
G02*
X167675000Y-97455000I-150000J0D01*
G01*
X165925000Y-97455000D01*
G75*
G02*
X165775000Y-97305000I0J150000D01*
G01*
X165775000Y-97005000D01*
G75*
G02*
X165925000Y-96855000I150000J0D01*
G01*
X167675000Y-96855000D01*
G75*
G02*
X167825000Y-97005000I0J-150000D01*
G01*
G37*
G36*
G01*
X167825000Y-95735000D02*
X167825000Y-96035000D01*
G75*
G02*
X167675000Y-96185000I-150000J0D01*
G01*
X165925000Y-96185000D01*
G75*
G02*
X165775000Y-96035000I0J150000D01*
G01*
X165775000Y-95735000D01*
G75*
G02*
X165925000Y-95585000I150000J0D01*
G01*
X167675000Y-95585000D01*
G75*
G02*
X167825000Y-95735000I0J-150000D01*
G01*
G37*
G36*
G01*
X167825000Y-94465000D02*
X167825000Y-94765000D01*
G75*
G02*
X167675000Y-94915000I-150000J0D01*
G01*
X165925000Y-94915000D01*
G75*
G02*
X165775000Y-94765000I0J150000D01*
G01*
X165775000Y-94465000D01*
G75*
G02*
X165925000Y-94315000I150000J0D01*
G01*
X167675000Y-94315000D01*
G75*
G02*
X167825000Y-94465000I0J-150000D01*
G01*
G37*
G36*
G01*
X167825000Y-93195000D02*
X167825000Y-93495000D01*
G75*
G02*
X167675000Y-93645000I-150000J0D01*
G01*
X165925000Y-93645000D01*
G75*
G02*
X165775000Y-93495000I0J150000D01*
G01*
X165775000Y-93195000D01*
G75*
G02*
X165925000Y-93045000I150000J0D01*
G01*
X167675000Y-93045000D01*
G75*
G02*
X167825000Y-93195000I0J-150000D01*
G01*
G37*
G36*
G01*
X167825000Y-91925000D02*
X167825000Y-92225000D01*
G75*
G02*
X167675000Y-92375000I-150000J0D01*
G01*
X165925000Y-92375000D01*
G75*
G02*
X165775000Y-92225000I0J150000D01*
G01*
X165775000Y-91925000D01*
G75*
G02*
X165925000Y-91775000I150000J0D01*
G01*
X167675000Y-91775000D01*
G75*
G02*
X167825000Y-91925000I0J-150000D01*
G01*
G37*
G36*
G01*
X167825000Y-90655000D02*
X167825000Y-90955000D01*
G75*
G02*
X167675000Y-91105000I-150000J0D01*
G01*
X165925000Y-91105000D01*
G75*
G02*
X165775000Y-90955000I0J150000D01*
G01*
X165775000Y-90655000D01*
G75*
G02*
X165925000Y-90505000I150000J0D01*
G01*
X167675000Y-90505000D01*
G75*
G02*
X167825000Y-90655000I0J-150000D01*
G01*
G37*
G36*
G01*
X167825000Y-89385000D02*
X167825000Y-89685000D01*
G75*
G02*
X167675000Y-89835000I-150000J0D01*
G01*
X165925000Y-89835000D01*
G75*
G02*
X165775000Y-89685000I0J150000D01*
G01*
X165775000Y-89385000D01*
G75*
G02*
X165925000Y-89235000I150000J0D01*
G01*
X167675000Y-89235000D01*
G75*
G02*
X167825000Y-89385000I0J-150000D01*
G01*
G37*
G36*
G01*
X167825000Y-88115000D02*
X167825000Y-88415000D01*
G75*
G02*
X167675000Y-88565000I-150000J0D01*
G01*
X165925000Y-88565000D01*
G75*
G02*
X165775000Y-88415000I0J150000D01*
G01*
X165775000Y-88115000D01*
G75*
G02*
X165925000Y-87965000I150000J0D01*
G01*
X167675000Y-87965000D01*
G75*
G02*
X167825000Y-88115000I0J-150000D01*
G01*
G37*
G36*
G01*
X167825000Y-86845000D02*
X167825000Y-87145000D01*
G75*
G02*
X167675000Y-87295000I-150000J0D01*
G01*
X165925000Y-87295000D01*
G75*
G02*
X165775000Y-87145000I0J150000D01*
G01*
X165775000Y-86845000D01*
G75*
G02*
X165925000Y-86695000I150000J0D01*
G01*
X167675000Y-86695000D01*
G75*
G02*
X167825000Y-86845000I0J-150000D01*
G01*
G37*
G36*
G01*
X167825000Y-85575000D02*
X167825000Y-85875000D01*
G75*
G02*
X167675000Y-86025000I-150000J0D01*
G01*
X165925000Y-86025000D01*
G75*
G02*
X165775000Y-85875000I0J150000D01*
G01*
X165775000Y-85575000D01*
G75*
G02*
X165925000Y-85425000I150000J0D01*
G01*
X167675000Y-85425000D01*
G75*
G02*
X167825000Y-85575000I0J-150000D01*
G01*
G37*
G36*
G01*
X167825000Y-84305000D02*
X167825000Y-84605000D01*
G75*
G02*
X167675000Y-84755000I-150000J0D01*
G01*
X165925000Y-84755000D01*
G75*
G02*
X165775000Y-84605000I0J150000D01*
G01*
X165775000Y-84305000D01*
G75*
G02*
X165925000Y-84155000I150000J0D01*
G01*
X167675000Y-84155000D01*
G75*
G02*
X167825000Y-84305000I0J-150000D01*
G01*
G37*
G36*
G01*
X167825000Y-83035000D02*
X167825000Y-83335000D01*
G75*
G02*
X167675000Y-83485000I-150000J0D01*
G01*
X165925000Y-83485000D01*
G75*
G02*
X165775000Y-83335000I0J150000D01*
G01*
X165775000Y-83035000D01*
G75*
G02*
X165925000Y-82885000I150000J0D01*
G01*
X167675000Y-82885000D01*
G75*
G02*
X167825000Y-83035000I0J-150000D01*
G01*
G37*
G36*
G01*
X167825000Y-81765000D02*
X167825000Y-82065000D01*
G75*
G02*
X167675000Y-82215000I-150000J0D01*
G01*
X165925000Y-82215000D01*
G75*
G02*
X165775000Y-82065000I0J150000D01*
G01*
X165775000Y-81765000D01*
G75*
G02*
X165925000Y-81615000I150000J0D01*
G01*
X167675000Y-81615000D01*
G75*
G02*
X167825000Y-81765000I0J-150000D01*
G01*
G37*
G36*
G01*
X167825000Y-80495000D02*
X167825000Y-80795000D01*
G75*
G02*
X167675000Y-80945000I-150000J0D01*
G01*
X165925000Y-80945000D01*
G75*
G02*
X165775000Y-80795000I0J150000D01*
G01*
X165775000Y-80495000D01*
G75*
G02*
X165925000Y-80345000I150000J0D01*
G01*
X167675000Y-80345000D01*
G75*
G02*
X167825000Y-80495000I0J-150000D01*
G01*
G37*
G36*
G01*
X177125000Y-80495000D02*
X177125000Y-80795000D01*
G75*
G02*
X176975000Y-80945000I-150000J0D01*
G01*
X175225000Y-80945000D01*
G75*
G02*
X175075000Y-80795000I0J150000D01*
G01*
X175075000Y-80495000D01*
G75*
G02*
X175225000Y-80345000I150000J0D01*
G01*
X176975000Y-80345000D01*
G75*
G02*
X177125000Y-80495000I0J-150000D01*
G01*
G37*
G36*
G01*
X177125000Y-81765000D02*
X177125000Y-82065000D01*
G75*
G02*
X176975000Y-82215000I-150000J0D01*
G01*
X175225000Y-82215000D01*
G75*
G02*
X175075000Y-82065000I0J150000D01*
G01*
X175075000Y-81765000D01*
G75*
G02*
X175225000Y-81615000I150000J0D01*
G01*
X176975000Y-81615000D01*
G75*
G02*
X177125000Y-81765000I0J-150000D01*
G01*
G37*
G36*
G01*
X177125000Y-83035000D02*
X177125000Y-83335000D01*
G75*
G02*
X176975000Y-83485000I-150000J0D01*
G01*
X175225000Y-83485000D01*
G75*
G02*
X175075000Y-83335000I0J150000D01*
G01*
X175075000Y-83035000D01*
G75*
G02*
X175225000Y-82885000I150000J0D01*
G01*
X176975000Y-82885000D01*
G75*
G02*
X177125000Y-83035000I0J-150000D01*
G01*
G37*
G36*
G01*
X177125000Y-84305000D02*
X177125000Y-84605000D01*
G75*
G02*
X176975000Y-84755000I-150000J0D01*
G01*
X175225000Y-84755000D01*
G75*
G02*
X175075000Y-84605000I0J150000D01*
G01*
X175075000Y-84305000D01*
G75*
G02*
X175225000Y-84155000I150000J0D01*
G01*
X176975000Y-84155000D01*
G75*
G02*
X177125000Y-84305000I0J-150000D01*
G01*
G37*
G36*
G01*
X177125000Y-85575000D02*
X177125000Y-85875000D01*
G75*
G02*
X176975000Y-86025000I-150000J0D01*
G01*
X175225000Y-86025000D01*
G75*
G02*
X175075000Y-85875000I0J150000D01*
G01*
X175075000Y-85575000D01*
G75*
G02*
X175225000Y-85425000I150000J0D01*
G01*
X176975000Y-85425000D01*
G75*
G02*
X177125000Y-85575000I0J-150000D01*
G01*
G37*
G36*
G01*
X177125000Y-86845000D02*
X177125000Y-87145000D01*
G75*
G02*
X176975000Y-87295000I-150000J0D01*
G01*
X175225000Y-87295000D01*
G75*
G02*
X175075000Y-87145000I0J150000D01*
G01*
X175075000Y-86845000D01*
G75*
G02*
X175225000Y-86695000I150000J0D01*
G01*
X176975000Y-86695000D01*
G75*
G02*
X177125000Y-86845000I0J-150000D01*
G01*
G37*
G36*
G01*
X177125000Y-88115000D02*
X177125000Y-88415000D01*
G75*
G02*
X176975000Y-88565000I-150000J0D01*
G01*
X175225000Y-88565000D01*
G75*
G02*
X175075000Y-88415000I0J150000D01*
G01*
X175075000Y-88115000D01*
G75*
G02*
X175225000Y-87965000I150000J0D01*
G01*
X176975000Y-87965000D01*
G75*
G02*
X177125000Y-88115000I0J-150000D01*
G01*
G37*
G36*
G01*
X177125000Y-89385000D02*
X177125000Y-89685000D01*
G75*
G02*
X176975000Y-89835000I-150000J0D01*
G01*
X175225000Y-89835000D01*
G75*
G02*
X175075000Y-89685000I0J150000D01*
G01*
X175075000Y-89385000D01*
G75*
G02*
X175225000Y-89235000I150000J0D01*
G01*
X176975000Y-89235000D01*
G75*
G02*
X177125000Y-89385000I0J-150000D01*
G01*
G37*
G36*
G01*
X177125000Y-90655000D02*
X177125000Y-90955000D01*
G75*
G02*
X176975000Y-91105000I-150000J0D01*
G01*
X175225000Y-91105000D01*
G75*
G02*
X175075000Y-90955000I0J150000D01*
G01*
X175075000Y-90655000D01*
G75*
G02*
X175225000Y-90505000I150000J0D01*
G01*
X176975000Y-90505000D01*
G75*
G02*
X177125000Y-90655000I0J-150000D01*
G01*
G37*
G36*
G01*
X177125000Y-91925000D02*
X177125000Y-92225000D01*
G75*
G02*
X176975000Y-92375000I-150000J0D01*
G01*
X175225000Y-92375000D01*
G75*
G02*
X175075000Y-92225000I0J150000D01*
G01*
X175075000Y-91925000D01*
G75*
G02*
X175225000Y-91775000I150000J0D01*
G01*
X176975000Y-91775000D01*
G75*
G02*
X177125000Y-91925000I0J-150000D01*
G01*
G37*
G36*
G01*
X177125000Y-93195000D02*
X177125000Y-93495000D01*
G75*
G02*
X176975000Y-93645000I-150000J0D01*
G01*
X175225000Y-93645000D01*
G75*
G02*
X175075000Y-93495000I0J150000D01*
G01*
X175075000Y-93195000D01*
G75*
G02*
X175225000Y-93045000I150000J0D01*
G01*
X176975000Y-93045000D01*
G75*
G02*
X177125000Y-93195000I0J-150000D01*
G01*
G37*
G36*
G01*
X177125000Y-94465000D02*
X177125000Y-94765000D01*
G75*
G02*
X176975000Y-94915000I-150000J0D01*
G01*
X175225000Y-94915000D01*
G75*
G02*
X175075000Y-94765000I0J150000D01*
G01*
X175075000Y-94465000D01*
G75*
G02*
X175225000Y-94315000I150000J0D01*
G01*
X176975000Y-94315000D01*
G75*
G02*
X177125000Y-94465000I0J-150000D01*
G01*
G37*
G36*
G01*
X177125000Y-95735000D02*
X177125000Y-96035000D01*
G75*
G02*
X176975000Y-96185000I-150000J0D01*
G01*
X175225000Y-96185000D01*
G75*
G02*
X175075000Y-96035000I0J150000D01*
G01*
X175075000Y-95735000D01*
G75*
G02*
X175225000Y-95585000I150000J0D01*
G01*
X176975000Y-95585000D01*
G75*
G02*
X177125000Y-95735000I0J-150000D01*
G01*
G37*
G36*
G01*
X177125000Y-97005000D02*
X177125000Y-97305000D01*
G75*
G02*
X176975000Y-97455000I-150000J0D01*
G01*
X175225000Y-97455000D01*
G75*
G02*
X175075000Y-97305000I0J150000D01*
G01*
X175075000Y-97005000D01*
G75*
G02*
X175225000Y-96855000I150000J0D01*
G01*
X176975000Y-96855000D01*
G75*
G02*
X177125000Y-97005000I0J-150000D01*
G01*
G37*
%TD*%
%TO.C,U2*%
G36*
G01*
X141155000Y-97005000D02*
X141155000Y-97305000D01*
G75*
G02*
X141005000Y-97455000I-150000J0D01*
G01*
X139255000Y-97455000D01*
G75*
G02*
X139105000Y-97305000I0J150000D01*
G01*
X139105000Y-97005000D01*
G75*
G02*
X139255000Y-96855000I150000J0D01*
G01*
X141005000Y-96855000D01*
G75*
G02*
X141155000Y-97005000I0J-150000D01*
G01*
G37*
G36*
G01*
X141155000Y-95735000D02*
X141155000Y-96035000D01*
G75*
G02*
X141005000Y-96185000I-150000J0D01*
G01*
X139255000Y-96185000D01*
G75*
G02*
X139105000Y-96035000I0J150000D01*
G01*
X139105000Y-95735000D01*
G75*
G02*
X139255000Y-95585000I150000J0D01*
G01*
X141005000Y-95585000D01*
G75*
G02*
X141155000Y-95735000I0J-150000D01*
G01*
G37*
G36*
G01*
X141155000Y-94465000D02*
X141155000Y-94765000D01*
G75*
G02*
X141005000Y-94915000I-150000J0D01*
G01*
X139255000Y-94915000D01*
G75*
G02*
X139105000Y-94765000I0J150000D01*
G01*
X139105000Y-94465000D01*
G75*
G02*
X139255000Y-94315000I150000J0D01*
G01*
X141005000Y-94315000D01*
G75*
G02*
X141155000Y-94465000I0J-150000D01*
G01*
G37*
G36*
G01*
X141155000Y-93195000D02*
X141155000Y-93495000D01*
G75*
G02*
X141005000Y-93645000I-150000J0D01*
G01*
X139255000Y-93645000D01*
G75*
G02*
X139105000Y-93495000I0J150000D01*
G01*
X139105000Y-93195000D01*
G75*
G02*
X139255000Y-93045000I150000J0D01*
G01*
X141005000Y-93045000D01*
G75*
G02*
X141155000Y-93195000I0J-150000D01*
G01*
G37*
G36*
G01*
X141155000Y-91925000D02*
X141155000Y-92225000D01*
G75*
G02*
X141005000Y-92375000I-150000J0D01*
G01*
X139255000Y-92375000D01*
G75*
G02*
X139105000Y-92225000I0J150000D01*
G01*
X139105000Y-91925000D01*
G75*
G02*
X139255000Y-91775000I150000J0D01*
G01*
X141005000Y-91775000D01*
G75*
G02*
X141155000Y-91925000I0J-150000D01*
G01*
G37*
G36*
G01*
X141155000Y-90655000D02*
X141155000Y-90955000D01*
G75*
G02*
X141005000Y-91105000I-150000J0D01*
G01*
X139255000Y-91105000D01*
G75*
G02*
X139105000Y-90955000I0J150000D01*
G01*
X139105000Y-90655000D01*
G75*
G02*
X139255000Y-90505000I150000J0D01*
G01*
X141005000Y-90505000D01*
G75*
G02*
X141155000Y-90655000I0J-150000D01*
G01*
G37*
G36*
G01*
X141155000Y-89385000D02*
X141155000Y-89685000D01*
G75*
G02*
X141005000Y-89835000I-150000J0D01*
G01*
X139255000Y-89835000D01*
G75*
G02*
X139105000Y-89685000I0J150000D01*
G01*
X139105000Y-89385000D01*
G75*
G02*
X139255000Y-89235000I150000J0D01*
G01*
X141005000Y-89235000D01*
G75*
G02*
X141155000Y-89385000I0J-150000D01*
G01*
G37*
G36*
G01*
X141155000Y-88115000D02*
X141155000Y-88415000D01*
G75*
G02*
X141005000Y-88565000I-150000J0D01*
G01*
X139255000Y-88565000D01*
G75*
G02*
X139105000Y-88415000I0J150000D01*
G01*
X139105000Y-88115000D01*
G75*
G02*
X139255000Y-87965000I150000J0D01*
G01*
X141005000Y-87965000D01*
G75*
G02*
X141155000Y-88115000I0J-150000D01*
G01*
G37*
G36*
G01*
X141155000Y-86845000D02*
X141155000Y-87145000D01*
G75*
G02*
X141005000Y-87295000I-150000J0D01*
G01*
X139255000Y-87295000D01*
G75*
G02*
X139105000Y-87145000I0J150000D01*
G01*
X139105000Y-86845000D01*
G75*
G02*
X139255000Y-86695000I150000J0D01*
G01*
X141005000Y-86695000D01*
G75*
G02*
X141155000Y-86845000I0J-150000D01*
G01*
G37*
G36*
G01*
X141155000Y-85575000D02*
X141155000Y-85875000D01*
G75*
G02*
X141005000Y-86025000I-150000J0D01*
G01*
X139255000Y-86025000D01*
G75*
G02*
X139105000Y-85875000I0J150000D01*
G01*
X139105000Y-85575000D01*
G75*
G02*
X139255000Y-85425000I150000J0D01*
G01*
X141005000Y-85425000D01*
G75*
G02*
X141155000Y-85575000I0J-150000D01*
G01*
G37*
G36*
G01*
X141155000Y-84305000D02*
X141155000Y-84605000D01*
G75*
G02*
X141005000Y-84755000I-150000J0D01*
G01*
X139255000Y-84755000D01*
G75*
G02*
X139105000Y-84605000I0J150000D01*
G01*
X139105000Y-84305000D01*
G75*
G02*
X139255000Y-84155000I150000J0D01*
G01*
X141005000Y-84155000D01*
G75*
G02*
X141155000Y-84305000I0J-150000D01*
G01*
G37*
G36*
G01*
X141155000Y-83035000D02*
X141155000Y-83335000D01*
G75*
G02*
X141005000Y-83485000I-150000J0D01*
G01*
X139255000Y-83485000D01*
G75*
G02*
X139105000Y-83335000I0J150000D01*
G01*
X139105000Y-83035000D01*
G75*
G02*
X139255000Y-82885000I150000J0D01*
G01*
X141005000Y-82885000D01*
G75*
G02*
X141155000Y-83035000I0J-150000D01*
G01*
G37*
G36*
G01*
X141155000Y-81765000D02*
X141155000Y-82065000D01*
G75*
G02*
X141005000Y-82215000I-150000J0D01*
G01*
X139255000Y-82215000D01*
G75*
G02*
X139105000Y-82065000I0J150000D01*
G01*
X139105000Y-81765000D01*
G75*
G02*
X139255000Y-81615000I150000J0D01*
G01*
X141005000Y-81615000D01*
G75*
G02*
X141155000Y-81765000I0J-150000D01*
G01*
G37*
G36*
G01*
X141155000Y-80495000D02*
X141155000Y-80795000D01*
G75*
G02*
X141005000Y-80945000I-150000J0D01*
G01*
X139255000Y-80945000D01*
G75*
G02*
X139105000Y-80795000I0J150000D01*
G01*
X139105000Y-80495000D01*
G75*
G02*
X139255000Y-80345000I150000J0D01*
G01*
X141005000Y-80345000D01*
G75*
G02*
X141155000Y-80495000I0J-150000D01*
G01*
G37*
G36*
G01*
X150455000Y-80495000D02*
X150455000Y-80795000D01*
G75*
G02*
X150305000Y-80945000I-150000J0D01*
G01*
X148555000Y-80945000D01*
G75*
G02*
X148405000Y-80795000I0J150000D01*
G01*
X148405000Y-80495000D01*
G75*
G02*
X148555000Y-80345000I150000J0D01*
G01*
X150305000Y-80345000D01*
G75*
G02*
X150455000Y-80495000I0J-150000D01*
G01*
G37*
G36*
G01*
X150455000Y-81765000D02*
X150455000Y-82065000D01*
G75*
G02*
X150305000Y-82215000I-150000J0D01*
G01*
X148555000Y-82215000D01*
G75*
G02*
X148405000Y-82065000I0J150000D01*
G01*
X148405000Y-81765000D01*
G75*
G02*
X148555000Y-81615000I150000J0D01*
G01*
X150305000Y-81615000D01*
G75*
G02*
X150455000Y-81765000I0J-150000D01*
G01*
G37*
G36*
G01*
X150455000Y-83035000D02*
X150455000Y-83335000D01*
G75*
G02*
X150305000Y-83485000I-150000J0D01*
G01*
X148555000Y-83485000D01*
G75*
G02*
X148405000Y-83335000I0J150000D01*
G01*
X148405000Y-83035000D01*
G75*
G02*
X148555000Y-82885000I150000J0D01*
G01*
X150305000Y-82885000D01*
G75*
G02*
X150455000Y-83035000I0J-150000D01*
G01*
G37*
G36*
G01*
X150455000Y-84305000D02*
X150455000Y-84605000D01*
G75*
G02*
X150305000Y-84755000I-150000J0D01*
G01*
X148555000Y-84755000D01*
G75*
G02*
X148405000Y-84605000I0J150000D01*
G01*
X148405000Y-84305000D01*
G75*
G02*
X148555000Y-84155000I150000J0D01*
G01*
X150305000Y-84155000D01*
G75*
G02*
X150455000Y-84305000I0J-150000D01*
G01*
G37*
G36*
G01*
X150455000Y-85575000D02*
X150455000Y-85875000D01*
G75*
G02*
X150305000Y-86025000I-150000J0D01*
G01*
X148555000Y-86025000D01*
G75*
G02*
X148405000Y-85875000I0J150000D01*
G01*
X148405000Y-85575000D01*
G75*
G02*
X148555000Y-85425000I150000J0D01*
G01*
X150305000Y-85425000D01*
G75*
G02*
X150455000Y-85575000I0J-150000D01*
G01*
G37*
G36*
G01*
X150455000Y-86845000D02*
X150455000Y-87145000D01*
G75*
G02*
X150305000Y-87295000I-150000J0D01*
G01*
X148555000Y-87295000D01*
G75*
G02*
X148405000Y-87145000I0J150000D01*
G01*
X148405000Y-86845000D01*
G75*
G02*
X148555000Y-86695000I150000J0D01*
G01*
X150305000Y-86695000D01*
G75*
G02*
X150455000Y-86845000I0J-150000D01*
G01*
G37*
G36*
G01*
X150455000Y-88115000D02*
X150455000Y-88415000D01*
G75*
G02*
X150305000Y-88565000I-150000J0D01*
G01*
X148555000Y-88565000D01*
G75*
G02*
X148405000Y-88415000I0J150000D01*
G01*
X148405000Y-88115000D01*
G75*
G02*
X148555000Y-87965000I150000J0D01*
G01*
X150305000Y-87965000D01*
G75*
G02*
X150455000Y-88115000I0J-150000D01*
G01*
G37*
G36*
G01*
X150455000Y-89385000D02*
X150455000Y-89685000D01*
G75*
G02*
X150305000Y-89835000I-150000J0D01*
G01*
X148555000Y-89835000D01*
G75*
G02*
X148405000Y-89685000I0J150000D01*
G01*
X148405000Y-89385000D01*
G75*
G02*
X148555000Y-89235000I150000J0D01*
G01*
X150305000Y-89235000D01*
G75*
G02*
X150455000Y-89385000I0J-150000D01*
G01*
G37*
G36*
G01*
X150455000Y-90655000D02*
X150455000Y-90955000D01*
G75*
G02*
X150305000Y-91105000I-150000J0D01*
G01*
X148555000Y-91105000D01*
G75*
G02*
X148405000Y-90955000I0J150000D01*
G01*
X148405000Y-90655000D01*
G75*
G02*
X148555000Y-90505000I150000J0D01*
G01*
X150305000Y-90505000D01*
G75*
G02*
X150455000Y-90655000I0J-150000D01*
G01*
G37*
G36*
G01*
X150455000Y-91925000D02*
X150455000Y-92225000D01*
G75*
G02*
X150305000Y-92375000I-150000J0D01*
G01*
X148555000Y-92375000D01*
G75*
G02*
X148405000Y-92225000I0J150000D01*
G01*
X148405000Y-91925000D01*
G75*
G02*
X148555000Y-91775000I150000J0D01*
G01*
X150305000Y-91775000D01*
G75*
G02*
X150455000Y-91925000I0J-150000D01*
G01*
G37*
G36*
G01*
X150455000Y-93195000D02*
X150455000Y-93495000D01*
G75*
G02*
X150305000Y-93645000I-150000J0D01*
G01*
X148555000Y-93645000D01*
G75*
G02*
X148405000Y-93495000I0J150000D01*
G01*
X148405000Y-93195000D01*
G75*
G02*
X148555000Y-93045000I150000J0D01*
G01*
X150305000Y-93045000D01*
G75*
G02*
X150455000Y-93195000I0J-150000D01*
G01*
G37*
G36*
G01*
X150455000Y-94465000D02*
X150455000Y-94765000D01*
G75*
G02*
X150305000Y-94915000I-150000J0D01*
G01*
X148555000Y-94915000D01*
G75*
G02*
X148405000Y-94765000I0J150000D01*
G01*
X148405000Y-94465000D01*
G75*
G02*
X148555000Y-94315000I150000J0D01*
G01*
X150305000Y-94315000D01*
G75*
G02*
X150455000Y-94465000I0J-150000D01*
G01*
G37*
G36*
G01*
X150455000Y-95735000D02*
X150455000Y-96035000D01*
G75*
G02*
X150305000Y-96185000I-150000J0D01*
G01*
X148555000Y-96185000D01*
G75*
G02*
X148405000Y-96035000I0J150000D01*
G01*
X148405000Y-95735000D01*
G75*
G02*
X148555000Y-95585000I150000J0D01*
G01*
X150305000Y-95585000D01*
G75*
G02*
X150455000Y-95735000I0J-150000D01*
G01*
G37*
G36*
G01*
X150455000Y-97005000D02*
X150455000Y-97305000D01*
G75*
G02*
X150305000Y-97455000I-150000J0D01*
G01*
X148555000Y-97455000D01*
G75*
G02*
X148405000Y-97305000I0J150000D01*
G01*
X148405000Y-97005000D01*
G75*
G02*
X148555000Y-96855000I150000J0D01*
G01*
X150305000Y-96855000D01*
G75*
G02*
X150455000Y-97005000I0J-150000D01*
G01*
G37*
%TD*%
%TO.C,U1*%
G36*
G01*
X114485000Y-97005000D02*
X114485000Y-97305000D01*
G75*
G02*
X114335000Y-97455000I-150000J0D01*
G01*
X112585000Y-97455000D01*
G75*
G02*
X112435000Y-97305000I0J150000D01*
G01*
X112435000Y-97005000D01*
G75*
G02*
X112585000Y-96855000I150000J0D01*
G01*
X114335000Y-96855000D01*
G75*
G02*
X114485000Y-97005000I0J-150000D01*
G01*
G37*
G36*
G01*
X114485000Y-95735000D02*
X114485000Y-96035000D01*
G75*
G02*
X114335000Y-96185000I-150000J0D01*
G01*
X112585000Y-96185000D01*
G75*
G02*
X112435000Y-96035000I0J150000D01*
G01*
X112435000Y-95735000D01*
G75*
G02*
X112585000Y-95585000I150000J0D01*
G01*
X114335000Y-95585000D01*
G75*
G02*
X114485000Y-95735000I0J-150000D01*
G01*
G37*
G36*
G01*
X114485000Y-94465000D02*
X114485000Y-94765000D01*
G75*
G02*
X114335000Y-94915000I-150000J0D01*
G01*
X112585000Y-94915000D01*
G75*
G02*
X112435000Y-94765000I0J150000D01*
G01*
X112435000Y-94465000D01*
G75*
G02*
X112585000Y-94315000I150000J0D01*
G01*
X114335000Y-94315000D01*
G75*
G02*
X114485000Y-94465000I0J-150000D01*
G01*
G37*
G36*
G01*
X114485000Y-93195000D02*
X114485000Y-93495000D01*
G75*
G02*
X114335000Y-93645000I-150000J0D01*
G01*
X112585000Y-93645000D01*
G75*
G02*
X112435000Y-93495000I0J150000D01*
G01*
X112435000Y-93195000D01*
G75*
G02*
X112585000Y-93045000I150000J0D01*
G01*
X114335000Y-93045000D01*
G75*
G02*
X114485000Y-93195000I0J-150000D01*
G01*
G37*
G36*
G01*
X114485000Y-91925000D02*
X114485000Y-92225000D01*
G75*
G02*
X114335000Y-92375000I-150000J0D01*
G01*
X112585000Y-92375000D01*
G75*
G02*
X112435000Y-92225000I0J150000D01*
G01*
X112435000Y-91925000D01*
G75*
G02*
X112585000Y-91775000I150000J0D01*
G01*
X114335000Y-91775000D01*
G75*
G02*
X114485000Y-91925000I0J-150000D01*
G01*
G37*
G36*
G01*
X114485000Y-90655000D02*
X114485000Y-90955000D01*
G75*
G02*
X114335000Y-91105000I-150000J0D01*
G01*
X112585000Y-91105000D01*
G75*
G02*
X112435000Y-90955000I0J150000D01*
G01*
X112435000Y-90655000D01*
G75*
G02*
X112585000Y-90505000I150000J0D01*
G01*
X114335000Y-90505000D01*
G75*
G02*
X114485000Y-90655000I0J-150000D01*
G01*
G37*
G36*
G01*
X114485000Y-89385000D02*
X114485000Y-89685000D01*
G75*
G02*
X114335000Y-89835000I-150000J0D01*
G01*
X112585000Y-89835000D01*
G75*
G02*
X112435000Y-89685000I0J150000D01*
G01*
X112435000Y-89385000D01*
G75*
G02*
X112585000Y-89235000I150000J0D01*
G01*
X114335000Y-89235000D01*
G75*
G02*
X114485000Y-89385000I0J-150000D01*
G01*
G37*
G36*
G01*
X114485000Y-88115000D02*
X114485000Y-88415000D01*
G75*
G02*
X114335000Y-88565000I-150000J0D01*
G01*
X112585000Y-88565000D01*
G75*
G02*
X112435000Y-88415000I0J150000D01*
G01*
X112435000Y-88115000D01*
G75*
G02*
X112585000Y-87965000I150000J0D01*
G01*
X114335000Y-87965000D01*
G75*
G02*
X114485000Y-88115000I0J-150000D01*
G01*
G37*
G36*
G01*
X114485000Y-86845000D02*
X114485000Y-87145000D01*
G75*
G02*
X114335000Y-87295000I-150000J0D01*
G01*
X112585000Y-87295000D01*
G75*
G02*
X112435000Y-87145000I0J150000D01*
G01*
X112435000Y-86845000D01*
G75*
G02*
X112585000Y-86695000I150000J0D01*
G01*
X114335000Y-86695000D01*
G75*
G02*
X114485000Y-86845000I0J-150000D01*
G01*
G37*
G36*
G01*
X114485000Y-85575000D02*
X114485000Y-85875000D01*
G75*
G02*
X114335000Y-86025000I-150000J0D01*
G01*
X112585000Y-86025000D01*
G75*
G02*
X112435000Y-85875000I0J150000D01*
G01*
X112435000Y-85575000D01*
G75*
G02*
X112585000Y-85425000I150000J0D01*
G01*
X114335000Y-85425000D01*
G75*
G02*
X114485000Y-85575000I0J-150000D01*
G01*
G37*
G36*
G01*
X114485000Y-84305000D02*
X114485000Y-84605000D01*
G75*
G02*
X114335000Y-84755000I-150000J0D01*
G01*
X112585000Y-84755000D01*
G75*
G02*
X112435000Y-84605000I0J150000D01*
G01*
X112435000Y-84305000D01*
G75*
G02*
X112585000Y-84155000I150000J0D01*
G01*
X114335000Y-84155000D01*
G75*
G02*
X114485000Y-84305000I0J-150000D01*
G01*
G37*
G36*
G01*
X114485000Y-83035000D02*
X114485000Y-83335000D01*
G75*
G02*
X114335000Y-83485000I-150000J0D01*
G01*
X112585000Y-83485000D01*
G75*
G02*
X112435000Y-83335000I0J150000D01*
G01*
X112435000Y-83035000D01*
G75*
G02*
X112585000Y-82885000I150000J0D01*
G01*
X114335000Y-82885000D01*
G75*
G02*
X114485000Y-83035000I0J-150000D01*
G01*
G37*
G36*
G01*
X114485000Y-81765000D02*
X114485000Y-82065000D01*
G75*
G02*
X114335000Y-82215000I-150000J0D01*
G01*
X112585000Y-82215000D01*
G75*
G02*
X112435000Y-82065000I0J150000D01*
G01*
X112435000Y-81765000D01*
G75*
G02*
X112585000Y-81615000I150000J0D01*
G01*
X114335000Y-81615000D01*
G75*
G02*
X114485000Y-81765000I0J-150000D01*
G01*
G37*
G36*
G01*
X114485000Y-80495000D02*
X114485000Y-80795000D01*
G75*
G02*
X114335000Y-80945000I-150000J0D01*
G01*
X112585000Y-80945000D01*
G75*
G02*
X112435000Y-80795000I0J150000D01*
G01*
X112435000Y-80495000D01*
G75*
G02*
X112585000Y-80345000I150000J0D01*
G01*
X114335000Y-80345000D01*
G75*
G02*
X114485000Y-80495000I0J-150000D01*
G01*
G37*
G36*
G01*
X123785000Y-80495000D02*
X123785000Y-80795000D01*
G75*
G02*
X123635000Y-80945000I-150000J0D01*
G01*
X121885000Y-80945000D01*
G75*
G02*
X121735000Y-80795000I0J150000D01*
G01*
X121735000Y-80495000D01*
G75*
G02*
X121885000Y-80345000I150000J0D01*
G01*
X123635000Y-80345000D01*
G75*
G02*
X123785000Y-80495000I0J-150000D01*
G01*
G37*
G36*
G01*
X123785000Y-81765000D02*
X123785000Y-82065000D01*
G75*
G02*
X123635000Y-82215000I-150000J0D01*
G01*
X121885000Y-82215000D01*
G75*
G02*
X121735000Y-82065000I0J150000D01*
G01*
X121735000Y-81765000D01*
G75*
G02*
X121885000Y-81615000I150000J0D01*
G01*
X123635000Y-81615000D01*
G75*
G02*
X123785000Y-81765000I0J-150000D01*
G01*
G37*
G36*
G01*
X123785000Y-83035000D02*
X123785000Y-83335000D01*
G75*
G02*
X123635000Y-83485000I-150000J0D01*
G01*
X121885000Y-83485000D01*
G75*
G02*
X121735000Y-83335000I0J150000D01*
G01*
X121735000Y-83035000D01*
G75*
G02*
X121885000Y-82885000I150000J0D01*
G01*
X123635000Y-82885000D01*
G75*
G02*
X123785000Y-83035000I0J-150000D01*
G01*
G37*
G36*
G01*
X123785000Y-84305000D02*
X123785000Y-84605000D01*
G75*
G02*
X123635000Y-84755000I-150000J0D01*
G01*
X121885000Y-84755000D01*
G75*
G02*
X121735000Y-84605000I0J150000D01*
G01*
X121735000Y-84305000D01*
G75*
G02*
X121885000Y-84155000I150000J0D01*
G01*
X123635000Y-84155000D01*
G75*
G02*
X123785000Y-84305000I0J-150000D01*
G01*
G37*
G36*
G01*
X123785000Y-85575000D02*
X123785000Y-85875000D01*
G75*
G02*
X123635000Y-86025000I-150000J0D01*
G01*
X121885000Y-86025000D01*
G75*
G02*
X121735000Y-85875000I0J150000D01*
G01*
X121735000Y-85575000D01*
G75*
G02*
X121885000Y-85425000I150000J0D01*
G01*
X123635000Y-85425000D01*
G75*
G02*
X123785000Y-85575000I0J-150000D01*
G01*
G37*
G36*
G01*
X123785000Y-86845000D02*
X123785000Y-87145000D01*
G75*
G02*
X123635000Y-87295000I-150000J0D01*
G01*
X121885000Y-87295000D01*
G75*
G02*
X121735000Y-87145000I0J150000D01*
G01*
X121735000Y-86845000D01*
G75*
G02*
X121885000Y-86695000I150000J0D01*
G01*
X123635000Y-86695000D01*
G75*
G02*
X123785000Y-86845000I0J-150000D01*
G01*
G37*
G36*
G01*
X123785000Y-88115000D02*
X123785000Y-88415000D01*
G75*
G02*
X123635000Y-88565000I-150000J0D01*
G01*
X121885000Y-88565000D01*
G75*
G02*
X121735000Y-88415000I0J150000D01*
G01*
X121735000Y-88115000D01*
G75*
G02*
X121885000Y-87965000I150000J0D01*
G01*
X123635000Y-87965000D01*
G75*
G02*
X123785000Y-88115000I0J-150000D01*
G01*
G37*
G36*
G01*
X123785000Y-89385000D02*
X123785000Y-89685000D01*
G75*
G02*
X123635000Y-89835000I-150000J0D01*
G01*
X121885000Y-89835000D01*
G75*
G02*
X121735000Y-89685000I0J150000D01*
G01*
X121735000Y-89385000D01*
G75*
G02*
X121885000Y-89235000I150000J0D01*
G01*
X123635000Y-89235000D01*
G75*
G02*
X123785000Y-89385000I0J-150000D01*
G01*
G37*
G36*
G01*
X123785000Y-90655000D02*
X123785000Y-90955000D01*
G75*
G02*
X123635000Y-91105000I-150000J0D01*
G01*
X121885000Y-91105000D01*
G75*
G02*
X121735000Y-90955000I0J150000D01*
G01*
X121735000Y-90655000D01*
G75*
G02*
X121885000Y-90505000I150000J0D01*
G01*
X123635000Y-90505000D01*
G75*
G02*
X123785000Y-90655000I0J-150000D01*
G01*
G37*
G36*
G01*
X123785000Y-91925000D02*
X123785000Y-92225000D01*
G75*
G02*
X123635000Y-92375000I-150000J0D01*
G01*
X121885000Y-92375000D01*
G75*
G02*
X121735000Y-92225000I0J150000D01*
G01*
X121735000Y-91925000D01*
G75*
G02*
X121885000Y-91775000I150000J0D01*
G01*
X123635000Y-91775000D01*
G75*
G02*
X123785000Y-91925000I0J-150000D01*
G01*
G37*
G36*
G01*
X123785000Y-93195000D02*
X123785000Y-93495000D01*
G75*
G02*
X123635000Y-93645000I-150000J0D01*
G01*
X121885000Y-93645000D01*
G75*
G02*
X121735000Y-93495000I0J150000D01*
G01*
X121735000Y-93195000D01*
G75*
G02*
X121885000Y-93045000I150000J0D01*
G01*
X123635000Y-93045000D01*
G75*
G02*
X123785000Y-93195000I0J-150000D01*
G01*
G37*
G36*
G01*
X123785000Y-94465000D02*
X123785000Y-94765000D01*
G75*
G02*
X123635000Y-94915000I-150000J0D01*
G01*
X121885000Y-94915000D01*
G75*
G02*
X121735000Y-94765000I0J150000D01*
G01*
X121735000Y-94465000D01*
G75*
G02*
X121885000Y-94315000I150000J0D01*
G01*
X123635000Y-94315000D01*
G75*
G02*
X123785000Y-94465000I0J-150000D01*
G01*
G37*
G36*
G01*
X123785000Y-95735000D02*
X123785000Y-96035000D01*
G75*
G02*
X123635000Y-96185000I-150000J0D01*
G01*
X121885000Y-96185000D01*
G75*
G02*
X121735000Y-96035000I0J150000D01*
G01*
X121735000Y-95735000D01*
G75*
G02*
X121885000Y-95585000I150000J0D01*
G01*
X123635000Y-95585000D01*
G75*
G02*
X123785000Y-95735000I0J-150000D01*
G01*
G37*
G36*
G01*
X123785000Y-97005000D02*
X123785000Y-97305000D01*
G75*
G02*
X123635000Y-97455000I-150000J0D01*
G01*
X121885000Y-97455000D01*
G75*
G02*
X121735000Y-97305000I0J150000D01*
G01*
X121735000Y-97005000D01*
G75*
G02*
X121885000Y-96855000I150000J0D01*
G01*
X123635000Y-96855000D01*
G75*
G02*
X123785000Y-97005000I0J-150000D01*
G01*
G37*
%TD*%
%TO.C,R14*%
G36*
G01*
X75056000Y-84719000D02*
X75056000Y-85969000D01*
G75*
G02*
X74806000Y-86219000I-250000J0D01*
G01*
X74006000Y-86219000D01*
G75*
G02*
X73756000Y-85969000I0J250000D01*
G01*
X73756000Y-84719000D01*
G75*
G02*
X74006000Y-84469000I250000J0D01*
G01*
X74806000Y-84469000D01*
G75*
G02*
X75056000Y-84719000I0J-250000D01*
G01*
G37*
G36*
G01*
X78156000Y-84719000D02*
X78156000Y-85969000D01*
G75*
G02*
X77906000Y-86219000I-250000J0D01*
G01*
X77106000Y-86219000D01*
G75*
G02*
X76856000Y-85969000I0J250000D01*
G01*
X76856000Y-84719000D01*
G75*
G02*
X77106000Y-84469000I250000J0D01*
G01*
X77906000Y-84469000D01*
G75*
G02*
X78156000Y-84719000I0J-250000D01*
G01*
G37*
%TD*%
%TO.C,R13*%
G36*
G01*
X75030000Y-79766000D02*
X75030000Y-81016000D01*
G75*
G02*
X74780000Y-81266000I-250000J0D01*
G01*
X73980000Y-81266000D01*
G75*
G02*
X73730000Y-81016000I0J250000D01*
G01*
X73730000Y-79766000D01*
G75*
G02*
X73980000Y-79516000I250000J0D01*
G01*
X74780000Y-79516000D01*
G75*
G02*
X75030000Y-79766000I0J-250000D01*
G01*
G37*
G36*
G01*
X78130000Y-79766000D02*
X78130000Y-81016000D01*
G75*
G02*
X77880000Y-81266000I-250000J0D01*
G01*
X77080000Y-81266000D01*
G75*
G02*
X76830000Y-81016000I0J250000D01*
G01*
X76830000Y-79766000D01*
G75*
G02*
X77080000Y-79516000I250000J0D01*
G01*
X77880000Y-79516000D01*
G75*
G02*
X78130000Y-79766000I0J-250000D01*
G01*
G37*
%TD*%
%TO.C,R12*%
G36*
G01*
X80540000Y-109375000D02*
X80540000Y-108125000D01*
G75*
G02*
X80790000Y-107875000I250000J0D01*
G01*
X81590000Y-107875000D01*
G75*
G02*
X81840000Y-108125000I0J-250000D01*
G01*
X81840000Y-109375000D01*
G75*
G02*
X81590000Y-109625000I-250000J0D01*
G01*
X80790000Y-109625000D01*
G75*
G02*
X80540000Y-109375000I0J250000D01*
G01*
G37*
G36*
G01*
X77440000Y-109375000D02*
X77440000Y-108125000D01*
G75*
G02*
X77690000Y-107875000I250000J0D01*
G01*
X78490000Y-107875000D01*
G75*
G02*
X78740000Y-108125000I0J-250000D01*
G01*
X78740000Y-109375000D01*
G75*
G02*
X78490000Y-109625000I-250000J0D01*
G01*
X77690000Y-109625000D01*
G75*
G02*
X77440000Y-109375000I0J250000D01*
G01*
G37*
%TD*%
%TO.C,R11*%
G36*
G01*
X80540000Y-104295000D02*
X80540000Y-103045000D01*
G75*
G02*
X80790000Y-102795000I250000J0D01*
G01*
X81590000Y-102795000D01*
G75*
G02*
X81840000Y-103045000I0J-250000D01*
G01*
X81840000Y-104295000D01*
G75*
G02*
X81590000Y-104545000I-250000J0D01*
G01*
X80790000Y-104545000D01*
G75*
G02*
X80540000Y-104295000I0J250000D01*
G01*
G37*
G36*
G01*
X77440000Y-104295000D02*
X77440000Y-103045000D01*
G75*
G02*
X77690000Y-102795000I250000J0D01*
G01*
X78490000Y-102795000D01*
G75*
G02*
X78740000Y-103045000I0J-250000D01*
G01*
X78740000Y-104295000D01*
G75*
G02*
X78490000Y-104545000I-250000J0D01*
G01*
X77690000Y-104545000D01*
G75*
G02*
X77440000Y-104295000I0J250000D01*
G01*
G37*
%TD*%
%TO.C,R10*%
G36*
G01*
X80566000Y-99342000D02*
X80566000Y-98092000D01*
G75*
G02*
X80816000Y-97842000I250000J0D01*
G01*
X81616000Y-97842000D01*
G75*
G02*
X81866000Y-98092000I0J-250000D01*
G01*
X81866000Y-99342000D01*
G75*
G02*
X81616000Y-99592000I-250000J0D01*
G01*
X80816000Y-99592000D01*
G75*
G02*
X80566000Y-99342000I0J250000D01*
G01*
G37*
G36*
G01*
X77466000Y-99342000D02*
X77466000Y-98092000D01*
G75*
G02*
X77716000Y-97842000I250000J0D01*
G01*
X78516000Y-97842000D01*
G75*
G02*
X78766000Y-98092000I0J-250000D01*
G01*
X78766000Y-99342000D01*
G75*
G02*
X78516000Y-99592000I-250000J0D01*
G01*
X77716000Y-99592000D01*
G75*
G02*
X77466000Y-99342000I0J250000D01*
G01*
G37*
%TD*%
%TO.C,R9*%
G36*
G01*
X80540000Y-94389000D02*
X80540000Y-93139000D01*
G75*
G02*
X80790000Y-92889000I250000J0D01*
G01*
X81590000Y-92889000D01*
G75*
G02*
X81840000Y-93139000I0J-250000D01*
G01*
X81840000Y-94389000D01*
G75*
G02*
X81590000Y-94639000I-250000J0D01*
G01*
X80790000Y-94639000D01*
G75*
G02*
X80540000Y-94389000I0J250000D01*
G01*
G37*
G36*
G01*
X77440000Y-94389000D02*
X77440000Y-93139000D01*
G75*
G02*
X77690000Y-92889000I250000J0D01*
G01*
X78490000Y-92889000D01*
G75*
G02*
X78740000Y-93139000I0J-250000D01*
G01*
X78740000Y-94389000D01*
G75*
G02*
X78490000Y-94639000I-250000J0D01*
G01*
X77690000Y-94639000D01*
G75*
G02*
X77440000Y-94389000I0J250000D01*
G01*
G37*
%TD*%
%TO.C,R8*%
G36*
G01*
X71672000Y-109248000D02*
X71672000Y-107998000D01*
G75*
G02*
X71922000Y-107748000I250000J0D01*
G01*
X72722000Y-107748000D01*
G75*
G02*
X72972000Y-107998000I0J-250000D01*
G01*
X72972000Y-109248000D01*
G75*
G02*
X72722000Y-109498000I-250000J0D01*
G01*
X71922000Y-109498000D01*
G75*
G02*
X71672000Y-109248000I0J250000D01*
G01*
G37*
G36*
G01*
X68572000Y-109248000D02*
X68572000Y-107998000D01*
G75*
G02*
X68822000Y-107748000I250000J0D01*
G01*
X69622000Y-107748000D01*
G75*
G02*
X69872000Y-107998000I0J-250000D01*
G01*
X69872000Y-109248000D01*
G75*
G02*
X69622000Y-109498000I-250000J0D01*
G01*
X68822000Y-109498000D01*
G75*
G02*
X68572000Y-109248000I0J250000D01*
G01*
G37*
%TD*%
%TO.C,R7*%
G36*
G01*
X71672000Y-104295000D02*
X71672000Y-103045000D01*
G75*
G02*
X71922000Y-102795000I250000J0D01*
G01*
X72722000Y-102795000D01*
G75*
G02*
X72972000Y-103045000I0J-250000D01*
G01*
X72972000Y-104295000D01*
G75*
G02*
X72722000Y-104545000I-250000J0D01*
G01*
X71922000Y-104545000D01*
G75*
G02*
X71672000Y-104295000I0J250000D01*
G01*
G37*
G36*
G01*
X68572000Y-104295000D02*
X68572000Y-103045000D01*
G75*
G02*
X68822000Y-102795000I250000J0D01*
G01*
X69622000Y-102795000D01*
G75*
G02*
X69872000Y-103045000I0J-250000D01*
G01*
X69872000Y-104295000D01*
G75*
G02*
X69622000Y-104545000I-250000J0D01*
G01*
X68822000Y-104545000D01*
G75*
G02*
X68572000Y-104295000I0J250000D01*
G01*
G37*
%TD*%
%TO.C,R6*%
G36*
G01*
X71672000Y-99342000D02*
X71672000Y-98092000D01*
G75*
G02*
X71922000Y-97842000I250000J0D01*
G01*
X72722000Y-97842000D01*
G75*
G02*
X72972000Y-98092000I0J-250000D01*
G01*
X72972000Y-99342000D01*
G75*
G02*
X72722000Y-99592000I-250000J0D01*
G01*
X71922000Y-99592000D01*
G75*
G02*
X71672000Y-99342000I0J250000D01*
G01*
G37*
G36*
G01*
X68572000Y-99342000D02*
X68572000Y-98092000D01*
G75*
G02*
X68822000Y-97842000I250000J0D01*
G01*
X69622000Y-97842000D01*
G75*
G02*
X69872000Y-98092000I0J-250000D01*
G01*
X69872000Y-99342000D01*
G75*
G02*
X69622000Y-99592000I-250000J0D01*
G01*
X68822000Y-99592000D01*
G75*
G02*
X68572000Y-99342000I0J250000D01*
G01*
G37*
%TD*%
%TO.C,R5*%
G36*
G01*
X71672000Y-94389000D02*
X71672000Y-93139000D01*
G75*
G02*
X71922000Y-92889000I250000J0D01*
G01*
X72722000Y-92889000D01*
G75*
G02*
X72972000Y-93139000I0J-250000D01*
G01*
X72972000Y-94389000D01*
G75*
G02*
X72722000Y-94639000I-250000J0D01*
G01*
X71922000Y-94639000D01*
G75*
G02*
X71672000Y-94389000I0J250000D01*
G01*
G37*
G36*
G01*
X68572000Y-94389000D02*
X68572000Y-93139000D01*
G75*
G02*
X68822000Y-92889000I250000J0D01*
G01*
X69622000Y-92889000D01*
G75*
G02*
X69872000Y-93139000I0J-250000D01*
G01*
X69872000Y-94389000D01*
G75*
G02*
X69622000Y-94639000I-250000J0D01*
G01*
X68822000Y-94639000D01*
G75*
G02*
X68572000Y-94389000I0J250000D01*
G01*
G37*
%TD*%
%TO.C,R4*%
G36*
G01*
X104780000Y-99605000D02*
X104780000Y-98355000D01*
G75*
G02*
X105030000Y-98105000I250000J0D01*
G01*
X105830000Y-98105000D01*
G75*
G02*
X106080000Y-98355000I0J-250000D01*
G01*
X106080000Y-99605000D01*
G75*
G02*
X105830000Y-99855000I-250000J0D01*
G01*
X105030000Y-99855000D01*
G75*
G02*
X104780000Y-99605000I0J250000D01*
G01*
G37*
G36*
G01*
X101680000Y-99605000D02*
X101680000Y-98355000D01*
G75*
G02*
X101930000Y-98105000I250000J0D01*
G01*
X102730000Y-98105000D01*
G75*
G02*
X102980000Y-98355000I0J-250000D01*
G01*
X102980000Y-99605000D01*
G75*
G02*
X102730000Y-99855000I-250000J0D01*
G01*
X101930000Y-99855000D01*
G75*
G02*
X101680000Y-99605000I0J250000D01*
G01*
G37*
%TD*%
%TO.C,R3*%
G36*
G01*
X104855000Y-109892000D02*
X104855000Y-108642000D01*
G75*
G02*
X105105000Y-108392000I250000J0D01*
G01*
X105905000Y-108392000D01*
G75*
G02*
X106155000Y-108642000I0J-250000D01*
G01*
X106155000Y-109892000D01*
G75*
G02*
X105905000Y-110142000I-250000J0D01*
G01*
X105105000Y-110142000D01*
G75*
G02*
X104855000Y-109892000I0J250000D01*
G01*
G37*
G36*
G01*
X101755000Y-109892000D02*
X101755000Y-108642000D01*
G75*
G02*
X102005000Y-108392000I250000J0D01*
G01*
X102805000Y-108392000D01*
G75*
G02*
X103055000Y-108642000I0J-250000D01*
G01*
X103055000Y-109892000D01*
G75*
G02*
X102805000Y-110142000I-250000J0D01*
G01*
X102005000Y-110142000D01*
G75*
G02*
X101755000Y-109892000I0J250000D01*
G01*
G37*
%TD*%
%TO.C,R2*%
G36*
G01*
X104855000Y-104685000D02*
X104855000Y-103435000D01*
G75*
G02*
X105105000Y-103185000I250000J0D01*
G01*
X105905000Y-103185000D01*
G75*
G02*
X106155000Y-103435000I0J-250000D01*
G01*
X106155000Y-104685000D01*
G75*
G02*
X105905000Y-104935000I-250000J0D01*
G01*
X105105000Y-104935000D01*
G75*
G02*
X104855000Y-104685000I0J250000D01*
G01*
G37*
G36*
G01*
X101755000Y-104685000D02*
X101755000Y-103435000D01*
G75*
G02*
X102005000Y-103185000I250000J0D01*
G01*
X102805000Y-103185000D01*
G75*
G02*
X103055000Y-103435000I0J-250000D01*
G01*
X103055000Y-104685000D01*
G75*
G02*
X102805000Y-104935000I-250000J0D01*
G01*
X102005000Y-104935000D01*
G75*
G02*
X101755000Y-104685000I0J250000D01*
G01*
G37*
%TD*%
%TO.C,R1*%
G36*
G01*
X104780000Y-94525000D02*
X104780000Y-93275000D01*
G75*
G02*
X105030000Y-93025000I250000J0D01*
G01*
X105830000Y-93025000D01*
G75*
G02*
X106080000Y-93275000I0J-250000D01*
G01*
X106080000Y-94525000D01*
G75*
G02*
X105830000Y-94775000I-250000J0D01*
G01*
X105030000Y-94775000D01*
G75*
G02*
X104780000Y-94525000I0J250000D01*
G01*
G37*
G36*
G01*
X101680000Y-94525000D02*
X101680000Y-93275000D01*
G75*
G02*
X101930000Y-93025000I250000J0D01*
G01*
X102730000Y-93025000D01*
G75*
G02*
X102980000Y-93275000I0J-250000D01*
G01*
X102980000Y-94525000D01*
G75*
G02*
X102730000Y-94775000I-250000J0D01*
G01*
X101930000Y-94775000D01*
G75*
G02*
X101680000Y-94525000I0J250000D01*
G01*
G37*
%TD*%
%TO.C,D4*%
G36*
G01*
X96475000Y-98355000D02*
X96475000Y-99605000D01*
G75*
G02*
X96225000Y-99855000I-250000J0D01*
G01*
X95300000Y-99855000D01*
G75*
G02*
X95050000Y-99605000I0J250000D01*
G01*
X95050000Y-98355000D01*
G75*
G02*
X95300000Y-98105000I250000J0D01*
G01*
X96225000Y-98105000D01*
G75*
G02*
X96475000Y-98355000I0J-250000D01*
G01*
G37*
G36*
G01*
X99450000Y-98355000D02*
X99450000Y-99605000D01*
G75*
G02*
X99200000Y-99855000I-250000J0D01*
G01*
X98275000Y-99855000D01*
G75*
G02*
X98025000Y-99605000I0J250000D01*
G01*
X98025000Y-98355000D01*
G75*
G02*
X98275000Y-98105000I250000J0D01*
G01*
X99200000Y-98105000D01*
G75*
G02*
X99450000Y-98355000I0J-250000D01*
G01*
G37*
%TD*%
%TO.C,D3*%
G36*
G01*
X96565500Y-108642000D02*
X96565500Y-109892000D01*
G75*
G02*
X96315500Y-110142000I-250000J0D01*
G01*
X95390500Y-110142000D01*
G75*
G02*
X95140500Y-109892000I0J250000D01*
G01*
X95140500Y-108642000D01*
G75*
G02*
X95390500Y-108392000I250000J0D01*
G01*
X96315500Y-108392000D01*
G75*
G02*
X96565500Y-108642000I0J-250000D01*
G01*
G37*
G36*
G01*
X99540500Y-108642000D02*
X99540500Y-109892000D01*
G75*
G02*
X99290500Y-110142000I-250000J0D01*
G01*
X98365500Y-110142000D01*
G75*
G02*
X98115500Y-109892000I0J250000D01*
G01*
X98115500Y-108642000D01*
G75*
G02*
X98365500Y-108392000I250000J0D01*
G01*
X99290500Y-108392000D01*
G75*
G02*
X99540500Y-108642000I0J-250000D01*
G01*
G37*
%TD*%
%TO.C,D2*%
G36*
G01*
X96511500Y-103435000D02*
X96511500Y-104685000D01*
G75*
G02*
X96261500Y-104935000I-250000J0D01*
G01*
X95336500Y-104935000D01*
G75*
G02*
X95086500Y-104685000I0J250000D01*
G01*
X95086500Y-103435000D01*
G75*
G02*
X95336500Y-103185000I250000J0D01*
G01*
X96261500Y-103185000D01*
G75*
G02*
X96511500Y-103435000I0J-250000D01*
G01*
G37*
G36*
G01*
X99486500Y-103435000D02*
X99486500Y-104685000D01*
G75*
G02*
X99236500Y-104935000I-250000J0D01*
G01*
X98311500Y-104935000D01*
G75*
G02*
X98061500Y-104685000I0J250000D01*
G01*
X98061500Y-103435000D01*
G75*
G02*
X98311500Y-103185000I250000J0D01*
G01*
X99236500Y-103185000D01*
G75*
G02*
X99486500Y-103435000I0J-250000D01*
G01*
G37*
%TD*%
%TO.C,D1*%
G36*
G01*
X96475000Y-93275000D02*
X96475000Y-94525000D01*
G75*
G02*
X96225000Y-94775000I-250000J0D01*
G01*
X95300000Y-94775000D01*
G75*
G02*
X95050000Y-94525000I0J250000D01*
G01*
X95050000Y-93275000D01*
G75*
G02*
X95300000Y-93025000I250000J0D01*
G01*
X96225000Y-93025000D01*
G75*
G02*
X96475000Y-93275000I0J-250000D01*
G01*
G37*
G36*
G01*
X99450000Y-93275000D02*
X99450000Y-94525000D01*
G75*
G02*
X99200000Y-94775000I-250000J0D01*
G01*
X98275000Y-94775000D01*
G75*
G02*
X98025000Y-94525000I0J250000D01*
G01*
X98025000Y-93275000D01*
G75*
G02*
X98275000Y-93025000I250000J0D01*
G01*
X99200000Y-93025000D01*
G75*
G02*
X99450000Y-93275000I0J-250000D01*
G01*
G37*
%TD*%
%TO.C,C8*%
G36*
G01*
X207660001Y-112422000D02*
X206359999Y-112422000D01*
G75*
G02*
X206110000Y-112172001I0J249999D01*
G01*
X206110000Y-111346999D01*
G75*
G02*
X206359999Y-111097000I249999J0D01*
G01*
X207660001Y-111097000D01*
G75*
G02*
X207910000Y-111346999I0J-249999D01*
G01*
X207910000Y-112172001D01*
G75*
G02*
X207660001Y-112422000I-249999J0D01*
G01*
G37*
G36*
G01*
X207660001Y-115547000D02*
X206359999Y-115547000D01*
G75*
G02*
X206110000Y-115297001I0J249999D01*
G01*
X206110000Y-114471999D01*
G75*
G02*
X206359999Y-114222000I249999J0D01*
G01*
X207660001Y-114222000D01*
G75*
G02*
X207910000Y-114471999I0J-249999D01*
G01*
X207910000Y-115297001D01*
G75*
G02*
X207660001Y-115547000I-249999J0D01*
G01*
G37*
%TD*%
%TO.C,C7*%
G36*
G01*
X180990001Y-111838000D02*
X179689999Y-111838000D01*
G75*
G02*
X179440000Y-111588001I0J249999D01*
G01*
X179440000Y-110762999D01*
G75*
G02*
X179689999Y-110513000I249999J0D01*
G01*
X180990001Y-110513000D01*
G75*
G02*
X181240000Y-110762999I0J-249999D01*
G01*
X181240000Y-111588001D01*
G75*
G02*
X180990001Y-111838000I-249999J0D01*
G01*
G37*
G36*
G01*
X180990001Y-114963000D02*
X179689999Y-114963000D01*
G75*
G02*
X179440000Y-114713001I0J249999D01*
G01*
X179440000Y-113887999D01*
G75*
G02*
X179689999Y-113638000I249999J0D01*
G01*
X180990001Y-113638000D01*
G75*
G02*
X181240000Y-113887999I0J-249999D01*
G01*
X181240000Y-114713001D01*
G75*
G02*
X180990001Y-114963000I-249999J0D01*
G01*
G37*
%TD*%
%TO.C,C6*%
G36*
G01*
X154320001Y-112130000D02*
X153019999Y-112130000D01*
G75*
G02*
X152770000Y-111880001I0J249999D01*
G01*
X152770000Y-111054999D01*
G75*
G02*
X153019999Y-110805000I249999J0D01*
G01*
X154320001Y-110805000D01*
G75*
G02*
X154570000Y-111054999I0J-249999D01*
G01*
X154570000Y-111880001D01*
G75*
G02*
X154320001Y-112130000I-249999J0D01*
G01*
G37*
G36*
G01*
X154320001Y-115255000D02*
X153019999Y-115255000D01*
G75*
G02*
X152770000Y-115005001I0J249999D01*
G01*
X152770000Y-114179999D01*
G75*
G02*
X153019999Y-113930000I249999J0D01*
G01*
X154320001Y-113930000D01*
G75*
G02*
X154570000Y-114179999I0J-249999D01*
G01*
X154570000Y-115005001D01*
G75*
G02*
X154320001Y-115255000I-249999J0D01*
G01*
G37*
%TD*%
%TO.C,C5*%
G36*
G01*
X127650001Y-111838000D02*
X126349999Y-111838000D01*
G75*
G02*
X126100000Y-111588001I0J249999D01*
G01*
X126100000Y-110762999D01*
G75*
G02*
X126349999Y-110513000I249999J0D01*
G01*
X127650001Y-110513000D01*
G75*
G02*
X127900000Y-110762999I0J-249999D01*
G01*
X127900000Y-111588001D01*
G75*
G02*
X127650001Y-111838000I-249999J0D01*
G01*
G37*
G36*
G01*
X127650001Y-114963000D02*
X126349999Y-114963000D01*
G75*
G02*
X126100000Y-114713001I0J249999D01*
G01*
X126100000Y-113887999D01*
G75*
G02*
X126349999Y-113638000I249999J0D01*
G01*
X127650001Y-113638000D01*
G75*
G02*
X127900000Y-113887999I0J-249999D01*
G01*
X127900000Y-114713001D01*
G75*
G02*
X127650001Y-114963000I-249999J0D01*
G01*
G37*
%TD*%
%TO.C,C4*%
G36*
G01*
X207660001Y-85752500D02*
X206359999Y-85752500D01*
G75*
G02*
X206110000Y-85502501I0J249999D01*
G01*
X206110000Y-84677499D01*
G75*
G02*
X206359999Y-84427500I249999J0D01*
G01*
X207660001Y-84427500D01*
G75*
G02*
X207910000Y-84677499I0J-249999D01*
G01*
X207910000Y-85502501D01*
G75*
G02*
X207660001Y-85752500I-249999J0D01*
G01*
G37*
G36*
G01*
X207660001Y-88877500D02*
X206359999Y-88877500D01*
G75*
G02*
X206110000Y-88627501I0J249999D01*
G01*
X206110000Y-87802499D01*
G75*
G02*
X206359999Y-87552500I249999J0D01*
G01*
X207660001Y-87552500D01*
G75*
G02*
X207910000Y-87802499I0J-249999D01*
G01*
X207910000Y-88627501D01*
G75*
G02*
X207660001Y-88877500I-249999J0D01*
G01*
G37*
%TD*%
%TO.C,C3*%
G36*
G01*
X180990001Y-85752500D02*
X179689999Y-85752500D01*
G75*
G02*
X179440000Y-85502501I0J249999D01*
G01*
X179440000Y-84677499D01*
G75*
G02*
X179689999Y-84427500I249999J0D01*
G01*
X180990001Y-84427500D01*
G75*
G02*
X181240000Y-84677499I0J-249999D01*
G01*
X181240000Y-85502501D01*
G75*
G02*
X180990001Y-85752500I-249999J0D01*
G01*
G37*
G36*
G01*
X180990001Y-88877500D02*
X179689999Y-88877500D01*
G75*
G02*
X179440000Y-88627501I0J249999D01*
G01*
X179440000Y-87802499D01*
G75*
G02*
X179689999Y-87552500I249999J0D01*
G01*
X180990001Y-87552500D01*
G75*
G02*
X181240000Y-87802499I0J-249999D01*
G01*
X181240000Y-88627501D01*
G75*
G02*
X180990001Y-88877500I-249999J0D01*
G01*
G37*
%TD*%
%TO.C,C2*%
G36*
G01*
X154320001Y-85752500D02*
X153019999Y-85752500D01*
G75*
G02*
X152770000Y-85502501I0J249999D01*
G01*
X152770000Y-84677499D01*
G75*
G02*
X153019999Y-84427500I249999J0D01*
G01*
X154320001Y-84427500D01*
G75*
G02*
X154570000Y-84677499I0J-249999D01*
G01*
X154570000Y-85502501D01*
G75*
G02*
X154320001Y-85752500I-249999J0D01*
G01*
G37*
G36*
G01*
X154320001Y-88877500D02*
X153019999Y-88877500D01*
G75*
G02*
X152770000Y-88627501I0J249999D01*
G01*
X152770000Y-87802499D01*
G75*
G02*
X153019999Y-87552500I249999J0D01*
G01*
X154320001Y-87552500D01*
G75*
G02*
X154570000Y-87802499I0J-249999D01*
G01*
X154570000Y-88627501D01*
G75*
G02*
X154320001Y-88877500I-249999J0D01*
G01*
G37*
%TD*%
%TO.C,C1*%
G36*
G01*
X127650001Y-85752500D02*
X126349999Y-85752500D01*
G75*
G02*
X126100000Y-85502501I0J249999D01*
G01*
X126100000Y-84677499D01*
G75*
G02*
X126349999Y-84427500I249999J0D01*
G01*
X127650001Y-84427500D01*
G75*
G02*
X127900000Y-84677499I0J-249999D01*
G01*
X127900000Y-85502501D01*
G75*
G02*
X127650001Y-85752500I-249999J0D01*
G01*
G37*
G36*
G01*
X127650001Y-88877500D02*
X126349999Y-88877500D01*
G75*
G02*
X126100000Y-88627501I0J249999D01*
G01*
X126100000Y-87802499D01*
G75*
G02*
X126349999Y-87552500I249999J0D01*
G01*
X127650001Y-87552500D01*
G75*
G02*
X127900000Y-87802499I0J-249999D01*
G01*
X127900000Y-88627501D01*
G75*
G02*
X127650001Y-88877500I-249999J0D01*
G01*
G37*
%TD*%
M02*
