%TF.GenerationSoftware,KiCad,Pcbnew,(5.1.9)-1*%
%TF.CreationDate,2021-05-09T20:57:10+02:00*%
%TF.ProjectId,opena3xx-hardware-controller-board,6f70656e-6133-4787-982d-686172647761,rev?*%
%TF.SameCoordinates,Original*%
%TF.FileFunction,Legend,Bot*%
%TF.FilePolarity,Positive*%
%FSLAX46Y46*%
G04 Gerber Fmt 4.6, Leading zero omitted, Abs format (unit mm)*
G04 Created by KiCad (PCBNEW (5.1.9)-1) date 2021-05-09 20:57:10*
%MOMM*%
%LPD*%
G01*
G04 APERTURE LIST*
%ADD10C,0.010000*%
G04 APERTURE END LIST*
D10*
%TO.C,G\u002A\u002A\u002A*%
G36*
X133727640Y-102496620D02*
G01*
X134746307Y-102496620D01*
X135316474Y-101628787D01*
X135886640Y-100760953D01*
X135910769Y-101628787D01*
X135934898Y-102496620D01*
X136442593Y-102496620D01*
X136781369Y-102477760D01*
X136963655Y-102422033D01*
X136991778Y-102388500D01*
X137003249Y-102274209D01*
X137011258Y-102017785D01*
X137015532Y-101646398D01*
X137015797Y-101187218D01*
X137011781Y-100667417D01*
X137010287Y-100547000D01*
X136987307Y-98813620D01*
X136436974Y-98789545D01*
X135886640Y-98765471D01*
X135378640Y-99564469D01*
X134870640Y-100363468D01*
X134785974Y-98813620D01*
X133727640Y-98763206D01*
X133727640Y-102496620D01*
G37*
X133727640Y-102496620D02*
X134746307Y-102496620D01*
X135316474Y-101628787D01*
X135886640Y-100760953D01*
X135910769Y-101628787D01*
X135934898Y-102496620D01*
X136442593Y-102496620D01*
X136781369Y-102477760D01*
X136963655Y-102422033D01*
X136991778Y-102388500D01*
X137003249Y-102274209D01*
X137011258Y-102017785D01*
X137015532Y-101646398D01*
X137015797Y-101187218D01*
X137011781Y-100667417D01*
X137010287Y-100547000D01*
X136987307Y-98813620D01*
X136436974Y-98789545D01*
X135886640Y-98765471D01*
X135378640Y-99564469D01*
X134870640Y-100363468D01*
X134785974Y-98813620D01*
X133727640Y-98763206D01*
X133727640Y-102496620D01*
G36*
X137283640Y-99787287D02*
G01*
X137882515Y-99787286D01*
X138195775Y-99792151D01*
X138373149Y-99812511D01*
X138447945Y-99857012D01*
X138453472Y-99934301D01*
X138453255Y-99935453D01*
X138401366Y-100021780D01*
X138262349Y-100077860D01*
X138001193Y-100115237D01*
X137875547Y-100125953D01*
X137325974Y-100168287D01*
X137325974Y-101099620D01*
X137876307Y-101141953D01*
X138175729Y-101171362D01*
X138342653Y-101210879D01*
X138413863Y-101274651D01*
X138426640Y-101353620D01*
X138408141Y-101444970D01*
X138328298Y-101499656D01*
X138150591Y-101530096D01*
X137855140Y-101547988D01*
X137283640Y-101573023D01*
X137283640Y-102496620D01*
X138386964Y-102496620D01*
X138876258Y-102491755D01*
X139215662Y-102475952D01*
X139424372Y-102447397D01*
X139521587Y-102404277D01*
X139531778Y-102388500D01*
X139543249Y-102274209D01*
X139551258Y-102017785D01*
X139555532Y-101646398D01*
X139555797Y-101187218D01*
X139551781Y-100667417D01*
X139550287Y-100547000D01*
X139527307Y-98813620D01*
X138405474Y-98789996D01*
X137283640Y-98766372D01*
X137283640Y-99787287D01*
G37*
X137283640Y-99787287D02*
X137882515Y-99787286D01*
X138195775Y-99792151D01*
X138373149Y-99812511D01*
X138447945Y-99857012D01*
X138453472Y-99934301D01*
X138453255Y-99935453D01*
X138401366Y-100021780D01*
X138262349Y-100077860D01*
X138001193Y-100115237D01*
X137875547Y-100125953D01*
X137325974Y-100168287D01*
X137325974Y-101099620D01*
X137876307Y-101141953D01*
X138175729Y-101171362D01*
X138342653Y-101210879D01*
X138413863Y-101274651D01*
X138426640Y-101353620D01*
X138408141Y-101444970D01*
X138328298Y-101499656D01*
X138150591Y-101530096D01*
X137855140Y-101547988D01*
X137283640Y-101573023D01*
X137283640Y-102496620D01*
X138386964Y-102496620D01*
X138876258Y-102491755D01*
X139215662Y-102475952D01*
X139424372Y-102447397D01*
X139521587Y-102404277D01*
X139531778Y-102388500D01*
X139543249Y-102274209D01*
X139551258Y-102017785D01*
X139555532Y-101646398D01*
X139555797Y-101187218D01*
X139551781Y-100667417D01*
X139550287Y-100547000D01*
X139527307Y-98813620D01*
X138405474Y-98789996D01*
X137283640Y-98766372D01*
X137283640Y-99787287D01*
G36*
X141091064Y-98806767D02*
G01*
X140606164Y-98920048D01*
X140240135Y-99121388D01*
X139974771Y-99421046D01*
X139791866Y-99829283D01*
X139782601Y-99859148D01*
X139750995Y-100190207D01*
X139814965Y-100569832D01*
X139956891Y-100920652D01*
X140058099Y-101068932D01*
X140340465Y-101319216D01*
X140697310Y-101519616D01*
X141057739Y-101634160D01*
X141199474Y-101648094D01*
X141337434Y-101660489D01*
X141406236Y-101723966D01*
X141429842Y-101882283D01*
X141432307Y-102073287D01*
X141432307Y-102496620D01*
X142532974Y-102496620D01*
X142532974Y-100210620D01*
X141432307Y-100210620D01*
X141409483Y-100496551D01*
X141334864Y-100626882D01*
X141199231Y-100609902D01*
X141079321Y-100528120D01*
X140942672Y-100368743D01*
X140900192Y-100283840D01*
X140912172Y-100095386D01*
X141029841Y-99910369D01*
X141202532Y-99797237D01*
X141267775Y-99787287D01*
X141366701Y-99811067D01*
X141416021Y-99909869D01*
X141431745Y-100124882D01*
X141432307Y-100210620D01*
X142532974Y-100210620D01*
X142532974Y-98771287D01*
X141713038Y-98771286D01*
X141091064Y-98806767D01*
G37*
X141091064Y-98806767D02*
X140606164Y-98920048D01*
X140240135Y-99121388D01*
X139974771Y-99421046D01*
X139791866Y-99829283D01*
X139782601Y-99859148D01*
X139750995Y-100190207D01*
X139814965Y-100569832D01*
X139956891Y-100920652D01*
X140058099Y-101068932D01*
X140340465Y-101319216D01*
X140697310Y-101519616D01*
X141057739Y-101634160D01*
X141199474Y-101648094D01*
X141337434Y-101660489D01*
X141406236Y-101723966D01*
X141429842Y-101882283D01*
X141432307Y-102073287D01*
X141432307Y-102496620D01*
X142532974Y-102496620D01*
X142532974Y-100210620D01*
X141432307Y-100210620D01*
X141409483Y-100496551D01*
X141334864Y-100626882D01*
X141199231Y-100609902D01*
X141079321Y-100528120D01*
X140942672Y-100368743D01*
X140900192Y-100283840D01*
X140912172Y-100095386D01*
X141029841Y-99910369D01*
X141202532Y-99797237D01*
X141267775Y-99787287D01*
X141366701Y-99811067D01*
X141416021Y-99909869D01*
X141431745Y-100124882D01*
X141432307Y-100210620D01*
X142532974Y-100210620D01*
X142532974Y-98771287D01*
X141713038Y-98771286D01*
X141091064Y-98806767D01*
G36*
X144075919Y-98836050D02*
G01*
X143614042Y-99059643D01*
X143232420Y-99394037D01*
X142967492Y-99783278D01*
X142826521Y-100224039D01*
X142797720Y-100756275D01*
X142802628Y-100850933D01*
X142843618Y-101207499D01*
X142929736Y-101476026D01*
X143087337Y-101736766D01*
X143098782Y-101752725D01*
X143472095Y-102139177D01*
X143931196Y-102409717D01*
X144439235Y-102553880D01*
X144959366Y-102561201D01*
X145453974Y-102421568D01*
X145937182Y-102113450D01*
X146295128Y-101704052D01*
X146517842Y-101216116D01*
X146593255Y-100687101D01*
X145472839Y-100687101D01*
X145399105Y-101022891D01*
X145230901Y-101281094D01*
X144963439Y-101453859D01*
X144647373Y-101493763D01*
X144335364Y-101403660D01*
X144106833Y-101220124D01*
X143929888Y-100906597D01*
X143889119Y-100584193D01*
X143964699Y-100282993D01*
X144136798Y-100033081D01*
X144385588Y-99864537D01*
X144691240Y-99807443D01*
X144993943Y-99874288D01*
X145262682Y-100067822D01*
X145424839Y-100353752D01*
X145472839Y-100687101D01*
X146593255Y-100687101D01*
X146595354Y-100672383D01*
X146517695Y-100095596D01*
X146500333Y-100034707D01*
X146278658Y-99560187D01*
X145946398Y-99188188D01*
X145531774Y-98924242D01*
X145063005Y-98773882D01*
X144568313Y-98742641D01*
X144075919Y-98836050D01*
G37*
X144075919Y-98836050D02*
X143614042Y-99059643D01*
X143232420Y-99394037D01*
X142967492Y-99783278D01*
X142826521Y-100224039D01*
X142797720Y-100756275D01*
X142802628Y-100850933D01*
X142843618Y-101207499D01*
X142929736Y-101476026D01*
X143087337Y-101736766D01*
X143098782Y-101752725D01*
X143472095Y-102139177D01*
X143931196Y-102409717D01*
X144439235Y-102553880D01*
X144959366Y-102561201D01*
X145453974Y-102421568D01*
X145937182Y-102113450D01*
X146295128Y-101704052D01*
X146517842Y-101216116D01*
X146593255Y-100687101D01*
X145472839Y-100687101D01*
X145399105Y-101022891D01*
X145230901Y-101281094D01*
X144963439Y-101453859D01*
X144647373Y-101493763D01*
X144335364Y-101403660D01*
X144106833Y-101220124D01*
X143929888Y-100906597D01*
X143889119Y-100584193D01*
X143964699Y-100282993D01*
X144136798Y-100033081D01*
X144385588Y-99864537D01*
X144691240Y-99807443D01*
X144993943Y-99874288D01*
X145262682Y-100067822D01*
X145424839Y-100353752D01*
X145472839Y-100687101D01*
X146593255Y-100687101D01*
X146595354Y-100672383D01*
X146517695Y-100095596D01*
X146500333Y-100034707D01*
X146278658Y-99560187D01*
X145946398Y-99188188D01*
X145531774Y-98924242D01*
X145063005Y-98773882D01*
X144568313Y-98742641D01*
X144075919Y-98836050D01*
G36*
X135655591Y-103263816D02*
G01*
X135389202Y-103692346D01*
X135198591Y-103369649D01*
X135059538Y-103145598D01*
X134941854Y-102974788D01*
X134914806Y-102941120D01*
X134798210Y-102890888D01*
X134583926Y-102855237D01*
X134325072Y-102836204D01*
X134074771Y-102835830D01*
X133886144Y-102856154D01*
X133812307Y-102898797D01*
X133851022Y-102994150D01*
X133956117Y-103204871D01*
X134111021Y-103498705D01*
X134277974Y-103805116D01*
X134463474Y-104146716D01*
X134613907Y-104434901D01*
X134712664Y-104637100D01*
X134743640Y-104718362D01*
X134704068Y-104815386D01*
X134596245Y-105027998D01*
X134436509Y-105325096D01*
X134241199Y-105675576D01*
X134235640Y-105685390D01*
X134040266Y-106032663D01*
X133879713Y-106322703D01*
X133770142Y-106525982D01*
X133727713Y-106612971D01*
X133727640Y-106613634D01*
X133805079Y-106629396D01*
X134008505Y-106640734D01*
X134294585Y-106645279D01*
X134306851Y-106645287D01*
X134886062Y-106645287D01*
X135124241Y-106207673D01*
X135259241Y-105967062D01*
X135344752Y-105854852D01*
X135410741Y-105849907D01*
X135487176Y-105931091D01*
X135497530Y-105944400D01*
X135635005Y-106144373D01*
X135776377Y-106381115D01*
X135776869Y-106382014D01*
X135863738Y-106522825D01*
X135961695Y-106601650D01*
X136118947Y-106636428D01*
X136383702Y-106645096D01*
X136484428Y-106645287D01*
X136787203Y-106639084D01*
X136951243Y-106615505D01*
X137006852Y-106567091D01*
X136999153Y-106518626D01*
X136938641Y-106396541D01*
X136812439Y-106164061D01*
X136640285Y-105856997D01*
X136482095Y-105580589D01*
X136293442Y-105249458D01*
X136141115Y-104973755D01*
X136042426Y-104785363D01*
X136013640Y-104717807D01*
X136052969Y-104627730D01*
X136159631Y-104422674D01*
X136316645Y-104134507D01*
X136479307Y-103843968D01*
X136666824Y-103504855D01*
X136818238Y-103215938D01*
X136916345Y-103011043D01*
X136944974Y-102928410D01*
X136864963Y-102873312D01*
X136641487Y-102841425D01*
X136433477Y-102835287D01*
X135921980Y-102835287D01*
X135655591Y-103263816D01*
G37*
X135655591Y-103263816D02*
X135389202Y-103692346D01*
X135198591Y-103369649D01*
X135059538Y-103145598D01*
X134941854Y-102974788D01*
X134914806Y-102941120D01*
X134798210Y-102890888D01*
X134583926Y-102855237D01*
X134325072Y-102836204D01*
X134074771Y-102835830D01*
X133886144Y-102856154D01*
X133812307Y-102898797D01*
X133851022Y-102994150D01*
X133956117Y-103204871D01*
X134111021Y-103498705D01*
X134277974Y-103805116D01*
X134463474Y-104146716D01*
X134613907Y-104434901D01*
X134712664Y-104637100D01*
X134743640Y-104718362D01*
X134704068Y-104815386D01*
X134596245Y-105027998D01*
X134436509Y-105325096D01*
X134241199Y-105675576D01*
X134235640Y-105685390D01*
X134040266Y-106032663D01*
X133879713Y-106322703D01*
X133770142Y-106525982D01*
X133727713Y-106612971D01*
X133727640Y-106613634D01*
X133805079Y-106629396D01*
X134008505Y-106640734D01*
X134294585Y-106645279D01*
X134306851Y-106645287D01*
X134886062Y-106645287D01*
X135124241Y-106207673D01*
X135259241Y-105967062D01*
X135344752Y-105854852D01*
X135410741Y-105849907D01*
X135487176Y-105931091D01*
X135497530Y-105944400D01*
X135635005Y-106144373D01*
X135776377Y-106381115D01*
X135776869Y-106382014D01*
X135863738Y-106522825D01*
X135961695Y-106601650D01*
X136118947Y-106636428D01*
X136383702Y-106645096D01*
X136484428Y-106645287D01*
X136787203Y-106639084D01*
X136951243Y-106615505D01*
X137006852Y-106567091D01*
X136999153Y-106518626D01*
X136938641Y-106396541D01*
X136812439Y-106164061D01*
X136640285Y-105856997D01*
X136482095Y-105580589D01*
X136293442Y-105249458D01*
X136141115Y-104973755D01*
X136042426Y-104785363D01*
X136013640Y-104717807D01*
X136052969Y-104627730D01*
X136159631Y-104422674D01*
X136316645Y-104134507D01*
X136479307Y-103843968D01*
X136666824Y-103504855D01*
X136818238Y-103215938D01*
X136916345Y-103011043D01*
X136944974Y-102928410D01*
X136864963Y-102873312D01*
X136641487Y-102841425D01*
X136433477Y-102835287D01*
X135921980Y-102835287D01*
X135655591Y-103263816D01*
G36*
X139130154Y-103258620D02*
G01*
X138985441Y-103484435D01*
X138878718Y-103638016D01*
X138839039Y-103681953D01*
X138788112Y-103613714D01*
X138690071Y-103440195D01*
X138628654Y-103322120D01*
X138501156Y-103095263D01*
X138388453Y-102935283D01*
X138351767Y-102900083D01*
X138217477Y-102862137D01*
X137993618Y-102841902D01*
X137734507Y-102838726D01*
X137494462Y-102851960D01*
X137327803Y-102880952D01*
X137283640Y-102912876D01*
X137323180Y-103013895D01*
X137430382Y-103228398D01*
X137588122Y-103523292D01*
X137749307Y-103812730D01*
X137936608Y-104150276D01*
X138087917Y-104435929D01*
X138186097Y-104636473D01*
X138214974Y-104715202D01*
X138174984Y-104822354D01*
X138069167Y-105032987D01*
X137918750Y-105305341D01*
X137886941Y-105360514D01*
X137696738Y-105694603D01*
X137513562Y-106026999D01*
X137377220Y-106285453D01*
X137195532Y-106645287D01*
X137768753Y-106645200D01*
X138341974Y-106645114D01*
X138587778Y-106207481D01*
X138726620Y-105967460D01*
X138814239Y-105854974D01*
X138880897Y-105849116D01*
X138956856Y-105928982D01*
X138968778Y-105944295D01*
X139106322Y-106144356D01*
X139247724Y-106381141D01*
X139248203Y-106382014D01*
X139335899Y-106523759D01*
X139435043Y-106602598D01*
X139594448Y-106636931D01*
X139862923Y-106645154D01*
X139946703Y-106645287D01*
X140228114Y-106638413D01*
X140427614Y-106620418D01*
X140500974Y-106595979D01*
X140461073Y-106507610D01*
X140352404Y-106303309D01*
X140191517Y-106013413D01*
X139994963Y-105668260D01*
X139992974Y-105664807D01*
X139796004Y-105318292D01*
X139634619Y-105025652D01*
X139525412Y-104817592D01*
X139484975Y-104724821D01*
X139484974Y-104724672D01*
X139524356Y-104631732D01*
X139631155Y-104424199D01*
X139788354Y-104134262D01*
X139950640Y-103843968D01*
X140138158Y-103504855D01*
X140289572Y-103215938D01*
X140387678Y-103011043D01*
X140416307Y-102928410D01*
X140336297Y-102873312D01*
X140112821Y-102841425D01*
X139904810Y-102835287D01*
X139393313Y-102835287D01*
X139130154Y-103258620D01*
G37*
X139130154Y-103258620D02*
X138985441Y-103484435D01*
X138878718Y-103638016D01*
X138839039Y-103681953D01*
X138788112Y-103613714D01*
X138690071Y-103440195D01*
X138628654Y-103322120D01*
X138501156Y-103095263D01*
X138388453Y-102935283D01*
X138351767Y-102900083D01*
X138217477Y-102862137D01*
X137993618Y-102841902D01*
X137734507Y-102838726D01*
X137494462Y-102851960D01*
X137327803Y-102880952D01*
X137283640Y-102912876D01*
X137323180Y-103013895D01*
X137430382Y-103228398D01*
X137588122Y-103523292D01*
X137749307Y-103812730D01*
X137936608Y-104150276D01*
X138087917Y-104435929D01*
X138186097Y-104636473D01*
X138214974Y-104715202D01*
X138174984Y-104822354D01*
X138069167Y-105032987D01*
X137918750Y-105305341D01*
X137886941Y-105360514D01*
X137696738Y-105694603D01*
X137513562Y-106026999D01*
X137377220Y-106285453D01*
X137195532Y-106645287D01*
X137768753Y-106645200D01*
X138341974Y-106645114D01*
X138587778Y-106207481D01*
X138726620Y-105967460D01*
X138814239Y-105854974D01*
X138880897Y-105849116D01*
X138956856Y-105928982D01*
X138968778Y-105944295D01*
X139106322Y-106144356D01*
X139247724Y-106381141D01*
X139248203Y-106382014D01*
X139335899Y-106523759D01*
X139435043Y-106602598D01*
X139594448Y-106636931D01*
X139862923Y-106645154D01*
X139946703Y-106645287D01*
X140228114Y-106638413D01*
X140427614Y-106620418D01*
X140500974Y-106595979D01*
X140461073Y-106507610D01*
X140352404Y-106303309D01*
X140191517Y-106013413D01*
X139994963Y-105668260D01*
X139992974Y-105664807D01*
X139796004Y-105318292D01*
X139634619Y-105025652D01*
X139525412Y-104817592D01*
X139484975Y-104724821D01*
X139484974Y-104724672D01*
X139524356Y-104631732D01*
X139631155Y-104424199D01*
X139788354Y-104134262D01*
X139950640Y-103843968D01*
X140138158Y-103504855D01*
X140289572Y-103215938D01*
X140387678Y-103011043D01*
X140416307Y-102928410D01*
X140336297Y-102873312D01*
X140112821Y-102841425D01*
X139904810Y-102835287D01*
X139393313Y-102835287D01*
X139130154Y-103258620D01*
G36*
X143464307Y-106653367D02*
G01*
X143993474Y-106628160D01*
X144522640Y-106602953D01*
X144564974Y-105686931D01*
X144607307Y-104770909D01*
X144760261Y-105030764D01*
X144853154Y-105203440D01*
X144855339Y-105276254D01*
X144777202Y-105290620D01*
X144700319Y-105319496D01*
X144664458Y-105430423D01*
X144661338Y-105659848D01*
X144666582Y-105777453D01*
X144691974Y-106264287D01*
X145111069Y-106290784D01*
X145425137Y-106338299D01*
X145610371Y-106439901D01*
X145645037Y-106481284D01*
X145737881Y-106571231D01*
X145886929Y-106621625D01*
X146135612Y-106642603D01*
X146347775Y-106645287D01*
X146638583Y-106638090D01*
X146848765Y-106619165D01*
X146935317Y-106592503D01*
X146935640Y-106590688D01*
X146911955Y-106536865D01*
X146836975Y-106405969D01*
X146704814Y-106188623D01*
X146509585Y-105875448D01*
X146245402Y-105457069D01*
X145906379Y-104924107D01*
X145486629Y-104267186D01*
X145016732Y-103533787D01*
X144568772Y-102835287D01*
X143464307Y-102835287D01*
X143464307Y-106653367D01*
G37*
X143464307Y-106653367D02*
X143993474Y-106628160D01*
X144522640Y-106602953D01*
X144564974Y-105686931D01*
X144607307Y-104770909D01*
X144760261Y-105030764D01*
X144853154Y-105203440D01*
X144855339Y-105276254D01*
X144777202Y-105290620D01*
X144700319Y-105319496D01*
X144664458Y-105430423D01*
X144661338Y-105659848D01*
X144666582Y-105777453D01*
X144691974Y-106264287D01*
X145111069Y-106290784D01*
X145425137Y-106338299D01*
X145610371Y-106439901D01*
X145645037Y-106481284D01*
X145737881Y-106571231D01*
X145886929Y-106621625D01*
X146135612Y-106642603D01*
X146347775Y-106645287D01*
X146638583Y-106638090D01*
X146848765Y-106619165D01*
X146935317Y-106592503D01*
X146935640Y-106590688D01*
X146911955Y-106536865D01*
X146836975Y-106405969D01*
X146704814Y-106188623D01*
X146509585Y-105875448D01*
X146245402Y-105457069D01*
X145906379Y-104924107D01*
X145486629Y-104267186D01*
X145016732Y-103533787D01*
X144568772Y-102835287D01*
X143464307Y-102835287D01*
X143464307Y-106653367D01*
G36*
X141271523Y-102892145D02*
G01*
X140866766Y-103057384D01*
X140585287Y-103323217D01*
X140437223Y-103681725D01*
X140416307Y-103908017D01*
X140447218Y-104191688D01*
X140524144Y-104437481D01*
X140551412Y-104486774D01*
X140634055Y-104639809D01*
X140619397Y-104760635D01*
X140509079Y-104918546D01*
X140360785Y-105233257D01*
X140343775Y-105593510D01*
X140445852Y-105954921D01*
X140654818Y-106273106D01*
X140942467Y-106495559D01*
X141333130Y-106631543D01*
X141788806Y-106691896D01*
X142223367Y-106668126D01*
X142363640Y-106635691D01*
X142635177Y-106511901D01*
X142884772Y-106333939D01*
X142893343Y-106325933D01*
X143052317Y-106124278D01*
X143180574Y-105874144D01*
X143254857Y-105633767D01*
X143251908Y-105461386D01*
X143244469Y-105446732D01*
X143142503Y-105408462D01*
X142923545Y-105382533D01*
X142700289Y-105375287D01*
X142404142Y-105385447D01*
X142230379Y-105424760D01*
X142132798Y-105506469D01*
X142109640Y-105544620D01*
X141969261Y-105669420D01*
X141769760Y-105715306D01*
X141581771Y-105678721D01*
X141482238Y-105576222D01*
X141483672Y-105392708D01*
X141625008Y-105261639D01*
X141879328Y-105206406D01*
X141908341Y-105205953D01*
X142194307Y-105205953D01*
X142194307Y-104274620D01*
X141908341Y-104274620D01*
X141646991Y-104228353D01*
X141491968Y-104105939D01*
X141472428Y-103931954D01*
X141479037Y-103912694D01*
X141600073Y-103781019D01*
X141784171Y-103739158D01*
X141968752Y-103780185D01*
X142091238Y-103897174D01*
X142109640Y-103982494D01*
X142149662Y-104051387D01*
X142289627Y-104089897D01*
X142559386Y-104104561D01*
X142670557Y-104105287D01*
X143231474Y-104105287D01*
X143177580Y-103830120D01*
X143018762Y-103421276D01*
X142731204Y-103111510D01*
X142331196Y-102912496D01*
X141835032Y-102835908D01*
X141789421Y-102835418D01*
X141271523Y-102892145D01*
G37*
X141271523Y-102892145D02*
X140866766Y-103057384D01*
X140585287Y-103323217D01*
X140437223Y-103681725D01*
X140416307Y-103908017D01*
X140447218Y-104191688D01*
X140524144Y-104437481D01*
X140551412Y-104486774D01*
X140634055Y-104639809D01*
X140619397Y-104760635D01*
X140509079Y-104918546D01*
X140360785Y-105233257D01*
X140343775Y-105593510D01*
X140445852Y-105954921D01*
X140654818Y-106273106D01*
X140942467Y-106495559D01*
X141333130Y-106631543D01*
X141788806Y-106691896D01*
X142223367Y-106668126D01*
X142363640Y-106635691D01*
X142635177Y-106511901D01*
X142884772Y-106333939D01*
X142893343Y-106325933D01*
X143052317Y-106124278D01*
X143180574Y-105874144D01*
X143254857Y-105633767D01*
X143251908Y-105461386D01*
X143244469Y-105446732D01*
X143142503Y-105408462D01*
X142923545Y-105382533D01*
X142700289Y-105375287D01*
X142404142Y-105385447D01*
X142230379Y-105424760D01*
X142132798Y-105506469D01*
X142109640Y-105544620D01*
X141969261Y-105669420D01*
X141769760Y-105715306D01*
X141581771Y-105678721D01*
X141482238Y-105576222D01*
X141483672Y-105392708D01*
X141625008Y-105261639D01*
X141879328Y-105206406D01*
X141908341Y-105205953D01*
X142194307Y-105205953D01*
X142194307Y-104274620D01*
X141908341Y-104274620D01*
X141646991Y-104228353D01*
X141491968Y-104105939D01*
X141472428Y-103931954D01*
X141479037Y-103912694D01*
X141600073Y-103781019D01*
X141784171Y-103739158D01*
X141968752Y-103780185D01*
X142091238Y-103897174D01*
X142109640Y-103982494D01*
X142149662Y-104051387D01*
X142289627Y-104089897D01*
X142559386Y-104104561D01*
X142670557Y-104105287D01*
X143231474Y-104105287D01*
X143177580Y-103830120D01*
X143018762Y-103421276D01*
X142731204Y-103111510D01*
X142331196Y-102912496D01*
X141835032Y-102835908D01*
X141789421Y-102835418D01*
X141271523Y-102892145D01*
%TD*%
M02*
