G04 #@! TF.GenerationSoftware,KiCad,Pcbnew,(5.1.10)-1*
G04 #@! TF.CreationDate,2021-06-08T20:19:30+01:00*
G04 #@! TF.ProjectId,Korry_PCB2,4b6f7272-795f-4504-9342-322e6b696361,V1*
G04 #@! TF.SameCoordinates,Original*
G04 #@! TF.FileFunction,Copper,L1,Top*
G04 #@! TF.FilePolarity,Positive*
%FSLAX46Y46*%
G04 Gerber Fmt 4.6, Leading zero omitted, Abs format (unit mm)*
G04 Created by KiCad (PCBNEW (5.1.10)-1) date 2021-06-08 20:19:30*
%MOMM*%
%LPD*%
G01*
G04 APERTURE LIST*
G04 #@! TA.AperFunction,ComponentPad*
%ADD10O,2.000000X1.500000*%
G04 #@! TD*
G04 #@! TA.AperFunction,ComponentPad*
%ADD11R,1.800000X1.800000*%
G04 #@! TD*
G04 #@! TA.AperFunction,ComponentPad*
%ADD12C,1.800000*%
G04 #@! TD*
G04 #@! TA.AperFunction,ComponentPad*
%ADD13R,1.700000X1.700000*%
G04 #@! TD*
G04 #@! TA.AperFunction,ComponentPad*
%ADD14O,1.700000X1.700000*%
G04 #@! TD*
G04 #@! TA.AperFunction,Conductor*
%ADD15C,0.250000*%
G04 #@! TD*
G04 APERTURE END LIST*
D10*
X62717680Y-46972220D03*
X62717680Y-44932220D03*
X62717680Y-42962220D03*
X67257680Y-42962220D03*
X67257680Y-44932220D03*
X67257680Y-46972220D03*
D11*
X60299600Y-43756580D03*
D12*
X60299600Y-46296580D03*
X69626480Y-46296580D03*
D11*
X69626480Y-43756580D03*
D13*
X70995540Y-51897280D03*
D14*
X68455540Y-51897280D03*
X65915540Y-51897280D03*
X63375540Y-51897280D03*
X60835540Y-51897280D03*
G04 #@! TA.AperFunction,SMDPad,CuDef*
G36*
G01*
X58577643Y-40937800D02*
X57327637Y-40937800D01*
G75*
G02*
X57077640Y-40687803I0J249997D01*
G01*
X57077640Y-40062797D01*
G75*
G02*
X57327637Y-39812800I249997J0D01*
G01*
X58577643Y-39812800D01*
G75*
G02*
X58827640Y-40062797I0J-249997D01*
G01*
X58827640Y-40687803D01*
G75*
G02*
X58577643Y-40937800I-249997J0D01*
G01*
G37*
G04 #@! TD.AperFunction*
G04 #@! TA.AperFunction,SMDPad,CuDef*
G36*
G01*
X58577643Y-38012800D02*
X57327637Y-38012800D01*
G75*
G02*
X57077640Y-37762803I0J249997D01*
G01*
X57077640Y-37137797D01*
G75*
G02*
X57327637Y-36887800I249997J0D01*
G01*
X58577643Y-36887800D01*
G75*
G02*
X58827640Y-37137797I0J-249997D01*
G01*
X58827640Y-37762803D01*
G75*
G02*
X58577643Y-38012800I-249997J0D01*
G01*
G37*
G04 #@! TD.AperFunction*
G04 #@! TA.AperFunction,SMDPad,CuDef*
G36*
G01*
X73020083Y-37890880D02*
X71770077Y-37890880D01*
G75*
G02*
X71520080Y-37640883I0J249997D01*
G01*
X71520080Y-37015877D01*
G75*
G02*
X71770077Y-36765880I249997J0D01*
G01*
X73020083Y-36765880D01*
G75*
G02*
X73270080Y-37015877I0J-249997D01*
G01*
X73270080Y-37640883D01*
G75*
G02*
X73020083Y-37890880I-249997J0D01*
G01*
G37*
G04 #@! TD.AperFunction*
G04 #@! TA.AperFunction,SMDPad,CuDef*
G36*
G01*
X73020083Y-40815880D02*
X71770077Y-40815880D01*
G75*
G02*
X71520080Y-40565883I0J249997D01*
G01*
X71520080Y-39940877D01*
G75*
G02*
X71770077Y-39690880I249997J0D01*
G01*
X73020083Y-39690880D01*
G75*
G02*
X73270080Y-39940877I0J-249997D01*
G01*
X73270080Y-40565883D01*
G75*
G02*
X73020083Y-40815880I-249997J0D01*
G01*
G37*
G04 #@! TD.AperFunction*
D15*
X69626480Y-42606580D02*
X69626480Y-43756580D01*
X65932670Y-42516937D02*
X66562397Y-41887210D01*
X65932670Y-47417503D02*
X65932670Y-42516937D01*
X68907110Y-41887210D02*
X69626480Y-42606580D01*
X67090541Y-48575374D02*
X65932670Y-47417503D01*
X67090541Y-52271283D02*
X67090541Y-48575374D01*
X66562397Y-41887210D02*
X68907110Y-41887210D01*
X67891539Y-53072281D02*
X67090541Y-52271283D01*
X69820539Y-53072281D02*
X67891539Y-53072281D01*
X70995540Y-51897280D02*
X69820539Y-53072281D01*
X57952640Y-43949620D02*
X57952640Y-40375300D01*
X60299600Y-46296580D02*
X57952640Y-43949620D01*
X69626480Y-46141582D02*
X69626480Y-46296580D01*
X72395080Y-43372982D02*
X69626480Y-46141582D01*
X72395080Y-40253380D02*
X72395080Y-43372982D01*
X73595090Y-46757730D02*
X68455540Y-51897280D01*
X73595090Y-38528390D02*
X73595090Y-46757730D01*
X72395080Y-37328380D02*
X73595090Y-38528390D01*
X56752630Y-38650310D02*
X57952640Y-37450300D01*
X56752630Y-49553372D02*
X56752630Y-38650310D01*
X60271539Y-53072281D02*
X56752630Y-49553372D01*
X64740539Y-53072281D02*
X60271539Y-53072281D01*
X65915540Y-51897280D02*
X64740539Y-53072281D01*
X64225539Y-46440079D02*
X62717680Y-44932220D01*
X64225539Y-51047281D02*
X64225539Y-46440079D01*
X63375540Y-51897280D02*
X64225539Y-51047281D01*
X60835540Y-48854360D02*
X62717680Y-46972220D01*
X60835540Y-51897280D02*
X60835540Y-48854360D01*
M02*
