G04 #@! TF.GenerationSoftware,KiCad,Pcbnew,(5.1.10)-1*
G04 #@! TF.CreationDate,2022-01-05T12:21:16+00:00*
G04 #@! TF.ProjectId,opena3xx-mcdu,6f70656e-6133-4787-982d-6d6364752e6b,0.1*
G04 #@! TF.SameCoordinates,Original*
G04 #@! TF.FileFunction,Copper,L1,Top*
G04 #@! TF.FilePolarity,Positive*
%FSLAX46Y46*%
G04 Gerber Fmt 4.6, Leading zero omitted, Abs format (unit mm)*
G04 Created by KiCad (PCBNEW (5.1.10)-1) date 2022-01-05 12:21:16*
%MOMM*%
%LPD*%
G01*
G04 APERTURE LIST*
G04 #@! TA.AperFunction,ComponentPad*
%ADD10C,3.000000*%
G04 #@! TD*
G04 #@! TA.AperFunction,ComponentPad*
%ADD11R,3.000000X3.000000*%
G04 #@! TD*
G04 #@! TA.AperFunction,ComponentPad*
%ADD12R,1.524000X1.524000*%
G04 #@! TD*
G04 #@! TA.AperFunction,ComponentPad*
%ADD13C,1.700000*%
G04 #@! TD*
G04 #@! TA.AperFunction,ComponentPad*
%ADD14O,1.700000X1.700000*%
G04 #@! TD*
G04 #@! TA.AperFunction,ComponentPad*
%ADD15R,1.700000X1.700000*%
G04 #@! TD*
G04 #@! TA.AperFunction,ViaPad*
%ADD16C,0.800000*%
G04 #@! TD*
G04 #@! TA.AperFunction,Conductor*
%ADD17C,0.250000*%
G04 #@! TD*
G04 #@! TA.AperFunction,Conductor*
%ADD18C,1.000000*%
G04 #@! TD*
G04 APERTURE END LIST*
D10*
X173507400Y-227352460D03*
D11*
X173507400Y-222272460D03*
D12*
X70168000Y-161328000D03*
X76268000Y-161328000D03*
X70168000Y-165828000D03*
X76268000Y-165828000D03*
X73268000Y-160678000D03*
X73268000Y-166478000D03*
D10*
X173380000Y-167589000D03*
D11*
X173380000Y-162509000D03*
D12*
X142304000Y-135420000D03*
X148404000Y-135420000D03*
X142304000Y-139920000D03*
X148404000Y-139920000D03*
X145404000Y-134770000D03*
X145404000Y-140570000D03*
X127370000Y-140570000D03*
X127370000Y-134770000D03*
X130370000Y-139920000D03*
X124270000Y-139920000D03*
X130370000Y-135420000D03*
X124270000Y-135420000D03*
D10*
X173380000Y-156896000D03*
D11*
X173380000Y-151816000D03*
D12*
X39145600Y-82657600D03*
X39145600Y-76857600D03*
X42145600Y-82007600D03*
X36045600Y-82007600D03*
X42145600Y-77507600D03*
X36045600Y-77507600D03*
X161812000Y-153778000D03*
X161812000Y-147978000D03*
X164812000Y-153128000D03*
X158712000Y-153128000D03*
X164812000Y-148628000D03*
X158712000Y-148628000D03*
X161812000Y-140570000D03*
X161812000Y-134770000D03*
X164812000Y-139920000D03*
X158712000Y-139920000D03*
X164812000Y-135420000D03*
X158712000Y-135420000D03*
D10*
X173469000Y-124841000D03*
D11*
X173469000Y-119761000D03*
D10*
X173469000Y-135636000D03*
D11*
X173469000Y-130556000D03*
D12*
X51272000Y-204755000D03*
X51272000Y-198955000D03*
X54272000Y-204105000D03*
X48172000Y-204105000D03*
X54272000Y-199605000D03*
X48172000Y-199605000D03*
D13*
X42824400Y-37033200D03*
X49324400Y-37033200D03*
X42824400Y-32533200D03*
X49324400Y-32533200D03*
D12*
X55259000Y-192538000D03*
X55259000Y-186738000D03*
X58259000Y-191888000D03*
X52159000Y-191888000D03*
X58259000Y-187388000D03*
X52159000Y-187388000D03*
X55361000Y-179482000D03*
X55361000Y-173682000D03*
X58361000Y-178832000D03*
X52261000Y-178832000D03*
X58361000Y-174332000D03*
X52261000Y-174332000D03*
X73319000Y-192563000D03*
X73319000Y-186763000D03*
X76319000Y-191913000D03*
X70219000Y-191913000D03*
X76319000Y-187413000D03*
X70219000Y-187413000D03*
X73243000Y-179508000D03*
X73243000Y-173708000D03*
X76243000Y-178858000D03*
X70143000Y-178858000D03*
X76243000Y-174358000D03*
X70143000Y-174358000D03*
X157342000Y-239757000D03*
X157342000Y-233957000D03*
X160342000Y-239107000D03*
X154242000Y-239107000D03*
X160342000Y-234607000D03*
X154242000Y-234607000D03*
X142305000Y-239757000D03*
X142305000Y-233957000D03*
X145305000Y-239107000D03*
X139205000Y-239107000D03*
X145305000Y-234607000D03*
X139205000Y-234607000D03*
X127294000Y-239782000D03*
X127294000Y-233982000D03*
X130294000Y-239132000D03*
X124194000Y-239132000D03*
X130294000Y-234632000D03*
X124194000Y-234632000D03*
X112333000Y-239782000D03*
X112333000Y-233982000D03*
X115333000Y-239132000D03*
X109233000Y-239132000D03*
X115333000Y-234632000D03*
X109233000Y-234632000D03*
X97271000Y-239782000D03*
X97271000Y-233982000D03*
X100271000Y-239132000D03*
X94171000Y-239132000D03*
X100271000Y-234632000D03*
X94171000Y-234632000D03*
X157266000Y-225787000D03*
X157266000Y-219987000D03*
X160266000Y-225137000D03*
X154166000Y-225137000D03*
X160266000Y-220637000D03*
X154166000Y-220637000D03*
X142178000Y-225761000D03*
X142178000Y-219961000D03*
X145178000Y-225111000D03*
X139078000Y-225111000D03*
X145178000Y-220611000D03*
X139078000Y-220611000D03*
X127294000Y-225787000D03*
X127294000Y-219987000D03*
X130294000Y-225137000D03*
X124194000Y-225137000D03*
X130294000Y-220637000D03*
X124194000Y-220637000D03*
X112206000Y-225787000D03*
X112206000Y-219987000D03*
X115206000Y-225137000D03*
X109106000Y-225137000D03*
X115206000Y-220637000D03*
X109106000Y-220637000D03*
X97169000Y-225761000D03*
X97169000Y-219961000D03*
X100169000Y-225111000D03*
X94069000Y-225111000D03*
X100169000Y-220611000D03*
X94069000Y-220611000D03*
X157367000Y-211766000D03*
X157367000Y-205966000D03*
X160367000Y-211116000D03*
X154267000Y-211116000D03*
X160367000Y-206616000D03*
X154267000Y-206616000D03*
X142153000Y-211740000D03*
X142153000Y-205940000D03*
X145153000Y-211090000D03*
X139053000Y-211090000D03*
X145153000Y-206590000D03*
X139053000Y-206590000D03*
X127294000Y-211740000D03*
X127294000Y-205940000D03*
X130294000Y-211090000D03*
X124194000Y-211090000D03*
X130294000Y-206590000D03*
X124194000Y-206590000D03*
X112206000Y-211715000D03*
X112206000Y-205915000D03*
X115206000Y-211065000D03*
X109106000Y-211065000D03*
X115206000Y-206565000D03*
X109106000Y-206565000D03*
X97093000Y-211715000D03*
X97093000Y-205915000D03*
X100093000Y-211065000D03*
X93993000Y-211065000D03*
X100093000Y-206565000D03*
X93993000Y-206565000D03*
X157240000Y-197720000D03*
X157240000Y-191920000D03*
X160240000Y-197070000D03*
X154140000Y-197070000D03*
X160240000Y-192570000D03*
X154140000Y-192570000D03*
X142204000Y-197770000D03*
X142204000Y-191970000D03*
X145204000Y-197120000D03*
X139104000Y-197120000D03*
X145204000Y-192620000D03*
X139104000Y-192620000D03*
X127268000Y-197745000D03*
X127268000Y-191945000D03*
X130268000Y-197095000D03*
X124168000Y-197095000D03*
X130268000Y-192595000D03*
X124168000Y-192595000D03*
X112308000Y-197745000D03*
X112308000Y-191945000D03*
X115308000Y-197095000D03*
X109208000Y-197095000D03*
X115308000Y-192595000D03*
X109208000Y-192595000D03*
X97195000Y-197745000D03*
X97195000Y-191945000D03*
X100195000Y-197095000D03*
X94095000Y-197095000D03*
X100195000Y-192595000D03*
X94095000Y-192595000D03*
X157240000Y-183750000D03*
X157240000Y-177950000D03*
X160240000Y-183100000D03*
X154140000Y-183100000D03*
X160240000Y-178600000D03*
X154140000Y-178600000D03*
X142280000Y-183750000D03*
X142280000Y-177950000D03*
X145280000Y-183100000D03*
X139180000Y-183100000D03*
X145280000Y-178600000D03*
X139180000Y-178600000D03*
X127345000Y-183750000D03*
X127345000Y-177950000D03*
X130345000Y-183100000D03*
X124245000Y-183100000D03*
X130345000Y-178600000D03*
X124245000Y-178600000D03*
X112308000Y-183775000D03*
X112308000Y-177975000D03*
X115308000Y-183125000D03*
X109208000Y-183125000D03*
X115308000Y-178625000D03*
X109208000Y-178625000D03*
X97169000Y-183775000D03*
X97169000Y-177975000D03*
X100169000Y-183125000D03*
X94069000Y-183125000D03*
X100169000Y-178625000D03*
X94069000Y-178625000D03*
X157266000Y-169780000D03*
X157266000Y-163980000D03*
X160266000Y-169130000D03*
X154166000Y-169130000D03*
X160266000Y-164630000D03*
X154166000Y-164630000D03*
X142305000Y-169780000D03*
X142305000Y-163980000D03*
X145305000Y-169130000D03*
X139205000Y-169130000D03*
X145305000Y-164630000D03*
X139205000Y-164630000D03*
X127345000Y-169754000D03*
X127345000Y-163954000D03*
X130345000Y-169104000D03*
X124245000Y-169104000D03*
X130345000Y-164604000D03*
X124245000Y-164604000D03*
X112257000Y-169754000D03*
X112257000Y-163954000D03*
X115257000Y-169104000D03*
X109157000Y-169104000D03*
X115257000Y-164604000D03*
X109157000Y-164604000D03*
X97246000Y-169729000D03*
X97246000Y-163929000D03*
X100246000Y-169079000D03*
X94146000Y-169079000D03*
X100246000Y-164579000D03*
X94146000Y-164579000D03*
X81218000Y-240696000D03*
X81218000Y-234896000D03*
X84218000Y-240046000D03*
X78118000Y-240046000D03*
X84218000Y-235546000D03*
X78118000Y-235546000D03*
X66192000Y-240750000D03*
X66192000Y-234950000D03*
X69192000Y-240100000D03*
X63092000Y-240100000D03*
X69192000Y-235600000D03*
X63092000Y-235600000D03*
X51232000Y-240750000D03*
X51232000Y-234950000D03*
X54232000Y-240100000D03*
X48132000Y-240100000D03*
X54232000Y-235600000D03*
X48132000Y-235600000D03*
X81218000Y-228784000D03*
X81218000Y-222984000D03*
X84218000Y-228134000D03*
X78118000Y-228134000D03*
X84218000Y-223634000D03*
X78118000Y-223634000D03*
X66181000Y-228758000D03*
X66181000Y-222958000D03*
X69181000Y-228108000D03*
X63081000Y-228108000D03*
X69181000Y-223608000D03*
X63081000Y-223608000D03*
X51246000Y-228733000D03*
X51246000Y-222933000D03*
X54246000Y-228083000D03*
X48146000Y-228083000D03*
X54246000Y-223583000D03*
X48146000Y-223583000D03*
X81244000Y-216744000D03*
X81244000Y-210944000D03*
X84244000Y-216094000D03*
X78144000Y-216094000D03*
X84244000Y-211594000D03*
X78144000Y-211594000D03*
X66181000Y-216744000D03*
X66181000Y-210944000D03*
X69181000Y-216094000D03*
X63081000Y-216094000D03*
X69181000Y-211594000D03*
X63081000Y-211594000D03*
X51246000Y-216719000D03*
X51246000Y-210919000D03*
X54246000Y-216069000D03*
X48146000Y-216069000D03*
X54246000Y-211569000D03*
X48146000Y-211569000D03*
X81193000Y-204730000D03*
X81193000Y-198930000D03*
X84193000Y-204080000D03*
X78093000Y-204080000D03*
X84193000Y-199580000D03*
X78093000Y-199580000D03*
X66232000Y-204755000D03*
X66232000Y-198955000D03*
X69232000Y-204105000D03*
X63132000Y-204105000D03*
X69232000Y-199605000D03*
X63132000Y-199605000D03*
X55285000Y-166478000D03*
X55285000Y-160678000D03*
X58285000Y-165828000D03*
X52185000Y-165828000D03*
X58285000Y-161328000D03*
X52185000Y-161328000D03*
X145429000Y-153574000D03*
X145429000Y-147774000D03*
X148429000Y-152924000D03*
X142329000Y-152924000D03*
X148429000Y-148424000D03*
X142329000Y-148424000D03*
X127294000Y-153574000D03*
X127294000Y-147774000D03*
X130294000Y-152924000D03*
X124194000Y-152924000D03*
X130294000Y-148424000D03*
X124194000Y-148424000D03*
X109412000Y-153574000D03*
X109412000Y-147774000D03*
X112412000Y-152924000D03*
X106312000Y-152924000D03*
X112412000Y-148424000D03*
X106312000Y-148424000D03*
X91429000Y-153574000D03*
X91429000Y-147774000D03*
X94429000Y-152924000D03*
X88329000Y-152924000D03*
X94429000Y-148424000D03*
X88329000Y-148424000D03*
X73395000Y-153549000D03*
X73395000Y-147749000D03*
X76395000Y-152899000D03*
X70295000Y-152899000D03*
X76395000Y-148399000D03*
X70295000Y-148399000D03*
X55310000Y-153549000D03*
X55310000Y-147749000D03*
X58310000Y-152899000D03*
X52210000Y-152899000D03*
X58310000Y-148399000D03*
X52210000Y-148399000D03*
X109387000Y-140595000D03*
X109387000Y-134795000D03*
X112387000Y-139945000D03*
X106287000Y-139945000D03*
X112387000Y-135445000D03*
X106287000Y-135445000D03*
X91429000Y-140620000D03*
X91429000Y-134820000D03*
X94429000Y-139970000D03*
X88329000Y-139970000D03*
X94429000Y-135470000D03*
X88329000Y-135470000D03*
X73319000Y-140620000D03*
X73319000Y-134820000D03*
X76319000Y-139970000D03*
X70219000Y-139970000D03*
X76319000Y-135470000D03*
X70219000Y-135470000D03*
X55234000Y-140620000D03*
X55234000Y-134820000D03*
X58234000Y-139970000D03*
X52134000Y-139970000D03*
X58234000Y-135470000D03*
X52134000Y-135470000D03*
X171261000Y-114154000D03*
X171261000Y-108354000D03*
X174261000Y-113504000D03*
X168161000Y-113504000D03*
X174261000Y-109004000D03*
X168161000Y-109004000D03*
X171414000Y-103688800D03*
X171414000Y-97888800D03*
X174414000Y-103038800D03*
X168314000Y-103038800D03*
X174414000Y-98538800D03*
X168314000Y-98538800D03*
X171261000Y-93173200D03*
X171261000Y-87373200D03*
X174261000Y-92523200D03*
X168161000Y-92523200D03*
X174261000Y-88023200D03*
X168161000Y-88023200D03*
X171276000Y-82657600D03*
X171276000Y-76857600D03*
X174276000Y-82007600D03*
X168176000Y-82007600D03*
X174276000Y-77507600D03*
X168176000Y-77507600D03*
X171312000Y-72142000D03*
X171312000Y-66342000D03*
X174312000Y-71492000D03*
X168212000Y-71492000D03*
X174312000Y-66992000D03*
X168212000Y-66992000D03*
X171312000Y-61677200D03*
X171312000Y-55877200D03*
X174312000Y-61027200D03*
X168212000Y-61027200D03*
X174312000Y-56527200D03*
X168212000Y-56527200D03*
X39130400Y-114154000D03*
X39130400Y-108354000D03*
X42130400Y-113504000D03*
X36030400Y-113504000D03*
X42130400Y-109004000D03*
X36030400Y-109004000D03*
X39120200Y-103688800D03*
X39120200Y-97888800D03*
X42120200Y-103038800D03*
X36020200Y-103038800D03*
X42120200Y-98538800D03*
X36020200Y-98538800D03*
X39181200Y-93173200D03*
X39181200Y-87373200D03*
X42181200Y-92523200D03*
X36081200Y-92523200D03*
X42181200Y-88023200D03*
X36081200Y-88023200D03*
X39232000Y-72142000D03*
X39232000Y-66342000D03*
X42232000Y-71492000D03*
X36132000Y-71492000D03*
X42232000Y-66992000D03*
X36132000Y-66992000D03*
X39130400Y-61626400D03*
X39130400Y-55826400D03*
X42130400Y-60976400D03*
X36030400Y-60976400D03*
X42130400Y-56476400D03*
X36030400Y-56476400D03*
D10*
X173507400Y-216735460D03*
D11*
X173507400Y-211655460D03*
D14*
X128904600Y-72847200D03*
X128904600Y-70307200D03*
X126364600Y-72847200D03*
X126364600Y-70307200D03*
X123824600Y-72847200D03*
X123824600Y-70307200D03*
X121284600Y-72847200D03*
X121284600Y-70307200D03*
X118744600Y-72847200D03*
X118744600Y-70307200D03*
X116204600Y-72847200D03*
X116204600Y-70307200D03*
X113664600Y-72847200D03*
X113664600Y-70307200D03*
X111124600Y-72847200D03*
X111124600Y-70307200D03*
X108584600Y-72847200D03*
X108584600Y-70307200D03*
X106044600Y-72847200D03*
X106044600Y-70307200D03*
X103504600Y-72847200D03*
X103504600Y-70307200D03*
X100964600Y-72847200D03*
X100964600Y-70307200D03*
X98424600Y-72847200D03*
X98424600Y-70307200D03*
X95884600Y-72847200D03*
X95884600Y-70307200D03*
X93344600Y-72847200D03*
X93344600Y-70307200D03*
X90804600Y-72847200D03*
X90804600Y-70307200D03*
X88264600Y-72847200D03*
X88264600Y-70307200D03*
X85724600Y-72847200D03*
X85724600Y-70307200D03*
X83184600Y-72847200D03*
X83184600Y-70307200D03*
X80644600Y-72847200D03*
D15*
X80644600Y-70307200D03*
D10*
X37782000Y-211925000D03*
D11*
X37782000Y-217005000D03*
D10*
X37782000Y-222529000D03*
D11*
X37782000Y-227609000D03*
G04 #@! TA.AperFunction,SMDPad,CuDef*
G36*
G01*
X39804000Y-204470000D02*
X38554000Y-204470000D01*
G75*
G02*
X38304000Y-204220000I0J250000D01*
G01*
X38304000Y-203295000D01*
G75*
G02*
X38554000Y-203045000I250000J0D01*
G01*
X39804000Y-203045000D01*
G75*
G02*
X40054000Y-203295000I0J-250000D01*
G01*
X40054000Y-204220000D01*
G75*
G02*
X39804000Y-204470000I-250000J0D01*
G01*
G37*
G04 #@! TD.AperFunction*
G04 #@! TA.AperFunction,SMDPad,CuDef*
G36*
G01*
X39804000Y-207445000D02*
X38554000Y-207445000D01*
G75*
G02*
X38304000Y-207195000I0J250000D01*
G01*
X38304000Y-206270000D01*
G75*
G02*
X38554000Y-206020000I250000J0D01*
G01*
X39804000Y-206020000D01*
G75*
G02*
X40054000Y-206270000I0J-250000D01*
G01*
X40054000Y-207195000D01*
G75*
G02*
X39804000Y-207445000I-250000J0D01*
G01*
G37*
G04 #@! TD.AperFunction*
G04 #@! TA.AperFunction,SMDPad,CuDef*
G36*
G01*
X171770000Y-193586000D02*
X170520000Y-193586000D01*
G75*
G02*
X170270000Y-193336000I0J250000D01*
G01*
X170270000Y-192411000D01*
G75*
G02*
X170520000Y-192161000I250000J0D01*
G01*
X171770000Y-192161000D01*
G75*
G02*
X172020000Y-192411000I0J-250000D01*
G01*
X172020000Y-193336000D01*
G75*
G02*
X171770000Y-193586000I-250000J0D01*
G01*
G37*
G04 #@! TD.AperFunction*
G04 #@! TA.AperFunction,SMDPad,CuDef*
G36*
G01*
X171770000Y-196561000D02*
X170520000Y-196561000D01*
G75*
G02*
X170270000Y-196311000I0J250000D01*
G01*
X170270000Y-195386000D01*
G75*
G02*
X170520000Y-195136000I250000J0D01*
G01*
X171770000Y-195136000D01*
G75*
G02*
X172020000Y-195386000I0J-250000D01*
G01*
X172020000Y-196311000D01*
G75*
G02*
X171770000Y-196561000I-250000J0D01*
G01*
G37*
G04 #@! TD.AperFunction*
G04 #@! TA.AperFunction,SMDPad,CuDef*
G36*
G01*
X39741000Y-186626000D02*
X38491000Y-186626000D01*
G75*
G02*
X38241000Y-186376000I0J250000D01*
G01*
X38241000Y-185451000D01*
G75*
G02*
X38491000Y-185201000I250000J0D01*
G01*
X39741000Y-185201000D01*
G75*
G02*
X39991000Y-185451000I0J-250000D01*
G01*
X39991000Y-186376000D01*
G75*
G02*
X39741000Y-186626000I-250000J0D01*
G01*
G37*
G04 #@! TD.AperFunction*
G04 #@! TA.AperFunction,SMDPad,CuDef*
G36*
G01*
X39741000Y-189601000D02*
X38491000Y-189601000D01*
G75*
G02*
X38241000Y-189351000I0J250000D01*
G01*
X38241000Y-188426000D01*
G75*
G02*
X38491000Y-188176000I250000J0D01*
G01*
X39741000Y-188176000D01*
G75*
G02*
X39991000Y-188426000I0J-250000D01*
G01*
X39991000Y-189351000D01*
G75*
G02*
X39741000Y-189601000I-250000J0D01*
G01*
G37*
G04 #@! TD.AperFunction*
G04 #@! TA.AperFunction,SMDPad,CuDef*
G36*
G01*
X105868000Y-30228700D02*
X105868000Y-28978700D01*
G75*
G02*
X106118000Y-28728700I250000J0D01*
G01*
X107043000Y-28728700D01*
G75*
G02*
X107293000Y-28978700I0J-250000D01*
G01*
X107293000Y-30228700D01*
G75*
G02*
X107043000Y-30478700I-250000J0D01*
G01*
X106118000Y-30478700D01*
G75*
G02*
X105868000Y-30228700I0J250000D01*
G01*
G37*
G04 #@! TD.AperFunction*
G04 #@! TA.AperFunction,SMDPad,CuDef*
G36*
G01*
X102893000Y-30228700D02*
X102893000Y-28978700D01*
G75*
G02*
X103143000Y-28728700I250000J0D01*
G01*
X104068000Y-28728700D01*
G75*
G02*
X104318000Y-28978700I0J-250000D01*
G01*
X104318000Y-30228700D01*
G75*
G02*
X104068000Y-30478700I-250000J0D01*
G01*
X103143000Y-30478700D01*
G75*
G02*
X102893000Y-30228700I0J250000D01*
G01*
G37*
G04 #@! TD.AperFunction*
G04 #@! TA.AperFunction,SMDPad,CuDef*
G36*
G01*
X91008000Y-30228700D02*
X91008000Y-28978700D01*
G75*
G02*
X91258000Y-28728700I250000J0D01*
G01*
X92183000Y-28728700D01*
G75*
G02*
X92433000Y-28978700I0J-250000D01*
G01*
X92433000Y-30228700D01*
G75*
G02*
X92183000Y-30478700I-250000J0D01*
G01*
X91258000Y-30478700D01*
G75*
G02*
X91008000Y-30228700I0J250000D01*
G01*
G37*
G04 #@! TD.AperFunction*
G04 #@! TA.AperFunction,SMDPad,CuDef*
G36*
G01*
X88033000Y-30228700D02*
X88033000Y-28978700D01*
G75*
G02*
X88283000Y-28728700I250000J0D01*
G01*
X89208000Y-28728700D01*
G75*
G02*
X89458000Y-28978700I0J-250000D01*
G01*
X89458000Y-30228700D01*
G75*
G02*
X89208000Y-30478700I-250000J0D01*
G01*
X88283000Y-30478700D01*
G75*
G02*
X88033000Y-30228700I0J250000D01*
G01*
G37*
G04 #@! TD.AperFunction*
G04 #@! TA.AperFunction,SMDPad,CuDef*
G36*
G01*
X135903000Y-30228700D02*
X135903000Y-28978700D01*
G75*
G02*
X136153000Y-28728700I250000J0D01*
G01*
X137078000Y-28728700D01*
G75*
G02*
X137328000Y-28978700I0J-250000D01*
G01*
X137328000Y-30228700D01*
G75*
G02*
X137078000Y-30478700I-250000J0D01*
G01*
X136153000Y-30478700D01*
G75*
G02*
X135903000Y-30228700I0J250000D01*
G01*
G37*
G04 #@! TD.AperFunction*
G04 #@! TA.AperFunction,SMDPad,CuDef*
G36*
G01*
X132928000Y-30228700D02*
X132928000Y-28978700D01*
G75*
G02*
X133178000Y-28728700I250000J0D01*
G01*
X134103000Y-28728700D01*
G75*
G02*
X134353000Y-28978700I0J-250000D01*
G01*
X134353000Y-30228700D01*
G75*
G02*
X134103000Y-30478700I-250000J0D01*
G01*
X133178000Y-30478700D01*
G75*
G02*
X132928000Y-30228700I0J250000D01*
G01*
G37*
G04 #@! TD.AperFunction*
G04 #@! TA.AperFunction,SMDPad,CuDef*
G36*
G01*
X75768000Y-30165200D02*
X75768000Y-28915200D01*
G75*
G02*
X76018000Y-28665200I250000J0D01*
G01*
X76943000Y-28665200D01*
G75*
G02*
X77193000Y-28915200I0J-250000D01*
G01*
X77193000Y-30165200D01*
G75*
G02*
X76943000Y-30415200I-250000J0D01*
G01*
X76018000Y-30415200D01*
G75*
G02*
X75768000Y-30165200I0J250000D01*
G01*
G37*
G04 #@! TD.AperFunction*
G04 #@! TA.AperFunction,SMDPad,CuDef*
G36*
G01*
X72793000Y-30165200D02*
X72793000Y-28915200D01*
G75*
G02*
X73043000Y-28665200I250000J0D01*
G01*
X73968000Y-28665200D01*
G75*
G02*
X74218000Y-28915200I0J-250000D01*
G01*
X74218000Y-30165200D01*
G75*
G02*
X73968000Y-30415200I-250000J0D01*
G01*
X73043000Y-30415200D01*
G75*
G02*
X72793000Y-30165200I0J250000D01*
G01*
G37*
G04 #@! TD.AperFunction*
D16*
X130464400Y-116839800D03*
X130464400Y-120409800D03*
X90043000Y-91349800D03*
X86309900Y-81680600D03*
X133837700Y-96826600D03*
X122922400Y-110000300D03*
X120654000Y-98679400D03*
X106060700Y-106553700D03*
X90874000Y-95342800D03*
X55604000Y-111836900D03*
X51535600Y-100324800D03*
X81668900Y-96594200D03*
X85320400Y-91405900D03*
X63452900Y-36462500D03*
X111124600Y-79471500D03*
X149164000Y-96976900D03*
X139437500Y-85221400D03*
X117770000Y-84892300D03*
X125519700Y-95471400D03*
X114409500Y-96588400D03*
X150500800Y-96864100D03*
X128721400Y-96025300D03*
X106521900Y-96602500D03*
X93344600Y-82575700D03*
X91059700Y-92768400D03*
X83746600Y-97478200D03*
X83843300Y-68019100D03*
X59183800Y-94703800D03*
X76127900Y-92962300D03*
X79919300Y-88723000D03*
X59078300Y-92454900D03*
X75076500Y-92068000D03*
X145501100Y-175703600D03*
X152044400Y-204012800D03*
X121716800Y-190093600D03*
X141732000Y-180644800D03*
X165303200Y-176479200D03*
X167640000Y-150876000D03*
X103073200Y-145338800D03*
X77224800Y-89917500D03*
X59764400Y-104158500D03*
X176837400Y-88167300D03*
X95653600Y-91494900D03*
X59884700Y-102572600D03*
X61500600Y-102696900D03*
X57458100Y-119521300D03*
X64474800Y-160112000D03*
X68656500Y-129290400D03*
X94646600Y-110181200D03*
X91037100Y-111703000D03*
X66246200Y-144182900D03*
X70941200Y-126720300D03*
X91704600Y-109391500D03*
X85110100Y-102119300D03*
X63061900Y-146164800D03*
X68677400Y-126566400D03*
X74982500Y-102066900D03*
X68349200Y-132108400D03*
X81446500Y-107380500D03*
X73505900Y-105342100D03*
X70647500Y-109803200D03*
X79517800Y-111439800D03*
X73537400Y-107938700D03*
X71225200Y-111444200D03*
X143917900Y-126688800D03*
X128906900Y-151226900D03*
X110244700Y-118843700D03*
X110244700Y-111277300D03*
X107114800Y-105536600D03*
X116593900Y-128761700D03*
X111846100Y-111735500D03*
X106844200Y-132206100D03*
X100596100Y-109079200D03*
X102022100Y-98821000D03*
X132992000Y-221083500D03*
X132886200Y-123364100D03*
X104374800Y-99654000D03*
X118932900Y-138142500D03*
X104028500Y-120190400D03*
X104028500Y-102296200D03*
X92992300Y-107082600D03*
X148493800Y-175703600D03*
X148437800Y-145973300D03*
X140678400Y-142548800D03*
X128957900Y-156028800D03*
X116644200Y-138981300D03*
X102319100Y-120564400D03*
X102319100Y-106866600D03*
X97815900Y-107208400D03*
X150998200Y-120686700D03*
X144706800Y-117597700D03*
X123273700Y-200008100D03*
X129854500Y-112967000D03*
X124106100Y-111796100D03*
X135802800Y-199511100D03*
X134777600Y-104707900D03*
X141860800Y-186195500D03*
X129969200Y-100571100D03*
X135874200Y-103351100D03*
X136552900Y-188420100D03*
X135989500Y-109162900D03*
X127782200Y-100037400D03*
X125978600Y-100628100D03*
X119420200Y-101866000D03*
X152587400Y-123729500D03*
X149683200Y-120821400D03*
X131650700Y-117583500D03*
X126198000Y-108758300D03*
X124928400Y-108161400D03*
X151562500Y-107481700D03*
X146104100Y-108632000D03*
X154146900Y-160480800D03*
X149070800Y-104196100D03*
X146816100Y-160466900D03*
X148398000Y-109369500D03*
X107500800Y-170604800D03*
X112897700Y-175703600D03*
X163205500Y-104327500D03*
X169548200Y-107524500D03*
X142017500Y-104596300D03*
X139622500Y-157031400D03*
X40782600Y-191216200D03*
X149639000Y-106227900D03*
X141558400Y-106526700D03*
X138870500Y-153207900D03*
X40146300Y-169915500D03*
X146218400Y-105186400D03*
X146126600Y-107163600D03*
X73464800Y-31912800D03*
X133640500Y-31588600D03*
X88795100Y-32041500D03*
X103239100Y-31912800D03*
X41141400Y-188601500D03*
X168797800Y-190986200D03*
X41361700Y-206598200D03*
X116732400Y-180135200D03*
X77438400Y-181994100D03*
D17*
X86309900Y-81680600D02*
X86309900Y-87616700D01*
X86309900Y-87616700D02*
X90043000Y-91349800D01*
X115308000Y-181737900D02*
X113920900Y-180350800D01*
X113920900Y-180350800D02*
X113920900Y-177194800D01*
X113920900Y-177194800D02*
X115257000Y-175858700D01*
X115257000Y-175858700D02*
X115257000Y-170491100D01*
X130464400Y-120409800D02*
X130464400Y-116839800D01*
X143917900Y-236332800D02*
X145305000Y-237719900D01*
X145178000Y-226498100D02*
X143917900Y-227758200D01*
X143917900Y-227758200D02*
X143917900Y-236332800D01*
X143917900Y-236332800D02*
X134480300Y-236332800D01*
X130294000Y-239132000D02*
X131681100Y-239132000D01*
X130987500Y-152924000D02*
X131732100Y-153668600D01*
X131732100Y-166329800D02*
X130345000Y-167716900D01*
X130370000Y-139920000D02*
X130370000Y-138532900D01*
X130464400Y-120409800D02*
X130464400Y-128671400D01*
X130464400Y-128671400D02*
X131757100Y-129964100D01*
X131757100Y-129964100D02*
X131757100Y-137145800D01*
X131757100Y-137145800D02*
X130370000Y-138532900D01*
X130294000Y-152924000D02*
X130987500Y-152924000D01*
X130345000Y-169104000D02*
X130345000Y-167716900D01*
X130345000Y-183100000D02*
X130345000Y-181712900D01*
X130345000Y-169104000D02*
X130345000Y-170491100D01*
X130345000Y-170491100D02*
X131732100Y-171878200D01*
X131732100Y-171878200D02*
X131732100Y-180325800D01*
X131732100Y-180325800D02*
X130345000Y-181712900D01*
X130345000Y-183100000D02*
X130345000Y-184487100D01*
X115206000Y-211065000D02*
X115206000Y-209677900D01*
X115308000Y-197095000D02*
X115308000Y-198482100D01*
X115308000Y-198482100D02*
X113818900Y-199971200D01*
X113818900Y-199971200D02*
X113818900Y-208290800D01*
X113818900Y-208290800D02*
X115206000Y-209677900D01*
X82830900Y-237965300D02*
X69939600Y-237965300D01*
X69939600Y-237965300D02*
X69192000Y-238712900D01*
X84218000Y-238658900D02*
X83524400Y-237965300D01*
X83524400Y-237965300D02*
X82830900Y-237965300D01*
X82830900Y-237965300D02*
X82830900Y-230908200D01*
X82830900Y-230908200D02*
X84218000Y-229521100D01*
X67804800Y-238019300D02*
X54925600Y-238019300D01*
X54925600Y-238019300D02*
X54232000Y-238712900D01*
X69192000Y-238712900D02*
X68498400Y-238019300D01*
X68498400Y-238019300D02*
X67804800Y-238019300D01*
X67804800Y-238019300D02*
X67804800Y-230871300D01*
X67804800Y-230871300D02*
X69181000Y-229495100D01*
X43535300Y-37744100D02*
X42824400Y-37033200D01*
X48613500Y-37744100D02*
X49324400Y-37033200D01*
X174414000Y-103038800D02*
X174414000Y-101651700D01*
X174261000Y-92523200D02*
X174261000Y-93910300D01*
X174261000Y-93910300D02*
X173026900Y-95144400D01*
X173026900Y-95144400D02*
X173026900Y-100264600D01*
X173026900Y-100264600D02*
X174414000Y-101651700D01*
X174261000Y-91829600D02*
X174261000Y-92523200D01*
X174261000Y-113504000D02*
X174261000Y-112116900D01*
X174414000Y-103038800D02*
X174414000Y-104425900D01*
X174414000Y-104425900D02*
X175648100Y-105660000D01*
X175648100Y-105660000D02*
X175648100Y-110729800D01*
X175648100Y-110729800D02*
X174261000Y-112116900D01*
X160367000Y-211116000D02*
X160367000Y-209728900D01*
X161754100Y-208341800D02*
X160367000Y-209728900D01*
X148429000Y-154311100D02*
X148005500Y-154734600D01*
X148005500Y-154734600D02*
X148005500Y-165042400D01*
X148429000Y-152924000D02*
X148429000Y-154311100D01*
X145305000Y-239107000D02*
X145305000Y-237719900D01*
X145178000Y-225111000D02*
X145178000Y-226498100D01*
X130370000Y-139920000D02*
X130370000Y-141307100D01*
X112387000Y-139945000D02*
X112387000Y-141332100D01*
X112412000Y-152924000D02*
X112412000Y-151536900D01*
X112412000Y-151536900D02*
X111024800Y-150149700D01*
X111024800Y-150149700D02*
X111024800Y-142694300D01*
X111024800Y-142694300D02*
X112387000Y-141332100D01*
X84218000Y-228134000D02*
X84218000Y-229521100D01*
X84218000Y-240046000D02*
X84218000Y-238658900D01*
X58285000Y-165828000D02*
X58285000Y-164440900D01*
X58310000Y-152899000D02*
X58310000Y-154286100D01*
X58310000Y-154286100D02*
X59672100Y-155648200D01*
X59672100Y-155648200D02*
X59672100Y-163053800D01*
X59672100Y-163053800D02*
X58285000Y-164440900D01*
X58310000Y-152205400D02*
X58310000Y-152899000D01*
X54246000Y-216069000D02*
X54246000Y-214681900D01*
X54272000Y-204105000D02*
X54272000Y-205492100D01*
X54272000Y-205492100D02*
X52858900Y-206905200D01*
X52858900Y-206905200D02*
X52858900Y-213294800D01*
X52858900Y-213294800D02*
X54246000Y-214681900D01*
X58234000Y-141357100D02*
X59697100Y-142820200D01*
X59697100Y-142820200D02*
X59697100Y-150124800D01*
X59697100Y-150124800D02*
X58310000Y-151511900D01*
X76395000Y-152899000D02*
X76395000Y-151075200D01*
X76395000Y-151075200D02*
X75007800Y-149688000D01*
X75007800Y-149688000D02*
X75007800Y-142668300D01*
X75007800Y-142668300D02*
X76319000Y-141357100D01*
X58361000Y-178832000D02*
X58361000Y-177444900D01*
X58285000Y-165828000D02*
X58285000Y-167215100D01*
X58285000Y-167215100D02*
X59748100Y-168678200D01*
X59748100Y-168678200D02*
X59748100Y-176057800D01*
X59748100Y-176057800D02*
X58361000Y-177444900D01*
X115333000Y-239132000D02*
X115333000Y-237744900D01*
X115206000Y-225137000D02*
X115206000Y-226524100D01*
X115206000Y-226524100D02*
X113945900Y-227784200D01*
X113945900Y-227784200D02*
X113945900Y-236357800D01*
X113945900Y-236357800D02*
X115333000Y-237744900D01*
X130294000Y-225137000D02*
X130294000Y-223749900D01*
X130294000Y-211090000D02*
X130294000Y-212477100D01*
X130294000Y-212477100D02*
X128906900Y-213864200D01*
X128906900Y-213864200D02*
X128906900Y-222362800D01*
X128906900Y-222362800D02*
X130294000Y-223749900D01*
X145153000Y-211090000D02*
X145153000Y-209702900D01*
X145204000Y-197120000D02*
X145204000Y-198507100D01*
X145204000Y-198507100D02*
X143765900Y-199945200D01*
X143765900Y-199945200D02*
X143765900Y-208315800D01*
X143765900Y-208315800D02*
X145153000Y-209702900D01*
X160240000Y-183100000D02*
X160240000Y-181712900D01*
X160266000Y-169130000D02*
X160266000Y-170517100D01*
X160266000Y-170517100D02*
X161627100Y-171878200D01*
X161627100Y-171878200D02*
X161627100Y-180325800D01*
X161627100Y-180325800D02*
X160240000Y-181712900D01*
X115308000Y-183125000D02*
X115308000Y-181737900D01*
X115257000Y-169104000D02*
X115257000Y-170491100D01*
X100246000Y-169079000D02*
X100246000Y-170466100D01*
X100246000Y-170466100D02*
X101556100Y-171776200D01*
X101556100Y-171776200D02*
X101556100Y-180350800D01*
X69181000Y-228108000D02*
X69181000Y-229495100D01*
X69192000Y-240100000D02*
X69192000Y-238712900D01*
X54246000Y-228083000D02*
X54246000Y-229470100D01*
X54232000Y-240100000D02*
X54232000Y-238712900D01*
X54232000Y-238712900D02*
X52844800Y-237325700D01*
X52844800Y-237325700D02*
X52844800Y-230871300D01*
X52844800Y-230871300D02*
X54246000Y-229470100D01*
X69181000Y-216094000D02*
X69181000Y-217481100D01*
X69181000Y-228108000D02*
X69181000Y-226720900D01*
X69181000Y-226720900D02*
X67793900Y-225333800D01*
X67793900Y-225333800D02*
X67793900Y-218868200D01*
X67793900Y-218868200D02*
X69181000Y-217481100D01*
X54246000Y-216069000D02*
X54246000Y-217456100D01*
X54246000Y-228083000D02*
X54246000Y-226695900D01*
X54246000Y-226695900D02*
X52858900Y-225308800D01*
X52858900Y-225308800D02*
X52858900Y-218843200D01*
X52858900Y-218843200D02*
X54246000Y-217456100D01*
X69232000Y-204105000D02*
X69232000Y-205492100D01*
X69181000Y-216094000D02*
X69181000Y-214706900D01*
X69181000Y-214706900D02*
X70609200Y-213278700D01*
X70609200Y-213278700D02*
X70609200Y-206869300D01*
X70609200Y-206869300D02*
X69232000Y-205492100D01*
X76319000Y-139970000D02*
X76319000Y-141357100D01*
X58310000Y-152205400D02*
X58310000Y-151511900D01*
X94429000Y-152924000D02*
X94429000Y-151536900D01*
X94429000Y-139970000D02*
X94429000Y-141357100D01*
X94429000Y-141357100D02*
X93041900Y-142744200D01*
X93041900Y-142744200D02*
X93041900Y-150149800D01*
X93041900Y-150149800D02*
X94429000Y-151536900D01*
X58234000Y-139970000D02*
X58234000Y-141357100D01*
X174261000Y-91829600D02*
X174261000Y-91136100D01*
X174276000Y-82007600D02*
X174276000Y-83394700D01*
X174276000Y-83394700D02*
X172873900Y-84796800D01*
X172873900Y-84796800D02*
X172873900Y-89749000D01*
X172873900Y-89749000D02*
X174261000Y-91136100D01*
X174276000Y-81314000D02*
X174276000Y-82007600D01*
X174276000Y-81314000D02*
X174276000Y-80620500D01*
X174312000Y-71492000D02*
X174312000Y-72879100D01*
X174312000Y-72879100D02*
X172888900Y-74302200D01*
X172888900Y-74302200D02*
X172888900Y-79233400D01*
X172888900Y-79233400D02*
X174276000Y-80620500D01*
X174312000Y-70798400D02*
X174312000Y-71492000D01*
X174312000Y-70798400D02*
X174312000Y-70104900D01*
X174312000Y-61027200D02*
X174312000Y-62414300D01*
X174312000Y-62414300D02*
X172924900Y-63801400D01*
X172924900Y-63801400D02*
X172924900Y-68717800D01*
X172924900Y-68717800D02*
X174312000Y-70104900D01*
X42130400Y-113504000D02*
X42130400Y-112116900D01*
X42120200Y-103038800D02*
X42120200Y-104425900D01*
X42120200Y-104425900D02*
X40743300Y-105802800D01*
X40743300Y-105802800D02*
X40743300Y-110729800D01*
X40743300Y-110729800D02*
X42130400Y-112116900D01*
X42120200Y-102345200D02*
X42120200Y-103038800D01*
X42120200Y-102345200D02*
X42120200Y-101651700D01*
X42181200Y-92523200D02*
X42181200Y-93910300D01*
X42181200Y-93910300D02*
X40733100Y-95358400D01*
X40733100Y-95358400D02*
X40733100Y-100264600D01*
X40733100Y-100264600D02*
X42120200Y-101651700D01*
X131681100Y-198508100D02*
X130268000Y-197095000D01*
X130294000Y-209702900D02*
X131681100Y-208315800D01*
X130294000Y-211090000D02*
X130294000Y-209702900D01*
X130345000Y-189258000D02*
X130345000Y-183100000D01*
X131681100Y-190594100D02*
X130345000Y-189258000D01*
X131681100Y-199026900D02*
X131681100Y-190594100D01*
X131681100Y-208315800D02*
X131681100Y-199026900D01*
X131681100Y-199026900D02*
X131681100Y-198508100D01*
X160240000Y-200713800D02*
X161754100Y-202227900D01*
X160240000Y-197070000D02*
X160240000Y-200713800D01*
X161754100Y-202227900D02*
X161754100Y-208341800D01*
X134480300Y-236332800D02*
X131681100Y-239132000D01*
X131732100Y-153668600D02*
X131732100Y-154424300D01*
X131732100Y-154424300D02*
X131732100Y-166329800D01*
X131732100Y-151594900D02*
X131732100Y-144584500D01*
X131732100Y-154424300D02*
X131732100Y-151594900D01*
X131732100Y-151594900D02*
X131732100Y-151086900D01*
X130370000Y-143222400D02*
X130370000Y-139920000D01*
X131732100Y-144584500D02*
X130370000Y-143222400D01*
X145305000Y-170517100D02*
X145305000Y-169130000D01*
X147438600Y-172650700D02*
X145305000Y-170517100D01*
X147438600Y-165609300D02*
X147760950Y-165286950D01*
X147438600Y-172855400D02*
X147438600Y-165609300D01*
X148005500Y-165042400D02*
X147760950Y-165286950D01*
X147438600Y-172855400D02*
X147438600Y-172650700D01*
X86309900Y-81680600D02*
X85598000Y-80968700D01*
X85598000Y-72973800D02*
X85724600Y-72847200D01*
X85598000Y-80968700D02*
X85598000Y-72973800D01*
X42145600Y-82007600D02*
X42604800Y-82007600D01*
X42604800Y-82007600D02*
X44196000Y-80416400D01*
X44196000Y-73456000D02*
X42232000Y-71492000D01*
X44196000Y-80416400D02*
X44196000Y-73456000D01*
X42130400Y-60976400D02*
X42604800Y-60976400D01*
X42604800Y-60976400D02*
X44500800Y-59080400D01*
X44500800Y-41856800D02*
X49324400Y-37033200D01*
X44500800Y-59080400D02*
X44500800Y-41856800D01*
X42824400Y-37033200D02*
X49324400Y-37033200D01*
X101582100Y-184538100D02*
X100169000Y-183125000D01*
X101582100Y-194320800D02*
X101582100Y-184538100D01*
X100195000Y-195707900D02*
X101582100Y-194320800D01*
X100195000Y-197095000D02*
X100195000Y-195707900D01*
X101582100Y-180376800D02*
X101556100Y-180350800D01*
X101582100Y-184538100D02*
X101582100Y-180376800D01*
X145280000Y-183100000D02*
X146744400Y-183100000D01*
X146744400Y-183100000D02*
X148539200Y-181305200D01*
X148539200Y-177359600D02*
X147438600Y-176259000D01*
X148539200Y-181305200D02*
X148539200Y-177359600D01*
X147438600Y-176259000D02*
X147438600Y-172855400D01*
X106152700Y-99980800D02*
X106060700Y-100072800D01*
X106060700Y-100072800D02*
X106060700Y-106553700D01*
X90874000Y-95342800D02*
X90874000Y-94806100D01*
X90874000Y-94806100D02*
X95222500Y-90457600D01*
X95222500Y-90457600D02*
X96629500Y-90457600D01*
X107202700Y-98930800D02*
X106152700Y-99980800D01*
X122922400Y-100947800D02*
X120905700Y-98931100D01*
X120905700Y-98931100D02*
X120905700Y-98930900D01*
X120905700Y-98930900D02*
X120905600Y-98930800D01*
X120905600Y-98930800D02*
X120905400Y-98930800D01*
X120905400Y-98930800D02*
X120654000Y-98679400D01*
X133837700Y-96826600D02*
X132230600Y-98433700D01*
X132230600Y-98433700D02*
X125436500Y-98433700D01*
X125436500Y-98433700D02*
X122922400Y-100947800D01*
X122922400Y-110000300D02*
X122922400Y-100947800D01*
X85320400Y-91405900D02*
X85320400Y-92073300D01*
X85320400Y-92073300D02*
X85755100Y-92508000D01*
X85755100Y-92508000D02*
X88589900Y-95342800D01*
X83184600Y-74322300D02*
X83184600Y-89270100D01*
X83184600Y-89270100D02*
X85320400Y-91405900D01*
X55604000Y-111836900D02*
X51535600Y-107768500D01*
X51535600Y-107768500D02*
X51535600Y-100324800D01*
X83184600Y-72847200D02*
X83184600Y-74322300D01*
X81668900Y-96594200D02*
X82679000Y-96594200D01*
X83930400Y-95342800D02*
X88959600Y-95342800D01*
X82679000Y-96594200D02*
X83930400Y-95342800D01*
X88959600Y-95342800D02*
X90874000Y-95342800D01*
X88589900Y-95342800D02*
X88959600Y-95342800D01*
X105102700Y-98930800D02*
X96629500Y-90457600D01*
X108079200Y-98930800D02*
X105102700Y-98930800D01*
X120905400Y-98930800D02*
X108079200Y-98930800D01*
X108079200Y-98930800D02*
X107202700Y-98930800D01*
X42497150Y-124943750D02*
X46992050Y-120448850D01*
X42497150Y-212575550D02*
X42497150Y-124943750D01*
X46992050Y-120448850D02*
X55604000Y-111836900D01*
X37782000Y-217005000D02*
X37782000Y-217290700D01*
X37782000Y-217576400D02*
X37782000Y-217290700D01*
X37782000Y-227609000D02*
X37782000Y-226199200D01*
X42090750Y-212981950D02*
X42090750Y-212976050D01*
X42090750Y-212981950D02*
X42497150Y-212575550D01*
X37782000Y-226199200D02*
X35610800Y-224028000D01*
X35610800Y-221301300D02*
X37782000Y-219130100D01*
X35610800Y-224028000D02*
X35610800Y-221301300D01*
X37782000Y-219130100D02*
X37782000Y-217576400D01*
X37782000Y-217290700D02*
X42090750Y-212981950D01*
X42090750Y-212976050D02*
X42468800Y-212598000D01*
X88264600Y-70307200D02*
X88264600Y-61274200D01*
X88264600Y-61274200D02*
X63452900Y-36462500D01*
X111124600Y-72847200D02*
X111124600Y-79471500D01*
X139437500Y-85221400D02*
X149164000Y-94947900D01*
X149164000Y-94947900D02*
X149164000Y-96976900D01*
X100964600Y-72847200D02*
X100964600Y-74650200D01*
X111206700Y-84892300D02*
X113797500Y-84892300D01*
X100964600Y-74650200D02*
X111206700Y-84892300D01*
X113797500Y-84892300D02*
X117770000Y-84892300D01*
X98424600Y-72847200D02*
X98424600Y-74497800D01*
X119398200Y-95471400D02*
X123984600Y-95471400D01*
X98424600Y-74497800D02*
X119398200Y-95471400D01*
X123984600Y-95471400D02*
X125519700Y-95471400D01*
X98424600Y-70307200D02*
X99956100Y-68775700D01*
X99956100Y-68775700D02*
X129462400Y-68775700D01*
X129462400Y-68775700D02*
X130431400Y-69744700D01*
X130431400Y-69744700D02*
X130431400Y-92079000D01*
X130431400Y-92079000D02*
X125922000Y-96588400D01*
X125922000Y-96588400D02*
X114409500Y-96588400D01*
X93344600Y-89702400D02*
X93344600Y-90483500D01*
X93344600Y-90483500D02*
X91059700Y-92768400D01*
X128721400Y-96025300D02*
X128955300Y-95791400D01*
X128955300Y-95791400D02*
X134671100Y-95791400D01*
X134671100Y-95791400D02*
X143693100Y-104813400D01*
X143693100Y-104813400D02*
X143693100Y-107677800D01*
X143693100Y-107677800D02*
X145707500Y-109692200D01*
X145707500Y-109692200D02*
X146534500Y-109692200D01*
X146534500Y-109692200D02*
X147282000Y-108944700D01*
X147282000Y-108944700D02*
X147282000Y-103408200D01*
X147282000Y-103408200D02*
X150500800Y-100189400D01*
X150500800Y-100189400D02*
X150500800Y-96864100D01*
X106521900Y-96602500D02*
X107555000Y-97635600D01*
X107555000Y-97635600D02*
X127111100Y-97635600D01*
X127111100Y-97635600D02*
X128721400Y-96025300D01*
X93344600Y-72847200D02*
X93344600Y-82575700D01*
X93344600Y-83387800D02*
X93344600Y-89702400D01*
X103105300Y-93185900D02*
X103105300Y-93148500D01*
X93344600Y-82575700D02*
X93344600Y-83387800D01*
X99621800Y-89702400D02*
X103105300Y-93185900D01*
X103105300Y-93148500D02*
X93344600Y-83387800D01*
X103105300Y-93185900D02*
X106521900Y-96602500D01*
X79504100Y-68019100D02*
X83843300Y-68019100D01*
X77470000Y-68630800D02*
X78081700Y-68019100D01*
X77470000Y-86918800D02*
X77470000Y-68630800D01*
X78373900Y-94754900D02*
X78373900Y-87822700D01*
X78373900Y-87822700D02*
X77470000Y-86918800D01*
X81238400Y-97619400D02*
X78373900Y-94754900D01*
X83605400Y-97619400D02*
X81238400Y-97619400D01*
X78081700Y-68019100D02*
X79504100Y-68019100D01*
X83746600Y-97478200D02*
X83605400Y-97619400D01*
X84233600Y-66958200D02*
X85724600Y-68449200D01*
X85724600Y-68449200D02*
X85724600Y-70307200D01*
X76127900Y-68347300D02*
X77517000Y-66958200D01*
X77517000Y-66958200D02*
X84233600Y-66958200D01*
X76127900Y-92962300D02*
X76127900Y-68347300D01*
X59183800Y-94703800D02*
X75323800Y-94703800D01*
X76127900Y-93899700D02*
X76127900Y-92962300D01*
X75323800Y-94703800D02*
X76127900Y-93899700D01*
X75076500Y-92068000D02*
X74689600Y-92454900D01*
X74689600Y-92454900D02*
X59078300Y-92454900D01*
X83184600Y-69317000D02*
X83184600Y-70307200D01*
X82699700Y-68832100D02*
X83184600Y-69317000D01*
X78945100Y-68832100D02*
X82699700Y-68832100D01*
X78689200Y-69088000D02*
X78945100Y-68832100D01*
X78689200Y-85039200D02*
X78689200Y-69088000D01*
X79919300Y-86269300D02*
X78689200Y-85039200D01*
X79919300Y-88723000D02*
X79919300Y-86269300D01*
X142305000Y-165367100D02*
X143692100Y-166754200D01*
X143692100Y-173894600D02*
X145501100Y-175703600D01*
X142305000Y-163980000D02*
X142305000Y-165367100D01*
X101323700Y-163191800D02*
X97983200Y-163191800D01*
X97983200Y-163191800D02*
X97246000Y-163929000D01*
X55259000Y-187431500D02*
X55259000Y-186738000D01*
X51246000Y-222933000D02*
X51246000Y-221545900D01*
X51246000Y-221545900D02*
X49858900Y-220158800D01*
X101323700Y-163191800D02*
X103167400Y-165035500D01*
X127294000Y-150175600D02*
X127294000Y-147774000D01*
X125883900Y-151585700D02*
X127294000Y-150175600D01*
X125880900Y-151585700D02*
X125883900Y-151585700D01*
X125880900Y-189170800D02*
X125880900Y-151585700D01*
X127268000Y-190557900D02*
X125880900Y-189170800D01*
X127268000Y-191945000D02*
X127268000Y-190557900D01*
X113098800Y-222877600D02*
X115409500Y-222877600D01*
D18*
X157266000Y-219987000D02*
X157266000Y-219902400D01*
X157266000Y-219902400D02*
X152044400Y-214680800D01*
X152044400Y-214680800D02*
X152044400Y-204012800D01*
X152044400Y-204012800D02*
X152044400Y-204012800D01*
X51232000Y-234950000D02*
X51232000Y-233908800D01*
X51232000Y-233908800D02*
X48869600Y-231546400D01*
X48869600Y-231546400D02*
X47447200Y-231546400D01*
X47447200Y-231546400D02*
X45110400Y-229209600D01*
X45110400Y-222859600D02*
X47345600Y-220624400D01*
X47345600Y-220624400D02*
X50546000Y-220624400D01*
X51246000Y-221324400D02*
X51246000Y-222933000D01*
X50546000Y-220624400D02*
X51246000Y-221324400D01*
X45110400Y-229209600D02*
X45110400Y-223977200D01*
X45110400Y-223977200D02*
X45110400Y-222859600D01*
X45110400Y-214884000D02*
X46075600Y-213918800D01*
X49633300Y-213918800D02*
X51156450Y-212395650D01*
X46075600Y-213918800D02*
X49633300Y-213918800D01*
D17*
X51156450Y-212395650D02*
X51246000Y-212306100D01*
X49858900Y-213693200D02*
X51156450Y-212395650D01*
D18*
X51246000Y-212306100D02*
X51246000Y-210919000D01*
X45110400Y-215849200D02*
X45110400Y-197916800D01*
X45110400Y-223977200D02*
X45110400Y-215849200D01*
X45110400Y-215849200D02*
X45110400Y-214884000D01*
X50604900Y-196900800D02*
X51272000Y-197567900D01*
X46126400Y-196900800D02*
X50604900Y-196900800D01*
X51272000Y-198955000D02*
X51272000Y-197567900D01*
X45720000Y-197307200D02*
X45770800Y-197307200D01*
X45110400Y-197916800D02*
X45720000Y-197307200D01*
X45720000Y-197307200D02*
X46126400Y-196900800D01*
X45770800Y-197307200D02*
X49733200Y-193344800D01*
X49733200Y-186334400D02*
X52171600Y-183896000D01*
X53804100Y-183896000D02*
X55172250Y-185264150D01*
D17*
X55172250Y-185264150D02*
X53846900Y-183938800D01*
D18*
X52171600Y-183896000D02*
X53804100Y-183896000D01*
X55259000Y-185350900D02*
X55172250Y-185264150D01*
X55259000Y-186738000D02*
X55259000Y-185350900D01*
X49733200Y-188061600D02*
X49733200Y-181762400D01*
X49733200Y-193344800D02*
X49733200Y-188061600D01*
X49733200Y-188061600D02*
X49733200Y-186334400D01*
X49733200Y-181762400D02*
X48564800Y-180594000D01*
X48564800Y-180594000D02*
X48564800Y-133553200D01*
X48564800Y-133553200D02*
X50088800Y-132029200D01*
X50088800Y-132029200D02*
X54559200Y-132029200D01*
X55234000Y-132704000D02*
X55234000Y-134820000D01*
X54559200Y-132029200D02*
X55234000Y-132704000D01*
X97246000Y-163929000D02*
X97246000Y-163459600D01*
X97246000Y-163459600D02*
X98044000Y-162661600D01*
X98044000Y-162661600D02*
X101600000Y-162661600D01*
X103167400Y-164229000D02*
X103167400Y-168206200D01*
X101600000Y-162661600D02*
X103167400Y-164229000D01*
D17*
X103167400Y-168206200D02*
X103167400Y-168343800D01*
X103167400Y-165035500D02*
X103167400Y-168206200D01*
D18*
X103167400Y-168834400D02*
X112308000Y-177975000D01*
X103167400Y-168343800D02*
X103167400Y-168834400D01*
X97093000Y-205915000D02*
X97093000Y-204527900D01*
X97093000Y-204527900D02*
X103972850Y-197648050D01*
X103972850Y-197648050D02*
X103972850Y-184825150D01*
X107859400Y-180938600D02*
X110731500Y-180938600D01*
X103972850Y-184825150D02*
X107859400Y-180938600D01*
X110731500Y-180938600D02*
X110731500Y-180860500D01*
X112308000Y-179284000D02*
X112308000Y-177975000D01*
X110731500Y-180860500D02*
X112308000Y-179284000D01*
X97246000Y-163929000D02*
X97246000Y-163408800D01*
X97246000Y-163408800D02*
X103073200Y-157581600D01*
X103073200Y-157581600D02*
X103073200Y-145338800D01*
X103073200Y-134416800D02*
X104038400Y-133451600D01*
X108043600Y-133451600D02*
X109387000Y-134795000D01*
X104038400Y-133451600D02*
X108043600Y-133451600D01*
X112206000Y-221984800D02*
X113098800Y-222877600D01*
X112206000Y-219987000D02*
X112206000Y-221984800D01*
X115910602Y-222877600D02*
X115928602Y-222859600D01*
X113098800Y-222877600D02*
X115910602Y-222877600D01*
X115928602Y-222859600D02*
X116661452Y-222859600D01*
D17*
X120636926Y-228105074D02*
X121906926Y-228105074D01*
D18*
X124676274Y-228105074D02*
X127294000Y-230722800D01*
X122110126Y-228105074D02*
X124676274Y-228105074D01*
D17*
X121906926Y-228105074D02*
X122110126Y-228105074D01*
D18*
X127294000Y-230722800D02*
X127294000Y-233982000D01*
D17*
X118521350Y-219765750D02*
X118511450Y-219765750D01*
X118046138Y-220240962D02*
X118521350Y-219765750D01*
X118511450Y-219765750D02*
X117741326Y-220535874D01*
X117741326Y-220535874D02*
X117741326Y-223939474D01*
D18*
X117741326Y-223939474D02*
X121906926Y-228105074D01*
X116661452Y-222859600D02*
X117741326Y-223939474D01*
X39181200Y-89117600D02*
X39181200Y-87373200D01*
X40284400Y-90220800D02*
X39181200Y-89117600D01*
X43738800Y-90220800D02*
X40284400Y-90220800D01*
X57099200Y-114401600D02*
X57099200Y-103581200D01*
X55702200Y-115798600D02*
X57099200Y-114401600D01*
X57099200Y-103581200D02*
X43738800Y-90220800D01*
X55702200Y-120624600D02*
X55702200Y-115798600D01*
X56358099Y-121280499D02*
X55702200Y-120624600D01*
X56358099Y-125709101D02*
X56358099Y-121280499D01*
X55234000Y-126833200D02*
X56358099Y-125709101D01*
X55234000Y-134820000D02*
X55234000Y-126833200D01*
X117741326Y-223939474D02*
X117741326Y-216014674D01*
X117741326Y-216014674D02*
X121716800Y-212039200D01*
X121716800Y-212039200D02*
X121716800Y-190093600D01*
X164642800Y-90271600D02*
X170027600Y-90271600D01*
X161188400Y-93726000D02*
X164642800Y-90271600D01*
X171261000Y-89038200D02*
X171261000Y-87373200D01*
X170027600Y-90271600D02*
X171261000Y-89038200D01*
X161188400Y-105206800D02*
X161188400Y-93726000D01*
X161812000Y-105830400D02*
X161188400Y-105206800D01*
X161812000Y-134770000D02*
X161812000Y-105830400D01*
X171261000Y-87373200D02*
X171261000Y-86425000D01*
X171261000Y-86425000D02*
X169722800Y-84886800D01*
X169722800Y-84886800D02*
X160324800Y-84886800D01*
X160324800Y-84886800D02*
X158800800Y-83362800D01*
X158800800Y-83362800D02*
X158800800Y-54965600D01*
X158800800Y-54965600D02*
X160426400Y-53340000D01*
X160426400Y-53340000D02*
X170230800Y-53340000D01*
X171312000Y-54421200D02*
X171312000Y-55877200D01*
X170230800Y-53340000D02*
X171312000Y-54421200D01*
D17*
X146036400Y-175703600D02*
X145501100Y-175703600D01*
X147726400Y-177393600D02*
X146036400Y-175703600D01*
X147726400Y-180390800D02*
X147726400Y-177393600D01*
X146844600Y-181272600D02*
X147726400Y-180390800D01*
D18*
X143692100Y-173679240D02*
X143692100Y-171530500D01*
X146659600Y-180644800D02*
X147218400Y-180086000D01*
X141732000Y-180644800D02*
X146659600Y-180644800D01*
X147218400Y-177205540D02*
X143692100Y-173679240D01*
D17*
X143692100Y-171530500D02*
X143692100Y-173894600D01*
D18*
X147218400Y-180086000D02*
X147218400Y-177205540D01*
D17*
X143692100Y-166754200D02*
X143692100Y-171530500D01*
D18*
X165303200Y-176479200D02*
X165303200Y-160375600D01*
X167640000Y-158038800D02*
X167640000Y-150876000D01*
X165303200Y-160375600D02*
X167640000Y-158038800D01*
X103073200Y-145338800D02*
X103073200Y-134416800D01*
D17*
X59764400Y-104158500D02*
X58826000Y-103220100D01*
X58826000Y-103220100D02*
X58826000Y-102140500D01*
X62550850Y-98415650D02*
X75980750Y-98415650D01*
X58826000Y-102140500D02*
X62550850Y-98415650D01*
X77224800Y-97171600D02*
X77224800Y-92040800D01*
X75980750Y-98415650D02*
X77224800Y-97171600D01*
X77224800Y-92040800D02*
X77224800Y-89917500D01*
X175801100Y-98538800D02*
X176837400Y-97502500D01*
X176837400Y-97502500D02*
X176837400Y-88167300D01*
X174414000Y-98538800D02*
X175801100Y-98538800D01*
X95653600Y-91494900D02*
X95653600Y-92013000D01*
X95653600Y-92013000D02*
X87986100Y-99680500D01*
X87986100Y-99680500D02*
X62776800Y-99680500D01*
X62776800Y-99680500D02*
X59884700Y-102572600D01*
X76319000Y-134082900D02*
X76319000Y-101953700D01*
X76319000Y-101953700D02*
X75352700Y-100987400D01*
X75352700Y-100987400D02*
X63210100Y-100987400D01*
X63210100Y-100987400D02*
X61500600Y-102696900D01*
X76319000Y-135470000D02*
X76319000Y-134082900D01*
X58234000Y-120297200D02*
X57458100Y-119521300D01*
X58234000Y-135470000D02*
X58234000Y-120297200D01*
X64474800Y-160112000D02*
X64474800Y-133339500D01*
X64474800Y-133339500D02*
X68523900Y-129290400D01*
X68523900Y-129290400D02*
X68656500Y-129290400D01*
X91037100Y-111703000D02*
X92656500Y-110083600D01*
X94549000Y-110083600D02*
X94646600Y-110181200D01*
X92656500Y-110083600D02*
X94549000Y-110083600D01*
X70941200Y-126720300D02*
X70941200Y-128528700D01*
X70941200Y-128528700D02*
X69129300Y-130340600D01*
X69129300Y-130340600D02*
X68664100Y-130340600D01*
X68664100Y-130340600D02*
X66246200Y-132758500D01*
X66246200Y-132758500D02*
X66246200Y-144182900D01*
X94429000Y-147036900D02*
X95858900Y-145607000D01*
X95858900Y-145607000D02*
X95858900Y-138982600D01*
X95858900Y-138982600D02*
X95415200Y-138538900D01*
X95415200Y-138538900D02*
X88945200Y-138538900D01*
X88945200Y-138538900D02*
X84045300Y-133639000D01*
X84045300Y-133639000D02*
X84045300Y-117050800D01*
X84045300Y-117050800D02*
X91704600Y-109391500D01*
X94429000Y-148424000D02*
X94429000Y-147036900D01*
X76395000Y-148399000D02*
X76395000Y-147011900D01*
X85110100Y-102119300D02*
X84162900Y-102119300D01*
X84162900Y-102119300D02*
X77732400Y-108549800D01*
X77732400Y-108549800D02*
X77732400Y-145674500D01*
X77732400Y-145674500D02*
X76395000Y-147011900D01*
X68677400Y-126566400D02*
X63061900Y-132181900D01*
X63061900Y-132181900D02*
X63061900Y-146164800D01*
X74982500Y-129374300D02*
X74982500Y-102066900D01*
X71855900Y-132500900D02*
X74982500Y-129374300D01*
X71855900Y-221717300D02*
X71855900Y-132500900D01*
X69965200Y-223608000D02*
X71855900Y-221717300D01*
X69181000Y-223608000D02*
X69965200Y-223608000D01*
X54246000Y-222195900D02*
X57916700Y-218525200D01*
X57916700Y-218525200D02*
X57916700Y-196365600D01*
X57916700Y-196365600D02*
X67021600Y-187260700D01*
X67021600Y-187260700D02*
X67021600Y-146097400D01*
X67021600Y-146097400D02*
X67299700Y-145819300D01*
X67299700Y-145819300D02*
X67299700Y-143746800D01*
X67299700Y-143746800D02*
X67195400Y-143642500D01*
X67195400Y-143642500D02*
X67195400Y-133262200D01*
X67195400Y-133262200D02*
X68349200Y-132108400D01*
X54246000Y-223583000D02*
X54246000Y-222195900D01*
X81446500Y-111991100D02*
X81446500Y-107380500D01*
X80294700Y-113142900D02*
X81446500Y-111991100D01*
X80294700Y-154604500D02*
X80294700Y-113142900D01*
X85580200Y-159890000D02*
X80294700Y-154604500D01*
X85580200Y-208870700D02*
X85580200Y-159890000D01*
X84244000Y-210206900D02*
X85580200Y-208870700D01*
X84244000Y-211594000D02*
X84244000Y-210206900D01*
X69181000Y-210206900D02*
X67844800Y-208870700D01*
X67844800Y-208870700D02*
X67844800Y-146335100D01*
X67844800Y-146335100D02*
X68661500Y-145518400D01*
X68661500Y-145518400D02*
X68661500Y-144047800D01*
X68661500Y-144047800D02*
X68429200Y-143815500D01*
X68429200Y-143815500D02*
X68429200Y-143658800D01*
X68429200Y-143658800D02*
X67990900Y-143220500D01*
X67990900Y-143220500D02*
X67990900Y-133831200D01*
X67990900Y-133831200D02*
X68688600Y-133133500D01*
X68688600Y-133133500D02*
X68773800Y-133133500D01*
X68773800Y-133133500D02*
X69374300Y-132533000D01*
X69374300Y-132533000D02*
X69374300Y-132362500D01*
X69374300Y-132362500D02*
X72486300Y-129250500D01*
X72486300Y-129250500D02*
X72486300Y-106361700D01*
X72486300Y-106361700D02*
X73505900Y-105342100D01*
X69181000Y-211594000D02*
X69181000Y-210206900D01*
X55385000Y-211569000D02*
X54246000Y-211569000D01*
X70647500Y-109803200D02*
X60278750Y-120171950D01*
X60278750Y-120171950D02*
X60278750Y-137180850D01*
X56286400Y-203352400D02*
X56286400Y-210667600D01*
X60278750Y-137180850D02*
X59690000Y-137769600D01*
X59690000Y-137769600D02*
X57556400Y-137769600D01*
X56794400Y-194308500D02*
X52679600Y-198423300D01*
X54762400Y-201828400D02*
X56286400Y-203352400D01*
X57556400Y-137769600D02*
X56794400Y-138531600D01*
X56286400Y-210667600D02*
X55385000Y-211569000D01*
X52679600Y-198423300D02*
X52679600Y-200812400D01*
X56794400Y-138531600D02*
X56794400Y-194308500D01*
X52679600Y-200812400D02*
X53695600Y-201828400D01*
X53695600Y-201828400D02*
X54762400Y-201828400D01*
X79517800Y-155838600D02*
X79517800Y-111439800D01*
X84193000Y-160513800D02*
X79517800Y-155838600D01*
X84193000Y-199580000D02*
X84193000Y-160513800D01*
X69232000Y-198217900D02*
X68755800Y-197741700D01*
X68755800Y-197741700D02*
X68755800Y-146484900D01*
X68755800Y-146484900D02*
X69411600Y-145829100D01*
X69411600Y-145829100D02*
X69411600Y-143580400D01*
X69411600Y-143580400D02*
X68755800Y-142924600D01*
X68755800Y-142924600D02*
X68755800Y-134212300D01*
X68755800Y-134212300D02*
X73537400Y-129430700D01*
X73537400Y-129430700D02*
X73537400Y-107938700D01*
X69232000Y-199605000D02*
X69232000Y-198217900D01*
X61885300Y-120784100D02*
X71225200Y-111444200D01*
X61885300Y-190979700D02*
X61885300Y-120784100D01*
X54272000Y-198593000D02*
X61885300Y-190979700D01*
X54272000Y-199605000D02*
X54272000Y-198593000D01*
X143917900Y-126688800D02*
X143917900Y-161855800D01*
X143917900Y-161855800D02*
X145305000Y-163242900D01*
X145305000Y-164630000D02*
X145305000Y-163242900D01*
X110244700Y-111277300D02*
X110244700Y-118843700D01*
X128778000Y-151355800D02*
X128906900Y-151226900D01*
X128778000Y-153831800D02*
X128778000Y-151355800D01*
X130345000Y-155398800D02*
X128778000Y-153831800D01*
X130345000Y-164604000D02*
X130345000Y-155398800D01*
X107114800Y-105536600D02*
X122137500Y-120559300D01*
X122137500Y-120559300D02*
X122137500Y-131732300D01*
X122137500Y-131732300D02*
X115257000Y-138612800D01*
X115257000Y-138612800D02*
X115257000Y-163216900D01*
X115257000Y-164604000D02*
X115257000Y-163216900D01*
X111846100Y-111735500D02*
X116593800Y-116483200D01*
X116593800Y-116483200D02*
X116593900Y-116483200D01*
X116593900Y-116483200D02*
X116593900Y-128761700D01*
X100246000Y-165742800D02*
X100246000Y-164579000D01*
X99720400Y-166268400D02*
X100246000Y-165742800D01*
X96875600Y-166268400D02*
X99720400Y-166268400D01*
X95858800Y-147366600D02*
X95858800Y-165251600D01*
X95858800Y-165251600D02*
X96875600Y-166268400D01*
X98219300Y-135663900D02*
X101752400Y-132130800D01*
X98219300Y-145006100D02*
X98219300Y-135663900D01*
X98219300Y-145006100D02*
X95858800Y-147366600D01*
X106768900Y-132130800D02*
X106844200Y-132206100D01*
X101752400Y-132130800D02*
X106768900Y-132130800D01*
X100596100Y-109079200D02*
X100596100Y-108538900D01*
X100596100Y-108538900D02*
X98114700Y-106057500D01*
X98114700Y-106057500D02*
X91339800Y-106057500D01*
X91339800Y-106057500D02*
X81795000Y-115602300D01*
X81795000Y-115602300D02*
X81795000Y-152475600D01*
X81795000Y-152475600D02*
X87114800Y-157795400D01*
X87114800Y-157795400D02*
X87114800Y-231262100D01*
X87114800Y-231262100D02*
X84218000Y-234158900D01*
X84218000Y-235546000D02*
X84218000Y-234158900D01*
X69192000Y-234212900D02*
X75296800Y-228108100D01*
X75296800Y-228108100D02*
X75296800Y-196240200D01*
X75296800Y-196240200D02*
X78482600Y-193054400D01*
X78482600Y-193054400D02*
X78482600Y-108894500D01*
X78482600Y-108894500D02*
X83828800Y-103548300D01*
X83828800Y-103548300D02*
X85976400Y-103548300D01*
X85976400Y-103548300D02*
X90703700Y-98821000D01*
X90703700Y-98821000D02*
X102022100Y-98821000D01*
X69192000Y-235600000D02*
X69192000Y-234212900D01*
X132886200Y-123364100D02*
X133277400Y-123755300D01*
X133277400Y-123755300D02*
X133277400Y-220798100D01*
X133277400Y-220798100D02*
X132992000Y-221083500D01*
X104182700Y-99846100D02*
X104374800Y-99654000D01*
X96432900Y-99846100D02*
X104182700Y-99846100D01*
X81044900Y-115234100D02*
X96432900Y-99846100D01*
X81044900Y-153587300D02*
X81044900Y-115234100D01*
X86364700Y-158907100D02*
X81044900Y-153587300D01*
X86364700Y-220100200D02*
X86364700Y-158907100D01*
X84218000Y-222246900D02*
X86364700Y-220100200D01*
X84218000Y-223634000D02*
X84218000Y-222246900D01*
X104028500Y-120190400D02*
X104028500Y-102296200D01*
X115308000Y-191207900D02*
X118932900Y-187583000D01*
X118932900Y-187583000D02*
X118932900Y-138142500D01*
X115308000Y-192595000D02*
X115308000Y-191207900D01*
X91420000Y-107082600D02*
X92992300Y-107082600D01*
X82545100Y-115957500D02*
X91420000Y-107082600D01*
X82545100Y-151789600D02*
X82545100Y-115957500D01*
X89725500Y-158970000D02*
X82545100Y-151789600D01*
X89725500Y-183349900D02*
X89725500Y-158970000D01*
X93283850Y-186908250D02*
X89725500Y-183349900D01*
X100195000Y-191207900D02*
X95895350Y-186908250D01*
X95895350Y-186908250D02*
X93283850Y-186908250D01*
X100195000Y-192595000D02*
X100195000Y-191207900D01*
X148437800Y-145973300D02*
X149816200Y-147351700D01*
X149816200Y-147351700D02*
X149816200Y-155173900D01*
X149816200Y-155173900D02*
X148755600Y-156234500D01*
X148755600Y-156234500D02*
X148755600Y-175441800D01*
X148755600Y-175441800D02*
X148493800Y-175703600D01*
X145280000Y-177212900D02*
X140678400Y-172611300D01*
X140678400Y-172611300D02*
X140678400Y-142548800D01*
X145280000Y-178600000D02*
X145280000Y-177212900D01*
X130345000Y-177212900D02*
X128957900Y-175825800D01*
X128957900Y-175825800D02*
X128957900Y-156028800D01*
X130345000Y-178600000D02*
X130345000Y-177212900D01*
X115308000Y-177237900D02*
X116644200Y-175901700D01*
X116644200Y-175901700D02*
X116644200Y-138981300D01*
X102319100Y-106866600D02*
X102319100Y-120564400D01*
X115308000Y-178625000D02*
X115308000Y-177237900D01*
X95707200Y-173939200D02*
X98653600Y-173939200D01*
X100169000Y-175454600D02*
X100169000Y-178625000D01*
X98653600Y-173939200D02*
X100169000Y-175454600D01*
X91305000Y-169537000D02*
X95707200Y-173939200D01*
X91305000Y-159139000D02*
X91305000Y-169537000D01*
X83295200Y-151129200D02*
X91305000Y-159139000D01*
X91392100Y-108197500D02*
X83295200Y-116294400D01*
X83295200Y-116294400D02*
X83295200Y-151129200D01*
X96826800Y-108197500D02*
X91392100Y-108197500D01*
X97815900Y-107208400D02*
X96826800Y-108197500D01*
X152112500Y-158392300D02*
X152112500Y-124816000D01*
X151951600Y-158553200D02*
X152112500Y-158392300D01*
X152112500Y-124816000D02*
X150998200Y-123701700D01*
X151951600Y-199449600D02*
X151951600Y-158553200D01*
X150998200Y-123701700D02*
X150998200Y-120686700D01*
X153720800Y-201218800D02*
X151951600Y-199449600D01*
X157632400Y-201218800D02*
X153720800Y-201218800D01*
X160367000Y-203953400D02*
X157632400Y-201218800D01*
X160367000Y-206616000D02*
X160367000Y-203953400D01*
X149522200Y-200833700D02*
X145153000Y-205202900D01*
X149522200Y-156905500D02*
X149522200Y-200833700D01*
X150581500Y-155846200D02*
X149522200Y-156905500D01*
X150581500Y-131379500D02*
X150581500Y-155846200D01*
X145153000Y-205202900D02*
X145153000Y-206590000D01*
X148686254Y-121577154D02*
X148686254Y-129484254D01*
X148686254Y-129484254D02*
X150581500Y-131379500D01*
X144706800Y-117597700D02*
X148686254Y-121577154D01*
X128982800Y-113838700D02*
X129854500Y-112967000D01*
X127304800Y-144627600D02*
X128982800Y-142949600D01*
X122780800Y-146611600D02*
X124764800Y-144627600D01*
X128982800Y-142949600D02*
X128982800Y-113838700D01*
X122780800Y-199515200D02*
X122780800Y-146611600D01*
X124764800Y-144627600D02*
X127304800Y-144627600D01*
X123273700Y-200008100D02*
X122780800Y-199515200D01*
X124106100Y-131907900D02*
X124106100Y-111796100D01*
X120007800Y-136006200D02*
X124106100Y-131907900D01*
X115206000Y-206565000D02*
X115206000Y-201074800D01*
X115206000Y-201074800D02*
X118668800Y-197612000D01*
X118668800Y-189179200D02*
X120007800Y-187840200D01*
X118668800Y-197612000D02*
X118668800Y-189179200D01*
X120007800Y-187840200D02*
X120007800Y-136006200D01*
X134777600Y-104707900D02*
X134777600Y-111084200D01*
X134777600Y-111084200D02*
X135527700Y-111834300D01*
X135527700Y-111834300D02*
X135527700Y-199236000D01*
X135527700Y-199236000D02*
X135802800Y-199511100D01*
X129969200Y-100571100D02*
X134593500Y-100571100D01*
X134593500Y-100571100D02*
X137792800Y-103770400D01*
X137792800Y-103770400D02*
X137792800Y-172347200D01*
X137792800Y-172347200D02*
X140567200Y-175121600D01*
X140567200Y-175121600D02*
X140567200Y-184901900D01*
X140567200Y-184901900D02*
X141860800Y-186195500D01*
X137027900Y-184830700D02*
X137027900Y-104504800D01*
X140208000Y-188010800D02*
X137027900Y-184830700D01*
X142494000Y-188010800D02*
X140208000Y-188010800D01*
X145204000Y-190720800D02*
X142494000Y-188010800D01*
X137027900Y-104504800D02*
X135874200Y-103351100D01*
X145204000Y-192620000D02*
X145204000Y-190720800D01*
X135989500Y-109162900D02*
X136277800Y-109451200D01*
X136277800Y-109451200D02*
X136277800Y-188145000D01*
X136277800Y-188145000D02*
X136552900Y-188420100D01*
X127782200Y-100037400D02*
X127782200Y-105149600D01*
X127782200Y-105149600D02*
X134777600Y-112145000D01*
X134777600Y-112145000D02*
X134777600Y-228761300D01*
X134777600Y-228761300D02*
X130294000Y-233244900D01*
X130294000Y-234632000D02*
X130294000Y-233244900D01*
X125978600Y-105011400D02*
X125978600Y-100628100D01*
X134027500Y-113060300D02*
X125978600Y-105011400D01*
X134027500Y-224504900D02*
X134027500Y-113060300D01*
X128681200Y-229851200D02*
X134027500Y-224504900D01*
X128681200Y-235808800D02*
X128681200Y-229851200D01*
X117602000Y-236931200D02*
X127558800Y-236931200D01*
X115333000Y-234662200D02*
X117602000Y-236931200D01*
X127558800Y-236931200D02*
X128681200Y-235808800D01*
X115333000Y-234632000D02*
X115333000Y-234662200D01*
X119420200Y-101866000D02*
X119420200Y-116294100D01*
X119420200Y-116294100D02*
X122887600Y-119761500D01*
X122887600Y-119761500D02*
X122887600Y-132065500D01*
X122887600Y-132065500D02*
X117757600Y-137195500D01*
X117757600Y-137195500D02*
X117757600Y-187322100D01*
X117757600Y-187322100D02*
X113695200Y-191384500D01*
X113695200Y-191384500D02*
X113695200Y-193949700D01*
X113695200Y-193949700D02*
X110818800Y-196826100D01*
X110818800Y-196826100D02*
X110818800Y-198730000D01*
X110818800Y-198730000D02*
X102489800Y-207059000D01*
X102489800Y-207059000D02*
X102489800Y-212079900D01*
X102489800Y-212079900D02*
X98781800Y-215787900D01*
X98781800Y-215787900D02*
X98781800Y-231755700D01*
X98781800Y-231755700D02*
X100271000Y-233244900D01*
X100271000Y-234632000D02*
X100271000Y-233244900D01*
X152701800Y-160356600D02*
X152862600Y-160195800D01*
X152701800Y-184082100D02*
X152701800Y-160356600D01*
X152862600Y-160195800D02*
X152862600Y-124004700D01*
X159301750Y-188359350D02*
X156979050Y-188359350D01*
X156979050Y-188359350D02*
X152701800Y-184082100D01*
X162508300Y-191565900D02*
X159301750Y-188359350D01*
X162508300Y-219050500D02*
X162508300Y-191565900D01*
X160921800Y-220637000D02*
X162508300Y-219050500D01*
X152862600Y-124004700D02*
X152587400Y-123729500D01*
X160266000Y-220637000D02*
X160921800Y-220637000D01*
X149870800Y-124572400D02*
X149870800Y-121009000D01*
X149870800Y-121009000D02*
X149683200Y-120821400D01*
X151331600Y-126033200D02*
X149870800Y-124572400D01*
X151331600Y-156156900D02*
X151331600Y-126033200D01*
X150272300Y-157216200D02*
X151331600Y-156156900D01*
X150272300Y-216808500D02*
X150272300Y-157216200D01*
X146469800Y-220611000D02*
X150272300Y-216808500D01*
X145178000Y-220611000D02*
X146469800Y-220611000D01*
X131650700Y-117583500D02*
X131650700Y-128771900D01*
X131650700Y-128771900D02*
X132527200Y-129648400D01*
X132527200Y-129648400D02*
X132527200Y-217016700D01*
X132527200Y-217016700D02*
X130294000Y-219249900D01*
X130294000Y-220637000D02*
X130294000Y-219249900D01*
X125982800Y-141155000D02*
X125982800Y-108973500D01*
X125982800Y-108973500D02*
X126198000Y-108758300D01*
X121733200Y-145404600D02*
X125982800Y-141155000D01*
X120599200Y-189331600D02*
X121733200Y-188197600D01*
X120599200Y-198069200D02*
X120599200Y-189331600D01*
X119278400Y-199390000D02*
X120599200Y-198069200D01*
X119278400Y-211124800D02*
X119278400Y-199390000D01*
X115206000Y-215197200D02*
X119278400Y-211124800D01*
X121733200Y-188197600D02*
X121733200Y-145404600D01*
X115206000Y-220637000D02*
X115206000Y-215197200D01*
X120758000Y-188372800D02*
X120758000Y-136316900D01*
X119684800Y-189446000D02*
X120758000Y-188372800D01*
X125163400Y-108396400D02*
X124928400Y-108161400D01*
X120758000Y-136316900D02*
X125163400Y-131911500D01*
X119684800Y-197764400D02*
X119684800Y-189446000D01*
X125163400Y-131911500D02*
X125163400Y-108396400D01*
X118067800Y-199381400D02*
X119684800Y-197764400D01*
X118067800Y-210676200D02*
X118067800Y-199381400D01*
X112251200Y-216492800D02*
X118067800Y-210676200D01*
X102988400Y-216492800D02*
X112251200Y-216492800D01*
X100169000Y-219312200D02*
X102988400Y-216492800D01*
X100169000Y-220611000D02*
X100169000Y-219312200D01*
X151562500Y-107481700D02*
X151562500Y-44550700D01*
X151562500Y-44550700D02*
X136615500Y-29603700D01*
X114352700Y-67412400D02*
X76480500Y-29540200D01*
X129160000Y-67412400D02*
X114352700Y-67412400D01*
X131763000Y-70015400D02*
X129160000Y-67412400D01*
X131763000Y-90411800D02*
X131763000Y-70015400D01*
X144443200Y-103092000D02*
X131763000Y-90411800D01*
X144443200Y-106971100D02*
X144443200Y-103092000D01*
X146104100Y-108632000D02*
X144443200Y-106971100D01*
X149070800Y-104196100D02*
X148613900Y-104653000D01*
X148613900Y-104653000D02*
X148613900Y-108015100D01*
X148613900Y-108015100D02*
X153612700Y-113013900D01*
X153612700Y-113013900D02*
X153612700Y-159946600D01*
X153612700Y-159946600D02*
X154146900Y-160480800D01*
X148398000Y-109369500D02*
X143660600Y-114106900D01*
X143660600Y-114106900D02*
X143660600Y-123241100D01*
X143660600Y-123241100D02*
X146816100Y-126396600D01*
X146816100Y-126396600D02*
X146816100Y-160466900D01*
X107500800Y-170604800D02*
X112599600Y-175703600D01*
X112599600Y-175703600D02*
X112897700Y-175703600D01*
X160342000Y-234607000D02*
X160342000Y-233104000D01*
X164976000Y-228470000D02*
X164976000Y-212474000D01*
X160342000Y-233104000D02*
X164976000Y-228470000D01*
X172392800Y-205057200D02*
X172392800Y-205051200D01*
X172392800Y-205057200D02*
X164976000Y-212474000D01*
X172392800Y-205051200D02*
X173786800Y-203657200D01*
X173786800Y-188874400D02*
X163205500Y-178293100D01*
X173786800Y-203657200D02*
X173786800Y-188874400D01*
X163205500Y-104327500D02*
X163205500Y-178293100D01*
X146692100Y-234607000D02*
X148079200Y-235994100D01*
X148079200Y-235994100D02*
X161432700Y-235994100D01*
X161432700Y-235994100D02*
X168528100Y-228898700D01*
X168528100Y-228898700D02*
X168528100Y-210655800D01*
X168528100Y-210655800D02*
X176889200Y-202294700D01*
X176889200Y-202294700D02*
X176889200Y-118569800D01*
X176889200Y-118569800D02*
X172648200Y-114328800D01*
X172648200Y-114328800D02*
X172648200Y-112183100D01*
X172648200Y-112183100D02*
X169548200Y-109083100D01*
X169548200Y-109083100D02*
X169548200Y-107524500D01*
X145305000Y-234607000D02*
X146692100Y-234607000D01*
X139622500Y-157031400D02*
X139895600Y-156758300D01*
X139895600Y-156758300D02*
X139895600Y-152783300D01*
X139895600Y-152783300D02*
X139653200Y-152540900D01*
X139653200Y-152540900D02*
X139653200Y-125830700D01*
X139653200Y-125830700D02*
X142598900Y-122885000D01*
X142598900Y-122885000D02*
X142598900Y-105177700D01*
X142598900Y-105177700D02*
X142017500Y-104596300D01*
X39179000Y-203757500D02*
X40782600Y-202153900D01*
X40782600Y-202153900D02*
X40782600Y-191216200D01*
X171145000Y-191852700D02*
X171145000Y-192873500D01*
X149639000Y-106227900D02*
X149639000Y-107233400D01*
X149639000Y-107233400D02*
X154062710Y-111657110D01*
X154062710Y-111657110D02*
X154062710Y-111695510D01*
X155852900Y-179919000D02*
X158852800Y-182918900D01*
X158852800Y-182918900D02*
X158852800Y-184180700D01*
X158852800Y-184180700D02*
X159434100Y-184762000D01*
X164054300Y-184762000D02*
X171145000Y-191852700D01*
X159434100Y-184762000D02*
X164054300Y-184762000D01*
X154228800Y-128831800D02*
X155852900Y-130455900D01*
X154228800Y-111861600D02*
X154228800Y-128831800D01*
X155852900Y-130455900D02*
X155852900Y-179919000D01*
X154062710Y-111695510D02*
X154228800Y-111861600D01*
X138870500Y-153207900D02*
X138870500Y-109214600D01*
X138870500Y-109214600D02*
X141558400Y-106526700D01*
X39116000Y-185913500D02*
X40146300Y-184883200D01*
X40146300Y-184883200D02*
X40146300Y-169915500D01*
X138382500Y-87252300D02*
X146218400Y-95088200D01*
X146218400Y-95088200D02*
X146218400Y-105186400D01*
X106580500Y-31847100D02*
X138382500Y-63649100D01*
X106580500Y-29603700D02*
X106580500Y-31847100D01*
X138382500Y-63649100D02*
X138382500Y-87252300D01*
X145193300Y-105610900D02*
X146126500Y-106544100D01*
X145193300Y-99828900D02*
X145193300Y-105610900D01*
X136194800Y-90830400D02*
X145193300Y-99828900D01*
X136194800Y-71424800D02*
X136194800Y-90830400D01*
X94386400Y-29616400D02*
X136194800Y-71424800D01*
X146126500Y-106544100D02*
X146126600Y-106544100D01*
X92445700Y-29616400D02*
X94386400Y-29616400D01*
X92433000Y-29603700D02*
X92445700Y-29616400D01*
X146126600Y-106544100D02*
X146126600Y-107163600D01*
X91720500Y-29603700D02*
X92433000Y-29603700D01*
X39130400Y-61626400D02*
X39130400Y-63013500D01*
X39130400Y-63013500D02*
X39232000Y-63115100D01*
X39232000Y-63115100D02*
X39232000Y-66342000D01*
X39232000Y-72142000D02*
X39232000Y-73529100D01*
X39232000Y-73529100D02*
X39145600Y-73615500D01*
X39145600Y-73615500D02*
X39145600Y-76857600D01*
X39120200Y-97888800D02*
X39120200Y-96501700D01*
X39181200Y-93173200D02*
X39181200Y-96440700D01*
X39181200Y-96440700D02*
X39120200Y-96501700D01*
X39120200Y-103688800D02*
X39120200Y-105075900D01*
X39120200Y-105075900D02*
X39130400Y-105086100D01*
X39130400Y-105086100D02*
X39130400Y-108354000D01*
X171312000Y-61677200D02*
X171312000Y-66342000D01*
X171312000Y-72142000D02*
X171312000Y-73529100D01*
X171312000Y-73529100D02*
X171276000Y-73565100D01*
X171276000Y-73565100D02*
X171276000Y-76857600D01*
X171261000Y-97735800D02*
X171414000Y-97888800D01*
X171261000Y-93173200D02*
X171261000Y-97735800D01*
X171261000Y-108354000D02*
X171261000Y-106966900D01*
X171414000Y-103688800D02*
X171414000Y-106813900D01*
X171414000Y-106813900D02*
X171261000Y-106966900D01*
X73505500Y-29540200D02*
X73464800Y-29580900D01*
X73464800Y-29580900D02*
X73464800Y-31912800D01*
X133640500Y-29603700D02*
X133640500Y-31588600D01*
X88745500Y-29603700D02*
X88795100Y-29653300D01*
X88795100Y-29653300D02*
X88795100Y-32041500D01*
X103605500Y-29603700D02*
X103239100Y-29970100D01*
X103239100Y-29970100D02*
X103239100Y-31912800D01*
X39116000Y-188888500D02*
X40854400Y-188888500D01*
X40854400Y-188888500D02*
X41141400Y-188601500D01*
X171145000Y-195848500D02*
X168797800Y-193501300D01*
X168797800Y-193501300D02*
X168797800Y-190986200D01*
X39179000Y-206732500D02*
X41227400Y-206732500D01*
X41227400Y-206732500D02*
X41361700Y-206598200D01*
X112308000Y-183775000D02*
X112308000Y-185104400D01*
X112308000Y-185104400D02*
X112979200Y-185775600D01*
X112979200Y-185775600D02*
X116179600Y-185775600D01*
X116732400Y-185222800D02*
X116732400Y-180135200D01*
X116179600Y-185775600D02*
X116732400Y-185222800D01*
X97271000Y-239782000D02*
X97271000Y-237856600D01*
X97271000Y-237856600D02*
X98298000Y-236829600D01*
X98298000Y-236829600D02*
X111709200Y-236829600D01*
X112333000Y-236205800D02*
X112333000Y-233982000D01*
X111709200Y-236829600D02*
X112333000Y-236205800D01*
X73319000Y-186763000D02*
X73319000Y-185375900D01*
X73243000Y-179508000D02*
X73243000Y-185299900D01*
X73243000Y-185299900D02*
X73319000Y-185375900D01*
X164812000Y-151740900D02*
X169914700Y-146638200D01*
X169914700Y-146638200D02*
X169914700Y-128395300D01*
X169914700Y-128395300D02*
X173469000Y-124841000D01*
X164812000Y-153128000D02*
X164812000Y-151740900D01*
X164812000Y-148628000D02*
X164812000Y-147240900D01*
X173469000Y-119761000D02*
X173469000Y-121886100D01*
X173469000Y-121886100D02*
X173336200Y-121886100D01*
X173336200Y-121886100D02*
X166199100Y-129023200D01*
X166199100Y-129023200D02*
X166199100Y-145853800D01*
X166199100Y-145853800D02*
X164812000Y-147240900D01*
X161812000Y-140570000D02*
X161812000Y-147978000D01*
X76268000Y-162715100D02*
X77655100Y-164102200D01*
X77655100Y-164102200D02*
X77655100Y-181777400D01*
X77655100Y-181777400D02*
X77438400Y-181994100D01*
X76268000Y-161328000D02*
X76268000Y-162715100D01*
M02*
