%FSLAX45Y45*%
G04 Gerber Fmt 4.5, Leading zero omitted, Abs format (unit mm)*
G04 Created by KiCad (PCBNEW (5.1.10)-1) date 2022-01-05 11:21:42*
%MOMM*%
%LPD*%
G01*
G04 APERTURE LIST*
%TA.AperFunction,Profile*%
%ADD10C,0.050000*%
%TD*%
%TA.AperFunction,Profile*%
%ADD11C,0.200000*%
%TD*%
%ADD12C,0.200000*%
%ADD13C,0.300000*%
G04 APERTURE END LIST*
D10*
X14833600Y-8409940D02*
G75*
G03*
X14833600Y-8409940I-152400J0D01*
G01*
X6634480Y-8409940D02*
G75*
G03*
X6634480Y-8409940I-152400J0D01*
G01*
X14833600Y-12308840D02*
G75*
G03*
X14833600Y-12308840I-152400J0D01*
G01*
X6634480Y-12308840D02*
G75*
G03*
X6634480Y-12308840I-152400J0D01*
G01*
D11*
X3821610Y-3586296D02*
G75*
G03*
X3821610Y-3586296I-200000J0D01*
G01*
X3218905Y-24804294D02*
X17818905Y-24804294D01*
X17621837Y-14372598D02*
G75*
G03*
X17621837Y-14372598I-200000J0D01*
G01*
X17621846Y-3585449D02*
G75*
G03*
X17621846Y-3585449I-200000J0D01*
G01*
X3118905Y-2404294D02*
G75*
G02*
X3218905Y-2304294I100000J0D01*
G01*
X3821846Y-23494548D02*
G75*
G03*
X3821846Y-23494548I-200000J0D01*
G01*
X17918905Y-24704294D02*
X17918905Y-2404294D01*
X3118905Y-2404294D02*
X3118905Y-24704294D01*
X3218905Y-24804294D02*
G75*
G02*
X3118905Y-24704294I0J100000D01*
G01*
X17818905Y-2304294D02*
G75*
G02*
X17918905Y-2404294I0J-100000D01*
G01*
X17818905Y-2304294D02*
X3218905Y-2304294D01*
X3821839Y-14372603D02*
G75*
G03*
X3821839Y-14372603I-200000J0D01*
G01*
X17918905Y-24704294D02*
G75*
G02*
X17818905Y-24804294I-100000J0D01*
G01*
X17621847Y-23490032D02*
G75*
G03*
X17621847Y-23490032I-200000J0D01*
G01*
D10*
X15880166Y-12306300D02*
G75*
G03*
X15880166Y-12306300I-149946J0D01*
G01*
X5483860Y-12306300D02*
G75*
G03*
X5483860Y-12306300I-152400J0D01*
G01*
X15882641Y-4605020D02*
G75*
G03*
X15882641Y-4605020I-152421J0D01*
G01*
X5483881Y-4605020D02*
G75*
G03*
X5483881Y-4605020I-152421J0D01*
G01*
X8468360Y-13022580D02*
X10279380Y-13022580D01*
X8468360Y-13152120D02*
X8468360Y-13022580D01*
X12146280Y-13152120D02*
X8468360Y-13152120D01*
X12146280Y-13022580D02*
X12146280Y-13152120D01*
X10279380Y-13022580D02*
X12146280Y-13022580D01*
D12*
D13*
X3395334Y-25280008D02*
X3395334Y-24980008D01*
X3466762Y-24980008D01*
X3509619Y-24994294D01*
X3538191Y-25022865D01*
X3552477Y-25051437D01*
X3566762Y-25108580D01*
X3566762Y-25151437D01*
X3552477Y-25208580D01*
X3538191Y-25237151D01*
X3509619Y-25265722D01*
X3466762Y-25280008D01*
X3395334Y-25280008D01*
X3695334Y-25280008D02*
X3695334Y-25080008D01*
X3695334Y-25137151D02*
X3709619Y-25108580D01*
X3723905Y-25094294D01*
X3752477Y-25080008D01*
X3781048Y-25080008D01*
X3881048Y-25280008D02*
X3881048Y-25080008D01*
X3881048Y-24980008D02*
X3866762Y-24994294D01*
X3881048Y-25008580D01*
X3895334Y-24994294D01*
X3881048Y-24980008D01*
X3881048Y-25008580D01*
X4066762Y-25280008D02*
X4038191Y-25265722D01*
X4023905Y-25237151D01*
X4023905Y-24980008D01*
X4223905Y-25280008D02*
X4195334Y-25265722D01*
X4181048Y-25237151D01*
X4181048Y-24980008D01*
X4566762Y-25280008D02*
X4566762Y-24980008D01*
X4666762Y-25194294D01*
X4766762Y-24980008D01*
X4766762Y-25280008D01*
X5038191Y-25280008D02*
X5038191Y-25122865D01*
X5023905Y-25094294D01*
X4995334Y-25080008D01*
X4938191Y-25080008D01*
X4909620Y-25094294D01*
X5038191Y-25265722D02*
X5009620Y-25280008D01*
X4938191Y-25280008D01*
X4909620Y-25265722D01*
X4895334Y-25237151D01*
X4895334Y-25208580D01*
X4909620Y-25180008D01*
X4938191Y-25165722D01*
X5009620Y-25165722D01*
X5038191Y-25151437D01*
X5181048Y-25080008D02*
X5181048Y-25380008D01*
X5181048Y-25094294D02*
X5209620Y-25080008D01*
X5266762Y-25080008D01*
X5295334Y-25094294D01*
X5309620Y-25108580D01*
X5323905Y-25137151D01*
X5323905Y-25222865D01*
X5309620Y-25251437D01*
X5295334Y-25265722D01*
X5266762Y-25280008D01*
X5209620Y-25280008D01*
X5181048Y-25265722D01*
X5452477Y-25251437D02*
X5466762Y-25265722D01*
X5452477Y-25280008D01*
X5438191Y-25265722D01*
X5452477Y-25251437D01*
X5452477Y-25280008D01*
X5452477Y-25094294D02*
X5466762Y-25108580D01*
X5452477Y-25122865D01*
X5438191Y-25108580D01*
X5452477Y-25094294D01*
X5452477Y-25122865D01*
M02*
