%TF.GenerationSoftware,KiCad,Pcbnew,(5.1.9)-1*%
%TF.CreationDate,2021-06-21T17:11:14+02:00*%
%TF.ProjectId,opena3xx-mcdu,6f70656e-6133-4787-982d-6d6364752e6b,0.1*%
%TF.SameCoordinates,Original*%
%TF.FileFunction,Legend,Bot*%
%TF.FilePolarity,Positive*%
%FSLAX46Y46*%
G04 Gerber Fmt 4.6, Leading zero omitted, Abs format (unit mm)*
G04 Created by KiCad (PCBNEW (5.1.9)-1) date 2021-06-21 17:11:14*
%MOMM*%
%LPD*%
G01*
G04 APERTURE LIST*
%ADD10C,0.300000*%
%ADD11C,0.200000*%
%ADD12C,0.120000*%
%ADD13C,0.010000*%
%ADD14C,0.150000*%
%ADD15C,0.140000*%
G04 APERTURE END LIST*
D10*
X166504228Y-170080285D02*
X166504228Y-170794571D01*
X168004228Y-170794571D01*
X166647085Y-168723142D02*
X166575657Y-168794571D01*
X166504228Y-169008857D01*
X166504228Y-169151714D01*
X166575657Y-169366000D01*
X166718514Y-169508857D01*
X166861371Y-169580285D01*
X167147085Y-169651714D01*
X167361371Y-169651714D01*
X167647085Y-169580285D01*
X167789942Y-169508857D01*
X167932800Y-169366000D01*
X168004228Y-169151714D01*
X168004228Y-169008857D01*
X167932800Y-168794571D01*
X167861371Y-168723142D01*
X166504228Y-168080285D02*
X168004228Y-168080285D01*
X168004228Y-167723142D01*
X167932800Y-167508857D01*
X167789942Y-167366000D01*
X167647085Y-167294571D01*
X167361371Y-167223142D01*
X167147085Y-167223142D01*
X166861371Y-167294571D01*
X166718514Y-167366000D01*
X166575657Y-167508857D01*
X166504228Y-167723142D01*
X166504228Y-168080285D01*
X166504228Y-165437428D02*
X168004228Y-165437428D01*
X168004228Y-164866000D01*
X167932800Y-164723142D01*
X167861371Y-164651714D01*
X167718514Y-164580285D01*
X167504228Y-164580285D01*
X167361371Y-164651714D01*
X167289942Y-164723142D01*
X167218514Y-164866000D01*
X167218514Y-165437428D01*
X168004228Y-164080285D02*
X166504228Y-163723142D01*
X167575657Y-163437428D01*
X166504228Y-163151714D01*
X168004228Y-162794571D01*
X166504228Y-161366000D02*
X167218514Y-161866000D01*
X166504228Y-162223142D02*
X168004228Y-162223142D01*
X168004228Y-161651714D01*
X167932800Y-161508857D01*
X167861371Y-161437428D01*
X167718514Y-161366000D01*
X167504228Y-161366000D01*
X167361371Y-161437428D01*
X167289942Y-161508857D01*
X167218514Y-161651714D01*
X167218514Y-162223142D01*
D11*
X48304971Y-39845371D02*
X48804971Y-39131085D01*
X49162114Y-39845371D02*
X49162114Y-38345371D01*
X48590685Y-38345371D01*
X48447828Y-38416800D01*
X48376400Y-38488228D01*
X48304971Y-38631085D01*
X48304971Y-38845371D01*
X48376400Y-38988228D01*
X48447828Y-39059657D01*
X48590685Y-39131085D01*
X49162114Y-39131085D01*
X47662114Y-39059657D02*
X47162114Y-39059657D01*
X46947828Y-39845371D02*
X47662114Y-39845371D01*
X47662114Y-38345371D01*
X46947828Y-38345371D01*
X46376400Y-39773942D02*
X46162114Y-39845371D01*
X45804971Y-39845371D01*
X45662114Y-39773942D01*
X45590685Y-39702514D01*
X45519257Y-39559657D01*
X45519257Y-39416800D01*
X45590685Y-39273942D01*
X45662114Y-39202514D01*
X45804971Y-39131085D01*
X46090685Y-39059657D01*
X46233542Y-38988228D01*
X46304971Y-38916800D01*
X46376400Y-38773942D01*
X46376400Y-38631085D01*
X46304971Y-38488228D01*
X46233542Y-38416800D01*
X46090685Y-38345371D01*
X45733542Y-38345371D01*
X45519257Y-38416800D01*
X44876400Y-39059657D02*
X44376400Y-39059657D01*
X44162114Y-39845371D02*
X44876400Y-39845371D01*
X44876400Y-38345371D01*
X44162114Y-38345371D01*
X43733542Y-38345371D02*
X42876400Y-38345371D01*
X43304971Y-39845371D02*
X43304971Y-38345371D01*
D10*
X46146257Y-226381342D02*
X46146257Y-225238485D01*
X45574828Y-225809914D02*
X46717685Y-225809914D01*
X46146257Y-224524200D02*
X46146257Y-223381342D01*
X46146257Y-214667057D02*
X46146257Y-213524200D01*
X45574828Y-214095628D02*
X46717685Y-214095628D01*
X46146257Y-212809914D02*
X46146257Y-211667057D01*
X44571457Y-226324228D02*
X44571457Y-225181371D01*
X44000028Y-225752800D02*
X45142885Y-225752800D01*
X45500028Y-223752800D02*
X45500028Y-224467085D01*
X44785742Y-224538514D01*
X44857171Y-224467085D01*
X44928600Y-224324228D01*
X44928600Y-223967085D01*
X44857171Y-223824228D01*
X44785742Y-223752800D01*
X44642885Y-223681371D01*
X44285742Y-223681371D01*
X44142885Y-223752800D01*
X44071457Y-223824228D01*
X44000028Y-223967085D01*
X44000028Y-224324228D01*
X44071457Y-224467085D01*
X44142885Y-224538514D01*
X45500028Y-223252800D02*
X44000028Y-222752800D01*
X45500028Y-222252800D01*
X44785742Y-220609942D02*
X44785742Y-220109942D01*
X44000028Y-219895657D02*
X44000028Y-220609942D01*
X45500028Y-220609942D01*
X45500028Y-219895657D01*
X44000028Y-219395657D02*
X45000028Y-218609942D01*
X45000028Y-219395657D02*
X44000028Y-218609942D01*
X45000028Y-218252800D02*
X45000028Y-217681371D01*
X45500028Y-218038514D02*
X44214314Y-218038514D01*
X44071457Y-217967085D01*
X44000028Y-217824228D01*
X44000028Y-217681371D01*
X44071457Y-216609942D02*
X44000028Y-216752800D01*
X44000028Y-217038514D01*
X44071457Y-217181371D01*
X44214314Y-217252800D01*
X44785742Y-217252800D01*
X44928600Y-217181371D01*
X45000028Y-217038514D01*
X45000028Y-216752800D01*
X44928600Y-216609942D01*
X44785742Y-216538514D01*
X44642885Y-216538514D01*
X44500028Y-217252800D01*
X44000028Y-215895657D02*
X45000028Y-215895657D01*
X44714314Y-215895657D02*
X44857171Y-215824228D01*
X44928600Y-215752800D01*
X45000028Y-215609942D01*
X45000028Y-215467085D01*
X45000028Y-214967085D02*
X44000028Y-214967085D01*
X44857171Y-214967085D02*
X44928600Y-214895657D01*
X45000028Y-214752800D01*
X45000028Y-214538514D01*
X44928600Y-214395657D01*
X44785742Y-214324228D01*
X44000028Y-214324228D01*
X44000028Y-212967085D02*
X44785742Y-212967085D01*
X44928600Y-213038514D01*
X45000028Y-213181371D01*
X45000028Y-213467085D01*
X44928600Y-213609942D01*
X44071457Y-212967085D02*
X44000028Y-213109942D01*
X44000028Y-213467085D01*
X44071457Y-213609942D01*
X44214314Y-213681371D01*
X44357171Y-213681371D01*
X44500028Y-213609942D01*
X44571457Y-213467085D01*
X44571457Y-213109942D01*
X44642885Y-212967085D01*
X44000028Y-212038514D02*
X44071457Y-212181371D01*
X44214314Y-212252800D01*
X45500028Y-212252800D01*
X165257942Y-213521257D02*
X165257942Y-214664114D01*
X165829371Y-214092685D02*
X164686514Y-214092685D01*
X165257942Y-215378400D02*
X165257942Y-216521257D01*
X165257942Y-225235542D02*
X165257942Y-226378400D01*
X165829371Y-225806971D02*
X164686514Y-225806971D01*
X165257942Y-227092685D02*
X165257942Y-228235542D01*
X167126457Y-228968914D02*
X167126457Y-227826057D01*
X166555028Y-228397485D02*
X167697885Y-228397485D01*
X166555028Y-226326057D02*
X166555028Y-227183200D01*
X166555028Y-226754628D02*
X168055028Y-226754628D01*
X167840742Y-226897485D01*
X167697885Y-227040342D01*
X167626457Y-227183200D01*
X167912171Y-225754628D02*
X167983600Y-225683200D01*
X168055028Y-225540342D01*
X168055028Y-225183200D01*
X167983600Y-225040342D01*
X167912171Y-224968914D01*
X167769314Y-224897485D01*
X167626457Y-224897485D01*
X167412171Y-224968914D01*
X166555028Y-225826057D01*
X166555028Y-224897485D01*
X168055028Y-224468914D02*
X166555028Y-223968914D01*
X168055028Y-223468914D01*
X167340742Y-221826057D02*
X167340742Y-221326057D01*
X166555028Y-221111771D02*
X166555028Y-221826057D01*
X168055028Y-221826057D01*
X168055028Y-221111771D01*
X166555028Y-220611771D02*
X167555028Y-219826057D01*
X167555028Y-220611771D02*
X166555028Y-219826057D01*
X167555028Y-219468914D02*
X167555028Y-218897485D01*
X168055028Y-219254628D02*
X166769314Y-219254628D01*
X166626457Y-219183200D01*
X166555028Y-219040342D01*
X166555028Y-218897485D01*
X166626457Y-217826057D02*
X166555028Y-217968914D01*
X166555028Y-218254628D01*
X166626457Y-218397485D01*
X166769314Y-218468914D01*
X167340742Y-218468914D01*
X167483600Y-218397485D01*
X167555028Y-218254628D01*
X167555028Y-217968914D01*
X167483600Y-217826057D01*
X167340742Y-217754628D01*
X167197885Y-217754628D01*
X167055028Y-218468914D01*
X166555028Y-217111771D02*
X167555028Y-217111771D01*
X167269314Y-217111771D02*
X167412171Y-217040342D01*
X167483600Y-216968914D01*
X167555028Y-216826057D01*
X167555028Y-216683200D01*
X167555028Y-216183200D02*
X166555028Y-216183200D01*
X167412171Y-216183200D02*
X167483600Y-216111771D01*
X167555028Y-215968914D01*
X167555028Y-215754628D01*
X167483600Y-215611771D01*
X167340742Y-215540342D01*
X166555028Y-215540342D01*
X166555028Y-214183200D02*
X167340742Y-214183200D01*
X167483600Y-214254628D01*
X167555028Y-214397485D01*
X167555028Y-214683200D01*
X167483600Y-214826057D01*
X166626457Y-214183200D02*
X166555028Y-214326057D01*
X166555028Y-214683200D01*
X166626457Y-214826057D01*
X166769314Y-214897485D01*
X166912171Y-214897485D01*
X167055028Y-214826057D01*
X167126457Y-214683200D01*
X167126457Y-214326057D01*
X167197885Y-214183200D01*
X166555028Y-213254628D02*
X166626457Y-213397485D01*
X166769314Y-213468914D01*
X168055028Y-213468914D01*
X166428028Y-158282685D02*
X166428028Y-158996971D01*
X167928028Y-158996971D01*
X166570885Y-156925542D02*
X166499457Y-156996971D01*
X166428028Y-157211257D01*
X166428028Y-157354114D01*
X166499457Y-157568400D01*
X166642314Y-157711257D01*
X166785171Y-157782685D01*
X167070885Y-157854114D01*
X167285171Y-157854114D01*
X167570885Y-157782685D01*
X167713742Y-157711257D01*
X167856600Y-157568400D01*
X167928028Y-157354114D01*
X167928028Y-157211257D01*
X167856600Y-156996971D01*
X167785171Y-156925542D01*
X166428028Y-156282685D02*
X167928028Y-156282685D01*
X167928028Y-155925542D01*
X167856600Y-155711257D01*
X167713742Y-155568400D01*
X167570885Y-155496971D01*
X167285171Y-155425542D01*
X167070885Y-155425542D01*
X166785171Y-155496971D01*
X166642314Y-155568400D01*
X166499457Y-155711257D01*
X166428028Y-155925542D01*
X166428028Y-156282685D01*
X166428028Y-153639828D02*
X167928028Y-153639828D01*
X166856600Y-153139828D01*
X167928028Y-152639828D01*
X166428028Y-152639828D01*
X167213742Y-151925542D02*
X167213742Y-151425542D01*
X166428028Y-151211257D02*
X166428028Y-151925542D01*
X167928028Y-151925542D01*
X167928028Y-151211257D01*
X166428028Y-150568400D02*
X167928028Y-150568400D01*
X166428028Y-149711257D01*
X167928028Y-149711257D01*
X167928028Y-148996971D02*
X166713742Y-148996971D01*
X166570885Y-148925542D01*
X166499457Y-148854114D01*
X166428028Y-148711257D01*
X166428028Y-148425542D01*
X166499457Y-148282685D01*
X166570885Y-148211257D01*
X166713742Y-148139828D01*
X167928028Y-148139828D01*
X167213742Y-133802285D02*
X167142314Y-133588000D01*
X167070885Y-133516571D01*
X166928028Y-133445142D01*
X166713742Y-133445142D01*
X166570885Y-133516571D01*
X166499457Y-133588000D01*
X166428028Y-133730857D01*
X166428028Y-134302285D01*
X167928028Y-134302285D01*
X167928028Y-133802285D01*
X167856600Y-133659428D01*
X167785171Y-133588000D01*
X167642314Y-133516571D01*
X167499457Y-133516571D01*
X167356600Y-133588000D01*
X167285171Y-133659428D01*
X167213742Y-133802285D01*
X167213742Y-134302285D01*
X166428028Y-131945142D02*
X167142314Y-132445142D01*
X166428028Y-132802285D02*
X167928028Y-132802285D01*
X167928028Y-132230857D01*
X167856600Y-132088000D01*
X167785171Y-132016571D01*
X167642314Y-131945142D01*
X167428028Y-131945142D01*
X167285171Y-132016571D01*
X167213742Y-132088000D01*
X167142314Y-132230857D01*
X167142314Y-132802285D01*
X167928028Y-131516571D02*
X167928028Y-130659428D01*
X166428028Y-131088000D02*
X167928028Y-131088000D01*
X166504228Y-124238342D02*
X168004228Y-124238342D01*
X168004228Y-123881200D01*
X167932800Y-123666914D01*
X167789942Y-123524057D01*
X167647085Y-123452628D01*
X167361371Y-123381200D01*
X167147085Y-123381200D01*
X166861371Y-123452628D01*
X166718514Y-123524057D01*
X166575657Y-123666914D01*
X166504228Y-123881200D01*
X166504228Y-124238342D01*
X166504228Y-122738342D02*
X168004228Y-122738342D01*
X166504228Y-122024057D02*
X168004228Y-122024057D01*
X166932800Y-121524057D01*
X168004228Y-121024057D01*
X166504228Y-121024057D01*
D12*
X71348600Y-45910500D02*
G75*
G02*
X72364600Y-44894500I1016000J0D01*
G01*
X136690100Y-44894500D02*
G75*
G02*
X137706100Y-45910500I0J-1016000D01*
G01*
X72364600Y-74676000D02*
G75*
G02*
X71348600Y-73660000I0J1016000D01*
G01*
X137706100Y-73660000D02*
G75*
G02*
X136690100Y-74676000I-1016000J0D01*
G01*
X137706100Y-45910500D02*
X137706100Y-73660000D01*
X72364600Y-44894500D02*
X136690100Y-44894500D01*
X71348600Y-73660000D02*
X71348600Y-45910500D01*
X136690100Y-74676000D02*
X72364600Y-74676000D01*
%TO.C,J3*%
X177292000Y-221640000D02*
X177292000Y-231800000D01*
X169672000Y-221640000D02*
X177292000Y-221640000D01*
X169672000Y-231800000D02*
X169672000Y-221640000D01*
X177292000Y-231800000D02*
X169672000Y-231800000D01*
X176022000Y-231800000D02*
X176022000Y-221640000D01*
D13*
%TO.C,G\u002A\u002A\u002A*%
G36*
X148322187Y-25543933D02*
G01*
X148259643Y-25594733D01*
X148247532Y-25605838D01*
X148232541Y-25622255D01*
X148213761Y-25645376D01*
X148190286Y-25676594D01*
X148161208Y-25717302D01*
X148125619Y-25768891D01*
X148082611Y-25832755D01*
X148031278Y-25910285D01*
X147970711Y-26002875D01*
X147900003Y-26111916D01*
X147818247Y-26238801D01*
X147724534Y-26384923D01*
X147617957Y-26551673D01*
X147497609Y-26740445D01*
X147362582Y-26952631D01*
X147211969Y-27189623D01*
X147044861Y-27452813D01*
X146908178Y-27668209D01*
X146312467Y-28607152D01*
X146308144Y-27071165D01*
X146303821Y-25535177D01*
X145376811Y-25539555D01*
X144449800Y-25543933D01*
X144445524Y-28816300D01*
X144441248Y-32088666D01*
X145280034Y-32088666D01*
X145477670Y-32088668D01*
X145644407Y-32088451D01*
X145783211Y-32087686D01*
X145897052Y-32086042D01*
X145988896Y-32083188D01*
X146061711Y-32078795D01*
X146118464Y-32072531D01*
X146162123Y-32064066D01*
X146195654Y-32053070D01*
X146222026Y-32039212D01*
X146244206Y-32022161D01*
X146265162Y-32001588D01*
X146287860Y-31977161D01*
X146288625Y-31976337D01*
X146306226Y-31952948D01*
X146340621Y-31903006D01*
X146390475Y-31828566D01*
X146454455Y-31731679D01*
X146531225Y-31614401D01*
X146619452Y-31478784D01*
X146717801Y-31326882D01*
X146824938Y-31160749D01*
X146939528Y-30982438D01*
X147060237Y-30794003D01*
X147185730Y-30597497D01*
X147244416Y-30505400D01*
X147372514Y-30304235D01*
X147496871Y-30108949D01*
X147616098Y-29921723D01*
X147728805Y-29744739D01*
X147833605Y-29580176D01*
X147929107Y-29430216D01*
X148013923Y-29297041D01*
X148086664Y-29182831D01*
X148145941Y-29089766D01*
X148190364Y-29020029D01*
X148218546Y-28975799D01*
X148224991Y-28965689D01*
X148310600Y-28831445D01*
X148314918Y-30460056D01*
X148319236Y-32088666D01*
X150198667Y-32088666D01*
X150198667Y-25534635D01*
X148322187Y-25543933D01*
G37*
X148322187Y-25543933D02*
X148259643Y-25594733D01*
X148247532Y-25605838D01*
X148232541Y-25622255D01*
X148213761Y-25645376D01*
X148190286Y-25676594D01*
X148161208Y-25717302D01*
X148125619Y-25768891D01*
X148082611Y-25832755D01*
X148031278Y-25910285D01*
X147970711Y-26002875D01*
X147900003Y-26111916D01*
X147818247Y-26238801D01*
X147724534Y-26384923D01*
X147617957Y-26551673D01*
X147497609Y-26740445D01*
X147362582Y-26952631D01*
X147211969Y-27189623D01*
X147044861Y-27452813D01*
X146908178Y-27668209D01*
X146312467Y-28607152D01*
X146308144Y-27071165D01*
X146303821Y-25535177D01*
X145376811Y-25539555D01*
X144449800Y-25543933D01*
X144445524Y-28816300D01*
X144441248Y-32088666D01*
X145280034Y-32088666D01*
X145477670Y-32088668D01*
X145644407Y-32088451D01*
X145783211Y-32087686D01*
X145897052Y-32086042D01*
X145988896Y-32083188D01*
X146061711Y-32078795D01*
X146118464Y-32072531D01*
X146162123Y-32064066D01*
X146195654Y-32053070D01*
X146222026Y-32039212D01*
X146244206Y-32022161D01*
X146265162Y-32001588D01*
X146287860Y-31977161D01*
X146288625Y-31976337D01*
X146306226Y-31952948D01*
X146340621Y-31903006D01*
X146390475Y-31828566D01*
X146454455Y-31731679D01*
X146531225Y-31614401D01*
X146619452Y-31478784D01*
X146717801Y-31326882D01*
X146824938Y-31160749D01*
X146939528Y-30982438D01*
X147060237Y-30794003D01*
X147185730Y-30597497D01*
X147244416Y-30505400D01*
X147372514Y-30304235D01*
X147496871Y-30108949D01*
X147616098Y-29921723D01*
X147728805Y-29744739D01*
X147833605Y-29580176D01*
X147929107Y-29430216D01*
X148013923Y-29297041D01*
X148086664Y-29182831D01*
X148145941Y-29089766D01*
X148190364Y-29020029D01*
X148218546Y-28975799D01*
X148224991Y-28965689D01*
X148310600Y-28831445D01*
X148314918Y-30460056D01*
X148319236Y-32088666D01*
X150198667Y-32088666D01*
X150198667Y-25534635D01*
X148322187Y-25543933D01*
G36*
X153778171Y-25519149D02*
G01*
X153598091Y-25519655D01*
X153392235Y-25520607D01*
X153158788Y-25521980D01*
X152895932Y-25523748D01*
X152601850Y-25525885D01*
X152457755Y-25526968D01*
X150791333Y-25539593D01*
X150791333Y-27245733D01*
X152789467Y-27245733D01*
X152789467Y-27923066D01*
X150791333Y-27923066D01*
X150791333Y-29650267D01*
X152772533Y-29650267D01*
X152772533Y-30378400D01*
X150791333Y-30378400D01*
X150791333Y-32088666D01*
X152632833Y-32087139D01*
X152898988Y-32086777D01*
X153151905Y-32086154D01*
X153389658Y-32085288D01*
X153610318Y-32084195D01*
X153811955Y-32082893D01*
X153992642Y-32081399D01*
X154150450Y-32079732D01*
X154283450Y-32077907D01*
X154389714Y-32075943D01*
X154467313Y-32073857D01*
X154514318Y-32071666D01*
X154527963Y-32070086D01*
X154591170Y-32035486D01*
X154641983Y-31976595D01*
X154673146Y-31902597D01*
X154677259Y-31881153D01*
X154678301Y-31856911D01*
X154679259Y-31800539D01*
X154680131Y-31713772D01*
X154680914Y-31598345D01*
X154681606Y-31455993D01*
X154682202Y-31288454D01*
X154682700Y-31097461D01*
X154683098Y-30884752D01*
X154683392Y-30652060D01*
X154683579Y-30401123D01*
X154683657Y-30133676D01*
X154683623Y-29851454D01*
X154683473Y-29556193D01*
X154683206Y-29249628D01*
X154682817Y-28933496D01*
X154682518Y-28735867D01*
X154681917Y-28353940D01*
X154681378Y-28004421D01*
X154680860Y-27685853D01*
X154680320Y-27396777D01*
X154679714Y-27135734D01*
X154679002Y-26901268D01*
X154678139Y-26691919D01*
X154677084Y-26506229D01*
X154675793Y-26342740D01*
X154674226Y-26199995D01*
X154672338Y-26076535D01*
X154670088Y-25970901D01*
X154667433Y-25881636D01*
X154664330Y-25807281D01*
X154660737Y-25746378D01*
X154656611Y-25697470D01*
X154651911Y-25659098D01*
X154646592Y-25629803D01*
X154640614Y-25608128D01*
X154633933Y-25592615D01*
X154626507Y-25581805D01*
X154618292Y-25574240D01*
X154609248Y-25568462D01*
X154599331Y-25563013D01*
X154589832Y-25557321D01*
X154577374Y-25550452D01*
X154560938Y-25544339D01*
X154538707Y-25538957D01*
X154508866Y-25534280D01*
X154469597Y-25530283D01*
X154419085Y-25526939D01*
X154355513Y-25524223D01*
X154277064Y-25522108D01*
X154181921Y-25520569D01*
X154068269Y-25519580D01*
X153934291Y-25519115D01*
X153778171Y-25519149D01*
G37*
X153778171Y-25519149D02*
X153598091Y-25519655D01*
X153392235Y-25520607D01*
X153158788Y-25521980D01*
X152895932Y-25523748D01*
X152601850Y-25525885D01*
X152457755Y-25526968D01*
X150791333Y-25539593D01*
X150791333Y-27245733D01*
X152789467Y-27245733D01*
X152789467Y-27923066D01*
X150791333Y-27923066D01*
X150791333Y-29650267D01*
X152772533Y-29650267D01*
X152772533Y-30378400D01*
X150791333Y-30378400D01*
X150791333Y-32088666D01*
X152632833Y-32087139D01*
X152898988Y-32086777D01*
X153151905Y-32086154D01*
X153389658Y-32085288D01*
X153610318Y-32084195D01*
X153811955Y-32082893D01*
X153992642Y-32081399D01*
X154150450Y-32079732D01*
X154283450Y-32077907D01*
X154389714Y-32075943D01*
X154467313Y-32073857D01*
X154514318Y-32071666D01*
X154527963Y-32070086D01*
X154591170Y-32035486D01*
X154641983Y-31976595D01*
X154673146Y-31902597D01*
X154677259Y-31881153D01*
X154678301Y-31856911D01*
X154679259Y-31800539D01*
X154680131Y-31713772D01*
X154680914Y-31598345D01*
X154681606Y-31455993D01*
X154682202Y-31288454D01*
X154682700Y-31097461D01*
X154683098Y-30884752D01*
X154683392Y-30652060D01*
X154683579Y-30401123D01*
X154683657Y-30133676D01*
X154683623Y-29851454D01*
X154683473Y-29556193D01*
X154683206Y-29249628D01*
X154682817Y-28933496D01*
X154682518Y-28735867D01*
X154681917Y-28353940D01*
X154681378Y-28004421D01*
X154680860Y-27685853D01*
X154680320Y-27396777D01*
X154679714Y-27135734D01*
X154679002Y-26901268D01*
X154678139Y-26691919D01*
X154677084Y-26506229D01*
X154675793Y-26342740D01*
X154674226Y-26199995D01*
X154672338Y-26076535D01*
X154670088Y-25970901D01*
X154667433Y-25881636D01*
X154664330Y-25807281D01*
X154660737Y-25746378D01*
X154656611Y-25697470D01*
X154651911Y-25659098D01*
X154646592Y-25629803D01*
X154640614Y-25608128D01*
X154633933Y-25592615D01*
X154626507Y-25581805D01*
X154618292Y-25574240D01*
X154609248Y-25568462D01*
X154599331Y-25563013D01*
X154589832Y-25557321D01*
X154577374Y-25550452D01*
X154560938Y-25544339D01*
X154538707Y-25538957D01*
X154508866Y-25534280D01*
X154469597Y-25530283D01*
X154419085Y-25526939D01*
X154355513Y-25524223D01*
X154277064Y-25522108D01*
X154181921Y-25520569D01*
X154068269Y-25519580D01*
X153934291Y-25519115D01*
X153778171Y-25519149D01*
G36*
X159041194Y-25519707D02*
G01*
X158859109Y-25520728D01*
X158672310Y-25522248D01*
X158484033Y-25524235D01*
X158297518Y-25526659D01*
X158116002Y-25529488D01*
X157942723Y-25532691D01*
X157780920Y-25536235D01*
X157633831Y-25540091D01*
X157504693Y-25544227D01*
X157396745Y-25548611D01*
X157313226Y-25553212D01*
X157257372Y-25558000D01*
X157247650Y-25559290D01*
X156947852Y-25619736D01*
X156665912Y-25707669D01*
X156403005Y-25821978D01*
X156160308Y-25961552D01*
X155938996Y-26125280D01*
X155740247Y-26312051D01*
X155565236Y-26520754D01*
X155415139Y-26750278D01*
X155291133Y-26999511D01*
X155194393Y-27267344D01*
X155126097Y-27552664D01*
X155123780Y-27565509D01*
X155103406Y-27715579D01*
X155091290Y-27883315D01*
X155087538Y-28057521D01*
X155092256Y-28227004D01*
X155105548Y-28380568D01*
X155115463Y-28448000D01*
X155180620Y-28728546D01*
X155275565Y-28994564D01*
X155398772Y-29244424D01*
X155548714Y-29476499D01*
X155723867Y-29689158D01*
X155922704Y-29880774D01*
X156143700Y-30049718D01*
X156385327Y-30194361D01*
X156646062Y-30313075D01*
X156924377Y-30404230D01*
X156955908Y-30412481D01*
X157123112Y-30448755D01*
X157317105Y-30478835D01*
X157540546Y-30503097D01*
X157666267Y-30513320D01*
X157762680Y-30520598D01*
X157855069Y-30527934D01*
X157934272Y-30534577D01*
X157991125Y-30539775D01*
X158000700Y-30540753D01*
X158089600Y-30550170D01*
X158089600Y-32088666D01*
X159986133Y-32088666D01*
X159986133Y-27245733D01*
X158089600Y-27245733D01*
X158089600Y-28774470D01*
X157856767Y-28764705D01*
X157762743Y-28759254D01*
X157672968Y-28751370D01*
X157596897Y-28742054D01*
X157543989Y-28732310D01*
X157539267Y-28731053D01*
X157397482Y-28674053D01*
X157272654Y-28589481D01*
X157167875Y-28480658D01*
X157086233Y-28350910D01*
X157030818Y-28203559D01*
X157024244Y-28177066D01*
X157006310Y-28030734D01*
X157017450Y-27884101D01*
X157055281Y-27742402D01*
X157117418Y-27610871D01*
X157201480Y-27494742D01*
X157305082Y-27399249D01*
X157406048Y-27338537D01*
X157493923Y-27306239D01*
X157605773Y-27279213D01*
X157731893Y-27259147D01*
X157862581Y-27247730D01*
X157939418Y-27245733D01*
X158089600Y-27245733D01*
X159986133Y-27245733D01*
X159986133Y-25551562D01*
X159939567Y-25533258D01*
X159911772Y-25529161D01*
X159853358Y-25525812D01*
X159767562Y-25523182D01*
X159657623Y-25521239D01*
X159526779Y-25519951D01*
X159378267Y-25519287D01*
X159215326Y-25519216D01*
X159041194Y-25519707D01*
G37*
X159041194Y-25519707D02*
X158859109Y-25520728D01*
X158672310Y-25522248D01*
X158484033Y-25524235D01*
X158297518Y-25526659D01*
X158116002Y-25529488D01*
X157942723Y-25532691D01*
X157780920Y-25536235D01*
X157633831Y-25540091D01*
X157504693Y-25544227D01*
X157396745Y-25548611D01*
X157313226Y-25553212D01*
X157257372Y-25558000D01*
X157247650Y-25559290D01*
X156947852Y-25619736D01*
X156665912Y-25707669D01*
X156403005Y-25821978D01*
X156160308Y-25961552D01*
X155938996Y-26125280D01*
X155740247Y-26312051D01*
X155565236Y-26520754D01*
X155415139Y-26750278D01*
X155291133Y-26999511D01*
X155194393Y-27267344D01*
X155126097Y-27552664D01*
X155123780Y-27565509D01*
X155103406Y-27715579D01*
X155091290Y-27883315D01*
X155087538Y-28057521D01*
X155092256Y-28227004D01*
X155105548Y-28380568D01*
X155115463Y-28448000D01*
X155180620Y-28728546D01*
X155275565Y-28994564D01*
X155398772Y-29244424D01*
X155548714Y-29476499D01*
X155723867Y-29689158D01*
X155922704Y-29880774D01*
X156143700Y-30049718D01*
X156385327Y-30194361D01*
X156646062Y-30313075D01*
X156924377Y-30404230D01*
X156955908Y-30412481D01*
X157123112Y-30448755D01*
X157317105Y-30478835D01*
X157540546Y-30503097D01*
X157666267Y-30513320D01*
X157762680Y-30520598D01*
X157855069Y-30527934D01*
X157934272Y-30534577D01*
X157991125Y-30539775D01*
X158000700Y-30540753D01*
X158089600Y-30550170D01*
X158089600Y-32088666D01*
X159986133Y-32088666D01*
X159986133Y-27245733D01*
X158089600Y-27245733D01*
X158089600Y-28774470D01*
X157856767Y-28764705D01*
X157762743Y-28759254D01*
X157672968Y-28751370D01*
X157596897Y-28742054D01*
X157543989Y-28732310D01*
X157539267Y-28731053D01*
X157397482Y-28674053D01*
X157272654Y-28589481D01*
X157167875Y-28480658D01*
X157086233Y-28350910D01*
X157030818Y-28203559D01*
X157024244Y-28177066D01*
X157006310Y-28030734D01*
X157017450Y-27884101D01*
X157055281Y-27742402D01*
X157117418Y-27610871D01*
X157201480Y-27494742D01*
X157305082Y-27399249D01*
X157406048Y-27338537D01*
X157493923Y-27306239D01*
X157605773Y-27279213D01*
X157731893Y-27259147D01*
X157862581Y-27247730D01*
X157939418Y-27245733D01*
X158089600Y-27245733D01*
X159986133Y-27245733D01*
X159986133Y-25551562D01*
X159939567Y-25533258D01*
X159911772Y-25529161D01*
X159853358Y-25525812D01*
X159767562Y-25523182D01*
X159657623Y-25521239D01*
X159526779Y-25519951D01*
X159378267Y-25519287D01*
X159215326Y-25519216D01*
X159041194Y-25519707D01*
G36*
X163389308Y-25456327D02*
G01*
X163066606Y-25506769D01*
X162751511Y-25587384D01*
X162446294Y-25697370D01*
X162153228Y-25835923D01*
X161874584Y-26002240D01*
X161612635Y-26195519D01*
X161369652Y-26414957D01*
X161175395Y-26626592D01*
X160974388Y-26891429D01*
X160801907Y-27172056D01*
X160658256Y-27466010D01*
X160543737Y-27770829D01*
X160458653Y-28084049D01*
X160403307Y-28403208D01*
X160378001Y-28725842D01*
X160383037Y-29049489D01*
X160418719Y-29371686D01*
X160485349Y-29689970D01*
X160583230Y-30001878D01*
X160712665Y-30304948D01*
X160721234Y-30322380D01*
X160886908Y-30619998D01*
X161077387Y-30895271D01*
X161291172Y-31147184D01*
X161526763Y-31374722D01*
X161782660Y-31576870D01*
X162057364Y-31752613D01*
X162349374Y-31900937D01*
X162657192Y-32020826D01*
X162979317Y-32111265D01*
X163314249Y-32171240D01*
X163479556Y-32188946D01*
X163592554Y-32197646D01*
X163685424Y-32202389D01*
X163771652Y-32203356D01*
X163864722Y-32200725D01*
X163965467Y-32195432D01*
X164274492Y-32161622D01*
X164584927Y-32097735D01*
X164889997Y-32005823D01*
X165182931Y-31887937D01*
X165456955Y-31746130D01*
X165466113Y-31740763D01*
X165741601Y-31559428D01*
X165996860Y-31352460D01*
X166230127Y-31122193D01*
X166439638Y-30870961D01*
X166623632Y-30601096D01*
X166780345Y-30314932D01*
X166908015Y-30014804D01*
X167004623Y-29704049D01*
X167041919Y-29548053D01*
X167069506Y-29406224D01*
X167088943Y-29267039D01*
X167101789Y-29118974D01*
X167109603Y-28950507D01*
X167110464Y-28921821D01*
X167110877Y-28722699D01*
X165190939Y-28722699D01*
X165188687Y-28945455D01*
X165158577Y-29165241D01*
X165100874Y-29377323D01*
X165015841Y-29576970D01*
X164936980Y-29711661D01*
X164803700Y-29883016D01*
X164649247Y-30029822D01*
X164476876Y-30150823D01*
X164289842Y-30244761D01*
X164091401Y-30310377D01*
X163884809Y-30346414D01*
X163673322Y-30351614D01*
X163460195Y-30324719D01*
X163391172Y-30308871D01*
X163194942Y-30242442D01*
X163012989Y-30146680D01*
X162843135Y-30020288D01*
X162735591Y-29918416D01*
X162615840Y-29780824D01*
X162518230Y-29636179D01*
X162437962Y-29476120D01*
X162370240Y-29292288D01*
X162363041Y-29269252D01*
X162345840Y-29211079D01*
X162333447Y-29160782D01*
X162325085Y-29110897D01*
X162319977Y-29053955D01*
X162317346Y-28982490D01*
X162316414Y-28889035D01*
X162316347Y-28820533D01*
X162317008Y-28705253D01*
X162319279Y-28616372D01*
X162323804Y-28546436D01*
X162331232Y-28487992D01*
X162342206Y-28433585D01*
X162353760Y-28388733D01*
X162428799Y-28174479D01*
X162529983Y-27979108D01*
X162655423Y-27804533D01*
X162803230Y-27652666D01*
X162971514Y-27525419D01*
X163158386Y-27424706D01*
X163361957Y-27352438D01*
X163382827Y-27346934D01*
X163598884Y-27308073D01*
X163812847Y-27301148D01*
X164021747Y-27324827D01*
X164222613Y-27377782D01*
X164412475Y-27458680D01*
X164588363Y-27566192D01*
X164747308Y-27698986D01*
X164886339Y-27855733D01*
X165002485Y-28035101D01*
X165027902Y-28083933D01*
X165110810Y-28287205D01*
X165165068Y-28501705D01*
X165190939Y-28722699D01*
X167110877Y-28722699D01*
X167110986Y-28670558D01*
X167096857Y-28439590D01*
X167066984Y-28218176D01*
X167020274Y-27995577D01*
X167013478Y-27968243D01*
X166915391Y-27646881D01*
X166788219Y-27341179D01*
X166633556Y-27052635D01*
X166452997Y-26782746D01*
X166248137Y-26533014D01*
X166020571Y-26304934D01*
X165771894Y-26100008D01*
X165503701Y-25919732D01*
X165217587Y-25765606D01*
X164915147Y-25639129D01*
X164597976Y-25541799D01*
X164380333Y-25494068D01*
X164048444Y-25449173D01*
X163717345Y-25436861D01*
X163389308Y-25456327D01*
G37*
X163389308Y-25456327D02*
X163066606Y-25506769D01*
X162751511Y-25587384D01*
X162446294Y-25697370D01*
X162153228Y-25835923D01*
X161874584Y-26002240D01*
X161612635Y-26195519D01*
X161369652Y-26414957D01*
X161175395Y-26626592D01*
X160974388Y-26891429D01*
X160801907Y-27172056D01*
X160658256Y-27466010D01*
X160543737Y-27770829D01*
X160458653Y-28084049D01*
X160403307Y-28403208D01*
X160378001Y-28725842D01*
X160383037Y-29049489D01*
X160418719Y-29371686D01*
X160485349Y-29689970D01*
X160583230Y-30001878D01*
X160712665Y-30304948D01*
X160721234Y-30322380D01*
X160886908Y-30619998D01*
X161077387Y-30895271D01*
X161291172Y-31147184D01*
X161526763Y-31374722D01*
X161782660Y-31576870D01*
X162057364Y-31752613D01*
X162349374Y-31900937D01*
X162657192Y-32020826D01*
X162979317Y-32111265D01*
X163314249Y-32171240D01*
X163479556Y-32188946D01*
X163592554Y-32197646D01*
X163685424Y-32202389D01*
X163771652Y-32203356D01*
X163864722Y-32200725D01*
X163965467Y-32195432D01*
X164274492Y-32161622D01*
X164584927Y-32097735D01*
X164889997Y-32005823D01*
X165182931Y-31887937D01*
X165456955Y-31746130D01*
X165466113Y-31740763D01*
X165741601Y-31559428D01*
X165996860Y-31352460D01*
X166230127Y-31122193D01*
X166439638Y-30870961D01*
X166623632Y-30601096D01*
X166780345Y-30314932D01*
X166908015Y-30014804D01*
X167004623Y-29704049D01*
X167041919Y-29548053D01*
X167069506Y-29406224D01*
X167088943Y-29267039D01*
X167101789Y-29118974D01*
X167109603Y-28950507D01*
X167110464Y-28921821D01*
X167110877Y-28722699D01*
X165190939Y-28722699D01*
X165188687Y-28945455D01*
X165158577Y-29165241D01*
X165100874Y-29377323D01*
X165015841Y-29576970D01*
X164936980Y-29711661D01*
X164803700Y-29883016D01*
X164649247Y-30029822D01*
X164476876Y-30150823D01*
X164289842Y-30244761D01*
X164091401Y-30310377D01*
X163884809Y-30346414D01*
X163673322Y-30351614D01*
X163460195Y-30324719D01*
X163391172Y-30308871D01*
X163194942Y-30242442D01*
X163012989Y-30146680D01*
X162843135Y-30020288D01*
X162735591Y-29918416D01*
X162615840Y-29780824D01*
X162518230Y-29636179D01*
X162437962Y-29476120D01*
X162370240Y-29292288D01*
X162363041Y-29269252D01*
X162345840Y-29211079D01*
X162333447Y-29160782D01*
X162325085Y-29110897D01*
X162319977Y-29053955D01*
X162317346Y-28982490D01*
X162316414Y-28889035D01*
X162316347Y-28820533D01*
X162317008Y-28705253D01*
X162319279Y-28616372D01*
X162323804Y-28546436D01*
X162331232Y-28487992D01*
X162342206Y-28433585D01*
X162353760Y-28388733D01*
X162428799Y-28174479D01*
X162529983Y-27979108D01*
X162655423Y-27804533D01*
X162803230Y-27652666D01*
X162971514Y-27525419D01*
X163158386Y-27424706D01*
X163361957Y-27352438D01*
X163382827Y-27346934D01*
X163598884Y-27308073D01*
X163812847Y-27301148D01*
X164021747Y-27324827D01*
X164222613Y-27377782D01*
X164412475Y-27458680D01*
X164588363Y-27566192D01*
X164747308Y-27698986D01*
X164886339Y-27855733D01*
X165002485Y-28035101D01*
X165027902Y-28083933D01*
X165110810Y-28287205D01*
X165165068Y-28501705D01*
X165190939Y-28722699D01*
X167110877Y-28722699D01*
X167110986Y-28670558D01*
X167096857Y-28439590D01*
X167066984Y-28218176D01*
X167020274Y-27995577D01*
X167013478Y-27968243D01*
X166915391Y-27646881D01*
X166788219Y-27341179D01*
X166633556Y-27052635D01*
X166452997Y-26782746D01*
X166248137Y-26533014D01*
X166020571Y-26304934D01*
X165771894Y-26100008D01*
X165503701Y-25919732D01*
X165217587Y-25765606D01*
X164915147Y-25639129D01*
X164597976Y-25541799D01*
X164380333Y-25494068D01*
X164048444Y-25449173D01*
X163717345Y-25436861D01*
X163389308Y-25456327D01*
G36*
X145258218Y-32749254D02*
G01*
X145088101Y-32749620D01*
X144946962Y-32750322D01*
X144832356Y-32751423D01*
X144741838Y-32752987D01*
X144672963Y-32755077D01*
X144623288Y-32757755D01*
X144590367Y-32761084D01*
X144571756Y-32765128D01*
X144565012Y-32769950D01*
X144565137Y-32772244D01*
X144574659Y-32790213D01*
X144599631Y-32835440D01*
X144638809Y-32905715D01*
X144690952Y-32998829D01*
X144754816Y-33112572D01*
X144829160Y-33244734D01*
X144912741Y-33393107D01*
X145004316Y-33555479D01*
X145102642Y-33729642D01*
X145206478Y-33913386D01*
X145272169Y-34029544D01*
X145383350Y-34226089D01*
X145493156Y-34420219D01*
X145599950Y-34609038D01*
X145702097Y-34789653D01*
X145797958Y-34959168D01*
X145885896Y-35114687D01*
X145964276Y-35253317D01*
X146031459Y-35372162D01*
X146085808Y-35468328D01*
X146125688Y-35538918D01*
X146135864Y-35556940D01*
X146187829Y-35651205D01*
X146234236Y-35739571D01*
X146272258Y-35816313D01*
X146299064Y-35875707D01*
X146311828Y-35912030D01*
X146312148Y-35913713D01*
X146312558Y-35986448D01*
X146298934Y-36046703D01*
X146286826Y-36072462D01*
X146259309Y-36125177D01*
X146217747Y-36202382D01*
X146163508Y-36301612D01*
X146097955Y-36420402D01*
X146022454Y-36556286D01*
X145938371Y-36706799D01*
X145847072Y-36869477D01*
X145749920Y-37041854D01*
X145648283Y-37221465D01*
X145647754Y-37222397D01*
X145537658Y-37416608D01*
X145425545Y-37614459D01*
X145313608Y-37812078D01*
X145204035Y-38005596D01*
X145099017Y-38191142D01*
X145000745Y-38364847D01*
X144911408Y-38522840D01*
X144833196Y-38661250D01*
X144768301Y-38776209D01*
X144739024Y-38828133D01*
X144457532Y-39327666D01*
X145300333Y-39332773D01*
X145517786Y-39333948D01*
X145704047Y-39334554D01*
X145861788Y-39334467D01*
X145993680Y-39333563D01*
X146102395Y-39331716D01*
X146190605Y-39328802D01*
X146260982Y-39324697D01*
X146316197Y-39319276D01*
X146358921Y-39312415D01*
X146391828Y-39303988D01*
X146417587Y-39293871D01*
X146438872Y-39281941D01*
X146442546Y-39279516D01*
X146457036Y-39269329D01*
X146471021Y-39257727D01*
X146485940Y-39242363D01*
X146503234Y-39220893D01*
X146524344Y-39190972D01*
X146550712Y-39150256D01*
X146583779Y-39096399D01*
X146624984Y-39027057D01*
X146675770Y-38939885D01*
X146737577Y-38832538D01*
X146811846Y-38702671D01*
X146900018Y-38547940D01*
X146998628Y-38374625D01*
X147091730Y-38211438D01*
X147169737Y-38075902D01*
X147233895Y-37966004D01*
X147285449Y-37879731D01*
X147325646Y-37815071D01*
X147355732Y-37770011D01*
X147376951Y-37742538D01*
X147390551Y-37730640D01*
X147396952Y-37731159D01*
X147409140Y-37749911D01*
X147436251Y-37795154D01*
X147476553Y-37863889D01*
X147528312Y-37953118D01*
X147589797Y-38059845D01*
X147659273Y-38181071D01*
X147735010Y-38313799D01*
X147810794Y-38447133D01*
X147891581Y-38589352D01*
X147968304Y-38724061D01*
X148039138Y-38848080D01*
X148102255Y-38958228D01*
X148155831Y-39051322D01*
X148198037Y-39124182D01*
X148227048Y-39173625D01*
X148240405Y-39195531D01*
X148278575Y-39238736D01*
X148329527Y-39279555D01*
X148344176Y-39288664D01*
X148412200Y-39327666D01*
X149358352Y-39332698D01*
X149561449Y-39333729D01*
X149733245Y-39334443D01*
X149876303Y-39334772D01*
X149993187Y-39334651D01*
X150086461Y-39334015D01*
X150158689Y-39332796D01*
X150212435Y-39330930D01*
X150250263Y-39328350D01*
X150274737Y-39324990D01*
X150288420Y-39320785D01*
X150293878Y-39315667D01*
X150293673Y-39309571D01*
X150293337Y-39308632D01*
X150282937Y-39288430D01*
X150257065Y-39241008D01*
X150216973Y-39168590D01*
X150163917Y-39073402D01*
X150099153Y-38957670D01*
X150023933Y-38823620D01*
X149939515Y-38673477D01*
X149847151Y-38509467D01*
X149748096Y-38333815D01*
X149643607Y-38148748D01*
X149534936Y-37956491D01*
X149423340Y-37759270D01*
X149310072Y-37559310D01*
X149196388Y-37358837D01*
X149083542Y-37160077D01*
X148972789Y-36965256D01*
X148915087Y-36863867D01*
X148815267Y-36688388D01*
X148730987Y-36539712D01*
X148660939Y-36415261D01*
X148603814Y-36312460D01*
X148558304Y-36228732D01*
X148523101Y-36161500D01*
X148496897Y-36108189D01*
X148478383Y-36066222D01*
X148466252Y-36033023D01*
X148459195Y-36006015D01*
X148455903Y-35982622D01*
X148455069Y-35960267D01*
X148455071Y-35957933D01*
X148455585Y-35935991D01*
X148457895Y-35914296D01*
X148463363Y-35890147D01*
X148473352Y-35860841D01*
X148489224Y-35823676D01*
X148512341Y-35775949D01*
X148544067Y-35714957D01*
X148585763Y-35637999D01*
X148638791Y-35542372D01*
X148704515Y-35425373D01*
X148784295Y-35284300D01*
X148877633Y-35119733D01*
X148958946Y-34976351D01*
X149053534Y-34809389D01*
X149158047Y-34624771D01*
X149269133Y-34428424D01*
X149383442Y-34226270D01*
X149497623Y-34024235D01*
X149608324Y-33828244D01*
X149712196Y-33644220D01*
X149720444Y-33629600D01*
X149808604Y-33473345D01*
X149891824Y-33325856D01*
X149968612Y-33189780D01*
X150037473Y-33067764D01*
X150096914Y-32962455D01*
X150145439Y-32876499D01*
X150181556Y-32812544D01*
X150203771Y-32773237D01*
X150210583Y-32761221D01*
X150195609Y-32758850D01*
X150149769Y-32756782D01*
X150076062Y-32755044D01*
X149977487Y-32753662D01*
X149857043Y-32752665D01*
X149717729Y-32752078D01*
X149562546Y-32751930D01*
X149394491Y-32752246D01*
X149271649Y-32752755D01*
X148325024Y-32757533D01*
X148258546Y-32801777D01*
X148243422Y-32811783D01*
X148229881Y-32821552D01*
X148216443Y-32833466D01*
X148201633Y-32849909D01*
X148183972Y-32873265D01*
X148161984Y-32905917D01*
X148134191Y-32950248D01*
X148099116Y-33008642D01*
X148055282Y-33083481D01*
X148001211Y-33177150D01*
X147935425Y-33292031D01*
X147856449Y-33430509D01*
X147762804Y-33594965D01*
X147716670Y-33675999D01*
X147644854Y-33801387D01*
X147577915Y-33916825D01*
X147517751Y-34019145D01*
X147466260Y-34105186D01*
X147425339Y-34171781D01*
X147396885Y-34215767D01*
X147382796Y-34233979D01*
X147381925Y-34234274D01*
X147368313Y-34217894D01*
X147339383Y-34173481D01*
X147296105Y-34102697D01*
X147239448Y-34007201D01*
X147170383Y-33888654D01*
X147089878Y-33748716D01*
X146998904Y-33589047D01*
X146898431Y-33411309D01*
X146826016Y-33282467D01*
X146763143Y-33172183D01*
X146703128Y-33070316D01*
X146648750Y-32981339D01*
X146602788Y-32909723D01*
X146568022Y-32859941D01*
X146550528Y-32839204D01*
X146499364Y-32800890D01*
X146442595Y-32772056D01*
X146428366Y-32767332D01*
X146393990Y-32762767D01*
X146326473Y-32758838D01*
X146226535Y-32755557D01*
X146094896Y-32752938D01*
X145932276Y-32750994D01*
X145739396Y-32749739D01*
X145516974Y-32749187D01*
X145459755Y-32749161D01*
X145258218Y-32749254D01*
G37*
X145258218Y-32749254D02*
X145088101Y-32749620D01*
X144946962Y-32750322D01*
X144832356Y-32751423D01*
X144741838Y-32752987D01*
X144672963Y-32755077D01*
X144623288Y-32757755D01*
X144590367Y-32761084D01*
X144571756Y-32765128D01*
X144565012Y-32769950D01*
X144565137Y-32772244D01*
X144574659Y-32790213D01*
X144599631Y-32835440D01*
X144638809Y-32905715D01*
X144690952Y-32998829D01*
X144754816Y-33112572D01*
X144829160Y-33244734D01*
X144912741Y-33393107D01*
X145004316Y-33555479D01*
X145102642Y-33729642D01*
X145206478Y-33913386D01*
X145272169Y-34029544D01*
X145383350Y-34226089D01*
X145493156Y-34420219D01*
X145599950Y-34609038D01*
X145702097Y-34789653D01*
X145797958Y-34959168D01*
X145885896Y-35114687D01*
X145964276Y-35253317D01*
X146031459Y-35372162D01*
X146085808Y-35468328D01*
X146125688Y-35538918D01*
X146135864Y-35556940D01*
X146187829Y-35651205D01*
X146234236Y-35739571D01*
X146272258Y-35816313D01*
X146299064Y-35875707D01*
X146311828Y-35912030D01*
X146312148Y-35913713D01*
X146312558Y-35986448D01*
X146298934Y-36046703D01*
X146286826Y-36072462D01*
X146259309Y-36125177D01*
X146217747Y-36202382D01*
X146163508Y-36301612D01*
X146097955Y-36420402D01*
X146022454Y-36556286D01*
X145938371Y-36706799D01*
X145847072Y-36869477D01*
X145749920Y-37041854D01*
X145648283Y-37221465D01*
X145647754Y-37222397D01*
X145537658Y-37416608D01*
X145425545Y-37614459D01*
X145313608Y-37812078D01*
X145204035Y-38005596D01*
X145099017Y-38191142D01*
X145000745Y-38364847D01*
X144911408Y-38522840D01*
X144833196Y-38661250D01*
X144768301Y-38776209D01*
X144739024Y-38828133D01*
X144457532Y-39327666D01*
X145300333Y-39332773D01*
X145517786Y-39333948D01*
X145704047Y-39334554D01*
X145861788Y-39334467D01*
X145993680Y-39333563D01*
X146102395Y-39331716D01*
X146190605Y-39328802D01*
X146260982Y-39324697D01*
X146316197Y-39319276D01*
X146358921Y-39312415D01*
X146391828Y-39303988D01*
X146417587Y-39293871D01*
X146438872Y-39281941D01*
X146442546Y-39279516D01*
X146457036Y-39269329D01*
X146471021Y-39257727D01*
X146485940Y-39242363D01*
X146503234Y-39220893D01*
X146524344Y-39190972D01*
X146550712Y-39150256D01*
X146583779Y-39096399D01*
X146624984Y-39027057D01*
X146675770Y-38939885D01*
X146737577Y-38832538D01*
X146811846Y-38702671D01*
X146900018Y-38547940D01*
X146998628Y-38374625D01*
X147091730Y-38211438D01*
X147169737Y-38075902D01*
X147233895Y-37966004D01*
X147285449Y-37879731D01*
X147325646Y-37815071D01*
X147355732Y-37770011D01*
X147376951Y-37742538D01*
X147390551Y-37730640D01*
X147396952Y-37731159D01*
X147409140Y-37749911D01*
X147436251Y-37795154D01*
X147476553Y-37863889D01*
X147528312Y-37953118D01*
X147589797Y-38059845D01*
X147659273Y-38181071D01*
X147735010Y-38313799D01*
X147810794Y-38447133D01*
X147891581Y-38589352D01*
X147968304Y-38724061D01*
X148039138Y-38848080D01*
X148102255Y-38958228D01*
X148155831Y-39051322D01*
X148198037Y-39124182D01*
X148227048Y-39173625D01*
X148240405Y-39195531D01*
X148278575Y-39238736D01*
X148329527Y-39279555D01*
X148344176Y-39288664D01*
X148412200Y-39327666D01*
X149358352Y-39332698D01*
X149561449Y-39333729D01*
X149733245Y-39334443D01*
X149876303Y-39334772D01*
X149993187Y-39334651D01*
X150086461Y-39334015D01*
X150158689Y-39332796D01*
X150212435Y-39330930D01*
X150250263Y-39328350D01*
X150274737Y-39324990D01*
X150288420Y-39320785D01*
X150293878Y-39315667D01*
X150293673Y-39309571D01*
X150293337Y-39308632D01*
X150282937Y-39288430D01*
X150257065Y-39241008D01*
X150216973Y-39168590D01*
X150163917Y-39073402D01*
X150099153Y-38957670D01*
X150023933Y-38823620D01*
X149939515Y-38673477D01*
X149847151Y-38509467D01*
X149748096Y-38333815D01*
X149643607Y-38148748D01*
X149534936Y-37956491D01*
X149423340Y-37759270D01*
X149310072Y-37559310D01*
X149196388Y-37358837D01*
X149083542Y-37160077D01*
X148972789Y-36965256D01*
X148915087Y-36863867D01*
X148815267Y-36688388D01*
X148730987Y-36539712D01*
X148660939Y-36415261D01*
X148603814Y-36312460D01*
X148558304Y-36228732D01*
X148523101Y-36161500D01*
X148496897Y-36108189D01*
X148478383Y-36066222D01*
X148466252Y-36033023D01*
X148459195Y-36006015D01*
X148455903Y-35982622D01*
X148455069Y-35960267D01*
X148455071Y-35957933D01*
X148455585Y-35935991D01*
X148457895Y-35914296D01*
X148463363Y-35890147D01*
X148473352Y-35860841D01*
X148489224Y-35823676D01*
X148512341Y-35775949D01*
X148544067Y-35714957D01*
X148585763Y-35637999D01*
X148638791Y-35542372D01*
X148704515Y-35425373D01*
X148784295Y-35284300D01*
X148877633Y-35119733D01*
X148958946Y-34976351D01*
X149053534Y-34809389D01*
X149158047Y-34624771D01*
X149269133Y-34428424D01*
X149383442Y-34226270D01*
X149497623Y-34024235D01*
X149608324Y-33828244D01*
X149712196Y-33644220D01*
X149720444Y-33629600D01*
X149808604Y-33473345D01*
X149891824Y-33325856D01*
X149968612Y-33189780D01*
X150037473Y-33067764D01*
X150096914Y-32962455D01*
X150145439Y-32876499D01*
X150181556Y-32812544D01*
X150203771Y-32773237D01*
X150210583Y-32761221D01*
X150195609Y-32758850D01*
X150149769Y-32756782D01*
X150076062Y-32755044D01*
X149977487Y-32753662D01*
X149857043Y-32752665D01*
X149717729Y-32752078D01*
X149562546Y-32751930D01*
X149394491Y-32752246D01*
X149271649Y-32752755D01*
X148325024Y-32757533D01*
X148258546Y-32801777D01*
X148243422Y-32811783D01*
X148229881Y-32821552D01*
X148216443Y-32833466D01*
X148201633Y-32849909D01*
X148183972Y-32873265D01*
X148161984Y-32905917D01*
X148134191Y-32950248D01*
X148099116Y-33008642D01*
X148055282Y-33083481D01*
X148001211Y-33177150D01*
X147935425Y-33292031D01*
X147856449Y-33430509D01*
X147762804Y-33594965D01*
X147716670Y-33675999D01*
X147644854Y-33801387D01*
X147577915Y-33916825D01*
X147517751Y-34019145D01*
X147466260Y-34105186D01*
X147425339Y-34171781D01*
X147396885Y-34215767D01*
X147382796Y-34233979D01*
X147381925Y-34234274D01*
X147368313Y-34217894D01*
X147339383Y-34173481D01*
X147296105Y-34102697D01*
X147239448Y-34007201D01*
X147170383Y-33888654D01*
X147089878Y-33748716D01*
X146998904Y-33589047D01*
X146898431Y-33411309D01*
X146826016Y-33282467D01*
X146763143Y-33172183D01*
X146703128Y-33070316D01*
X146648750Y-32981339D01*
X146602788Y-32909723D01*
X146568022Y-32859941D01*
X146550528Y-32839204D01*
X146499364Y-32800890D01*
X146442595Y-32772056D01*
X146428366Y-32767332D01*
X146393990Y-32762767D01*
X146326473Y-32758838D01*
X146226535Y-32755557D01*
X146094896Y-32752938D01*
X145932276Y-32750994D01*
X145739396Y-32749739D01*
X145516974Y-32749187D01*
X145459755Y-32749161D01*
X145258218Y-32749254D01*
G36*
X155247086Y-32747883D02*
G01*
X155096945Y-32748465D01*
X154953543Y-32749588D01*
X154820569Y-32751259D01*
X154701716Y-32753483D01*
X154600675Y-32756268D01*
X154521135Y-32759620D01*
X154466789Y-32763546D01*
X154444237Y-32767018D01*
X154390521Y-32788107D01*
X154340814Y-32822517D01*
X154291370Y-32874426D01*
X154238442Y-32948011D01*
X154178283Y-33047448D01*
X154154007Y-33090607D01*
X154094185Y-33197832D01*
X154028433Y-33314496D01*
X153958765Y-33437136D01*
X153887194Y-33562287D01*
X153815732Y-33686488D01*
X153746392Y-33806274D01*
X153681187Y-33918182D01*
X153622129Y-34018750D01*
X153571231Y-34104512D01*
X153530506Y-34172007D01*
X153501967Y-34217771D01*
X153487627Y-34238340D01*
X153486534Y-34239143D01*
X153476037Y-34224896D01*
X153450658Y-34184203D01*
X153412184Y-34120104D01*
X153362398Y-34035637D01*
X153303084Y-33933839D01*
X153236027Y-33817748D01*
X153163010Y-33690404D01*
X153121058Y-33616843D01*
X153023939Y-33446265D01*
X152942029Y-33302635D01*
X152873771Y-33183474D01*
X152817609Y-33086302D01*
X152771988Y-33008640D01*
X152735352Y-32948011D01*
X152706145Y-32901933D01*
X152682810Y-32867929D01*
X152663794Y-32843519D01*
X152647538Y-32826225D01*
X152632489Y-32813568D01*
X152617089Y-32803067D01*
X152605977Y-32796114D01*
X152543933Y-32757533D01*
X151599013Y-32752755D01*
X150654092Y-32747978D01*
X150674542Y-32786622D01*
X150685730Y-32806761D01*
X150712388Y-32854230D01*
X150753308Y-32926883D01*
X150807277Y-33022578D01*
X150873085Y-33139169D01*
X150949521Y-33274514D01*
X151035375Y-33426468D01*
X151129434Y-33592888D01*
X151230490Y-33771628D01*
X151337330Y-33960547D01*
X151448745Y-34157498D01*
X151456648Y-34171467D01*
X151570318Y-34372383D01*
X151680914Y-34567880D01*
X151787068Y-34755542D01*
X151887414Y-34932950D01*
X151980584Y-35097687D01*
X152065212Y-35247336D01*
X152139930Y-35379480D01*
X152203371Y-35491702D01*
X152254169Y-35581583D01*
X152290957Y-35646708D01*
X152311707Y-35683486D01*
X152366125Y-35786975D01*
X152400110Y-35871256D01*
X152414773Y-35943254D01*
X152411222Y-36009893D01*
X152390566Y-36078099D01*
X152379119Y-36104451D01*
X152362778Y-36136422D01*
X152331349Y-36194666D01*
X152286570Y-36276069D01*
X152230183Y-36377515D01*
X152163927Y-36495889D01*
X152089544Y-36628076D01*
X152008774Y-36770961D01*
X151923356Y-36921428D01*
X151888643Y-36982400D01*
X151771323Y-37188457D01*
X151653067Y-37396471D01*
X151535089Y-37604286D01*
X151418604Y-37809749D01*
X151304825Y-38010705D01*
X151194965Y-38205000D01*
X151090239Y-38390480D01*
X150991861Y-38564991D01*
X150901044Y-38726377D01*
X150819002Y-38872485D01*
X150746949Y-39001161D01*
X150686100Y-39110250D01*
X150637667Y-39197598D01*
X150602865Y-39261051D01*
X150582908Y-39298454D01*
X150578638Y-39307298D01*
X150577380Y-39313818D01*
X150580736Y-39319311D01*
X150591279Y-39323846D01*
X150611580Y-39327493D01*
X150644212Y-39330323D01*
X150691748Y-39332406D01*
X150756760Y-39333810D01*
X150841821Y-39334607D01*
X150949503Y-39334866D01*
X151082379Y-39334657D01*
X151243021Y-39334050D01*
X151434001Y-39333115D01*
X151513115Y-39332698D01*
X151721371Y-39331616D01*
X151898532Y-39330573D01*
X152047372Y-39329292D01*
X152170662Y-39327497D01*
X152271173Y-39324908D01*
X152351677Y-39321249D01*
X152414946Y-39316243D01*
X152463751Y-39309610D01*
X152500864Y-39301075D01*
X152529057Y-39290359D01*
X152551102Y-39277185D01*
X152569769Y-39261276D01*
X152587831Y-39242353D01*
X152605097Y-39223345D01*
X152630955Y-39189286D01*
X152667519Y-39133392D01*
X152709678Y-39063771D01*
X152747418Y-38997466D01*
X152792284Y-38916731D01*
X152846562Y-38820014D01*
X152908171Y-38710942D01*
X152975029Y-38593141D01*
X153045054Y-38470237D01*
X153116164Y-38345855D01*
X153186277Y-38223622D01*
X153253312Y-38107165D01*
X153315187Y-38000108D01*
X153369820Y-37906079D01*
X153415129Y-37828702D01*
X153449032Y-37771605D01*
X153469448Y-37738413D01*
X153474111Y-37731729D01*
X153483002Y-37732815D01*
X153499416Y-37749599D01*
X153524611Y-37784080D01*
X153559844Y-37838256D01*
X153606372Y-37914129D01*
X153665454Y-38013697D01*
X153738347Y-38138960D01*
X153825512Y-38290529D01*
X153902988Y-38425949D01*
X153978775Y-38558699D01*
X154050376Y-38684383D01*
X154115291Y-38798603D01*
X154171023Y-38896963D01*
X154215072Y-38975067D01*
X154244940Y-39028518D01*
X154246496Y-39031333D01*
X154298693Y-39123096D01*
X154341057Y-39189902D01*
X154378093Y-39237478D01*
X154414300Y-39271552D01*
X154454181Y-39297849D01*
X154457400Y-39299642D01*
X154471180Y-39305708D01*
X154490613Y-39310886D01*
X154518398Y-39315267D01*
X154557235Y-39318939D01*
X154609823Y-39321990D01*
X154678860Y-39324511D01*
X154767046Y-39326591D01*
X154877080Y-39328317D01*
X155011661Y-39329780D01*
X155173488Y-39331068D01*
X155365261Y-39332271D01*
X155462667Y-39332812D01*
X156417135Y-39337957D01*
X156353088Y-39222745D01*
X156325181Y-39172830D01*
X156282217Y-39096370D01*
X156225845Y-38996277D01*
X156157714Y-38875468D01*
X156079473Y-38736855D01*
X155992769Y-38583353D01*
X155899253Y-38417875D01*
X155800573Y-38243337D01*
X155698378Y-38062651D01*
X155594316Y-37878733D01*
X155490036Y-37694496D01*
X155387187Y-37512854D01*
X155287417Y-37336722D01*
X155192377Y-37169013D01*
X155103713Y-37012642D01*
X155023075Y-36870523D01*
X154952113Y-36745569D01*
X154892473Y-36640696D01*
X154853015Y-36571446D01*
X154786302Y-36453254D01*
X154724467Y-36341288D01*
X154669731Y-36239759D01*
X154624316Y-36152881D01*
X154590446Y-36084864D01*
X154570341Y-36039922D01*
X154566276Y-36027951D01*
X154557933Y-35982468D01*
X154557984Y-35937455D01*
X154568200Y-35887691D01*
X154590352Y-35827954D01*
X154626209Y-35753025D01*
X154677542Y-35657680D01*
X154713457Y-35593867D01*
X154788869Y-35461055D01*
X154872655Y-35313322D01*
X154963494Y-35153007D01*
X155060066Y-34982450D01*
X155161050Y-34803993D01*
X155265124Y-34619974D01*
X155370969Y-34432735D01*
X155477263Y-34244615D01*
X155582686Y-34057954D01*
X155685917Y-33875092D01*
X155785634Y-33698370D01*
X155880518Y-33530128D01*
X155969248Y-33372706D01*
X156050501Y-33228444D01*
X156122959Y-33099683D01*
X156185300Y-32988761D01*
X156236204Y-32898021D01*
X156274348Y-32829801D01*
X156298414Y-32786442D01*
X156307057Y-32770348D01*
X156292543Y-32765886D01*
X156247857Y-32761898D01*
X156176689Y-32758393D01*
X156082731Y-32755374D01*
X155969674Y-32752851D01*
X155841208Y-32750829D01*
X155701026Y-32749314D01*
X155552817Y-32748314D01*
X155400273Y-32747835D01*
X155247086Y-32747883D01*
G37*
X155247086Y-32747883D02*
X155096945Y-32748465D01*
X154953543Y-32749588D01*
X154820569Y-32751259D01*
X154701716Y-32753483D01*
X154600675Y-32756268D01*
X154521135Y-32759620D01*
X154466789Y-32763546D01*
X154444237Y-32767018D01*
X154390521Y-32788107D01*
X154340814Y-32822517D01*
X154291370Y-32874426D01*
X154238442Y-32948011D01*
X154178283Y-33047448D01*
X154154007Y-33090607D01*
X154094185Y-33197832D01*
X154028433Y-33314496D01*
X153958765Y-33437136D01*
X153887194Y-33562287D01*
X153815732Y-33686488D01*
X153746392Y-33806274D01*
X153681187Y-33918182D01*
X153622129Y-34018750D01*
X153571231Y-34104512D01*
X153530506Y-34172007D01*
X153501967Y-34217771D01*
X153487627Y-34238340D01*
X153486534Y-34239143D01*
X153476037Y-34224896D01*
X153450658Y-34184203D01*
X153412184Y-34120104D01*
X153362398Y-34035637D01*
X153303084Y-33933839D01*
X153236027Y-33817748D01*
X153163010Y-33690404D01*
X153121058Y-33616843D01*
X153023939Y-33446265D01*
X152942029Y-33302635D01*
X152873771Y-33183474D01*
X152817609Y-33086302D01*
X152771988Y-33008640D01*
X152735352Y-32948011D01*
X152706145Y-32901933D01*
X152682810Y-32867929D01*
X152663794Y-32843519D01*
X152647538Y-32826225D01*
X152632489Y-32813568D01*
X152617089Y-32803067D01*
X152605977Y-32796114D01*
X152543933Y-32757533D01*
X151599013Y-32752755D01*
X150654092Y-32747978D01*
X150674542Y-32786622D01*
X150685730Y-32806761D01*
X150712388Y-32854230D01*
X150753308Y-32926883D01*
X150807277Y-33022578D01*
X150873085Y-33139169D01*
X150949521Y-33274514D01*
X151035375Y-33426468D01*
X151129434Y-33592888D01*
X151230490Y-33771628D01*
X151337330Y-33960547D01*
X151448745Y-34157498D01*
X151456648Y-34171467D01*
X151570318Y-34372383D01*
X151680914Y-34567880D01*
X151787068Y-34755542D01*
X151887414Y-34932950D01*
X151980584Y-35097687D01*
X152065212Y-35247336D01*
X152139930Y-35379480D01*
X152203371Y-35491702D01*
X152254169Y-35581583D01*
X152290957Y-35646708D01*
X152311707Y-35683486D01*
X152366125Y-35786975D01*
X152400110Y-35871256D01*
X152414773Y-35943254D01*
X152411222Y-36009893D01*
X152390566Y-36078099D01*
X152379119Y-36104451D01*
X152362778Y-36136422D01*
X152331349Y-36194666D01*
X152286570Y-36276069D01*
X152230183Y-36377515D01*
X152163927Y-36495889D01*
X152089544Y-36628076D01*
X152008774Y-36770961D01*
X151923356Y-36921428D01*
X151888643Y-36982400D01*
X151771323Y-37188457D01*
X151653067Y-37396471D01*
X151535089Y-37604286D01*
X151418604Y-37809749D01*
X151304825Y-38010705D01*
X151194965Y-38205000D01*
X151090239Y-38390480D01*
X150991861Y-38564991D01*
X150901044Y-38726377D01*
X150819002Y-38872485D01*
X150746949Y-39001161D01*
X150686100Y-39110250D01*
X150637667Y-39197598D01*
X150602865Y-39261051D01*
X150582908Y-39298454D01*
X150578638Y-39307298D01*
X150577380Y-39313818D01*
X150580736Y-39319311D01*
X150591279Y-39323846D01*
X150611580Y-39327493D01*
X150644212Y-39330323D01*
X150691748Y-39332406D01*
X150756760Y-39333810D01*
X150841821Y-39334607D01*
X150949503Y-39334866D01*
X151082379Y-39334657D01*
X151243021Y-39334050D01*
X151434001Y-39333115D01*
X151513115Y-39332698D01*
X151721371Y-39331616D01*
X151898532Y-39330573D01*
X152047372Y-39329292D01*
X152170662Y-39327497D01*
X152271173Y-39324908D01*
X152351677Y-39321249D01*
X152414946Y-39316243D01*
X152463751Y-39309610D01*
X152500864Y-39301075D01*
X152529057Y-39290359D01*
X152551102Y-39277185D01*
X152569769Y-39261276D01*
X152587831Y-39242353D01*
X152605097Y-39223345D01*
X152630955Y-39189286D01*
X152667519Y-39133392D01*
X152709678Y-39063771D01*
X152747418Y-38997466D01*
X152792284Y-38916731D01*
X152846562Y-38820014D01*
X152908171Y-38710942D01*
X152975029Y-38593141D01*
X153045054Y-38470237D01*
X153116164Y-38345855D01*
X153186277Y-38223622D01*
X153253312Y-38107165D01*
X153315187Y-38000108D01*
X153369820Y-37906079D01*
X153415129Y-37828702D01*
X153449032Y-37771605D01*
X153469448Y-37738413D01*
X153474111Y-37731729D01*
X153483002Y-37732815D01*
X153499416Y-37749599D01*
X153524611Y-37784080D01*
X153559844Y-37838256D01*
X153606372Y-37914129D01*
X153665454Y-38013697D01*
X153738347Y-38138960D01*
X153825512Y-38290529D01*
X153902988Y-38425949D01*
X153978775Y-38558699D01*
X154050376Y-38684383D01*
X154115291Y-38798603D01*
X154171023Y-38896963D01*
X154215072Y-38975067D01*
X154244940Y-39028518D01*
X154246496Y-39031333D01*
X154298693Y-39123096D01*
X154341057Y-39189902D01*
X154378093Y-39237478D01*
X154414300Y-39271552D01*
X154454181Y-39297849D01*
X154457400Y-39299642D01*
X154471180Y-39305708D01*
X154490613Y-39310886D01*
X154518398Y-39315267D01*
X154557235Y-39318939D01*
X154609823Y-39321990D01*
X154678860Y-39324511D01*
X154767046Y-39326591D01*
X154877080Y-39328317D01*
X155011661Y-39329780D01*
X155173488Y-39331068D01*
X155365261Y-39332271D01*
X155462667Y-39332812D01*
X156417135Y-39337957D01*
X156353088Y-39222745D01*
X156325181Y-39172830D01*
X156282217Y-39096370D01*
X156225845Y-38996277D01*
X156157714Y-38875468D01*
X156079473Y-38736855D01*
X155992769Y-38583353D01*
X155899253Y-38417875D01*
X155800573Y-38243337D01*
X155698378Y-38062651D01*
X155594316Y-37878733D01*
X155490036Y-37694496D01*
X155387187Y-37512854D01*
X155287417Y-37336722D01*
X155192377Y-37169013D01*
X155103713Y-37012642D01*
X155023075Y-36870523D01*
X154952113Y-36745569D01*
X154892473Y-36640696D01*
X154853015Y-36571446D01*
X154786302Y-36453254D01*
X154724467Y-36341288D01*
X154669731Y-36239759D01*
X154624316Y-36152881D01*
X154590446Y-36084864D01*
X154570341Y-36039922D01*
X154566276Y-36027951D01*
X154557933Y-35982468D01*
X154557984Y-35937455D01*
X154568200Y-35887691D01*
X154590352Y-35827954D01*
X154626209Y-35753025D01*
X154677542Y-35657680D01*
X154713457Y-35593867D01*
X154788869Y-35461055D01*
X154872655Y-35313322D01*
X154963494Y-35153007D01*
X155060066Y-34982450D01*
X155161050Y-34803993D01*
X155265124Y-34619974D01*
X155370969Y-34432735D01*
X155477263Y-34244615D01*
X155582686Y-34057954D01*
X155685917Y-33875092D01*
X155785634Y-33698370D01*
X155880518Y-33530128D01*
X155969248Y-33372706D01*
X156050501Y-33228444D01*
X156122959Y-33099683D01*
X156185300Y-32988761D01*
X156236204Y-32898021D01*
X156274348Y-32829801D01*
X156298414Y-32786442D01*
X156307057Y-32770348D01*
X156292543Y-32765886D01*
X156247857Y-32761898D01*
X156176689Y-32758393D01*
X156082731Y-32755374D01*
X155969674Y-32752851D01*
X155841208Y-32750829D01*
X155701026Y-32749314D01*
X155552817Y-32748314D01*
X155400273Y-32747835D01*
X155247086Y-32747883D01*
G36*
X161577867Y-39336420D02*
G01*
X162513434Y-39332043D01*
X163449000Y-39327666D01*
X163453313Y-37567475D01*
X163457625Y-35807284D01*
X163821613Y-36404052D01*
X163899878Y-36532550D01*
X163972372Y-36651924D01*
X164037253Y-36759112D01*
X164092678Y-36851054D01*
X164136803Y-36924688D01*
X164167785Y-36976953D01*
X164183782Y-37004789D01*
X164185600Y-37008543D01*
X164169736Y-37011469D01*
X164126418Y-37013886D01*
X164062059Y-37015561D01*
X163983069Y-37016259D01*
X163973933Y-37016267D01*
X163762267Y-37016267D01*
X163762267Y-38692666D01*
X164393033Y-38693080D01*
X164555960Y-38693667D01*
X164704197Y-38695147D01*
X164834318Y-38697433D01*
X164942895Y-38700439D01*
X165026501Y-38704078D01*
X165081707Y-38708263D01*
X165099661Y-38710974D01*
X165157024Y-38728854D01*
X165207738Y-38756803D01*
X165256382Y-38799291D01*
X165307537Y-38860788D01*
X165365782Y-38945762D01*
X165406201Y-39010141D01*
X165469714Y-39111606D01*
X165520550Y-39187481D01*
X165562288Y-39241883D01*
X165598507Y-39278933D01*
X165632787Y-39302750D01*
X165668706Y-39317451D01*
X165674771Y-39319213D01*
X165700147Y-39321792D01*
X165754837Y-39324219D01*
X165835303Y-39326480D01*
X165938007Y-39328559D01*
X166059411Y-39330441D01*
X166195977Y-39332112D01*
X166344167Y-39333554D01*
X166500443Y-39334755D01*
X166661266Y-39335699D01*
X166823099Y-39336369D01*
X166982404Y-39336753D01*
X167135642Y-39336834D01*
X167279276Y-39336597D01*
X167409767Y-39336027D01*
X167523577Y-39335109D01*
X167617169Y-39333828D01*
X167687004Y-39332169D01*
X167729544Y-39330117D01*
X167741600Y-39328034D01*
X167732608Y-39312588D01*
X167705948Y-39269297D01*
X167662095Y-39198910D01*
X167601523Y-39102181D01*
X167524708Y-38979859D01*
X167432123Y-38832697D01*
X167324245Y-38661446D01*
X167201548Y-38466856D01*
X167064505Y-38249680D01*
X166913593Y-38010669D01*
X166749286Y-37750573D01*
X166572059Y-37470145D01*
X166382385Y-37170135D01*
X166180742Y-36851295D01*
X165967602Y-36514376D01*
X165743441Y-36160129D01*
X165508733Y-35789306D01*
X165263953Y-35402658D01*
X165009577Y-35000937D01*
X164746078Y-34584893D01*
X164473932Y-34155278D01*
X164193613Y-33712843D01*
X164071119Y-33519533D01*
X163986449Y-33386414D01*
X163905902Y-33260725D01*
X163831580Y-33145676D01*
X163765584Y-33044479D01*
X163710016Y-32960346D01*
X163666978Y-32896489D01*
X163638570Y-32856117D01*
X163629280Y-32844348D01*
X163610922Y-32824590D01*
X163593273Y-32807771D01*
X163573596Y-32793654D01*
X163549152Y-32782003D01*
X163517204Y-32772581D01*
X163475015Y-32765152D01*
X163419846Y-32759479D01*
X163348960Y-32755325D01*
X163259620Y-32752454D01*
X163149087Y-32750629D01*
X163014624Y-32749614D01*
X162853494Y-32749172D01*
X162662959Y-32749067D01*
X161577867Y-32749067D01*
X161577867Y-39336420D01*
G37*
X161577867Y-39336420D02*
X162513434Y-39332043D01*
X163449000Y-39327666D01*
X163453313Y-37567475D01*
X163457625Y-35807284D01*
X163821613Y-36404052D01*
X163899878Y-36532550D01*
X163972372Y-36651924D01*
X164037253Y-36759112D01*
X164092678Y-36851054D01*
X164136803Y-36924688D01*
X164167785Y-36976953D01*
X164183782Y-37004789D01*
X164185600Y-37008543D01*
X164169736Y-37011469D01*
X164126418Y-37013886D01*
X164062059Y-37015561D01*
X163983069Y-37016259D01*
X163973933Y-37016267D01*
X163762267Y-37016267D01*
X163762267Y-38692666D01*
X164393033Y-38693080D01*
X164555960Y-38693667D01*
X164704197Y-38695147D01*
X164834318Y-38697433D01*
X164942895Y-38700439D01*
X165026501Y-38704078D01*
X165081707Y-38708263D01*
X165099661Y-38710974D01*
X165157024Y-38728854D01*
X165207738Y-38756803D01*
X165256382Y-38799291D01*
X165307537Y-38860788D01*
X165365782Y-38945762D01*
X165406201Y-39010141D01*
X165469714Y-39111606D01*
X165520550Y-39187481D01*
X165562288Y-39241883D01*
X165598507Y-39278933D01*
X165632787Y-39302750D01*
X165668706Y-39317451D01*
X165674771Y-39319213D01*
X165700147Y-39321792D01*
X165754837Y-39324219D01*
X165835303Y-39326480D01*
X165938007Y-39328559D01*
X166059411Y-39330441D01*
X166195977Y-39332112D01*
X166344167Y-39333554D01*
X166500443Y-39334755D01*
X166661266Y-39335699D01*
X166823099Y-39336369D01*
X166982404Y-39336753D01*
X167135642Y-39336834D01*
X167279276Y-39336597D01*
X167409767Y-39336027D01*
X167523577Y-39335109D01*
X167617169Y-39333828D01*
X167687004Y-39332169D01*
X167729544Y-39330117D01*
X167741600Y-39328034D01*
X167732608Y-39312588D01*
X167705948Y-39269297D01*
X167662095Y-39198910D01*
X167601523Y-39102181D01*
X167524708Y-38979859D01*
X167432123Y-38832697D01*
X167324245Y-38661446D01*
X167201548Y-38466856D01*
X167064505Y-38249680D01*
X166913593Y-38010669D01*
X166749286Y-37750573D01*
X166572059Y-37470145D01*
X166382385Y-37170135D01*
X166180742Y-36851295D01*
X165967602Y-36514376D01*
X165743441Y-36160129D01*
X165508733Y-35789306D01*
X165263953Y-35402658D01*
X165009577Y-35000937D01*
X164746078Y-34584893D01*
X164473932Y-34155278D01*
X164193613Y-33712843D01*
X164071119Y-33519533D01*
X163986449Y-33386414D01*
X163905902Y-33260725D01*
X163831580Y-33145676D01*
X163765584Y-33044479D01*
X163710016Y-32960346D01*
X163666978Y-32896489D01*
X163638570Y-32856117D01*
X163629280Y-32844348D01*
X163610922Y-32824590D01*
X163593273Y-32807771D01*
X163573596Y-32793654D01*
X163549152Y-32782003D01*
X163517204Y-32772581D01*
X163475015Y-32765152D01*
X163419846Y-32759479D01*
X163348960Y-32755325D01*
X163259620Y-32752454D01*
X163149087Y-32750629D01*
X163014624Y-32749614D01*
X162853494Y-32749172D01*
X162662959Y-32749067D01*
X161577867Y-32749067D01*
X161577867Y-39336420D01*
G36*
X158397352Y-32679443D02*
G01*
X158249146Y-32688551D01*
X158123753Y-32702308D01*
X158106533Y-32704923D01*
X157841182Y-32756427D01*
X157591727Y-32823421D01*
X157361798Y-32904522D01*
X157155020Y-32998348D01*
X156975022Y-33103515D01*
X156880065Y-33172533D01*
X156711359Y-33327769D01*
X156565258Y-33505560D01*
X156442963Y-33702218D01*
X156345671Y-33914055D01*
X156274580Y-34137385D01*
X156230889Y-34368519D01*
X156215796Y-34603770D01*
X156230500Y-34839451D01*
X156270240Y-35049042D01*
X156323256Y-35222741D01*
X156391293Y-35378201D01*
X156479101Y-35523869D01*
X156591431Y-35668194D01*
X156663142Y-35747677D01*
X156789700Y-35882210D01*
X156614150Y-36064950D01*
X156499725Y-36191250D01*
X156408303Y-36309864D01*
X156333620Y-36430142D01*
X156269410Y-36561433D01*
X156249004Y-36609867D01*
X156211637Y-36706042D01*
X156183182Y-36792145D01*
X156162512Y-36875385D01*
X156148502Y-36962966D01*
X156140024Y-37062097D01*
X156135953Y-37179983D01*
X156135163Y-37323831D01*
X156135213Y-37338000D01*
X156135927Y-37456920D01*
X156137444Y-37549074D01*
X156140473Y-37621564D01*
X156145720Y-37681490D01*
X156153895Y-37735954D01*
X156165705Y-37792056D01*
X156181858Y-37856898D01*
X156190078Y-37888333D01*
X156269743Y-38133460D01*
X156374189Y-38356635D01*
X156503776Y-38558165D01*
X156658864Y-38738357D01*
X156839812Y-38897518D01*
X157046980Y-39035954D01*
X157280729Y-39153973D01*
X157541417Y-39251882D01*
X157829405Y-39329987D01*
X157897464Y-39344751D01*
X158084651Y-39376507D01*
X158294850Y-39399938D01*
X158518161Y-39414697D01*
X158744684Y-39420441D01*
X158964519Y-39416825D01*
X159167765Y-39403503D01*
X159265235Y-39392408D01*
X159499554Y-39351719D01*
X159730527Y-39293973D01*
X159950501Y-39221648D01*
X160151823Y-39137222D01*
X160307478Y-39054887D01*
X160471934Y-38938446D01*
X160625644Y-38792528D01*
X160766584Y-38620381D01*
X160892731Y-38425252D01*
X161002062Y-38210388D01*
X161092553Y-37979037D01*
X161162182Y-37734446D01*
X161179394Y-37655551D01*
X161196398Y-37562321D01*
X161210211Y-37468973D01*
X161219326Y-37386893D01*
X161222267Y-37331639D01*
X161222267Y-37219466D01*
X160282467Y-37219466D01*
X160079547Y-37219530D01*
X159907908Y-37219771D01*
X159764960Y-37220267D01*
X159648119Y-37221094D01*
X159554796Y-37222330D01*
X159482405Y-37224049D01*
X159428358Y-37226331D01*
X159390069Y-37229250D01*
X159364951Y-37232884D01*
X159350417Y-37237309D01*
X159343879Y-37242602D01*
X159342667Y-37247323D01*
X159333766Y-37285449D01*
X159310088Y-37342848D01*
X159276171Y-37410972D01*
X159236551Y-37481274D01*
X159195767Y-37545207D01*
X159158726Y-37593805D01*
X159058769Y-37682730D01*
X158938759Y-37748858D01*
X158805684Y-37789784D01*
X158666530Y-37803104D01*
X158573100Y-37795344D01*
X158414481Y-37758014D01*
X158282642Y-37701249D01*
X158178074Y-37625522D01*
X158101264Y-37531308D01*
X158052701Y-37419083D01*
X158032876Y-37289320D01*
X158032426Y-37270266D01*
X158033728Y-37197725D01*
X158041382Y-37144559D01*
X158058593Y-37096421D01*
X158081159Y-37052330D01*
X158134987Y-36971993D01*
X158201887Y-36909457D01*
X158292210Y-36855061D01*
X158292800Y-36854761D01*
X158340339Y-36832615D01*
X158388687Y-36815203D01*
X158442624Y-36801976D01*
X158506927Y-36792384D01*
X158586378Y-36785879D01*
X158685754Y-36781912D01*
X158809834Y-36779935D01*
X158948967Y-36779401D01*
X159376533Y-36779200D01*
X159376533Y-35204400D01*
X158962500Y-35204400D01*
X158798668Y-35203478D01*
X158664037Y-35200134D01*
X158553975Y-35193500D01*
X158463851Y-35182710D01*
X158389037Y-35166895D01*
X158324899Y-35145188D01*
X158266809Y-35116721D01*
X158210135Y-35080627D01*
X158178253Y-35057482D01*
X158111873Y-34987639D01*
X158066466Y-34897742D01*
X158042251Y-34794500D01*
X158039450Y-34684624D01*
X158058282Y-34574823D01*
X158098969Y-34471806D01*
X158156269Y-34388361D01*
X158243682Y-34310309D01*
X158349838Y-34255080D01*
X158478039Y-34221335D01*
X158598526Y-34208915D01*
X158760390Y-34213603D01*
X158900744Y-34244411D01*
X159019796Y-34301508D01*
X159117752Y-34385063D01*
X159194821Y-34495246D01*
X159251208Y-34632225D01*
X159282783Y-34768367D01*
X159293401Y-34831867D01*
X161103733Y-34831867D01*
X161103398Y-34717567D01*
X161087252Y-34487725D01*
X161041732Y-34255979D01*
X160969217Y-34027603D01*
X160872087Y-33807870D01*
X160752722Y-33602051D01*
X160613500Y-33415420D01*
X160456800Y-33253250D01*
X160433327Y-33232560D01*
X160265396Y-33101593D01*
X160086447Y-32990279D01*
X159892336Y-32896902D01*
X159678919Y-32819748D01*
X159442054Y-32757100D01*
X159177596Y-32707245D01*
X159156400Y-32703953D01*
X159033062Y-32689683D01*
X158886226Y-32680105D01*
X158725154Y-32675212D01*
X158559109Y-32674994D01*
X158397352Y-32679443D01*
G37*
X158397352Y-32679443D02*
X158249146Y-32688551D01*
X158123753Y-32702308D01*
X158106533Y-32704923D01*
X157841182Y-32756427D01*
X157591727Y-32823421D01*
X157361798Y-32904522D01*
X157155020Y-32998348D01*
X156975022Y-33103515D01*
X156880065Y-33172533D01*
X156711359Y-33327769D01*
X156565258Y-33505560D01*
X156442963Y-33702218D01*
X156345671Y-33914055D01*
X156274580Y-34137385D01*
X156230889Y-34368519D01*
X156215796Y-34603770D01*
X156230500Y-34839451D01*
X156270240Y-35049042D01*
X156323256Y-35222741D01*
X156391293Y-35378201D01*
X156479101Y-35523869D01*
X156591431Y-35668194D01*
X156663142Y-35747677D01*
X156789700Y-35882210D01*
X156614150Y-36064950D01*
X156499725Y-36191250D01*
X156408303Y-36309864D01*
X156333620Y-36430142D01*
X156269410Y-36561433D01*
X156249004Y-36609867D01*
X156211637Y-36706042D01*
X156183182Y-36792145D01*
X156162512Y-36875385D01*
X156148502Y-36962966D01*
X156140024Y-37062097D01*
X156135953Y-37179983D01*
X156135163Y-37323831D01*
X156135213Y-37338000D01*
X156135927Y-37456920D01*
X156137444Y-37549074D01*
X156140473Y-37621564D01*
X156145720Y-37681490D01*
X156153895Y-37735954D01*
X156165705Y-37792056D01*
X156181858Y-37856898D01*
X156190078Y-37888333D01*
X156269743Y-38133460D01*
X156374189Y-38356635D01*
X156503776Y-38558165D01*
X156658864Y-38738357D01*
X156839812Y-38897518D01*
X157046980Y-39035954D01*
X157280729Y-39153973D01*
X157541417Y-39251882D01*
X157829405Y-39329987D01*
X157897464Y-39344751D01*
X158084651Y-39376507D01*
X158294850Y-39399938D01*
X158518161Y-39414697D01*
X158744684Y-39420441D01*
X158964519Y-39416825D01*
X159167765Y-39403503D01*
X159265235Y-39392408D01*
X159499554Y-39351719D01*
X159730527Y-39293973D01*
X159950501Y-39221648D01*
X160151823Y-39137222D01*
X160307478Y-39054887D01*
X160471934Y-38938446D01*
X160625644Y-38792528D01*
X160766584Y-38620381D01*
X160892731Y-38425252D01*
X161002062Y-38210388D01*
X161092553Y-37979037D01*
X161162182Y-37734446D01*
X161179394Y-37655551D01*
X161196398Y-37562321D01*
X161210211Y-37468973D01*
X161219326Y-37386893D01*
X161222267Y-37331639D01*
X161222267Y-37219466D01*
X160282467Y-37219466D01*
X160079547Y-37219530D01*
X159907908Y-37219771D01*
X159764960Y-37220267D01*
X159648119Y-37221094D01*
X159554796Y-37222330D01*
X159482405Y-37224049D01*
X159428358Y-37226331D01*
X159390069Y-37229250D01*
X159364951Y-37232884D01*
X159350417Y-37237309D01*
X159343879Y-37242602D01*
X159342667Y-37247323D01*
X159333766Y-37285449D01*
X159310088Y-37342848D01*
X159276171Y-37410972D01*
X159236551Y-37481274D01*
X159195767Y-37545207D01*
X159158726Y-37593805D01*
X159058769Y-37682730D01*
X158938759Y-37748858D01*
X158805684Y-37789784D01*
X158666530Y-37803104D01*
X158573100Y-37795344D01*
X158414481Y-37758014D01*
X158282642Y-37701249D01*
X158178074Y-37625522D01*
X158101264Y-37531308D01*
X158052701Y-37419083D01*
X158032876Y-37289320D01*
X158032426Y-37270266D01*
X158033728Y-37197725D01*
X158041382Y-37144559D01*
X158058593Y-37096421D01*
X158081159Y-37052330D01*
X158134987Y-36971993D01*
X158201887Y-36909457D01*
X158292210Y-36855061D01*
X158292800Y-36854761D01*
X158340339Y-36832615D01*
X158388687Y-36815203D01*
X158442624Y-36801976D01*
X158506927Y-36792384D01*
X158586378Y-36785879D01*
X158685754Y-36781912D01*
X158809834Y-36779935D01*
X158948967Y-36779401D01*
X159376533Y-36779200D01*
X159376533Y-35204400D01*
X158962500Y-35204400D01*
X158798668Y-35203478D01*
X158664037Y-35200134D01*
X158553975Y-35193500D01*
X158463851Y-35182710D01*
X158389037Y-35166895D01*
X158324899Y-35145188D01*
X158266809Y-35116721D01*
X158210135Y-35080627D01*
X158178253Y-35057482D01*
X158111873Y-34987639D01*
X158066466Y-34897742D01*
X158042251Y-34794500D01*
X158039450Y-34684624D01*
X158058282Y-34574823D01*
X158098969Y-34471806D01*
X158156269Y-34388361D01*
X158243682Y-34310309D01*
X158349838Y-34255080D01*
X158478039Y-34221335D01*
X158598526Y-34208915D01*
X158760390Y-34213603D01*
X158900744Y-34244411D01*
X159019796Y-34301508D01*
X159117752Y-34385063D01*
X159194821Y-34495246D01*
X159251208Y-34632225D01*
X159282783Y-34768367D01*
X159293401Y-34831867D01*
X161103733Y-34831867D01*
X161103398Y-34717567D01*
X161087252Y-34487725D01*
X161041732Y-34255979D01*
X160969217Y-34027603D01*
X160872087Y-33807870D01*
X160752722Y-33602051D01*
X160613500Y-33415420D01*
X160456800Y-33253250D01*
X160433327Y-33232560D01*
X160265396Y-33101593D01*
X160086447Y-32990279D01*
X159892336Y-32896902D01*
X159678919Y-32819748D01*
X159442054Y-32757100D01*
X159177596Y-32707245D01*
X159156400Y-32703953D01*
X159033062Y-32689683D01*
X158886226Y-32680105D01*
X158725154Y-32675212D01*
X158559109Y-32674994D01*
X158397352Y-32679443D01*
D12*
%TO.C,J9*%
X175920000Y-170129000D02*
X175920000Y-159969000D01*
X177190000Y-170129000D02*
X169570000Y-170129000D01*
X169570000Y-170129000D02*
X169570000Y-159969000D01*
X169570000Y-159969000D02*
X177190000Y-159969000D01*
X177190000Y-159969000D02*
X177190000Y-170129000D01*
%TO.C,J8*%
X177190000Y-149276000D02*
X177190000Y-159436000D01*
X169570000Y-149276000D02*
X177190000Y-149276000D01*
X169570000Y-159436000D02*
X169570000Y-149276000D01*
X177190000Y-159436000D02*
X169570000Y-159436000D01*
X175920000Y-159436000D02*
X175920000Y-149276000D01*
%TO.C,R44*%
X160058263Y-126737000D02*
X161505737Y-126737000D01*
X160058263Y-129447000D02*
X161505737Y-129447000D01*
%TO.C,J7*%
X177279000Y-117221000D02*
X177279000Y-127381000D01*
X169659000Y-117221000D02*
X177279000Y-117221000D01*
X169659000Y-127381000D02*
X169659000Y-117221000D01*
X177279000Y-127381000D02*
X169659000Y-127381000D01*
X176009000Y-127381000D02*
X176009000Y-117221000D01*
%TO.C,J6*%
X177279000Y-128016000D02*
X177279000Y-138176000D01*
X169659000Y-128016000D02*
X177279000Y-128016000D01*
X169659000Y-138176000D02*
X169659000Y-128016000D01*
X177279000Y-138176000D02*
X169659000Y-138176000D01*
X176009000Y-138176000D02*
X176009000Y-128016000D01*
%TO.C,U5*%
X144984000Y-108332000D02*
X143169000Y-108332000D01*
X144984000Y-108577000D02*
X144984000Y-108332000D01*
X148844000Y-108577000D02*
X144984000Y-108577000D01*
X152704000Y-108577000D02*
X152704000Y-108332000D01*
X148844000Y-108577000D02*
X152704000Y-108577000D01*
X144984000Y-90457000D02*
X144984000Y-90702000D01*
X148844000Y-90457000D02*
X144984000Y-90457000D01*
X152704000Y-90457000D02*
X152704000Y-90702000D01*
X148844000Y-90457000D02*
X152704000Y-90457000D01*
%TO.C,U4*%
X123394000Y-108332000D02*
X121579000Y-108332000D01*
X123394000Y-108577000D02*
X123394000Y-108332000D01*
X127254000Y-108577000D02*
X123394000Y-108577000D01*
X131114000Y-108577000D02*
X131114000Y-108332000D01*
X127254000Y-108577000D02*
X131114000Y-108577000D01*
X123394000Y-90457000D02*
X123394000Y-90702000D01*
X127254000Y-90457000D02*
X123394000Y-90457000D01*
X131114000Y-90457000D02*
X131114000Y-90702000D01*
X127254000Y-90457000D02*
X131114000Y-90457000D01*
%TO.C,U3*%
X100534000Y-108332000D02*
X98719000Y-108332000D01*
X100534000Y-108577000D02*
X100534000Y-108332000D01*
X104394000Y-108577000D02*
X100534000Y-108577000D01*
X108254000Y-108577000D02*
X108254000Y-108332000D01*
X104394000Y-108577000D02*
X108254000Y-108577000D01*
X100534000Y-90457000D02*
X100534000Y-90702000D01*
X104394000Y-90457000D02*
X100534000Y-90457000D01*
X108254000Y-90457000D02*
X108254000Y-90702000D01*
X104394000Y-90457000D02*
X108254000Y-90457000D01*
%TO.C,U2*%
X78944000Y-108332000D02*
X77129000Y-108332000D01*
X78944000Y-108577000D02*
X78944000Y-108332000D01*
X82804000Y-108577000D02*
X78944000Y-108577000D01*
X86664000Y-108577000D02*
X86664000Y-108332000D01*
X82804000Y-108577000D02*
X86664000Y-108577000D01*
X78944000Y-90457000D02*
X78944000Y-90702000D01*
X82804000Y-90457000D02*
X78944000Y-90457000D01*
X86664000Y-90457000D02*
X86664000Y-90702000D01*
X82804000Y-90457000D02*
X86664000Y-90457000D01*
%TO.C,U1*%
X57354000Y-108332000D02*
X55539000Y-108332000D01*
X57354000Y-108577000D02*
X57354000Y-108332000D01*
X61214000Y-108577000D02*
X57354000Y-108577000D01*
X65074000Y-108577000D02*
X65074000Y-108332000D01*
X61214000Y-108577000D02*
X65074000Y-108577000D01*
X57354000Y-90457000D02*
X57354000Y-90702000D01*
X61214000Y-90457000D02*
X57354000Y-90457000D01*
X65074000Y-90457000D02*
X65074000Y-90702000D01*
X61214000Y-90457000D02*
X65074000Y-90457000D01*
%TO.C,SW100*%
X49194400Y-36123200D02*
X49194400Y-33443200D01*
X42954400Y-33443200D02*
X42954400Y-36123200D01*
X43104400Y-37903200D02*
X49044400Y-37903200D01*
X43104400Y-31663200D02*
X49044400Y-31663200D01*
X47488614Y-34783200D02*
G75*
G03*
X47488614Y-34783200I-1414214J0D01*
G01*
%TO.C,R43*%
X45169000Y-204580936D02*
X45169000Y-206035064D01*
X43349000Y-204580936D02*
X43349000Y-206035064D01*
%TO.C,R42*%
X166018064Y-189962000D02*
X164563936Y-189962000D01*
X166018064Y-188142000D02*
X164563936Y-188142000D01*
%TO.C,R41*%
X45233000Y-186610936D02*
X45233000Y-188065064D01*
X43413000Y-186610936D02*
X43413000Y-188065064D01*
%TO.C,R40*%
X104365936Y-32948200D02*
X105820064Y-32948200D01*
X104365936Y-34768200D02*
X105820064Y-34768200D01*
%TO.C,R39*%
X89569936Y-32948200D02*
X91024064Y-32948200D01*
X89569936Y-34768200D02*
X91024064Y-34768200D01*
%TO.C,R38*%
X134463936Y-32948200D02*
X135918064Y-32948200D01*
X134463936Y-34768200D02*
X135918064Y-34768200D01*
%TO.C,R37*%
X74265936Y-32948200D02*
X75720064Y-32948200D01*
X74265936Y-34768200D02*
X75720064Y-34768200D01*
%TO.C,R36*%
X63411263Y-188459000D02*
X64858737Y-188459000D01*
X63411263Y-191169000D02*
X64858737Y-191169000D01*
%TO.C,R35*%
X63538263Y-175505000D02*
X64985737Y-175505000D01*
X63538263Y-178215000D02*
X64985737Y-178215000D01*
%TO.C,R34*%
X164439263Y-235513000D02*
X165886737Y-235513000D01*
X164439263Y-238223000D02*
X165886737Y-238223000D01*
%TO.C,R33*%
X118910263Y-235576000D02*
X120357737Y-235576000D01*
X118910263Y-238286000D02*
X120357737Y-238286000D01*
%TO.C,R32*%
X148882263Y-221543000D02*
X150329737Y-221543000D01*
X148882263Y-224253000D02*
X150329737Y-224253000D01*
%TO.C,R31*%
X103924263Y-221543000D02*
X105371737Y-221543000D01*
X103924263Y-224253000D02*
X105371737Y-224253000D01*
%TO.C,R30*%
X133896263Y-207509000D02*
X135343737Y-207509000D01*
X133896263Y-210219000D02*
X135343737Y-210219000D01*
%TO.C,R29*%
X164339263Y-193349000D02*
X165786737Y-193349000D01*
X164339263Y-196059000D02*
X165786737Y-196059000D01*
%TO.C,R28*%
X118910263Y-193603000D02*
X120357737Y-193603000D01*
X118910263Y-196313000D02*
X120357737Y-196313000D01*
%TO.C,R27*%
X148945263Y-179569000D02*
X150392737Y-179569000D01*
X148945263Y-182279000D02*
X150392737Y-182279000D01*
%TO.C,R26*%
X103924263Y-179506000D02*
X105371737Y-179506000D01*
X103924263Y-182216000D02*
X105371737Y-182216000D01*
%TO.C,R25*%
X133896263Y-165472000D02*
X135343737Y-165472000D01*
X133896263Y-168182000D02*
X135343737Y-168182000D01*
%TO.C,R24*%
X87859263Y-236338000D02*
X89306737Y-236338000D01*
X87859263Y-239048000D02*
X89306737Y-239048000D01*
%TO.C,R23*%
X87985263Y-224654000D02*
X89432737Y-224654000D01*
X87985263Y-227364000D02*
X89432737Y-227364000D01*
%TO.C,R22*%
X87922263Y-212462000D02*
X89369737Y-212462000D01*
X87922263Y-215172000D02*
X89369737Y-215172000D01*
%TO.C,R21*%
X87922263Y-200524000D02*
X89369737Y-200524000D01*
X87922263Y-203234000D02*
X89369737Y-203234000D01*
%TO.C,R20*%
X63475263Y-162170000D02*
X64922737Y-162170000D01*
X63475263Y-164880000D02*
X64922737Y-164880000D01*
%TO.C,R19*%
X117449263Y-149343000D02*
X118896737Y-149343000D01*
X117449263Y-152053000D02*
X118896737Y-152053000D01*
%TO.C,R18*%
X63475263Y-149343000D02*
X64922737Y-149343000D01*
X63475263Y-152053000D02*
X64922737Y-152053000D01*
%TO.C,R17*%
X99479263Y-136326000D02*
X100926737Y-136326000D01*
X99479263Y-139036000D02*
X100926737Y-139036000D01*
%TO.C,R16*%
X162535263Y-111942000D02*
X163982737Y-111942000D01*
X162535263Y-114652000D02*
X163982737Y-114652000D01*
%TO.C,R15*%
X162369263Y-80458400D02*
X163816737Y-80458400D01*
X162369263Y-83168400D02*
X163816737Y-83168400D01*
%TO.C,R14*%
X46078263Y-111939000D02*
X47525737Y-111939000D01*
X46078263Y-114649000D02*
X47525737Y-114649000D01*
%TO.C,R13*%
X46154463Y-80387300D02*
X47601937Y-80387300D01*
X46154463Y-83097300D02*
X47601937Y-83097300D01*
%TO.C,R12*%
X46638064Y-43467700D02*
X45183936Y-43467700D01*
X46638064Y-41647700D02*
X45183936Y-41647700D01*
%TO.C,R11*%
X85742600Y-65179564D02*
X85742600Y-63725436D01*
X87562600Y-65179564D02*
X87562600Y-63725436D01*
%TO.C,R10*%
X80788600Y-65179564D02*
X80788600Y-63725436D01*
X82608600Y-65179564D02*
X82608600Y-63725436D01*
%TO.C,R9*%
X101745000Y-78895564D02*
X101745000Y-77441436D01*
X103565000Y-78895564D02*
X103565000Y-77441436D01*
%TO.C,R8*%
X97680600Y-78921564D02*
X97680600Y-77467436D01*
X99500600Y-78921564D02*
X99500600Y-77467436D01*
%TO.C,R7*%
X99309600Y-63725436D02*
X99309600Y-65179564D01*
X97489600Y-63725436D02*
X97489600Y-65179564D01*
%TO.C,R6*%
X94292600Y-63725436D02*
X94292600Y-65179564D01*
X92472600Y-63725436D02*
X92472600Y-65179564D01*
%TO.C,R5*%
X122953000Y-79022564D02*
X122953000Y-77568436D01*
X124773000Y-79022564D02*
X124773000Y-77568436D01*
%TO.C,R4*%
X62061000Y-35226636D02*
X62061000Y-36680764D01*
X60241000Y-35226636D02*
X60241000Y-36680764D01*
%TO.C,R3*%
X66251000Y-35226636D02*
X66251000Y-36680764D01*
X64431000Y-35226636D02*
X64431000Y-36680764D01*
%TO.C,R2*%
X57806000Y-35226636D02*
X57806000Y-36680764D01*
X55986000Y-35226636D02*
X55986000Y-36680764D01*
%TO.C,R1*%
X53996000Y-35226636D02*
X53996000Y-36680764D01*
X52176000Y-35226636D02*
X52176000Y-36680764D01*
%TO.C,J4*%
X177292000Y-211023000D02*
X177292000Y-221183000D01*
X169672000Y-211023000D02*
X177292000Y-211023000D01*
X169672000Y-221183000D02*
X169672000Y-211023000D01*
X177292000Y-221183000D02*
X169672000Y-221183000D01*
X176022000Y-221183000D02*
X176022000Y-211023000D01*
%TO.C,J5*%
X79314600Y-68977200D02*
X79314600Y-70307200D01*
X80644600Y-68977200D02*
X79314600Y-68977200D01*
X79314600Y-71577200D02*
X79314600Y-74177200D01*
X81914600Y-71577200D02*
X79314600Y-71577200D01*
X81914600Y-68977200D02*
X81914600Y-71577200D01*
X79314600Y-74177200D02*
X130234600Y-74177200D01*
X81914600Y-68977200D02*
X130234600Y-68977200D01*
X130234600Y-68977200D02*
X130234600Y-74177200D01*
%TO.C,J2*%
X33972000Y-219545000D02*
X33972000Y-209385000D01*
X41592000Y-219545000D02*
X33972000Y-219545000D01*
X41592000Y-209385000D02*
X41592000Y-219545000D01*
X33972000Y-209385000D02*
X41592000Y-209385000D01*
X35242000Y-209385000D02*
X35242000Y-219545000D01*
%TO.C,J1*%
X33972000Y-230149000D02*
X33972000Y-219989000D01*
X41592000Y-230149000D02*
X33972000Y-230149000D01*
X41592000Y-219989000D02*
X41592000Y-230149000D01*
X33972000Y-219989000D02*
X41592000Y-219989000D01*
X35242000Y-219989000D02*
X35242000Y-230149000D01*
%TO.C,D4*%
X57374800Y-28617800D02*
X53314800Y-28617800D01*
X57374800Y-26347800D02*
X57374800Y-28617800D01*
X53314800Y-26347800D02*
X57374800Y-26347800D01*
%TO.C,D3*%
X64245000Y-28579700D02*
X60185000Y-28579700D01*
X64245000Y-26309700D02*
X64245000Y-28579700D01*
X60185000Y-26309700D02*
X64245000Y-26309700D01*
%TO.C,D2*%
X50415200Y-28567000D02*
X46355200Y-28567000D01*
X50415200Y-26297000D02*
X50415200Y-28567000D01*
X46355200Y-26297000D02*
X50415200Y-26297000D01*
%TO.C,D1*%
X43481000Y-28617800D02*
X39421000Y-28617800D01*
X43481000Y-26347800D02*
X43481000Y-28617800D01*
X39421000Y-26347800D02*
X43481000Y-26347800D01*
%TO.C,C5*%
X148132748Y-110037000D02*
X149555252Y-110037000D01*
X148132748Y-111857000D02*
X149555252Y-111857000D01*
%TO.C,C4*%
X126542748Y-110037000D02*
X127965252Y-110037000D01*
X126542748Y-111857000D02*
X127965252Y-111857000D01*
%TO.C,C3*%
X103428748Y-110444000D02*
X104851252Y-110444000D01*
X103428748Y-112264000D02*
X104851252Y-112264000D01*
%TO.C,C2*%
X82092748Y-110037000D02*
X83515252Y-110037000D01*
X82092748Y-111857000D02*
X83515252Y-111857000D01*
%TO.C,C1*%
X60502748Y-110037000D02*
X61925252Y-110037000D01*
X60502748Y-111857000D02*
X61925252Y-111857000D01*
%TO.C,J3*%
D14*
X167447980Y-231111066D02*
X168162266Y-231111066D01*
X168305123Y-231063447D01*
X168400361Y-230968209D01*
X168447980Y-230825352D01*
X168447980Y-230730114D01*
X167447980Y-231492019D02*
X167447980Y-232111066D01*
X167828933Y-231777733D01*
X167828933Y-231920590D01*
X167876552Y-232015828D01*
X167924171Y-232063447D01*
X168019409Y-232111066D01*
X168257504Y-232111066D01*
X168352742Y-232063447D01*
X168400361Y-232015828D01*
X168447980Y-231920590D01*
X168447980Y-231634876D01*
X168400361Y-231539638D01*
X168352742Y-231492019D01*
%TO.C,J9*%
X169555780Y-170913266D02*
X170270066Y-170913266D01*
X170412923Y-170865647D01*
X170508161Y-170770409D01*
X170555780Y-170627552D01*
X170555780Y-170532314D01*
X170555780Y-171437076D02*
X170555780Y-171627552D01*
X170508161Y-171722790D01*
X170460542Y-171770409D01*
X170317685Y-171865647D01*
X170127209Y-171913266D01*
X169746257Y-171913266D01*
X169651019Y-171865647D01*
X169603400Y-171818028D01*
X169555780Y-171722790D01*
X169555780Y-171532314D01*
X169603400Y-171437076D01*
X169651019Y-171389457D01*
X169746257Y-171341838D01*
X169984352Y-171341838D01*
X170079590Y-171389457D01*
X170127209Y-171437076D01*
X170174828Y-171532314D01*
X170174828Y-171722790D01*
X170127209Y-171818028D01*
X170079590Y-171865647D01*
X169984352Y-171913266D01*
%TO.C,J8*%
X169454180Y-147647266D02*
X170168466Y-147647266D01*
X170311323Y-147599647D01*
X170406561Y-147504409D01*
X170454180Y-147361552D01*
X170454180Y-147266314D01*
X169882752Y-148266314D02*
X169835133Y-148171076D01*
X169787514Y-148123457D01*
X169692276Y-148075838D01*
X169644657Y-148075838D01*
X169549419Y-148123457D01*
X169501800Y-148171076D01*
X169454180Y-148266314D01*
X169454180Y-148456790D01*
X169501800Y-148552028D01*
X169549419Y-148599647D01*
X169644657Y-148647266D01*
X169692276Y-148647266D01*
X169787514Y-148599647D01*
X169835133Y-148552028D01*
X169882752Y-148456790D01*
X169882752Y-148266314D01*
X169930371Y-148171076D01*
X169977990Y-148123457D01*
X170073228Y-148075838D01*
X170263704Y-148075838D01*
X170358942Y-148123457D01*
X170406561Y-148171076D01*
X170454180Y-148266314D01*
X170454180Y-148456790D01*
X170406561Y-148552028D01*
X170358942Y-148599647D01*
X170263704Y-148647266D01*
X170073228Y-148647266D01*
X169977990Y-148599647D01*
X169930371Y-148552028D01*
X169882752Y-148456790D01*
%TO.C,R44*%
X161424857Y-130824380D02*
X161758190Y-130348190D01*
X161996285Y-130824380D02*
X161996285Y-129824380D01*
X161615333Y-129824380D01*
X161520095Y-129872000D01*
X161472476Y-129919619D01*
X161424857Y-130014857D01*
X161424857Y-130157714D01*
X161472476Y-130252952D01*
X161520095Y-130300571D01*
X161615333Y-130348190D01*
X161996285Y-130348190D01*
X160567714Y-130157714D02*
X160567714Y-130824380D01*
X160805809Y-129776761D02*
X161043904Y-130491047D01*
X160424857Y-130491047D01*
X159615333Y-130157714D02*
X159615333Y-130824380D01*
X159853428Y-129776761D02*
X160091523Y-130491047D01*
X159472476Y-130491047D01*
%TO.C,J7*%
X167727080Y-117522666D02*
X168441366Y-117522666D01*
X168584223Y-117475047D01*
X168679461Y-117379809D01*
X168727080Y-117236952D01*
X168727080Y-117141714D01*
X167727080Y-117903619D02*
X167727080Y-118570285D01*
X168727080Y-118141714D01*
%TO.C,J6*%
X167676280Y-137131466D02*
X168390566Y-137131466D01*
X168533423Y-137083847D01*
X168628661Y-136988609D01*
X168676280Y-136845752D01*
X168676280Y-136750514D01*
X167676280Y-138036228D02*
X167676280Y-137845752D01*
X167723900Y-137750514D01*
X167771519Y-137702895D01*
X167914376Y-137607657D01*
X168104852Y-137560038D01*
X168485804Y-137560038D01*
X168581042Y-137607657D01*
X168628661Y-137655276D01*
X168676280Y-137750514D01*
X168676280Y-137940990D01*
X168628661Y-138036228D01*
X168581042Y-138083847D01*
X168485804Y-138131466D01*
X168247709Y-138131466D01*
X168152471Y-138083847D01*
X168104852Y-138036228D01*
X168057233Y-137940990D01*
X168057233Y-137750514D01*
X168104852Y-137655276D01*
X168152471Y-137607657D01*
X168247709Y-137560038D01*
%TO.C,U5*%
X149605904Y-108869380D02*
X149605904Y-109678904D01*
X149558285Y-109774142D01*
X149510666Y-109821761D01*
X149415428Y-109869380D01*
X149224952Y-109869380D01*
X149129714Y-109821761D01*
X149082095Y-109774142D01*
X149034476Y-109678904D01*
X149034476Y-108869380D01*
X148082095Y-108869380D02*
X148558285Y-108869380D01*
X148605904Y-109345571D01*
X148558285Y-109297952D01*
X148463047Y-109250333D01*
X148224952Y-109250333D01*
X148129714Y-109297952D01*
X148082095Y-109345571D01*
X148034476Y-109440809D01*
X148034476Y-109678904D01*
X148082095Y-109774142D01*
X148129714Y-109821761D01*
X148224952Y-109869380D01*
X148463047Y-109869380D01*
X148558285Y-109821761D01*
X148605904Y-109774142D01*
%TO.C,U4*%
X128015904Y-108869380D02*
X128015904Y-109678904D01*
X127968285Y-109774142D01*
X127920666Y-109821761D01*
X127825428Y-109869380D01*
X127634952Y-109869380D01*
X127539714Y-109821761D01*
X127492095Y-109774142D01*
X127444476Y-109678904D01*
X127444476Y-108869380D01*
X126539714Y-109202714D02*
X126539714Y-109869380D01*
X126777809Y-108821761D02*
X127015904Y-109536047D01*
X126396857Y-109536047D01*
%TO.C,U3*%
X105155904Y-108869380D02*
X105155904Y-109678904D01*
X105108285Y-109774142D01*
X105060666Y-109821761D01*
X104965428Y-109869380D01*
X104774952Y-109869380D01*
X104679714Y-109821761D01*
X104632095Y-109774142D01*
X104584476Y-109678904D01*
X104584476Y-108869380D01*
X104203523Y-108869380D02*
X103584476Y-108869380D01*
X103917809Y-109250333D01*
X103774952Y-109250333D01*
X103679714Y-109297952D01*
X103632095Y-109345571D01*
X103584476Y-109440809D01*
X103584476Y-109678904D01*
X103632095Y-109774142D01*
X103679714Y-109821761D01*
X103774952Y-109869380D01*
X104060666Y-109869380D01*
X104155904Y-109821761D01*
X104203523Y-109774142D01*
%TO.C,U2*%
X83565904Y-108869380D02*
X83565904Y-109678904D01*
X83518285Y-109774142D01*
X83470666Y-109821761D01*
X83375428Y-109869380D01*
X83184952Y-109869380D01*
X83089714Y-109821761D01*
X83042095Y-109774142D01*
X82994476Y-109678904D01*
X82994476Y-108869380D01*
X82565904Y-108964619D02*
X82518285Y-108917000D01*
X82423047Y-108869380D01*
X82184952Y-108869380D01*
X82089714Y-108917000D01*
X82042095Y-108964619D01*
X81994476Y-109059857D01*
X81994476Y-109155095D01*
X82042095Y-109297952D01*
X82613523Y-109869380D01*
X81994476Y-109869380D01*
%TO.C,U1*%
X61975904Y-108869380D02*
X61975904Y-109678904D01*
X61928285Y-109774142D01*
X61880666Y-109821761D01*
X61785428Y-109869380D01*
X61594952Y-109869380D01*
X61499714Y-109821761D01*
X61452095Y-109774142D01*
X61404476Y-109678904D01*
X61404476Y-108869380D01*
X60404476Y-109869380D02*
X60975904Y-109869380D01*
X60690190Y-109869380D02*
X60690190Y-108869380D01*
X60785428Y-109012238D01*
X60880666Y-109107476D01*
X60975904Y-109155095D01*
%TO.C,SW100*%
X41401714Y-33018361D02*
X41258857Y-33065980D01*
X41020761Y-33065980D01*
X40925523Y-33018361D01*
X40877904Y-32970742D01*
X40830285Y-32875504D01*
X40830285Y-32780266D01*
X40877904Y-32685028D01*
X40925523Y-32637409D01*
X41020761Y-32589790D01*
X41211238Y-32542171D01*
X41306476Y-32494552D01*
X41354095Y-32446933D01*
X41401714Y-32351695D01*
X41401714Y-32256457D01*
X41354095Y-32161219D01*
X41306476Y-32113600D01*
X41211238Y-32065980D01*
X40973142Y-32065980D01*
X40830285Y-32113600D01*
X40496952Y-32065980D02*
X40258857Y-33065980D01*
X40068380Y-32351695D01*
X39877904Y-33065980D01*
X39639809Y-32065980D01*
X38735047Y-33065980D02*
X39306476Y-33065980D01*
X39020761Y-33065980D02*
X39020761Y-32065980D01*
X39116000Y-32208838D01*
X39211238Y-32304076D01*
X39306476Y-32351695D01*
X38116000Y-32065980D02*
X38020761Y-32065980D01*
X37925523Y-32113600D01*
X37877904Y-32161219D01*
X37830285Y-32256457D01*
X37782666Y-32446933D01*
X37782666Y-32685028D01*
X37830285Y-32875504D01*
X37877904Y-32970742D01*
X37925523Y-33018361D01*
X38020761Y-33065980D01*
X38116000Y-33065980D01*
X38211238Y-33018361D01*
X38258857Y-32970742D01*
X38306476Y-32875504D01*
X38354095Y-32685028D01*
X38354095Y-32446933D01*
X38306476Y-32256457D01*
X38258857Y-32161219D01*
X38211238Y-32113600D01*
X38116000Y-32065980D01*
X37163619Y-32065980D02*
X37068380Y-32065980D01*
X36973142Y-32113600D01*
X36925523Y-32161219D01*
X36877904Y-32256457D01*
X36830285Y-32446933D01*
X36830285Y-32685028D01*
X36877904Y-32875504D01*
X36925523Y-32970742D01*
X36973142Y-33018361D01*
X37068380Y-33065980D01*
X37163619Y-33065980D01*
X37258857Y-33018361D01*
X37306476Y-32970742D01*
X37354095Y-32875504D01*
X37401714Y-32685028D01*
X37401714Y-32446933D01*
X37354095Y-32256457D01*
X37306476Y-32161219D01*
X37258857Y-32113600D01*
X37163619Y-32065980D01*
%TO.C,R43*%
X44648380Y-200473942D02*
X44172190Y-200140609D01*
X44648380Y-199902514D02*
X43648380Y-199902514D01*
X43648380Y-200283466D01*
X43696000Y-200378704D01*
X43743619Y-200426323D01*
X43838857Y-200473942D01*
X43981714Y-200473942D01*
X44076952Y-200426323D01*
X44124571Y-200378704D01*
X44172190Y-200283466D01*
X44172190Y-199902514D01*
X43981714Y-201331085D02*
X44648380Y-201331085D01*
X43600761Y-201092990D02*
X44315047Y-200854895D01*
X44315047Y-201473942D01*
X43648380Y-201759657D02*
X43648380Y-202378704D01*
X44029333Y-202045371D01*
X44029333Y-202188228D01*
X44076952Y-202283466D01*
X44124571Y-202331085D01*
X44219809Y-202378704D01*
X44457904Y-202378704D01*
X44553142Y-202331085D01*
X44600761Y-202283466D01*
X44648380Y-202188228D01*
X44648380Y-201902514D01*
X44600761Y-201807276D01*
X44553142Y-201759657D01*
%TO.C,R42*%
X165806857Y-191218880D02*
X166140190Y-190742690D01*
X166378285Y-191218880D02*
X166378285Y-190218880D01*
X165997333Y-190218880D01*
X165902095Y-190266500D01*
X165854476Y-190314119D01*
X165806857Y-190409357D01*
X165806857Y-190552214D01*
X165854476Y-190647452D01*
X165902095Y-190695071D01*
X165997333Y-190742690D01*
X166378285Y-190742690D01*
X164949714Y-190552214D02*
X164949714Y-191218880D01*
X165187809Y-190171261D02*
X165425904Y-190885547D01*
X164806857Y-190885547D01*
X164473523Y-190314119D02*
X164425904Y-190266500D01*
X164330666Y-190218880D01*
X164092571Y-190218880D01*
X163997333Y-190266500D01*
X163949714Y-190314119D01*
X163902095Y-190409357D01*
X163902095Y-190504595D01*
X163949714Y-190647452D01*
X164521142Y-191218880D01*
X163902095Y-191218880D01*
%TO.C,R41*%
X46934380Y-186885942D02*
X46458190Y-186552609D01*
X46934380Y-186314514D02*
X45934380Y-186314514D01*
X45934380Y-186695466D01*
X45982000Y-186790704D01*
X46029619Y-186838323D01*
X46124857Y-186885942D01*
X46267714Y-186885942D01*
X46362952Y-186838323D01*
X46410571Y-186790704D01*
X46458190Y-186695466D01*
X46458190Y-186314514D01*
X46267714Y-187743085D02*
X46934380Y-187743085D01*
X45886761Y-187504990D02*
X46601047Y-187266895D01*
X46601047Y-187885942D01*
X46934380Y-188790704D02*
X46934380Y-188219276D01*
X46934380Y-188504990D02*
X45934380Y-188504990D01*
X46077238Y-188409752D01*
X46172476Y-188314514D01*
X46220095Y-188219276D01*
%TO.C,R40*%
X105672357Y-32532580D02*
X106005690Y-32056390D01*
X106243785Y-32532580D02*
X106243785Y-31532580D01*
X105862833Y-31532580D01*
X105767595Y-31580200D01*
X105719976Y-31627819D01*
X105672357Y-31723057D01*
X105672357Y-31865914D01*
X105719976Y-31961152D01*
X105767595Y-32008771D01*
X105862833Y-32056390D01*
X106243785Y-32056390D01*
X104815214Y-31865914D02*
X104815214Y-32532580D01*
X105053309Y-31484961D02*
X105291404Y-32199247D01*
X104672357Y-32199247D01*
X104100928Y-31532580D02*
X104005690Y-31532580D01*
X103910452Y-31580200D01*
X103862833Y-31627819D01*
X103815214Y-31723057D01*
X103767595Y-31913533D01*
X103767595Y-32151628D01*
X103815214Y-32342104D01*
X103862833Y-32437342D01*
X103910452Y-32484961D01*
X104005690Y-32532580D01*
X104100928Y-32532580D01*
X104196166Y-32484961D01*
X104243785Y-32437342D01*
X104291404Y-32342104D01*
X104339023Y-32151628D01*
X104339023Y-31913533D01*
X104291404Y-31723057D01*
X104243785Y-31627819D01*
X104196166Y-31580200D01*
X104100928Y-31532580D01*
%TO.C,R39*%
X91003357Y-32405580D02*
X91336690Y-31929390D01*
X91574785Y-32405580D02*
X91574785Y-31405580D01*
X91193833Y-31405580D01*
X91098595Y-31453200D01*
X91050976Y-31500819D01*
X91003357Y-31596057D01*
X91003357Y-31738914D01*
X91050976Y-31834152D01*
X91098595Y-31881771D01*
X91193833Y-31929390D01*
X91574785Y-31929390D01*
X90670023Y-31405580D02*
X90050976Y-31405580D01*
X90384309Y-31786533D01*
X90241452Y-31786533D01*
X90146214Y-31834152D01*
X90098595Y-31881771D01*
X90050976Y-31977009D01*
X90050976Y-32215104D01*
X90098595Y-32310342D01*
X90146214Y-32357961D01*
X90241452Y-32405580D01*
X90527166Y-32405580D01*
X90622404Y-32357961D01*
X90670023Y-32310342D01*
X89574785Y-32405580D02*
X89384309Y-32405580D01*
X89289071Y-32357961D01*
X89241452Y-32310342D01*
X89146214Y-32167485D01*
X89098595Y-31977009D01*
X89098595Y-31596057D01*
X89146214Y-31500819D01*
X89193833Y-31453200D01*
X89289071Y-31405580D01*
X89479547Y-31405580D01*
X89574785Y-31453200D01*
X89622404Y-31500819D01*
X89670023Y-31596057D01*
X89670023Y-31834152D01*
X89622404Y-31929390D01*
X89574785Y-31977009D01*
X89479547Y-32024628D01*
X89289071Y-32024628D01*
X89193833Y-31977009D01*
X89146214Y-31929390D01*
X89098595Y-31834152D01*
%TO.C,R38*%
X135770357Y-32405580D02*
X136103690Y-31929390D01*
X136341785Y-32405580D02*
X136341785Y-31405580D01*
X135960833Y-31405580D01*
X135865595Y-31453200D01*
X135817976Y-31500819D01*
X135770357Y-31596057D01*
X135770357Y-31738914D01*
X135817976Y-31834152D01*
X135865595Y-31881771D01*
X135960833Y-31929390D01*
X136341785Y-31929390D01*
X135437023Y-31405580D02*
X134817976Y-31405580D01*
X135151309Y-31786533D01*
X135008452Y-31786533D01*
X134913214Y-31834152D01*
X134865595Y-31881771D01*
X134817976Y-31977009D01*
X134817976Y-32215104D01*
X134865595Y-32310342D01*
X134913214Y-32357961D01*
X135008452Y-32405580D01*
X135294166Y-32405580D01*
X135389404Y-32357961D01*
X135437023Y-32310342D01*
X134246547Y-31834152D02*
X134341785Y-31786533D01*
X134389404Y-31738914D01*
X134437023Y-31643676D01*
X134437023Y-31596057D01*
X134389404Y-31500819D01*
X134341785Y-31453200D01*
X134246547Y-31405580D01*
X134056071Y-31405580D01*
X133960833Y-31453200D01*
X133913214Y-31500819D01*
X133865595Y-31596057D01*
X133865595Y-31643676D01*
X133913214Y-31738914D01*
X133960833Y-31786533D01*
X134056071Y-31834152D01*
X134246547Y-31834152D01*
X134341785Y-31881771D01*
X134389404Y-31929390D01*
X134437023Y-32024628D01*
X134437023Y-32215104D01*
X134389404Y-32310342D01*
X134341785Y-32357961D01*
X134246547Y-32405580D01*
X134056071Y-32405580D01*
X133960833Y-32357961D01*
X133913214Y-32310342D01*
X133865595Y-32215104D01*
X133865595Y-32024628D01*
X133913214Y-31929390D01*
X133960833Y-31881771D01*
X134056071Y-31834152D01*
%TO.C,R37*%
X75572357Y-32405580D02*
X75905690Y-31929390D01*
X76143785Y-32405580D02*
X76143785Y-31405580D01*
X75762833Y-31405580D01*
X75667595Y-31453200D01*
X75619976Y-31500819D01*
X75572357Y-31596057D01*
X75572357Y-31738914D01*
X75619976Y-31834152D01*
X75667595Y-31881771D01*
X75762833Y-31929390D01*
X76143785Y-31929390D01*
X75239023Y-31405580D02*
X74619976Y-31405580D01*
X74953309Y-31786533D01*
X74810452Y-31786533D01*
X74715214Y-31834152D01*
X74667595Y-31881771D01*
X74619976Y-31977009D01*
X74619976Y-32215104D01*
X74667595Y-32310342D01*
X74715214Y-32357961D01*
X74810452Y-32405580D01*
X75096166Y-32405580D01*
X75191404Y-32357961D01*
X75239023Y-32310342D01*
X74286642Y-31405580D02*
X73619976Y-31405580D01*
X74048547Y-32405580D01*
%TO.C,R36*%
X64777857Y-192546380D02*
X65111190Y-192070190D01*
X65349285Y-192546380D02*
X65349285Y-191546380D01*
X64968333Y-191546380D01*
X64873095Y-191594000D01*
X64825476Y-191641619D01*
X64777857Y-191736857D01*
X64777857Y-191879714D01*
X64825476Y-191974952D01*
X64873095Y-192022571D01*
X64968333Y-192070190D01*
X65349285Y-192070190D01*
X64444523Y-191546380D02*
X63825476Y-191546380D01*
X64158809Y-191927333D01*
X64015952Y-191927333D01*
X63920714Y-191974952D01*
X63873095Y-192022571D01*
X63825476Y-192117809D01*
X63825476Y-192355904D01*
X63873095Y-192451142D01*
X63920714Y-192498761D01*
X64015952Y-192546380D01*
X64301666Y-192546380D01*
X64396904Y-192498761D01*
X64444523Y-192451142D01*
X62968333Y-191546380D02*
X63158809Y-191546380D01*
X63254047Y-191594000D01*
X63301666Y-191641619D01*
X63396904Y-191784476D01*
X63444523Y-191974952D01*
X63444523Y-192355904D01*
X63396904Y-192451142D01*
X63349285Y-192498761D01*
X63254047Y-192546380D01*
X63063571Y-192546380D01*
X62968333Y-192498761D01*
X62920714Y-192451142D01*
X62873095Y-192355904D01*
X62873095Y-192117809D01*
X62920714Y-192022571D01*
X62968333Y-191974952D01*
X63063571Y-191927333D01*
X63254047Y-191927333D01*
X63349285Y-191974952D01*
X63396904Y-192022571D01*
X63444523Y-192117809D01*
%TO.C,R35*%
X64904857Y-179592380D02*
X65238190Y-179116190D01*
X65476285Y-179592380D02*
X65476285Y-178592380D01*
X65095333Y-178592380D01*
X65000095Y-178640000D01*
X64952476Y-178687619D01*
X64904857Y-178782857D01*
X64904857Y-178925714D01*
X64952476Y-179020952D01*
X65000095Y-179068571D01*
X65095333Y-179116190D01*
X65476285Y-179116190D01*
X64571523Y-178592380D02*
X63952476Y-178592380D01*
X64285809Y-178973333D01*
X64142952Y-178973333D01*
X64047714Y-179020952D01*
X64000095Y-179068571D01*
X63952476Y-179163809D01*
X63952476Y-179401904D01*
X64000095Y-179497142D01*
X64047714Y-179544761D01*
X64142952Y-179592380D01*
X64428666Y-179592380D01*
X64523904Y-179544761D01*
X64571523Y-179497142D01*
X63047714Y-178592380D02*
X63523904Y-178592380D01*
X63571523Y-179068571D01*
X63523904Y-179020952D01*
X63428666Y-178973333D01*
X63190571Y-178973333D01*
X63095333Y-179020952D01*
X63047714Y-179068571D01*
X63000095Y-179163809D01*
X63000095Y-179401904D01*
X63047714Y-179497142D01*
X63095333Y-179544761D01*
X63190571Y-179592380D01*
X63428666Y-179592380D01*
X63523904Y-179544761D01*
X63571523Y-179497142D01*
%TO.C,R34*%
X165805857Y-239600380D02*
X166139190Y-239124190D01*
X166377285Y-239600380D02*
X166377285Y-238600380D01*
X165996333Y-238600380D01*
X165901095Y-238648000D01*
X165853476Y-238695619D01*
X165805857Y-238790857D01*
X165805857Y-238933714D01*
X165853476Y-239028952D01*
X165901095Y-239076571D01*
X165996333Y-239124190D01*
X166377285Y-239124190D01*
X165472523Y-238600380D02*
X164853476Y-238600380D01*
X165186809Y-238981333D01*
X165043952Y-238981333D01*
X164948714Y-239028952D01*
X164901095Y-239076571D01*
X164853476Y-239171809D01*
X164853476Y-239409904D01*
X164901095Y-239505142D01*
X164948714Y-239552761D01*
X165043952Y-239600380D01*
X165329666Y-239600380D01*
X165424904Y-239552761D01*
X165472523Y-239505142D01*
X163996333Y-238933714D02*
X163996333Y-239600380D01*
X164234428Y-238552761D02*
X164472523Y-239267047D01*
X163853476Y-239267047D01*
%TO.C,R33*%
X120276857Y-239663380D02*
X120610190Y-239187190D01*
X120848285Y-239663380D02*
X120848285Y-238663380D01*
X120467333Y-238663380D01*
X120372095Y-238711000D01*
X120324476Y-238758619D01*
X120276857Y-238853857D01*
X120276857Y-238996714D01*
X120324476Y-239091952D01*
X120372095Y-239139571D01*
X120467333Y-239187190D01*
X120848285Y-239187190D01*
X119943523Y-238663380D02*
X119324476Y-238663380D01*
X119657809Y-239044333D01*
X119514952Y-239044333D01*
X119419714Y-239091952D01*
X119372095Y-239139571D01*
X119324476Y-239234809D01*
X119324476Y-239472904D01*
X119372095Y-239568142D01*
X119419714Y-239615761D01*
X119514952Y-239663380D01*
X119800666Y-239663380D01*
X119895904Y-239615761D01*
X119943523Y-239568142D01*
X118991142Y-238663380D02*
X118372095Y-238663380D01*
X118705428Y-239044333D01*
X118562571Y-239044333D01*
X118467333Y-239091952D01*
X118419714Y-239139571D01*
X118372095Y-239234809D01*
X118372095Y-239472904D01*
X118419714Y-239568142D01*
X118467333Y-239615761D01*
X118562571Y-239663380D01*
X118848285Y-239663380D01*
X118943523Y-239615761D01*
X118991142Y-239568142D01*
%TO.C,R32*%
X150248857Y-225630380D02*
X150582190Y-225154190D01*
X150820285Y-225630380D02*
X150820285Y-224630380D01*
X150439333Y-224630380D01*
X150344095Y-224678000D01*
X150296476Y-224725619D01*
X150248857Y-224820857D01*
X150248857Y-224963714D01*
X150296476Y-225058952D01*
X150344095Y-225106571D01*
X150439333Y-225154190D01*
X150820285Y-225154190D01*
X149915523Y-224630380D02*
X149296476Y-224630380D01*
X149629809Y-225011333D01*
X149486952Y-225011333D01*
X149391714Y-225058952D01*
X149344095Y-225106571D01*
X149296476Y-225201809D01*
X149296476Y-225439904D01*
X149344095Y-225535142D01*
X149391714Y-225582761D01*
X149486952Y-225630380D01*
X149772666Y-225630380D01*
X149867904Y-225582761D01*
X149915523Y-225535142D01*
X148915523Y-224725619D02*
X148867904Y-224678000D01*
X148772666Y-224630380D01*
X148534571Y-224630380D01*
X148439333Y-224678000D01*
X148391714Y-224725619D01*
X148344095Y-224820857D01*
X148344095Y-224916095D01*
X148391714Y-225058952D01*
X148963142Y-225630380D01*
X148344095Y-225630380D01*
%TO.C,R31*%
X105290857Y-225630380D02*
X105624190Y-225154190D01*
X105862285Y-225630380D02*
X105862285Y-224630380D01*
X105481333Y-224630380D01*
X105386095Y-224678000D01*
X105338476Y-224725619D01*
X105290857Y-224820857D01*
X105290857Y-224963714D01*
X105338476Y-225058952D01*
X105386095Y-225106571D01*
X105481333Y-225154190D01*
X105862285Y-225154190D01*
X104957523Y-224630380D02*
X104338476Y-224630380D01*
X104671809Y-225011333D01*
X104528952Y-225011333D01*
X104433714Y-225058952D01*
X104386095Y-225106571D01*
X104338476Y-225201809D01*
X104338476Y-225439904D01*
X104386095Y-225535142D01*
X104433714Y-225582761D01*
X104528952Y-225630380D01*
X104814666Y-225630380D01*
X104909904Y-225582761D01*
X104957523Y-225535142D01*
X103386095Y-225630380D02*
X103957523Y-225630380D01*
X103671809Y-225630380D02*
X103671809Y-224630380D01*
X103767047Y-224773238D01*
X103862285Y-224868476D01*
X103957523Y-224916095D01*
%TO.C,R30*%
X135262857Y-211596380D02*
X135596190Y-211120190D01*
X135834285Y-211596380D02*
X135834285Y-210596380D01*
X135453333Y-210596380D01*
X135358095Y-210644000D01*
X135310476Y-210691619D01*
X135262857Y-210786857D01*
X135262857Y-210929714D01*
X135310476Y-211024952D01*
X135358095Y-211072571D01*
X135453333Y-211120190D01*
X135834285Y-211120190D01*
X134929523Y-210596380D02*
X134310476Y-210596380D01*
X134643809Y-210977333D01*
X134500952Y-210977333D01*
X134405714Y-211024952D01*
X134358095Y-211072571D01*
X134310476Y-211167809D01*
X134310476Y-211405904D01*
X134358095Y-211501142D01*
X134405714Y-211548761D01*
X134500952Y-211596380D01*
X134786666Y-211596380D01*
X134881904Y-211548761D01*
X134929523Y-211501142D01*
X133691428Y-210596380D02*
X133596190Y-210596380D01*
X133500952Y-210644000D01*
X133453333Y-210691619D01*
X133405714Y-210786857D01*
X133358095Y-210977333D01*
X133358095Y-211215428D01*
X133405714Y-211405904D01*
X133453333Y-211501142D01*
X133500952Y-211548761D01*
X133596190Y-211596380D01*
X133691428Y-211596380D01*
X133786666Y-211548761D01*
X133834285Y-211501142D01*
X133881904Y-211405904D01*
X133929523Y-211215428D01*
X133929523Y-210977333D01*
X133881904Y-210786857D01*
X133834285Y-210691619D01*
X133786666Y-210644000D01*
X133691428Y-210596380D01*
%TO.C,R29*%
X165705857Y-197436380D02*
X166039190Y-196960190D01*
X166277285Y-197436380D02*
X166277285Y-196436380D01*
X165896333Y-196436380D01*
X165801095Y-196484000D01*
X165753476Y-196531619D01*
X165705857Y-196626857D01*
X165705857Y-196769714D01*
X165753476Y-196864952D01*
X165801095Y-196912571D01*
X165896333Y-196960190D01*
X166277285Y-196960190D01*
X165324904Y-196531619D02*
X165277285Y-196484000D01*
X165182047Y-196436380D01*
X164943952Y-196436380D01*
X164848714Y-196484000D01*
X164801095Y-196531619D01*
X164753476Y-196626857D01*
X164753476Y-196722095D01*
X164801095Y-196864952D01*
X165372523Y-197436380D01*
X164753476Y-197436380D01*
X164277285Y-197436380D02*
X164086809Y-197436380D01*
X163991571Y-197388761D01*
X163943952Y-197341142D01*
X163848714Y-197198285D01*
X163801095Y-197007809D01*
X163801095Y-196626857D01*
X163848714Y-196531619D01*
X163896333Y-196484000D01*
X163991571Y-196436380D01*
X164182047Y-196436380D01*
X164277285Y-196484000D01*
X164324904Y-196531619D01*
X164372523Y-196626857D01*
X164372523Y-196864952D01*
X164324904Y-196960190D01*
X164277285Y-197007809D01*
X164182047Y-197055428D01*
X163991571Y-197055428D01*
X163896333Y-197007809D01*
X163848714Y-196960190D01*
X163801095Y-196864952D01*
%TO.C,R28*%
X120276857Y-197690380D02*
X120610190Y-197214190D01*
X120848285Y-197690380D02*
X120848285Y-196690380D01*
X120467333Y-196690380D01*
X120372095Y-196738000D01*
X120324476Y-196785619D01*
X120276857Y-196880857D01*
X120276857Y-197023714D01*
X120324476Y-197118952D01*
X120372095Y-197166571D01*
X120467333Y-197214190D01*
X120848285Y-197214190D01*
X119895904Y-196785619D02*
X119848285Y-196738000D01*
X119753047Y-196690380D01*
X119514952Y-196690380D01*
X119419714Y-196738000D01*
X119372095Y-196785619D01*
X119324476Y-196880857D01*
X119324476Y-196976095D01*
X119372095Y-197118952D01*
X119943523Y-197690380D01*
X119324476Y-197690380D01*
X118753047Y-197118952D02*
X118848285Y-197071333D01*
X118895904Y-197023714D01*
X118943523Y-196928476D01*
X118943523Y-196880857D01*
X118895904Y-196785619D01*
X118848285Y-196738000D01*
X118753047Y-196690380D01*
X118562571Y-196690380D01*
X118467333Y-196738000D01*
X118419714Y-196785619D01*
X118372095Y-196880857D01*
X118372095Y-196928476D01*
X118419714Y-197023714D01*
X118467333Y-197071333D01*
X118562571Y-197118952D01*
X118753047Y-197118952D01*
X118848285Y-197166571D01*
X118895904Y-197214190D01*
X118943523Y-197309428D01*
X118943523Y-197499904D01*
X118895904Y-197595142D01*
X118848285Y-197642761D01*
X118753047Y-197690380D01*
X118562571Y-197690380D01*
X118467333Y-197642761D01*
X118419714Y-197595142D01*
X118372095Y-197499904D01*
X118372095Y-197309428D01*
X118419714Y-197214190D01*
X118467333Y-197166571D01*
X118562571Y-197118952D01*
%TO.C,R27*%
X150311857Y-183656380D02*
X150645190Y-183180190D01*
X150883285Y-183656380D02*
X150883285Y-182656380D01*
X150502333Y-182656380D01*
X150407095Y-182704000D01*
X150359476Y-182751619D01*
X150311857Y-182846857D01*
X150311857Y-182989714D01*
X150359476Y-183084952D01*
X150407095Y-183132571D01*
X150502333Y-183180190D01*
X150883285Y-183180190D01*
X149930904Y-182751619D02*
X149883285Y-182704000D01*
X149788047Y-182656380D01*
X149549952Y-182656380D01*
X149454714Y-182704000D01*
X149407095Y-182751619D01*
X149359476Y-182846857D01*
X149359476Y-182942095D01*
X149407095Y-183084952D01*
X149978523Y-183656380D01*
X149359476Y-183656380D01*
X149026142Y-182656380D02*
X148359476Y-182656380D01*
X148788047Y-183656380D01*
%TO.C,R26*%
X105290857Y-183593380D02*
X105624190Y-183117190D01*
X105862285Y-183593380D02*
X105862285Y-182593380D01*
X105481333Y-182593380D01*
X105386095Y-182641000D01*
X105338476Y-182688619D01*
X105290857Y-182783857D01*
X105290857Y-182926714D01*
X105338476Y-183021952D01*
X105386095Y-183069571D01*
X105481333Y-183117190D01*
X105862285Y-183117190D01*
X104909904Y-182688619D02*
X104862285Y-182641000D01*
X104767047Y-182593380D01*
X104528952Y-182593380D01*
X104433714Y-182641000D01*
X104386095Y-182688619D01*
X104338476Y-182783857D01*
X104338476Y-182879095D01*
X104386095Y-183021952D01*
X104957523Y-183593380D01*
X104338476Y-183593380D01*
X103481333Y-182593380D02*
X103671809Y-182593380D01*
X103767047Y-182641000D01*
X103814666Y-182688619D01*
X103909904Y-182831476D01*
X103957523Y-183021952D01*
X103957523Y-183402904D01*
X103909904Y-183498142D01*
X103862285Y-183545761D01*
X103767047Y-183593380D01*
X103576571Y-183593380D01*
X103481333Y-183545761D01*
X103433714Y-183498142D01*
X103386095Y-183402904D01*
X103386095Y-183164809D01*
X103433714Y-183069571D01*
X103481333Y-183021952D01*
X103576571Y-182974333D01*
X103767047Y-182974333D01*
X103862285Y-183021952D01*
X103909904Y-183069571D01*
X103957523Y-183164809D01*
%TO.C,R25*%
X135262857Y-169559380D02*
X135596190Y-169083190D01*
X135834285Y-169559380D02*
X135834285Y-168559380D01*
X135453333Y-168559380D01*
X135358095Y-168607000D01*
X135310476Y-168654619D01*
X135262857Y-168749857D01*
X135262857Y-168892714D01*
X135310476Y-168987952D01*
X135358095Y-169035571D01*
X135453333Y-169083190D01*
X135834285Y-169083190D01*
X134881904Y-168654619D02*
X134834285Y-168607000D01*
X134739047Y-168559380D01*
X134500952Y-168559380D01*
X134405714Y-168607000D01*
X134358095Y-168654619D01*
X134310476Y-168749857D01*
X134310476Y-168845095D01*
X134358095Y-168987952D01*
X134929523Y-169559380D01*
X134310476Y-169559380D01*
X133405714Y-168559380D02*
X133881904Y-168559380D01*
X133929523Y-169035571D01*
X133881904Y-168987952D01*
X133786666Y-168940333D01*
X133548571Y-168940333D01*
X133453333Y-168987952D01*
X133405714Y-169035571D01*
X133358095Y-169130809D01*
X133358095Y-169368904D01*
X133405714Y-169464142D01*
X133453333Y-169511761D01*
X133548571Y-169559380D01*
X133786666Y-169559380D01*
X133881904Y-169511761D01*
X133929523Y-169464142D01*
%TO.C,R24*%
X89225857Y-240425380D02*
X89559190Y-239949190D01*
X89797285Y-240425380D02*
X89797285Y-239425380D01*
X89416333Y-239425380D01*
X89321095Y-239473000D01*
X89273476Y-239520619D01*
X89225857Y-239615857D01*
X89225857Y-239758714D01*
X89273476Y-239853952D01*
X89321095Y-239901571D01*
X89416333Y-239949190D01*
X89797285Y-239949190D01*
X88844904Y-239520619D02*
X88797285Y-239473000D01*
X88702047Y-239425380D01*
X88463952Y-239425380D01*
X88368714Y-239473000D01*
X88321095Y-239520619D01*
X88273476Y-239615857D01*
X88273476Y-239711095D01*
X88321095Y-239853952D01*
X88892523Y-240425380D01*
X88273476Y-240425380D01*
X87416333Y-239758714D02*
X87416333Y-240425380D01*
X87654428Y-239377761D02*
X87892523Y-240092047D01*
X87273476Y-240092047D01*
%TO.C,R23*%
X89351857Y-228741380D02*
X89685190Y-228265190D01*
X89923285Y-228741380D02*
X89923285Y-227741380D01*
X89542333Y-227741380D01*
X89447095Y-227789000D01*
X89399476Y-227836619D01*
X89351857Y-227931857D01*
X89351857Y-228074714D01*
X89399476Y-228169952D01*
X89447095Y-228217571D01*
X89542333Y-228265190D01*
X89923285Y-228265190D01*
X88970904Y-227836619D02*
X88923285Y-227789000D01*
X88828047Y-227741380D01*
X88589952Y-227741380D01*
X88494714Y-227789000D01*
X88447095Y-227836619D01*
X88399476Y-227931857D01*
X88399476Y-228027095D01*
X88447095Y-228169952D01*
X89018523Y-228741380D01*
X88399476Y-228741380D01*
X88066142Y-227741380D02*
X87447095Y-227741380D01*
X87780428Y-228122333D01*
X87637571Y-228122333D01*
X87542333Y-228169952D01*
X87494714Y-228217571D01*
X87447095Y-228312809D01*
X87447095Y-228550904D01*
X87494714Y-228646142D01*
X87542333Y-228693761D01*
X87637571Y-228741380D01*
X87923285Y-228741380D01*
X88018523Y-228693761D01*
X88066142Y-228646142D01*
%TO.C,R22*%
X89288857Y-216549380D02*
X89622190Y-216073190D01*
X89860285Y-216549380D02*
X89860285Y-215549380D01*
X89479333Y-215549380D01*
X89384095Y-215597000D01*
X89336476Y-215644619D01*
X89288857Y-215739857D01*
X89288857Y-215882714D01*
X89336476Y-215977952D01*
X89384095Y-216025571D01*
X89479333Y-216073190D01*
X89860285Y-216073190D01*
X88907904Y-215644619D02*
X88860285Y-215597000D01*
X88765047Y-215549380D01*
X88526952Y-215549380D01*
X88431714Y-215597000D01*
X88384095Y-215644619D01*
X88336476Y-215739857D01*
X88336476Y-215835095D01*
X88384095Y-215977952D01*
X88955523Y-216549380D01*
X88336476Y-216549380D01*
X87955523Y-215644619D02*
X87907904Y-215597000D01*
X87812666Y-215549380D01*
X87574571Y-215549380D01*
X87479333Y-215597000D01*
X87431714Y-215644619D01*
X87384095Y-215739857D01*
X87384095Y-215835095D01*
X87431714Y-215977952D01*
X88003142Y-216549380D01*
X87384095Y-216549380D01*
%TO.C,R21*%
X89288857Y-204611380D02*
X89622190Y-204135190D01*
X89860285Y-204611380D02*
X89860285Y-203611380D01*
X89479333Y-203611380D01*
X89384095Y-203659000D01*
X89336476Y-203706619D01*
X89288857Y-203801857D01*
X89288857Y-203944714D01*
X89336476Y-204039952D01*
X89384095Y-204087571D01*
X89479333Y-204135190D01*
X89860285Y-204135190D01*
X88907904Y-203706619D02*
X88860285Y-203659000D01*
X88765047Y-203611380D01*
X88526952Y-203611380D01*
X88431714Y-203659000D01*
X88384095Y-203706619D01*
X88336476Y-203801857D01*
X88336476Y-203897095D01*
X88384095Y-204039952D01*
X88955523Y-204611380D01*
X88336476Y-204611380D01*
X87384095Y-204611380D02*
X87955523Y-204611380D01*
X87669809Y-204611380D02*
X87669809Y-203611380D01*
X87765047Y-203754238D01*
X87860285Y-203849476D01*
X87955523Y-203897095D01*
%TO.C,R20*%
X64841857Y-166257380D02*
X65175190Y-165781190D01*
X65413285Y-166257380D02*
X65413285Y-165257380D01*
X65032333Y-165257380D01*
X64937095Y-165305000D01*
X64889476Y-165352619D01*
X64841857Y-165447857D01*
X64841857Y-165590714D01*
X64889476Y-165685952D01*
X64937095Y-165733571D01*
X65032333Y-165781190D01*
X65413285Y-165781190D01*
X64460904Y-165352619D02*
X64413285Y-165305000D01*
X64318047Y-165257380D01*
X64079952Y-165257380D01*
X63984714Y-165305000D01*
X63937095Y-165352619D01*
X63889476Y-165447857D01*
X63889476Y-165543095D01*
X63937095Y-165685952D01*
X64508523Y-166257380D01*
X63889476Y-166257380D01*
X63270428Y-165257380D02*
X63175190Y-165257380D01*
X63079952Y-165305000D01*
X63032333Y-165352619D01*
X62984714Y-165447857D01*
X62937095Y-165638333D01*
X62937095Y-165876428D01*
X62984714Y-166066904D01*
X63032333Y-166162142D01*
X63079952Y-166209761D01*
X63175190Y-166257380D01*
X63270428Y-166257380D01*
X63365666Y-166209761D01*
X63413285Y-166162142D01*
X63460904Y-166066904D01*
X63508523Y-165876428D01*
X63508523Y-165638333D01*
X63460904Y-165447857D01*
X63413285Y-165352619D01*
X63365666Y-165305000D01*
X63270428Y-165257380D01*
%TO.C,R19*%
X118815857Y-153430380D02*
X119149190Y-152954190D01*
X119387285Y-153430380D02*
X119387285Y-152430380D01*
X119006333Y-152430380D01*
X118911095Y-152478000D01*
X118863476Y-152525619D01*
X118815857Y-152620857D01*
X118815857Y-152763714D01*
X118863476Y-152858952D01*
X118911095Y-152906571D01*
X119006333Y-152954190D01*
X119387285Y-152954190D01*
X117863476Y-153430380D02*
X118434904Y-153430380D01*
X118149190Y-153430380D02*
X118149190Y-152430380D01*
X118244428Y-152573238D01*
X118339666Y-152668476D01*
X118434904Y-152716095D01*
X117387285Y-153430380D02*
X117196809Y-153430380D01*
X117101571Y-153382761D01*
X117053952Y-153335142D01*
X116958714Y-153192285D01*
X116911095Y-153001809D01*
X116911095Y-152620857D01*
X116958714Y-152525619D01*
X117006333Y-152478000D01*
X117101571Y-152430380D01*
X117292047Y-152430380D01*
X117387285Y-152478000D01*
X117434904Y-152525619D01*
X117482523Y-152620857D01*
X117482523Y-152858952D01*
X117434904Y-152954190D01*
X117387285Y-153001809D01*
X117292047Y-153049428D01*
X117101571Y-153049428D01*
X117006333Y-153001809D01*
X116958714Y-152954190D01*
X116911095Y-152858952D01*
%TO.C,R18*%
X64841857Y-153430380D02*
X65175190Y-152954190D01*
X65413285Y-153430380D02*
X65413285Y-152430380D01*
X65032333Y-152430380D01*
X64937095Y-152478000D01*
X64889476Y-152525619D01*
X64841857Y-152620857D01*
X64841857Y-152763714D01*
X64889476Y-152858952D01*
X64937095Y-152906571D01*
X65032333Y-152954190D01*
X65413285Y-152954190D01*
X63889476Y-153430380D02*
X64460904Y-153430380D01*
X64175190Y-153430380D02*
X64175190Y-152430380D01*
X64270428Y-152573238D01*
X64365666Y-152668476D01*
X64460904Y-152716095D01*
X63318047Y-152858952D02*
X63413285Y-152811333D01*
X63460904Y-152763714D01*
X63508523Y-152668476D01*
X63508523Y-152620857D01*
X63460904Y-152525619D01*
X63413285Y-152478000D01*
X63318047Y-152430380D01*
X63127571Y-152430380D01*
X63032333Y-152478000D01*
X62984714Y-152525619D01*
X62937095Y-152620857D01*
X62937095Y-152668476D01*
X62984714Y-152763714D01*
X63032333Y-152811333D01*
X63127571Y-152858952D01*
X63318047Y-152858952D01*
X63413285Y-152906571D01*
X63460904Y-152954190D01*
X63508523Y-153049428D01*
X63508523Y-153239904D01*
X63460904Y-153335142D01*
X63413285Y-153382761D01*
X63318047Y-153430380D01*
X63127571Y-153430380D01*
X63032333Y-153382761D01*
X62984714Y-153335142D01*
X62937095Y-153239904D01*
X62937095Y-153049428D01*
X62984714Y-152954190D01*
X63032333Y-152906571D01*
X63127571Y-152858952D01*
%TO.C,R17*%
X100845857Y-140413380D02*
X101179190Y-139937190D01*
X101417285Y-140413380D02*
X101417285Y-139413380D01*
X101036333Y-139413380D01*
X100941095Y-139461000D01*
X100893476Y-139508619D01*
X100845857Y-139603857D01*
X100845857Y-139746714D01*
X100893476Y-139841952D01*
X100941095Y-139889571D01*
X101036333Y-139937190D01*
X101417285Y-139937190D01*
X99893476Y-140413380D02*
X100464904Y-140413380D01*
X100179190Y-140413380D02*
X100179190Y-139413380D01*
X100274428Y-139556238D01*
X100369666Y-139651476D01*
X100464904Y-139699095D01*
X99560142Y-139413380D02*
X98893476Y-139413380D01*
X99322047Y-140413380D01*
%TO.C,R16*%
X163901857Y-116029380D02*
X164235190Y-115553190D01*
X164473285Y-116029380D02*
X164473285Y-115029380D01*
X164092333Y-115029380D01*
X163997095Y-115077000D01*
X163949476Y-115124619D01*
X163901857Y-115219857D01*
X163901857Y-115362714D01*
X163949476Y-115457952D01*
X163997095Y-115505571D01*
X164092333Y-115553190D01*
X164473285Y-115553190D01*
X162949476Y-116029380D02*
X163520904Y-116029380D01*
X163235190Y-116029380D02*
X163235190Y-115029380D01*
X163330428Y-115172238D01*
X163425666Y-115267476D01*
X163520904Y-115315095D01*
X162092333Y-115029380D02*
X162282809Y-115029380D01*
X162378047Y-115077000D01*
X162425666Y-115124619D01*
X162520904Y-115267476D01*
X162568523Y-115457952D01*
X162568523Y-115838904D01*
X162520904Y-115934142D01*
X162473285Y-115981761D01*
X162378047Y-116029380D01*
X162187571Y-116029380D01*
X162092333Y-115981761D01*
X162044714Y-115934142D01*
X161997095Y-115838904D01*
X161997095Y-115600809D01*
X162044714Y-115505571D01*
X162092333Y-115457952D01*
X162187571Y-115410333D01*
X162378047Y-115410333D01*
X162473285Y-115457952D01*
X162520904Y-115505571D01*
X162568523Y-115600809D01*
%TO.C,R15*%
X163735857Y-84545780D02*
X164069190Y-84069590D01*
X164307285Y-84545780D02*
X164307285Y-83545780D01*
X163926333Y-83545780D01*
X163831095Y-83593400D01*
X163783476Y-83641019D01*
X163735857Y-83736257D01*
X163735857Y-83879114D01*
X163783476Y-83974352D01*
X163831095Y-84021971D01*
X163926333Y-84069590D01*
X164307285Y-84069590D01*
X162783476Y-84545780D02*
X163354904Y-84545780D01*
X163069190Y-84545780D02*
X163069190Y-83545780D01*
X163164428Y-83688638D01*
X163259666Y-83783876D01*
X163354904Y-83831495D01*
X161878714Y-83545780D02*
X162354904Y-83545780D01*
X162402523Y-84021971D01*
X162354904Y-83974352D01*
X162259666Y-83926733D01*
X162021571Y-83926733D01*
X161926333Y-83974352D01*
X161878714Y-84021971D01*
X161831095Y-84117209D01*
X161831095Y-84355304D01*
X161878714Y-84450542D01*
X161926333Y-84498161D01*
X162021571Y-84545780D01*
X162259666Y-84545780D01*
X162354904Y-84498161D01*
X162402523Y-84450542D01*
%TO.C,R14*%
X47444857Y-116026380D02*
X47778190Y-115550190D01*
X48016285Y-116026380D02*
X48016285Y-115026380D01*
X47635333Y-115026380D01*
X47540095Y-115074000D01*
X47492476Y-115121619D01*
X47444857Y-115216857D01*
X47444857Y-115359714D01*
X47492476Y-115454952D01*
X47540095Y-115502571D01*
X47635333Y-115550190D01*
X48016285Y-115550190D01*
X46492476Y-116026380D02*
X47063904Y-116026380D01*
X46778190Y-116026380D02*
X46778190Y-115026380D01*
X46873428Y-115169238D01*
X46968666Y-115264476D01*
X47063904Y-115312095D01*
X45635333Y-115359714D02*
X45635333Y-116026380D01*
X45873428Y-114978761D02*
X46111523Y-115693047D01*
X45492476Y-115693047D01*
%TO.C,R13*%
X47521057Y-84474680D02*
X47854390Y-83998490D01*
X48092485Y-84474680D02*
X48092485Y-83474680D01*
X47711533Y-83474680D01*
X47616295Y-83522300D01*
X47568676Y-83569919D01*
X47521057Y-83665157D01*
X47521057Y-83808014D01*
X47568676Y-83903252D01*
X47616295Y-83950871D01*
X47711533Y-83998490D01*
X48092485Y-83998490D01*
X46568676Y-84474680D02*
X47140104Y-84474680D01*
X46854390Y-84474680D02*
X46854390Y-83474680D01*
X46949628Y-83617538D01*
X47044866Y-83712776D01*
X47140104Y-83760395D01*
X46235342Y-83474680D02*
X45616295Y-83474680D01*
X45949628Y-83855633D01*
X45806771Y-83855633D01*
X45711533Y-83903252D01*
X45663914Y-83950871D01*
X45616295Y-84046109D01*
X45616295Y-84284204D01*
X45663914Y-84379442D01*
X45711533Y-84427061D01*
X45806771Y-84474680D01*
X46092485Y-84474680D01*
X46187723Y-84427061D01*
X46235342Y-84379442D01*
%TO.C,R12*%
X46515257Y-44902380D02*
X46848590Y-44426190D01*
X47086685Y-44902380D02*
X47086685Y-43902380D01*
X46705733Y-43902380D01*
X46610495Y-43950000D01*
X46562876Y-43997619D01*
X46515257Y-44092857D01*
X46515257Y-44235714D01*
X46562876Y-44330952D01*
X46610495Y-44378571D01*
X46705733Y-44426190D01*
X47086685Y-44426190D01*
X45562876Y-44902380D02*
X46134304Y-44902380D01*
X45848590Y-44902380D02*
X45848590Y-43902380D01*
X45943828Y-44045238D01*
X46039066Y-44140476D01*
X46134304Y-44188095D01*
X45181923Y-43997619D02*
X45134304Y-43950000D01*
X45039066Y-43902380D01*
X44800971Y-43902380D01*
X44705733Y-43950000D01*
X44658114Y-43997619D01*
X44610495Y-44092857D01*
X44610495Y-44188095D01*
X44658114Y-44330952D01*
X45229542Y-44902380D01*
X44610495Y-44902380D01*
%TO.C,R11*%
X88924980Y-63809642D02*
X88448790Y-63476309D01*
X88924980Y-63238214D02*
X87924980Y-63238214D01*
X87924980Y-63619166D01*
X87972600Y-63714404D01*
X88020219Y-63762023D01*
X88115457Y-63809642D01*
X88258314Y-63809642D01*
X88353552Y-63762023D01*
X88401171Y-63714404D01*
X88448790Y-63619166D01*
X88448790Y-63238214D01*
X88924980Y-64762023D02*
X88924980Y-64190595D01*
X88924980Y-64476309D02*
X87924980Y-64476309D01*
X88067838Y-64381071D01*
X88163076Y-64285833D01*
X88210695Y-64190595D01*
X88924980Y-65714404D02*
X88924980Y-65142976D01*
X88924980Y-65428690D02*
X87924980Y-65428690D01*
X88067838Y-65333452D01*
X88163076Y-65238214D01*
X88210695Y-65142976D01*
%TO.C,R10*%
X83970980Y-63809642D02*
X83494790Y-63476309D01*
X83970980Y-63238214D02*
X82970980Y-63238214D01*
X82970980Y-63619166D01*
X83018600Y-63714404D01*
X83066219Y-63762023D01*
X83161457Y-63809642D01*
X83304314Y-63809642D01*
X83399552Y-63762023D01*
X83447171Y-63714404D01*
X83494790Y-63619166D01*
X83494790Y-63238214D01*
X83970980Y-64762023D02*
X83970980Y-64190595D01*
X83970980Y-64476309D02*
X82970980Y-64476309D01*
X83113838Y-64381071D01*
X83209076Y-64285833D01*
X83256695Y-64190595D01*
X82970980Y-65381071D02*
X82970980Y-65476309D01*
X83018600Y-65571547D01*
X83066219Y-65619166D01*
X83161457Y-65666785D01*
X83351933Y-65714404D01*
X83590028Y-65714404D01*
X83780504Y-65666785D01*
X83875742Y-65619166D01*
X83923361Y-65571547D01*
X83970980Y-65476309D01*
X83970980Y-65381071D01*
X83923361Y-65285833D01*
X83875742Y-65238214D01*
X83780504Y-65190595D01*
X83590028Y-65142976D01*
X83351933Y-65142976D01*
X83161457Y-65190595D01*
X83066219Y-65238214D01*
X83018600Y-65285833D01*
X82970980Y-65381071D01*
%TO.C,R9*%
X104927380Y-78001833D02*
X104451190Y-77668500D01*
X104927380Y-77430404D02*
X103927380Y-77430404D01*
X103927380Y-77811357D01*
X103975000Y-77906595D01*
X104022619Y-77954214D01*
X104117857Y-78001833D01*
X104260714Y-78001833D01*
X104355952Y-77954214D01*
X104403571Y-77906595D01*
X104451190Y-77811357D01*
X104451190Y-77430404D01*
X104927380Y-78478023D02*
X104927380Y-78668500D01*
X104879761Y-78763738D01*
X104832142Y-78811357D01*
X104689285Y-78906595D01*
X104498809Y-78954214D01*
X104117857Y-78954214D01*
X104022619Y-78906595D01*
X103975000Y-78858976D01*
X103927380Y-78763738D01*
X103927380Y-78573261D01*
X103975000Y-78478023D01*
X104022619Y-78430404D01*
X104117857Y-78382785D01*
X104355952Y-78382785D01*
X104451190Y-78430404D01*
X104498809Y-78478023D01*
X104546428Y-78573261D01*
X104546428Y-78763738D01*
X104498809Y-78858976D01*
X104451190Y-78906595D01*
X104355952Y-78954214D01*
%TO.C,R8*%
X99958219Y-78361166D02*
X100434409Y-78694500D01*
X99958219Y-78932595D02*
X100958219Y-78932595D01*
X100958219Y-78551642D01*
X100910600Y-78456404D01*
X100862980Y-78408785D01*
X100767742Y-78361166D01*
X100624885Y-78361166D01*
X100529647Y-78408785D01*
X100482028Y-78456404D01*
X100434409Y-78551642D01*
X100434409Y-78932595D01*
X100529647Y-77789738D02*
X100577266Y-77884976D01*
X100624885Y-77932595D01*
X100720123Y-77980214D01*
X100767742Y-77980214D01*
X100862980Y-77932595D01*
X100910600Y-77884976D01*
X100958219Y-77789738D01*
X100958219Y-77599261D01*
X100910600Y-77504023D01*
X100862980Y-77456404D01*
X100767742Y-77408785D01*
X100720123Y-77408785D01*
X100624885Y-77456404D01*
X100577266Y-77504023D01*
X100529647Y-77599261D01*
X100529647Y-77789738D01*
X100482028Y-77884976D01*
X100434409Y-77932595D01*
X100339171Y-77980214D01*
X100148695Y-77980214D01*
X100053457Y-77932595D01*
X100005838Y-77884976D01*
X99958219Y-77789738D01*
X99958219Y-77599261D01*
X100005838Y-77504023D01*
X100053457Y-77456404D01*
X100148695Y-77408785D01*
X100339171Y-77408785D01*
X100434409Y-77456404D01*
X100482028Y-77504023D01*
X100529647Y-77599261D01*
%TO.C,R7*%
X97031980Y-64285833D02*
X96555790Y-63952500D01*
X97031980Y-63714404D02*
X96031980Y-63714404D01*
X96031980Y-64095357D01*
X96079600Y-64190595D01*
X96127219Y-64238214D01*
X96222457Y-64285833D01*
X96365314Y-64285833D01*
X96460552Y-64238214D01*
X96508171Y-64190595D01*
X96555790Y-64095357D01*
X96555790Y-63714404D01*
X96031980Y-64619166D02*
X96031980Y-65285833D01*
X97031980Y-64857261D01*
%TO.C,R6*%
X92014980Y-64285833D02*
X91538790Y-63952500D01*
X92014980Y-63714404D02*
X91014980Y-63714404D01*
X91014980Y-64095357D01*
X91062600Y-64190595D01*
X91110219Y-64238214D01*
X91205457Y-64285833D01*
X91348314Y-64285833D01*
X91443552Y-64238214D01*
X91491171Y-64190595D01*
X91538790Y-64095357D01*
X91538790Y-63714404D01*
X91014980Y-65142976D02*
X91014980Y-64952500D01*
X91062600Y-64857261D01*
X91110219Y-64809642D01*
X91253076Y-64714404D01*
X91443552Y-64666785D01*
X91824504Y-64666785D01*
X91919742Y-64714404D01*
X91967361Y-64762023D01*
X92014980Y-64857261D01*
X92014980Y-65047738D01*
X91967361Y-65142976D01*
X91919742Y-65190595D01*
X91824504Y-65238214D01*
X91586409Y-65238214D01*
X91491171Y-65190595D01*
X91443552Y-65142976D01*
X91395933Y-65047738D01*
X91395933Y-64857261D01*
X91443552Y-64762023D01*
X91491171Y-64714404D01*
X91586409Y-64666785D01*
%TO.C,R5*%
X126135380Y-78128833D02*
X125659190Y-77795500D01*
X126135380Y-77557404D02*
X125135380Y-77557404D01*
X125135380Y-77938357D01*
X125183000Y-78033595D01*
X125230619Y-78081214D01*
X125325857Y-78128833D01*
X125468714Y-78128833D01*
X125563952Y-78081214D01*
X125611571Y-78033595D01*
X125659190Y-77938357D01*
X125659190Y-77557404D01*
X125135380Y-79033595D02*
X125135380Y-78557404D01*
X125611571Y-78509785D01*
X125563952Y-78557404D01*
X125516333Y-78652642D01*
X125516333Y-78890738D01*
X125563952Y-78985976D01*
X125611571Y-79033595D01*
X125706809Y-79081214D01*
X125944904Y-79081214D01*
X126040142Y-79033595D01*
X126087761Y-78985976D01*
X126135380Y-78890738D01*
X126135380Y-78652642D01*
X126087761Y-78557404D01*
X126040142Y-78509785D01*
%TO.C,R4*%
X59783380Y-35787033D02*
X59307190Y-35453700D01*
X59783380Y-35215604D02*
X58783380Y-35215604D01*
X58783380Y-35596557D01*
X58831000Y-35691795D01*
X58878619Y-35739414D01*
X58973857Y-35787033D01*
X59116714Y-35787033D01*
X59211952Y-35739414D01*
X59259571Y-35691795D01*
X59307190Y-35596557D01*
X59307190Y-35215604D01*
X59116714Y-36644176D02*
X59783380Y-36644176D01*
X58735761Y-36406080D02*
X59450047Y-36167985D01*
X59450047Y-36787033D01*
%TO.C,R3*%
X63973380Y-35787033D02*
X63497190Y-35453700D01*
X63973380Y-35215604D02*
X62973380Y-35215604D01*
X62973380Y-35596557D01*
X63021000Y-35691795D01*
X63068619Y-35739414D01*
X63163857Y-35787033D01*
X63306714Y-35787033D01*
X63401952Y-35739414D01*
X63449571Y-35691795D01*
X63497190Y-35596557D01*
X63497190Y-35215604D01*
X62973380Y-36120366D02*
X62973380Y-36739414D01*
X63354333Y-36406080D01*
X63354333Y-36548938D01*
X63401952Y-36644176D01*
X63449571Y-36691795D01*
X63544809Y-36739414D01*
X63782904Y-36739414D01*
X63878142Y-36691795D01*
X63925761Y-36644176D01*
X63973380Y-36548938D01*
X63973380Y-36263223D01*
X63925761Y-36167985D01*
X63878142Y-36120366D01*
%TO.C,R2*%
X55528380Y-35787033D02*
X55052190Y-35453700D01*
X55528380Y-35215604D02*
X54528380Y-35215604D01*
X54528380Y-35596557D01*
X54576000Y-35691795D01*
X54623619Y-35739414D01*
X54718857Y-35787033D01*
X54861714Y-35787033D01*
X54956952Y-35739414D01*
X55004571Y-35691795D01*
X55052190Y-35596557D01*
X55052190Y-35215604D01*
X54623619Y-36167985D02*
X54576000Y-36215604D01*
X54528380Y-36310842D01*
X54528380Y-36548938D01*
X54576000Y-36644176D01*
X54623619Y-36691795D01*
X54718857Y-36739414D01*
X54814095Y-36739414D01*
X54956952Y-36691795D01*
X55528380Y-36120366D01*
X55528380Y-36739414D01*
%TO.C,R1*%
X51718380Y-35787033D02*
X51242190Y-35453700D01*
X51718380Y-35215604D02*
X50718380Y-35215604D01*
X50718380Y-35596557D01*
X50766000Y-35691795D01*
X50813619Y-35739414D01*
X50908857Y-35787033D01*
X51051714Y-35787033D01*
X51146952Y-35739414D01*
X51194571Y-35691795D01*
X51242190Y-35596557D01*
X51242190Y-35215604D01*
X51718380Y-36739414D02*
X51718380Y-36167985D01*
X51718380Y-36453700D02*
X50718380Y-36453700D01*
X50861238Y-36358461D01*
X50956476Y-36263223D01*
X51004095Y-36167985D01*
%TO.C,J4*%
X167447980Y-211502666D02*
X168162266Y-211502666D01*
X168305123Y-211455047D01*
X168400361Y-211359809D01*
X168447980Y-211216952D01*
X168447980Y-211121714D01*
X167781314Y-212407428D02*
X168447980Y-212407428D01*
X167400361Y-212169333D02*
X168114647Y-211931238D01*
X168114647Y-212550285D01*
%TO.C,J5*%
X77766980Y-71243866D02*
X78481266Y-71243866D01*
X78624123Y-71196247D01*
X78719361Y-71101009D01*
X78766980Y-70958152D01*
X78766980Y-70862914D01*
X77766980Y-72196247D02*
X77766980Y-71720057D01*
X78243171Y-71672438D01*
X78195552Y-71720057D01*
X78147933Y-71815295D01*
X78147933Y-72053390D01*
X78195552Y-72148628D01*
X78243171Y-72196247D01*
X78338409Y-72243866D01*
X78576504Y-72243866D01*
X78671742Y-72196247D01*
X78719361Y-72148628D01*
X78766980Y-72053390D01*
X78766980Y-71815295D01*
X78719361Y-71720057D01*
X78671742Y-71672438D01*
%TO.C,J2*%
X43470580Y-208937066D02*
X44184866Y-208937066D01*
X44327723Y-208889447D01*
X44422961Y-208794209D01*
X44470580Y-208651352D01*
X44470580Y-208556114D01*
X43565819Y-209365638D02*
X43518200Y-209413257D01*
X43470580Y-209508495D01*
X43470580Y-209746590D01*
X43518200Y-209841828D01*
X43565819Y-209889447D01*
X43661057Y-209937066D01*
X43756295Y-209937066D01*
X43899152Y-209889447D01*
X44470580Y-209318019D01*
X44470580Y-209937066D01*
%TO.C,J1*%
X43368980Y-229866466D02*
X44083266Y-229866466D01*
X44226123Y-229818847D01*
X44321361Y-229723609D01*
X44368980Y-229580752D01*
X44368980Y-229485514D01*
X44368980Y-230866466D02*
X44368980Y-230295038D01*
X44368980Y-230580752D02*
X43368980Y-230580752D01*
X43511838Y-230485514D01*
X43607076Y-230390276D01*
X43654695Y-230295038D01*
%TO.C,D4*%
X55703695Y-26106380D02*
X55703695Y-25106380D01*
X55465600Y-25106380D01*
X55322742Y-25154000D01*
X55227504Y-25249238D01*
X55179885Y-25344476D01*
X55132266Y-25534952D01*
X55132266Y-25677809D01*
X55179885Y-25868285D01*
X55227504Y-25963523D01*
X55322742Y-26058761D01*
X55465600Y-26106380D01*
X55703695Y-26106380D01*
X54275123Y-25439714D02*
X54275123Y-26106380D01*
X54513219Y-25058761D02*
X54751314Y-25773047D01*
X54132266Y-25773047D01*
X56819561Y-29707561D02*
X56705276Y-29755180D01*
X56514800Y-29755180D01*
X56438609Y-29707561D01*
X56400514Y-29659942D01*
X56362419Y-29564704D01*
X56362419Y-29469466D01*
X56400514Y-29374228D01*
X56438609Y-29326609D01*
X56514800Y-29278990D01*
X56667180Y-29231371D01*
X56743371Y-29183752D01*
X56781466Y-29136133D01*
X56819561Y-29040895D01*
X56819561Y-28945657D01*
X56781466Y-28850419D01*
X56743371Y-28802800D01*
X56667180Y-28755180D01*
X56476704Y-28755180D01*
X56362419Y-28802800D01*
X56019561Y-29755180D02*
X56019561Y-28755180D01*
X55219561Y-28802800D02*
X55295752Y-28755180D01*
X55410038Y-28755180D01*
X55524323Y-28802800D01*
X55600514Y-28898038D01*
X55638609Y-28993276D01*
X55676704Y-29183752D01*
X55676704Y-29326609D01*
X55638609Y-29517085D01*
X55600514Y-29612323D01*
X55524323Y-29707561D01*
X55410038Y-29755180D01*
X55333847Y-29755180D01*
X55219561Y-29707561D01*
X55181466Y-29659942D01*
X55181466Y-29326609D01*
X55333847Y-29326609D01*
X54838609Y-29755180D02*
X54838609Y-28755180D01*
X54381466Y-29755180D01*
X54381466Y-28755180D01*
X54038609Y-29469466D02*
X53657657Y-29469466D01*
X54114800Y-29755180D02*
X53848133Y-28755180D01*
X53581466Y-29755180D01*
X52933847Y-29755180D02*
X53314800Y-29755180D01*
X53314800Y-28755180D01*
%TO.C,D3*%
X62460095Y-26055580D02*
X62460095Y-25055580D01*
X62222000Y-25055580D01*
X62079142Y-25103200D01*
X61983904Y-25198438D01*
X61936285Y-25293676D01*
X61888666Y-25484152D01*
X61888666Y-25627009D01*
X61936285Y-25817485D01*
X61983904Y-25912723D01*
X62079142Y-26007961D01*
X62222000Y-26055580D01*
X62460095Y-26055580D01*
X61555333Y-25055580D02*
X60936285Y-25055580D01*
X61269619Y-25436533D01*
X61126761Y-25436533D01*
X61031523Y-25484152D01*
X60983904Y-25531771D01*
X60936285Y-25627009D01*
X60936285Y-25865104D01*
X60983904Y-25960342D01*
X61031523Y-26007961D01*
X61126761Y-26055580D01*
X61412476Y-26055580D01*
X61507714Y-26007961D01*
X61555333Y-25960342D01*
X63061190Y-29341771D02*
X63327857Y-29341771D01*
X63327857Y-29865580D02*
X63327857Y-28865580D01*
X62946904Y-28865580D01*
X62680238Y-29579866D02*
X62299285Y-29579866D01*
X62756428Y-29865580D02*
X62489761Y-28865580D01*
X62223095Y-29865580D01*
X61956428Y-28865580D02*
X61956428Y-29675104D01*
X61918333Y-29770342D01*
X61880238Y-29817961D01*
X61804047Y-29865580D01*
X61651666Y-29865580D01*
X61575476Y-29817961D01*
X61537380Y-29770342D01*
X61499285Y-29675104D01*
X61499285Y-28865580D01*
X60737380Y-29865580D02*
X61118333Y-29865580D01*
X61118333Y-28865580D01*
X60585000Y-28865580D02*
X60127857Y-28865580D01*
X60356428Y-29865580D02*
X60356428Y-28865580D01*
%TO.C,D2*%
X48654695Y-26068280D02*
X48654695Y-25068280D01*
X48416600Y-25068280D01*
X48273742Y-25115900D01*
X48178504Y-25211138D01*
X48130885Y-25306376D01*
X48083266Y-25496852D01*
X48083266Y-25639709D01*
X48130885Y-25830185D01*
X48178504Y-25925423D01*
X48273742Y-26020661D01*
X48416600Y-26068280D01*
X48654695Y-26068280D01*
X47702314Y-25163519D02*
X47654695Y-25115900D01*
X47559457Y-25068280D01*
X47321361Y-25068280D01*
X47226123Y-25115900D01*
X47178504Y-25163519D01*
X47130885Y-25258757D01*
X47130885Y-25353995D01*
X47178504Y-25496852D01*
X47749933Y-26068280D01*
X47130885Y-26068280D01*
X49936152Y-29656761D02*
X49821866Y-29704380D01*
X49631390Y-29704380D01*
X49555200Y-29656761D01*
X49517104Y-29609142D01*
X49479009Y-29513904D01*
X49479009Y-29418666D01*
X49517104Y-29323428D01*
X49555200Y-29275809D01*
X49631390Y-29228190D01*
X49783771Y-29180571D01*
X49859961Y-29132952D01*
X49898057Y-29085333D01*
X49936152Y-28990095D01*
X49936152Y-28894857D01*
X49898057Y-28799619D01*
X49859961Y-28752000D01*
X49783771Y-28704380D01*
X49593295Y-28704380D01*
X49479009Y-28752000D01*
X49250438Y-28704380D02*
X48793295Y-28704380D01*
X49021866Y-29704380D02*
X49021866Y-28704380D01*
X48564723Y-29418666D02*
X48183771Y-29418666D01*
X48640914Y-29704380D02*
X48374247Y-28704380D01*
X48107580Y-29704380D01*
X47955200Y-28704380D02*
X47498057Y-28704380D01*
X47726628Y-29704380D02*
X47726628Y-28704380D01*
X47231390Y-28704380D02*
X47231390Y-29513904D01*
X47193295Y-29609142D01*
X47155200Y-29656761D01*
X47079009Y-29704380D01*
X46926628Y-29704380D01*
X46850438Y-29656761D01*
X46812342Y-29609142D01*
X46774247Y-29513904D01*
X46774247Y-28704380D01*
X46431390Y-29656761D02*
X46317104Y-29704380D01*
X46126628Y-29704380D01*
X46050438Y-29656761D01*
X46012342Y-29609142D01*
X45974247Y-29513904D01*
X45974247Y-29418666D01*
X46012342Y-29323428D01*
X46050438Y-29275809D01*
X46126628Y-29228190D01*
X46279009Y-29180571D01*
X46355200Y-29132952D01*
X46393295Y-29085333D01*
X46431390Y-28990095D01*
X46431390Y-28894857D01*
X46393295Y-28799619D01*
X46355200Y-28752000D01*
X46279009Y-28704380D01*
X46088533Y-28704380D01*
X45974247Y-28752000D01*
%TO.C,D1*%
X41682895Y-26068280D02*
X41682895Y-25068280D01*
X41444800Y-25068280D01*
X41301942Y-25115900D01*
X41206704Y-25211138D01*
X41159085Y-25306376D01*
X41111466Y-25496852D01*
X41111466Y-25639709D01*
X41159085Y-25830185D01*
X41206704Y-25925423D01*
X41301942Y-26020661D01*
X41444800Y-26068280D01*
X41682895Y-26068280D01*
X40159085Y-26068280D02*
X40730514Y-26068280D01*
X40444800Y-26068280D02*
X40444800Y-25068280D01*
X40540038Y-25211138D01*
X40635276Y-25306376D01*
X40730514Y-25353995D01*
D15*
X42868619Y-29755180D02*
X42868619Y-28755180D01*
X42563857Y-28755180D01*
X42487666Y-28802800D01*
X42449571Y-28850419D01*
X42411476Y-28945657D01*
X42411476Y-29088514D01*
X42449571Y-29183752D01*
X42487666Y-29231371D01*
X42563857Y-29278990D01*
X42868619Y-29278990D01*
X41916238Y-28755180D02*
X41763857Y-28755180D01*
X41687666Y-28802800D01*
X41611476Y-28898038D01*
X41573380Y-29088514D01*
X41573380Y-29421847D01*
X41611476Y-29612323D01*
X41687666Y-29707561D01*
X41763857Y-29755180D01*
X41916238Y-29755180D01*
X41992428Y-29707561D01*
X42068619Y-29612323D01*
X42106714Y-29421847D01*
X42106714Y-29088514D01*
X42068619Y-28898038D01*
X41992428Y-28802800D01*
X41916238Y-28755180D01*
X41306714Y-28755180D02*
X41116238Y-29755180D01*
X40963857Y-29040895D01*
X40811476Y-29755180D01*
X40621000Y-28755180D01*
X40316238Y-29231371D02*
X40049571Y-29231371D01*
X39935285Y-29755180D02*
X40316238Y-29755180D01*
X40316238Y-28755180D01*
X39935285Y-28755180D01*
X39135285Y-29755180D02*
X39401952Y-29278990D01*
X39592428Y-29755180D02*
X39592428Y-28755180D01*
X39287666Y-28755180D01*
X39211476Y-28802800D01*
X39173380Y-28850419D01*
X39135285Y-28945657D01*
X39135285Y-29088514D01*
X39173380Y-29183752D01*
X39211476Y-29231371D01*
X39287666Y-29278990D01*
X39592428Y-29278990D01*
%TO.C,C5*%
D14*
X149010666Y-113154142D02*
X149058285Y-113201761D01*
X149201142Y-113249380D01*
X149296380Y-113249380D01*
X149439238Y-113201761D01*
X149534476Y-113106523D01*
X149582095Y-113011285D01*
X149629714Y-112820809D01*
X149629714Y-112677952D01*
X149582095Y-112487476D01*
X149534476Y-112392238D01*
X149439238Y-112297000D01*
X149296380Y-112249380D01*
X149201142Y-112249380D01*
X149058285Y-112297000D01*
X149010666Y-112344619D01*
X148105904Y-112249380D02*
X148582095Y-112249380D01*
X148629714Y-112725571D01*
X148582095Y-112677952D01*
X148486857Y-112630333D01*
X148248761Y-112630333D01*
X148153523Y-112677952D01*
X148105904Y-112725571D01*
X148058285Y-112820809D01*
X148058285Y-113058904D01*
X148105904Y-113154142D01*
X148153523Y-113201761D01*
X148248761Y-113249380D01*
X148486857Y-113249380D01*
X148582095Y-113201761D01*
X148629714Y-113154142D01*
%TO.C,C4*%
X127420666Y-113154142D02*
X127468285Y-113201761D01*
X127611142Y-113249380D01*
X127706380Y-113249380D01*
X127849238Y-113201761D01*
X127944476Y-113106523D01*
X127992095Y-113011285D01*
X128039714Y-112820809D01*
X128039714Y-112677952D01*
X127992095Y-112487476D01*
X127944476Y-112392238D01*
X127849238Y-112297000D01*
X127706380Y-112249380D01*
X127611142Y-112249380D01*
X127468285Y-112297000D01*
X127420666Y-112344619D01*
X126563523Y-112582714D02*
X126563523Y-113249380D01*
X126801619Y-112201761D02*
X127039714Y-112916047D01*
X126420666Y-112916047D01*
%TO.C,C3*%
X104306666Y-113561142D02*
X104354285Y-113608761D01*
X104497142Y-113656380D01*
X104592380Y-113656380D01*
X104735238Y-113608761D01*
X104830476Y-113513523D01*
X104878095Y-113418285D01*
X104925714Y-113227809D01*
X104925714Y-113084952D01*
X104878095Y-112894476D01*
X104830476Y-112799238D01*
X104735238Y-112704000D01*
X104592380Y-112656380D01*
X104497142Y-112656380D01*
X104354285Y-112704000D01*
X104306666Y-112751619D01*
X103973333Y-112656380D02*
X103354285Y-112656380D01*
X103687619Y-113037333D01*
X103544761Y-113037333D01*
X103449523Y-113084952D01*
X103401904Y-113132571D01*
X103354285Y-113227809D01*
X103354285Y-113465904D01*
X103401904Y-113561142D01*
X103449523Y-113608761D01*
X103544761Y-113656380D01*
X103830476Y-113656380D01*
X103925714Y-113608761D01*
X103973333Y-113561142D01*
%TO.C,C2*%
X82970666Y-113154142D02*
X83018285Y-113201761D01*
X83161142Y-113249380D01*
X83256380Y-113249380D01*
X83399238Y-113201761D01*
X83494476Y-113106523D01*
X83542095Y-113011285D01*
X83589714Y-112820809D01*
X83589714Y-112677952D01*
X83542095Y-112487476D01*
X83494476Y-112392238D01*
X83399238Y-112297000D01*
X83256380Y-112249380D01*
X83161142Y-112249380D01*
X83018285Y-112297000D01*
X82970666Y-112344619D01*
X82589714Y-112344619D02*
X82542095Y-112297000D01*
X82446857Y-112249380D01*
X82208761Y-112249380D01*
X82113523Y-112297000D01*
X82065904Y-112344619D01*
X82018285Y-112439857D01*
X82018285Y-112535095D01*
X82065904Y-112677952D01*
X82637333Y-113249380D01*
X82018285Y-113249380D01*
%TO.C,C1*%
X61380666Y-113154142D02*
X61428285Y-113201761D01*
X61571142Y-113249380D01*
X61666380Y-113249380D01*
X61809238Y-113201761D01*
X61904476Y-113106523D01*
X61952095Y-113011285D01*
X61999714Y-112820809D01*
X61999714Y-112677952D01*
X61952095Y-112487476D01*
X61904476Y-112392238D01*
X61809238Y-112297000D01*
X61666380Y-112249380D01*
X61571142Y-112249380D01*
X61428285Y-112297000D01*
X61380666Y-112344619D01*
X60428285Y-113249380D02*
X60999714Y-113249380D01*
X60714000Y-113249380D02*
X60714000Y-112249380D01*
X60809238Y-112392238D01*
X60904476Y-112487476D01*
X60999714Y-112535095D01*
%TD*%
M02*
