%FSLAX45Y45*%
G04 Gerber Fmt 4.5, Leading zero omitted, Abs format (unit mm)*
G04 Created by KiCad (PCBNEW (5.1.10)-1) date 2022-01-05 12:21:27*
%MOMM*%
%LPD*%
G01*
G04 APERTURE LIST*
%TA.AperFunction,Profile*%
%ADD10C,0.050000*%
%TD*%
%TA.AperFunction,Profile*%
%ADD11C,0.200000*%
%TD*%
%ADD12C,0.200000*%
%ADD13C,0.300000*%
G04 APERTURE END LIST*
D10*
X14833600Y-8409940D02*
G75*
G03*
X14833600Y-8409940I-152400J0D01*
G01*
X6634480Y-8409940D02*
G75*
G03*
X6634480Y-8409940I-152400J0D01*
G01*
X14833600Y-12308840D02*
G75*
G03*
X14833600Y-12308840I-152400J0D01*
G01*
X6634480Y-12308840D02*
G75*
G03*
X6634480Y-12308840I-152400J0D01*
G01*
D11*
X3821610Y-3586296D02*
G75*
G03*
X3821610Y-3586296I-200000J0D01*
G01*
X3218905Y-24804294D02*
X17818905Y-24804294D01*
X17621837Y-14372598D02*
G75*
G03*
X17621837Y-14372598I-200000J0D01*
G01*
X17621846Y-3585449D02*
G75*
G03*
X17621846Y-3585449I-200000J0D01*
G01*
X3118905Y-2404294D02*
G75*
G02*
X3218905Y-2304294I100000J0D01*
G01*
X3821846Y-23494548D02*
G75*
G03*
X3821846Y-23494548I-200000J0D01*
G01*
X17918905Y-24704294D02*
X17918905Y-2404294D01*
X3118905Y-2404294D02*
X3118905Y-24704294D01*
X3218905Y-24804294D02*
G75*
G02*
X3118905Y-24704294I0J100000D01*
G01*
X17818905Y-2304294D02*
G75*
G02*
X17918905Y-2404294I0J-100000D01*
G01*
X17818905Y-2304294D02*
X3218905Y-2304294D01*
X3821839Y-14372603D02*
G75*
G03*
X3821839Y-14372603I-200000J0D01*
G01*
X17918905Y-24704294D02*
G75*
G02*
X17818905Y-24804294I-100000J0D01*
G01*
X17621847Y-23490032D02*
G75*
G03*
X17621847Y-23490032I-200000J0D01*
G01*
D10*
X15880166Y-12306300D02*
G75*
G03*
X15880166Y-12306300I-149946J0D01*
G01*
X5483860Y-12306300D02*
G75*
G03*
X5483860Y-12306300I-152400J0D01*
G01*
X15882641Y-4605020D02*
G75*
G03*
X15882641Y-4605020I-152421J0D01*
G01*
X5483881Y-4605020D02*
G75*
G03*
X5483881Y-4605020I-152421J0D01*
G01*
X8468360Y-13022580D02*
X10279380Y-13022580D01*
X8468360Y-13152120D02*
X8468360Y-13022580D01*
X12146280Y-13152120D02*
X8468360Y-13152120D01*
X12146280Y-13022580D02*
X12146280Y-13152120D01*
X10279380Y-13022580D02*
X12146280Y-13022580D01*
D12*
X3994630Y-16971550D02*
X4034630Y-17011550D01*
X4034630Y-16971550D02*
X3994630Y-17011550D01*
X4058260Y-19101620D02*
X4098260Y-19141620D01*
X4098260Y-19101620D02*
X4058260Y-19141620D01*
X4094140Y-18840150D02*
X4134140Y-18880150D01*
X4134140Y-18840150D02*
X4094140Y-18880150D01*
X4116170Y-20639820D02*
X4156170Y-20679820D01*
X4156170Y-20639820D02*
X4116170Y-20679820D01*
X5133560Y-10012480D02*
X5173560Y-10052480D01*
X5173560Y-10012480D02*
X5133560Y-10052480D01*
X5540400Y-11163690D02*
X5580400Y-11203690D01*
X5580400Y-11163690D02*
X5540400Y-11203690D01*
X5725810Y-11932130D02*
X5765810Y-11972130D01*
X5765810Y-11932130D02*
X5725810Y-11972130D01*
X5887830Y-9225490D02*
X5927830Y-9265490D01*
X5927830Y-9225490D02*
X5887830Y-9265490D01*
X5898380Y-9450380D02*
X5938380Y-9490380D01*
X5938380Y-9450380D02*
X5898380Y-9490380D01*
X5956440Y-10395850D02*
X5996440Y-10435850D01*
X5996440Y-10395850D02*
X5956440Y-10435850D01*
X5968470Y-10237260D02*
X6008470Y-10277260D01*
X6008470Y-10237260D02*
X5968470Y-10277260D01*
X6130060Y-10249690D02*
X6170060Y-10289690D01*
X6170060Y-10249690D02*
X6130060Y-10289690D01*
X6286190Y-14596480D02*
X6326190Y-14636480D01*
X6326190Y-14596480D02*
X6286190Y-14636480D01*
X6325290Y-3626250D02*
X6365290Y-3666250D01*
X6365290Y-3626250D02*
X6325290Y-3666250D01*
X6427480Y-15991200D02*
X6467480Y-16031200D01*
X6467480Y-15991200D02*
X6427480Y-16031200D01*
X6604620Y-14398290D02*
X6644620Y-14438290D01*
X6644620Y-14398290D02*
X6604620Y-14438290D01*
X6814920Y-13190840D02*
X6854920Y-13230840D01*
X6854920Y-13190840D02*
X6814920Y-13230840D01*
X6845650Y-12909040D02*
X6885650Y-12949040D01*
X6885650Y-12909040D02*
X6845650Y-12949040D01*
X6847740Y-12636640D02*
X6887740Y-12676640D01*
X6887740Y-12636640D02*
X6847740Y-12676640D01*
X7044750Y-10960320D02*
X7084750Y-11000320D01*
X7084750Y-10960320D02*
X7044750Y-11000320D01*
X7074120Y-12652030D02*
X7114120Y-12692030D01*
X7114120Y-12652030D02*
X7074120Y-12692030D01*
X7102520Y-11124420D02*
X7142520Y-11164420D01*
X7142520Y-11124420D02*
X7102520Y-11164420D01*
X7326480Y-3171280D02*
X7366480Y-3211280D01*
X7366480Y-3171280D02*
X7326480Y-3211280D01*
X7330590Y-10514210D02*
X7370590Y-10554210D01*
X7370590Y-10514210D02*
X7330590Y-10554210D01*
X7333740Y-10773870D02*
X7373740Y-10813870D01*
X7373740Y-10773870D02*
X7333740Y-10813870D01*
X7478250Y-10186690D02*
X7518250Y-10226690D01*
X7518250Y-10186690D02*
X7478250Y-10226690D01*
X7487650Y-9186800D02*
X7527650Y-9226800D01*
X7527650Y-9186800D02*
X7487650Y-9226800D01*
X7592790Y-9276230D02*
X7632790Y-9316230D01*
X7632790Y-9276230D02*
X7592790Y-9316230D01*
X7702480Y-8971750D02*
X7742480Y-9011750D01*
X7742480Y-8971750D02*
X7702480Y-9011750D01*
X7723840Y-18179410D02*
X7763840Y-18219410D01*
X7763840Y-18179410D02*
X7723840Y-18219410D01*
X7931780Y-11123980D02*
X7971780Y-11163980D01*
X7971780Y-11123980D02*
X7931780Y-11163980D01*
X7971930Y-8852300D02*
X8011930Y-8892300D01*
X8011930Y-8852300D02*
X7971930Y-8892300D01*
X8124650Y-10718050D02*
X8164650Y-10758050D01*
X8164650Y-10718050D02*
X8124650Y-10758050D01*
X8146890Y-9639420D02*
X8186890Y-9679420D01*
X8186890Y-9639420D02*
X8146890Y-9679420D01*
X8354660Y-9727820D02*
X8394660Y-9767820D01*
X8394660Y-9727820D02*
X8354660Y-9767820D01*
X8364330Y-6781910D02*
X8404330Y-6821910D01*
X8404330Y-6781910D02*
X8364330Y-6821910D01*
X8491010Y-10191930D02*
X8531010Y-10231930D01*
X8531010Y-10191930D02*
X8491010Y-10231930D01*
X8512040Y-9120590D02*
X8552040Y-9160590D01*
X8552040Y-9120590D02*
X8512040Y-9160590D01*
X8610990Y-8148060D02*
X8650990Y-8188060D01*
X8650990Y-8148060D02*
X8610990Y-8188060D01*
X8859510Y-3184150D02*
X8899510Y-3224150D01*
X8899510Y-3184150D02*
X8859510Y-3224150D01*
X8984300Y-9114980D02*
X9024300Y-9154980D01*
X9024300Y-9114980D02*
X8984300Y-9154980D01*
X9067400Y-9514280D02*
X9107400Y-9554280D01*
X9107400Y-9514280D02*
X9067400Y-9554280D01*
X9083710Y-11150300D02*
X9123710Y-11190300D01*
X9123710Y-11150300D02*
X9083710Y-11190300D01*
X9085970Y-9256840D02*
X9125970Y-9296840D01*
X9125970Y-9256840D02*
X9085970Y-9296840D01*
X9150460Y-10919150D02*
X9190460Y-10959150D01*
X9190460Y-10919150D02*
X9150460Y-10959150D01*
X9279230Y-10688260D02*
X9319230Y-10728260D01*
X9319230Y-10688260D02*
X9279230Y-10728260D01*
X9314460Y-8237570D02*
X9354460Y-8277570D01*
X9354460Y-8237570D02*
X9314460Y-8277570D01*
X9444660Y-10998120D02*
X9484660Y-11038120D01*
X9484660Y-10998120D02*
X9444660Y-11038120D01*
X9545360Y-9129490D02*
X9585360Y-9169490D01*
X9585360Y-9129490D02*
X9545360Y-9169490D01*
X9761590Y-10700840D02*
X9801590Y-10740840D01*
X9801590Y-10700840D02*
X9761590Y-10740840D01*
X10039610Y-10887920D02*
X10079610Y-10927920D01*
X10079610Y-10887920D02*
X10039610Y-10927920D01*
X10182210Y-9862100D02*
X10222210Y-9902100D01*
X10222210Y-9862100D02*
X10182210Y-9902100D01*
X10211910Y-10666660D02*
X10251910Y-10706660D01*
X10251910Y-10666660D02*
X10211910Y-10706660D01*
X10211910Y-12036440D02*
X10251910Y-12076440D01*
X10251910Y-12036440D02*
X10211910Y-12076440D01*
X10287320Y-14513880D02*
X10327320Y-14553880D01*
X10327320Y-14513880D02*
X10287320Y-14553880D01*
X10303910Y-3171280D02*
X10343910Y-3211280D01*
X10343910Y-3171280D02*
X10303910Y-3211280D01*
X10382850Y-10209620D02*
X10422850Y-10249620D01*
X10422850Y-10209620D02*
X10382850Y-10249620D01*
X10382850Y-11999040D02*
X10422850Y-12039040D01*
X10422850Y-11999040D02*
X10382850Y-12039040D01*
X10417480Y-9945400D02*
X10457480Y-9985400D01*
X10457480Y-9945400D02*
X10417480Y-9985400D01*
X10586070Y-10635370D02*
X10626070Y-10675370D01*
X10626070Y-10635370D02*
X10586070Y-10675370D01*
X10632190Y-9640250D02*
X10672190Y-9680250D01*
X10672190Y-9640250D02*
X10632190Y-9680250D01*
X10664420Y-13200610D02*
X10704420Y-13240610D01*
X10704420Y-13200610D02*
X10664420Y-13240610D01*
X10691480Y-10533660D02*
X10731480Y-10573660D01*
X10731480Y-10533660D02*
X10691480Y-10573660D01*
X10730080Y-17040480D02*
X10770080Y-17080480D01*
X10770080Y-17040480D02*
X10730080Y-17080480D01*
X11004470Y-11107730D02*
X11044470Y-11147730D01*
X11044470Y-11107730D02*
X11004470Y-11147730D01*
X11004470Y-11864370D02*
X11044470Y-11904370D01*
X11044470Y-11864370D02*
X11004470Y-11904370D01*
X11092460Y-7927150D02*
X11132460Y-7967150D01*
X11132460Y-7927150D02*
X11092460Y-7967150D01*
X11164610Y-11153550D02*
X11204610Y-11193550D01*
X11204610Y-11153550D02*
X11164610Y-11193550D01*
X11269770Y-17550360D02*
X11309770Y-17590360D01*
X11309770Y-17550360D02*
X11269770Y-17590360D01*
X11420950Y-9638840D02*
X11460950Y-9678840D01*
X11460950Y-9638840D02*
X11420950Y-9678840D01*
X11639390Y-12856170D02*
X11679390Y-12896170D01*
X11679390Y-12856170D02*
X11639390Y-12896170D01*
X11644420Y-13878130D02*
X11684420Y-13918130D01*
X11684420Y-13878130D02*
X11644420Y-13918130D01*
X11653240Y-17993520D02*
X11693240Y-18033520D01*
X11693240Y-17993520D02*
X11653240Y-18033520D01*
X11757000Y-8469230D02*
X11797000Y-8509230D01*
X11797000Y-8469230D02*
X11757000Y-8509230D01*
X11873290Y-13794250D02*
X11913290Y-13834250D01*
X11913290Y-13794250D02*
X11873290Y-13834250D01*
X11922020Y-10166600D02*
X11962020Y-10206600D01*
X11962020Y-10166600D02*
X11922020Y-10206600D01*
X12045400Y-9847940D02*
X12085400Y-9887940D01*
X12085400Y-9847940D02*
X12045400Y-9887940D01*
X12151680Y-18989360D02*
X12191680Y-19029360D01*
X12191680Y-18989360D02*
X12151680Y-19029360D01*
X12272240Y-10980030D02*
X12312240Y-11020030D01*
X12312240Y-10980030D02*
X12272240Y-11020030D01*
X12307370Y-19980810D02*
X12347370Y-20020810D01*
X12347370Y-19980810D02*
X12307370Y-20020810D01*
X12390610Y-11159610D02*
X12430610Y-11199610D01*
X12430610Y-11159610D02*
X12390610Y-11199610D01*
X12472840Y-10796140D02*
X12512840Y-10836140D01*
X12512840Y-10796140D02*
X12472840Y-10836140D01*
X12531970Y-9527140D02*
X12571970Y-9567140D01*
X12571970Y-9527140D02*
X12531970Y-9567140D01*
X12577860Y-10042810D02*
X12617860Y-10082810D01*
X12617860Y-10042810D02*
X12577860Y-10082810D01*
X12599800Y-10855830D02*
X12639800Y-10895830D01*
X12639800Y-10855830D02*
X12599800Y-10895830D01*
X12758220Y-9983740D02*
X12798220Y-10023740D01*
X12798220Y-9983740D02*
X12758220Y-10023740D01*
X12852140Y-9582530D02*
X12892140Y-9622530D01*
X12892140Y-9582530D02*
X12852140Y-9622530D01*
X12870690Y-15102690D02*
X12910690Y-15142690D01*
X12910690Y-15102690D02*
X12870690Y-15142690D01*
X12875790Y-15582880D02*
X12915790Y-15622880D01*
X12915790Y-15582880D02*
X12875790Y-15622880D01*
X12965450Y-11276700D02*
X13005450Y-11316700D01*
X13005450Y-11276700D02*
X12965450Y-11316700D01*
X12976920Y-10037110D02*
X13016920Y-10077110D01*
X13016920Y-10037110D02*
X12976920Y-10077110D01*
X13026440Y-11663980D02*
X13066440Y-11703980D01*
X13066440Y-11663980D02*
X13026440Y-11703980D01*
X13026440Y-12020980D02*
X13066440Y-12060980D01*
X13066440Y-12020980D02*
X13026440Y-12060980D01*
X13145070Y-11738350D02*
X13185070Y-11778350D01*
X13185070Y-11738350D02*
X13145070Y-11778350D01*
X13268620Y-12316410D02*
X13308620Y-12356410D01*
X13308620Y-12316410D02*
X13268620Y-12356410D01*
X13279200Y-22088350D02*
X13319200Y-22128350D01*
X13319200Y-22088350D02*
X13279200Y-22128350D01*
X13344050Y-3138860D02*
X13384050Y-3178860D01*
X13384050Y-3138860D02*
X13344050Y-3178860D01*
X13363770Y-9662660D02*
X13403770Y-9702660D01*
X13403770Y-9662660D02*
X13363770Y-9702660D01*
X13457760Y-10450790D02*
X13497760Y-10490790D01*
X13497760Y-10450790D02*
X13457760Y-10490790D01*
X13560280Y-19931110D02*
X13600280Y-19971110D01*
X13600280Y-19931110D02*
X13560280Y-19971110D01*
X13567420Y-10315110D02*
X13607420Y-10355110D01*
X13607420Y-10315110D02*
X13567420Y-10355110D01*
X13578950Y-10896290D02*
X13618950Y-10936290D01*
X13618950Y-10896290D02*
X13578950Y-10936290D01*
X13635290Y-18822010D02*
X13675290Y-18862010D01*
X13675290Y-18822010D02*
X13635290Y-18862010D01*
X13867050Y-15300790D02*
X13907050Y-15340790D01*
X13907050Y-15300790D02*
X13867050Y-15340790D01*
X13923750Y-8502140D02*
X13963750Y-8542140D01*
X13963750Y-8502140D02*
X13923750Y-8542140D01*
X13942250Y-15683140D02*
X13982250Y-15723140D01*
X13982250Y-15683140D02*
X13942250Y-15723140D01*
X14047840Y-14234880D02*
X14087840Y-14274880D01*
X14087840Y-14234880D02*
X14047840Y-14274880D01*
X14135840Y-10632670D02*
X14175840Y-10672670D01*
X14175840Y-10632670D02*
X14135840Y-10672670D01*
X14153200Y-18044480D02*
X14193200Y-18084480D01*
X14193200Y-18044480D02*
X14153200Y-18084480D01*
X14166080Y-18599550D02*
X14206080Y-18639550D01*
X14206080Y-18599550D02*
X14166080Y-18639550D01*
X14181750Y-10439630D02*
X14221750Y-10479630D01*
X14221750Y-10439630D02*
X14181750Y-10479630D01*
X14371790Y-12648880D02*
X14411790Y-12688880D01*
X14411790Y-12648880D02*
X14371790Y-12688880D01*
X14450680Y-11739770D02*
X14490680Y-11779770D01*
X14490680Y-11739770D02*
X14450680Y-11779770D01*
X14530110Y-17550360D02*
X14570110Y-17590360D01*
X14570110Y-17550360D02*
X14530110Y-17590360D01*
X14590410Y-10843200D02*
X14630410Y-10883200D01*
X14630410Y-10843200D02*
X14590410Y-10883200D01*
X14592660Y-10696360D02*
X14632660Y-10736360D01*
X14632660Y-10696360D02*
X14592660Y-10736360D01*
X14601840Y-10498640D02*
X14641840Y-10538640D01*
X14641840Y-10498640D02*
X14601840Y-10538640D01*
X14661610Y-16026690D02*
X14701610Y-16066690D01*
X14701610Y-16026690D02*
X14661610Y-16066690D01*
X14819800Y-10916950D02*
X14859800Y-10956950D01*
X14859800Y-10916950D02*
X14819800Y-10956950D01*
X14823780Y-14577330D02*
X14863780Y-14617330D01*
X14863780Y-14577330D02*
X14823780Y-14617330D01*
X14829380Y-17550360D02*
X14869380Y-17590360D01*
X14869380Y-17550360D02*
X14829380Y-17590360D01*
X14887080Y-10399610D02*
X14927080Y-10439610D01*
X14927080Y-10399610D02*
X14887080Y-10439610D01*
X14896400Y-9677690D02*
X14936400Y-9717690D01*
X14936400Y-9677690D02*
X14896400Y-9717690D01*
X14943900Y-10602790D02*
X14983900Y-10642790D01*
X14983900Y-10602790D02*
X14943900Y-10642790D01*
X14948320Y-12062140D02*
X14988320Y-12102140D01*
X14988320Y-12062140D02*
X14948320Y-12102140D01*
X15030080Y-9666410D02*
X15070080Y-9706410D01*
X15070080Y-9666410D02*
X15030080Y-9706410D01*
X15079820Y-12048670D02*
X15119820Y-12088670D01*
X15119820Y-12048670D02*
X15079820Y-12088670D01*
X15136250Y-10728170D02*
X15176250Y-10768170D01*
X15176250Y-10728170D02*
X15136250Y-10768170D01*
X15184440Y-20381280D02*
X15224440Y-20421280D01*
X15224440Y-20381280D02*
X15184440Y-20421280D01*
X15238740Y-12352950D02*
X15278740Y-12392950D01*
X15278740Y-12352950D02*
X15238740Y-12392950D01*
X15394690Y-16028080D02*
X15434690Y-16068080D01*
X15434690Y-16028080D02*
X15394690Y-16068080D01*
X16300550Y-10412750D02*
X16340550Y-10452750D01*
X16340550Y-10412750D02*
X16300550Y-10452750D01*
X16510320Y-17627920D02*
X16550320Y-17667920D01*
X16550320Y-17627920D02*
X16510320Y-17667920D01*
X16744000Y-15067600D02*
X16784000Y-15107600D01*
X16784000Y-15067600D02*
X16744000Y-15107600D01*
X16859780Y-19078620D02*
X16899780Y-19118620D01*
X16899780Y-19078620D02*
X16859780Y-19118620D01*
X16934820Y-10732450D02*
X16974820Y-10772450D01*
X16974820Y-10732450D02*
X16934820Y-10772450D01*
X17663740Y-8796730D02*
X17703740Y-8836730D01*
X17703740Y-8796730D02*
X17663740Y-8836730D01*
X3640120Y-9853880D02*
G75*
G03*
X3640120Y-9853880I-38100J0D01*
G01*
X3640120Y-10303880D02*
G75*
G03*
X3640120Y-10303880I-38100J0D01*
G01*
X3641140Y-5647640D02*
G75*
G03*
X3641140Y-5647640I-38100J0D01*
G01*
X3641140Y-6097640D02*
G75*
G03*
X3641140Y-6097640I-38100J0D01*
G01*
X3641140Y-10900400D02*
G75*
G03*
X3641140Y-10900400I-38100J0D01*
G01*
X3641140Y-11350400D02*
G75*
G03*
X3641140Y-11350400I-38100J0D01*
G01*
X3642660Y-7750760D02*
G75*
G03*
X3642660Y-7750760I-38100J0D01*
G01*
X3642660Y-8200760D02*
G75*
G03*
X3642660Y-8200760I-38100J0D01*
G01*
X3646220Y-8802320D02*
G75*
G03*
X3646220Y-8802320I-38100J0D01*
G01*
X3646220Y-9252320D02*
G75*
G03*
X3646220Y-9252320I-38100J0D01*
G01*
X3651300Y-6699200D02*
G75*
G03*
X3651300Y-6699200I-38100J0D01*
G01*
X3651300Y-7149200D02*
G75*
G03*
X3651300Y-7149200I-38100J0D01*
G01*
X3950120Y-9788880D02*
G75*
G03*
X3950120Y-9788880I-38100J0D01*
G01*
X3950120Y-10368880D02*
G75*
G03*
X3950120Y-10368880I-38100J0D01*
G01*
X3951140Y-5582640D02*
G75*
G03*
X3951140Y-5582640I-38100J0D01*
G01*
X3951140Y-6162640D02*
G75*
G03*
X3951140Y-6162640I-38100J0D01*
G01*
X3951140Y-10835400D02*
G75*
G03*
X3951140Y-10835400I-38100J0D01*
G01*
X3951140Y-11415400D02*
G75*
G03*
X3951140Y-11415400I-38100J0D01*
G01*
X3952660Y-7685760D02*
G75*
G03*
X3952660Y-7685760I-38100J0D01*
G01*
X3952660Y-8265760D02*
G75*
G03*
X3952660Y-8265760I-38100J0D01*
G01*
X3956220Y-8737320D02*
G75*
G03*
X3956220Y-8737320I-38100J0D01*
G01*
X3956220Y-9317320D02*
G75*
G03*
X3956220Y-9317320I-38100J0D01*
G01*
X3961300Y-6634200D02*
G75*
G03*
X3961300Y-6634200I-38100J0D01*
G01*
X3961300Y-7214200D02*
G75*
G03*
X3961300Y-7214200I-38100J0D01*
G01*
X4250120Y-9853880D02*
G75*
G03*
X4250120Y-9853880I-38100J0D01*
G01*
X4250120Y-10303880D02*
G75*
G03*
X4250120Y-10303880I-38100J0D01*
G01*
X4251140Y-5647640D02*
G75*
G03*
X4251140Y-5647640I-38100J0D01*
G01*
X4251140Y-6097640D02*
G75*
G03*
X4251140Y-6097640I-38100J0D01*
G01*
X4251140Y-10900400D02*
G75*
G03*
X4251140Y-10900400I-38100J0D01*
G01*
X4251140Y-11350400D02*
G75*
G03*
X4251140Y-11350400I-38100J0D01*
G01*
X4252660Y-7750760D02*
G75*
G03*
X4252660Y-7750760I-38100J0D01*
G01*
X4252660Y-8200760D02*
G75*
G03*
X4252660Y-8200760I-38100J0D01*
G01*
X4256220Y-8802320D02*
G75*
G03*
X4256220Y-8802320I-38100J0D01*
G01*
X4256220Y-9252320D02*
G75*
G03*
X4256220Y-9252320I-38100J0D01*
G01*
X4261300Y-6699200D02*
G75*
G03*
X4261300Y-6699200I-38100J0D01*
G01*
X4261300Y-7149200D02*
G75*
G03*
X4261300Y-7149200I-38100J0D01*
G01*
X4851300Y-23560000D02*
G75*
G03*
X4851300Y-23560000I-38100J0D01*
G01*
X4851300Y-24010000D02*
G75*
G03*
X4851300Y-24010000I-38100J0D01*
G01*
X4852700Y-21156900D02*
G75*
G03*
X4852700Y-21156900I-38100J0D01*
G01*
X4852700Y-21606900D02*
G75*
G03*
X4852700Y-21606900I-38100J0D01*
G01*
X4852700Y-22358300D02*
G75*
G03*
X4852700Y-22358300I-38100J0D01*
G01*
X4852700Y-22808300D02*
G75*
G03*
X4852700Y-22808300I-38100J0D01*
G01*
X4855300Y-19960500D02*
G75*
G03*
X4855300Y-19960500I-38100J0D01*
G01*
X4855300Y-20410500D02*
G75*
G03*
X4855300Y-20410500I-38100J0D01*
G01*
X5161300Y-23495000D02*
G75*
G03*
X5161300Y-23495000I-38100J0D01*
G01*
X5161300Y-24075000D02*
G75*
G03*
X5161300Y-24075000I-38100J0D01*
G01*
X5162700Y-21091900D02*
G75*
G03*
X5162700Y-21091900I-38100J0D01*
G01*
X5162700Y-21671900D02*
G75*
G03*
X5162700Y-21671900I-38100J0D01*
G01*
X5162700Y-22293300D02*
G75*
G03*
X5162700Y-22293300I-38100J0D01*
G01*
X5162700Y-22873300D02*
G75*
G03*
X5162700Y-22873300I-38100J0D01*
G01*
X5165300Y-19895500D02*
G75*
G03*
X5165300Y-19895500I-38100J0D01*
G01*
X5165300Y-20475500D02*
G75*
G03*
X5165300Y-20475500I-38100J0D01*
G01*
X5251500Y-13547000D02*
G75*
G03*
X5251500Y-13547000I-38100J0D01*
G01*
X5251500Y-13997000D02*
G75*
G03*
X5251500Y-13997000I-38100J0D01*
G01*
X5254000Y-18738800D02*
G75*
G03*
X5254000Y-18738800I-38100J0D01*
G01*
X5254000Y-19188800D02*
G75*
G03*
X5254000Y-19188800I-38100J0D01*
G01*
X5256600Y-16132800D02*
G75*
G03*
X5256600Y-16132800I-38100J0D01*
G01*
X5256600Y-16582800D02*
G75*
G03*
X5256600Y-16582800I-38100J0D01*
G01*
X5259100Y-14839900D02*
G75*
G03*
X5259100Y-14839900I-38100J0D01*
G01*
X5259100Y-15289900D02*
G75*
G03*
X5259100Y-15289900I-38100J0D01*
G01*
X5264200Y-17433200D02*
G75*
G03*
X5264200Y-17433200I-38100J0D01*
G01*
X5264200Y-17883200D02*
G75*
G03*
X5264200Y-17883200I-38100J0D01*
G01*
X5461300Y-23560000D02*
G75*
G03*
X5461300Y-23560000I-38100J0D01*
G01*
X5461300Y-24010000D02*
G75*
G03*
X5461300Y-24010000I-38100J0D01*
G01*
X5462700Y-21156900D02*
G75*
G03*
X5462700Y-21156900I-38100J0D01*
G01*
X5462700Y-21606900D02*
G75*
G03*
X5462700Y-21606900I-38100J0D01*
G01*
X5462700Y-22358300D02*
G75*
G03*
X5462700Y-22358300I-38100J0D01*
G01*
X5462700Y-22808300D02*
G75*
G03*
X5462700Y-22808300I-38100J0D01*
G01*
X5465300Y-19960500D02*
G75*
G03*
X5465300Y-19960500I-38100J0D01*
G01*
X5465300Y-20410500D02*
G75*
G03*
X5465300Y-20410500I-38100J0D01*
G01*
X5561500Y-13482000D02*
G75*
G03*
X5561500Y-13482000I-38100J0D01*
G01*
X5561500Y-14062000D02*
G75*
G03*
X5561500Y-14062000I-38100J0D01*
G01*
X5564000Y-18673800D02*
G75*
G03*
X5564000Y-18673800I-38100J0D01*
G01*
X5564000Y-19253800D02*
G75*
G03*
X5564000Y-19253800I-38100J0D01*
G01*
X5566600Y-16067800D02*
G75*
G03*
X5566600Y-16067800I-38100J0D01*
G01*
X5566600Y-16647800D02*
G75*
G03*
X5566600Y-16647800I-38100J0D01*
G01*
X5569100Y-14774900D02*
G75*
G03*
X5569100Y-14774900I-38100J0D01*
G01*
X5569100Y-15354900D02*
G75*
G03*
X5569100Y-15354900I-38100J0D01*
G01*
X5574200Y-17368200D02*
G75*
G03*
X5574200Y-17368200I-38100J0D01*
G01*
X5574200Y-17948200D02*
G75*
G03*
X5574200Y-17948200I-38100J0D01*
G01*
X5861500Y-13547000D02*
G75*
G03*
X5861500Y-13547000I-38100J0D01*
G01*
X5861500Y-13997000D02*
G75*
G03*
X5861500Y-13997000I-38100J0D01*
G01*
X5864000Y-18738800D02*
G75*
G03*
X5864000Y-18738800I-38100J0D01*
G01*
X5864000Y-19188800D02*
G75*
G03*
X5864000Y-19188800I-38100J0D01*
G01*
X5866600Y-16132800D02*
G75*
G03*
X5866600Y-16132800I-38100J0D01*
G01*
X5866600Y-16582800D02*
G75*
G03*
X5866600Y-16582800I-38100J0D01*
G01*
X5869100Y-14839900D02*
G75*
G03*
X5869100Y-14839900I-38100J0D01*
G01*
X5869100Y-15289900D02*
G75*
G03*
X5869100Y-15289900I-38100J0D01*
G01*
X5874200Y-17433200D02*
G75*
G03*
X5874200Y-17433200I-38100J0D01*
G01*
X5874200Y-17883200D02*
G75*
G03*
X5874200Y-17883200I-38100J0D01*
G01*
X6346200Y-21159400D02*
G75*
G03*
X6346200Y-21159400I-38100J0D01*
G01*
X6346200Y-21609400D02*
G75*
G03*
X6346200Y-21609400I-38100J0D01*
G01*
X6346200Y-22360800D02*
G75*
G03*
X6346200Y-22360800I-38100J0D01*
G01*
X6346200Y-22810800D02*
G75*
G03*
X6346200Y-22810800I-38100J0D01*
G01*
X6347300Y-23560000D02*
G75*
G03*
X6347300Y-23560000I-38100J0D01*
G01*
X6347300Y-24010000D02*
G75*
G03*
X6347300Y-24010000I-38100J0D01*
G01*
X6351300Y-19960500D02*
G75*
G03*
X6351300Y-19960500I-38100J0D01*
G01*
X6351300Y-20410500D02*
G75*
G03*
X6351300Y-20410500I-38100J0D01*
G01*
X6656200Y-21094400D02*
G75*
G03*
X6656200Y-21094400I-38100J0D01*
G01*
X6656200Y-21674400D02*
G75*
G03*
X6656200Y-21674400I-38100J0D01*
G01*
X6656200Y-22295800D02*
G75*
G03*
X6656200Y-22295800I-38100J0D01*
G01*
X6656200Y-22875800D02*
G75*
G03*
X6656200Y-22875800I-38100J0D01*
G01*
X6657300Y-23495000D02*
G75*
G03*
X6657300Y-23495000I-38100J0D01*
G01*
X6657300Y-24075000D02*
G75*
G03*
X6657300Y-24075000I-38100J0D01*
G01*
X6661300Y-19895500D02*
G75*
G03*
X6661300Y-19895500I-38100J0D01*
G01*
X6661300Y-20475500D02*
G75*
G03*
X6661300Y-20475500I-38100J0D01*
G01*
X6956200Y-21159400D02*
G75*
G03*
X6956200Y-21159400I-38100J0D01*
G01*
X6956200Y-21609400D02*
G75*
G03*
X6956200Y-21609400I-38100J0D01*
G01*
X6956200Y-22360800D02*
G75*
G03*
X6956200Y-22360800I-38100J0D01*
G01*
X6956200Y-22810800D02*
G75*
G03*
X6956200Y-22810800I-38100J0D01*
G01*
X6957300Y-23560000D02*
G75*
G03*
X6957300Y-23560000I-38100J0D01*
G01*
X6957300Y-24010000D02*
G75*
G03*
X6957300Y-24010000I-38100J0D01*
G01*
X6961300Y-19960500D02*
G75*
G03*
X6961300Y-19960500I-38100J0D01*
G01*
X6961300Y-20410500D02*
G75*
G03*
X6961300Y-20410500I-38100J0D01*
G01*
X7052400Y-17435800D02*
G75*
G03*
X7052400Y-17435800I-38100J0D01*
G01*
X7052400Y-17885800D02*
G75*
G03*
X7052400Y-17885800I-38100J0D01*
G01*
X7054900Y-16132800D02*
G75*
G03*
X7054900Y-16132800I-38100J0D01*
G01*
X7054900Y-16582800D02*
G75*
G03*
X7054900Y-16582800I-38100J0D01*
G01*
X7060000Y-13547000D02*
G75*
G03*
X7060000Y-13547000I-38100J0D01*
G01*
X7060000Y-13997000D02*
G75*
G03*
X7060000Y-13997000I-38100J0D01*
G01*
X7060000Y-18741300D02*
G75*
G03*
X7060000Y-18741300I-38100J0D01*
G01*
X7060000Y-19191300D02*
G75*
G03*
X7060000Y-19191300I-38100J0D01*
G01*
X7067600Y-14839900D02*
G75*
G03*
X7067600Y-14839900I-38100J0D01*
G01*
X7067600Y-15289900D02*
G75*
G03*
X7067600Y-15289900I-38100J0D01*
G01*
X7362400Y-17370800D02*
G75*
G03*
X7362400Y-17370800I-38100J0D01*
G01*
X7362400Y-17950800D02*
G75*
G03*
X7362400Y-17950800I-38100J0D01*
G01*
X7364900Y-16067800D02*
G75*
G03*
X7364900Y-16067800I-38100J0D01*
G01*
X7364900Y-16647800D02*
G75*
G03*
X7364900Y-16647800I-38100J0D01*
G01*
X7370000Y-13482000D02*
G75*
G03*
X7370000Y-13482000I-38100J0D01*
G01*
X7370000Y-14062000D02*
G75*
G03*
X7370000Y-14062000I-38100J0D01*
G01*
X7370000Y-18676300D02*
G75*
G03*
X7370000Y-18676300I-38100J0D01*
G01*
X7370000Y-19256300D02*
G75*
G03*
X7370000Y-19256300I-38100J0D01*
G01*
X7377600Y-14774900D02*
G75*
G03*
X7377600Y-14774900I-38100J0D01*
G01*
X7377600Y-15354900D02*
G75*
G03*
X7377600Y-15354900I-38100J0D01*
G01*
X7662400Y-17435800D02*
G75*
G03*
X7662400Y-17435800I-38100J0D01*
G01*
X7662400Y-17885800D02*
G75*
G03*
X7662400Y-17885800I-38100J0D01*
G01*
X7664900Y-16132800D02*
G75*
G03*
X7664900Y-16132800I-38100J0D01*
G01*
X7664900Y-16582800D02*
G75*
G03*
X7664900Y-16582800I-38100J0D01*
G01*
X7670000Y-13547000D02*
G75*
G03*
X7670000Y-13547000I-38100J0D01*
G01*
X7670000Y-13997000D02*
G75*
G03*
X7670000Y-13997000I-38100J0D01*
G01*
X7670000Y-18741300D02*
G75*
G03*
X7670000Y-18741300I-38100J0D01*
G01*
X7670000Y-19191300D02*
G75*
G03*
X7670000Y-19191300I-38100J0D01*
G01*
X7677600Y-14839900D02*
G75*
G03*
X7677600Y-14839900I-38100J0D01*
G01*
X7677600Y-15289900D02*
G75*
G03*
X7677600Y-15289900I-38100J0D01*
G01*
X7847400Y-19958000D02*
G75*
G03*
X7847400Y-19958000I-38100J0D01*
G01*
X7847400Y-20408000D02*
G75*
G03*
X7847400Y-20408000I-38100J0D01*
G01*
X7849900Y-22363400D02*
G75*
G03*
X7849900Y-22363400I-38100J0D01*
G01*
X7849900Y-22813400D02*
G75*
G03*
X7849900Y-22813400I-38100J0D01*
G01*
X7849900Y-23554600D02*
G75*
G03*
X7849900Y-23554600I-38100J0D01*
G01*
X7849900Y-24004600D02*
G75*
G03*
X7849900Y-24004600I-38100J0D01*
G01*
X7852500Y-21159400D02*
G75*
G03*
X7852500Y-21159400I-38100J0D01*
G01*
X7852500Y-21609400D02*
G75*
G03*
X7852500Y-21609400I-38100J0D01*
G01*
X8157400Y-19893000D02*
G75*
G03*
X8157400Y-19893000I-38100J0D01*
G01*
X8157400Y-20473000D02*
G75*
G03*
X8157400Y-20473000I-38100J0D01*
G01*
X8159900Y-22298400D02*
G75*
G03*
X8159900Y-22298400I-38100J0D01*
G01*
X8159900Y-22878400D02*
G75*
G03*
X8159900Y-22878400I-38100J0D01*
G01*
X8159900Y-23489600D02*
G75*
G03*
X8159900Y-23489600I-38100J0D01*
G01*
X8159900Y-24069600D02*
G75*
G03*
X8159900Y-24069600I-38100J0D01*
G01*
X8162500Y-21094400D02*
G75*
G03*
X8162500Y-21094400I-38100J0D01*
G01*
X8162500Y-21674400D02*
G75*
G03*
X8162500Y-21674400I-38100J0D01*
G01*
X8457400Y-19958000D02*
G75*
G03*
X8457400Y-19958000I-38100J0D01*
G01*
X8457400Y-20408000D02*
G75*
G03*
X8457400Y-20408000I-38100J0D01*
G01*
X8459900Y-22363400D02*
G75*
G03*
X8459900Y-22363400I-38100J0D01*
G01*
X8459900Y-22813400D02*
G75*
G03*
X8459900Y-22813400I-38100J0D01*
G01*
X8459900Y-23554600D02*
G75*
G03*
X8459900Y-23554600I-38100J0D01*
G01*
X8459900Y-24004600D02*
G75*
G03*
X8459900Y-24004600I-38100J0D01*
G01*
X8462500Y-21159400D02*
G75*
G03*
X8462500Y-21159400I-38100J0D01*
G01*
X8462500Y-21609400D02*
G75*
G03*
X8462500Y-21609400I-38100J0D01*
G01*
X8871000Y-13547000D02*
G75*
G03*
X8871000Y-13547000I-38100J0D01*
G01*
X8871000Y-13997000D02*
G75*
G03*
X8871000Y-13997000I-38100J0D01*
G01*
X8871000Y-14842400D02*
G75*
G03*
X8871000Y-14842400I-38100J0D01*
G01*
X8871000Y-15292400D02*
G75*
G03*
X8871000Y-15292400I-38100J0D01*
G01*
X9181000Y-13482000D02*
G75*
G03*
X9181000Y-13482000I-38100J0D01*
G01*
X9181000Y-14062000D02*
G75*
G03*
X9181000Y-14062000I-38100J0D01*
G01*
X9181000Y-14777400D02*
G75*
G03*
X9181000Y-14777400I-38100J0D01*
G01*
X9181000Y-15357400D02*
G75*
G03*
X9181000Y-15357400I-38100J0D01*
G01*
X9437400Y-20656500D02*
G75*
G03*
X9437400Y-20656500I-38100J0D01*
G01*
X9437400Y-21106500D02*
G75*
G03*
X9437400Y-21106500I-38100J0D01*
G01*
X9445000Y-17862500D02*
G75*
G03*
X9445000Y-17862500I-38100J0D01*
G01*
X9445000Y-18312500D02*
G75*
G03*
X9445000Y-18312500I-38100J0D01*
G01*
X9445000Y-22061100D02*
G75*
G03*
X9445000Y-22061100I-38100J0D01*
G01*
X9445000Y-22511100D02*
G75*
G03*
X9445000Y-22511100I-38100J0D01*
G01*
X9447600Y-19259500D02*
G75*
G03*
X9447600Y-19259500I-38100J0D01*
G01*
X9447600Y-19709500D02*
G75*
G03*
X9447600Y-19709500I-38100J0D01*
G01*
X9452700Y-16457900D02*
G75*
G03*
X9452700Y-16457900I-38100J0D01*
G01*
X9452700Y-16907900D02*
G75*
G03*
X9452700Y-16907900I-38100J0D01*
G01*
X9455200Y-23463200D02*
G75*
G03*
X9455200Y-23463200I-38100J0D01*
G01*
X9455200Y-23913200D02*
G75*
G03*
X9455200Y-23913200I-38100J0D01*
G01*
X9481000Y-13547000D02*
G75*
G03*
X9481000Y-13547000I-38100J0D01*
G01*
X9481000Y-13997000D02*
G75*
G03*
X9481000Y-13997000I-38100J0D01*
G01*
X9481000Y-14842400D02*
G75*
G03*
X9481000Y-14842400I-38100J0D01*
G01*
X9481000Y-15292400D02*
G75*
G03*
X9481000Y-15292400I-38100J0D01*
G01*
X9747400Y-20591500D02*
G75*
G03*
X9747400Y-20591500I-38100J0D01*
G01*
X9747400Y-21171500D02*
G75*
G03*
X9747400Y-21171500I-38100J0D01*
G01*
X9755000Y-17797500D02*
G75*
G03*
X9755000Y-17797500I-38100J0D01*
G01*
X9755000Y-18377500D02*
G75*
G03*
X9755000Y-18377500I-38100J0D01*
G01*
X9755000Y-21996100D02*
G75*
G03*
X9755000Y-21996100I-38100J0D01*
G01*
X9755000Y-22576100D02*
G75*
G03*
X9755000Y-22576100I-38100J0D01*
G01*
X9757600Y-19194500D02*
G75*
G03*
X9757600Y-19194500I-38100J0D01*
G01*
X9757600Y-19774500D02*
G75*
G03*
X9757600Y-19774500I-38100J0D01*
G01*
X9762700Y-16392900D02*
G75*
G03*
X9762700Y-16392900I-38100J0D01*
G01*
X9762700Y-16972900D02*
G75*
G03*
X9762700Y-16972900I-38100J0D01*
G01*
X9765200Y-23398200D02*
G75*
G03*
X9765200Y-23398200I-38100J0D01*
G01*
X9765200Y-23978200D02*
G75*
G03*
X9765200Y-23978200I-38100J0D01*
G01*
X10047400Y-20656500D02*
G75*
G03*
X10047400Y-20656500I-38100J0D01*
G01*
X10047400Y-21106500D02*
G75*
G03*
X10047400Y-21106500I-38100J0D01*
G01*
X10055000Y-17862500D02*
G75*
G03*
X10055000Y-17862500I-38100J0D01*
G01*
X10055000Y-18312500D02*
G75*
G03*
X10055000Y-18312500I-38100J0D01*
G01*
X10055000Y-22061100D02*
G75*
G03*
X10055000Y-22061100I-38100J0D01*
G01*
X10055000Y-22511100D02*
G75*
G03*
X10055000Y-22511100I-38100J0D01*
G01*
X10057600Y-19259500D02*
G75*
G03*
X10057600Y-19259500I-38100J0D01*
G01*
X10057600Y-19709500D02*
G75*
G03*
X10057600Y-19709500I-38100J0D01*
G01*
X10062700Y-16457900D02*
G75*
G03*
X10062700Y-16457900I-38100J0D01*
G01*
X10062700Y-16907900D02*
G75*
G03*
X10062700Y-16907900I-38100J0D01*
G01*
X10065200Y-23463200D02*
G75*
G03*
X10065200Y-23463200I-38100J0D01*
G01*
X10065200Y-23913200D02*
G75*
G03*
X10065200Y-23913200I-38100J0D01*
G01*
X10666800Y-13544500D02*
G75*
G03*
X10666800Y-13544500I-38100J0D01*
G01*
X10666800Y-13994500D02*
G75*
G03*
X10666800Y-13994500I-38100J0D01*
G01*
X10669300Y-14842400D02*
G75*
G03*
X10669300Y-14842400I-38100J0D01*
G01*
X10669300Y-15292400D02*
G75*
G03*
X10669300Y-15292400I-38100J0D01*
G01*
X10948700Y-20656500D02*
G75*
G03*
X10948700Y-20656500I-38100J0D01*
G01*
X10948700Y-21106500D02*
G75*
G03*
X10948700Y-21106500I-38100J0D01*
G01*
X10948700Y-22063700D02*
G75*
G03*
X10948700Y-22063700I-38100J0D01*
G01*
X10948700Y-22513700D02*
G75*
G03*
X10948700Y-22513700I-38100J0D01*
G01*
X10953800Y-16460400D02*
G75*
G03*
X10953800Y-16460400I-38100J0D01*
G01*
X10953800Y-16910400D02*
G75*
G03*
X10953800Y-16910400I-38100J0D01*
G01*
X10958900Y-17862500D02*
G75*
G03*
X10958900Y-17862500I-38100J0D01*
G01*
X10958900Y-18312500D02*
G75*
G03*
X10958900Y-18312500I-38100J0D01*
G01*
X10958900Y-19259500D02*
G75*
G03*
X10958900Y-19259500I-38100J0D01*
G01*
X10958900Y-19709500D02*
G75*
G03*
X10958900Y-19709500I-38100J0D01*
G01*
X10961400Y-23463200D02*
G75*
G03*
X10961400Y-23463200I-38100J0D01*
G01*
X10961400Y-23913200D02*
G75*
G03*
X10961400Y-23913200I-38100J0D01*
G01*
X10976800Y-13479500D02*
G75*
G03*
X10976800Y-13479500I-38100J0D01*
G01*
X10976800Y-14059500D02*
G75*
G03*
X10976800Y-14059500I-38100J0D01*
G01*
X10979300Y-14777400D02*
G75*
G03*
X10979300Y-14777400I-38100J0D01*
G01*
X10979300Y-15357400D02*
G75*
G03*
X10979300Y-15357400I-38100J0D01*
G01*
X11258700Y-20591500D02*
G75*
G03*
X11258700Y-20591500I-38100J0D01*
G01*
X11258700Y-21171500D02*
G75*
G03*
X11258700Y-21171500I-38100J0D01*
G01*
X11258700Y-21998700D02*
G75*
G03*
X11258700Y-21998700I-38100J0D01*
G01*
X11258700Y-22578700D02*
G75*
G03*
X11258700Y-22578700I-38100J0D01*
G01*
X11263800Y-16395400D02*
G75*
G03*
X11263800Y-16395400I-38100J0D01*
G01*
X11263800Y-16975400D02*
G75*
G03*
X11263800Y-16975400I-38100J0D01*
G01*
X11268900Y-17797500D02*
G75*
G03*
X11268900Y-17797500I-38100J0D01*
G01*
X11268900Y-18377500D02*
G75*
G03*
X11268900Y-18377500I-38100J0D01*
G01*
X11268900Y-19194500D02*
G75*
G03*
X11268900Y-19194500I-38100J0D01*
G01*
X11268900Y-19774500D02*
G75*
G03*
X11268900Y-19774500I-38100J0D01*
G01*
X11271400Y-23398200D02*
G75*
G03*
X11271400Y-23398200I-38100J0D01*
G01*
X11271400Y-23978200D02*
G75*
G03*
X11271400Y-23978200I-38100J0D01*
G01*
X11276800Y-13544500D02*
G75*
G03*
X11276800Y-13544500I-38100J0D01*
G01*
X11276800Y-13994500D02*
G75*
G03*
X11276800Y-13994500I-38100J0D01*
G01*
X11279300Y-14842400D02*
G75*
G03*
X11279300Y-14842400I-38100J0D01*
G01*
X11279300Y-15292400D02*
G75*
G03*
X11279300Y-15292400I-38100J0D01*
G01*
X11558700Y-20656500D02*
G75*
G03*
X11558700Y-20656500I-38100J0D01*
G01*
X11558700Y-21106500D02*
G75*
G03*
X11558700Y-21106500I-38100J0D01*
G01*
X11558700Y-22063700D02*
G75*
G03*
X11558700Y-22063700I-38100J0D01*
G01*
X11558700Y-22513700D02*
G75*
G03*
X11558700Y-22513700I-38100J0D01*
G01*
X11563800Y-16460400D02*
G75*
G03*
X11563800Y-16460400I-38100J0D01*
G01*
X11563800Y-16910400D02*
G75*
G03*
X11563800Y-16910400I-38100J0D01*
G01*
X11568900Y-17862500D02*
G75*
G03*
X11568900Y-17862500I-38100J0D01*
G01*
X11568900Y-18312500D02*
G75*
G03*
X11568900Y-18312500I-38100J0D01*
G01*
X11568900Y-19259500D02*
G75*
G03*
X11568900Y-19259500I-38100J0D01*
G01*
X11568900Y-19709500D02*
G75*
G03*
X11568900Y-19709500I-38100J0D01*
G01*
X11571400Y-23463200D02*
G75*
G03*
X11571400Y-23463200I-38100J0D01*
G01*
X11571400Y-23913200D02*
G75*
G03*
X11571400Y-23913200I-38100J0D01*
G01*
X12454900Y-19259500D02*
G75*
G03*
X12454900Y-19259500I-38100J0D01*
G01*
X12454900Y-19709500D02*
G75*
G03*
X12454900Y-19709500I-38100J0D01*
G01*
X12457500Y-14842400D02*
G75*
G03*
X12457500Y-14842400I-38100J0D01*
G01*
X12457500Y-15292400D02*
G75*
G03*
X12457500Y-15292400I-38100J0D01*
G01*
X12457500Y-20659000D02*
G75*
G03*
X12457500Y-20659000I-38100J0D01*
G01*
X12457500Y-21109000D02*
G75*
G03*
X12457500Y-21109000I-38100J0D01*
G01*
X12457500Y-22063700D02*
G75*
G03*
X12457500Y-22063700I-38100J0D01*
G01*
X12457500Y-22513700D02*
G75*
G03*
X12457500Y-22513700I-38100J0D01*
G01*
X12457500Y-23463200D02*
G75*
G03*
X12457500Y-23463200I-38100J0D01*
G01*
X12457500Y-23913200D02*
G75*
G03*
X12457500Y-23913200I-38100J0D01*
G01*
X12462600Y-16460400D02*
G75*
G03*
X12462600Y-16460400I-38100J0D01*
G01*
X12462600Y-16910400D02*
G75*
G03*
X12462600Y-16910400I-38100J0D01*
G01*
X12462600Y-17860000D02*
G75*
G03*
X12462600Y-17860000I-38100J0D01*
G01*
X12462600Y-18310000D02*
G75*
G03*
X12462600Y-18310000I-38100J0D01*
G01*
X12465100Y-13542000D02*
G75*
G03*
X12465100Y-13542000I-38100J0D01*
G01*
X12465100Y-13992000D02*
G75*
G03*
X12465100Y-13992000I-38100J0D01*
G01*
X12764900Y-19194500D02*
G75*
G03*
X12764900Y-19194500I-38100J0D01*
G01*
X12764900Y-19774500D02*
G75*
G03*
X12764900Y-19774500I-38100J0D01*
G01*
X12767500Y-14777400D02*
G75*
G03*
X12767500Y-14777400I-38100J0D01*
G01*
X12767500Y-15357400D02*
G75*
G03*
X12767500Y-15357400I-38100J0D01*
G01*
X12767500Y-20594000D02*
G75*
G03*
X12767500Y-20594000I-38100J0D01*
G01*
X12767500Y-21174000D02*
G75*
G03*
X12767500Y-21174000I-38100J0D01*
G01*
X12767500Y-21998700D02*
G75*
G03*
X12767500Y-21998700I-38100J0D01*
G01*
X12767500Y-22578700D02*
G75*
G03*
X12767500Y-22578700I-38100J0D01*
G01*
X12767500Y-23398200D02*
G75*
G03*
X12767500Y-23398200I-38100J0D01*
G01*
X12767500Y-23978200D02*
G75*
G03*
X12767500Y-23978200I-38100J0D01*
G01*
X12772600Y-16395400D02*
G75*
G03*
X12772600Y-16395400I-38100J0D01*
G01*
X12772600Y-16975400D02*
G75*
G03*
X12772600Y-16975400I-38100J0D01*
G01*
X12772600Y-17795000D02*
G75*
G03*
X12772600Y-17795000I-38100J0D01*
G01*
X12772600Y-18375000D02*
G75*
G03*
X12772600Y-18375000I-38100J0D01*
G01*
X12775100Y-13477000D02*
G75*
G03*
X12775100Y-13477000I-38100J0D01*
G01*
X12775100Y-14057000D02*
G75*
G03*
X12775100Y-14057000I-38100J0D01*
G01*
X13064900Y-19259500D02*
G75*
G03*
X13064900Y-19259500I-38100J0D01*
G01*
X13064900Y-19709500D02*
G75*
G03*
X13064900Y-19709500I-38100J0D01*
G01*
X13067500Y-14842400D02*
G75*
G03*
X13067500Y-14842400I-38100J0D01*
G01*
X13067500Y-15292400D02*
G75*
G03*
X13067500Y-15292400I-38100J0D01*
G01*
X13067500Y-20659000D02*
G75*
G03*
X13067500Y-20659000I-38100J0D01*
G01*
X13067500Y-21109000D02*
G75*
G03*
X13067500Y-21109000I-38100J0D01*
G01*
X13067500Y-22063700D02*
G75*
G03*
X13067500Y-22063700I-38100J0D01*
G01*
X13067500Y-22513700D02*
G75*
G03*
X13067500Y-22513700I-38100J0D01*
G01*
X13067500Y-23463200D02*
G75*
G03*
X13067500Y-23463200I-38100J0D01*
G01*
X13067500Y-23913200D02*
G75*
G03*
X13067500Y-23913200I-38100J0D01*
G01*
X13072600Y-16460400D02*
G75*
G03*
X13072600Y-16460400I-38100J0D01*
G01*
X13072600Y-16910400D02*
G75*
G03*
X13072600Y-16910400I-38100J0D01*
G01*
X13072600Y-17860000D02*
G75*
G03*
X13072600Y-17860000I-38100J0D01*
G01*
X13072600Y-18310000D02*
G75*
G03*
X13072600Y-18310000I-38100J0D01*
G01*
X13075100Y-13542000D02*
G75*
G03*
X13075100Y-13542000I-38100J0D01*
G01*
X13075100Y-13992000D02*
G75*
G03*
X13075100Y-13992000I-38100J0D01*
G01*
X13943400Y-20659000D02*
G75*
G03*
X13943400Y-20659000I-38100J0D01*
G01*
X13943400Y-21109000D02*
G75*
G03*
X13943400Y-21109000I-38100J0D01*
G01*
X13945900Y-22061100D02*
G75*
G03*
X13945900Y-22061100I-38100J0D01*
G01*
X13945900Y-22511100D02*
G75*
G03*
X13945900Y-22511100I-38100J0D01*
G01*
X13948500Y-19262000D02*
G75*
G03*
X13948500Y-19262000I-38100J0D01*
G01*
X13948500Y-19712000D02*
G75*
G03*
X13948500Y-19712000I-38100J0D01*
G01*
X13956100Y-17860000D02*
G75*
G03*
X13956100Y-17860000I-38100J0D01*
G01*
X13956100Y-18310000D02*
G75*
G03*
X13956100Y-18310000I-38100J0D01*
G01*
X13958600Y-16463000D02*
G75*
G03*
X13958600Y-16463000I-38100J0D01*
G01*
X13958600Y-16913000D02*
G75*
G03*
X13958600Y-16913000I-38100J0D01*
G01*
X13958600Y-23460700D02*
G75*
G03*
X13958600Y-23460700I-38100J0D01*
G01*
X13958600Y-23910700D02*
G75*
G03*
X13958600Y-23910700I-38100J0D01*
G01*
X14253400Y-20594000D02*
G75*
G03*
X14253400Y-20594000I-38100J0D01*
G01*
X14253400Y-21174000D02*
G75*
G03*
X14253400Y-21174000I-38100J0D01*
G01*
X14255900Y-21996100D02*
G75*
G03*
X14255900Y-21996100I-38100J0D01*
G01*
X14255900Y-22576100D02*
G75*
G03*
X14255900Y-22576100I-38100J0D01*
G01*
X14258500Y-19197000D02*
G75*
G03*
X14258500Y-19197000I-38100J0D01*
G01*
X14258500Y-19777000D02*
G75*
G03*
X14258500Y-19777000I-38100J0D01*
G01*
X14266100Y-17795000D02*
G75*
G03*
X14266100Y-17795000I-38100J0D01*
G01*
X14266100Y-18375000D02*
G75*
G03*
X14266100Y-18375000I-38100J0D01*
G01*
X14268500Y-13542000D02*
G75*
G03*
X14268500Y-13542000I-38100J0D01*
G01*
X14268500Y-13992000D02*
G75*
G03*
X14268500Y-13992000I-38100J0D01*
G01*
X14268600Y-16398000D02*
G75*
G03*
X14268600Y-16398000I-38100J0D01*
G01*
X14268600Y-16978000D02*
G75*
G03*
X14268600Y-16978000I-38100J0D01*
G01*
X14268600Y-23395700D02*
G75*
G03*
X14268600Y-23395700I-38100J0D01*
G01*
X14268600Y-23975700D02*
G75*
G03*
X14268600Y-23975700I-38100J0D01*
G01*
X14271000Y-14842400D02*
G75*
G03*
X14271000Y-14842400I-38100J0D01*
G01*
X14271000Y-15292400D02*
G75*
G03*
X14271000Y-15292400I-38100J0D01*
G01*
X14553400Y-20659000D02*
G75*
G03*
X14553400Y-20659000I-38100J0D01*
G01*
X14553400Y-21109000D02*
G75*
G03*
X14553400Y-21109000I-38100J0D01*
G01*
X14555900Y-22061100D02*
G75*
G03*
X14555900Y-22061100I-38100J0D01*
G01*
X14555900Y-22511100D02*
G75*
G03*
X14555900Y-22511100I-38100J0D01*
G01*
X14558500Y-19262000D02*
G75*
G03*
X14558500Y-19262000I-38100J0D01*
G01*
X14558500Y-19712000D02*
G75*
G03*
X14558500Y-19712000I-38100J0D01*
G01*
X14566100Y-17860000D02*
G75*
G03*
X14566100Y-17860000I-38100J0D01*
G01*
X14566100Y-18310000D02*
G75*
G03*
X14566100Y-18310000I-38100J0D01*
G01*
X14568600Y-16463000D02*
G75*
G03*
X14568600Y-16463000I-38100J0D01*
G01*
X14568600Y-16913000D02*
G75*
G03*
X14568600Y-16913000I-38100J0D01*
G01*
X14568600Y-23460700D02*
G75*
G03*
X14568600Y-23460700I-38100J0D01*
G01*
X14568600Y-23910700D02*
G75*
G03*
X14568600Y-23910700I-38100J0D01*
G01*
X14578500Y-13477000D02*
G75*
G03*
X14578500Y-13477000I-38100J0D01*
G01*
X14578500Y-14057000D02*
G75*
G03*
X14578500Y-14057000I-38100J0D01*
G01*
X14581000Y-14777400D02*
G75*
G03*
X14581000Y-14777400I-38100J0D01*
G01*
X14581000Y-15357400D02*
G75*
G03*
X14581000Y-15357400I-38100J0D01*
G01*
X14878500Y-13542000D02*
G75*
G03*
X14878500Y-13542000I-38100J0D01*
G01*
X14878500Y-13992000D02*
G75*
G03*
X14878500Y-13992000I-38100J0D01*
G01*
X14881000Y-14842400D02*
G75*
G03*
X14881000Y-14842400I-38100J0D01*
G01*
X14881000Y-15292400D02*
G75*
G03*
X14881000Y-15292400I-38100J0D01*
G01*
X15452100Y-17860000D02*
G75*
G03*
X15452100Y-17860000I-38100J0D01*
G01*
X15452100Y-18310000D02*
G75*
G03*
X15452100Y-18310000I-38100J0D01*
G01*
X15452100Y-19257000D02*
G75*
G03*
X15452100Y-19257000I-38100J0D01*
G01*
X15452100Y-19707000D02*
G75*
G03*
X15452100Y-19707000I-38100J0D01*
G01*
X15454700Y-16463000D02*
G75*
G03*
X15454700Y-16463000I-38100J0D01*
G01*
X15454700Y-16913000D02*
G75*
G03*
X15454700Y-16913000I-38100J0D01*
G01*
X15454700Y-22063700D02*
G75*
G03*
X15454700Y-22063700I-38100J0D01*
G01*
X15454700Y-22513700D02*
G75*
G03*
X15454700Y-22513700I-38100J0D01*
G01*
X15462300Y-23460700D02*
G75*
G03*
X15462300Y-23460700I-38100J0D01*
G01*
X15462300Y-23910700D02*
G75*
G03*
X15462300Y-23910700I-38100J0D01*
G01*
X15464800Y-20661600D02*
G75*
G03*
X15464800Y-20661600I-38100J0D01*
G01*
X15464800Y-21111600D02*
G75*
G03*
X15464800Y-21111600I-38100J0D01*
G01*
X15762100Y-17795000D02*
G75*
G03*
X15762100Y-17795000I-38100J0D01*
G01*
X15762100Y-18375000D02*
G75*
G03*
X15762100Y-18375000I-38100J0D01*
G01*
X15762100Y-19192000D02*
G75*
G03*
X15762100Y-19192000I-38100J0D01*
G01*
X15762100Y-19772000D02*
G75*
G03*
X15762100Y-19772000I-38100J0D01*
G01*
X15764700Y-16398000D02*
G75*
G03*
X15764700Y-16398000I-38100J0D01*
G01*
X15764700Y-16978000D02*
G75*
G03*
X15764700Y-16978000I-38100J0D01*
G01*
X15764700Y-21998700D02*
G75*
G03*
X15764700Y-21998700I-38100J0D01*
G01*
X15764700Y-22578700D02*
G75*
G03*
X15764700Y-22578700I-38100J0D01*
G01*
X15772300Y-23395700D02*
G75*
G03*
X15772300Y-23395700I-38100J0D01*
G01*
X15772300Y-23975700D02*
G75*
G03*
X15772300Y-23975700I-38100J0D01*
G01*
X15774800Y-20596600D02*
G75*
G03*
X15774800Y-20596600I-38100J0D01*
G01*
X15774800Y-21176600D02*
G75*
G03*
X15774800Y-21176600I-38100J0D01*
G01*
X15909300Y-13542000D02*
G75*
G03*
X15909300Y-13542000I-38100J0D01*
G01*
X15909300Y-13992000D02*
G75*
G03*
X15909300Y-13992000I-38100J0D01*
G01*
X15909300Y-14862800D02*
G75*
G03*
X15909300Y-14862800I-38100J0D01*
G01*
X15909300Y-15312800D02*
G75*
G03*
X15909300Y-15312800I-38100J0D01*
G01*
X16062100Y-17860000D02*
G75*
G03*
X16062100Y-17860000I-38100J0D01*
G01*
X16062100Y-18310000D02*
G75*
G03*
X16062100Y-18310000I-38100J0D01*
G01*
X16062100Y-19257000D02*
G75*
G03*
X16062100Y-19257000I-38100J0D01*
G01*
X16062100Y-19707000D02*
G75*
G03*
X16062100Y-19707000I-38100J0D01*
G01*
X16064700Y-16463000D02*
G75*
G03*
X16064700Y-16463000I-38100J0D01*
G01*
X16064700Y-16913000D02*
G75*
G03*
X16064700Y-16913000I-38100J0D01*
G01*
X16064700Y-22063700D02*
G75*
G03*
X16064700Y-22063700I-38100J0D01*
G01*
X16064700Y-22513700D02*
G75*
G03*
X16064700Y-22513700I-38100J0D01*
G01*
X16072300Y-23460700D02*
G75*
G03*
X16072300Y-23460700I-38100J0D01*
G01*
X16072300Y-23910700D02*
G75*
G03*
X16072300Y-23910700I-38100J0D01*
G01*
X16074800Y-20661600D02*
G75*
G03*
X16074800Y-20661600I-38100J0D01*
G01*
X16074800Y-21111600D02*
G75*
G03*
X16074800Y-21111600I-38100J0D01*
G01*
X16219300Y-13477000D02*
G75*
G03*
X16219300Y-13477000I-38100J0D01*
G01*
X16219300Y-14057000D02*
G75*
G03*
X16219300Y-14057000I-38100J0D01*
G01*
X16219300Y-14797800D02*
G75*
G03*
X16219300Y-14797800I-38100J0D01*
G01*
X16219300Y-15377800D02*
G75*
G03*
X16219300Y-15377800I-38100J0D01*
G01*
X16519300Y-13542000D02*
G75*
G03*
X16519300Y-13542000I-38100J0D01*
G01*
X16519300Y-13992000D02*
G75*
G03*
X16519300Y-13992000I-38100J0D01*
G01*
X16519300Y-14862800D02*
G75*
G03*
X16519300Y-14862800I-38100J0D01*
G01*
X16519300Y-15312800D02*
G75*
G03*
X16519300Y-15312800I-38100J0D01*
G01*
X16854200Y-8802320D02*
G75*
G03*
X16854200Y-8802320I-38100J0D01*
G01*
X16854200Y-9252320D02*
G75*
G03*
X16854200Y-9252320I-38100J0D01*
G01*
X16854200Y-10900400D02*
G75*
G03*
X16854200Y-10900400I-38100J0D01*
G01*
X16854200Y-11350400D02*
G75*
G03*
X16854200Y-11350400I-38100J0D01*
G01*
X16855700Y-7750760D02*
G75*
G03*
X16855700Y-7750760I-38100J0D01*
G01*
X16855700Y-8200760D02*
G75*
G03*
X16855700Y-8200760I-38100J0D01*
G01*
X16859300Y-5652720D02*
G75*
G03*
X16859300Y-5652720I-38100J0D01*
G01*
X16859300Y-6102720D02*
G75*
G03*
X16859300Y-6102720I-38100J0D01*
G01*
X16859300Y-6699200D02*
G75*
G03*
X16859300Y-6699200I-38100J0D01*
G01*
X16859300Y-7149200D02*
G75*
G03*
X16859300Y-7149200I-38100J0D01*
G01*
X16869500Y-9853880D02*
G75*
G03*
X16869500Y-9853880I-38100J0D01*
G01*
X16869500Y-10303880D02*
G75*
G03*
X16869500Y-10303880I-38100J0D01*
G01*
X17164200Y-8737320D02*
G75*
G03*
X17164200Y-8737320I-38100J0D01*
G01*
X17164200Y-9317320D02*
G75*
G03*
X17164200Y-9317320I-38100J0D01*
G01*
X17164200Y-10835400D02*
G75*
G03*
X17164200Y-10835400I-38100J0D01*
G01*
X17164200Y-11415400D02*
G75*
G03*
X17164200Y-11415400I-38100J0D01*
G01*
X17165700Y-7685760D02*
G75*
G03*
X17165700Y-7685760I-38100J0D01*
G01*
X17165700Y-8265760D02*
G75*
G03*
X17165700Y-8265760I-38100J0D01*
G01*
X17169300Y-5587720D02*
G75*
G03*
X17169300Y-5587720I-38100J0D01*
G01*
X17169300Y-6167720D02*
G75*
G03*
X17169300Y-6167720I-38100J0D01*
G01*
X17169300Y-6634200D02*
G75*
G03*
X17169300Y-6634200I-38100J0D01*
G01*
X17169300Y-7214200D02*
G75*
G03*
X17169300Y-7214200I-38100J0D01*
G01*
X17179500Y-9788880D02*
G75*
G03*
X17179500Y-9788880I-38100J0D01*
G01*
X17179500Y-10368880D02*
G75*
G03*
X17179500Y-10368880I-38100J0D01*
G01*
X17464200Y-8802320D02*
G75*
G03*
X17464200Y-8802320I-38100J0D01*
G01*
X17464200Y-9252320D02*
G75*
G03*
X17464200Y-9252320I-38100J0D01*
G01*
X17464200Y-10900400D02*
G75*
G03*
X17464200Y-10900400I-38100J0D01*
G01*
X17464200Y-11350400D02*
G75*
G03*
X17464200Y-11350400I-38100J0D01*
G01*
X17465700Y-7750760D02*
G75*
G03*
X17465700Y-7750760I-38100J0D01*
G01*
X17465700Y-8200760D02*
G75*
G03*
X17465700Y-8200760I-38100J0D01*
G01*
X17469300Y-5652720D02*
G75*
G03*
X17469300Y-5652720I-38100J0D01*
G01*
X17469300Y-6102720D02*
G75*
G03*
X17469300Y-6102720I-38100J0D01*
G01*
X17469300Y-6699200D02*
G75*
G03*
X17469300Y-6699200I-38100J0D01*
G01*
X17469300Y-7149200D02*
G75*
G03*
X17469300Y-7149200I-38100J0D01*
G01*
X17479500Y-9853880D02*
G75*
G03*
X17479500Y-9853880I-38100J0D01*
G01*
X17479500Y-10303880D02*
G75*
G03*
X17479500Y-10303880I-38100J0D01*
G01*
X4282440Y-3203320D02*
X4282440Y-3303320D01*
X4232440Y-3253320D02*
X4332440Y-3253320D01*
X4282440Y-3653320D02*
X4282440Y-3753320D01*
X4232440Y-3703320D02*
X4332440Y-3703320D01*
X4932440Y-3203320D02*
X4932440Y-3303320D01*
X4882440Y-3253320D02*
X4982440Y-3253320D01*
X4932440Y-3653320D02*
X4932440Y-3753320D01*
X4882440Y-3703320D02*
X4982440Y-3703320D01*
X8064460Y-6980720D02*
X8064460Y-7080720D01*
X8014460Y-7030720D02*
X8114460Y-7030720D01*
X8064460Y-7234720D02*
X8064460Y-7334720D01*
X8014460Y-7284720D02*
X8114460Y-7284720D01*
X8318460Y-6980720D02*
X8318460Y-7080720D01*
X8268460Y-7030720D02*
X8368460Y-7030720D01*
X8318460Y-7234720D02*
X8318460Y-7334720D01*
X8268460Y-7284720D02*
X8368460Y-7284720D01*
X8572460Y-6980720D02*
X8572460Y-7080720D01*
X8522460Y-7030720D02*
X8622460Y-7030720D01*
X8572460Y-7234720D02*
X8572460Y-7334720D01*
X8522460Y-7284720D02*
X8622460Y-7284720D01*
X8826460Y-6980720D02*
X8826460Y-7080720D01*
X8776460Y-7030720D02*
X8876460Y-7030720D01*
X8826460Y-7234720D02*
X8826460Y-7334720D01*
X8776460Y-7284720D02*
X8876460Y-7284720D01*
X9080460Y-6980720D02*
X9080460Y-7080720D01*
X9030460Y-7030720D02*
X9130460Y-7030720D01*
X9080460Y-7234720D02*
X9080460Y-7334720D01*
X9030460Y-7284720D02*
X9130460Y-7284720D01*
X9334460Y-6980720D02*
X9334460Y-7080720D01*
X9284460Y-7030720D02*
X9384460Y-7030720D01*
X9334460Y-7234720D02*
X9334460Y-7334720D01*
X9284460Y-7284720D02*
X9384460Y-7284720D01*
X9588460Y-6980720D02*
X9588460Y-7080720D01*
X9538460Y-7030720D02*
X9638460Y-7030720D01*
X9588460Y-7234720D02*
X9588460Y-7334720D01*
X9538460Y-7284720D02*
X9638460Y-7284720D01*
X9842460Y-6980720D02*
X9842460Y-7080720D01*
X9792460Y-7030720D02*
X9892460Y-7030720D01*
X9842460Y-7234720D02*
X9842460Y-7334720D01*
X9792460Y-7284720D02*
X9892460Y-7284720D01*
X10096460Y-6980720D02*
X10096460Y-7080720D01*
X10046460Y-7030720D02*
X10146460Y-7030720D01*
X10096460Y-7234720D02*
X10096460Y-7334720D01*
X10046460Y-7284720D02*
X10146460Y-7284720D01*
X10350460Y-6980720D02*
X10350460Y-7080720D01*
X10300460Y-7030720D02*
X10400460Y-7030720D01*
X10350460Y-7234720D02*
X10350460Y-7334720D01*
X10300460Y-7284720D02*
X10400460Y-7284720D01*
X10604460Y-6980720D02*
X10604460Y-7080720D01*
X10554460Y-7030720D02*
X10654460Y-7030720D01*
X10604460Y-7234720D02*
X10604460Y-7334720D01*
X10554460Y-7284720D02*
X10654460Y-7284720D01*
X10858460Y-6980720D02*
X10858460Y-7080720D01*
X10808460Y-7030720D02*
X10908460Y-7030720D01*
X10858460Y-7234720D02*
X10858460Y-7334720D01*
X10808460Y-7284720D02*
X10908460Y-7284720D01*
X11112460Y-6980720D02*
X11112460Y-7080720D01*
X11062460Y-7030720D02*
X11162460Y-7030720D01*
X11112460Y-7234720D02*
X11112460Y-7334720D01*
X11062460Y-7284720D02*
X11162460Y-7284720D01*
X11366460Y-6980720D02*
X11366460Y-7080720D01*
X11316460Y-7030720D02*
X11416460Y-7030720D01*
X11366460Y-7234720D02*
X11366460Y-7334720D01*
X11316460Y-7284720D02*
X11416460Y-7284720D01*
X11620460Y-6980720D02*
X11620460Y-7080720D01*
X11570460Y-7030720D02*
X11670460Y-7030720D01*
X11620460Y-7234720D02*
X11620460Y-7334720D01*
X11570460Y-7284720D02*
X11670460Y-7284720D01*
X11874460Y-6980720D02*
X11874460Y-7080720D01*
X11824460Y-7030720D02*
X11924460Y-7030720D01*
X11874460Y-7234720D02*
X11874460Y-7334720D01*
X11824460Y-7284720D02*
X11924460Y-7284720D01*
X12128460Y-6980720D02*
X12128460Y-7080720D01*
X12078460Y-7030720D02*
X12178460Y-7030720D01*
X12128460Y-7234720D02*
X12128460Y-7334720D01*
X12078460Y-7284720D02*
X12178460Y-7284720D01*
X12382460Y-6980720D02*
X12382460Y-7080720D01*
X12332460Y-7030720D02*
X12432460Y-7030720D01*
X12382460Y-7234720D02*
X12382460Y-7334720D01*
X12332460Y-7284720D02*
X12432460Y-7284720D01*
X12636460Y-6980720D02*
X12636460Y-7080720D01*
X12586460Y-7030720D02*
X12686460Y-7030720D01*
X12636460Y-7234720D02*
X12636460Y-7334720D01*
X12586460Y-7284720D02*
X12686460Y-7284720D01*
X12890460Y-6980720D02*
X12890460Y-7080720D01*
X12840460Y-7030720D02*
X12940460Y-7030720D01*
X12890460Y-7234720D02*
X12890460Y-7334720D01*
X12840460Y-7284720D02*
X12940460Y-7284720D01*
X3831941Y-21246241D02*
X3831941Y-21138759D01*
X3724459Y-21138759D01*
X3724459Y-21246241D01*
X3831941Y-21246241D01*
X3831941Y-21754241D02*
X3831941Y-21646759D01*
X3724459Y-21646759D01*
X3724459Y-21754241D01*
X3831941Y-21754241D01*
X3831941Y-22306641D02*
X3831941Y-22199159D01*
X3724459Y-22199159D01*
X3724459Y-22306641D01*
X3831941Y-22306641D01*
X3831941Y-22814641D02*
X3831941Y-22707159D01*
X3724459Y-22707159D01*
X3724459Y-22814641D01*
X3831941Y-22814641D01*
X17391741Y-15235341D02*
X17391741Y-15127859D01*
X17284259Y-15127859D01*
X17284259Y-15235341D01*
X17391741Y-15235341D01*
X17391741Y-15743341D02*
X17391741Y-15635859D01*
X17284259Y-15635859D01*
X17284259Y-15743341D01*
X17391741Y-15743341D01*
X17391741Y-16304641D02*
X17391741Y-16197159D01*
X17284259Y-16197159D01*
X17284259Y-16304641D01*
X17391741Y-16304641D01*
X17391741Y-16812641D02*
X17391741Y-16705159D01*
X17284259Y-16705159D01*
X17284259Y-16812641D01*
X17391741Y-16812641D01*
X17400641Y-12029841D02*
X17400641Y-11922359D01*
X17293159Y-11922359D01*
X17293159Y-12029841D01*
X17400641Y-12029841D01*
X17400641Y-12537841D02*
X17400641Y-12430359D01*
X17293159Y-12430359D01*
X17293159Y-12537841D01*
X17400641Y-12537841D01*
X17400641Y-13109341D02*
X17400641Y-13001859D01*
X17293159Y-13001859D01*
X17293159Y-13109341D01*
X17400641Y-13109341D01*
X17400641Y-13617341D02*
X17400641Y-13509859D01*
X17293159Y-13509859D01*
X17293159Y-13617341D01*
X17400641Y-13617341D01*
X17404481Y-21219287D02*
X17404481Y-21111805D01*
X17296999Y-21111805D01*
X17296999Y-21219287D01*
X17404481Y-21219287D01*
X17404481Y-21727287D02*
X17404481Y-21619805D01*
X17296999Y-21619805D01*
X17296999Y-21727287D01*
X17404481Y-21727287D01*
X17404481Y-22280987D02*
X17404481Y-22173505D01*
X17296999Y-22173505D01*
X17296999Y-22280987D01*
X17404481Y-22280987D01*
X17404481Y-22788987D02*
X17404481Y-22681505D01*
X17296999Y-22681505D01*
X17296999Y-22788987D01*
X17404481Y-22788987D01*
D13*
X3395334Y-25280008D02*
X3395334Y-24980008D01*
X3466762Y-24980008D01*
X3509619Y-24994294D01*
X3538191Y-25022865D01*
X3552477Y-25051437D01*
X3566762Y-25108580D01*
X3566762Y-25151437D01*
X3552477Y-25208580D01*
X3538191Y-25237151D01*
X3509619Y-25265722D01*
X3466762Y-25280008D01*
X3395334Y-25280008D01*
X3695334Y-25280008D02*
X3695334Y-25080008D01*
X3695334Y-25137151D02*
X3709619Y-25108580D01*
X3723905Y-25094294D01*
X3752477Y-25080008D01*
X3781048Y-25080008D01*
X3881048Y-25280008D02*
X3881048Y-25080008D01*
X3881048Y-24980008D02*
X3866762Y-24994294D01*
X3881048Y-25008580D01*
X3895334Y-24994294D01*
X3881048Y-24980008D01*
X3881048Y-25008580D01*
X4066762Y-25280008D02*
X4038191Y-25265722D01*
X4023905Y-25237151D01*
X4023905Y-24980008D01*
X4223905Y-25280008D02*
X4195334Y-25265722D01*
X4181048Y-25237151D01*
X4181048Y-24980008D01*
X4566762Y-25280008D02*
X4566762Y-24980008D01*
X4666762Y-25194294D01*
X4766762Y-24980008D01*
X4766762Y-25280008D01*
X5038191Y-25280008D02*
X5038191Y-25122865D01*
X5023905Y-25094294D01*
X4995334Y-25080008D01*
X4938191Y-25080008D01*
X4909620Y-25094294D01*
X5038191Y-25265722D02*
X5009620Y-25280008D01*
X4938191Y-25280008D01*
X4909620Y-25265722D01*
X4895334Y-25237151D01*
X4895334Y-25208580D01*
X4909620Y-25180008D01*
X4938191Y-25165722D01*
X5009620Y-25165722D01*
X5038191Y-25151437D01*
X5181048Y-25080008D02*
X5181048Y-25380008D01*
X5181048Y-25094294D02*
X5209620Y-25080008D01*
X5266762Y-25080008D01*
X5295334Y-25094294D01*
X5309620Y-25108580D01*
X5323905Y-25137151D01*
X5323905Y-25222865D01*
X5309620Y-25251437D01*
X5295334Y-25265722D01*
X5266762Y-25280008D01*
X5209620Y-25280008D01*
X5181048Y-25265722D01*
X5452477Y-25251437D02*
X5466762Y-25265722D01*
X5452477Y-25280008D01*
X5438191Y-25265722D01*
X5452477Y-25251437D01*
X5452477Y-25280008D01*
X5452477Y-25094294D02*
X5466762Y-25108580D01*
X5452477Y-25122865D01*
X5438191Y-25108580D01*
X5452477Y-25094294D01*
X5452477Y-25122865D01*
X3068905Y-25754294D02*
X3108905Y-25794294D01*
X3108905Y-25754294D02*
X3068905Y-25794294D01*
X3452477Y-25610008D02*
X3481048Y-25610008D01*
X3509619Y-25624294D01*
X3523905Y-25638580D01*
X3538191Y-25667151D01*
X3552477Y-25724294D01*
X3552477Y-25795722D01*
X3538191Y-25852865D01*
X3523905Y-25881437D01*
X3509619Y-25895722D01*
X3481048Y-25910008D01*
X3452477Y-25910008D01*
X3423905Y-25895722D01*
X3409619Y-25881437D01*
X3395334Y-25852865D01*
X3381048Y-25795722D01*
X3381048Y-25724294D01*
X3395334Y-25667151D01*
X3409619Y-25638580D01*
X3423905Y-25624294D01*
X3452477Y-25610008D01*
X3681048Y-25881437D02*
X3695334Y-25895722D01*
X3681048Y-25910008D01*
X3666762Y-25895722D01*
X3681048Y-25881437D01*
X3681048Y-25910008D01*
X3952477Y-25710008D02*
X3952477Y-25910008D01*
X3881048Y-25595722D02*
X3809619Y-25810008D01*
X3995334Y-25810008D01*
X4166762Y-25610008D02*
X4195334Y-25610008D01*
X4223905Y-25624294D01*
X4238191Y-25638580D01*
X4252477Y-25667151D01*
X4266762Y-25724294D01*
X4266762Y-25795722D01*
X4252477Y-25852865D01*
X4238191Y-25881437D01*
X4223905Y-25895722D01*
X4195334Y-25910008D01*
X4166762Y-25910008D01*
X4138191Y-25895722D01*
X4123905Y-25881437D01*
X4109619Y-25852865D01*
X4095334Y-25795722D01*
X4095334Y-25724294D01*
X4109619Y-25667151D01*
X4123905Y-25638580D01*
X4138191Y-25624294D01*
X4166762Y-25610008D01*
X4452477Y-25610008D02*
X4481048Y-25610008D01*
X4509620Y-25624294D01*
X4523905Y-25638580D01*
X4538191Y-25667151D01*
X4552477Y-25724294D01*
X4552477Y-25795722D01*
X4538191Y-25852865D01*
X4523905Y-25881437D01*
X4509620Y-25895722D01*
X4481048Y-25910008D01*
X4452477Y-25910008D01*
X4423905Y-25895722D01*
X4409620Y-25881437D01*
X4395334Y-25852865D01*
X4381048Y-25795722D01*
X4381048Y-25724294D01*
X4395334Y-25667151D01*
X4409620Y-25638580D01*
X4423905Y-25624294D01*
X4452477Y-25610008D01*
X4681048Y-25910008D02*
X4681048Y-25710008D01*
X4681048Y-25738580D02*
X4695334Y-25724294D01*
X4723905Y-25710008D01*
X4766762Y-25710008D01*
X4795334Y-25724294D01*
X4809620Y-25752865D01*
X4809620Y-25910008D01*
X4809620Y-25752865D02*
X4823905Y-25724294D01*
X4852477Y-25710008D01*
X4895334Y-25710008D01*
X4923905Y-25724294D01*
X4938191Y-25752865D01*
X4938191Y-25910008D01*
X5081048Y-25910008D02*
X5081048Y-25710008D01*
X5081048Y-25738580D02*
X5095334Y-25724294D01*
X5123905Y-25710008D01*
X5166762Y-25710008D01*
X5195334Y-25724294D01*
X5209620Y-25752865D01*
X5209620Y-25910008D01*
X5209620Y-25752865D02*
X5223905Y-25724294D01*
X5252477Y-25710008D01*
X5295334Y-25710008D01*
X5323905Y-25724294D01*
X5338191Y-25752865D01*
X5338191Y-25910008D01*
X5923905Y-25595722D02*
X5666762Y-25981437D01*
X6309619Y-25610008D02*
X6338191Y-25610008D01*
X6366762Y-25624294D01*
X6381048Y-25638580D01*
X6395334Y-25667151D01*
X6409619Y-25724294D01*
X6409619Y-25795722D01*
X6395334Y-25852865D01*
X6381048Y-25881437D01*
X6366762Y-25895722D01*
X6338191Y-25910008D01*
X6309619Y-25910008D01*
X6281048Y-25895722D01*
X6266762Y-25881437D01*
X6252477Y-25852865D01*
X6238191Y-25795722D01*
X6238191Y-25724294D01*
X6252477Y-25667151D01*
X6266762Y-25638580D01*
X6281048Y-25624294D01*
X6309619Y-25610008D01*
X6538191Y-25881437D02*
X6552477Y-25895722D01*
X6538191Y-25910008D01*
X6523905Y-25895722D01*
X6538191Y-25881437D01*
X6538191Y-25910008D01*
X6738191Y-25610008D02*
X6766762Y-25610008D01*
X6795334Y-25624294D01*
X6809619Y-25638580D01*
X6823905Y-25667151D01*
X6838191Y-25724294D01*
X6838191Y-25795722D01*
X6823905Y-25852865D01*
X6809619Y-25881437D01*
X6795334Y-25895722D01*
X6766762Y-25910008D01*
X6738191Y-25910008D01*
X6709619Y-25895722D01*
X6695334Y-25881437D01*
X6681048Y-25852865D01*
X6666762Y-25795722D01*
X6666762Y-25724294D01*
X6681048Y-25667151D01*
X6695334Y-25638580D01*
X6709619Y-25624294D01*
X6738191Y-25610008D01*
X7123905Y-25910008D02*
X6952477Y-25910008D01*
X7038191Y-25910008D02*
X7038191Y-25610008D01*
X7009619Y-25652865D01*
X6981048Y-25681437D01*
X6952477Y-25695722D01*
X7395334Y-25610008D02*
X7252477Y-25610008D01*
X7238191Y-25752865D01*
X7252477Y-25738580D01*
X7281048Y-25724294D01*
X7352477Y-25724294D01*
X7381048Y-25738580D01*
X7395334Y-25752865D01*
X7409619Y-25781437D01*
X7409619Y-25852865D01*
X7395334Y-25881437D01*
X7381048Y-25895722D01*
X7352477Y-25910008D01*
X7281048Y-25910008D01*
X7252477Y-25895722D01*
X7238191Y-25881437D01*
X7509619Y-25610008D02*
X7709619Y-25610008D01*
X7581048Y-25910008D01*
X7809619Y-25610008D02*
X7809619Y-25667151D01*
X7923905Y-25610008D02*
X7923905Y-25667151D01*
X8366762Y-26024294D02*
X8352477Y-26010008D01*
X8323905Y-25967151D01*
X8309619Y-25938580D01*
X8295334Y-25895722D01*
X8281048Y-25824294D01*
X8281048Y-25767151D01*
X8295334Y-25695722D01*
X8309619Y-25652865D01*
X8323905Y-25624294D01*
X8352477Y-25581437D01*
X8366762Y-25567151D01*
X8638191Y-25910008D02*
X8466762Y-25910008D01*
X8552477Y-25910008D02*
X8552477Y-25610008D01*
X8523905Y-25652865D01*
X8495334Y-25681437D01*
X8466762Y-25695722D01*
X8738191Y-25610008D02*
X8923905Y-25610008D01*
X8823905Y-25724294D01*
X8866762Y-25724294D01*
X8895334Y-25738580D01*
X8909620Y-25752865D01*
X8923905Y-25781437D01*
X8923905Y-25852865D01*
X8909620Y-25881437D01*
X8895334Y-25895722D01*
X8866762Y-25910008D01*
X8781048Y-25910008D01*
X8752477Y-25895722D01*
X8738191Y-25881437D01*
X9023905Y-25610008D02*
X9223905Y-25610008D01*
X9095334Y-25910008D01*
X9566762Y-25910008D02*
X9566762Y-25610008D01*
X9695334Y-25910008D02*
X9695334Y-25752865D01*
X9681048Y-25724294D01*
X9652477Y-25710008D01*
X9609620Y-25710008D01*
X9581048Y-25724294D01*
X9566762Y-25738580D01*
X9881048Y-25910008D02*
X9852477Y-25895722D01*
X9838191Y-25881437D01*
X9823905Y-25852865D01*
X9823905Y-25767151D01*
X9838191Y-25738580D01*
X9852477Y-25724294D01*
X9881048Y-25710008D01*
X9923905Y-25710008D01*
X9952477Y-25724294D01*
X9966762Y-25738580D01*
X9981048Y-25767151D01*
X9981048Y-25852865D01*
X9966762Y-25881437D01*
X9952477Y-25895722D01*
X9923905Y-25910008D01*
X9881048Y-25910008D01*
X10152477Y-25910008D02*
X10123905Y-25895722D01*
X10109620Y-25867151D01*
X10109620Y-25610008D01*
X10381048Y-25895722D02*
X10352477Y-25910008D01*
X10295334Y-25910008D01*
X10266762Y-25895722D01*
X10252477Y-25867151D01*
X10252477Y-25752865D01*
X10266762Y-25724294D01*
X10295334Y-25710008D01*
X10352477Y-25710008D01*
X10381048Y-25724294D01*
X10395334Y-25752865D01*
X10395334Y-25781437D01*
X10252477Y-25810008D01*
X10509620Y-25895722D02*
X10538191Y-25910008D01*
X10595334Y-25910008D01*
X10623905Y-25895722D01*
X10638191Y-25867151D01*
X10638191Y-25852865D01*
X10623905Y-25824294D01*
X10595334Y-25810008D01*
X10552477Y-25810008D01*
X10523905Y-25795722D01*
X10509620Y-25767151D01*
X10509620Y-25752865D01*
X10523905Y-25724294D01*
X10552477Y-25710008D01*
X10595334Y-25710008D01*
X10623905Y-25724294D01*
X10738191Y-26024294D02*
X10752477Y-26010008D01*
X10781048Y-25967151D01*
X10795334Y-25938580D01*
X10809620Y-25895722D01*
X10823905Y-25824294D01*
X10823905Y-25767151D01*
X10809620Y-25695722D01*
X10795334Y-25652865D01*
X10781048Y-25624294D01*
X10752477Y-25581437D01*
X10738191Y-25567151D01*
X3108905Y-26170294D02*
G75*
G03*
X3108905Y-26170294I-38100J0D01*
G01*
X3452477Y-26006008D02*
X3481048Y-26006008D01*
X3509619Y-26020294D01*
X3523905Y-26034580D01*
X3538191Y-26063151D01*
X3552477Y-26120294D01*
X3552477Y-26191722D01*
X3538191Y-26248865D01*
X3523905Y-26277437D01*
X3509619Y-26291722D01*
X3481048Y-26306008D01*
X3452477Y-26306008D01*
X3423905Y-26291722D01*
X3409619Y-26277437D01*
X3395334Y-26248865D01*
X3381048Y-26191722D01*
X3381048Y-26120294D01*
X3395334Y-26063151D01*
X3409619Y-26034580D01*
X3423905Y-26020294D01*
X3452477Y-26006008D01*
X3681048Y-26277437D02*
X3695334Y-26291722D01*
X3681048Y-26306008D01*
X3666762Y-26291722D01*
X3681048Y-26277437D01*
X3681048Y-26306008D01*
X3795334Y-26006008D02*
X3995334Y-26006008D01*
X3866762Y-26306008D01*
X4238191Y-26006008D02*
X4181048Y-26006008D01*
X4152477Y-26020294D01*
X4138191Y-26034580D01*
X4109619Y-26077437D01*
X4095334Y-26134580D01*
X4095334Y-26248865D01*
X4109619Y-26277437D01*
X4123905Y-26291722D01*
X4152477Y-26306008D01*
X4209620Y-26306008D01*
X4238191Y-26291722D01*
X4252477Y-26277437D01*
X4266762Y-26248865D01*
X4266762Y-26177437D01*
X4252477Y-26148865D01*
X4238191Y-26134580D01*
X4209620Y-26120294D01*
X4152477Y-26120294D01*
X4123905Y-26134580D01*
X4109619Y-26148865D01*
X4095334Y-26177437D01*
X4381048Y-26034580D02*
X4395334Y-26020294D01*
X4423905Y-26006008D01*
X4495334Y-26006008D01*
X4523905Y-26020294D01*
X4538191Y-26034580D01*
X4552477Y-26063151D01*
X4552477Y-26091722D01*
X4538191Y-26134580D01*
X4366762Y-26306008D01*
X4552477Y-26306008D01*
X4681048Y-26306008D02*
X4681048Y-26106008D01*
X4681048Y-26134580D02*
X4695334Y-26120294D01*
X4723905Y-26106008D01*
X4766762Y-26106008D01*
X4795334Y-26120294D01*
X4809620Y-26148865D01*
X4809620Y-26306008D01*
X4809620Y-26148865D02*
X4823905Y-26120294D01*
X4852477Y-26106008D01*
X4895334Y-26106008D01*
X4923905Y-26120294D01*
X4938191Y-26148865D01*
X4938191Y-26306008D01*
X5081048Y-26306008D02*
X5081048Y-26106008D01*
X5081048Y-26134580D02*
X5095334Y-26120294D01*
X5123905Y-26106008D01*
X5166762Y-26106008D01*
X5195334Y-26120294D01*
X5209620Y-26148865D01*
X5209620Y-26306008D01*
X5209620Y-26148865D02*
X5223905Y-26120294D01*
X5252477Y-26106008D01*
X5295334Y-26106008D01*
X5323905Y-26120294D01*
X5338191Y-26148865D01*
X5338191Y-26306008D01*
X5923905Y-25991722D02*
X5666762Y-26377437D01*
X6309619Y-26006008D02*
X6338191Y-26006008D01*
X6366762Y-26020294D01*
X6381048Y-26034580D01*
X6395334Y-26063151D01*
X6409619Y-26120294D01*
X6409619Y-26191722D01*
X6395334Y-26248865D01*
X6381048Y-26277437D01*
X6366762Y-26291722D01*
X6338191Y-26306008D01*
X6309619Y-26306008D01*
X6281048Y-26291722D01*
X6266762Y-26277437D01*
X6252477Y-26248865D01*
X6238191Y-26191722D01*
X6238191Y-26120294D01*
X6252477Y-26063151D01*
X6266762Y-26034580D01*
X6281048Y-26020294D01*
X6309619Y-26006008D01*
X6538191Y-26277437D02*
X6552477Y-26291722D01*
X6538191Y-26306008D01*
X6523905Y-26291722D01*
X6538191Y-26277437D01*
X6538191Y-26306008D01*
X6738191Y-26006008D02*
X6766762Y-26006008D01*
X6795334Y-26020294D01*
X6809619Y-26034580D01*
X6823905Y-26063151D01*
X6838191Y-26120294D01*
X6838191Y-26191722D01*
X6823905Y-26248865D01*
X6809619Y-26277437D01*
X6795334Y-26291722D01*
X6766762Y-26306008D01*
X6738191Y-26306008D01*
X6709619Y-26291722D01*
X6695334Y-26277437D01*
X6681048Y-26248865D01*
X6666762Y-26191722D01*
X6666762Y-26120294D01*
X6681048Y-26063151D01*
X6695334Y-26034580D01*
X6709619Y-26020294D01*
X6738191Y-26006008D01*
X6938191Y-26006008D02*
X7123905Y-26006008D01*
X7023905Y-26120294D01*
X7066762Y-26120294D01*
X7095334Y-26134580D01*
X7109619Y-26148865D01*
X7123905Y-26177437D01*
X7123905Y-26248865D01*
X7109619Y-26277437D01*
X7095334Y-26291722D01*
X7066762Y-26306008D01*
X6981048Y-26306008D01*
X6952477Y-26291722D01*
X6938191Y-26277437D01*
X7309619Y-26006008D02*
X7338191Y-26006008D01*
X7366762Y-26020294D01*
X7381048Y-26034580D01*
X7395334Y-26063151D01*
X7409619Y-26120294D01*
X7409619Y-26191722D01*
X7395334Y-26248865D01*
X7381048Y-26277437D01*
X7366762Y-26291722D01*
X7338191Y-26306008D01*
X7309619Y-26306008D01*
X7281048Y-26291722D01*
X7266762Y-26277437D01*
X7252477Y-26248865D01*
X7238191Y-26191722D01*
X7238191Y-26120294D01*
X7252477Y-26063151D01*
X7266762Y-26034580D01*
X7281048Y-26020294D01*
X7309619Y-26006008D01*
X7595334Y-26006008D02*
X7623905Y-26006008D01*
X7652477Y-26020294D01*
X7666762Y-26034580D01*
X7681048Y-26063151D01*
X7695334Y-26120294D01*
X7695334Y-26191722D01*
X7681048Y-26248865D01*
X7666762Y-26277437D01*
X7652477Y-26291722D01*
X7623905Y-26306008D01*
X7595334Y-26306008D01*
X7566762Y-26291722D01*
X7552477Y-26277437D01*
X7538191Y-26248865D01*
X7523905Y-26191722D01*
X7523905Y-26120294D01*
X7538191Y-26063151D01*
X7552477Y-26034580D01*
X7566762Y-26020294D01*
X7595334Y-26006008D01*
X7809619Y-26006008D02*
X7809619Y-26063151D01*
X7923905Y-26006008D02*
X7923905Y-26063151D01*
X8366762Y-26420294D02*
X8352477Y-26406008D01*
X8323905Y-26363151D01*
X8309619Y-26334580D01*
X8295334Y-26291722D01*
X8281048Y-26220294D01*
X8281048Y-26163151D01*
X8295334Y-26091722D01*
X8309619Y-26048865D01*
X8323905Y-26020294D01*
X8352477Y-25977437D01*
X8366762Y-25963151D01*
X8609620Y-26106008D02*
X8609620Y-26306008D01*
X8538191Y-25991722D02*
X8466762Y-26206008D01*
X8652477Y-26206008D01*
X8895334Y-26106008D02*
X8895334Y-26306008D01*
X8823905Y-25991722D02*
X8752477Y-26206008D01*
X8938191Y-26206008D01*
X9181048Y-26106008D02*
X9181048Y-26306008D01*
X9109620Y-25991722D02*
X9038191Y-26206008D01*
X9223905Y-26206008D01*
X9566762Y-26306008D02*
X9566762Y-26006008D01*
X9695334Y-26306008D02*
X9695334Y-26148865D01*
X9681048Y-26120294D01*
X9652477Y-26106008D01*
X9609620Y-26106008D01*
X9581048Y-26120294D01*
X9566762Y-26134580D01*
X9881048Y-26306008D02*
X9852477Y-26291722D01*
X9838191Y-26277437D01*
X9823905Y-26248865D01*
X9823905Y-26163151D01*
X9838191Y-26134580D01*
X9852477Y-26120294D01*
X9881048Y-26106008D01*
X9923905Y-26106008D01*
X9952477Y-26120294D01*
X9966762Y-26134580D01*
X9981048Y-26163151D01*
X9981048Y-26248865D01*
X9966762Y-26277437D01*
X9952477Y-26291722D01*
X9923905Y-26306008D01*
X9881048Y-26306008D01*
X10152477Y-26306008D02*
X10123905Y-26291722D01*
X10109620Y-26263151D01*
X10109620Y-26006008D01*
X10381048Y-26291722D02*
X10352477Y-26306008D01*
X10295334Y-26306008D01*
X10266762Y-26291722D01*
X10252477Y-26263151D01*
X10252477Y-26148865D01*
X10266762Y-26120294D01*
X10295334Y-26106008D01*
X10352477Y-26106008D01*
X10381048Y-26120294D01*
X10395334Y-26148865D01*
X10395334Y-26177437D01*
X10252477Y-26206008D01*
X10509620Y-26291722D02*
X10538191Y-26306008D01*
X10595334Y-26306008D01*
X10623905Y-26291722D01*
X10638191Y-26263151D01*
X10638191Y-26248865D01*
X10623905Y-26220294D01*
X10595334Y-26206008D01*
X10552477Y-26206008D01*
X10523905Y-26191722D01*
X10509620Y-26163151D01*
X10509620Y-26148865D01*
X10523905Y-26120294D01*
X10552477Y-26106008D01*
X10595334Y-26106008D01*
X10623905Y-26120294D01*
X10738191Y-26420294D02*
X10752477Y-26406008D01*
X10781048Y-26363151D01*
X10795334Y-26334580D01*
X10809620Y-26291722D01*
X10823905Y-26220294D01*
X10823905Y-26163151D01*
X10809620Y-26091722D01*
X10795334Y-26048865D01*
X10781048Y-26020294D01*
X10752477Y-25977437D01*
X10738191Y-25963151D01*
X3058905Y-26516294D02*
X3058905Y-26616294D01*
X3008905Y-26566294D02*
X3108905Y-26566294D01*
X3552477Y-26702008D02*
X3381048Y-26702008D01*
X3466762Y-26702008D02*
X3466762Y-26402008D01*
X3438191Y-26444865D01*
X3409619Y-26473437D01*
X3381048Y-26487722D01*
X3681048Y-26673437D02*
X3695334Y-26687722D01*
X3681048Y-26702008D01*
X3666762Y-26687722D01*
X3681048Y-26673437D01*
X3681048Y-26702008D01*
X3881048Y-26402008D02*
X3909619Y-26402008D01*
X3938191Y-26416294D01*
X3952477Y-26430580D01*
X3966762Y-26459151D01*
X3981048Y-26516294D01*
X3981048Y-26587722D01*
X3966762Y-26644865D01*
X3952477Y-26673437D01*
X3938191Y-26687722D01*
X3909619Y-26702008D01*
X3881048Y-26702008D01*
X3852477Y-26687722D01*
X3838191Y-26673437D01*
X3823905Y-26644865D01*
X3809619Y-26587722D01*
X3809619Y-26516294D01*
X3823905Y-26459151D01*
X3838191Y-26430580D01*
X3852477Y-26416294D01*
X3881048Y-26402008D01*
X4166762Y-26402008D02*
X4195334Y-26402008D01*
X4223905Y-26416294D01*
X4238191Y-26430580D01*
X4252477Y-26459151D01*
X4266762Y-26516294D01*
X4266762Y-26587722D01*
X4252477Y-26644865D01*
X4238191Y-26673437D01*
X4223905Y-26687722D01*
X4195334Y-26702008D01*
X4166762Y-26702008D01*
X4138191Y-26687722D01*
X4123905Y-26673437D01*
X4109619Y-26644865D01*
X4095334Y-26587722D01*
X4095334Y-26516294D01*
X4109619Y-26459151D01*
X4123905Y-26430580D01*
X4138191Y-26416294D01*
X4166762Y-26402008D01*
X4452477Y-26402008D02*
X4481048Y-26402008D01*
X4509620Y-26416294D01*
X4523905Y-26430580D01*
X4538191Y-26459151D01*
X4552477Y-26516294D01*
X4552477Y-26587722D01*
X4538191Y-26644865D01*
X4523905Y-26673437D01*
X4509620Y-26687722D01*
X4481048Y-26702008D01*
X4452477Y-26702008D01*
X4423905Y-26687722D01*
X4409620Y-26673437D01*
X4395334Y-26644865D01*
X4381048Y-26587722D01*
X4381048Y-26516294D01*
X4395334Y-26459151D01*
X4409620Y-26430580D01*
X4423905Y-26416294D01*
X4452477Y-26402008D01*
X4681048Y-26702008D02*
X4681048Y-26502008D01*
X4681048Y-26530580D02*
X4695334Y-26516294D01*
X4723905Y-26502008D01*
X4766762Y-26502008D01*
X4795334Y-26516294D01*
X4809620Y-26544865D01*
X4809620Y-26702008D01*
X4809620Y-26544865D02*
X4823905Y-26516294D01*
X4852477Y-26502008D01*
X4895334Y-26502008D01*
X4923905Y-26516294D01*
X4938191Y-26544865D01*
X4938191Y-26702008D01*
X5081048Y-26702008D02*
X5081048Y-26502008D01*
X5081048Y-26530580D02*
X5095334Y-26516294D01*
X5123905Y-26502008D01*
X5166762Y-26502008D01*
X5195334Y-26516294D01*
X5209620Y-26544865D01*
X5209620Y-26702008D01*
X5209620Y-26544865D02*
X5223905Y-26516294D01*
X5252477Y-26502008D01*
X5295334Y-26502008D01*
X5323905Y-26516294D01*
X5338191Y-26544865D01*
X5338191Y-26702008D01*
X5923905Y-26387722D02*
X5666762Y-26773437D01*
X6309619Y-26402008D02*
X6338191Y-26402008D01*
X6366762Y-26416294D01*
X6381048Y-26430580D01*
X6395334Y-26459151D01*
X6409619Y-26516294D01*
X6409619Y-26587722D01*
X6395334Y-26644865D01*
X6381048Y-26673437D01*
X6366762Y-26687722D01*
X6338191Y-26702008D01*
X6309619Y-26702008D01*
X6281048Y-26687722D01*
X6266762Y-26673437D01*
X6252477Y-26644865D01*
X6238191Y-26587722D01*
X6238191Y-26516294D01*
X6252477Y-26459151D01*
X6266762Y-26430580D01*
X6281048Y-26416294D01*
X6309619Y-26402008D01*
X6538191Y-26673437D02*
X6552477Y-26687722D01*
X6538191Y-26702008D01*
X6523905Y-26687722D01*
X6538191Y-26673437D01*
X6538191Y-26702008D01*
X6738191Y-26402008D02*
X6766762Y-26402008D01*
X6795334Y-26416294D01*
X6809619Y-26430580D01*
X6823905Y-26459151D01*
X6838191Y-26516294D01*
X6838191Y-26587722D01*
X6823905Y-26644865D01*
X6809619Y-26673437D01*
X6795334Y-26687722D01*
X6766762Y-26702008D01*
X6738191Y-26702008D01*
X6709619Y-26687722D01*
X6695334Y-26673437D01*
X6681048Y-26644865D01*
X6666762Y-26587722D01*
X6666762Y-26516294D01*
X6681048Y-26459151D01*
X6695334Y-26430580D01*
X6709619Y-26416294D01*
X6738191Y-26402008D01*
X6938191Y-26402008D02*
X7123905Y-26402008D01*
X7023905Y-26516294D01*
X7066762Y-26516294D01*
X7095334Y-26530580D01*
X7109619Y-26544865D01*
X7123905Y-26573437D01*
X7123905Y-26644865D01*
X7109619Y-26673437D01*
X7095334Y-26687722D01*
X7066762Y-26702008D01*
X6981048Y-26702008D01*
X6952477Y-26687722D01*
X6938191Y-26673437D01*
X7266762Y-26702008D02*
X7323905Y-26702008D01*
X7352477Y-26687722D01*
X7366762Y-26673437D01*
X7395334Y-26630580D01*
X7409619Y-26573437D01*
X7409619Y-26459151D01*
X7395334Y-26430580D01*
X7381048Y-26416294D01*
X7352477Y-26402008D01*
X7295334Y-26402008D01*
X7266762Y-26416294D01*
X7252477Y-26430580D01*
X7238191Y-26459151D01*
X7238191Y-26530580D01*
X7252477Y-26559151D01*
X7266762Y-26573437D01*
X7295334Y-26587722D01*
X7352477Y-26587722D01*
X7381048Y-26573437D01*
X7395334Y-26559151D01*
X7409619Y-26530580D01*
X7666762Y-26502008D02*
X7666762Y-26702008D01*
X7595334Y-26387722D02*
X7523905Y-26602008D01*
X7709619Y-26602008D01*
X7809619Y-26402008D02*
X7809619Y-26459151D01*
X7923905Y-26402008D02*
X7923905Y-26459151D01*
X8366762Y-26816294D02*
X8352477Y-26802008D01*
X8323905Y-26759151D01*
X8309619Y-26730580D01*
X8295334Y-26687722D01*
X8281048Y-26616294D01*
X8281048Y-26559151D01*
X8295334Y-26487722D01*
X8309619Y-26444865D01*
X8323905Y-26416294D01*
X8352477Y-26373437D01*
X8366762Y-26359151D01*
X8609620Y-26502008D02*
X8609620Y-26702008D01*
X8538191Y-26387722D02*
X8466762Y-26602008D01*
X8652477Y-26602008D01*
X8895334Y-26502008D02*
X8895334Y-26702008D01*
X8823905Y-26387722D02*
X8752477Y-26602008D01*
X8938191Y-26602008D01*
X9281048Y-26702008D02*
X9281048Y-26402008D01*
X9409620Y-26702008D02*
X9409620Y-26544865D01*
X9395334Y-26516294D01*
X9366762Y-26502008D01*
X9323905Y-26502008D01*
X9295334Y-26516294D01*
X9281048Y-26530580D01*
X9595334Y-26702008D02*
X9566762Y-26687722D01*
X9552477Y-26673437D01*
X9538191Y-26644865D01*
X9538191Y-26559151D01*
X9552477Y-26530580D01*
X9566762Y-26516294D01*
X9595334Y-26502008D01*
X9638191Y-26502008D01*
X9666762Y-26516294D01*
X9681048Y-26530580D01*
X9695334Y-26559151D01*
X9695334Y-26644865D01*
X9681048Y-26673437D01*
X9666762Y-26687722D01*
X9638191Y-26702008D01*
X9595334Y-26702008D01*
X9866762Y-26702008D02*
X9838191Y-26687722D01*
X9823905Y-26659151D01*
X9823905Y-26402008D01*
X10095334Y-26687722D02*
X10066762Y-26702008D01*
X10009620Y-26702008D01*
X9981048Y-26687722D01*
X9966762Y-26659151D01*
X9966762Y-26544865D01*
X9981048Y-26516294D01*
X10009620Y-26502008D01*
X10066762Y-26502008D01*
X10095334Y-26516294D01*
X10109620Y-26544865D01*
X10109620Y-26573437D01*
X9966762Y-26602008D01*
X10223905Y-26687722D02*
X10252477Y-26702008D01*
X10309620Y-26702008D01*
X10338191Y-26687722D01*
X10352477Y-26659151D01*
X10352477Y-26644865D01*
X10338191Y-26616294D01*
X10309620Y-26602008D01*
X10266762Y-26602008D01*
X10238191Y-26587722D01*
X10223905Y-26559151D01*
X10223905Y-26544865D01*
X10238191Y-26516294D01*
X10266762Y-26502008D01*
X10309620Y-26502008D01*
X10338191Y-26516294D01*
X10452477Y-26816294D02*
X10466762Y-26802008D01*
X10495334Y-26759151D01*
X10509620Y-26730580D01*
X10523905Y-26687722D01*
X10538191Y-26616294D01*
X10538191Y-26559151D01*
X10523905Y-26487722D01*
X10509620Y-26444865D01*
X10495334Y-26416294D01*
X10466762Y-26373437D01*
X10452477Y-26359151D01*
X3086646Y-27016034D02*
X3086646Y-26908553D01*
X2979165Y-26908553D01*
X2979165Y-27016034D01*
X3086646Y-27016034D01*
X3552477Y-27098008D02*
X3381048Y-27098008D01*
X3466762Y-27098008D02*
X3466762Y-26798008D01*
X3438191Y-26840865D01*
X3409619Y-26869437D01*
X3381048Y-26883722D01*
X3681048Y-27069437D02*
X3695334Y-27083722D01*
X3681048Y-27098008D01*
X3666762Y-27083722D01*
X3681048Y-27069437D01*
X3681048Y-27098008D01*
X3966762Y-26798008D02*
X3823905Y-26798008D01*
X3809619Y-26940865D01*
X3823905Y-26926580D01*
X3852477Y-26912294D01*
X3923905Y-26912294D01*
X3952477Y-26926580D01*
X3966762Y-26940865D01*
X3981048Y-26969437D01*
X3981048Y-27040865D01*
X3966762Y-27069437D01*
X3952477Y-27083722D01*
X3923905Y-27098008D01*
X3852477Y-27098008D01*
X3823905Y-27083722D01*
X3809619Y-27069437D01*
X4095334Y-26826580D02*
X4109619Y-26812294D01*
X4138191Y-26798008D01*
X4209620Y-26798008D01*
X4238191Y-26812294D01*
X4252477Y-26826580D01*
X4266762Y-26855151D01*
X4266762Y-26883722D01*
X4252477Y-26926580D01*
X4081048Y-27098008D01*
X4266762Y-27098008D01*
X4452477Y-26798008D02*
X4481048Y-26798008D01*
X4509620Y-26812294D01*
X4523905Y-26826580D01*
X4538191Y-26855151D01*
X4552477Y-26912294D01*
X4552477Y-26983722D01*
X4538191Y-27040865D01*
X4523905Y-27069437D01*
X4509620Y-27083722D01*
X4481048Y-27098008D01*
X4452477Y-27098008D01*
X4423905Y-27083722D01*
X4409620Y-27069437D01*
X4395334Y-27040865D01*
X4381048Y-26983722D01*
X4381048Y-26912294D01*
X4395334Y-26855151D01*
X4409620Y-26826580D01*
X4423905Y-26812294D01*
X4452477Y-26798008D01*
X4681048Y-27098008D02*
X4681048Y-26898008D01*
X4681048Y-26926580D02*
X4695334Y-26912294D01*
X4723905Y-26898008D01*
X4766762Y-26898008D01*
X4795334Y-26912294D01*
X4809620Y-26940865D01*
X4809620Y-27098008D01*
X4809620Y-26940865D02*
X4823905Y-26912294D01*
X4852477Y-26898008D01*
X4895334Y-26898008D01*
X4923905Y-26912294D01*
X4938191Y-26940865D01*
X4938191Y-27098008D01*
X5081048Y-27098008D02*
X5081048Y-26898008D01*
X5081048Y-26926580D02*
X5095334Y-26912294D01*
X5123905Y-26898008D01*
X5166762Y-26898008D01*
X5195334Y-26912294D01*
X5209620Y-26940865D01*
X5209620Y-27098008D01*
X5209620Y-26940865D02*
X5223905Y-26912294D01*
X5252477Y-26898008D01*
X5295334Y-26898008D01*
X5323905Y-26912294D01*
X5338191Y-26940865D01*
X5338191Y-27098008D01*
X5923905Y-26783722D02*
X5666762Y-27169437D01*
X6309619Y-26798008D02*
X6338191Y-26798008D01*
X6366762Y-26812294D01*
X6381048Y-26826580D01*
X6395334Y-26855151D01*
X6409619Y-26912294D01*
X6409619Y-26983722D01*
X6395334Y-27040865D01*
X6381048Y-27069437D01*
X6366762Y-27083722D01*
X6338191Y-27098008D01*
X6309619Y-27098008D01*
X6281048Y-27083722D01*
X6266762Y-27069437D01*
X6252477Y-27040865D01*
X6238191Y-26983722D01*
X6238191Y-26912294D01*
X6252477Y-26855151D01*
X6266762Y-26826580D01*
X6281048Y-26812294D01*
X6309619Y-26798008D01*
X6538191Y-27069437D02*
X6552477Y-27083722D01*
X6538191Y-27098008D01*
X6523905Y-27083722D01*
X6538191Y-27069437D01*
X6538191Y-27098008D01*
X6738191Y-26798008D02*
X6766762Y-26798008D01*
X6795334Y-26812294D01*
X6809619Y-26826580D01*
X6823905Y-26855151D01*
X6838191Y-26912294D01*
X6838191Y-26983722D01*
X6823905Y-27040865D01*
X6809619Y-27069437D01*
X6795334Y-27083722D01*
X6766762Y-27098008D01*
X6738191Y-27098008D01*
X6709619Y-27083722D01*
X6695334Y-27069437D01*
X6681048Y-27040865D01*
X6666762Y-26983722D01*
X6666762Y-26912294D01*
X6681048Y-26855151D01*
X6695334Y-26826580D01*
X6709619Y-26812294D01*
X6738191Y-26798008D01*
X7109619Y-26798008D02*
X6966762Y-26798008D01*
X6952477Y-26940865D01*
X6966762Y-26926580D01*
X6995334Y-26912294D01*
X7066762Y-26912294D01*
X7095334Y-26926580D01*
X7109619Y-26940865D01*
X7123905Y-26969437D01*
X7123905Y-27040865D01*
X7109619Y-27069437D01*
X7095334Y-27083722D01*
X7066762Y-27098008D01*
X6995334Y-27098008D01*
X6966762Y-27083722D01*
X6952477Y-27069437D01*
X7266762Y-27098008D02*
X7323905Y-27098008D01*
X7352477Y-27083722D01*
X7366762Y-27069437D01*
X7395334Y-27026580D01*
X7409619Y-26969437D01*
X7409619Y-26855151D01*
X7395334Y-26826580D01*
X7381048Y-26812294D01*
X7352477Y-26798008D01*
X7295334Y-26798008D01*
X7266762Y-26812294D01*
X7252477Y-26826580D01*
X7238191Y-26855151D01*
X7238191Y-26926580D01*
X7252477Y-26955151D01*
X7266762Y-26969437D01*
X7295334Y-26983722D01*
X7352477Y-26983722D01*
X7381048Y-26969437D01*
X7395334Y-26955151D01*
X7409619Y-26926580D01*
X7581048Y-26926580D02*
X7552477Y-26912294D01*
X7538191Y-26898008D01*
X7523905Y-26869437D01*
X7523905Y-26855151D01*
X7538191Y-26826580D01*
X7552477Y-26812294D01*
X7581048Y-26798008D01*
X7638191Y-26798008D01*
X7666762Y-26812294D01*
X7681048Y-26826580D01*
X7695334Y-26855151D01*
X7695334Y-26869437D01*
X7681048Y-26898008D01*
X7666762Y-26912294D01*
X7638191Y-26926580D01*
X7581048Y-26926580D01*
X7552477Y-26940865D01*
X7538191Y-26955151D01*
X7523905Y-26983722D01*
X7523905Y-27040865D01*
X7538191Y-27069437D01*
X7552477Y-27083722D01*
X7581048Y-27098008D01*
X7638191Y-27098008D01*
X7666762Y-27083722D01*
X7681048Y-27069437D01*
X7695334Y-27040865D01*
X7695334Y-26983722D01*
X7681048Y-26955151D01*
X7666762Y-26940865D01*
X7638191Y-26926580D01*
X7809619Y-26798008D02*
X7809619Y-26855151D01*
X7923905Y-26798008D02*
X7923905Y-26855151D01*
X8366762Y-27212294D02*
X8352477Y-27198008D01*
X8323905Y-27155151D01*
X8309619Y-27126580D01*
X8295334Y-27083722D01*
X8281048Y-27012294D01*
X8281048Y-26955151D01*
X8295334Y-26883722D01*
X8309619Y-26840865D01*
X8323905Y-26812294D01*
X8352477Y-26769437D01*
X8366762Y-26755151D01*
X8638191Y-27098008D02*
X8466762Y-27098008D01*
X8552477Y-27098008D02*
X8552477Y-26798008D01*
X8523905Y-26840865D01*
X8495334Y-26869437D01*
X8466762Y-26883722D01*
X8895334Y-26798008D02*
X8838191Y-26798008D01*
X8809620Y-26812294D01*
X8795334Y-26826580D01*
X8766762Y-26869437D01*
X8752477Y-26926580D01*
X8752477Y-27040865D01*
X8766762Y-27069437D01*
X8781048Y-27083722D01*
X8809620Y-27098008D01*
X8866762Y-27098008D01*
X8895334Y-27083722D01*
X8909620Y-27069437D01*
X8923905Y-27040865D01*
X8923905Y-26969437D01*
X8909620Y-26940865D01*
X8895334Y-26926580D01*
X8866762Y-26912294D01*
X8809620Y-26912294D01*
X8781048Y-26926580D01*
X8766762Y-26940865D01*
X8752477Y-26969437D01*
X9281048Y-27098008D02*
X9281048Y-26798008D01*
X9409620Y-27098008D02*
X9409620Y-26940865D01*
X9395334Y-26912294D01*
X9366762Y-26898008D01*
X9323905Y-26898008D01*
X9295334Y-26912294D01*
X9281048Y-26926580D01*
X9595334Y-27098008D02*
X9566762Y-27083722D01*
X9552477Y-27069437D01*
X9538191Y-27040865D01*
X9538191Y-26955151D01*
X9552477Y-26926580D01*
X9566762Y-26912294D01*
X9595334Y-26898008D01*
X9638191Y-26898008D01*
X9666762Y-26912294D01*
X9681048Y-26926580D01*
X9695334Y-26955151D01*
X9695334Y-27040865D01*
X9681048Y-27069437D01*
X9666762Y-27083722D01*
X9638191Y-27098008D01*
X9595334Y-27098008D01*
X9866762Y-27098008D02*
X9838191Y-27083722D01*
X9823905Y-27055151D01*
X9823905Y-26798008D01*
X10095334Y-27083722D02*
X10066762Y-27098008D01*
X10009620Y-27098008D01*
X9981048Y-27083722D01*
X9966762Y-27055151D01*
X9966762Y-26940865D01*
X9981048Y-26912294D01*
X10009620Y-26898008D01*
X10066762Y-26898008D01*
X10095334Y-26912294D01*
X10109620Y-26940865D01*
X10109620Y-26969437D01*
X9966762Y-26998008D01*
X10223905Y-27083722D02*
X10252477Y-27098008D01*
X10309620Y-27098008D01*
X10338191Y-27083722D01*
X10352477Y-27055151D01*
X10352477Y-27040865D01*
X10338191Y-27012294D01*
X10309620Y-26998008D01*
X10266762Y-26998008D01*
X10238191Y-26983722D01*
X10223905Y-26955151D01*
X10223905Y-26940865D01*
X10238191Y-26912294D01*
X10266762Y-26898008D01*
X10309620Y-26898008D01*
X10338191Y-26912294D01*
X10452477Y-27212294D02*
X10466762Y-27198008D01*
X10495334Y-27155151D01*
X10509620Y-27126580D01*
X10523905Y-27083722D01*
X10538191Y-27012294D01*
X10538191Y-26955151D01*
X10523905Y-26883722D01*
X10509620Y-26840865D01*
X10495334Y-26812294D01*
X10466762Y-26769437D01*
X10452477Y-26755151D01*
M02*
