%TF.GenerationSoftware,KiCad,Pcbnew,(5.1.9)-1*%
%TF.CreationDate,2021-06-15T23:19:55+02:00*%
%TF.ProjectId,opena3xx-mcdu,6f70656e-6133-4787-982d-6d6364752e6b,0.1*%
%TF.SameCoordinates,Original*%
%TF.FileFunction,Profile,NP*%
%FSLAX46Y46*%
G04 Gerber Fmt 4.6, Leading zero omitted, Abs format (unit mm)*
G04 Created by KiCad (PCBNEW (5.1.9)-1) date 2021-06-15 23:19:55*
%MOMM*%
%LPD*%
G01*
G04 APERTURE LIST*
%TA.AperFunction,Profile*%
%ADD10C,0.050000*%
%TD*%
%TA.AperFunction,Profile*%
%ADD11C,0.200000*%
%TD*%
G04 APERTURE END LIST*
D10*
X284226000Y-83058000D02*
G75*
G03*
X284226000Y-83058000I-1524000J0D01*
G01*
X203200000Y-83058000D02*
G75*
G03*
X203200000Y-83058000I-1524000J0D01*
G01*
X284251400Y-121996200D02*
G75*
G03*
X284251400Y-121996200I-1524000J0D01*
G01*
X203225400Y-121996200D02*
G75*
G03*
X203225400Y-121996200I-1524000J0D01*
G01*
D11*
X175096704Y-35862963D02*
G75*
G03*
X175096704Y-35862963I-2000000J0D01*
G01*
X169069654Y-248042938D02*
X315069653Y-248042938D01*
X313098973Y-143725977D02*
G75*
G03*
X313098973Y-143725977I-2000000J0D01*
G01*
X313099057Y-35854494D02*
G75*
G03*
X313099057Y-35854494I-2000000J0D01*
G01*
X168069654Y-24042939D02*
G75*
G02*
X169069654Y-23042939I1000000J0D01*
G01*
X175099057Y-234945484D02*
G75*
G03*
X175099057Y-234945484I-2000000J0D01*
G01*
X316069653Y-247042938D02*
X316069653Y-24042939D01*
X168069654Y-24042939D02*
X168069654Y-247042938D01*
X169069654Y-248042938D02*
G75*
G02*
X168069654Y-247042938I0J1000000D01*
G01*
X315069653Y-23042939D02*
G75*
G02*
X316069653Y-24042939I0J-1000000D01*
G01*
X315069653Y-23042939D02*
X169069654Y-23042939D01*
X175098989Y-143726029D02*
G75*
G03*
X175098989Y-143726029I-2000000J0D01*
G01*
X316069653Y-247042938D02*
G75*
G02*
X315069653Y-248042938I-1000000J0D01*
G01*
X313099067Y-234900316D02*
G75*
G03*
X313099067Y-234900316I-2000000J0D01*
G01*
D10*
X295377461Y-122047000D02*
G75*
G03*
X295377461Y-122047000I-1499461J0D01*
G01*
X192303400Y-122047000D02*
G75*
G03*
X192303400Y-122047000I-1524000J0D01*
G01*
X295402212Y-45974000D02*
G75*
G03*
X295402212Y-45974000I-1524212J0D01*
G01*
X192303612Y-45974000D02*
G75*
G03*
X192303612Y-45974000I-1524212J0D01*
G01*
X228206300Y-130225800D02*
X240461800Y-130225800D01*
X228206300Y-131521200D02*
X228206300Y-130225800D01*
X257479800Y-131521200D02*
X228206300Y-131521200D01*
X257479800Y-130225800D02*
X257479800Y-131521200D01*
X240461800Y-130225800D02*
X257479800Y-130225800D01*
M02*
