%TF.GenerationSoftware,KiCad,Pcbnew,(5.1.9)-1*%
%TF.CreationDate,2021-06-21T17:11:14+02:00*%
%TF.ProjectId,opena3xx-mcdu,6f70656e-6133-4787-982d-6d6364752e6b,0.1*%
%TF.SameCoordinates,Original*%
%TF.FileFunction,Other,Fab,Bot*%
%FSLAX46Y46*%
G04 Gerber Fmt 4.6, Leading zero omitted, Abs format (unit mm)*
G04 Created by KiCad (PCBNEW (5.1.9)-1) date 2021-06-21 17:11:14*
%MOMM*%
%LPD*%
G01*
G04 APERTURE LIST*
%ADD10C,0.100000*%
%ADD11C,0.150000*%
%ADD12C,0.120000*%
G04 APERTURE END LIST*
D10*
%TO.C,J3*%
X169732000Y-231720000D02*
X169732000Y-221720000D01*
X177232000Y-231720000D02*
X169732000Y-231720000D01*
X177232000Y-221720000D02*
X177232000Y-231720000D01*
X169732000Y-221720000D02*
X177232000Y-221720000D01*
X176032000Y-221770000D02*
X176032000Y-231670000D01*
%TO.C,J9*%
X175930000Y-160099000D02*
X175930000Y-169999000D01*
X169630000Y-160049000D02*
X177130000Y-160049000D01*
X177130000Y-160049000D02*
X177130000Y-170049000D01*
X177130000Y-170049000D02*
X169630000Y-170049000D01*
X169630000Y-170049000D02*
X169630000Y-160049000D01*
%TO.C,J8*%
X169630000Y-159356000D02*
X169630000Y-149356000D01*
X177130000Y-159356000D02*
X169630000Y-159356000D01*
X177130000Y-149356000D02*
X177130000Y-159356000D01*
X169630000Y-149356000D02*
X177130000Y-149356000D01*
X175930000Y-149406000D02*
X175930000Y-159306000D01*
%TO.C,R44*%
X162382000Y-126847000D02*
X159182000Y-126847000D01*
X162382000Y-129337000D02*
X162382000Y-126847000D01*
X159182000Y-129337000D02*
X162382000Y-129337000D01*
X159182000Y-126847000D02*
X159182000Y-129337000D01*
%TO.C,J7*%
X169719000Y-127301000D02*
X169719000Y-117301000D01*
X177219000Y-127301000D02*
X169719000Y-127301000D01*
X177219000Y-117301000D02*
X177219000Y-127301000D01*
X169719000Y-117301000D02*
X177219000Y-117301000D01*
X176019000Y-117351000D02*
X176019000Y-127251000D01*
%TO.C,J6*%
X169719000Y-138096000D02*
X169719000Y-128096000D01*
X177219000Y-138096000D02*
X169719000Y-138096000D01*
X177219000Y-128096000D02*
X177219000Y-138096000D01*
X169719000Y-128096000D02*
X177219000Y-128096000D01*
X176019000Y-128146000D02*
X176019000Y-138046000D01*
%TO.C,U5*%
X145094000Y-107467000D02*
X146094000Y-108467000D01*
X145094000Y-90567000D02*
X145094000Y-107467000D01*
X152594000Y-90567000D02*
X145094000Y-90567000D01*
X152594000Y-108467000D02*
X152594000Y-90567000D01*
X146094000Y-108467000D02*
X152594000Y-108467000D01*
%TO.C,U4*%
X123504000Y-107467000D02*
X124504000Y-108467000D01*
X123504000Y-90567000D02*
X123504000Y-107467000D01*
X131004000Y-90567000D02*
X123504000Y-90567000D01*
X131004000Y-108467000D02*
X131004000Y-90567000D01*
X124504000Y-108467000D02*
X131004000Y-108467000D01*
%TO.C,U3*%
X100644000Y-107467000D02*
X101644000Y-108467000D01*
X100644000Y-90567000D02*
X100644000Y-107467000D01*
X108144000Y-90567000D02*
X100644000Y-90567000D01*
X108144000Y-108467000D02*
X108144000Y-90567000D01*
X101644000Y-108467000D02*
X108144000Y-108467000D01*
%TO.C,U2*%
X79054000Y-107467000D02*
X80054000Y-108467000D01*
X79054000Y-90567000D02*
X79054000Y-107467000D01*
X86554000Y-90567000D02*
X79054000Y-90567000D01*
X86554000Y-108467000D02*
X86554000Y-90567000D01*
X80054000Y-108467000D02*
X86554000Y-108467000D01*
%TO.C,U1*%
X57464000Y-107467000D02*
X58464000Y-108467000D01*
X57464000Y-90567000D02*
X57464000Y-107467000D01*
X64964000Y-90567000D02*
X57464000Y-90567000D01*
X64964000Y-108467000D02*
X64964000Y-90567000D01*
X58464000Y-108467000D02*
X64964000Y-108467000D01*
%TO.C,SW100*%
X43074400Y-31783200D02*
X49074400Y-31783200D01*
X43074400Y-37783200D02*
X49074400Y-37783200D01*
X49074400Y-37783200D02*
X49074400Y-31783200D01*
X43074400Y-37783200D02*
X43074400Y-31783200D01*
%TO.C,R43*%
X45059000Y-206908000D02*
X45059000Y-203708000D01*
X43459000Y-206908000D02*
X45059000Y-206908000D01*
X43459000Y-203708000D02*
X43459000Y-206908000D01*
X45059000Y-203708000D02*
X43459000Y-203708000D01*
%TO.C,R42*%
X163691000Y-189852000D02*
X166891000Y-189852000D01*
X163691000Y-188252000D02*
X163691000Y-189852000D01*
X166891000Y-188252000D02*
X163691000Y-188252000D01*
X166891000Y-189852000D02*
X166891000Y-188252000D01*
%TO.C,R41*%
X45123000Y-188938000D02*
X45123000Y-185738000D01*
X43523000Y-188938000D02*
X45123000Y-188938000D01*
X43523000Y-185738000D02*
X43523000Y-188938000D01*
X45123000Y-185738000D02*
X43523000Y-185738000D01*
%TO.C,R40*%
X106693000Y-33058200D02*
X103493000Y-33058200D01*
X106693000Y-34658200D02*
X106693000Y-33058200D01*
X103493000Y-34658200D02*
X106693000Y-34658200D01*
X103493000Y-33058200D02*
X103493000Y-34658200D01*
%TO.C,R39*%
X91897000Y-33058200D02*
X88697000Y-33058200D01*
X91897000Y-34658200D02*
X91897000Y-33058200D01*
X88697000Y-34658200D02*
X91897000Y-34658200D01*
X88697000Y-33058200D02*
X88697000Y-34658200D01*
%TO.C,R38*%
X136791000Y-33058200D02*
X133591000Y-33058200D01*
X136791000Y-34658200D02*
X136791000Y-33058200D01*
X133591000Y-34658200D02*
X136791000Y-34658200D01*
X133591000Y-33058200D02*
X133591000Y-34658200D01*
%TO.C,R37*%
X76593000Y-33058200D02*
X73393000Y-33058200D01*
X76593000Y-34658200D02*
X76593000Y-33058200D01*
X73393000Y-34658200D02*
X76593000Y-34658200D01*
X73393000Y-33058200D02*
X73393000Y-34658200D01*
%TO.C,R36*%
X65735000Y-188569000D02*
X62535000Y-188569000D01*
X65735000Y-191059000D02*
X65735000Y-188569000D01*
X62535000Y-191059000D02*
X65735000Y-191059000D01*
X62535000Y-188569000D02*
X62535000Y-191059000D01*
%TO.C,R35*%
X65862000Y-175615000D02*
X62662000Y-175615000D01*
X65862000Y-178105000D02*
X65862000Y-175615000D01*
X62662000Y-178105000D02*
X65862000Y-178105000D01*
X62662000Y-175615000D02*
X62662000Y-178105000D01*
%TO.C,R34*%
X166763000Y-235623000D02*
X163563000Y-235623000D01*
X166763000Y-238113000D02*
X166763000Y-235623000D01*
X163563000Y-238113000D02*
X166763000Y-238113000D01*
X163563000Y-235623000D02*
X163563000Y-238113000D01*
%TO.C,R33*%
X121234000Y-235686000D02*
X118034000Y-235686000D01*
X121234000Y-238176000D02*
X121234000Y-235686000D01*
X118034000Y-238176000D02*
X121234000Y-238176000D01*
X118034000Y-235686000D02*
X118034000Y-238176000D01*
%TO.C,R32*%
X151206000Y-221653000D02*
X148006000Y-221653000D01*
X151206000Y-224143000D02*
X151206000Y-221653000D01*
X148006000Y-224143000D02*
X151206000Y-224143000D01*
X148006000Y-221653000D02*
X148006000Y-224143000D01*
%TO.C,R31*%
X106248000Y-221653000D02*
X103048000Y-221653000D01*
X106248000Y-224143000D02*
X106248000Y-221653000D01*
X103048000Y-224143000D02*
X106248000Y-224143000D01*
X103048000Y-221653000D02*
X103048000Y-224143000D01*
%TO.C,R30*%
X136220000Y-207619000D02*
X133020000Y-207619000D01*
X136220000Y-210109000D02*
X136220000Y-207619000D01*
X133020000Y-210109000D02*
X136220000Y-210109000D01*
X133020000Y-207619000D02*
X133020000Y-210109000D01*
%TO.C,R29*%
X166663000Y-193459000D02*
X163463000Y-193459000D01*
X166663000Y-195949000D02*
X166663000Y-193459000D01*
X163463000Y-195949000D02*
X166663000Y-195949000D01*
X163463000Y-193459000D02*
X163463000Y-195949000D01*
%TO.C,R28*%
X121234000Y-193713000D02*
X118034000Y-193713000D01*
X121234000Y-196203000D02*
X121234000Y-193713000D01*
X118034000Y-196203000D02*
X121234000Y-196203000D01*
X118034000Y-193713000D02*
X118034000Y-196203000D01*
%TO.C,R27*%
X151269000Y-179679000D02*
X148069000Y-179679000D01*
X151269000Y-182169000D02*
X151269000Y-179679000D01*
X148069000Y-182169000D02*
X151269000Y-182169000D01*
X148069000Y-179679000D02*
X148069000Y-182169000D01*
%TO.C,R26*%
X106248000Y-179616000D02*
X103048000Y-179616000D01*
X106248000Y-182106000D02*
X106248000Y-179616000D01*
X103048000Y-182106000D02*
X106248000Y-182106000D01*
X103048000Y-179616000D02*
X103048000Y-182106000D01*
%TO.C,R25*%
X136220000Y-165582000D02*
X133020000Y-165582000D01*
X136220000Y-168072000D02*
X136220000Y-165582000D01*
X133020000Y-168072000D02*
X136220000Y-168072000D01*
X133020000Y-165582000D02*
X133020000Y-168072000D01*
%TO.C,R24*%
X90183000Y-236448000D02*
X86983000Y-236448000D01*
X90183000Y-238938000D02*
X90183000Y-236448000D01*
X86983000Y-238938000D02*
X90183000Y-238938000D01*
X86983000Y-236448000D02*
X86983000Y-238938000D01*
%TO.C,R23*%
X90309000Y-224764000D02*
X87109000Y-224764000D01*
X90309000Y-227254000D02*
X90309000Y-224764000D01*
X87109000Y-227254000D02*
X90309000Y-227254000D01*
X87109000Y-224764000D02*
X87109000Y-227254000D01*
%TO.C,R22*%
X90246000Y-212572000D02*
X87046000Y-212572000D01*
X90246000Y-215062000D02*
X90246000Y-212572000D01*
X87046000Y-215062000D02*
X90246000Y-215062000D01*
X87046000Y-212572000D02*
X87046000Y-215062000D01*
%TO.C,R21*%
X90246000Y-200634000D02*
X87046000Y-200634000D01*
X90246000Y-203124000D02*
X90246000Y-200634000D01*
X87046000Y-203124000D02*
X90246000Y-203124000D01*
X87046000Y-200634000D02*
X87046000Y-203124000D01*
%TO.C,R20*%
X65799000Y-162280000D02*
X62599000Y-162280000D01*
X65799000Y-164770000D02*
X65799000Y-162280000D01*
X62599000Y-164770000D02*
X65799000Y-164770000D01*
X62599000Y-162280000D02*
X62599000Y-164770000D01*
%TO.C,R19*%
X119773000Y-149453000D02*
X116573000Y-149453000D01*
X119773000Y-151943000D02*
X119773000Y-149453000D01*
X116573000Y-151943000D02*
X119773000Y-151943000D01*
X116573000Y-149453000D02*
X116573000Y-151943000D01*
%TO.C,R18*%
X65799000Y-149453000D02*
X62599000Y-149453000D01*
X65799000Y-151943000D02*
X65799000Y-149453000D01*
X62599000Y-151943000D02*
X65799000Y-151943000D01*
X62599000Y-149453000D02*
X62599000Y-151943000D01*
%TO.C,R17*%
X101803000Y-136436000D02*
X98603000Y-136436000D01*
X101803000Y-138926000D02*
X101803000Y-136436000D01*
X98603000Y-138926000D02*
X101803000Y-138926000D01*
X98603000Y-136436000D02*
X98603000Y-138926000D01*
%TO.C,R16*%
X164859000Y-112052000D02*
X161659000Y-112052000D01*
X164859000Y-114542000D02*
X164859000Y-112052000D01*
X161659000Y-114542000D02*
X164859000Y-114542000D01*
X161659000Y-112052000D02*
X161659000Y-114542000D01*
%TO.C,R15*%
X164693000Y-80568400D02*
X161493000Y-80568400D01*
X164693000Y-83058400D02*
X164693000Y-80568400D01*
X161493000Y-83058400D02*
X164693000Y-83058400D01*
X161493000Y-80568400D02*
X161493000Y-83058400D01*
%TO.C,R14*%
X48402000Y-112049000D02*
X45202000Y-112049000D01*
X48402000Y-114539000D02*
X48402000Y-112049000D01*
X45202000Y-114539000D02*
X48402000Y-114539000D01*
X45202000Y-112049000D02*
X45202000Y-114539000D01*
%TO.C,R13*%
X48478200Y-80497300D02*
X45278200Y-80497300D01*
X48478200Y-82987300D02*
X48478200Y-80497300D01*
X45278200Y-82987300D02*
X48478200Y-82987300D01*
X45278200Y-80497300D02*
X45278200Y-82987300D01*
%TO.C,R12*%
X44311000Y-43357700D02*
X47511000Y-43357700D01*
X44311000Y-41757700D02*
X44311000Y-43357700D01*
X47511000Y-41757700D02*
X44311000Y-41757700D01*
X47511000Y-43357700D02*
X47511000Y-41757700D01*
%TO.C,R11*%
X85852600Y-62852500D02*
X85852600Y-66052500D01*
X87452600Y-62852500D02*
X85852600Y-62852500D01*
X87452600Y-66052500D02*
X87452600Y-62852500D01*
X85852600Y-66052500D02*
X87452600Y-66052500D01*
%TO.C,R10*%
X80898600Y-62852500D02*
X80898600Y-66052500D01*
X82498600Y-62852500D02*
X80898600Y-62852500D01*
X82498600Y-66052500D02*
X82498600Y-62852500D01*
X80898600Y-66052500D02*
X82498600Y-66052500D01*
%TO.C,R9*%
X101855000Y-76568500D02*
X101855000Y-79768500D01*
X103455000Y-76568500D02*
X101855000Y-76568500D01*
X103455000Y-79768500D02*
X103455000Y-76568500D01*
X101855000Y-79768500D02*
X103455000Y-79768500D01*
%TO.C,R8*%
X97790600Y-76594500D02*
X97790600Y-79794500D01*
X99390600Y-76594500D02*
X97790600Y-76594500D01*
X99390600Y-79794500D02*
X99390600Y-76594500D01*
X97790600Y-79794500D02*
X99390600Y-79794500D01*
%TO.C,R7*%
X99199600Y-66052500D02*
X99199600Y-62852500D01*
X97599600Y-66052500D02*
X99199600Y-66052500D01*
X97599600Y-62852500D02*
X97599600Y-66052500D01*
X99199600Y-62852500D02*
X97599600Y-62852500D01*
%TO.C,R6*%
X94182600Y-66052500D02*
X94182600Y-62852500D01*
X92582600Y-66052500D02*
X94182600Y-66052500D01*
X92582600Y-62852500D02*
X92582600Y-66052500D01*
X94182600Y-62852500D02*
X92582600Y-62852500D01*
%TO.C,R5*%
X123063000Y-76695500D02*
X123063000Y-79895500D01*
X124663000Y-76695500D02*
X123063000Y-76695500D01*
X124663000Y-79895500D02*
X124663000Y-76695500D01*
X123063000Y-79895500D02*
X124663000Y-79895500D01*
%TO.C,R4*%
X61951000Y-37553700D02*
X61951000Y-34353700D01*
X60351000Y-37553700D02*
X61951000Y-37553700D01*
X60351000Y-34353700D02*
X60351000Y-37553700D01*
X61951000Y-34353700D02*
X60351000Y-34353700D01*
%TO.C,R3*%
X66141000Y-37553700D02*
X66141000Y-34353700D01*
X64541000Y-37553700D02*
X66141000Y-37553700D01*
X64541000Y-34353700D02*
X64541000Y-37553700D01*
X66141000Y-34353700D02*
X64541000Y-34353700D01*
%TO.C,R2*%
X57696000Y-37553700D02*
X57696000Y-34353700D01*
X56096000Y-37553700D02*
X57696000Y-37553700D01*
X56096000Y-34353700D02*
X56096000Y-37553700D01*
X57696000Y-34353700D02*
X56096000Y-34353700D01*
%TO.C,R1*%
X53886000Y-37553700D02*
X53886000Y-34353700D01*
X52286000Y-37553700D02*
X53886000Y-37553700D01*
X52286000Y-34353700D02*
X52286000Y-37553700D01*
X53886000Y-34353700D02*
X52286000Y-34353700D01*
%TO.C,J4*%
X169732000Y-221103000D02*
X169732000Y-211103000D01*
X177232000Y-221103000D02*
X169732000Y-221103000D01*
X177232000Y-211103000D02*
X177232000Y-221103000D01*
X169732000Y-211103000D02*
X177232000Y-211103000D01*
X176032000Y-211153000D02*
X176032000Y-221053000D01*
%TO.C,J5*%
X80644600Y-69037200D02*
X79374600Y-70307200D01*
X130174600Y-69037200D02*
X80644600Y-69037200D01*
X130174600Y-74117200D02*
X130174600Y-69037200D01*
X79374600Y-74117200D02*
X130174600Y-74117200D01*
X79374600Y-70307200D02*
X79374600Y-74117200D01*
%TO.C,J2*%
X41532000Y-209465000D02*
X41532000Y-219465000D01*
X34032000Y-209465000D02*
X41532000Y-209465000D01*
X34032000Y-219465000D02*
X34032000Y-209465000D01*
X41532000Y-219465000D02*
X34032000Y-219465000D01*
X35232000Y-219415000D02*
X35232000Y-209515000D01*
%TO.C,J1*%
X41532000Y-220069000D02*
X41532000Y-230069000D01*
X34032000Y-220069000D02*
X41532000Y-220069000D01*
X34032000Y-230069000D02*
X34032000Y-220069000D01*
X41532000Y-230069000D02*
X34032000Y-230069000D01*
X35232000Y-230019000D02*
X35232000Y-220119000D01*
%TO.C,D4*%
X53314800Y-28282800D02*
X53314800Y-26682800D01*
X56514800Y-28282800D02*
X53314800Y-28282800D01*
X56514800Y-27082800D02*
X56514800Y-28282800D01*
X56114800Y-26682800D02*
X56514800Y-27082800D01*
X53314800Y-26682800D02*
X56114800Y-26682800D01*
%TO.C,D3*%
X60185000Y-28244700D02*
X60185000Y-26644700D01*
X63385000Y-28244700D02*
X60185000Y-28244700D01*
X63385000Y-27044700D02*
X63385000Y-28244700D01*
X62985000Y-26644700D02*
X63385000Y-27044700D01*
X60185000Y-26644700D02*
X62985000Y-26644700D01*
%TO.C,D2*%
X46355200Y-28232000D02*
X46355200Y-26632000D01*
X49555200Y-28232000D02*
X46355200Y-28232000D01*
X49555200Y-27032000D02*
X49555200Y-28232000D01*
X49155200Y-26632000D02*
X49555200Y-27032000D01*
X46355200Y-26632000D02*
X49155200Y-26632000D01*
%TO.C,D1*%
X39421000Y-28282800D02*
X39421000Y-26682800D01*
X42621000Y-28282800D02*
X39421000Y-28282800D01*
X42621000Y-27082800D02*
X42621000Y-28282800D01*
X42221000Y-26682800D02*
X42621000Y-27082800D01*
X39421000Y-26682800D02*
X42221000Y-26682800D01*
%TO.C,C5*%
X150444000Y-110147000D02*
X147244000Y-110147000D01*
X150444000Y-111747000D02*
X150444000Y-110147000D01*
X147244000Y-111747000D02*
X150444000Y-111747000D01*
X147244000Y-110147000D02*
X147244000Y-111747000D01*
%TO.C,C4*%
X128854000Y-110147000D02*
X125654000Y-110147000D01*
X128854000Y-111747000D02*
X128854000Y-110147000D01*
X125654000Y-111747000D02*
X128854000Y-111747000D01*
X125654000Y-110147000D02*
X125654000Y-111747000D01*
%TO.C,C3*%
X105740000Y-110554000D02*
X102540000Y-110554000D01*
X105740000Y-112154000D02*
X105740000Y-110554000D01*
X102540000Y-112154000D02*
X105740000Y-112154000D01*
X102540000Y-110554000D02*
X102540000Y-112154000D01*
%TO.C,C2*%
X84404000Y-110147000D02*
X81204000Y-110147000D01*
X84404000Y-111747000D02*
X84404000Y-110147000D01*
X81204000Y-111747000D02*
X84404000Y-111747000D01*
X81204000Y-110147000D02*
X81204000Y-111747000D01*
%TO.C,C1*%
X62814000Y-110147000D02*
X59614000Y-110147000D01*
X62814000Y-111747000D02*
X62814000Y-110147000D01*
X59614000Y-111747000D02*
X62814000Y-111747000D01*
X59614000Y-110147000D02*
X59614000Y-111747000D01*
%TD*%
%TO.C,J3*%
D11*
X178919142Y-222981904D02*
X178966761Y-222934285D01*
X179014380Y-222791428D01*
X179014380Y-222696190D01*
X178966761Y-222553333D01*
X178871523Y-222458095D01*
X178776285Y-222410476D01*
X178585809Y-222362857D01*
X178442952Y-222362857D01*
X178252476Y-222410476D01*
X178157238Y-222458095D01*
X178062000Y-222553333D01*
X178014380Y-222696190D01*
X178014380Y-222791428D01*
X178062000Y-222934285D01*
X178109619Y-222981904D01*
X179014380Y-223553333D02*
X178966761Y-223458095D01*
X178919142Y-223410476D01*
X178823904Y-223362857D01*
X178538190Y-223362857D01*
X178442952Y-223410476D01*
X178395333Y-223458095D01*
X178347714Y-223553333D01*
X178347714Y-223696190D01*
X178395333Y-223791428D01*
X178442952Y-223839047D01*
X178538190Y-223886666D01*
X178823904Y-223886666D01*
X178919142Y-223839047D01*
X178966761Y-223791428D01*
X179014380Y-223696190D01*
X179014380Y-223553333D01*
X178347714Y-224315238D02*
X179014380Y-224315238D01*
X178442952Y-224315238D02*
X178395333Y-224362857D01*
X178347714Y-224458095D01*
X178347714Y-224600952D01*
X178395333Y-224696190D01*
X178490571Y-224743809D01*
X179014380Y-224743809D01*
X178347714Y-225220000D02*
X179014380Y-225220000D01*
X178442952Y-225220000D02*
X178395333Y-225267619D01*
X178347714Y-225362857D01*
X178347714Y-225505714D01*
X178395333Y-225600952D01*
X178490571Y-225648571D01*
X179014380Y-225648571D01*
X179109619Y-225886666D02*
X179109619Y-226648571D01*
X178014380Y-227077142D02*
X178014380Y-227172380D01*
X178062000Y-227267619D01*
X178109619Y-227315238D01*
X178204857Y-227362857D01*
X178395333Y-227410476D01*
X178633428Y-227410476D01*
X178823904Y-227362857D01*
X178919142Y-227315238D01*
X178966761Y-227267619D01*
X179014380Y-227172380D01*
X179014380Y-227077142D01*
X178966761Y-226981904D01*
X178919142Y-226934285D01*
X178823904Y-226886666D01*
X178633428Y-226839047D01*
X178395333Y-226839047D01*
X178204857Y-226886666D01*
X178109619Y-226934285D01*
X178062000Y-226981904D01*
X178014380Y-227077142D01*
X178109619Y-227791428D02*
X178062000Y-227839047D01*
X178014380Y-227934285D01*
X178014380Y-228172380D01*
X178062000Y-228267619D01*
X178109619Y-228315238D01*
X178204857Y-228362857D01*
X178300095Y-228362857D01*
X178442952Y-228315238D01*
X179014380Y-227743809D01*
X179014380Y-228362857D01*
X179014380Y-228696190D02*
X178347714Y-229220000D01*
X178347714Y-228696190D02*
X179014380Y-229220000D01*
X178014380Y-229791428D02*
X178014380Y-229886666D01*
X178062000Y-229981904D01*
X178109619Y-230029523D01*
X178204857Y-230077142D01*
X178395333Y-230124761D01*
X178633428Y-230124761D01*
X178823904Y-230077142D01*
X178919142Y-230029523D01*
X178966761Y-229981904D01*
X179014380Y-229886666D01*
X179014380Y-229791428D01*
X178966761Y-229696190D01*
X178919142Y-229648571D01*
X178823904Y-229600952D01*
X178633428Y-229553333D01*
X178395333Y-229553333D01*
X178204857Y-229600952D01*
X178109619Y-229648571D01*
X178062000Y-229696190D01*
X178014380Y-229791428D01*
X179014380Y-231077142D02*
X179014380Y-230505714D01*
X179014380Y-230791428D02*
X178014380Y-230791428D01*
X178157238Y-230696190D01*
X178252476Y-230600952D01*
X178300095Y-230505714D01*
X172934380Y-226386666D02*
X173648666Y-226386666D01*
X173791523Y-226339047D01*
X173886761Y-226243809D01*
X173934380Y-226100952D01*
X173934380Y-226005714D01*
X172934380Y-226767619D02*
X172934380Y-227386666D01*
X173315333Y-227053333D01*
X173315333Y-227196190D01*
X173362952Y-227291428D01*
X173410571Y-227339047D01*
X173505809Y-227386666D01*
X173743904Y-227386666D01*
X173839142Y-227339047D01*
X173886761Y-227291428D01*
X173934380Y-227196190D01*
X173934380Y-226910476D01*
X173886761Y-226815238D01*
X173839142Y-226767619D01*
%TO.C,J9*%
X178817142Y-161310904D02*
X178864761Y-161263285D01*
X178912380Y-161120428D01*
X178912380Y-161025190D01*
X178864761Y-160882333D01*
X178769523Y-160787095D01*
X178674285Y-160739476D01*
X178483809Y-160691857D01*
X178340952Y-160691857D01*
X178150476Y-160739476D01*
X178055238Y-160787095D01*
X177960000Y-160882333D01*
X177912380Y-161025190D01*
X177912380Y-161120428D01*
X177960000Y-161263285D01*
X178007619Y-161310904D01*
X178912380Y-161882333D02*
X178864761Y-161787095D01*
X178817142Y-161739476D01*
X178721904Y-161691857D01*
X178436190Y-161691857D01*
X178340952Y-161739476D01*
X178293333Y-161787095D01*
X178245714Y-161882333D01*
X178245714Y-162025190D01*
X178293333Y-162120428D01*
X178340952Y-162168047D01*
X178436190Y-162215666D01*
X178721904Y-162215666D01*
X178817142Y-162168047D01*
X178864761Y-162120428D01*
X178912380Y-162025190D01*
X178912380Y-161882333D01*
X178245714Y-162644238D02*
X178912380Y-162644238D01*
X178340952Y-162644238D02*
X178293333Y-162691857D01*
X178245714Y-162787095D01*
X178245714Y-162929952D01*
X178293333Y-163025190D01*
X178388571Y-163072809D01*
X178912380Y-163072809D01*
X178245714Y-163549000D02*
X178912380Y-163549000D01*
X178340952Y-163549000D02*
X178293333Y-163596619D01*
X178245714Y-163691857D01*
X178245714Y-163834714D01*
X178293333Y-163929952D01*
X178388571Y-163977571D01*
X178912380Y-163977571D01*
X179007619Y-164215666D02*
X179007619Y-164977571D01*
X177912380Y-165406142D02*
X177912380Y-165501380D01*
X177960000Y-165596619D01*
X178007619Y-165644238D01*
X178102857Y-165691857D01*
X178293333Y-165739476D01*
X178531428Y-165739476D01*
X178721904Y-165691857D01*
X178817142Y-165644238D01*
X178864761Y-165596619D01*
X178912380Y-165501380D01*
X178912380Y-165406142D01*
X178864761Y-165310904D01*
X178817142Y-165263285D01*
X178721904Y-165215666D01*
X178531428Y-165168047D01*
X178293333Y-165168047D01*
X178102857Y-165215666D01*
X178007619Y-165263285D01*
X177960000Y-165310904D01*
X177912380Y-165406142D01*
X178007619Y-166120428D02*
X177960000Y-166168047D01*
X177912380Y-166263285D01*
X177912380Y-166501380D01*
X177960000Y-166596619D01*
X178007619Y-166644238D01*
X178102857Y-166691857D01*
X178198095Y-166691857D01*
X178340952Y-166644238D01*
X178912380Y-166072809D01*
X178912380Y-166691857D01*
X178912380Y-167025190D02*
X178245714Y-167549000D01*
X178245714Y-167025190D02*
X178912380Y-167549000D01*
X177912380Y-168120428D02*
X177912380Y-168215666D01*
X177960000Y-168310904D01*
X178007619Y-168358523D01*
X178102857Y-168406142D01*
X178293333Y-168453761D01*
X178531428Y-168453761D01*
X178721904Y-168406142D01*
X178817142Y-168358523D01*
X178864761Y-168310904D01*
X178912380Y-168215666D01*
X178912380Y-168120428D01*
X178864761Y-168025190D01*
X178817142Y-167977571D01*
X178721904Y-167929952D01*
X178531428Y-167882333D01*
X178293333Y-167882333D01*
X178102857Y-167929952D01*
X178007619Y-167977571D01*
X177960000Y-168025190D01*
X177912380Y-168120428D01*
X178912380Y-169406142D02*
X178912380Y-168834714D01*
X178912380Y-169120428D02*
X177912380Y-169120428D01*
X178055238Y-169025190D01*
X178150476Y-168929952D01*
X178198095Y-168834714D01*
X172832380Y-164715666D02*
X173546666Y-164715666D01*
X173689523Y-164668047D01*
X173784761Y-164572809D01*
X173832380Y-164429952D01*
X173832380Y-164334714D01*
X173832380Y-165239476D02*
X173832380Y-165429952D01*
X173784761Y-165525190D01*
X173737142Y-165572809D01*
X173594285Y-165668047D01*
X173403809Y-165715666D01*
X173022857Y-165715666D01*
X172927619Y-165668047D01*
X172880000Y-165620428D01*
X172832380Y-165525190D01*
X172832380Y-165334714D01*
X172880000Y-165239476D01*
X172927619Y-165191857D01*
X173022857Y-165144238D01*
X173260952Y-165144238D01*
X173356190Y-165191857D01*
X173403809Y-165239476D01*
X173451428Y-165334714D01*
X173451428Y-165525190D01*
X173403809Y-165620428D01*
X173356190Y-165668047D01*
X173260952Y-165715666D01*
%TO.C,J8*%
X178817142Y-150617904D02*
X178864761Y-150570285D01*
X178912380Y-150427428D01*
X178912380Y-150332190D01*
X178864761Y-150189333D01*
X178769523Y-150094095D01*
X178674285Y-150046476D01*
X178483809Y-149998857D01*
X178340952Y-149998857D01*
X178150476Y-150046476D01*
X178055238Y-150094095D01*
X177960000Y-150189333D01*
X177912380Y-150332190D01*
X177912380Y-150427428D01*
X177960000Y-150570285D01*
X178007619Y-150617904D01*
X178912380Y-151189333D02*
X178864761Y-151094095D01*
X178817142Y-151046476D01*
X178721904Y-150998857D01*
X178436190Y-150998857D01*
X178340952Y-151046476D01*
X178293333Y-151094095D01*
X178245714Y-151189333D01*
X178245714Y-151332190D01*
X178293333Y-151427428D01*
X178340952Y-151475047D01*
X178436190Y-151522666D01*
X178721904Y-151522666D01*
X178817142Y-151475047D01*
X178864761Y-151427428D01*
X178912380Y-151332190D01*
X178912380Y-151189333D01*
X178245714Y-151951238D02*
X178912380Y-151951238D01*
X178340952Y-151951238D02*
X178293333Y-151998857D01*
X178245714Y-152094095D01*
X178245714Y-152236952D01*
X178293333Y-152332190D01*
X178388571Y-152379809D01*
X178912380Y-152379809D01*
X178245714Y-152856000D02*
X178912380Y-152856000D01*
X178340952Y-152856000D02*
X178293333Y-152903619D01*
X178245714Y-152998857D01*
X178245714Y-153141714D01*
X178293333Y-153236952D01*
X178388571Y-153284571D01*
X178912380Y-153284571D01*
X179007619Y-153522666D02*
X179007619Y-154284571D01*
X177912380Y-154713142D02*
X177912380Y-154808380D01*
X177960000Y-154903619D01*
X178007619Y-154951238D01*
X178102857Y-154998857D01*
X178293333Y-155046476D01*
X178531428Y-155046476D01*
X178721904Y-154998857D01*
X178817142Y-154951238D01*
X178864761Y-154903619D01*
X178912380Y-154808380D01*
X178912380Y-154713142D01*
X178864761Y-154617904D01*
X178817142Y-154570285D01*
X178721904Y-154522666D01*
X178531428Y-154475047D01*
X178293333Y-154475047D01*
X178102857Y-154522666D01*
X178007619Y-154570285D01*
X177960000Y-154617904D01*
X177912380Y-154713142D01*
X178007619Y-155427428D02*
X177960000Y-155475047D01*
X177912380Y-155570285D01*
X177912380Y-155808380D01*
X177960000Y-155903619D01*
X178007619Y-155951238D01*
X178102857Y-155998857D01*
X178198095Y-155998857D01*
X178340952Y-155951238D01*
X178912380Y-155379809D01*
X178912380Y-155998857D01*
X178912380Y-156332190D02*
X178245714Y-156856000D01*
X178245714Y-156332190D02*
X178912380Y-156856000D01*
X177912380Y-157427428D02*
X177912380Y-157522666D01*
X177960000Y-157617904D01*
X178007619Y-157665523D01*
X178102857Y-157713142D01*
X178293333Y-157760761D01*
X178531428Y-157760761D01*
X178721904Y-157713142D01*
X178817142Y-157665523D01*
X178864761Y-157617904D01*
X178912380Y-157522666D01*
X178912380Y-157427428D01*
X178864761Y-157332190D01*
X178817142Y-157284571D01*
X178721904Y-157236952D01*
X178531428Y-157189333D01*
X178293333Y-157189333D01*
X178102857Y-157236952D01*
X178007619Y-157284571D01*
X177960000Y-157332190D01*
X177912380Y-157427428D01*
X178912380Y-158713142D02*
X178912380Y-158141714D01*
X178912380Y-158427428D02*
X177912380Y-158427428D01*
X178055238Y-158332190D01*
X178150476Y-158236952D01*
X178198095Y-158141714D01*
X172832380Y-154022666D02*
X173546666Y-154022666D01*
X173689523Y-153975047D01*
X173784761Y-153879809D01*
X173832380Y-153736952D01*
X173832380Y-153641714D01*
X173260952Y-154641714D02*
X173213333Y-154546476D01*
X173165714Y-154498857D01*
X173070476Y-154451238D01*
X173022857Y-154451238D01*
X172927619Y-154498857D01*
X172880000Y-154546476D01*
X172832380Y-154641714D01*
X172832380Y-154832190D01*
X172880000Y-154927428D01*
X172927619Y-154975047D01*
X173022857Y-155022666D01*
X173070476Y-155022666D01*
X173165714Y-154975047D01*
X173213333Y-154927428D01*
X173260952Y-154832190D01*
X173260952Y-154641714D01*
X173308571Y-154546476D01*
X173356190Y-154498857D01*
X173451428Y-154451238D01*
X173641904Y-154451238D01*
X173737142Y-154498857D01*
X173784761Y-154546476D01*
X173832380Y-154641714D01*
X173832380Y-154832190D01*
X173784761Y-154927428D01*
X173737142Y-154975047D01*
X173641904Y-155022666D01*
X173451428Y-155022666D01*
X173356190Y-154975047D01*
X173308571Y-154927428D01*
X173260952Y-154832190D01*
%TO.C,R44*%
X162520095Y-125359619D02*
X162472476Y-125312000D01*
X162377238Y-125264380D01*
X162139142Y-125264380D01*
X162043904Y-125312000D01*
X161996285Y-125359619D01*
X161948666Y-125454857D01*
X161948666Y-125550095D01*
X161996285Y-125692952D01*
X162567714Y-126264380D01*
X161948666Y-126264380D01*
X161567714Y-125359619D02*
X161520095Y-125312000D01*
X161424857Y-125264380D01*
X161186761Y-125264380D01*
X161091523Y-125312000D01*
X161043904Y-125359619D01*
X160996285Y-125454857D01*
X160996285Y-125550095D01*
X161043904Y-125692952D01*
X161615333Y-126264380D01*
X160996285Y-126264380D01*
X160377238Y-125264380D02*
X160282000Y-125264380D01*
X160186761Y-125312000D01*
X160139142Y-125359619D01*
X160091523Y-125454857D01*
X160043904Y-125645333D01*
X160043904Y-125883428D01*
X160091523Y-126073904D01*
X160139142Y-126169142D01*
X160186761Y-126216761D01*
X160282000Y-126264380D01*
X160377238Y-126264380D01*
X160472476Y-126216761D01*
X160520095Y-126169142D01*
X160567714Y-126073904D01*
X160615333Y-125883428D01*
X160615333Y-125645333D01*
X160567714Y-125454857D01*
X160520095Y-125359619D01*
X160472476Y-125312000D01*
X160377238Y-125264380D01*
X159043904Y-126264380D02*
X159377238Y-125788190D01*
X159615333Y-126264380D02*
X159615333Y-125264380D01*
X159234380Y-125264380D01*
X159139142Y-125312000D01*
X159091523Y-125359619D01*
X159043904Y-125454857D01*
X159043904Y-125597714D01*
X159091523Y-125692952D01*
X159139142Y-125740571D01*
X159234380Y-125788190D01*
X159615333Y-125788190D01*
D12*
X161296285Y-128453904D02*
X161562952Y-128072952D01*
X161753428Y-128453904D02*
X161753428Y-127653904D01*
X161448666Y-127653904D01*
X161372476Y-127692000D01*
X161334380Y-127730095D01*
X161296285Y-127806285D01*
X161296285Y-127920571D01*
X161334380Y-127996761D01*
X161372476Y-128034857D01*
X161448666Y-128072952D01*
X161753428Y-128072952D01*
X160610571Y-127920571D02*
X160610571Y-128453904D01*
X160801047Y-127615809D02*
X160991523Y-128187238D01*
X160496285Y-128187238D01*
X159848666Y-127920571D02*
X159848666Y-128453904D01*
X160039142Y-127615809D02*
X160229619Y-128187238D01*
X159734380Y-128187238D01*
%TO.C,J7*%
D11*
X178906142Y-118562904D02*
X178953761Y-118515285D01*
X179001380Y-118372428D01*
X179001380Y-118277190D01*
X178953761Y-118134333D01*
X178858523Y-118039095D01*
X178763285Y-117991476D01*
X178572809Y-117943857D01*
X178429952Y-117943857D01*
X178239476Y-117991476D01*
X178144238Y-118039095D01*
X178049000Y-118134333D01*
X178001380Y-118277190D01*
X178001380Y-118372428D01*
X178049000Y-118515285D01*
X178096619Y-118562904D01*
X179001380Y-119134333D02*
X178953761Y-119039095D01*
X178906142Y-118991476D01*
X178810904Y-118943857D01*
X178525190Y-118943857D01*
X178429952Y-118991476D01*
X178382333Y-119039095D01*
X178334714Y-119134333D01*
X178334714Y-119277190D01*
X178382333Y-119372428D01*
X178429952Y-119420047D01*
X178525190Y-119467666D01*
X178810904Y-119467666D01*
X178906142Y-119420047D01*
X178953761Y-119372428D01*
X179001380Y-119277190D01*
X179001380Y-119134333D01*
X178334714Y-119896238D02*
X179001380Y-119896238D01*
X178429952Y-119896238D02*
X178382333Y-119943857D01*
X178334714Y-120039095D01*
X178334714Y-120181952D01*
X178382333Y-120277190D01*
X178477571Y-120324809D01*
X179001380Y-120324809D01*
X178334714Y-120801000D02*
X179001380Y-120801000D01*
X178429952Y-120801000D02*
X178382333Y-120848619D01*
X178334714Y-120943857D01*
X178334714Y-121086714D01*
X178382333Y-121181952D01*
X178477571Y-121229571D01*
X179001380Y-121229571D01*
X179096619Y-121467666D02*
X179096619Y-122229571D01*
X178001380Y-122658142D02*
X178001380Y-122753380D01*
X178049000Y-122848619D01*
X178096619Y-122896238D01*
X178191857Y-122943857D01*
X178382333Y-122991476D01*
X178620428Y-122991476D01*
X178810904Y-122943857D01*
X178906142Y-122896238D01*
X178953761Y-122848619D01*
X179001380Y-122753380D01*
X179001380Y-122658142D01*
X178953761Y-122562904D01*
X178906142Y-122515285D01*
X178810904Y-122467666D01*
X178620428Y-122420047D01*
X178382333Y-122420047D01*
X178191857Y-122467666D01*
X178096619Y-122515285D01*
X178049000Y-122562904D01*
X178001380Y-122658142D01*
X178096619Y-123372428D02*
X178049000Y-123420047D01*
X178001380Y-123515285D01*
X178001380Y-123753380D01*
X178049000Y-123848619D01*
X178096619Y-123896238D01*
X178191857Y-123943857D01*
X178287095Y-123943857D01*
X178429952Y-123896238D01*
X179001380Y-123324809D01*
X179001380Y-123943857D01*
X179001380Y-124277190D02*
X178334714Y-124801000D01*
X178334714Y-124277190D02*
X179001380Y-124801000D01*
X178001380Y-125372428D02*
X178001380Y-125467666D01*
X178049000Y-125562904D01*
X178096619Y-125610523D01*
X178191857Y-125658142D01*
X178382333Y-125705761D01*
X178620428Y-125705761D01*
X178810904Y-125658142D01*
X178906142Y-125610523D01*
X178953761Y-125562904D01*
X179001380Y-125467666D01*
X179001380Y-125372428D01*
X178953761Y-125277190D01*
X178906142Y-125229571D01*
X178810904Y-125181952D01*
X178620428Y-125134333D01*
X178382333Y-125134333D01*
X178191857Y-125181952D01*
X178096619Y-125229571D01*
X178049000Y-125277190D01*
X178001380Y-125372428D01*
X179001380Y-126658142D02*
X179001380Y-126086714D01*
X179001380Y-126372428D02*
X178001380Y-126372428D01*
X178144238Y-126277190D01*
X178239476Y-126181952D01*
X178287095Y-126086714D01*
X172921380Y-121967666D02*
X173635666Y-121967666D01*
X173778523Y-121920047D01*
X173873761Y-121824809D01*
X173921380Y-121681952D01*
X173921380Y-121586714D01*
X172921380Y-122348619D02*
X172921380Y-123015285D01*
X173921380Y-122586714D01*
%TO.C,J6*%
X178906142Y-129357904D02*
X178953761Y-129310285D01*
X179001380Y-129167428D01*
X179001380Y-129072190D01*
X178953761Y-128929333D01*
X178858523Y-128834095D01*
X178763285Y-128786476D01*
X178572809Y-128738857D01*
X178429952Y-128738857D01*
X178239476Y-128786476D01*
X178144238Y-128834095D01*
X178049000Y-128929333D01*
X178001380Y-129072190D01*
X178001380Y-129167428D01*
X178049000Y-129310285D01*
X178096619Y-129357904D01*
X179001380Y-129929333D02*
X178953761Y-129834095D01*
X178906142Y-129786476D01*
X178810904Y-129738857D01*
X178525190Y-129738857D01*
X178429952Y-129786476D01*
X178382333Y-129834095D01*
X178334714Y-129929333D01*
X178334714Y-130072190D01*
X178382333Y-130167428D01*
X178429952Y-130215047D01*
X178525190Y-130262666D01*
X178810904Y-130262666D01*
X178906142Y-130215047D01*
X178953761Y-130167428D01*
X179001380Y-130072190D01*
X179001380Y-129929333D01*
X178334714Y-130691238D02*
X179001380Y-130691238D01*
X178429952Y-130691238D02*
X178382333Y-130738857D01*
X178334714Y-130834095D01*
X178334714Y-130976952D01*
X178382333Y-131072190D01*
X178477571Y-131119809D01*
X179001380Y-131119809D01*
X178334714Y-131596000D02*
X179001380Y-131596000D01*
X178429952Y-131596000D02*
X178382333Y-131643619D01*
X178334714Y-131738857D01*
X178334714Y-131881714D01*
X178382333Y-131976952D01*
X178477571Y-132024571D01*
X179001380Y-132024571D01*
X179096619Y-132262666D02*
X179096619Y-133024571D01*
X178001380Y-133453142D02*
X178001380Y-133548380D01*
X178049000Y-133643619D01*
X178096619Y-133691238D01*
X178191857Y-133738857D01*
X178382333Y-133786476D01*
X178620428Y-133786476D01*
X178810904Y-133738857D01*
X178906142Y-133691238D01*
X178953761Y-133643619D01*
X179001380Y-133548380D01*
X179001380Y-133453142D01*
X178953761Y-133357904D01*
X178906142Y-133310285D01*
X178810904Y-133262666D01*
X178620428Y-133215047D01*
X178382333Y-133215047D01*
X178191857Y-133262666D01*
X178096619Y-133310285D01*
X178049000Y-133357904D01*
X178001380Y-133453142D01*
X178096619Y-134167428D02*
X178049000Y-134215047D01*
X178001380Y-134310285D01*
X178001380Y-134548380D01*
X178049000Y-134643619D01*
X178096619Y-134691238D01*
X178191857Y-134738857D01*
X178287095Y-134738857D01*
X178429952Y-134691238D01*
X179001380Y-134119809D01*
X179001380Y-134738857D01*
X179001380Y-135072190D02*
X178334714Y-135596000D01*
X178334714Y-135072190D02*
X179001380Y-135596000D01*
X178001380Y-136167428D02*
X178001380Y-136262666D01*
X178049000Y-136357904D01*
X178096619Y-136405523D01*
X178191857Y-136453142D01*
X178382333Y-136500761D01*
X178620428Y-136500761D01*
X178810904Y-136453142D01*
X178906142Y-136405523D01*
X178953761Y-136357904D01*
X179001380Y-136262666D01*
X179001380Y-136167428D01*
X178953761Y-136072190D01*
X178906142Y-136024571D01*
X178810904Y-135976952D01*
X178620428Y-135929333D01*
X178382333Y-135929333D01*
X178191857Y-135976952D01*
X178096619Y-136024571D01*
X178049000Y-136072190D01*
X178001380Y-136167428D01*
X179001380Y-137453142D02*
X179001380Y-136881714D01*
X179001380Y-137167428D02*
X178001380Y-137167428D01*
X178144238Y-137072190D01*
X178239476Y-136976952D01*
X178287095Y-136881714D01*
X172921380Y-132762666D02*
X173635666Y-132762666D01*
X173778523Y-132715047D01*
X173873761Y-132619809D01*
X173921380Y-132476952D01*
X173921380Y-132381714D01*
X172921380Y-133667428D02*
X172921380Y-133476952D01*
X172969000Y-133381714D01*
X173016619Y-133334095D01*
X173159476Y-133238857D01*
X173349952Y-133191238D01*
X173730904Y-133191238D01*
X173826142Y-133238857D01*
X173873761Y-133286476D01*
X173921380Y-133381714D01*
X173921380Y-133572190D01*
X173873761Y-133667428D01*
X173826142Y-133715047D01*
X173730904Y-133762666D01*
X173492809Y-133762666D01*
X173397571Y-133715047D01*
X173349952Y-133667428D01*
X173302333Y-133572190D01*
X173302333Y-133381714D01*
X173349952Y-133286476D01*
X173397571Y-133238857D01*
X173492809Y-133191238D01*
%TO.C,U5*%
X153939238Y-90069380D02*
X153939238Y-89069380D01*
X153605904Y-89783666D01*
X153272571Y-89069380D01*
X153272571Y-90069380D01*
X152224952Y-89974142D02*
X152272571Y-90021761D01*
X152415428Y-90069380D01*
X152510666Y-90069380D01*
X152653523Y-90021761D01*
X152748761Y-89926523D01*
X152796380Y-89831285D01*
X152844000Y-89640809D01*
X152844000Y-89497952D01*
X152796380Y-89307476D01*
X152748761Y-89212238D01*
X152653523Y-89117000D01*
X152510666Y-89069380D01*
X152415428Y-89069380D01*
X152272571Y-89117000D01*
X152224952Y-89164619D01*
X151796380Y-90069380D02*
X151796380Y-89069380D01*
X151415428Y-89069380D01*
X151320190Y-89117000D01*
X151272571Y-89164619D01*
X151224952Y-89259857D01*
X151224952Y-89402714D01*
X151272571Y-89497952D01*
X151320190Y-89545571D01*
X151415428Y-89593190D01*
X151796380Y-89593190D01*
X150844000Y-89164619D02*
X150796380Y-89117000D01*
X150701142Y-89069380D01*
X150463047Y-89069380D01*
X150367809Y-89117000D01*
X150320190Y-89164619D01*
X150272571Y-89259857D01*
X150272571Y-89355095D01*
X150320190Y-89497952D01*
X150891619Y-90069380D01*
X150272571Y-90069380D01*
X149939238Y-89069380D02*
X149320190Y-89069380D01*
X149653523Y-89450333D01*
X149510666Y-89450333D01*
X149415428Y-89497952D01*
X149367809Y-89545571D01*
X149320190Y-89640809D01*
X149320190Y-89878904D01*
X149367809Y-89974142D01*
X149415428Y-90021761D01*
X149510666Y-90069380D01*
X149796380Y-90069380D01*
X149891619Y-90021761D01*
X149939238Y-89974142D01*
X148701142Y-89069380D02*
X148605904Y-89069380D01*
X148510666Y-89117000D01*
X148463047Y-89164619D01*
X148415428Y-89259857D01*
X148367809Y-89450333D01*
X148367809Y-89688428D01*
X148415428Y-89878904D01*
X148463047Y-89974142D01*
X148510666Y-90021761D01*
X148605904Y-90069380D01*
X148701142Y-90069380D01*
X148796380Y-90021761D01*
X148844000Y-89974142D01*
X148891619Y-89878904D01*
X148939238Y-89688428D01*
X148939238Y-89450333D01*
X148891619Y-89259857D01*
X148844000Y-89164619D01*
X148796380Y-89117000D01*
X148701142Y-89069380D01*
X147415428Y-90069380D02*
X147986857Y-90069380D01*
X147701142Y-90069380D02*
X147701142Y-89069380D01*
X147796380Y-89212238D01*
X147891619Y-89307476D01*
X147986857Y-89355095D01*
X147082095Y-89069380D02*
X146415428Y-89069380D01*
X146844000Y-90069380D01*
X146272571Y-90164619D02*
X145510666Y-90164619D01*
X145320190Y-90021761D02*
X145177333Y-90069380D01*
X144939238Y-90069380D01*
X144844000Y-90021761D01*
X144796380Y-89974142D01*
X144748761Y-89878904D01*
X144748761Y-89783666D01*
X144796380Y-89688428D01*
X144844000Y-89640809D01*
X144939238Y-89593190D01*
X145129714Y-89545571D01*
X145224952Y-89497952D01*
X145272571Y-89450333D01*
X145320190Y-89355095D01*
X145320190Y-89259857D01*
X145272571Y-89164619D01*
X145224952Y-89117000D01*
X145129714Y-89069380D01*
X144891619Y-89069380D01*
X144748761Y-89117000D01*
X144129714Y-89069380D02*
X143939238Y-89069380D01*
X143844000Y-89117000D01*
X143748761Y-89212238D01*
X143701142Y-89402714D01*
X143701142Y-89736047D01*
X143748761Y-89926523D01*
X143844000Y-90021761D01*
X143939238Y-90069380D01*
X144129714Y-90069380D01*
X144224952Y-90021761D01*
X144320190Y-89926523D01*
X144367809Y-89736047D01*
X144367809Y-89402714D01*
X144320190Y-89212238D01*
X144224952Y-89117000D01*
X144129714Y-89069380D01*
X149605904Y-98969380D02*
X149605904Y-99778904D01*
X149558285Y-99874142D01*
X149510666Y-99921761D01*
X149415428Y-99969380D01*
X149224952Y-99969380D01*
X149129714Y-99921761D01*
X149082095Y-99874142D01*
X149034476Y-99778904D01*
X149034476Y-98969380D01*
X148082095Y-98969380D02*
X148558285Y-98969380D01*
X148605904Y-99445571D01*
X148558285Y-99397952D01*
X148463047Y-99350333D01*
X148224952Y-99350333D01*
X148129714Y-99397952D01*
X148082095Y-99445571D01*
X148034476Y-99540809D01*
X148034476Y-99778904D01*
X148082095Y-99874142D01*
X148129714Y-99921761D01*
X148224952Y-99969380D01*
X148463047Y-99969380D01*
X148558285Y-99921761D01*
X148605904Y-99874142D01*
%TO.C,U4*%
X132349238Y-90069380D02*
X132349238Y-89069380D01*
X132015904Y-89783666D01*
X131682571Y-89069380D01*
X131682571Y-90069380D01*
X130634952Y-89974142D02*
X130682571Y-90021761D01*
X130825428Y-90069380D01*
X130920666Y-90069380D01*
X131063523Y-90021761D01*
X131158761Y-89926523D01*
X131206380Y-89831285D01*
X131254000Y-89640809D01*
X131254000Y-89497952D01*
X131206380Y-89307476D01*
X131158761Y-89212238D01*
X131063523Y-89117000D01*
X130920666Y-89069380D01*
X130825428Y-89069380D01*
X130682571Y-89117000D01*
X130634952Y-89164619D01*
X130206380Y-90069380D02*
X130206380Y-89069380D01*
X129825428Y-89069380D01*
X129730190Y-89117000D01*
X129682571Y-89164619D01*
X129634952Y-89259857D01*
X129634952Y-89402714D01*
X129682571Y-89497952D01*
X129730190Y-89545571D01*
X129825428Y-89593190D01*
X130206380Y-89593190D01*
X129254000Y-89164619D02*
X129206380Y-89117000D01*
X129111142Y-89069380D01*
X128873047Y-89069380D01*
X128777809Y-89117000D01*
X128730190Y-89164619D01*
X128682571Y-89259857D01*
X128682571Y-89355095D01*
X128730190Y-89497952D01*
X129301619Y-90069380D01*
X128682571Y-90069380D01*
X128349238Y-89069380D02*
X127730190Y-89069380D01*
X128063523Y-89450333D01*
X127920666Y-89450333D01*
X127825428Y-89497952D01*
X127777809Y-89545571D01*
X127730190Y-89640809D01*
X127730190Y-89878904D01*
X127777809Y-89974142D01*
X127825428Y-90021761D01*
X127920666Y-90069380D01*
X128206380Y-90069380D01*
X128301619Y-90021761D01*
X128349238Y-89974142D01*
X127111142Y-89069380D02*
X127015904Y-89069380D01*
X126920666Y-89117000D01*
X126873047Y-89164619D01*
X126825428Y-89259857D01*
X126777809Y-89450333D01*
X126777809Y-89688428D01*
X126825428Y-89878904D01*
X126873047Y-89974142D01*
X126920666Y-90021761D01*
X127015904Y-90069380D01*
X127111142Y-90069380D01*
X127206380Y-90021761D01*
X127254000Y-89974142D01*
X127301619Y-89878904D01*
X127349238Y-89688428D01*
X127349238Y-89450333D01*
X127301619Y-89259857D01*
X127254000Y-89164619D01*
X127206380Y-89117000D01*
X127111142Y-89069380D01*
X125825428Y-90069380D02*
X126396857Y-90069380D01*
X126111142Y-90069380D02*
X126111142Y-89069380D01*
X126206380Y-89212238D01*
X126301619Y-89307476D01*
X126396857Y-89355095D01*
X125492095Y-89069380D02*
X124825428Y-89069380D01*
X125254000Y-90069380D01*
X124682571Y-90164619D02*
X123920666Y-90164619D01*
X123730190Y-90021761D02*
X123587333Y-90069380D01*
X123349238Y-90069380D01*
X123254000Y-90021761D01*
X123206380Y-89974142D01*
X123158761Y-89878904D01*
X123158761Y-89783666D01*
X123206380Y-89688428D01*
X123254000Y-89640809D01*
X123349238Y-89593190D01*
X123539714Y-89545571D01*
X123634952Y-89497952D01*
X123682571Y-89450333D01*
X123730190Y-89355095D01*
X123730190Y-89259857D01*
X123682571Y-89164619D01*
X123634952Y-89117000D01*
X123539714Y-89069380D01*
X123301619Y-89069380D01*
X123158761Y-89117000D01*
X122539714Y-89069380D02*
X122349238Y-89069380D01*
X122254000Y-89117000D01*
X122158761Y-89212238D01*
X122111142Y-89402714D01*
X122111142Y-89736047D01*
X122158761Y-89926523D01*
X122254000Y-90021761D01*
X122349238Y-90069380D01*
X122539714Y-90069380D01*
X122634952Y-90021761D01*
X122730190Y-89926523D01*
X122777809Y-89736047D01*
X122777809Y-89402714D01*
X122730190Y-89212238D01*
X122634952Y-89117000D01*
X122539714Y-89069380D01*
X128015904Y-98969380D02*
X128015904Y-99778904D01*
X127968285Y-99874142D01*
X127920666Y-99921761D01*
X127825428Y-99969380D01*
X127634952Y-99969380D01*
X127539714Y-99921761D01*
X127492095Y-99874142D01*
X127444476Y-99778904D01*
X127444476Y-98969380D01*
X126539714Y-99302714D02*
X126539714Y-99969380D01*
X126777809Y-98921761D02*
X127015904Y-99636047D01*
X126396857Y-99636047D01*
%TO.C,U3*%
X109489238Y-90069380D02*
X109489238Y-89069380D01*
X109155904Y-89783666D01*
X108822571Y-89069380D01*
X108822571Y-90069380D01*
X107774952Y-89974142D02*
X107822571Y-90021761D01*
X107965428Y-90069380D01*
X108060666Y-90069380D01*
X108203523Y-90021761D01*
X108298761Y-89926523D01*
X108346380Y-89831285D01*
X108394000Y-89640809D01*
X108394000Y-89497952D01*
X108346380Y-89307476D01*
X108298761Y-89212238D01*
X108203523Y-89117000D01*
X108060666Y-89069380D01*
X107965428Y-89069380D01*
X107822571Y-89117000D01*
X107774952Y-89164619D01*
X107346380Y-90069380D02*
X107346380Y-89069380D01*
X106965428Y-89069380D01*
X106870190Y-89117000D01*
X106822571Y-89164619D01*
X106774952Y-89259857D01*
X106774952Y-89402714D01*
X106822571Y-89497952D01*
X106870190Y-89545571D01*
X106965428Y-89593190D01*
X107346380Y-89593190D01*
X106394000Y-89164619D02*
X106346380Y-89117000D01*
X106251142Y-89069380D01*
X106013047Y-89069380D01*
X105917809Y-89117000D01*
X105870190Y-89164619D01*
X105822571Y-89259857D01*
X105822571Y-89355095D01*
X105870190Y-89497952D01*
X106441619Y-90069380D01*
X105822571Y-90069380D01*
X105489238Y-89069380D02*
X104870190Y-89069380D01*
X105203523Y-89450333D01*
X105060666Y-89450333D01*
X104965428Y-89497952D01*
X104917809Y-89545571D01*
X104870190Y-89640809D01*
X104870190Y-89878904D01*
X104917809Y-89974142D01*
X104965428Y-90021761D01*
X105060666Y-90069380D01*
X105346380Y-90069380D01*
X105441619Y-90021761D01*
X105489238Y-89974142D01*
X104251142Y-89069380D02*
X104155904Y-89069380D01*
X104060666Y-89117000D01*
X104013047Y-89164619D01*
X103965428Y-89259857D01*
X103917809Y-89450333D01*
X103917809Y-89688428D01*
X103965428Y-89878904D01*
X104013047Y-89974142D01*
X104060666Y-90021761D01*
X104155904Y-90069380D01*
X104251142Y-90069380D01*
X104346380Y-90021761D01*
X104394000Y-89974142D01*
X104441619Y-89878904D01*
X104489238Y-89688428D01*
X104489238Y-89450333D01*
X104441619Y-89259857D01*
X104394000Y-89164619D01*
X104346380Y-89117000D01*
X104251142Y-89069380D01*
X102965428Y-90069380D02*
X103536857Y-90069380D01*
X103251142Y-90069380D02*
X103251142Y-89069380D01*
X103346380Y-89212238D01*
X103441619Y-89307476D01*
X103536857Y-89355095D01*
X102632095Y-89069380D02*
X101965428Y-89069380D01*
X102394000Y-90069380D01*
X101822571Y-90164619D02*
X101060666Y-90164619D01*
X100870190Y-90021761D02*
X100727333Y-90069380D01*
X100489238Y-90069380D01*
X100394000Y-90021761D01*
X100346380Y-89974142D01*
X100298761Y-89878904D01*
X100298761Y-89783666D01*
X100346380Y-89688428D01*
X100394000Y-89640809D01*
X100489238Y-89593190D01*
X100679714Y-89545571D01*
X100774952Y-89497952D01*
X100822571Y-89450333D01*
X100870190Y-89355095D01*
X100870190Y-89259857D01*
X100822571Y-89164619D01*
X100774952Y-89117000D01*
X100679714Y-89069380D01*
X100441619Y-89069380D01*
X100298761Y-89117000D01*
X99679714Y-89069380D02*
X99489238Y-89069380D01*
X99394000Y-89117000D01*
X99298761Y-89212238D01*
X99251142Y-89402714D01*
X99251142Y-89736047D01*
X99298761Y-89926523D01*
X99394000Y-90021761D01*
X99489238Y-90069380D01*
X99679714Y-90069380D01*
X99774952Y-90021761D01*
X99870190Y-89926523D01*
X99917809Y-89736047D01*
X99917809Y-89402714D01*
X99870190Y-89212238D01*
X99774952Y-89117000D01*
X99679714Y-89069380D01*
X105155904Y-98969380D02*
X105155904Y-99778904D01*
X105108285Y-99874142D01*
X105060666Y-99921761D01*
X104965428Y-99969380D01*
X104774952Y-99969380D01*
X104679714Y-99921761D01*
X104632095Y-99874142D01*
X104584476Y-99778904D01*
X104584476Y-98969380D01*
X104203523Y-98969380D02*
X103584476Y-98969380D01*
X103917809Y-99350333D01*
X103774952Y-99350333D01*
X103679714Y-99397952D01*
X103632095Y-99445571D01*
X103584476Y-99540809D01*
X103584476Y-99778904D01*
X103632095Y-99874142D01*
X103679714Y-99921761D01*
X103774952Y-99969380D01*
X104060666Y-99969380D01*
X104155904Y-99921761D01*
X104203523Y-99874142D01*
%TO.C,U2*%
X87899238Y-90069380D02*
X87899238Y-89069380D01*
X87565904Y-89783666D01*
X87232571Y-89069380D01*
X87232571Y-90069380D01*
X86184952Y-89974142D02*
X86232571Y-90021761D01*
X86375428Y-90069380D01*
X86470666Y-90069380D01*
X86613523Y-90021761D01*
X86708761Y-89926523D01*
X86756380Y-89831285D01*
X86804000Y-89640809D01*
X86804000Y-89497952D01*
X86756380Y-89307476D01*
X86708761Y-89212238D01*
X86613523Y-89117000D01*
X86470666Y-89069380D01*
X86375428Y-89069380D01*
X86232571Y-89117000D01*
X86184952Y-89164619D01*
X85756380Y-90069380D02*
X85756380Y-89069380D01*
X85375428Y-89069380D01*
X85280190Y-89117000D01*
X85232571Y-89164619D01*
X85184952Y-89259857D01*
X85184952Y-89402714D01*
X85232571Y-89497952D01*
X85280190Y-89545571D01*
X85375428Y-89593190D01*
X85756380Y-89593190D01*
X84804000Y-89164619D02*
X84756380Y-89117000D01*
X84661142Y-89069380D01*
X84423047Y-89069380D01*
X84327809Y-89117000D01*
X84280190Y-89164619D01*
X84232571Y-89259857D01*
X84232571Y-89355095D01*
X84280190Y-89497952D01*
X84851619Y-90069380D01*
X84232571Y-90069380D01*
X83899238Y-89069380D02*
X83280190Y-89069380D01*
X83613523Y-89450333D01*
X83470666Y-89450333D01*
X83375428Y-89497952D01*
X83327809Y-89545571D01*
X83280190Y-89640809D01*
X83280190Y-89878904D01*
X83327809Y-89974142D01*
X83375428Y-90021761D01*
X83470666Y-90069380D01*
X83756380Y-90069380D01*
X83851619Y-90021761D01*
X83899238Y-89974142D01*
X82661142Y-89069380D02*
X82565904Y-89069380D01*
X82470666Y-89117000D01*
X82423047Y-89164619D01*
X82375428Y-89259857D01*
X82327809Y-89450333D01*
X82327809Y-89688428D01*
X82375428Y-89878904D01*
X82423047Y-89974142D01*
X82470666Y-90021761D01*
X82565904Y-90069380D01*
X82661142Y-90069380D01*
X82756380Y-90021761D01*
X82804000Y-89974142D01*
X82851619Y-89878904D01*
X82899238Y-89688428D01*
X82899238Y-89450333D01*
X82851619Y-89259857D01*
X82804000Y-89164619D01*
X82756380Y-89117000D01*
X82661142Y-89069380D01*
X81375428Y-90069380D02*
X81946857Y-90069380D01*
X81661142Y-90069380D02*
X81661142Y-89069380D01*
X81756380Y-89212238D01*
X81851619Y-89307476D01*
X81946857Y-89355095D01*
X81042095Y-89069380D02*
X80375428Y-89069380D01*
X80804000Y-90069380D01*
X80232571Y-90164619D02*
X79470666Y-90164619D01*
X79280190Y-90021761D02*
X79137333Y-90069380D01*
X78899238Y-90069380D01*
X78804000Y-90021761D01*
X78756380Y-89974142D01*
X78708761Y-89878904D01*
X78708761Y-89783666D01*
X78756380Y-89688428D01*
X78804000Y-89640809D01*
X78899238Y-89593190D01*
X79089714Y-89545571D01*
X79184952Y-89497952D01*
X79232571Y-89450333D01*
X79280190Y-89355095D01*
X79280190Y-89259857D01*
X79232571Y-89164619D01*
X79184952Y-89117000D01*
X79089714Y-89069380D01*
X78851619Y-89069380D01*
X78708761Y-89117000D01*
X78089714Y-89069380D02*
X77899238Y-89069380D01*
X77804000Y-89117000D01*
X77708761Y-89212238D01*
X77661142Y-89402714D01*
X77661142Y-89736047D01*
X77708761Y-89926523D01*
X77804000Y-90021761D01*
X77899238Y-90069380D01*
X78089714Y-90069380D01*
X78184952Y-90021761D01*
X78280190Y-89926523D01*
X78327809Y-89736047D01*
X78327809Y-89402714D01*
X78280190Y-89212238D01*
X78184952Y-89117000D01*
X78089714Y-89069380D01*
X83565904Y-98969380D02*
X83565904Y-99778904D01*
X83518285Y-99874142D01*
X83470666Y-99921761D01*
X83375428Y-99969380D01*
X83184952Y-99969380D01*
X83089714Y-99921761D01*
X83042095Y-99874142D01*
X82994476Y-99778904D01*
X82994476Y-98969380D01*
X82565904Y-99064619D02*
X82518285Y-99017000D01*
X82423047Y-98969380D01*
X82184952Y-98969380D01*
X82089714Y-99017000D01*
X82042095Y-99064619D01*
X81994476Y-99159857D01*
X81994476Y-99255095D01*
X82042095Y-99397952D01*
X82613523Y-99969380D01*
X81994476Y-99969380D01*
%TO.C,U1*%
X66309238Y-90069380D02*
X66309238Y-89069380D01*
X65975904Y-89783666D01*
X65642571Y-89069380D01*
X65642571Y-90069380D01*
X64594952Y-89974142D02*
X64642571Y-90021761D01*
X64785428Y-90069380D01*
X64880666Y-90069380D01*
X65023523Y-90021761D01*
X65118761Y-89926523D01*
X65166380Y-89831285D01*
X65214000Y-89640809D01*
X65214000Y-89497952D01*
X65166380Y-89307476D01*
X65118761Y-89212238D01*
X65023523Y-89117000D01*
X64880666Y-89069380D01*
X64785428Y-89069380D01*
X64642571Y-89117000D01*
X64594952Y-89164619D01*
X64166380Y-90069380D02*
X64166380Y-89069380D01*
X63785428Y-89069380D01*
X63690190Y-89117000D01*
X63642571Y-89164619D01*
X63594952Y-89259857D01*
X63594952Y-89402714D01*
X63642571Y-89497952D01*
X63690190Y-89545571D01*
X63785428Y-89593190D01*
X64166380Y-89593190D01*
X63214000Y-89164619D02*
X63166380Y-89117000D01*
X63071142Y-89069380D01*
X62833047Y-89069380D01*
X62737809Y-89117000D01*
X62690190Y-89164619D01*
X62642571Y-89259857D01*
X62642571Y-89355095D01*
X62690190Y-89497952D01*
X63261619Y-90069380D01*
X62642571Y-90069380D01*
X62309238Y-89069380D02*
X61690190Y-89069380D01*
X62023523Y-89450333D01*
X61880666Y-89450333D01*
X61785428Y-89497952D01*
X61737809Y-89545571D01*
X61690190Y-89640809D01*
X61690190Y-89878904D01*
X61737809Y-89974142D01*
X61785428Y-90021761D01*
X61880666Y-90069380D01*
X62166380Y-90069380D01*
X62261619Y-90021761D01*
X62309238Y-89974142D01*
X61071142Y-89069380D02*
X60975904Y-89069380D01*
X60880666Y-89117000D01*
X60833047Y-89164619D01*
X60785428Y-89259857D01*
X60737809Y-89450333D01*
X60737809Y-89688428D01*
X60785428Y-89878904D01*
X60833047Y-89974142D01*
X60880666Y-90021761D01*
X60975904Y-90069380D01*
X61071142Y-90069380D01*
X61166380Y-90021761D01*
X61214000Y-89974142D01*
X61261619Y-89878904D01*
X61309238Y-89688428D01*
X61309238Y-89450333D01*
X61261619Y-89259857D01*
X61214000Y-89164619D01*
X61166380Y-89117000D01*
X61071142Y-89069380D01*
X59785428Y-90069380D02*
X60356857Y-90069380D01*
X60071142Y-90069380D02*
X60071142Y-89069380D01*
X60166380Y-89212238D01*
X60261619Y-89307476D01*
X60356857Y-89355095D01*
X59452095Y-89069380D02*
X58785428Y-89069380D01*
X59214000Y-90069380D01*
X58642571Y-90164619D02*
X57880666Y-90164619D01*
X57690190Y-90021761D02*
X57547333Y-90069380D01*
X57309238Y-90069380D01*
X57214000Y-90021761D01*
X57166380Y-89974142D01*
X57118761Y-89878904D01*
X57118761Y-89783666D01*
X57166380Y-89688428D01*
X57214000Y-89640809D01*
X57309238Y-89593190D01*
X57499714Y-89545571D01*
X57594952Y-89497952D01*
X57642571Y-89450333D01*
X57690190Y-89355095D01*
X57690190Y-89259857D01*
X57642571Y-89164619D01*
X57594952Y-89117000D01*
X57499714Y-89069380D01*
X57261619Y-89069380D01*
X57118761Y-89117000D01*
X56499714Y-89069380D02*
X56309238Y-89069380D01*
X56214000Y-89117000D01*
X56118761Y-89212238D01*
X56071142Y-89402714D01*
X56071142Y-89736047D01*
X56118761Y-89926523D01*
X56214000Y-90021761D01*
X56309238Y-90069380D01*
X56499714Y-90069380D01*
X56594952Y-90021761D01*
X56690190Y-89926523D01*
X56737809Y-89736047D01*
X56737809Y-89402714D01*
X56690190Y-89212238D01*
X56594952Y-89117000D01*
X56499714Y-89069380D01*
X61975904Y-98969380D02*
X61975904Y-99778904D01*
X61928285Y-99874142D01*
X61880666Y-99921761D01*
X61785428Y-99969380D01*
X61594952Y-99969380D01*
X61499714Y-99921761D01*
X61452095Y-99874142D01*
X61404476Y-99778904D01*
X61404476Y-98969380D01*
X60404476Y-99969380D02*
X60975904Y-99969380D01*
X60690190Y-99969380D02*
X60690190Y-98969380D01*
X60785428Y-99112238D01*
X60880666Y-99207476D01*
X60975904Y-99255095D01*
%TO.C,SW100*%
X50095828Y-30937961D02*
X49952971Y-30985580D01*
X49714876Y-30985580D01*
X49619638Y-30937961D01*
X49572019Y-30890342D01*
X49524400Y-30795104D01*
X49524400Y-30699866D01*
X49572019Y-30604628D01*
X49619638Y-30557009D01*
X49714876Y-30509390D01*
X49905352Y-30461771D01*
X50000590Y-30414152D01*
X50048209Y-30366533D01*
X50095828Y-30271295D01*
X50095828Y-30176057D01*
X50048209Y-30080819D01*
X50000590Y-30033200D01*
X49905352Y-29985580D01*
X49667257Y-29985580D01*
X49524400Y-30033200D01*
X49191066Y-29985580D02*
X48952971Y-30985580D01*
X48762495Y-30271295D01*
X48572019Y-30985580D01*
X48333923Y-29985580D01*
X48191066Y-31080819D02*
X47429161Y-31080819D01*
X47191066Y-30985580D02*
X47191066Y-29985580D01*
X46857733Y-30699866D01*
X46524400Y-29985580D01*
X46524400Y-30985580D01*
X46048209Y-30461771D02*
X45714876Y-30461771D01*
X45572019Y-30985580D02*
X46048209Y-30985580D01*
X46048209Y-29985580D01*
X45572019Y-29985580D01*
X44572019Y-30890342D02*
X44619638Y-30937961D01*
X44762495Y-30985580D01*
X44857733Y-30985580D01*
X45000590Y-30937961D01*
X45095828Y-30842723D01*
X45143447Y-30747485D01*
X45191066Y-30557009D01*
X45191066Y-30414152D01*
X45143447Y-30223676D01*
X45095828Y-30128438D01*
X45000590Y-30033200D01*
X44857733Y-29985580D01*
X44762495Y-29985580D01*
X44619638Y-30033200D01*
X44572019Y-30080819D01*
X44381542Y-31080819D02*
X43619638Y-31080819D01*
X42905352Y-29985580D02*
X43381542Y-29985580D01*
X43429161Y-30461771D01*
X43381542Y-30414152D01*
X43286304Y-30366533D01*
X43048209Y-30366533D01*
X42952971Y-30414152D01*
X42905352Y-30461771D01*
X42857733Y-30557009D01*
X42857733Y-30795104D01*
X42905352Y-30890342D01*
X42952971Y-30937961D01*
X43048209Y-30985580D01*
X43286304Y-30985580D01*
X43381542Y-30937961D01*
X43429161Y-30890342D01*
X42429161Y-30461771D02*
X42095828Y-30461771D01*
X41952971Y-30985580D02*
X42429161Y-30985580D01*
X42429161Y-29985580D01*
X41952971Y-29985580D01*
X48360114Y-35187961D02*
X48217257Y-35235580D01*
X47979161Y-35235580D01*
X47883923Y-35187961D01*
X47836304Y-35140342D01*
X47788685Y-35045104D01*
X47788685Y-34949866D01*
X47836304Y-34854628D01*
X47883923Y-34807009D01*
X47979161Y-34759390D01*
X48169638Y-34711771D01*
X48264876Y-34664152D01*
X48312495Y-34616533D01*
X48360114Y-34521295D01*
X48360114Y-34426057D01*
X48312495Y-34330819D01*
X48264876Y-34283200D01*
X48169638Y-34235580D01*
X47931542Y-34235580D01*
X47788685Y-34283200D01*
X47455352Y-34235580D02*
X47217257Y-35235580D01*
X47026780Y-34521295D01*
X46836304Y-35235580D01*
X46598209Y-34235580D01*
X45693447Y-35235580D02*
X46264876Y-35235580D01*
X45979161Y-35235580D02*
X45979161Y-34235580D01*
X46074400Y-34378438D01*
X46169638Y-34473676D01*
X46264876Y-34521295D01*
X45074400Y-34235580D02*
X44979161Y-34235580D01*
X44883923Y-34283200D01*
X44836304Y-34330819D01*
X44788685Y-34426057D01*
X44741066Y-34616533D01*
X44741066Y-34854628D01*
X44788685Y-35045104D01*
X44836304Y-35140342D01*
X44883923Y-35187961D01*
X44979161Y-35235580D01*
X45074400Y-35235580D01*
X45169638Y-35187961D01*
X45217257Y-35140342D01*
X45264876Y-35045104D01*
X45312495Y-34854628D01*
X45312495Y-34616533D01*
X45264876Y-34426057D01*
X45217257Y-34330819D01*
X45169638Y-34283200D01*
X45074400Y-34235580D01*
X44122019Y-34235580D02*
X44026780Y-34235580D01*
X43931542Y-34283200D01*
X43883923Y-34330819D01*
X43836304Y-34426057D01*
X43788685Y-34616533D01*
X43788685Y-34854628D01*
X43836304Y-35045104D01*
X43883923Y-35140342D01*
X43931542Y-35187961D01*
X44026780Y-35235580D01*
X44122019Y-35235580D01*
X44217257Y-35187961D01*
X44264876Y-35140342D01*
X44312495Y-35045104D01*
X44360114Y-34854628D01*
X44360114Y-34616533D01*
X44312495Y-34426057D01*
X44264876Y-34330819D01*
X44217257Y-34283200D01*
X44122019Y-34235580D01*
%TO.C,R43*%
X45864714Y-204046095D02*
X46531380Y-204046095D01*
X45483761Y-203808000D02*
X46198047Y-203569904D01*
X46198047Y-204188952D01*
X45531380Y-204474666D02*
X45531380Y-205141333D01*
X46531380Y-204712761D01*
X45531380Y-205712761D02*
X45531380Y-205808000D01*
X45579000Y-205903238D01*
X45626619Y-205950857D01*
X45721857Y-205998476D01*
X45912333Y-206046095D01*
X46150428Y-206046095D01*
X46340904Y-205998476D01*
X46436142Y-205950857D01*
X46483761Y-205903238D01*
X46531380Y-205808000D01*
X46531380Y-205712761D01*
X46483761Y-205617523D01*
X46436142Y-205569904D01*
X46340904Y-205522285D01*
X46150428Y-205474666D01*
X45912333Y-205474666D01*
X45721857Y-205522285D01*
X45626619Y-205569904D01*
X45579000Y-205617523D01*
X45531380Y-205712761D01*
X46531380Y-207046095D02*
X46055190Y-206712761D01*
X46531380Y-206474666D02*
X45531380Y-206474666D01*
X45531380Y-206855619D01*
X45579000Y-206950857D01*
X45626619Y-206998476D01*
X45721857Y-207046095D01*
X45864714Y-207046095D01*
X45959952Y-206998476D01*
X46007571Y-206950857D01*
X46055190Y-206855619D01*
X46055190Y-206474666D01*
D12*
X44620904Y-204793714D02*
X44239952Y-204527047D01*
X44620904Y-204336571D02*
X43820904Y-204336571D01*
X43820904Y-204641333D01*
X43859000Y-204717523D01*
X43897095Y-204755619D01*
X43973285Y-204793714D01*
X44087571Y-204793714D01*
X44163761Y-204755619D01*
X44201857Y-204717523D01*
X44239952Y-204641333D01*
X44239952Y-204336571D01*
X44087571Y-205479428D02*
X44620904Y-205479428D01*
X43782809Y-205288952D02*
X44354238Y-205098476D01*
X44354238Y-205593714D01*
X43820904Y-205822285D02*
X43820904Y-206317523D01*
X44125666Y-206050857D01*
X44125666Y-206165142D01*
X44163761Y-206241333D01*
X44201857Y-206279428D01*
X44278047Y-206317523D01*
X44468523Y-206317523D01*
X44544714Y-206279428D01*
X44582809Y-206241333D01*
X44620904Y-206165142D01*
X44620904Y-205936571D01*
X44582809Y-205860380D01*
X44544714Y-205822285D01*
%TO.C,R42*%
D11*
X166552904Y-190657714D02*
X166552904Y-191324380D01*
X166791000Y-190276761D02*
X167029095Y-190991047D01*
X166410047Y-190991047D01*
X166124333Y-190324380D02*
X165457666Y-190324380D01*
X165886238Y-191324380D01*
X164886238Y-190324380D02*
X164791000Y-190324380D01*
X164695761Y-190372000D01*
X164648142Y-190419619D01*
X164600523Y-190514857D01*
X164552904Y-190705333D01*
X164552904Y-190943428D01*
X164600523Y-191133904D01*
X164648142Y-191229142D01*
X164695761Y-191276761D01*
X164791000Y-191324380D01*
X164886238Y-191324380D01*
X164981476Y-191276761D01*
X165029095Y-191229142D01*
X165076714Y-191133904D01*
X165124333Y-190943428D01*
X165124333Y-190705333D01*
X165076714Y-190514857D01*
X165029095Y-190419619D01*
X164981476Y-190372000D01*
X164886238Y-190324380D01*
X163552904Y-191324380D02*
X163886238Y-190848190D01*
X164124333Y-191324380D02*
X164124333Y-190324380D01*
X163743380Y-190324380D01*
X163648142Y-190372000D01*
X163600523Y-190419619D01*
X163552904Y-190514857D01*
X163552904Y-190657714D01*
X163600523Y-190752952D01*
X163648142Y-190800571D01*
X163743380Y-190848190D01*
X164124333Y-190848190D01*
D12*
X165805285Y-189413904D02*
X166071952Y-189032952D01*
X166262428Y-189413904D02*
X166262428Y-188613904D01*
X165957666Y-188613904D01*
X165881476Y-188652000D01*
X165843380Y-188690095D01*
X165805285Y-188766285D01*
X165805285Y-188880571D01*
X165843380Y-188956761D01*
X165881476Y-188994857D01*
X165957666Y-189032952D01*
X166262428Y-189032952D01*
X165119571Y-188880571D02*
X165119571Y-189413904D01*
X165310047Y-188575809D02*
X165500523Y-189147238D01*
X165005285Y-189147238D01*
X164738619Y-188690095D02*
X164700523Y-188652000D01*
X164624333Y-188613904D01*
X164433857Y-188613904D01*
X164357666Y-188652000D01*
X164319571Y-188690095D01*
X164281476Y-188766285D01*
X164281476Y-188842476D01*
X164319571Y-188956761D01*
X164776714Y-189413904D01*
X164281476Y-189413904D01*
%TO.C,R41*%
D11*
X45928714Y-186076095D02*
X46595380Y-186076095D01*
X45547761Y-185838000D02*
X46262047Y-185599904D01*
X46262047Y-186218952D01*
X45595380Y-186504666D02*
X45595380Y-187171333D01*
X46595380Y-186742761D01*
X45595380Y-187742761D02*
X45595380Y-187838000D01*
X45643000Y-187933238D01*
X45690619Y-187980857D01*
X45785857Y-188028476D01*
X45976333Y-188076095D01*
X46214428Y-188076095D01*
X46404904Y-188028476D01*
X46500142Y-187980857D01*
X46547761Y-187933238D01*
X46595380Y-187838000D01*
X46595380Y-187742761D01*
X46547761Y-187647523D01*
X46500142Y-187599904D01*
X46404904Y-187552285D01*
X46214428Y-187504666D01*
X45976333Y-187504666D01*
X45785857Y-187552285D01*
X45690619Y-187599904D01*
X45643000Y-187647523D01*
X45595380Y-187742761D01*
X46595380Y-189076095D02*
X46119190Y-188742761D01*
X46595380Y-188504666D02*
X45595380Y-188504666D01*
X45595380Y-188885619D01*
X45643000Y-188980857D01*
X45690619Y-189028476D01*
X45785857Y-189076095D01*
X45928714Y-189076095D01*
X46023952Y-189028476D01*
X46071571Y-188980857D01*
X46119190Y-188885619D01*
X46119190Y-188504666D01*
D12*
X44684904Y-186823714D02*
X44303952Y-186557047D01*
X44684904Y-186366571D02*
X43884904Y-186366571D01*
X43884904Y-186671333D01*
X43923000Y-186747523D01*
X43961095Y-186785619D01*
X44037285Y-186823714D01*
X44151571Y-186823714D01*
X44227761Y-186785619D01*
X44265857Y-186747523D01*
X44303952Y-186671333D01*
X44303952Y-186366571D01*
X44151571Y-187509428D02*
X44684904Y-187509428D01*
X43846809Y-187318952D02*
X44418238Y-187128476D01*
X44418238Y-187623714D01*
X44684904Y-188347523D02*
X44684904Y-187890380D01*
X44684904Y-188118952D02*
X43884904Y-188118952D01*
X43999190Y-188042761D01*
X44075380Y-187966571D01*
X44113476Y-187890380D01*
%TO.C,R40*%
D11*
X106354904Y-31823914D02*
X106354904Y-32490580D01*
X106593000Y-31442961D02*
X106831095Y-32157247D01*
X106212047Y-32157247D01*
X105926333Y-31490580D02*
X105259666Y-31490580D01*
X105688238Y-32490580D01*
X104688238Y-31490580D02*
X104593000Y-31490580D01*
X104497761Y-31538200D01*
X104450142Y-31585819D01*
X104402523Y-31681057D01*
X104354904Y-31871533D01*
X104354904Y-32109628D01*
X104402523Y-32300104D01*
X104450142Y-32395342D01*
X104497761Y-32442961D01*
X104593000Y-32490580D01*
X104688238Y-32490580D01*
X104783476Y-32442961D01*
X104831095Y-32395342D01*
X104878714Y-32300104D01*
X104926333Y-32109628D01*
X104926333Y-31871533D01*
X104878714Y-31681057D01*
X104831095Y-31585819D01*
X104783476Y-31538200D01*
X104688238Y-31490580D01*
X103354904Y-32490580D02*
X103688238Y-32014390D01*
X103926333Y-32490580D02*
X103926333Y-31490580D01*
X103545380Y-31490580D01*
X103450142Y-31538200D01*
X103402523Y-31585819D01*
X103354904Y-31681057D01*
X103354904Y-31823914D01*
X103402523Y-31919152D01*
X103450142Y-31966771D01*
X103545380Y-32014390D01*
X103926333Y-32014390D01*
D12*
X105607285Y-34220104D02*
X105873952Y-33839152D01*
X106064428Y-34220104D02*
X106064428Y-33420104D01*
X105759666Y-33420104D01*
X105683476Y-33458200D01*
X105645380Y-33496295D01*
X105607285Y-33572485D01*
X105607285Y-33686771D01*
X105645380Y-33762961D01*
X105683476Y-33801057D01*
X105759666Y-33839152D01*
X106064428Y-33839152D01*
X104921571Y-33686771D02*
X104921571Y-34220104D01*
X105112047Y-33382009D02*
X105302523Y-33953438D01*
X104807285Y-33953438D01*
X104350142Y-33420104D02*
X104273952Y-33420104D01*
X104197761Y-33458200D01*
X104159666Y-33496295D01*
X104121571Y-33572485D01*
X104083476Y-33724866D01*
X104083476Y-33915342D01*
X104121571Y-34067723D01*
X104159666Y-34143914D01*
X104197761Y-34182009D01*
X104273952Y-34220104D01*
X104350142Y-34220104D01*
X104426333Y-34182009D01*
X104464428Y-34143914D01*
X104502523Y-34067723D01*
X104540619Y-33915342D01*
X104540619Y-33724866D01*
X104502523Y-33572485D01*
X104464428Y-33496295D01*
X104426333Y-33458200D01*
X104350142Y-33420104D01*
%TO.C,R39*%
D11*
X91558904Y-31823914D02*
X91558904Y-32490580D01*
X91797000Y-31442961D02*
X92035095Y-32157247D01*
X91416047Y-32157247D01*
X91130333Y-31490580D02*
X90463666Y-31490580D01*
X90892238Y-32490580D01*
X89892238Y-31490580D02*
X89797000Y-31490580D01*
X89701761Y-31538200D01*
X89654142Y-31585819D01*
X89606523Y-31681057D01*
X89558904Y-31871533D01*
X89558904Y-32109628D01*
X89606523Y-32300104D01*
X89654142Y-32395342D01*
X89701761Y-32442961D01*
X89797000Y-32490580D01*
X89892238Y-32490580D01*
X89987476Y-32442961D01*
X90035095Y-32395342D01*
X90082714Y-32300104D01*
X90130333Y-32109628D01*
X90130333Y-31871533D01*
X90082714Y-31681057D01*
X90035095Y-31585819D01*
X89987476Y-31538200D01*
X89892238Y-31490580D01*
X88558904Y-32490580D02*
X88892238Y-32014390D01*
X89130333Y-32490580D02*
X89130333Y-31490580D01*
X88749380Y-31490580D01*
X88654142Y-31538200D01*
X88606523Y-31585819D01*
X88558904Y-31681057D01*
X88558904Y-31823914D01*
X88606523Y-31919152D01*
X88654142Y-31966771D01*
X88749380Y-32014390D01*
X89130333Y-32014390D01*
D12*
X90811285Y-34220104D02*
X91077952Y-33839152D01*
X91268428Y-34220104D02*
X91268428Y-33420104D01*
X90963666Y-33420104D01*
X90887476Y-33458200D01*
X90849380Y-33496295D01*
X90811285Y-33572485D01*
X90811285Y-33686771D01*
X90849380Y-33762961D01*
X90887476Y-33801057D01*
X90963666Y-33839152D01*
X91268428Y-33839152D01*
X90544619Y-33420104D02*
X90049380Y-33420104D01*
X90316047Y-33724866D01*
X90201761Y-33724866D01*
X90125571Y-33762961D01*
X90087476Y-33801057D01*
X90049380Y-33877247D01*
X90049380Y-34067723D01*
X90087476Y-34143914D01*
X90125571Y-34182009D01*
X90201761Y-34220104D01*
X90430333Y-34220104D01*
X90506523Y-34182009D01*
X90544619Y-34143914D01*
X89668428Y-34220104D02*
X89516047Y-34220104D01*
X89439857Y-34182009D01*
X89401761Y-34143914D01*
X89325571Y-34029628D01*
X89287476Y-33877247D01*
X89287476Y-33572485D01*
X89325571Y-33496295D01*
X89363666Y-33458200D01*
X89439857Y-33420104D01*
X89592238Y-33420104D01*
X89668428Y-33458200D01*
X89706523Y-33496295D01*
X89744619Y-33572485D01*
X89744619Y-33762961D01*
X89706523Y-33839152D01*
X89668428Y-33877247D01*
X89592238Y-33915342D01*
X89439857Y-33915342D01*
X89363666Y-33877247D01*
X89325571Y-33839152D01*
X89287476Y-33762961D01*
%TO.C,R38*%
D11*
X136452904Y-31823914D02*
X136452904Y-32490580D01*
X136691000Y-31442961D02*
X136929095Y-32157247D01*
X136310047Y-32157247D01*
X136024333Y-31490580D02*
X135357666Y-31490580D01*
X135786238Y-32490580D01*
X134786238Y-31490580D02*
X134691000Y-31490580D01*
X134595761Y-31538200D01*
X134548142Y-31585819D01*
X134500523Y-31681057D01*
X134452904Y-31871533D01*
X134452904Y-32109628D01*
X134500523Y-32300104D01*
X134548142Y-32395342D01*
X134595761Y-32442961D01*
X134691000Y-32490580D01*
X134786238Y-32490580D01*
X134881476Y-32442961D01*
X134929095Y-32395342D01*
X134976714Y-32300104D01*
X135024333Y-32109628D01*
X135024333Y-31871533D01*
X134976714Y-31681057D01*
X134929095Y-31585819D01*
X134881476Y-31538200D01*
X134786238Y-31490580D01*
X133452904Y-32490580D02*
X133786238Y-32014390D01*
X134024333Y-32490580D02*
X134024333Y-31490580D01*
X133643380Y-31490580D01*
X133548142Y-31538200D01*
X133500523Y-31585819D01*
X133452904Y-31681057D01*
X133452904Y-31823914D01*
X133500523Y-31919152D01*
X133548142Y-31966771D01*
X133643380Y-32014390D01*
X134024333Y-32014390D01*
D12*
X135705285Y-34220104D02*
X135971952Y-33839152D01*
X136162428Y-34220104D02*
X136162428Y-33420104D01*
X135857666Y-33420104D01*
X135781476Y-33458200D01*
X135743380Y-33496295D01*
X135705285Y-33572485D01*
X135705285Y-33686771D01*
X135743380Y-33762961D01*
X135781476Y-33801057D01*
X135857666Y-33839152D01*
X136162428Y-33839152D01*
X135438619Y-33420104D02*
X134943380Y-33420104D01*
X135210047Y-33724866D01*
X135095761Y-33724866D01*
X135019571Y-33762961D01*
X134981476Y-33801057D01*
X134943380Y-33877247D01*
X134943380Y-34067723D01*
X134981476Y-34143914D01*
X135019571Y-34182009D01*
X135095761Y-34220104D01*
X135324333Y-34220104D01*
X135400523Y-34182009D01*
X135438619Y-34143914D01*
X134486238Y-33762961D02*
X134562428Y-33724866D01*
X134600523Y-33686771D01*
X134638619Y-33610580D01*
X134638619Y-33572485D01*
X134600523Y-33496295D01*
X134562428Y-33458200D01*
X134486238Y-33420104D01*
X134333857Y-33420104D01*
X134257666Y-33458200D01*
X134219571Y-33496295D01*
X134181476Y-33572485D01*
X134181476Y-33610580D01*
X134219571Y-33686771D01*
X134257666Y-33724866D01*
X134333857Y-33762961D01*
X134486238Y-33762961D01*
X134562428Y-33801057D01*
X134600523Y-33839152D01*
X134638619Y-33915342D01*
X134638619Y-34067723D01*
X134600523Y-34143914D01*
X134562428Y-34182009D01*
X134486238Y-34220104D01*
X134333857Y-34220104D01*
X134257666Y-34182009D01*
X134219571Y-34143914D01*
X134181476Y-34067723D01*
X134181476Y-33915342D01*
X134219571Y-33839152D01*
X134257666Y-33801057D01*
X134333857Y-33762961D01*
%TO.C,R37*%
D11*
X76254904Y-31823914D02*
X76254904Y-32490580D01*
X76493000Y-31442961D02*
X76731095Y-32157247D01*
X76112047Y-32157247D01*
X75826333Y-31490580D02*
X75159666Y-31490580D01*
X75588238Y-32490580D01*
X74588238Y-31490580D02*
X74493000Y-31490580D01*
X74397761Y-31538200D01*
X74350142Y-31585819D01*
X74302523Y-31681057D01*
X74254904Y-31871533D01*
X74254904Y-32109628D01*
X74302523Y-32300104D01*
X74350142Y-32395342D01*
X74397761Y-32442961D01*
X74493000Y-32490580D01*
X74588238Y-32490580D01*
X74683476Y-32442961D01*
X74731095Y-32395342D01*
X74778714Y-32300104D01*
X74826333Y-32109628D01*
X74826333Y-31871533D01*
X74778714Y-31681057D01*
X74731095Y-31585819D01*
X74683476Y-31538200D01*
X74588238Y-31490580D01*
X73254904Y-32490580D02*
X73588238Y-32014390D01*
X73826333Y-32490580D02*
X73826333Y-31490580D01*
X73445380Y-31490580D01*
X73350142Y-31538200D01*
X73302523Y-31585819D01*
X73254904Y-31681057D01*
X73254904Y-31823914D01*
X73302523Y-31919152D01*
X73350142Y-31966771D01*
X73445380Y-32014390D01*
X73826333Y-32014390D01*
D12*
X75507285Y-34220104D02*
X75773952Y-33839152D01*
X75964428Y-34220104D02*
X75964428Y-33420104D01*
X75659666Y-33420104D01*
X75583476Y-33458200D01*
X75545380Y-33496295D01*
X75507285Y-33572485D01*
X75507285Y-33686771D01*
X75545380Y-33762961D01*
X75583476Y-33801057D01*
X75659666Y-33839152D01*
X75964428Y-33839152D01*
X75240619Y-33420104D02*
X74745380Y-33420104D01*
X75012047Y-33724866D01*
X74897761Y-33724866D01*
X74821571Y-33762961D01*
X74783476Y-33801057D01*
X74745380Y-33877247D01*
X74745380Y-34067723D01*
X74783476Y-34143914D01*
X74821571Y-34182009D01*
X74897761Y-34220104D01*
X75126333Y-34220104D01*
X75202523Y-34182009D01*
X75240619Y-34143914D01*
X74478714Y-33420104D02*
X73945380Y-33420104D01*
X74288238Y-34220104D01*
%TO.C,R36*%
D11*
X65396904Y-187319714D02*
X65396904Y-187986380D01*
X65635000Y-186938761D02*
X65873095Y-187653047D01*
X65254047Y-187653047D01*
X64968333Y-186986380D02*
X64301666Y-186986380D01*
X64730238Y-187986380D01*
X63730238Y-186986380D02*
X63635000Y-186986380D01*
X63539761Y-187034000D01*
X63492142Y-187081619D01*
X63444523Y-187176857D01*
X63396904Y-187367333D01*
X63396904Y-187605428D01*
X63444523Y-187795904D01*
X63492142Y-187891142D01*
X63539761Y-187938761D01*
X63635000Y-187986380D01*
X63730238Y-187986380D01*
X63825476Y-187938761D01*
X63873095Y-187891142D01*
X63920714Y-187795904D01*
X63968333Y-187605428D01*
X63968333Y-187367333D01*
X63920714Y-187176857D01*
X63873095Y-187081619D01*
X63825476Y-187034000D01*
X63730238Y-186986380D01*
X62396904Y-187986380D02*
X62730238Y-187510190D01*
X62968333Y-187986380D02*
X62968333Y-186986380D01*
X62587380Y-186986380D01*
X62492142Y-187034000D01*
X62444523Y-187081619D01*
X62396904Y-187176857D01*
X62396904Y-187319714D01*
X62444523Y-187414952D01*
X62492142Y-187462571D01*
X62587380Y-187510190D01*
X62968333Y-187510190D01*
D12*
X64649285Y-190175904D02*
X64915952Y-189794952D01*
X65106428Y-190175904D02*
X65106428Y-189375904D01*
X64801666Y-189375904D01*
X64725476Y-189414000D01*
X64687380Y-189452095D01*
X64649285Y-189528285D01*
X64649285Y-189642571D01*
X64687380Y-189718761D01*
X64725476Y-189756857D01*
X64801666Y-189794952D01*
X65106428Y-189794952D01*
X64382619Y-189375904D02*
X63887380Y-189375904D01*
X64154047Y-189680666D01*
X64039761Y-189680666D01*
X63963571Y-189718761D01*
X63925476Y-189756857D01*
X63887380Y-189833047D01*
X63887380Y-190023523D01*
X63925476Y-190099714D01*
X63963571Y-190137809D01*
X64039761Y-190175904D01*
X64268333Y-190175904D01*
X64344523Y-190137809D01*
X64382619Y-190099714D01*
X63201666Y-189375904D02*
X63354047Y-189375904D01*
X63430238Y-189414000D01*
X63468333Y-189452095D01*
X63544523Y-189566380D01*
X63582619Y-189718761D01*
X63582619Y-190023523D01*
X63544523Y-190099714D01*
X63506428Y-190137809D01*
X63430238Y-190175904D01*
X63277857Y-190175904D01*
X63201666Y-190137809D01*
X63163571Y-190099714D01*
X63125476Y-190023523D01*
X63125476Y-189833047D01*
X63163571Y-189756857D01*
X63201666Y-189718761D01*
X63277857Y-189680666D01*
X63430238Y-189680666D01*
X63506428Y-189718761D01*
X63544523Y-189756857D01*
X63582619Y-189833047D01*
%TO.C,R35*%
D11*
X66000095Y-174127619D02*
X65952476Y-174080000D01*
X65857238Y-174032380D01*
X65619142Y-174032380D01*
X65523904Y-174080000D01*
X65476285Y-174127619D01*
X65428666Y-174222857D01*
X65428666Y-174318095D01*
X65476285Y-174460952D01*
X66047714Y-175032380D01*
X65428666Y-175032380D01*
X65047714Y-174127619D02*
X65000095Y-174080000D01*
X64904857Y-174032380D01*
X64666761Y-174032380D01*
X64571523Y-174080000D01*
X64523904Y-174127619D01*
X64476285Y-174222857D01*
X64476285Y-174318095D01*
X64523904Y-174460952D01*
X65095333Y-175032380D01*
X64476285Y-175032380D01*
X63857238Y-174032380D02*
X63762000Y-174032380D01*
X63666761Y-174080000D01*
X63619142Y-174127619D01*
X63571523Y-174222857D01*
X63523904Y-174413333D01*
X63523904Y-174651428D01*
X63571523Y-174841904D01*
X63619142Y-174937142D01*
X63666761Y-174984761D01*
X63762000Y-175032380D01*
X63857238Y-175032380D01*
X63952476Y-174984761D01*
X64000095Y-174937142D01*
X64047714Y-174841904D01*
X64095333Y-174651428D01*
X64095333Y-174413333D01*
X64047714Y-174222857D01*
X64000095Y-174127619D01*
X63952476Y-174080000D01*
X63857238Y-174032380D01*
X62523904Y-175032380D02*
X62857238Y-174556190D01*
X63095333Y-175032380D02*
X63095333Y-174032380D01*
X62714380Y-174032380D01*
X62619142Y-174080000D01*
X62571523Y-174127619D01*
X62523904Y-174222857D01*
X62523904Y-174365714D01*
X62571523Y-174460952D01*
X62619142Y-174508571D01*
X62714380Y-174556190D01*
X63095333Y-174556190D01*
D12*
X64776285Y-177221904D02*
X65042952Y-176840952D01*
X65233428Y-177221904D02*
X65233428Y-176421904D01*
X64928666Y-176421904D01*
X64852476Y-176460000D01*
X64814380Y-176498095D01*
X64776285Y-176574285D01*
X64776285Y-176688571D01*
X64814380Y-176764761D01*
X64852476Y-176802857D01*
X64928666Y-176840952D01*
X65233428Y-176840952D01*
X64509619Y-176421904D02*
X64014380Y-176421904D01*
X64281047Y-176726666D01*
X64166761Y-176726666D01*
X64090571Y-176764761D01*
X64052476Y-176802857D01*
X64014380Y-176879047D01*
X64014380Y-177069523D01*
X64052476Y-177145714D01*
X64090571Y-177183809D01*
X64166761Y-177221904D01*
X64395333Y-177221904D01*
X64471523Y-177183809D01*
X64509619Y-177145714D01*
X63290571Y-176421904D02*
X63671523Y-176421904D01*
X63709619Y-176802857D01*
X63671523Y-176764761D01*
X63595333Y-176726666D01*
X63404857Y-176726666D01*
X63328666Y-176764761D01*
X63290571Y-176802857D01*
X63252476Y-176879047D01*
X63252476Y-177069523D01*
X63290571Y-177145714D01*
X63328666Y-177183809D01*
X63404857Y-177221904D01*
X63595333Y-177221904D01*
X63671523Y-177183809D01*
X63709619Y-177145714D01*
%TO.C,R34*%
D11*
X166901095Y-234135619D02*
X166853476Y-234088000D01*
X166758238Y-234040380D01*
X166520142Y-234040380D01*
X166424904Y-234088000D01*
X166377285Y-234135619D01*
X166329666Y-234230857D01*
X166329666Y-234326095D01*
X166377285Y-234468952D01*
X166948714Y-235040380D01*
X166329666Y-235040380D01*
X165948714Y-234135619D02*
X165901095Y-234088000D01*
X165805857Y-234040380D01*
X165567761Y-234040380D01*
X165472523Y-234088000D01*
X165424904Y-234135619D01*
X165377285Y-234230857D01*
X165377285Y-234326095D01*
X165424904Y-234468952D01*
X165996333Y-235040380D01*
X165377285Y-235040380D01*
X164758238Y-234040380D02*
X164663000Y-234040380D01*
X164567761Y-234088000D01*
X164520142Y-234135619D01*
X164472523Y-234230857D01*
X164424904Y-234421333D01*
X164424904Y-234659428D01*
X164472523Y-234849904D01*
X164520142Y-234945142D01*
X164567761Y-234992761D01*
X164663000Y-235040380D01*
X164758238Y-235040380D01*
X164853476Y-234992761D01*
X164901095Y-234945142D01*
X164948714Y-234849904D01*
X164996333Y-234659428D01*
X164996333Y-234421333D01*
X164948714Y-234230857D01*
X164901095Y-234135619D01*
X164853476Y-234088000D01*
X164758238Y-234040380D01*
X163424904Y-235040380D02*
X163758238Y-234564190D01*
X163996333Y-235040380D02*
X163996333Y-234040380D01*
X163615380Y-234040380D01*
X163520142Y-234088000D01*
X163472523Y-234135619D01*
X163424904Y-234230857D01*
X163424904Y-234373714D01*
X163472523Y-234468952D01*
X163520142Y-234516571D01*
X163615380Y-234564190D01*
X163996333Y-234564190D01*
D12*
X165677285Y-237229904D02*
X165943952Y-236848952D01*
X166134428Y-237229904D02*
X166134428Y-236429904D01*
X165829666Y-236429904D01*
X165753476Y-236468000D01*
X165715380Y-236506095D01*
X165677285Y-236582285D01*
X165677285Y-236696571D01*
X165715380Y-236772761D01*
X165753476Y-236810857D01*
X165829666Y-236848952D01*
X166134428Y-236848952D01*
X165410619Y-236429904D02*
X164915380Y-236429904D01*
X165182047Y-236734666D01*
X165067761Y-236734666D01*
X164991571Y-236772761D01*
X164953476Y-236810857D01*
X164915380Y-236887047D01*
X164915380Y-237077523D01*
X164953476Y-237153714D01*
X164991571Y-237191809D01*
X165067761Y-237229904D01*
X165296333Y-237229904D01*
X165372523Y-237191809D01*
X165410619Y-237153714D01*
X164229666Y-236696571D02*
X164229666Y-237229904D01*
X164420142Y-236391809D02*
X164610619Y-236963238D01*
X164115380Y-236963238D01*
%TO.C,R33*%
D11*
X121372095Y-234198619D02*
X121324476Y-234151000D01*
X121229238Y-234103380D01*
X120991142Y-234103380D01*
X120895904Y-234151000D01*
X120848285Y-234198619D01*
X120800666Y-234293857D01*
X120800666Y-234389095D01*
X120848285Y-234531952D01*
X121419714Y-235103380D01*
X120800666Y-235103380D01*
X120419714Y-234198619D02*
X120372095Y-234151000D01*
X120276857Y-234103380D01*
X120038761Y-234103380D01*
X119943523Y-234151000D01*
X119895904Y-234198619D01*
X119848285Y-234293857D01*
X119848285Y-234389095D01*
X119895904Y-234531952D01*
X120467333Y-235103380D01*
X119848285Y-235103380D01*
X119229238Y-234103380D02*
X119134000Y-234103380D01*
X119038761Y-234151000D01*
X118991142Y-234198619D01*
X118943523Y-234293857D01*
X118895904Y-234484333D01*
X118895904Y-234722428D01*
X118943523Y-234912904D01*
X118991142Y-235008142D01*
X119038761Y-235055761D01*
X119134000Y-235103380D01*
X119229238Y-235103380D01*
X119324476Y-235055761D01*
X119372095Y-235008142D01*
X119419714Y-234912904D01*
X119467333Y-234722428D01*
X119467333Y-234484333D01*
X119419714Y-234293857D01*
X119372095Y-234198619D01*
X119324476Y-234151000D01*
X119229238Y-234103380D01*
X117895904Y-235103380D02*
X118229238Y-234627190D01*
X118467333Y-235103380D02*
X118467333Y-234103380D01*
X118086380Y-234103380D01*
X117991142Y-234151000D01*
X117943523Y-234198619D01*
X117895904Y-234293857D01*
X117895904Y-234436714D01*
X117943523Y-234531952D01*
X117991142Y-234579571D01*
X118086380Y-234627190D01*
X118467333Y-234627190D01*
D12*
X120148285Y-237292904D02*
X120414952Y-236911952D01*
X120605428Y-237292904D02*
X120605428Y-236492904D01*
X120300666Y-236492904D01*
X120224476Y-236531000D01*
X120186380Y-236569095D01*
X120148285Y-236645285D01*
X120148285Y-236759571D01*
X120186380Y-236835761D01*
X120224476Y-236873857D01*
X120300666Y-236911952D01*
X120605428Y-236911952D01*
X119881619Y-236492904D02*
X119386380Y-236492904D01*
X119653047Y-236797666D01*
X119538761Y-236797666D01*
X119462571Y-236835761D01*
X119424476Y-236873857D01*
X119386380Y-236950047D01*
X119386380Y-237140523D01*
X119424476Y-237216714D01*
X119462571Y-237254809D01*
X119538761Y-237292904D01*
X119767333Y-237292904D01*
X119843523Y-237254809D01*
X119881619Y-237216714D01*
X119119714Y-236492904D02*
X118624476Y-236492904D01*
X118891142Y-236797666D01*
X118776857Y-236797666D01*
X118700666Y-236835761D01*
X118662571Y-236873857D01*
X118624476Y-236950047D01*
X118624476Y-237140523D01*
X118662571Y-237216714D01*
X118700666Y-237254809D01*
X118776857Y-237292904D01*
X119005428Y-237292904D01*
X119081619Y-237254809D01*
X119119714Y-237216714D01*
%TO.C,R32*%
D11*
X151344095Y-220165619D02*
X151296476Y-220118000D01*
X151201238Y-220070380D01*
X150963142Y-220070380D01*
X150867904Y-220118000D01*
X150820285Y-220165619D01*
X150772666Y-220260857D01*
X150772666Y-220356095D01*
X150820285Y-220498952D01*
X151391714Y-221070380D01*
X150772666Y-221070380D01*
X150391714Y-220165619D02*
X150344095Y-220118000D01*
X150248857Y-220070380D01*
X150010761Y-220070380D01*
X149915523Y-220118000D01*
X149867904Y-220165619D01*
X149820285Y-220260857D01*
X149820285Y-220356095D01*
X149867904Y-220498952D01*
X150439333Y-221070380D01*
X149820285Y-221070380D01*
X149201238Y-220070380D02*
X149106000Y-220070380D01*
X149010761Y-220118000D01*
X148963142Y-220165619D01*
X148915523Y-220260857D01*
X148867904Y-220451333D01*
X148867904Y-220689428D01*
X148915523Y-220879904D01*
X148963142Y-220975142D01*
X149010761Y-221022761D01*
X149106000Y-221070380D01*
X149201238Y-221070380D01*
X149296476Y-221022761D01*
X149344095Y-220975142D01*
X149391714Y-220879904D01*
X149439333Y-220689428D01*
X149439333Y-220451333D01*
X149391714Y-220260857D01*
X149344095Y-220165619D01*
X149296476Y-220118000D01*
X149201238Y-220070380D01*
X147867904Y-221070380D02*
X148201238Y-220594190D01*
X148439333Y-221070380D02*
X148439333Y-220070380D01*
X148058380Y-220070380D01*
X147963142Y-220118000D01*
X147915523Y-220165619D01*
X147867904Y-220260857D01*
X147867904Y-220403714D01*
X147915523Y-220498952D01*
X147963142Y-220546571D01*
X148058380Y-220594190D01*
X148439333Y-220594190D01*
D12*
X150120285Y-223259904D02*
X150386952Y-222878952D01*
X150577428Y-223259904D02*
X150577428Y-222459904D01*
X150272666Y-222459904D01*
X150196476Y-222498000D01*
X150158380Y-222536095D01*
X150120285Y-222612285D01*
X150120285Y-222726571D01*
X150158380Y-222802761D01*
X150196476Y-222840857D01*
X150272666Y-222878952D01*
X150577428Y-222878952D01*
X149853619Y-222459904D02*
X149358380Y-222459904D01*
X149625047Y-222764666D01*
X149510761Y-222764666D01*
X149434571Y-222802761D01*
X149396476Y-222840857D01*
X149358380Y-222917047D01*
X149358380Y-223107523D01*
X149396476Y-223183714D01*
X149434571Y-223221809D01*
X149510761Y-223259904D01*
X149739333Y-223259904D01*
X149815523Y-223221809D01*
X149853619Y-223183714D01*
X149053619Y-222536095D02*
X149015523Y-222498000D01*
X148939333Y-222459904D01*
X148748857Y-222459904D01*
X148672666Y-222498000D01*
X148634571Y-222536095D01*
X148596476Y-222612285D01*
X148596476Y-222688476D01*
X148634571Y-222802761D01*
X149091714Y-223259904D01*
X148596476Y-223259904D01*
%TO.C,R31*%
D11*
X106386095Y-220165619D02*
X106338476Y-220118000D01*
X106243238Y-220070380D01*
X106005142Y-220070380D01*
X105909904Y-220118000D01*
X105862285Y-220165619D01*
X105814666Y-220260857D01*
X105814666Y-220356095D01*
X105862285Y-220498952D01*
X106433714Y-221070380D01*
X105814666Y-221070380D01*
X105433714Y-220165619D02*
X105386095Y-220118000D01*
X105290857Y-220070380D01*
X105052761Y-220070380D01*
X104957523Y-220118000D01*
X104909904Y-220165619D01*
X104862285Y-220260857D01*
X104862285Y-220356095D01*
X104909904Y-220498952D01*
X105481333Y-221070380D01*
X104862285Y-221070380D01*
X104243238Y-220070380D02*
X104148000Y-220070380D01*
X104052761Y-220118000D01*
X104005142Y-220165619D01*
X103957523Y-220260857D01*
X103909904Y-220451333D01*
X103909904Y-220689428D01*
X103957523Y-220879904D01*
X104005142Y-220975142D01*
X104052761Y-221022761D01*
X104148000Y-221070380D01*
X104243238Y-221070380D01*
X104338476Y-221022761D01*
X104386095Y-220975142D01*
X104433714Y-220879904D01*
X104481333Y-220689428D01*
X104481333Y-220451333D01*
X104433714Y-220260857D01*
X104386095Y-220165619D01*
X104338476Y-220118000D01*
X104243238Y-220070380D01*
X102909904Y-221070380D02*
X103243238Y-220594190D01*
X103481333Y-221070380D02*
X103481333Y-220070380D01*
X103100380Y-220070380D01*
X103005142Y-220118000D01*
X102957523Y-220165619D01*
X102909904Y-220260857D01*
X102909904Y-220403714D01*
X102957523Y-220498952D01*
X103005142Y-220546571D01*
X103100380Y-220594190D01*
X103481333Y-220594190D01*
D12*
X105162285Y-223259904D02*
X105428952Y-222878952D01*
X105619428Y-223259904D02*
X105619428Y-222459904D01*
X105314666Y-222459904D01*
X105238476Y-222498000D01*
X105200380Y-222536095D01*
X105162285Y-222612285D01*
X105162285Y-222726571D01*
X105200380Y-222802761D01*
X105238476Y-222840857D01*
X105314666Y-222878952D01*
X105619428Y-222878952D01*
X104895619Y-222459904D02*
X104400380Y-222459904D01*
X104667047Y-222764666D01*
X104552761Y-222764666D01*
X104476571Y-222802761D01*
X104438476Y-222840857D01*
X104400380Y-222917047D01*
X104400380Y-223107523D01*
X104438476Y-223183714D01*
X104476571Y-223221809D01*
X104552761Y-223259904D01*
X104781333Y-223259904D01*
X104857523Y-223221809D01*
X104895619Y-223183714D01*
X103638476Y-223259904D02*
X104095619Y-223259904D01*
X103867047Y-223259904D02*
X103867047Y-222459904D01*
X103943238Y-222574190D01*
X104019428Y-222650380D01*
X104095619Y-222688476D01*
%TO.C,R30*%
D11*
X136358095Y-206131619D02*
X136310476Y-206084000D01*
X136215238Y-206036380D01*
X135977142Y-206036380D01*
X135881904Y-206084000D01*
X135834285Y-206131619D01*
X135786666Y-206226857D01*
X135786666Y-206322095D01*
X135834285Y-206464952D01*
X136405714Y-207036380D01*
X135786666Y-207036380D01*
X135405714Y-206131619D02*
X135358095Y-206084000D01*
X135262857Y-206036380D01*
X135024761Y-206036380D01*
X134929523Y-206084000D01*
X134881904Y-206131619D01*
X134834285Y-206226857D01*
X134834285Y-206322095D01*
X134881904Y-206464952D01*
X135453333Y-207036380D01*
X134834285Y-207036380D01*
X134215238Y-206036380D02*
X134120000Y-206036380D01*
X134024761Y-206084000D01*
X133977142Y-206131619D01*
X133929523Y-206226857D01*
X133881904Y-206417333D01*
X133881904Y-206655428D01*
X133929523Y-206845904D01*
X133977142Y-206941142D01*
X134024761Y-206988761D01*
X134120000Y-207036380D01*
X134215238Y-207036380D01*
X134310476Y-206988761D01*
X134358095Y-206941142D01*
X134405714Y-206845904D01*
X134453333Y-206655428D01*
X134453333Y-206417333D01*
X134405714Y-206226857D01*
X134358095Y-206131619D01*
X134310476Y-206084000D01*
X134215238Y-206036380D01*
X132881904Y-207036380D02*
X133215238Y-206560190D01*
X133453333Y-207036380D02*
X133453333Y-206036380D01*
X133072380Y-206036380D01*
X132977142Y-206084000D01*
X132929523Y-206131619D01*
X132881904Y-206226857D01*
X132881904Y-206369714D01*
X132929523Y-206464952D01*
X132977142Y-206512571D01*
X133072380Y-206560190D01*
X133453333Y-206560190D01*
D12*
X135134285Y-209225904D02*
X135400952Y-208844952D01*
X135591428Y-209225904D02*
X135591428Y-208425904D01*
X135286666Y-208425904D01*
X135210476Y-208464000D01*
X135172380Y-208502095D01*
X135134285Y-208578285D01*
X135134285Y-208692571D01*
X135172380Y-208768761D01*
X135210476Y-208806857D01*
X135286666Y-208844952D01*
X135591428Y-208844952D01*
X134867619Y-208425904D02*
X134372380Y-208425904D01*
X134639047Y-208730666D01*
X134524761Y-208730666D01*
X134448571Y-208768761D01*
X134410476Y-208806857D01*
X134372380Y-208883047D01*
X134372380Y-209073523D01*
X134410476Y-209149714D01*
X134448571Y-209187809D01*
X134524761Y-209225904D01*
X134753333Y-209225904D01*
X134829523Y-209187809D01*
X134867619Y-209149714D01*
X133877142Y-208425904D02*
X133800952Y-208425904D01*
X133724761Y-208464000D01*
X133686666Y-208502095D01*
X133648571Y-208578285D01*
X133610476Y-208730666D01*
X133610476Y-208921142D01*
X133648571Y-209073523D01*
X133686666Y-209149714D01*
X133724761Y-209187809D01*
X133800952Y-209225904D01*
X133877142Y-209225904D01*
X133953333Y-209187809D01*
X133991428Y-209149714D01*
X134029523Y-209073523D01*
X134067619Y-208921142D01*
X134067619Y-208730666D01*
X134029523Y-208578285D01*
X133991428Y-208502095D01*
X133953333Y-208464000D01*
X133877142Y-208425904D01*
%TO.C,R29*%
D11*
X166801095Y-191971619D02*
X166753476Y-191924000D01*
X166658238Y-191876380D01*
X166420142Y-191876380D01*
X166324904Y-191924000D01*
X166277285Y-191971619D01*
X166229666Y-192066857D01*
X166229666Y-192162095D01*
X166277285Y-192304952D01*
X166848714Y-192876380D01*
X166229666Y-192876380D01*
X165848714Y-191971619D02*
X165801095Y-191924000D01*
X165705857Y-191876380D01*
X165467761Y-191876380D01*
X165372523Y-191924000D01*
X165324904Y-191971619D01*
X165277285Y-192066857D01*
X165277285Y-192162095D01*
X165324904Y-192304952D01*
X165896333Y-192876380D01*
X165277285Y-192876380D01*
X164658238Y-191876380D02*
X164563000Y-191876380D01*
X164467761Y-191924000D01*
X164420142Y-191971619D01*
X164372523Y-192066857D01*
X164324904Y-192257333D01*
X164324904Y-192495428D01*
X164372523Y-192685904D01*
X164420142Y-192781142D01*
X164467761Y-192828761D01*
X164563000Y-192876380D01*
X164658238Y-192876380D01*
X164753476Y-192828761D01*
X164801095Y-192781142D01*
X164848714Y-192685904D01*
X164896333Y-192495428D01*
X164896333Y-192257333D01*
X164848714Y-192066857D01*
X164801095Y-191971619D01*
X164753476Y-191924000D01*
X164658238Y-191876380D01*
X163324904Y-192876380D02*
X163658238Y-192400190D01*
X163896333Y-192876380D02*
X163896333Y-191876380D01*
X163515380Y-191876380D01*
X163420142Y-191924000D01*
X163372523Y-191971619D01*
X163324904Y-192066857D01*
X163324904Y-192209714D01*
X163372523Y-192304952D01*
X163420142Y-192352571D01*
X163515380Y-192400190D01*
X163896333Y-192400190D01*
D12*
X165577285Y-195065904D02*
X165843952Y-194684952D01*
X166034428Y-195065904D02*
X166034428Y-194265904D01*
X165729666Y-194265904D01*
X165653476Y-194304000D01*
X165615380Y-194342095D01*
X165577285Y-194418285D01*
X165577285Y-194532571D01*
X165615380Y-194608761D01*
X165653476Y-194646857D01*
X165729666Y-194684952D01*
X166034428Y-194684952D01*
X165272523Y-194342095D02*
X165234428Y-194304000D01*
X165158238Y-194265904D01*
X164967761Y-194265904D01*
X164891571Y-194304000D01*
X164853476Y-194342095D01*
X164815380Y-194418285D01*
X164815380Y-194494476D01*
X164853476Y-194608761D01*
X165310619Y-195065904D01*
X164815380Y-195065904D01*
X164434428Y-195065904D02*
X164282047Y-195065904D01*
X164205857Y-195027809D01*
X164167761Y-194989714D01*
X164091571Y-194875428D01*
X164053476Y-194723047D01*
X164053476Y-194418285D01*
X164091571Y-194342095D01*
X164129666Y-194304000D01*
X164205857Y-194265904D01*
X164358238Y-194265904D01*
X164434428Y-194304000D01*
X164472523Y-194342095D01*
X164510619Y-194418285D01*
X164510619Y-194608761D01*
X164472523Y-194684952D01*
X164434428Y-194723047D01*
X164358238Y-194761142D01*
X164205857Y-194761142D01*
X164129666Y-194723047D01*
X164091571Y-194684952D01*
X164053476Y-194608761D01*
%TO.C,R28*%
D11*
X121372095Y-192225619D02*
X121324476Y-192178000D01*
X121229238Y-192130380D01*
X120991142Y-192130380D01*
X120895904Y-192178000D01*
X120848285Y-192225619D01*
X120800666Y-192320857D01*
X120800666Y-192416095D01*
X120848285Y-192558952D01*
X121419714Y-193130380D01*
X120800666Y-193130380D01*
X120419714Y-192225619D02*
X120372095Y-192178000D01*
X120276857Y-192130380D01*
X120038761Y-192130380D01*
X119943523Y-192178000D01*
X119895904Y-192225619D01*
X119848285Y-192320857D01*
X119848285Y-192416095D01*
X119895904Y-192558952D01*
X120467333Y-193130380D01*
X119848285Y-193130380D01*
X119229238Y-192130380D02*
X119134000Y-192130380D01*
X119038761Y-192178000D01*
X118991142Y-192225619D01*
X118943523Y-192320857D01*
X118895904Y-192511333D01*
X118895904Y-192749428D01*
X118943523Y-192939904D01*
X118991142Y-193035142D01*
X119038761Y-193082761D01*
X119134000Y-193130380D01*
X119229238Y-193130380D01*
X119324476Y-193082761D01*
X119372095Y-193035142D01*
X119419714Y-192939904D01*
X119467333Y-192749428D01*
X119467333Y-192511333D01*
X119419714Y-192320857D01*
X119372095Y-192225619D01*
X119324476Y-192178000D01*
X119229238Y-192130380D01*
X117895904Y-193130380D02*
X118229238Y-192654190D01*
X118467333Y-193130380D02*
X118467333Y-192130380D01*
X118086380Y-192130380D01*
X117991142Y-192178000D01*
X117943523Y-192225619D01*
X117895904Y-192320857D01*
X117895904Y-192463714D01*
X117943523Y-192558952D01*
X117991142Y-192606571D01*
X118086380Y-192654190D01*
X118467333Y-192654190D01*
D12*
X120148285Y-195319904D02*
X120414952Y-194938952D01*
X120605428Y-195319904D02*
X120605428Y-194519904D01*
X120300666Y-194519904D01*
X120224476Y-194558000D01*
X120186380Y-194596095D01*
X120148285Y-194672285D01*
X120148285Y-194786571D01*
X120186380Y-194862761D01*
X120224476Y-194900857D01*
X120300666Y-194938952D01*
X120605428Y-194938952D01*
X119843523Y-194596095D02*
X119805428Y-194558000D01*
X119729238Y-194519904D01*
X119538761Y-194519904D01*
X119462571Y-194558000D01*
X119424476Y-194596095D01*
X119386380Y-194672285D01*
X119386380Y-194748476D01*
X119424476Y-194862761D01*
X119881619Y-195319904D01*
X119386380Y-195319904D01*
X118929238Y-194862761D02*
X119005428Y-194824666D01*
X119043523Y-194786571D01*
X119081619Y-194710380D01*
X119081619Y-194672285D01*
X119043523Y-194596095D01*
X119005428Y-194558000D01*
X118929238Y-194519904D01*
X118776857Y-194519904D01*
X118700666Y-194558000D01*
X118662571Y-194596095D01*
X118624476Y-194672285D01*
X118624476Y-194710380D01*
X118662571Y-194786571D01*
X118700666Y-194824666D01*
X118776857Y-194862761D01*
X118929238Y-194862761D01*
X119005428Y-194900857D01*
X119043523Y-194938952D01*
X119081619Y-195015142D01*
X119081619Y-195167523D01*
X119043523Y-195243714D01*
X119005428Y-195281809D01*
X118929238Y-195319904D01*
X118776857Y-195319904D01*
X118700666Y-195281809D01*
X118662571Y-195243714D01*
X118624476Y-195167523D01*
X118624476Y-195015142D01*
X118662571Y-194938952D01*
X118700666Y-194900857D01*
X118776857Y-194862761D01*
%TO.C,R27*%
D11*
X151407095Y-178191619D02*
X151359476Y-178144000D01*
X151264238Y-178096380D01*
X151026142Y-178096380D01*
X150930904Y-178144000D01*
X150883285Y-178191619D01*
X150835666Y-178286857D01*
X150835666Y-178382095D01*
X150883285Y-178524952D01*
X151454714Y-179096380D01*
X150835666Y-179096380D01*
X150454714Y-178191619D02*
X150407095Y-178144000D01*
X150311857Y-178096380D01*
X150073761Y-178096380D01*
X149978523Y-178144000D01*
X149930904Y-178191619D01*
X149883285Y-178286857D01*
X149883285Y-178382095D01*
X149930904Y-178524952D01*
X150502333Y-179096380D01*
X149883285Y-179096380D01*
X149264238Y-178096380D02*
X149169000Y-178096380D01*
X149073761Y-178144000D01*
X149026142Y-178191619D01*
X148978523Y-178286857D01*
X148930904Y-178477333D01*
X148930904Y-178715428D01*
X148978523Y-178905904D01*
X149026142Y-179001142D01*
X149073761Y-179048761D01*
X149169000Y-179096380D01*
X149264238Y-179096380D01*
X149359476Y-179048761D01*
X149407095Y-179001142D01*
X149454714Y-178905904D01*
X149502333Y-178715428D01*
X149502333Y-178477333D01*
X149454714Y-178286857D01*
X149407095Y-178191619D01*
X149359476Y-178144000D01*
X149264238Y-178096380D01*
X147930904Y-179096380D02*
X148264238Y-178620190D01*
X148502333Y-179096380D02*
X148502333Y-178096380D01*
X148121380Y-178096380D01*
X148026142Y-178144000D01*
X147978523Y-178191619D01*
X147930904Y-178286857D01*
X147930904Y-178429714D01*
X147978523Y-178524952D01*
X148026142Y-178572571D01*
X148121380Y-178620190D01*
X148502333Y-178620190D01*
D12*
X150183285Y-181285904D02*
X150449952Y-180904952D01*
X150640428Y-181285904D02*
X150640428Y-180485904D01*
X150335666Y-180485904D01*
X150259476Y-180524000D01*
X150221380Y-180562095D01*
X150183285Y-180638285D01*
X150183285Y-180752571D01*
X150221380Y-180828761D01*
X150259476Y-180866857D01*
X150335666Y-180904952D01*
X150640428Y-180904952D01*
X149878523Y-180562095D02*
X149840428Y-180524000D01*
X149764238Y-180485904D01*
X149573761Y-180485904D01*
X149497571Y-180524000D01*
X149459476Y-180562095D01*
X149421380Y-180638285D01*
X149421380Y-180714476D01*
X149459476Y-180828761D01*
X149916619Y-181285904D01*
X149421380Y-181285904D01*
X149154714Y-180485904D02*
X148621380Y-180485904D01*
X148964238Y-181285904D01*
%TO.C,R26*%
D11*
X106386095Y-178128619D02*
X106338476Y-178081000D01*
X106243238Y-178033380D01*
X106005142Y-178033380D01*
X105909904Y-178081000D01*
X105862285Y-178128619D01*
X105814666Y-178223857D01*
X105814666Y-178319095D01*
X105862285Y-178461952D01*
X106433714Y-179033380D01*
X105814666Y-179033380D01*
X105433714Y-178128619D02*
X105386095Y-178081000D01*
X105290857Y-178033380D01*
X105052761Y-178033380D01*
X104957523Y-178081000D01*
X104909904Y-178128619D01*
X104862285Y-178223857D01*
X104862285Y-178319095D01*
X104909904Y-178461952D01*
X105481333Y-179033380D01*
X104862285Y-179033380D01*
X104243238Y-178033380D02*
X104148000Y-178033380D01*
X104052761Y-178081000D01*
X104005142Y-178128619D01*
X103957523Y-178223857D01*
X103909904Y-178414333D01*
X103909904Y-178652428D01*
X103957523Y-178842904D01*
X104005142Y-178938142D01*
X104052761Y-178985761D01*
X104148000Y-179033380D01*
X104243238Y-179033380D01*
X104338476Y-178985761D01*
X104386095Y-178938142D01*
X104433714Y-178842904D01*
X104481333Y-178652428D01*
X104481333Y-178414333D01*
X104433714Y-178223857D01*
X104386095Y-178128619D01*
X104338476Y-178081000D01*
X104243238Y-178033380D01*
X102909904Y-179033380D02*
X103243238Y-178557190D01*
X103481333Y-179033380D02*
X103481333Y-178033380D01*
X103100380Y-178033380D01*
X103005142Y-178081000D01*
X102957523Y-178128619D01*
X102909904Y-178223857D01*
X102909904Y-178366714D01*
X102957523Y-178461952D01*
X103005142Y-178509571D01*
X103100380Y-178557190D01*
X103481333Y-178557190D01*
D12*
X105162285Y-181222904D02*
X105428952Y-180841952D01*
X105619428Y-181222904D02*
X105619428Y-180422904D01*
X105314666Y-180422904D01*
X105238476Y-180461000D01*
X105200380Y-180499095D01*
X105162285Y-180575285D01*
X105162285Y-180689571D01*
X105200380Y-180765761D01*
X105238476Y-180803857D01*
X105314666Y-180841952D01*
X105619428Y-180841952D01*
X104857523Y-180499095D02*
X104819428Y-180461000D01*
X104743238Y-180422904D01*
X104552761Y-180422904D01*
X104476571Y-180461000D01*
X104438476Y-180499095D01*
X104400380Y-180575285D01*
X104400380Y-180651476D01*
X104438476Y-180765761D01*
X104895619Y-181222904D01*
X104400380Y-181222904D01*
X103714666Y-180422904D02*
X103867047Y-180422904D01*
X103943238Y-180461000D01*
X103981333Y-180499095D01*
X104057523Y-180613380D01*
X104095619Y-180765761D01*
X104095619Y-181070523D01*
X104057523Y-181146714D01*
X104019428Y-181184809D01*
X103943238Y-181222904D01*
X103790857Y-181222904D01*
X103714666Y-181184809D01*
X103676571Y-181146714D01*
X103638476Y-181070523D01*
X103638476Y-180880047D01*
X103676571Y-180803857D01*
X103714666Y-180765761D01*
X103790857Y-180727666D01*
X103943238Y-180727666D01*
X104019428Y-180765761D01*
X104057523Y-180803857D01*
X104095619Y-180880047D01*
%TO.C,R25*%
D11*
X136358095Y-164094619D02*
X136310476Y-164047000D01*
X136215238Y-163999380D01*
X135977142Y-163999380D01*
X135881904Y-164047000D01*
X135834285Y-164094619D01*
X135786666Y-164189857D01*
X135786666Y-164285095D01*
X135834285Y-164427952D01*
X136405714Y-164999380D01*
X135786666Y-164999380D01*
X135405714Y-164094619D02*
X135358095Y-164047000D01*
X135262857Y-163999380D01*
X135024761Y-163999380D01*
X134929523Y-164047000D01*
X134881904Y-164094619D01*
X134834285Y-164189857D01*
X134834285Y-164285095D01*
X134881904Y-164427952D01*
X135453333Y-164999380D01*
X134834285Y-164999380D01*
X134215238Y-163999380D02*
X134120000Y-163999380D01*
X134024761Y-164047000D01*
X133977142Y-164094619D01*
X133929523Y-164189857D01*
X133881904Y-164380333D01*
X133881904Y-164618428D01*
X133929523Y-164808904D01*
X133977142Y-164904142D01*
X134024761Y-164951761D01*
X134120000Y-164999380D01*
X134215238Y-164999380D01*
X134310476Y-164951761D01*
X134358095Y-164904142D01*
X134405714Y-164808904D01*
X134453333Y-164618428D01*
X134453333Y-164380333D01*
X134405714Y-164189857D01*
X134358095Y-164094619D01*
X134310476Y-164047000D01*
X134215238Y-163999380D01*
X132881904Y-164999380D02*
X133215238Y-164523190D01*
X133453333Y-164999380D02*
X133453333Y-163999380D01*
X133072380Y-163999380D01*
X132977142Y-164047000D01*
X132929523Y-164094619D01*
X132881904Y-164189857D01*
X132881904Y-164332714D01*
X132929523Y-164427952D01*
X132977142Y-164475571D01*
X133072380Y-164523190D01*
X133453333Y-164523190D01*
D12*
X135134285Y-167188904D02*
X135400952Y-166807952D01*
X135591428Y-167188904D02*
X135591428Y-166388904D01*
X135286666Y-166388904D01*
X135210476Y-166427000D01*
X135172380Y-166465095D01*
X135134285Y-166541285D01*
X135134285Y-166655571D01*
X135172380Y-166731761D01*
X135210476Y-166769857D01*
X135286666Y-166807952D01*
X135591428Y-166807952D01*
X134829523Y-166465095D02*
X134791428Y-166427000D01*
X134715238Y-166388904D01*
X134524761Y-166388904D01*
X134448571Y-166427000D01*
X134410476Y-166465095D01*
X134372380Y-166541285D01*
X134372380Y-166617476D01*
X134410476Y-166731761D01*
X134867619Y-167188904D01*
X134372380Y-167188904D01*
X133648571Y-166388904D02*
X134029523Y-166388904D01*
X134067619Y-166769857D01*
X134029523Y-166731761D01*
X133953333Y-166693666D01*
X133762857Y-166693666D01*
X133686666Y-166731761D01*
X133648571Y-166769857D01*
X133610476Y-166846047D01*
X133610476Y-167036523D01*
X133648571Y-167112714D01*
X133686666Y-167150809D01*
X133762857Y-167188904D01*
X133953333Y-167188904D01*
X134029523Y-167150809D01*
X134067619Y-167112714D01*
%TO.C,R24*%
D11*
X90321095Y-234960619D02*
X90273476Y-234913000D01*
X90178238Y-234865380D01*
X89940142Y-234865380D01*
X89844904Y-234913000D01*
X89797285Y-234960619D01*
X89749666Y-235055857D01*
X89749666Y-235151095D01*
X89797285Y-235293952D01*
X90368714Y-235865380D01*
X89749666Y-235865380D01*
X89368714Y-234960619D02*
X89321095Y-234913000D01*
X89225857Y-234865380D01*
X88987761Y-234865380D01*
X88892523Y-234913000D01*
X88844904Y-234960619D01*
X88797285Y-235055857D01*
X88797285Y-235151095D01*
X88844904Y-235293952D01*
X89416333Y-235865380D01*
X88797285Y-235865380D01*
X88178238Y-234865380D02*
X88083000Y-234865380D01*
X87987761Y-234913000D01*
X87940142Y-234960619D01*
X87892523Y-235055857D01*
X87844904Y-235246333D01*
X87844904Y-235484428D01*
X87892523Y-235674904D01*
X87940142Y-235770142D01*
X87987761Y-235817761D01*
X88083000Y-235865380D01*
X88178238Y-235865380D01*
X88273476Y-235817761D01*
X88321095Y-235770142D01*
X88368714Y-235674904D01*
X88416333Y-235484428D01*
X88416333Y-235246333D01*
X88368714Y-235055857D01*
X88321095Y-234960619D01*
X88273476Y-234913000D01*
X88178238Y-234865380D01*
X86844904Y-235865380D02*
X87178238Y-235389190D01*
X87416333Y-235865380D02*
X87416333Y-234865380D01*
X87035380Y-234865380D01*
X86940142Y-234913000D01*
X86892523Y-234960619D01*
X86844904Y-235055857D01*
X86844904Y-235198714D01*
X86892523Y-235293952D01*
X86940142Y-235341571D01*
X87035380Y-235389190D01*
X87416333Y-235389190D01*
D12*
X89097285Y-238054904D02*
X89363952Y-237673952D01*
X89554428Y-238054904D02*
X89554428Y-237254904D01*
X89249666Y-237254904D01*
X89173476Y-237293000D01*
X89135380Y-237331095D01*
X89097285Y-237407285D01*
X89097285Y-237521571D01*
X89135380Y-237597761D01*
X89173476Y-237635857D01*
X89249666Y-237673952D01*
X89554428Y-237673952D01*
X88792523Y-237331095D02*
X88754428Y-237293000D01*
X88678238Y-237254904D01*
X88487761Y-237254904D01*
X88411571Y-237293000D01*
X88373476Y-237331095D01*
X88335380Y-237407285D01*
X88335380Y-237483476D01*
X88373476Y-237597761D01*
X88830619Y-238054904D01*
X88335380Y-238054904D01*
X87649666Y-237521571D02*
X87649666Y-238054904D01*
X87840142Y-237216809D02*
X88030619Y-237788238D01*
X87535380Y-237788238D01*
%TO.C,R23*%
D11*
X90447095Y-223276619D02*
X90399476Y-223229000D01*
X90304238Y-223181380D01*
X90066142Y-223181380D01*
X89970904Y-223229000D01*
X89923285Y-223276619D01*
X89875666Y-223371857D01*
X89875666Y-223467095D01*
X89923285Y-223609952D01*
X90494714Y-224181380D01*
X89875666Y-224181380D01*
X89494714Y-223276619D02*
X89447095Y-223229000D01*
X89351857Y-223181380D01*
X89113761Y-223181380D01*
X89018523Y-223229000D01*
X88970904Y-223276619D01*
X88923285Y-223371857D01*
X88923285Y-223467095D01*
X88970904Y-223609952D01*
X89542333Y-224181380D01*
X88923285Y-224181380D01*
X88304238Y-223181380D02*
X88209000Y-223181380D01*
X88113761Y-223229000D01*
X88066142Y-223276619D01*
X88018523Y-223371857D01*
X87970904Y-223562333D01*
X87970904Y-223800428D01*
X88018523Y-223990904D01*
X88066142Y-224086142D01*
X88113761Y-224133761D01*
X88209000Y-224181380D01*
X88304238Y-224181380D01*
X88399476Y-224133761D01*
X88447095Y-224086142D01*
X88494714Y-223990904D01*
X88542333Y-223800428D01*
X88542333Y-223562333D01*
X88494714Y-223371857D01*
X88447095Y-223276619D01*
X88399476Y-223229000D01*
X88304238Y-223181380D01*
X86970904Y-224181380D02*
X87304238Y-223705190D01*
X87542333Y-224181380D02*
X87542333Y-223181380D01*
X87161380Y-223181380D01*
X87066142Y-223229000D01*
X87018523Y-223276619D01*
X86970904Y-223371857D01*
X86970904Y-223514714D01*
X87018523Y-223609952D01*
X87066142Y-223657571D01*
X87161380Y-223705190D01*
X87542333Y-223705190D01*
D12*
X89223285Y-226370904D02*
X89489952Y-225989952D01*
X89680428Y-226370904D02*
X89680428Y-225570904D01*
X89375666Y-225570904D01*
X89299476Y-225609000D01*
X89261380Y-225647095D01*
X89223285Y-225723285D01*
X89223285Y-225837571D01*
X89261380Y-225913761D01*
X89299476Y-225951857D01*
X89375666Y-225989952D01*
X89680428Y-225989952D01*
X88918523Y-225647095D02*
X88880428Y-225609000D01*
X88804238Y-225570904D01*
X88613761Y-225570904D01*
X88537571Y-225609000D01*
X88499476Y-225647095D01*
X88461380Y-225723285D01*
X88461380Y-225799476D01*
X88499476Y-225913761D01*
X88956619Y-226370904D01*
X88461380Y-226370904D01*
X88194714Y-225570904D02*
X87699476Y-225570904D01*
X87966142Y-225875666D01*
X87851857Y-225875666D01*
X87775666Y-225913761D01*
X87737571Y-225951857D01*
X87699476Y-226028047D01*
X87699476Y-226218523D01*
X87737571Y-226294714D01*
X87775666Y-226332809D01*
X87851857Y-226370904D01*
X88080428Y-226370904D01*
X88156619Y-226332809D01*
X88194714Y-226294714D01*
%TO.C,R22*%
D11*
X90384095Y-211084619D02*
X90336476Y-211037000D01*
X90241238Y-210989380D01*
X90003142Y-210989380D01*
X89907904Y-211037000D01*
X89860285Y-211084619D01*
X89812666Y-211179857D01*
X89812666Y-211275095D01*
X89860285Y-211417952D01*
X90431714Y-211989380D01*
X89812666Y-211989380D01*
X89431714Y-211084619D02*
X89384095Y-211037000D01*
X89288857Y-210989380D01*
X89050761Y-210989380D01*
X88955523Y-211037000D01*
X88907904Y-211084619D01*
X88860285Y-211179857D01*
X88860285Y-211275095D01*
X88907904Y-211417952D01*
X89479333Y-211989380D01*
X88860285Y-211989380D01*
X88241238Y-210989380D02*
X88146000Y-210989380D01*
X88050761Y-211037000D01*
X88003142Y-211084619D01*
X87955523Y-211179857D01*
X87907904Y-211370333D01*
X87907904Y-211608428D01*
X87955523Y-211798904D01*
X88003142Y-211894142D01*
X88050761Y-211941761D01*
X88146000Y-211989380D01*
X88241238Y-211989380D01*
X88336476Y-211941761D01*
X88384095Y-211894142D01*
X88431714Y-211798904D01*
X88479333Y-211608428D01*
X88479333Y-211370333D01*
X88431714Y-211179857D01*
X88384095Y-211084619D01*
X88336476Y-211037000D01*
X88241238Y-210989380D01*
X86907904Y-211989380D02*
X87241238Y-211513190D01*
X87479333Y-211989380D02*
X87479333Y-210989380D01*
X87098380Y-210989380D01*
X87003142Y-211037000D01*
X86955523Y-211084619D01*
X86907904Y-211179857D01*
X86907904Y-211322714D01*
X86955523Y-211417952D01*
X87003142Y-211465571D01*
X87098380Y-211513190D01*
X87479333Y-211513190D01*
D12*
X89160285Y-214178904D02*
X89426952Y-213797952D01*
X89617428Y-214178904D02*
X89617428Y-213378904D01*
X89312666Y-213378904D01*
X89236476Y-213417000D01*
X89198380Y-213455095D01*
X89160285Y-213531285D01*
X89160285Y-213645571D01*
X89198380Y-213721761D01*
X89236476Y-213759857D01*
X89312666Y-213797952D01*
X89617428Y-213797952D01*
X88855523Y-213455095D02*
X88817428Y-213417000D01*
X88741238Y-213378904D01*
X88550761Y-213378904D01*
X88474571Y-213417000D01*
X88436476Y-213455095D01*
X88398380Y-213531285D01*
X88398380Y-213607476D01*
X88436476Y-213721761D01*
X88893619Y-214178904D01*
X88398380Y-214178904D01*
X88093619Y-213455095D02*
X88055523Y-213417000D01*
X87979333Y-213378904D01*
X87788857Y-213378904D01*
X87712666Y-213417000D01*
X87674571Y-213455095D01*
X87636476Y-213531285D01*
X87636476Y-213607476D01*
X87674571Y-213721761D01*
X88131714Y-214178904D01*
X87636476Y-214178904D01*
%TO.C,R21*%
D11*
X90384095Y-199146619D02*
X90336476Y-199099000D01*
X90241238Y-199051380D01*
X90003142Y-199051380D01*
X89907904Y-199099000D01*
X89860285Y-199146619D01*
X89812666Y-199241857D01*
X89812666Y-199337095D01*
X89860285Y-199479952D01*
X90431714Y-200051380D01*
X89812666Y-200051380D01*
X89431714Y-199146619D02*
X89384095Y-199099000D01*
X89288857Y-199051380D01*
X89050761Y-199051380D01*
X88955523Y-199099000D01*
X88907904Y-199146619D01*
X88860285Y-199241857D01*
X88860285Y-199337095D01*
X88907904Y-199479952D01*
X89479333Y-200051380D01*
X88860285Y-200051380D01*
X88241238Y-199051380D02*
X88146000Y-199051380D01*
X88050761Y-199099000D01*
X88003142Y-199146619D01*
X87955523Y-199241857D01*
X87907904Y-199432333D01*
X87907904Y-199670428D01*
X87955523Y-199860904D01*
X88003142Y-199956142D01*
X88050761Y-200003761D01*
X88146000Y-200051380D01*
X88241238Y-200051380D01*
X88336476Y-200003761D01*
X88384095Y-199956142D01*
X88431714Y-199860904D01*
X88479333Y-199670428D01*
X88479333Y-199432333D01*
X88431714Y-199241857D01*
X88384095Y-199146619D01*
X88336476Y-199099000D01*
X88241238Y-199051380D01*
X86907904Y-200051380D02*
X87241238Y-199575190D01*
X87479333Y-200051380D02*
X87479333Y-199051380D01*
X87098380Y-199051380D01*
X87003142Y-199099000D01*
X86955523Y-199146619D01*
X86907904Y-199241857D01*
X86907904Y-199384714D01*
X86955523Y-199479952D01*
X87003142Y-199527571D01*
X87098380Y-199575190D01*
X87479333Y-199575190D01*
D12*
X89160285Y-202240904D02*
X89426952Y-201859952D01*
X89617428Y-202240904D02*
X89617428Y-201440904D01*
X89312666Y-201440904D01*
X89236476Y-201479000D01*
X89198380Y-201517095D01*
X89160285Y-201593285D01*
X89160285Y-201707571D01*
X89198380Y-201783761D01*
X89236476Y-201821857D01*
X89312666Y-201859952D01*
X89617428Y-201859952D01*
X88855523Y-201517095D02*
X88817428Y-201479000D01*
X88741238Y-201440904D01*
X88550761Y-201440904D01*
X88474571Y-201479000D01*
X88436476Y-201517095D01*
X88398380Y-201593285D01*
X88398380Y-201669476D01*
X88436476Y-201783761D01*
X88893619Y-202240904D01*
X88398380Y-202240904D01*
X87636476Y-202240904D02*
X88093619Y-202240904D01*
X87865047Y-202240904D02*
X87865047Y-201440904D01*
X87941238Y-201555190D01*
X88017428Y-201631380D01*
X88093619Y-201669476D01*
%TO.C,R20*%
D11*
X65937095Y-160792619D02*
X65889476Y-160745000D01*
X65794238Y-160697380D01*
X65556142Y-160697380D01*
X65460904Y-160745000D01*
X65413285Y-160792619D01*
X65365666Y-160887857D01*
X65365666Y-160983095D01*
X65413285Y-161125952D01*
X65984714Y-161697380D01*
X65365666Y-161697380D01*
X64984714Y-160792619D02*
X64937095Y-160745000D01*
X64841857Y-160697380D01*
X64603761Y-160697380D01*
X64508523Y-160745000D01*
X64460904Y-160792619D01*
X64413285Y-160887857D01*
X64413285Y-160983095D01*
X64460904Y-161125952D01*
X65032333Y-161697380D01*
X64413285Y-161697380D01*
X63794238Y-160697380D02*
X63699000Y-160697380D01*
X63603761Y-160745000D01*
X63556142Y-160792619D01*
X63508523Y-160887857D01*
X63460904Y-161078333D01*
X63460904Y-161316428D01*
X63508523Y-161506904D01*
X63556142Y-161602142D01*
X63603761Y-161649761D01*
X63699000Y-161697380D01*
X63794238Y-161697380D01*
X63889476Y-161649761D01*
X63937095Y-161602142D01*
X63984714Y-161506904D01*
X64032333Y-161316428D01*
X64032333Y-161078333D01*
X63984714Y-160887857D01*
X63937095Y-160792619D01*
X63889476Y-160745000D01*
X63794238Y-160697380D01*
X62460904Y-161697380D02*
X62794238Y-161221190D01*
X63032333Y-161697380D02*
X63032333Y-160697380D01*
X62651380Y-160697380D01*
X62556142Y-160745000D01*
X62508523Y-160792619D01*
X62460904Y-160887857D01*
X62460904Y-161030714D01*
X62508523Y-161125952D01*
X62556142Y-161173571D01*
X62651380Y-161221190D01*
X63032333Y-161221190D01*
D12*
X64713285Y-163886904D02*
X64979952Y-163505952D01*
X65170428Y-163886904D02*
X65170428Y-163086904D01*
X64865666Y-163086904D01*
X64789476Y-163125000D01*
X64751380Y-163163095D01*
X64713285Y-163239285D01*
X64713285Y-163353571D01*
X64751380Y-163429761D01*
X64789476Y-163467857D01*
X64865666Y-163505952D01*
X65170428Y-163505952D01*
X64408523Y-163163095D02*
X64370428Y-163125000D01*
X64294238Y-163086904D01*
X64103761Y-163086904D01*
X64027571Y-163125000D01*
X63989476Y-163163095D01*
X63951380Y-163239285D01*
X63951380Y-163315476D01*
X63989476Y-163429761D01*
X64446619Y-163886904D01*
X63951380Y-163886904D01*
X63456142Y-163086904D02*
X63379952Y-163086904D01*
X63303761Y-163125000D01*
X63265666Y-163163095D01*
X63227571Y-163239285D01*
X63189476Y-163391666D01*
X63189476Y-163582142D01*
X63227571Y-163734523D01*
X63265666Y-163810714D01*
X63303761Y-163848809D01*
X63379952Y-163886904D01*
X63456142Y-163886904D01*
X63532333Y-163848809D01*
X63570428Y-163810714D01*
X63608523Y-163734523D01*
X63646619Y-163582142D01*
X63646619Y-163391666D01*
X63608523Y-163239285D01*
X63570428Y-163163095D01*
X63532333Y-163125000D01*
X63456142Y-163086904D01*
%TO.C,R19*%
D11*
X119911095Y-147965619D02*
X119863476Y-147918000D01*
X119768238Y-147870380D01*
X119530142Y-147870380D01*
X119434904Y-147918000D01*
X119387285Y-147965619D01*
X119339666Y-148060857D01*
X119339666Y-148156095D01*
X119387285Y-148298952D01*
X119958714Y-148870380D01*
X119339666Y-148870380D01*
X118958714Y-147965619D02*
X118911095Y-147918000D01*
X118815857Y-147870380D01*
X118577761Y-147870380D01*
X118482523Y-147918000D01*
X118434904Y-147965619D01*
X118387285Y-148060857D01*
X118387285Y-148156095D01*
X118434904Y-148298952D01*
X119006333Y-148870380D01*
X118387285Y-148870380D01*
X117768238Y-147870380D02*
X117673000Y-147870380D01*
X117577761Y-147918000D01*
X117530142Y-147965619D01*
X117482523Y-148060857D01*
X117434904Y-148251333D01*
X117434904Y-148489428D01*
X117482523Y-148679904D01*
X117530142Y-148775142D01*
X117577761Y-148822761D01*
X117673000Y-148870380D01*
X117768238Y-148870380D01*
X117863476Y-148822761D01*
X117911095Y-148775142D01*
X117958714Y-148679904D01*
X118006333Y-148489428D01*
X118006333Y-148251333D01*
X117958714Y-148060857D01*
X117911095Y-147965619D01*
X117863476Y-147918000D01*
X117768238Y-147870380D01*
X116434904Y-148870380D02*
X116768238Y-148394190D01*
X117006333Y-148870380D02*
X117006333Y-147870380D01*
X116625380Y-147870380D01*
X116530142Y-147918000D01*
X116482523Y-147965619D01*
X116434904Y-148060857D01*
X116434904Y-148203714D01*
X116482523Y-148298952D01*
X116530142Y-148346571D01*
X116625380Y-148394190D01*
X117006333Y-148394190D01*
D12*
X118687285Y-151059904D02*
X118953952Y-150678952D01*
X119144428Y-151059904D02*
X119144428Y-150259904D01*
X118839666Y-150259904D01*
X118763476Y-150298000D01*
X118725380Y-150336095D01*
X118687285Y-150412285D01*
X118687285Y-150526571D01*
X118725380Y-150602761D01*
X118763476Y-150640857D01*
X118839666Y-150678952D01*
X119144428Y-150678952D01*
X117925380Y-151059904D02*
X118382523Y-151059904D01*
X118153952Y-151059904D02*
X118153952Y-150259904D01*
X118230142Y-150374190D01*
X118306333Y-150450380D01*
X118382523Y-150488476D01*
X117544428Y-151059904D02*
X117392047Y-151059904D01*
X117315857Y-151021809D01*
X117277761Y-150983714D01*
X117201571Y-150869428D01*
X117163476Y-150717047D01*
X117163476Y-150412285D01*
X117201571Y-150336095D01*
X117239666Y-150298000D01*
X117315857Y-150259904D01*
X117468238Y-150259904D01*
X117544428Y-150298000D01*
X117582523Y-150336095D01*
X117620619Y-150412285D01*
X117620619Y-150602761D01*
X117582523Y-150678952D01*
X117544428Y-150717047D01*
X117468238Y-150755142D01*
X117315857Y-150755142D01*
X117239666Y-150717047D01*
X117201571Y-150678952D01*
X117163476Y-150602761D01*
%TO.C,R18*%
D11*
X65937095Y-147965619D02*
X65889476Y-147918000D01*
X65794238Y-147870380D01*
X65556142Y-147870380D01*
X65460904Y-147918000D01*
X65413285Y-147965619D01*
X65365666Y-148060857D01*
X65365666Y-148156095D01*
X65413285Y-148298952D01*
X65984714Y-148870380D01*
X65365666Y-148870380D01*
X64984714Y-147965619D02*
X64937095Y-147918000D01*
X64841857Y-147870380D01*
X64603761Y-147870380D01*
X64508523Y-147918000D01*
X64460904Y-147965619D01*
X64413285Y-148060857D01*
X64413285Y-148156095D01*
X64460904Y-148298952D01*
X65032333Y-148870380D01*
X64413285Y-148870380D01*
X63794238Y-147870380D02*
X63699000Y-147870380D01*
X63603761Y-147918000D01*
X63556142Y-147965619D01*
X63508523Y-148060857D01*
X63460904Y-148251333D01*
X63460904Y-148489428D01*
X63508523Y-148679904D01*
X63556142Y-148775142D01*
X63603761Y-148822761D01*
X63699000Y-148870380D01*
X63794238Y-148870380D01*
X63889476Y-148822761D01*
X63937095Y-148775142D01*
X63984714Y-148679904D01*
X64032333Y-148489428D01*
X64032333Y-148251333D01*
X63984714Y-148060857D01*
X63937095Y-147965619D01*
X63889476Y-147918000D01*
X63794238Y-147870380D01*
X62460904Y-148870380D02*
X62794238Y-148394190D01*
X63032333Y-148870380D02*
X63032333Y-147870380D01*
X62651380Y-147870380D01*
X62556142Y-147918000D01*
X62508523Y-147965619D01*
X62460904Y-148060857D01*
X62460904Y-148203714D01*
X62508523Y-148298952D01*
X62556142Y-148346571D01*
X62651380Y-148394190D01*
X63032333Y-148394190D01*
D12*
X64713285Y-151059904D02*
X64979952Y-150678952D01*
X65170428Y-151059904D02*
X65170428Y-150259904D01*
X64865666Y-150259904D01*
X64789476Y-150298000D01*
X64751380Y-150336095D01*
X64713285Y-150412285D01*
X64713285Y-150526571D01*
X64751380Y-150602761D01*
X64789476Y-150640857D01*
X64865666Y-150678952D01*
X65170428Y-150678952D01*
X63951380Y-151059904D02*
X64408523Y-151059904D01*
X64179952Y-151059904D02*
X64179952Y-150259904D01*
X64256142Y-150374190D01*
X64332333Y-150450380D01*
X64408523Y-150488476D01*
X63494238Y-150602761D02*
X63570428Y-150564666D01*
X63608523Y-150526571D01*
X63646619Y-150450380D01*
X63646619Y-150412285D01*
X63608523Y-150336095D01*
X63570428Y-150298000D01*
X63494238Y-150259904D01*
X63341857Y-150259904D01*
X63265666Y-150298000D01*
X63227571Y-150336095D01*
X63189476Y-150412285D01*
X63189476Y-150450380D01*
X63227571Y-150526571D01*
X63265666Y-150564666D01*
X63341857Y-150602761D01*
X63494238Y-150602761D01*
X63570428Y-150640857D01*
X63608523Y-150678952D01*
X63646619Y-150755142D01*
X63646619Y-150907523D01*
X63608523Y-150983714D01*
X63570428Y-151021809D01*
X63494238Y-151059904D01*
X63341857Y-151059904D01*
X63265666Y-151021809D01*
X63227571Y-150983714D01*
X63189476Y-150907523D01*
X63189476Y-150755142D01*
X63227571Y-150678952D01*
X63265666Y-150640857D01*
X63341857Y-150602761D01*
%TO.C,R17*%
D11*
X101941095Y-134948619D02*
X101893476Y-134901000D01*
X101798238Y-134853380D01*
X101560142Y-134853380D01*
X101464904Y-134901000D01*
X101417285Y-134948619D01*
X101369666Y-135043857D01*
X101369666Y-135139095D01*
X101417285Y-135281952D01*
X101988714Y-135853380D01*
X101369666Y-135853380D01*
X100988714Y-134948619D02*
X100941095Y-134901000D01*
X100845857Y-134853380D01*
X100607761Y-134853380D01*
X100512523Y-134901000D01*
X100464904Y-134948619D01*
X100417285Y-135043857D01*
X100417285Y-135139095D01*
X100464904Y-135281952D01*
X101036333Y-135853380D01*
X100417285Y-135853380D01*
X99798238Y-134853380D02*
X99703000Y-134853380D01*
X99607761Y-134901000D01*
X99560142Y-134948619D01*
X99512523Y-135043857D01*
X99464904Y-135234333D01*
X99464904Y-135472428D01*
X99512523Y-135662904D01*
X99560142Y-135758142D01*
X99607761Y-135805761D01*
X99703000Y-135853380D01*
X99798238Y-135853380D01*
X99893476Y-135805761D01*
X99941095Y-135758142D01*
X99988714Y-135662904D01*
X100036333Y-135472428D01*
X100036333Y-135234333D01*
X99988714Y-135043857D01*
X99941095Y-134948619D01*
X99893476Y-134901000D01*
X99798238Y-134853380D01*
X98464904Y-135853380D02*
X98798238Y-135377190D01*
X99036333Y-135853380D02*
X99036333Y-134853380D01*
X98655380Y-134853380D01*
X98560142Y-134901000D01*
X98512523Y-134948619D01*
X98464904Y-135043857D01*
X98464904Y-135186714D01*
X98512523Y-135281952D01*
X98560142Y-135329571D01*
X98655380Y-135377190D01*
X99036333Y-135377190D01*
D12*
X100717285Y-138042904D02*
X100983952Y-137661952D01*
X101174428Y-138042904D02*
X101174428Y-137242904D01*
X100869666Y-137242904D01*
X100793476Y-137281000D01*
X100755380Y-137319095D01*
X100717285Y-137395285D01*
X100717285Y-137509571D01*
X100755380Y-137585761D01*
X100793476Y-137623857D01*
X100869666Y-137661952D01*
X101174428Y-137661952D01*
X99955380Y-138042904D02*
X100412523Y-138042904D01*
X100183952Y-138042904D02*
X100183952Y-137242904D01*
X100260142Y-137357190D01*
X100336333Y-137433380D01*
X100412523Y-137471476D01*
X99688714Y-137242904D02*
X99155380Y-137242904D01*
X99498238Y-138042904D01*
%TO.C,R16*%
D11*
X164997095Y-110564619D02*
X164949476Y-110517000D01*
X164854238Y-110469380D01*
X164616142Y-110469380D01*
X164520904Y-110517000D01*
X164473285Y-110564619D01*
X164425666Y-110659857D01*
X164425666Y-110755095D01*
X164473285Y-110897952D01*
X165044714Y-111469380D01*
X164425666Y-111469380D01*
X164044714Y-110564619D02*
X163997095Y-110517000D01*
X163901857Y-110469380D01*
X163663761Y-110469380D01*
X163568523Y-110517000D01*
X163520904Y-110564619D01*
X163473285Y-110659857D01*
X163473285Y-110755095D01*
X163520904Y-110897952D01*
X164092333Y-111469380D01*
X163473285Y-111469380D01*
X162854238Y-110469380D02*
X162759000Y-110469380D01*
X162663761Y-110517000D01*
X162616142Y-110564619D01*
X162568523Y-110659857D01*
X162520904Y-110850333D01*
X162520904Y-111088428D01*
X162568523Y-111278904D01*
X162616142Y-111374142D01*
X162663761Y-111421761D01*
X162759000Y-111469380D01*
X162854238Y-111469380D01*
X162949476Y-111421761D01*
X162997095Y-111374142D01*
X163044714Y-111278904D01*
X163092333Y-111088428D01*
X163092333Y-110850333D01*
X163044714Y-110659857D01*
X162997095Y-110564619D01*
X162949476Y-110517000D01*
X162854238Y-110469380D01*
X161520904Y-111469380D02*
X161854238Y-110993190D01*
X162092333Y-111469380D02*
X162092333Y-110469380D01*
X161711380Y-110469380D01*
X161616142Y-110517000D01*
X161568523Y-110564619D01*
X161520904Y-110659857D01*
X161520904Y-110802714D01*
X161568523Y-110897952D01*
X161616142Y-110945571D01*
X161711380Y-110993190D01*
X162092333Y-110993190D01*
D12*
X163773285Y-113658904D02*
X164039952Y-113277952D01*
X164230428Y-113658904D02*
X164230428Y-112858904D01*
X163925666Y-112858904D01*
X163849476Y-112897000D01*
X163811380Y-112935095D01*
X163773285Y-113011285D01*
X163773285Y-113125571D01*
X163811380Y-113201761D01*
X163849476Y-113239857D01*
X163925666Y-113277952D01*
X164230428Y-113277952D01*
X163011380Y-113658904D02*
X163468523Y-113658904D01*
X163239952Y-113658904D02*
X163239952Y-112858904D01*
X163316142Y-112973190D01*
X163392333Y-113049380D01*
X163468523Y-113087476D01*
X162325666Y-112858904D02*
X162478047Y-112858904D01*
X162554238Y-112897000D01*
X162592333Y-112935095D01*
X162668523Y-113049380D01*
X162706619Y-113201761D01*
X162706619Y-113506523D01*
X162668523Y-113582714D01*
X162630428Y-113620809D01*
X162554238Y-113658904D01*
X162401857Y-113658904D01*
X162325666Y-113620809D01*
X162287571Y-113582714D01*
X162249476Y-113506523D01*
X162249476Y-113316047D01*
X162287571Y-113239857D01*
X162325666Y-113201761D01*
X162401857Y-113163666D01*
X162554238Y-113163666D01*
X162630428Y-113201761D01*
X162668523Y-113239857D01*
X162706619Y-113316047D01*
%TO.C,R15*%
D11*
X164831095Y-79081019D02*
X164783476Y-79033400D01*
X164688238Y-78985780D01*
X164450142Y-78985780D01*
X164354904Y-79033400D01*
X164307285Y-79081019D01*
X164259666Y-79176257D01*
X164259666Y-79271495D01*
X164307285Y-79414352D01*
X164878714Y-79985780D01*
X164259666Y-79985780D01*
X163878714Y-79081019D02*
X163831095Y-79033400D01*
X163735857Y-78985780D01*
X163497761Y-78985780D01*
X163402523Y-79033400D01*
X163354904Y-79081019D01*
X163307285Y-79176257D01*
X163307285Y-79271495D01*
X163354904Y-79414352D01*
X163926333Y-79985780D01*
X163307285Y-79985780D01*
X162688238Y-78985780D02*
X162593000Y-78985780D01*
X162497761Y-79033400D01*
X162450142Y-79081019D01*
X162402523Y-79176257D01*
X162354904Y-79366733D01*
X162354904Y-79604828D01*
X162402523Y-79795304D01*
X162450142Y-79890542D01*
X162497761Y-79938161D01*
X162593000Y-79985780D01*
X162688238Y-79985780D01*
X162783476Y-79938161D01*
X162831095Y-79890542D01*
X162878714Y-79795304D01*
X162926333Y-79604828D01*
X162926333Y-79366733D01*
X162878714Y-79176257D01*
X162831095Y-79081019D01*
X162783476Y-79033400D01*
X162688238Y-78985780D01*
X161354904Y-79985780D02*
X161688238Y-79509590D01*
X161926333Y-79985780D02*
X161926333Y-78985780D01*
X161545380Y-78985780D01*
X161450142Y-79033400D01*
X161402523Y-79081019D01*
X161354904Y-79176257D01*
X161354904Y-79319114D01*
X161402523Y-79414352D01*
X161450142Y-79461971D01*
X161545380Y-79509590D01*
X161926333Y-79509590D01*
D12*
X163607285Y-82175304D02*
X163873952Y-81794352D01*
X164064428Y-82175304D02*
X164064428Y-81375304D01*
X163759666Y-81375304D01*
X163683476Y-81413400D01*
X163645380Y-81451495D01*
X163607285Y-81527685D01*
X163607285Y-81641971D01*
X163645380Y-81718161D01*
X163683476Y-81756257D01*
X163759666Y-81794352D01*
X164064428Y-81794352D01*
X162845380Y-82175304D02*
X163302523Y-82175304D01*
X163073952Y-82175304D02*
X163073952Y-81375304D01*
X163150142Y-81489590D01*
X163226333Y-81565780D01*
X163302523Y-81603876D01*
X162121571Y-81375304D02*
X162502523Y-81375304D01*
X162540619Y-81756257D01*
X162502523Y-81718161D01*
X162426333Y-81680066D01*
X162235857Y-81680066D01*
X162159666Y-81718161D01*
X162121571Y-81756257D01*
X162083476Y-81832447D01*
X162083476Y-82022923D01*
X162121571Y-82099114D01*
X162159666Y-82137209D01*
X162235857Y-82175304D01*
X162426333Y-82175304D01*
X162502523Y-82137209D01*
X162540619Y-82099114D01*
%TO.C,R14*%
D11*
X48540095Y-110561619D02*
X48492476Y-110514000D01*
X48397238Y-110466380D01*
X48159142Y-110466380D01*
X48063904Y-110514000D01*
X48016285Y-110561619D01*
X47968666Y-110656857D01*
X47968666Y-110752095D01*
X48016285Y-110894952D01*
X48587714Y-111466380D01*
X47968666Y-111466380D01*
X47587714Y-110561619D02*
X47540095Y-110514000D01*
X47444857Y-110466380D01*
X47206761Y-110466380D01*
X47111523Y-110514000D01*
X47063904Y-110561619D01*
X47016285Y-110656857D01*
X47016285Y-110752095D01*
X47063904Y-110894952D01*
X47635333Y-111466380D01*
X47016285Y-111466380D01*
X46397238Y-110466380D02*
X46302000Y-110466380D01*
X46206761Y-110514000D01*
X46159142Y-110561619D01*
X46111523Y-110656857D01*
X46063904Y-110847333D01*
X46063904Y-111085428D01*
X46111523Y-111275904D01*
X46159142Y-111371142D01*
X46206761Y-111418761D01*
X46302000Y-111466380D01*
X46397238Y-111466380D01*
X46492476Y-111418761D01*
X46540095Y-111371142D01*
X46587714Y-111275904D01*
X46635333Y-111085428D01*
X46635333Y-110847333D01*
X46587714Y-110656857D01*
X46540095Y-110561619D01*
X46492476Y-110514000D01*
X46397238Y-110466380D01*
X45063904Y-111466380D02*
X45397238Y-110990190D01*
X45635333Y-111466380D02*
X45635333Y-110466380D01*
X45254380Y-110466380D01*
X45159142Y-110514000D01*
X45111523Y-110561619D01*
X45063904Y-110656857D01*
X45063904Y-110799714D01*
X45111523Y-110894952D01*
X45159142Y-110942571D01*
X45254380Y-110990190D01*
X45635333Y-110990190D01*
D12*
X47316285Y-113655904D02*
X47582952Y-113274952D01*
X47773428Y-113655904D02*
X47773428Y-112855904D01*
X47468666Y-112855904D01*
X47392476Y-112894000D01*
X47354380Y-112932095D01*
X47316285Y-113008285D01*
X47316285Y-113122571D01*
X47354380Y-113198761D01*
X47392476Y-113236857D01*
X47468666Y-113274952D01*
X47773428Y-113274952D01*
X46554380Y-113655904D02*
X47011523Y-113655904D01*
X46782952Y-113655904D02*
X46782952Y-112855904D01*
X46859142Y-112970190D01*
X46935333Y-113046380D01*
X47011523Y-113084476D01*
X45868666Y-113122571D02*
X45868666Y-113655904D01*
X46059142Y-112817809D02*
X46249619Y-113389238D01*
X45754380Y-113389238D01*
%TO.C,R13*%
D11*
X48616295Y-79009919D02*
X48568676Y-78962300D01*
X48473438Y-78914680D01*
X48235342Y-78914680D01*
X48140104Y-78962300D01*
X48092485Y-79009919D01*
X48044866Y-79105157D01*
X48044866Y-79200395D01*
X48092485Y-79343252D01*
X48663914Y-79914680D01*
X48044866Y-79914680D01*
X47663914Y-79009919D02*
X47616295Y-78962300D01*
X47521057Y-78914680D01*
X47282961Y-78914680D01*
X47187723Y-78962300D01*
X47140104Y-79009919D01*
X47092485Y-79105157D01*
X47092485Y-79200395D01*
X47140104Y-79343252D01*
X47711533Y-79914680D01*
X47092485Y-79914680D01*
X46473438Y-78914680D02*
X46378200Y-78914680D01*
X46282961Y-78962300D01*
X46235342Y-79009919D01*
X46187723Y-79105157D01*
X46140104Y-79295633D01*
X46140104Y-79533728D01*
X46187723Y-79724204D01*
X46235342Y-79819442D01*
X46282961Y-79867061D01*
X46378200Y-79914680D01*
X46473438Y-79914680D01*
X46568676Y-79867061D01*
X46616295Y-79819442D01*
X46663914Y-79724204D01*
X46711533Y-79533728D01*
X46711533Y-79295633D01*
X46663914Y-79105157D01*
X46616295Y-79009919D01*
X46568676Y-78962300D01*
X46473438Y-78914680D01*
X45140104Y-79914680D02*
X45473438Y-79438490D01*
X45711533Y-79914680D02*
X45711533Y-78914680D01*
X45330580Y-78914680D01*
X45235342Y-78962300D01*
X45187723Y-79009919D01*
X45140104Y-79105157D01*
X45140104Y-79248014D01*
X45187723Y-79343252D01*
X45235342Y-79390871D01*
X45330580Y-79438490D01*
X45711533Y-79438490D01*
D12*
X47392485Y-82104204D02*
X47659152Y-81723252D01*
X47849628Y-82104204D02*
X47849628Y-81304204D01*
X47544866Y-81304204D01*
X47468676Y-81342300D01*
X47430580Y-81380395D01*
X47392485Y-81456585D01*
X47392485Y-81570871D01*
X47430580Y-81647061D01*
X47468676Y-81685157D01*
X47544866Y-81723252D01*
X47849628Y-81723252D01*
X46630580Y-82104204D02*
X47087723Y-82104204D01*
X46859152Y-82104204D02*
X46859152Y-81304204D01*
X46935342Y-81418490D01*
X47011533Y-81494680D01*
X47087723Y-81532776D01*
X46363914Y-81304204D02*
X45868676Y-81304204D01*
X46135342Y-81608966D01*
X46021057Y-81608966D01*
X45944866Y-81647061D01*
X45906771Y-81685157D01*
X45868676Y-81761347D01*
X45868676Y-81951823D01*
X45906771Y-82028014D01*
X45944866Y-82066109D01*
X46021057Y-82104204D01*
X46249628Y-82104204D01*
X46325819Y-82066109D01*
X46363914Y-82028014D01*
%TO.C,R12*%
D11*
X47315761Y-43925319D02*
X47268142Y-43877700D01*
X47172904Y-43830080D01*
X46934809Y-43830080D01*
X46839571Y-43877700D01*
X46791952Y-43925319D01*
X46744333Y-44020557D01*
X46744333Y-44115795D01*
X46791952Y-44258652D01*
X47363380Y-44830080D01*
X46744333Y-44830080D01*
X46315761Y-44734842D02*
X46268142Y-44782461D01*
X46315761Y-44830080D01*
X46363380Y-44782461D01*
X46315761Y-44734842D01*
X46315761Y-44830080D01*
X45887190Y-43925319D02*
X45839571Y-43877700D01*
X45744333Y-43830080D01*
X45506238Y-43830080D01*
X45411000Y-43877700D01*
X45363380Y-43925319D01*
X45315761Y-44020557D01*
X45315761Y-44115795D01*
X45363380Y-44258652D01*
X45934809Y-44830080D01*
X45315761Y-44830080D01*
X44887190Y-44830080D02*
X44887190Y-43830080D01*
X44791952Y-44449128D02*
X44506238Y-44830080D01*
X44506238Y-44163414D02*
X44887190Y-44544366D01*
D12*
X46425285Y-42919604D02*
X46691952Y-42538652D01*
X46882428Y-42919604D02*
X46882428Y-42119604D01*
X46577666Y-42119604D01*
X46501476Y-42157700D01*
X46463380Y-42195795D01*
X46425285Y-42271985D01*
X46425285Y-42386271D01*
X46463380Y-42462461D01*
X46501476Y-42500557D01*
X46577666Y-42538652D01*
X46882428Y-42538652D01*
X45663380Y-42919604D02*
X46120523Y-42919604D01*
X45891952Y-42919604D02*
X45891952Y-42119604D01*
X45968142Y-42233890D01*
X46044333Y-42310080D01*
X46120523Y-42348176D01*
X45358619Y-42195795D02*
X45320523Y-42157700D01*
X45244333Y-42119604D01*
X45053857Y-42119604D01*
X44977666Y-42157700D01*
X44939571Y-42195795D01*
X44901476Y-42271985D01*
X44901476Y-42348176D01*
X44939571Y-42462461D01*
X45396714Y-42919604D01*
X44901476Y-42919604D01*
%TO.C,R11*%
D11*
X84380219Y-63047738D02*
X84332600Y-63095357D01*
X84284980Y-63190595D01*
X84284980Y-63428690D01*
X84332600Y-63523928D01*
X84380219Y-63571547D01*
X84475457Y-63619166D01*
X84570695Y-63619166D01*
X84713552Y-63571547D01*
X85284980Y-63000119D01*
X85284980Y-63619166D01*
X85189742Y-64047738D02*
X85237361Y-64095357D01*
X85284980Y-64047738D01*
X85237361Y-64000119D01*
X85189742Y-64047738D01*
X85284980Y-64047738D01*
X84380219Y-64476309D02*
X84332600Y-64523928D01*
X84284980Y-64619166D01*
X84284980Y-64857261D01*
X84332600Y-64952500D01*
X84380219Y-65000119D01*
X84475457Y-65047738D01*
X84570695Y-65047738D01*
X84713552Y-65000119D01*
X85284980Y-64428690D01*
X85284980Y-65047738D01*
X85284980Y-65476309D02*
X84284980Y-65476309D01*
X84904028Y-65571547D02*
X85284980Y-65857261D01*
X84618314Y-65857261D02*
X84999266Y-65476309D01*
D12*
X87014504Y-63938214D02*
X86633552Y-63671547D01*
X87014504Y-63481071D02*
X86214504Y-63481071D01*
X86214504Y-63785833D01*
X86252600Y-63862023D01*
X86290695Y-63900119D01*
X86366885Y-63938214D01*
X86481171Y-63938214D01*
X86557361Y-63900119D01*
X86595457Y-63862023D01*
X86633552Y-63785833D01*
X86633552Y-63481071D01*
X87014504Y-64700119D02*
X87014504Y-64242976D01*
X87014504Y-64471547D02*
X86214504Y-64471547D01*
X86328790Y-64395357D01*
X86404980Y-64319166D01*
X86443076Y-64242976D01*
X87014504Y-65462023D02*
X87014504Y-65004880D01*
X87014504Y-65233452D02*
X86214504Y-65233452D01*
X86328790Y-65157261D01*
X86404980Y-65081071D01*
X86443076Y-65004880D01*
%TO.C,R10*%
D11*
X79426219Y-63047738D02*
X79378600Y-63095357D01*
X79330980Y-63190595D01*
X79330980Y-63428690D01*
X79378600Y-63523928D01*
X79426219Y-63571547D01*
X79521457Y-63619166D01*
X79616695Y-63619166D01*
X79759552Y-63571547D01*
X80330980Y-63000119D01*
X80330980Y-63619166D01*
X80235742Y-64047738D02*
X80283361Y-64095357D01*
X80330980Y-64047738D01*
X80283361Y-64000119D01*
X80235742Y-64047738D01*
X80330980Y-64047738D01*
X79426219Y-64476309D02*
X79378600Y-64523928D01*
X79330980Y-64619166D01*
X79330980Y-64857261D01*
X79378600Y-64952500D01*
X79426219Y-65000119D01*
X79521457Y-65047738D01*
X79616695Y-65047738D01*
X79759552Y-65000119D01*
X80330980Y-64428690D01*
X80330980Y-65047738D01*
X80330980Y-65476309D02*
X79330980Y-65476309D01*
X79950028Y-65571547D02*
X80330980Y-65857261D01*
X79664314Y-65857261D02*
X80045266Y-65476309D01*
D12*
X82060504Y-63938214D02*
X81679552Y-63671547D01*
X82060504Y-63481071D02*
X81260504Y-63481071D01*
X81260504Y-63785833D01*
X81298600Y-63862023D01*
X81336695Y-63900119D01*
X81412885Y-63938214D01*
X81527171Y-63938214D01*
X81603361Y-63900119D01*
X81641457Y-63862023D01*
X81679552Y-63785833D01*
X81679552Y-63481071D01*
X82060504Y-64700119D02*
X82060504Y-64242976D01*
X82060504Y-64471547D02*
X81260504Y-64471547D01*
X81374790Y-64395357D01*
X81450980Y-64319166D01*
X81489076Y-64242976D01*
X81260504Y-65195357D02*
X81260504Y-65271547D01*
X81298600Y-65347738D01*
X81336695Y-65385833D01*
X81412885Y-65423928D01*
X81565266Y-65462023D01*
X81755742Y-65462023D01*
X81908123Y-65423928D01*
X81984314Y-65385833D01*
X82022409Y-65347738D01*
X82060504Y-65271547D01*
X82060504Y-65195357D01*
X82022409Y-65119166D01*
X81984314Y-65081071D01*
X81908123Y-65042976D01*
X81755742Y-65004880D01*
X81565266Y-65004880D01*
X81412885Y-65042976D01*
X81336695Y-65081071D01*
X81298600Y-65119166D01*
X81260504Y-65195357D01*
%TO.C,R9*%
D11*
X101287380Y-77573261D02*
X101287380Y-77001833D01*
X101287380Y-77287547D02*
X100287380Y-77287547D01*
X100430238Y-77192309D01*
X100525476Y-77097071D01*
X100573095Y-77001833D01*
X100287380Y-78192309D02*
X100287380Y-78287547D01*
X100335000Y-78382785D01*
X100382619Y-78430404D01*
X100477857Y-78478023D01*
X100668333Y-78525642D01*
X100906428Y-78525642D01*
X101096904Y-78478023D01*
X101192142Y-78430404D01*
X101239761Y-78382785D01*
X101287380Y-78287547D01*
X101287380Y-78192309D01*
X101239761Y-78097071D01*
X101192142Y-78049452D01*
X101096904Y-78001833D01*
X100906428Y-77954214D01*
X100668333Y-77954214D01*
X100477857Y-78001833D01*
X100382619Y-78049452D01*
X100335000Y-78097071D01*
X100287380Y-78192309D01*
X101287380Y-78954214D02*
X100287380Y-78954214D01*
X100906428Y-79049452D02*
X101287380Y-79335166D01*
X100620714Y-79335166D02*
X101001666Y-78954214D01*
D12*
X103016904Y-78035166D02*
X102635952Y-77768500D01*
X103016904Y-77578023D02*
X102216904Y-77578023D01*
X102216904Y-77882785D01*
X102255000Y-77958976D01*
X102293095Y-77997071D01*
X102369285Y-78035166D01*
X102483571Y-78035166D01*
X102559761Y-77997071D01*
X102597857Y-77958976D01*
X102635952Y-77882785D01*
X102635952Y-77578023D01*
X103016904Y-78416119D02*
X103016904Y-78568500D01*
X102978809Y-78644690D01*
X102940714Y-78682785D01*
X102826428Y-78758976D01*
X102674047Y-78797071D01*
X102369285Y-78797071D01*
X102293095Y-78758976D01*
X102255000Y-78720880D01*
X102216904Y-78644690D01*
X102216904Y-78492309D01*
X102255000Y-78416119D01*
X102293095Y-78378023D01*
X102369285Y-78339928D01*
X102559761Y-78339928D01*
X102635952Y-78378023D01*
X102674047Y-78416119D01*
X102712142Y-78492309D01*
X102712142Y-78644690D01*
X102674047Y-78720880D01*
X102635952Y-78758976D01*
X102559761Y-78797071D01*
%TO.C,R8*%
D11*
X96318219Y-78789738D02*
X96318219Y-79361166D01*
X96318219Y-79075452D02*
X97318219Y-79075452D01*
X97175361Y-79170690D01*
X97080123Y-79265928D01*
X97032504Y-79361166D01*
X97318219Y-78170690D02*
X97318219Y-78075452D01*
X97270600Y-77980214D01*
X97222980Y-77932595D01*
X97127742Y-77884976D01*
X96937266Y-77837357D01*
X96699171Y-77837357D01*
X96508695Y-77884976D01*
X96413457Y-77932595D01*
X96365838Y-77980214D01*
X96318219Y-78075452D01*
X96318219Y-78170690D01*
X96365838Y-78265928D01*
X96413457Y-78313547D01*
X96508695Y-78361166D01*
X96699171Y-78408785D01*
X96937266Y-78408785D01*
X97127742Y-78361166D01*
X97222980Y-78313547D01*
X97270600Y-78265928D01*
X97318219Y-78170690D01*
X96318219Y-77408785D02*
X97318219Y-77408785D01*
X96699171Y-77313547D02*
X96318219Y-77027833D01*
X96984885Y-77027833D02*
X96603933Y-77408785D01*
D12*
X98228695Y-78327833D02*
X98609647Y-78594500D01*
X98228695Y-78784976D02*
X99028695Y-78784976D01*
X99028695Y-78480214D01*
X98990600Y-78404023D01*
X98952504Y-78365928D01*
X98876314Y-78327833D01*
X98762028Y-78327833D01*
X98685838Y-78365928D01*
X98647742Y-78404023D01*
X98609647Y-78480214D01*
X98609647Y-78784976D01*
X98685838Y-77870690D02*
X98723933Y-77946880D01*
X98762028Y-77984976D01*
X98838219Y-78023071D01*
X98876314Y-78023071D01*
X98952504Y-77984976D01*
X98990600Y-77946880D01*
X99028695Y-77870690D01*
X99028695Y-77718309D01*
X98990600Y-77642119D01*
X98952504Y-77604023D01*
X98876314Y-77565928D01*
X98838219Y-77565928D01*
X98762028Y-77604023D01*
X98723933Y-77642119D01*
X98685838Y-77718309D01*
X98685838Y-77870690D01*
X98647742Y-77946880D01*
X98609647Y-77984976D01*
X98533457Y-78023071D01*
X98381076Y-78023071D01*
X98304885Y-77984976D01*
X98266790Y-77946880D01*
X98228695Y-77870690D01*
X98228695Y-77718309D01*
X98266790Y-77642119D01*
X98304885Y-77604023D01*
X98381076Y-77565928D01*
X98533457Y-77565928D01*
X98609647Y-77604023D01*
X98647742Y-77642119D01*
X98685838Y-77718309D01*
%TO.C,R7*%
D11*
X100671980Y-63857261D02*
X100671980Y-63285833D01*
X100671980Y-63571547D02*
X99671980Y-63571547D01*
X99814838Y-63476309D01*
X99910076Y-63381071D01*
X99957695Y-63285833D01*
X99671980Y-64476309D02*
X99671980Y-64571547D01*
X99719600Y-64666785D01*
X99767219Y-64714404D01*
X99862457Y-64762023D01*
X100052933Y-64809642D01*
X100291028Y-64809642D01*
X100481504Y-64762023D01*
X100576742Y-64714404D01*
X100624361Y-64666785D01*
X100671980Y-64571547D01*
X100671980Y-64476309D01*
X100624361Y-64381071D01*
X100576742Y-64333452D01*
X100481504Y-64285833D01*
X100291028Y-64238214D01*
X100052933Y-64238214D01*
X99862457Y-64285833D01*
X99767219Y-64333452D01*
X99719600Y-64381071D01*
X99671980Y-64476309D01*
X100671980Y-65238214D02*
X99671980Y-65238214D01*
X100291028Y-65333452D02*
X100671980Y-65619166D01*
X100005314Y-65619166D02*
X100386266Y-65238214D01*
D12*
X98761504Y-64319166D02*
X98380552Y-64052500D01*
X98761504Y-63862023D02*
X97961504Y-63862023D01*
X97961504Y-64166785D01*
X97999600Y-64242976D01*
X98037695Y-64281071D01*
X98113885Y-64319166D01*
X98228171Y-64319166D01*
X98304361Y-64281071D01*
X98342457Y-64242976D01*
X98380552Y-64166785D01*
X98380552Y-63862023D01*
X97961504Y-64585833D02*
X97961504Y-65119166D01*
X98761504Y-64776309D01*
%TO.C,R6*%
D11*
X95654980Y-63857261D02*
X95654980Y-63285833D01*
X95654980Y-63571547D02*
X94654980Y-63571547D01*
X94797838Y-63476309D01*
X94893076Y-63381071D01*
X94940695Y-63285833D01*
X94654980Y-64476309D02*
X94654980Y-64571547D01*
X94702600Y-64666785D01*
X94750219Y-64714404D01*
X94845457Y-64762023D01*
X95035933Y-64809642D01*
X95274028Y-64809642D01*
X95464504Y-64762023D01*
X95559742Y-64714404D01*
X95607361Y-64666785D01*
X95654980Y-64571547D01*
X95654980Y-64476309D01*
X95607361Y-64381071D01*
X95559742Y-64333452D01*
X95464504Y-64285833D01*
X95274028Y-64238214D01*
X95035933Y-64238214D01*
X94845457Y-64285833D01*
X94750219Y-64333452D01*
X94702600Y-64381071D01*
X94654980Y-64476309D01*
X95654980Y-65238214D02*
X94654980Y-65238214D01*
X95274028Y-65333452D02*
X95654980Y-65619166D01*
X94988314Y-65619166D02*
X95369266Y-65238214D01*
D12*
X93744504Y-64319166D02*
X93363552Y-64052500D01*
X93744504Y-63862023D02*
X92944504Y-63862023D01*
X92944504Y-64166785D01*
X92982600Y-64242976D01*
X93020695Y-64281071D01*
X93096885Y-64319166D01*
X93211171Y-64319166D01*
X93287361Y-64281071D01*
X93325457Y-64242976D01*
X93363552Y-64166785D01*
X93363552Y-63862023D01*
X92944504Y-65004880D02*
X92944504Y-64852500D01*
X92982600Y-64776309D01*
X93020695Y-64738214D01*
X93134980Y-64662023D01*
X93287361Y-64623928D01*
X93592123Y-64623928D01*
X93668314Y-64662023D01*
X93706409Y-64700119D01*
X93744504Y-64776309D01*
X93744504Y-64928690D01*
X93706409Y-65004880D01*
X93668314Y-65042976D01*
X93592123Y-65081071D01*
X93401647Y-65081071D01*
X93325457Y-65042976D01*
X93287361Y-65004880D01*
X93249266Y-64928690D01*
X93249266Y-64776309D01*
X93287361Y-64700119D01*
X93325457Y-64662023D01*
X93401647Y-64623928D01*
%TO.C,R5*%
D11*
X122495380Y-77700261D02*
X122495380Y-77128833D01*
X122495380Y-77414547D02*
X121495380Y-77414547D01*
X121638238Y-77319309D01*
X121733476Y-77224071D01*
X121781095Y-77128833D01*
X121495380Y-78319309D02*
X121495380Y-78414547D01*
X121543000Y-78509785D01*
X121590619Y-78557404D01*
X121685857Y-78605023D01*
X121876333Y-78652642D01*
X122114428Y-78652642D01*
X122304904Y-78605023D01*
X122400142Y-78557404D01*
X122447761Y-78509785D01*
X122495380Y-78414547D01*
X122495380Y-78319309D01*
X122447761Y-78224071D01*
X122400142Y-78176452D01*
X122304904Y-78128833D01*
X122114428Y-78081214D01*
X121876333Y-78081214D01*
X121685857Y-78128833D01*
X121590619Y-78176452D01*
X121543000Y-78224071D01*
X121495380Y-78319309D01*
X122495380Y-79081214D02*
X121495380Y-79081214D01*
X122114428Y-79176452D02*
X122495380Y-79462166D01*
X121828714Y-79462166D02*
X122209666Y-79081214D01*
D12*
X124224904Y-78162166D02*
X123843952Y-77895500D01*
X124224904Y-77705023D02*
X123424904Y-77705023D01*
X123424904Y-78009785D01*
X123463000Y-78085976D01*
X123501095Y-78124071D01*
X123577285Y-78162166D01*
X123691571Y-78162166D01*
X123767761Y-78124071D01*
X123805857Y-78085976D01*
X123843952Y-78009785D01*
X123843952Y-77705023D01*
X123424904Y-78885976D02*
X123424904Y-78505023D01*
X123805857Y-78466928D01*
X123767761Y-78505023D01*
X123729666Y-78581214D01*
X123729666Y-78771690D01*
X123767761Y-78847880D01*
X123805857Y-78885976D01*
X123882047Y-78924071D01*
X124072523Y-78924071D01*
X124148714Y-78885976D01*
X124186809Y-78847880D01*
X124224904Y-78771690D01*
X124224904Y-78581214D01*
X124186809Y-78505023D01*
X124148714Y-78466928D01*
%TO.C,R4*%
D11*
X62756714Y-34691795D02*
X63423380Y-34691795D01*
X62375761Y-34453700D02*
X63090047Y-34215604D01*
X63090047Y-34834652D01*
X62423380Y-35120366D02*
X62423380Y-35787033D01*
X63423380Y-35358461D01*
X62423380Y-36358461D02*
X62423380Y-36453700D01*
X62471000Y-36548938D01*
X62518619Y-36596557D01*
X62613857Y-36644176D01*
X62804333Y-36691795D01*
X63042428Y-36691795D01*
X63232904Y-36644176D01*
X63328142Y-36596557D01*
X63375761Y-36548938D01*
X63423380Y-36453700D01*
X63423380Y-36358461D01*
X63375761Y-36263223D01*
X63328142Y-36215604D01*
X63232904Y-36167985D01*
X63042428Y-36120366D01*
X62804333Y-36120366D01*
X62613857Y-36167985D01*
X62518619Y-36215604D01*
X62471000Y-36263223D01*
X62423380Y-36358461D01*
X63423380Y-37691795D02*
X62947190Y-37358461D01*
X63423380Y-37120366D02*
X62423380Y-37120366D01*
X62423380Y-37501319D01*
X62471000Y-37596557D01*
X62518619Y-37644176D01*
X62613857Y-37691795D01*
X62756714Y-37691795D01*
X62851952Y-37644176D01*
X62899571Y-37596557D01*
X62947190Y-37501319D01*
X62947190Y-37120366D01*
D12*
X61512904Y-35820366D02*
X61131952Y-35553700D01*
X61512904Y-35363223D02*
X60712904Y-35363223D01*
X60712904Y-35667985D01*
X60751000Y-35744176D01*
X60789095Y-35782271D01*
X60865285Y-35820366D01*
X60979571Y-35820366D01*
X61055761Y-35782271D01*
X61093857Y-35744176D01*
X61131952Y-35667985D01*
X61131952Y-35363223D01*
X60979571Y-36506080D02*
X61512904Y-36506080D01*
X60674809Y-36315604D02*
X61246238Y-36125128D01*
X61246238Y-36620366D01*
%TO.C,R3*%
D11*
X66946714Y-34691795D02*
X67613380Y-34691795D01*
X66565761Y-34453700D02*
X67280047Y-34215604D01*
X67280047Y-34834652D01*
X66613380Y-35120366D02*
X66613380Y-35787033D01*
X67613380Y-35358461D01*
X66613380Y-36358461D02*
X66613380Y-36453700D01*
X66661000Y-36548938D01*
X66708619Y-36596557D01*
X66803857Y-36644176D01*
X66994333Y-36691795D01*
X67232428Y-36691795D01*
X67422904Y-36644176D01*
X67518142Y-36596557D01*
X67565761Y-36548938D01*
X67613380Y-36453700D01*
X67613380Y-36358461D01*
X67565761Y-36263223D01*
X67518142Y-36215604D01*
X67422904Y-36167985D01*
X67232428Y-36120366D01*
X66994333Y-36120366D01*
X66803857Y-36167985D01*
X66708619Y-36215604D01*
X66661000Y-36263223D01*
X66613380Y-36358461D01*
X67613380Y-37691795D02*
X67137190Y-37358461D01*
X67613380Y-37120366D02*
X66613380Y-37120366D01*
X66613380Y-37501319D01*
X66661000Y-37596557D01*
X66708619Y-37644176D01*
X66803857Y-37691795D01*
X66946714Y-37691795D01*
X67041952Y-37644176D01*
X67089571Y-37596557D01*
X67137190Y-37501319D01*
X67137190Y-37120366D01*
D12*
X65702904Y-35820366D02*
X65321952Y-35553700D01*
X65702904Y-35363223D02*
X64902904Y-35363223D01*
X64902904Y-35667985D01*
X64941000Y-35744176D01*
X64979095Y-35782271D01*
X65055285Y-35820366D01*
X65169571Y-35820366D01*
X65245761Y-35782271D01*
X65283857Y-35744176D01*
X65321952Y-35667985D01*
X65321952Y-35363223D01*
X64902904Y-36087033D02*
X64902904Y-36582271D01*
X65207666Y-36315604D01*
X65207666Y-36429890D01*
X65245761Y-36506080D01*
X65283857Y-36544176D01*
X65360047Y-36582271D01*
X65550523Y-36582271D01*
X65626714Y-36544176D01*
X65664809Y-36506080D01*
X65702904Y-36429890D01*
X65702904Y-36201319D01*
X65664809Y-36125128D01*
X65626714Y-36087033D01*
%TO.C,R2*%
D11*
X58501714Y-34691795D02*
X59168380Y-34691795D01*
X58120761Y-34453700D02*
X58835047Y-34215604D01*
X58835047Y-34834652D01*
X58168380Y-35120366D02*
X58168380Y-35787033D01*
X59168380Y-35358461D01*
X58168380Y-36358461D02*
X58168380Y-36453700D01*
X58216000Y-36548938D01*
X58263619Y-36596557D01*
X58358857Y-36644176D01*
X58549333Y-36691795D01*
X58787428Y-36691795D01*
X58977904Y-36644176D01*
X59073142Y-36596557D01*
X59120761Y-36548938D01*
X59168380Y-36453700D01*
X59168380Y-36358461D01*
X59120761Y-36263223D01*
X59073142Y-36215604D01*
X58977904Y-36167985D01*
X58787428Y-36120366D01*
X58549333Y-36120366D01*
X58358857Y-36167985D01*
X58263619Y-36215604D01*
X58216000Y-36263223D01*
X58168380Y-36358461D01*
X59168380Y-37691795D02*
X58692190Y-37358461D01*
X59168380Y-37120366D02*
X58168380Y-37120366D01*
X58168380Y-37501319D01*
X58216000Y-37596557D01*
X58263619Y-37644176D01*
X58358857Y-37691795D01*
X58501714Y-37691795D01*
X58596952Y-37644176D01*
X58644571Y-37596557D01*
X58692190Y-37501319D01*
X58692190Y-37120366D01*
D12*
X57257904Y-35820366D02*
X56876952Y-35553700D01*
X57257904Y-35363223D02*
X56457904Y-35363223D01*
X56457904Y-35667985D01*
X56496000Y-35744176D01*
X56534095Y-35782271D01*
X56610285Y-35820366D01*
X56724571Y-35820366D01*
X56800761Y-35782271D01*
X56838857Y-35744176D01*
X56876952Y-35667985D01*
X56876952Y-35363223D01*
X56534095Y-36125128D02*
X56496000Y-36163223D01*
X56457904Y-36239414D01*
X56457904Y-36429890D01*
X56496000Y-36506080D01*
X56534095Y-36544176D01*
X56610285Y-36582271D01*
X56686476Y-36582271D01*
X56800761Y-36544176D01*
X57257904Y-36087033D01*
X57257904Y-36582271D01*
%TO.C,R1*%
D11*
X54691714Y-34691795D02*
X55358380Y-34691795D01*
X54310761Y-34453700D02*
X55025047Y-34215604D01*
X55025047Y-34834652D01*
X54358380Y-35120366D02*
X54358380Y-35787033D01*
X55358380Y-35358461D01*
X54358380Y-36358461D02*
X54358380Y-36453700D01*
X54406000Y-36548938D01*
X54453619Y-36596557D01*
X54548857Y-36644176D01*
X54739333Y-36691795D01*
X54977428Y-36691795D01*
X55167904Y-36644176D01*
X55263142Y-36596557D01*
X55310761Y-36548938D01*
X55358380Y-36453700D01*
X55358380Y-36358461D01*
X55310761Y-36263223D01*
X55263142Y-36215604D01*
X55167904Y-36167985D01*
X54977428Y-36120366D01*
X54739333Y-36120366D01*
X54548857Y-36167985D01*
X54453619Y-36215604D01*
X54406000Y-36263223D01*
X54358380Y-36358461D01*
X55358380Y-37691795D02*
X54882190Y-37358461D01*
X55358380Y-37120366D02*
X54358380Y-37120366D01*
X54358380Y-37501319D01*
X54406000Y-37596557D01*
X54453619Y-37644176D01*
X54548857Y-37691795D01*
X54691714Y-37691795D01*
X54786952Y-37644176D01*
X54834571Y-37596557D01*
X54882190Y-37501319D01*
X54882190Y-37120366D01*
D12*
X53447904Y-35820366D02*
X53066952Y-35553700D01*
X53447904Y-35363223D02*
X52647904Y-35363223D01*
X52647904Y-35667985D01*
X52686000Y-35744176D01*
X52724095Y-35782271D01*
X52800285Y-35820366D01*
X52914571Y-35820366D01*
X52990761Y-35782271D01*
X53028857Y-35744176D01*
X53066952Y-35667985D01*
X53066952Y-35363223D01*
X53447904Y-36582271D02*
X53447904Y-36125128D01*
X53447904Y-36353700D02*
X52647904Y-36353700D01*
X52762190Y-36277509D01*
X52838380Y-36201319D01*
X52876476Y-36125128D01*
%TO.C,J4*%
D11*
X178919142Y-212364904D02*
X178966761Y-212317285D01*
X179014380Y-212174428D01*
X179014380Y-212079190D01*
X178966761Y-211936333D01*
X178871523Y-211841095D01*
X178776285Y-211793476D01*
X178585809Y-211745857D01*
X178442952Y-211745857D01*
X178252476Y-211793476D01*
X178157238Y-211841095D01*
X178062000Y-211936333D01*
X178014380Y-212079190D01*
X178014380Y-212174428D01*
X178062000Y-212317285D01*
X178109619Y-212364904D01*
X179014380Y-212936333D02*
X178966761Y-212841095D01*
X178919142Y-212793476D01*
X178823904Y-212745857D01*
X178538190Y-212745857D01*
X178442952Y-212793476D01*
X178395333Y-212841095D01*
X178347714Y-212936333D01*
X178347714Y-213079190D01*
X178395333Y-213174428D01*
X178442952Y-213222047D01*
X178538190Y-213269666D01*
X178823904Y-213269666D01*
X178919142Y-213222047D01*
X178966761Y-213174428D01*
X179014380Y-213079190D01*
X179014380Y-212936333D01*
X178347714Y-213698238D02*
X179014380Y-213698238D01*
X178442952Y-213698238D02*
X178395333Y-213745857D01*
X178347714Y-213841095D01*
X178347714Y-213983952D01*
X178395333Y-214079190D01*
X178490571Y-214126809D01*
X179014380Y-214126809D01*
X178347714Y-214603000D02*
X179014380Y-214603000D01*
X178442952Y-214603000D02*
X178395333Y-214650619D01*
X178347714Y-214745857D01*
X178347714Y-214888714D01*
X178395333Y-214983952D01*
X178490571Y-215031571D01*
X179014380Y-215031571D01*
X179109619Y-215269666D02*
X179109619Y-216031571D01*
X178014380Y-216460142D02*
X178014380Y-216555380D01*
X178062000Y-216650619D01*
X178109619Y-216698238D01*
X178204857Y-216745857D01*
X178395333Y-216793476D01*
X178633428Y-216793476D01*
X178823904Y-216745857D01*
X178919142Y-216698238D01*
X178966761Y-216650619D01*
X179014380Y-216555380D01*
X179014380Y-216460142D01*
X178966761Y-216364904D01*
X178919142Y-216317285D01*
X178823904Y-216269666D01*
X178633428Y-216222047D01*
X178395333Y-216222047D01*
X178204857Y-216269666D01*
X178109619Y-216317285D01*
X178062000Y-216364904D01*
X178014380Y-216460142D01*
X178109619Y-217174428D02*
X178062000Y-217222047D01*
X178014380Y-217317285D01*
X178014380Y-217555380D01*
X178062000Y-217650619D01*
X178109619Y-217698238D01*
X178204857Y-217745857D01*
X178300095Y-217745857D01*
X178442952Y-217698238D01*
X179014380Y-217126809D01*
X179014380Y-217745857D01*
X179014380Y-218079190D02*
X178347714Y-218603000D01*
X178347714Y-218079190D02*
X179014380Y-218603000D01*
X178014380Y-219174428D02*
X178014380Y-219269666D01*
X178062000Y-219364904D01*
X178109619Y-219412523D01*
X178204857Y-219460142D01*
X178395333Y-219507761D01*
X178633428Y-219507761D01*
X178823904Y-219460142D01*
X178919142Y-219412523D01*
X178966761Y-219364904D01*
X179014380Y-219269666D01*
X179014380Y-219174428D01*
X178966761Y-219079190D01*
X178919142Y-219031571D01*
X178823904Y-218983952D01*
X178633428Y-218936333D01*
X178395333Y-218936333D01*
X178204857Y-218983952D01*
X178109619Y-219031571D01*
X178062000Y-219079190D01*
X178014380Y-219174428D01*
X179014380Y-220460142D02*
X179014380Y-219888714D01*
X179014380Y-220174428D02*
X178014380Y-220174428D01*
X178157238Y-220079190D01*
X178252476Y-219983952D01*
X178300095Y-219888714D01*
X172934380Y-215769666D02*
X173648666Y-215769666D01*
X173791523Y-215722047D01*
X173886761Y-215626809D01*
X173934380Y-215483952D01*
X173934380Y-215388714D01*
X173267714Y-216674428D02*
X173934380Y-216674428D01*
X172886761Y-216436333D02*
X173601047Y-216198238D01*
X173601047Y-216817285D01*
%TO.C,J5*%
X131591742Y-67839104D02*
X131639361Y-67791485D01*
X131686980Y-67648628D01*
X131686980Y-67553390D01*
X131639361Y-67410533D01*
X131544123Y-67315295D01*
X131448885Y-67267676D01*
X131258409Y-67220057D01*
X131115552Y-67220057D01*
X130925076Y-67267676D01*
X130829838Y-67315295D01*
X130734600Y-67410533D01*
X130686980Y-67553390D01*
X130686980Y-67648628D01*
X130734600Y-67791485D01*
X130782219Y-67839104D01*
X131686980Y-68410533D02*
X131639361Y-68315295D01*
X131591742Y-68267676D01*
X131496504Y-68220057D01*
X131210790Y-68220057D01*
X131115552Y-68267676D01*
X131067933Y-68315295D01*
X131020314Y-68410533D01*
X131020314Y-68553390D01*
X131067933Y-68648628D01*
X131115552Y-68696247D01*
X131210790Y-68743866D01*
X131496504Y-68743866D01*
X131591742Y-68696247D01*
X131639361Y-68648628D01*
X131686980Y-68553390D01*
X131686980Y-68410533D01*
X131020314Y-69172438D02*
X131686980Y-69172438D01*
X131115552Y-69172438D02*
X131067933Y-69220057D01*
X131020314Y-69315295D01*
X131020314Y-69458152D01*
X131067933Y-69553390D01*
X131163171Y-69601009D01*
X131686980Y-69601009D01*
X131020314Y-70077200D02*
X131686980Y-70077200D01*
X131115552Y-70077200D02*
X131067933Y-70124819D01*
X131020314Y-70220057D01*
X131020314Y-70362914D01*
X131067933Y-70458152D01*
X131163171Y-70505771D01*
X131686980Y-70505771D01*
X131782219Y-70743866D02*
X131782219Y-71505771D01*
X130686980Y-71934342D02*
X130686980Y-72029580D01*
X130734600Y-72124819D01*
X130782219Y-72172438D01*
X130877457Y-72220057D01*
X131067933Y-72267676D01*
X131306028Y-72267676D01*
X131496504Y-72220057D01*
X131591742Y-72172438D01*
X131639361Y-72124819D01*
X131686980Y-72029580D01*
X131686980Y-71934342D01*
X131639361Y-71839104D01*
X131591742Y-71791485D01*
X131496504Y-71743866D01*
X131306028Y-71696247D01*
X131067933Y-71696247D01*
X130877457Y-71743866D01*
X130782219Y-71791485D01*
X130734600Y-71839104D01*
X130686980Y-71934342D01*
X130782219Y-72648628D02*
X130734600Y-72696247D01*
X130686980Y-72791485D01*
X130686980Y-73029580D01*
X130734600Y-73124819D01*
X130782219Y-73172438D01*
X130877457Y-73220057D01*
X130972695Y-73220057D01*
X131115552Y-73172438D01*
X131686980Y-72601009D01*
X131686980Y-73220057D01*
X131686980Y-73553390D02*
X131020314Y-74077200D01*
X131020314Y-73553390D02*
X131686980Y-74077200D01*
X130686980Y-74648628D02*
X130686980Y-74743866D01*
X130734600Y-74839104D01*
X130782219Y-74886723D01*
X130877457Y-74934342D01*
X131067933Y-74981961D01*
X131306028Y-74981961D01*
X131496504Y-74934342D01*
X131591742Y-74886723D01*
X131639361Y-74839104D01*
X131686980Y-74743866D01*
X131686980Y-74648628D01*
X131639361Y-74553390D01*
X131591742Y-74505771D01*
X131496504Y-74458152D01*
X131306028Y-74410533D01*
X131067933Y-74410533D01*
X130877457Y-74458152D01*
X130782219Y-74505771D01*
X130734600Y-74553390D01*
X130686980Y-74648628D01*
X131686980Y-75934342D02*
X131686980Y-75362914D01*
X131686980Y-75648628D02*
X130686980Y-75648628D01*
X130829838Y-75553390D01*
X130925076Y-75458152D01*
X130972695Y-75362914D01*
X105107933Y-71029580D02*
X105107933Y-71743866D01*
X105155552Y-71886723D01*
X105250790Y-71981961D01*
X105393647Y-72029580D01*
X105488885Y-72029580D01*
X104155552Y-71029580D02*
X104631742Y-71029580D01*
X104679361Y-71505771D01*
X104631742Y-71458152D01*
X104536504Y-71410533D01*
X104298409Y-71410533D01*
X104203171Y-71458152D01*
X104155552Y-71505771D01*
X104107933Y-71601009D01*
X104107933Y-71839104D01*
X104155552Y-71934342D01*
X104203171Y-71981961D01*
X104298409Y-72029580D01*
X104536504Y-72029580D01*
X104631742Y-71981961D01*
X104679361Y-71934342D01*
%TO.C,J2*%
X33059142Y-210726904D02*
X33106761Y-210679285D01*
X33154380Y-210536428D01*
X33154380Y-210441190D01*
X33106761Y-210298333D01*
X33011523Y-210203095D01*
X32916285Y-210155476D01*
X32725809Y-210107857D01*
X32582952Y-210107857D01*
X32392476Y-210155476D01*
X32297238Y-210203095D01*
X32202000Y-210298333D01*
X32154380Y-210441190D01*
X32154380Y-210536428D01*
X32202000Y-210679285D01*
X32249619Y-210726904D01*
X33154380Y-211298333D02*
X33106761Y-211203095D01*
X33059142Y-211155476D01*
X32963904Y-211107857D01*
X32678190Y-211107857D01*
X32582952Y-211155476D01*
X32535333Y-211203095D01*
X32487714Y-211298333D01*
X32487714Y-211441190D01*
X32535333Y-211536428D01*
X32582952Y-211584047D01*
X32678190Y-211631666D01*
X32963904Y-211631666D01*
X33059142Y-211584047D01*
X33106761Y-211536428D01*
X33154380Y-211441190D01*
X33154380Y-211298333D01*
X32487714Y-212060238D02*
X33154380Y-212060238D01*
X32582952Y-212060238D02*
X32535333Y-212107857D01*
X32487714Y-212203095D01*
X32487714Y-212345952D01*
X32535333Y-212441190D01*
X32630571Y-212488809D01*
X33154380Y-212488809D01*
X32487714Y-212965000D02*
X33154380Y-212965000D01*
X32582952Y-212965000D02*
X32535333Y-213012619D01*
X32487714Y-213107857D01*
X32487714Y-213250714D01*
X32535333Y-213345952D01*
X32630571Y-213393571D01*
X33154380Y-213393571D01*
X33249619Y-213631666D02*
X33249619Y-214393571D01*
X32154380Y-214822142D02*
X32154380Y-214917380D01*
X32202000Y-215012619D01*
X32249619Y-215060238D01*
X32344857Y-215107857D01*
X32535333Y-215155476D01*
X32773428Y-215155476D01*
X32963904Y-215107857D01*
X33059142Y-215060238D01*
X33106761Y-215012619D01*
X33154380Y-214917380D01*
X33154380Y-214822142D01*
X33106761Y-214726904D01*
X33059142Y-214679285D01*
X32963904Y-214631666D01*
X32773428Y-214584047D01*
X32535333Y-214584047D01*
X32344857Y-214631666D01*
X32249619Y-214679285D01*
X32202000Y-214726904D01*
X32154380Y-214822142D01*
X32249619Y-215536428D02*
X32202000Y-215584047D01*
X32154380Y-215679285D01*
X32154380Y-215917380D01*
X32202000Y-216012619D01*
X32249619Y-216060238D01*
X32344857Y-216107857D01*
X32440095Y-216107857D01*
X32582952Y-216060238D01*
X33154380Y-215488809D01*
X33154380Y-216107857D01*
X33154380Y-216441190D02*
X32487714Y-216965000D01*
X32487714Y-216441190D02*
X33154380Y-216965000D01*
X32154380Y-217536428D02*
X32154380Y-217631666D01*
X32202000Y-217726904D01*
X32249619Y-217774523D01*
X32344857Y-217822142D01*
X32535333Y-217869761D01*
X32773428Y-217869761D01*
X32963904Y-217822142D01*
X33059142Y-217774523D01*
X33106761Y-217726904D01*
X33154380Y-217631666D01*
X33154380Y-217536428D01*
X33106761Y-217441190D01*
X33059142Y-217393571D01*
X32963904Y-217345952D01*
X32773428Y-217298333D01*
X32535333Y-217298333D01*
X32344857Y-217345952D01*
X32249619Y-217393571D01*
X32202000Y-217441190D01*
X32154380Y-217536428D01*
X33154380Y-218822142D02*
X33154380Y-218250714D01*
X33154380Y-218536428D02*
X32154380Y-218536428D01*
X32297238Y-218441190D01*
X32392476Y-218345952D01*
X32440095Y-218250714D01*
X37234380Y-214131666D02*
X37948666Y-214131666D01*
X38091523Y-214084047D01*
X38186761Y-213988809D01*
X38234380Y-213845952D01*
X38234380Y-213750714D01*
X37329619Y-214560238D02*
X37282000Y-214607857D01*
X37234380Y-214703095D01*
X37234380Y-214941190D01*
X37282000Y-215036428D01*
X37329619Y-215084047D01*
X37424857Y-215131666D01*
X37520095Y-215131666D01*
X37662952Y-215084047D01*
X38234380Y-214512619D01*
X38234380Y-215131666D01*
%TO.C,J1*%
X33059142Y-221330904D02*
X33106761Y-221283285D01*
X33154380Y-221140428D01*
X33154380Y-221045190D01*
X33106761Y-220902333D01*
X33011523Y-220807095D01*
X32916285Y-220759476D01*
X32725809Y-220711857D01*
X32582952Y-220711857D01*
X32392476Y-220759476D01*
X32297238Y-220807095D01*
X32202000Y-220902333D01*
X32154380Y-221045190D01*
X32154380Y-221140428D01*
X32202000Y-221283285D01*
X32249619Y-221330904D01*
X33154380Y-221902333D02*
X33106761Y-221807095D01*
X33059142Y-221759476D01*
X32963904Y-221711857D01*
X32678190Y-221711857D01*
X32582952Y-221759476D01*
X32535333Y-221807095D01*
X32487714Y-221902333D01*
X32487714Y-222045190D01*
X32535333Y-222140428D01*
X32582952Y-222188047D01*
X32678190Y-222235666D01*
X32963904Y-222235666D01*
X33059142Y-222188047D01*
X33106761Y-222140428D01*
X33154380Y-222045190D01*
X33154380Y-221902333D01*
X32487714Y-222664238D02*
X33154380Y-222664238D01*
X32582952Y-222664238D02*
X32535333Y-222711857D01*
X32487714Y-222807095D01*
X32487714Y-222949952D01*
X32535333Y-223045190D01*
X32630571Y-223092809D01*
X33154380Y-223092809D01*
X32487714Y-223569000D02*
X33154380Y-223569000D01*
X32582952Y-223569000D02*
X32535333Y-223616619D01*
X32487714Y-223711857D01*
X32487714Y-223854714D01*
X32535333Y-223949952D01*
X32630571Y-223997571D01*
X33154380Y-223997571D01*
X33249619Y-224235666D02*
X33249619Y-224997571D01*
X32154380Y-225426142D02*
X32154380Y-225521380D01*
X32202000Y-225616619D01*
X32249619Y-225664238D01*
X32344857Y-225711857D01*
X32535333Y-225759476D01*
X32773428Y-225759476D01*
X32963904Y-225711857D01*
X33059142Y-225664238D01*
X33106761Y-225616619D01*
X33154380Y-225521380D01*
X33154380Y-225426142D01*
X33106761Y-225330904D01*
X33059142Y-225283285D01*
X32963904Y-225235666D01*
X32773428Y-225188047D01*
X32535333Y-225188047D01*
X32344857Y-225235666D01*
X32249619Y-225283285D01*
X32202000Y-225330904D01*
X32154380Y-225426142D01*
X32249619Y-226140428D02*
X32202000Y-226188047D01*
X32154380Y-226283285D01*
X32154380Y-226521380D01*
X32202000Y-226616619D01*
X32249619Y-226664238D01*
X32344857Y-226711857D01*
X32440095Y-226711857D01*
X32582952Y-226664238D01*
X33154380Y-226092809D01*
X33154380Y-226711857D01*
X33154380Y-227045190D02*
X32487714Y-227569000D01*
X32487714Y-227045190D02*
X33154380Y-227569000D01*
X32154380Y-228140428D02*
X32154380Y-228235666D01*
X32202000Y-228330904D01*
X32249619Y-228378523D01*
X32344857Y-228426142D01*
X32535333Y-228473761D01*
X32773428Y-228473761D01*
X32963904Y-228426142D01*
X33059142Y-228378523D01*
X33106761Y-228330904D01*
X33154380Y-228235666D01*
X33154380Y-228140428D01*
X33106761Y-228045190D01*
X33059142Y-227997571D01*
X32963904Y-227949952D01*
X32773428Y-227902333D01*
X32535333Y-227902333D01*
X32344857Y-227949952D01*
X32249619Y-227997571D01*
X32202000Y-228045190D01*
X32154380Y-228140428D01*
X33154380Y-229426142D02*
X33154380Y-228854714D01*
X33154380Y-229140428D02*
X32154380Y-229140428D01*
X32297238Y-229045190D01*
X32392476Y-228949952D01*
X32440095Y-228854714D01*
X37234380Y-224735666D02*
X37948666Y-224735666D01*
X38091523Y-224688047D01*
X38186761Y-224592809D01*
X38234380Y-224449952D01*
X38234380Y-224354714D01*
X38234380Y-225735666D02*
X38234380Y-225164238D01*
X38234380Y-225449952D02*
X37234380Y-225449952D01*
X37377238Y-225354714D01*
X37472476Y-225259476D01*
X37520095Y-225164238D01*
%TO.C,D4*%
D12*
X55505276Y-27844704D02*
X55505276Y-27044704D01*
X55314800Y-27044704D01*
X55200514Y-27082800D01*
X55124323Y-27158990D01*
X55086228Y-27235180D01*
X55048133Y-27387561D01*
X55048133Y-27501847D01*
X55086228Y-27654228D01*
X55124323Y-27730419D01*
X55200514Y-27806609D01*
X55314800Y-27844704D01*
X55505276Y-27844704D01*
X54362419Y-27311371D02*
X54362419Y-27844704D01*
X54552895Y-27006609D02*
X54743371Y-27578038D01*
X54248133Y-27578038D01*
%TO.C,D3*%
X62375476Y-27806604D02*
X62375476Y-27006604D01*
X62185000Y-27006604D01*
X62070714Y-27044700D01*
X61994523Y-27120890D01*
X61956428Y-27197080D01*
X61918333Y-27349461D01*
X61918333Y-27463747D01*
X61956428Y-27616128D01*
X61994523Y-27692319D01*
X62070714Y-27768509D01*
X62185000Y-27806604D01*
X62375476Y-27806604D01*
X61651666Y-27006604D02*
X61156428Y-27006604D01*
X61423095Y-27311366D01*
X61308809Y-27311366D01*
X61232619Y-27349461D01*
X61194523Y-27387557D01*
X61156428Y-27463747D01*
X61156428Y-27654223D01*
X61194523Y-27730414D01*
X61232619Y-27768509D01*
X61308809Y-27806604D01*
X61537380Y-27806604D01*
X61613571Y-27768509D01*
X61651666Y-27730414D01*
%TO.C,D2*%
X48545676Y-27793904D02*
X48545676Y-26993904D01*
X48355200Y-26993904D01*
X48240914Y-27032000D01*
X48164723Y-27108190D01*
X48126628Y-27184380D01*
X48088533Y-27336761D01*
X48088533Y-27451047D01*
X48126628Y-27603428D01*
X48164723Y-27679619D01*
X48240914Y-27755809D01*
X48355200Y-27793904D01*
X48545676Y-27793904D01*
X47783771Y-27070095D02*
X47745676Y-27032000D01*
X47669485Y-26993904D01*
X47479009Y-26993904D01*
X47402819Y-27032000D01*
X47364723Y-27070095D01*
X47326628Y-27146285D01*
X47326628Y-27222476D01*
X47364723Y-27336761D01*
X47821866Y-27793904D01*
X47326628Y-27793904D01*
%TO.C,D1*%
X41611476Y-27844704D02*
X41611476Y-27044704D01*
X41421000Y-27044704D01*
X41306714Y-27082800D01*
X41230523Y-27158990D01*
X41192428Y-27235180D01*
X41154333Y-27387561D01*
X41154333Y-27501847D01*
X41192428Y-27654228D01*
X41230523Y-27730419D01*
X41306714Y-27806609D01*
X41421000Y-27844704D01*
X41611476Y-27844704D01*
X40392428Y-27844704D02*
X40849571Y-27844704D01*
X40621000Y-27844704D02*
X40621000Y-27044704D01*
X40697190Y-27158990D01*
X40773380Y-27235180D01*
X40849571Y-27273276D01*
%TO.C,C5*%
D11*
X149963047Y-109549380D02*
X150534476Y-109549380D01*
X150248761Y-109549380D02*
X150248761Y-108549380D01*
X150344000Y-108692238D01*
X150439238Y-108787476D01*
X150534476Y-108835095D01*
X149344000Y-108549380D02*
X149248761Y-108549380D01*
X149153523Y-108597000D01*
X149105904Y-108644619D01*
X149058285Y-108739857D01*
X149010666Y-108930333D01*
X149010666Y-109168428D01*
X149058285Y-109358904D01*
X149105904Y-109454142D01*
X149153523Y-109501761D01*
X149248761Y-109549380D01*
X149344000Y-109549380D01*
X149439238Y-109501761D01*
X149486857Y-109454142D01*
X149534476Y-109358904D01*
X149582095Y-109168428D01*
X149582095Y-108930333D01*
X149534476Y-108739857D01*
X149486857Y-108644619D01*
X149439238Y-108597000D01*
X149344000Y-108549380D01*
X148391619Y-108549380D02*
X148296380Y-108549380D01*
X148201142Y-108597000D01*
X148153523Y-108644619D01*
X148105904Y-108739857D01*
X148058285Y-108930333D01*
X148058285Y-109168428D01*
X148105904Y-109358904D01*
X148153523Y-109454142D01*
X148201142Y-109501761D01*
X148296380Y-109549380D01*
X148391619Y-109549380D01*
X148486857Y-109501761D01*
X148534476Y-109454142D01*
X148582095Y-109358904D01*
X148629714Y-109168428D01*
X148629714Y-108930333D01*
X148582095Y-108739857D01*
X148534476Y-108644619D01*
X148486857Y-108597000D01*
X148391619Y-108549380D01*
X147629714Y-108882714D02*
X147629714Y-109549380D01*
X147629714Y-108977952D02*
X147582095Y-108930333D01*
X147486857Y-108882714D01*
X147344000Y-108882714D01*
X147248761Y-108930333D01*
X147201142Y-109025571D01*
X147201142Y-109549380D01*
D12*
X148977333Y-111232714D02*
X149015428Y-111270809D01*
X149129714Y-111308904D01*
X149205904Y-111308904D01*
X149320190Y-111270809D01*
X149396380Y-111194619D01*
X149434476Y-111118428D01*
X149472571Y-110966047D01*
X149472571Y-110851761D01*
X149434476Y-110699380D01*
X149396380Y-110623190D01*
X149320190Y-110547000D01*
X149205904Y-110508904D01*
X149129714Y-110508904D01*
X149015428Y-110547000D01*
X148977333Y-110585095D01*
X148253523Y-110508904D02*
X148634476Y-110508904D01*
X148672571Y-110889857D01*
X148634476Y-110851761D01*
X148558285Y-110813666D01*
X148367809Y-110813666D01*
X148291619Y-110851761D01*
X148253523Y-110889857D01*
X148215428Y-110966047D01*
X148215428Y-111156523D01*
X148253523Y-111232714D01*
X148291619Y-111270809D01*
X148367809Y-111308904D01*
X148558285Y-111308904D01*
X148634476Y-111270809D01*
X148672571Y-111232714D01*
%TO.C,C4*%
D11*
X128373047Y-109549380D02*
X128944476Y-109549380D01*
X128658761Y-109549380D02*
X128658761Y-108549380D01*
X128753999Y-108692238D01*
X128849238Y-108787476D01*
X128944476Y-108835095D01*
X127753999Y-108549380D02*
X127658761Y-108549380D01*
X127563523Y-108597000D01*
X127515904Y-108644619D01*
X127468285Y-108739857D01*
X127420666Y-108930333D01*
X127420666Y-109168428D01*
X127468285Y-109358904D01*
X127515904Y-109454142D01*
X127563523Y-109501761D01*
X127658761Y-109549380D01*
X127753999Y-109549380D01*
X127849238Y-109501761D01*
X127896857Y-109454142D01*
X127944476Y-109358904D01*
X127992095Y-109168428D01*
X127992095Y-108930333D01*
X127944476Y-108739857D01*
X127896857Y-108644619D01*
X127849238Y-108597000D01*
X127753999Y-108549380D01*
X126801619Y-108549380D02*
X126706380Y-108549380D01*
X126611142Y-108597000D01*
X126563523Y-108644619D01*
X126515904Y-108739857D01*
X126468285Y-108930333D01*
X126468285Y-109168428D01*
X126515904Y-109358904D01*
X126563523Y-109454142D01*
X126611142Y-109501761D01*
X126706380Y-109549380D01*
X126801619Y-109549380D01*
X126896857Y-109501761D01*
X126944476Y-109454142D01*
X126992095Y-109358904D01*
X127039714Y-109168428D01*
X127039714Y-108930333D01*
X126992095Y-108739857D01*
X126944476Y-108644619D01*
X126896857Y-108597000D01*
X126801619Y-108549380D01*
X126039714Y-108882714D02*
X126039714Y-109549380D01*
X126039714Y-108977952D02*
X125992095Y-108930333D01*
X125896857Y-108882714D01*
X125753999Y-108882714D01*
X125658761Y-108930333D01*
X125611142Y-109025571D01*
X125611142Y-109549380D01*
D12*
X127387333Y-111232714D02*
X127425428Y-111270809D01*
X127539714Y-111308904D01*
X127615904Y-111308904D01*
X127730190Y-111270809D01*
X127806380Y-111194619D01*
X127844476Y-111118428D01*
X127882571Y-110966047D01*
X127882571Y-110851761D01*
X127844476Y-110699380D01*
X127806380Y-110623190D01*
X127730190Y-110547000D01*
X127615904Y-110508904D01*
X127539714Y-110508904D01*
X127425428Y-110547000D01*
X127387333Y-110585095D01*
X126701619Y-110775571D02*
X126701619Y-111308904D01*
X126892095Y-110470809D02*
X127082571Y-111042238D01*
X126587333Y-111042238D01*
%TO.C,C3*%
D11*
X105259047Y-109956380D02*
X105830476Y-109956380D01*
X105544761Y-109956380D02*
X105544761Y-108956380D01*
X105639999Y-109099238D01*
X105735238Y-109194476D01*
X105830476Y-109242095D01*
X104639999Y-108956380D02*
X104544761Y-108956380D01*
X104449523Y-109004000D01*
X104401904Y-109051619D01*
X104354285Y-109146857D01*
X104306666Y-109337333D01*
X104306666Y-109575428D01*
X104354285Y-109765904D01*
X104401904Y-109861142D01*
X104449523Y-109908761D01*
X104544761Y-109956380D01*
X104639999Y-109956380D01*
X104735238Y-109908761D01*
X104782857Y-109861142D01*
X104830476Y-109765904D01*
X104878095Y-109575428D01*
X104878095Y-109337333D01*
X104830476Y-109146857D01*
X104782857Y-109051619D01*
X104735238Y-109004000D01*
X104639999Y-108956380D01*
X103687619Y-108956380D02*
X103592380Y-108956380D01*
X103497142Y-109004000D01*
X103449523Y-109051619D01*
X103401904Y-109146857D01*
X103354285Y-109337333D01*
X103354285Y-109575428D01*
X103401904Y-109765904D01*
X103449523Y-109861142D01*
X103497142Y-109908761D01*
X103592380Y-109956380D01*
X103687619Y-109956380D01*
X103782857Y-109908761D01*
X103830476Y-109861142D01*
X103878095Y-109765904D01*
X103925714Y-109575428D01*
X103925714Y-109337333D01*
X103878095Y-109146857D01*
X103830476Y-109051619D01*
X103782857Y-109004000D01*
X103687619Y-108956380D01*
X102925714Y-109289714D02*
X102925714Y-109956380D01*
X102925714Y-109384952D02*
X102878095Y-109337333D01*
X102782857Y-109289714D01*
X102639999Y-109289714D01*
X102544761Y-109337333D01*
X102497142Y-109432571D01*
X102497142Y-109956380D01*
D12*
X104273333Y-111639714D02*
X104311428Y-111677809D01*
X104425714Y-111715904D01*
X104501904Y-111715904D01*
X104616190Y-111677809D01*
X104692380Y-111601619D01*
X104730476Y-111525428D01*
X104768571Y-111373047D01*
X104768571Y-111258761D01*
X104730476Y-111106380D01*
X104692380Y-111030190D01*
X104616190Y-110954000D01*
X104501904Y-110915904D01*
X104425714Y-110915904D01*
X104311428Y-110954000D01*
X104273333Y-110992095D01*
X104006666Y-110915904D02*
X103511428Y-110915904D01*
X103778095Y-111220666D01*
X103663809Y-111220666D01*
X103587619Y-111258761D01*
X103549523Y-111296857D01*
X103511428Y-111373047D01*
X103511428Y-111563523D01*
X103549523Y-111639714D01*
X103587619Y-111677809D01*
X103663809Y-111715904D01*
X103892380Y-111715904D01*
X103968571Y-111677809D01*
X104006666Y-111639714D01*
%TO.C,C2*%
D11*
X83923047Y-109549380D02*
X84494476Y-109549380D01*
X84208761Y-109549380D02*
X84208761Y-108549380D01*
X84303999Y-108692238D01*
X84399238Y-108787476D01*
X84494476Y-108835095D01*
X83303999Y-108549380D02*
X83208761Y-108549380D01*
X83113523Y-108597000D01*
X83065904Y-108644619D01*
X83018285Y-108739857D01*
X82970666Y-108930333D01*
X82970666Y-109168428D01*
X83018285Y-109358904D01*
X83065904Y-109454142D01*
X83113523Y-109501761D01*
X83208761Y-109549380D01*
X83303999Y-109549380D01*
X83399238Y-109501761D01*
X83446857Y-109454142D01*
X83494476Y-109358904D01*
X83542095Y-109168428D01*
X83542095Y-108930333D01*
X83494476Y-108739857D01*
X83446857Y-108644619D01*
X83399238Y-108597000D01*
X83303999Y-108549380D01*
X82351619Y-108549380D02*
X82256380Y-108549380D01*
X82161142Y-108597000D01*
X82113523Y-108644619D01*
X82065904Y-108739857D01*
X82018285Y-108930333D01*
X82018285Y-109168428D01*
X82065904Y-109358904D01*
X82113523Y-109454142D01*
X82161142Y-109501761D01*
X82256380Y-109549380D01*
X82351619Y-109549380D01*
X82446857Y-109501761D01*
X82494476Y-109454142D01*
X82542095Y-109358904D01*
X82589714Y-109168428D01*
X82589714Y-108930333D01*
X82542095Y-108739857D01*
X82494476Y-108644619D01*
X82446857Y-108597000D01*
X82351619Y-108549380D01*
X81589714Y-108882714D02*
X81589714Y-109549380D01*
X81589714Y-108977952D02*
X81542095Y-108930333D01*
X81446857Y-108882714D01*
X81303999Y-108882714D01*
X81208761Y-108930333D01*
X81161142Y-109025571D01*
X81161142Y-109549380D01*
D12*
X82937333Y-111232714D02*
X82975428Y-111270809D01*
X83089714Y-111308904D01*
X83165904Y-111308904D01*
X83280190Y-111270809D01*
X83356380Y-111194619D01*
X83394476Y-111118428D01*
X83432571Y-110966047D01*
X83432571Y-110851761D01*
X83394476Y-110699380D01*
X83356380Y-110623190D01*
X83280190Y-110547000D01*
X83165904Y-110508904D01*
X83089714Y-110508904D01*
X82975428Y-110547000D01*
X82937333Y-110585095D01*
X82632571Y-110585095D02*
X82594476Y-110547000D01*
X82518285Y-110508904D01*
X82327809Y-110508904D01*
X82251619Y-110547000D01*
X82213523Y-110585095D01*
X82175428Y-110661285D01*
X82175428Y-110737476D01*
X82213523Y-110851761D01*
X82670666Y-111308904D01*
X82175428Y-111308904D01*
%TO.C,C1*%
D11*
X62333047Y-109549380D02*
X62904476Y-109549380D01*
X62618761Y-109549380D02*
X62618761Y-108549380D01*
X62714000Y-108692238D01*
X62809238Y-108787476D01*
X62904476Y-108835095D01*
X61714000Y-108549380D02*
X61618761Y-108549380D01*
X61523523Y-108597000D01*
X61475904Y-108644619D01*
X61428285Y-108739857D01*
X61380666Y-108930333D01*
X61380666Y-109168428D01*
X61428285Y-109358904D01*
X61475904Y-109454142D01*
X61523523Y-109501761D01*
X61618761Y-109549380D01*
X61714000Y-109549380D01*
X61809238Y-109501761D01*
X61856857Y-109454142D01*
X61904476Y-109358904D01*
X61952095Y-109168428D01*
X61952095Y-108930333D01*
X61904476Y-108739857D01*
X61856857Y-108644619D01*
X61809238Y-108597000D01*
X61714000Y-108549380D01*
X60761619Y-108549380D02*
X60666380Y-108549380D01*
X60571142Y-108597000D01*
X60523523Y-108644619D01*
X60475904Y-108739857D01*
X60428285Y-108930333D01*
X60428285Y-109168428D01*
X60475904Y-109358904D01*
X60523523Y-109454142D01*
X60571142Y-109501761D01*
X60666380Y-109549380D01*
X60761619Y-109549380D01*
X60856857Y-109501761D01*
X60904476Y-109454142D01*
X60952095Y-109358904D01*
X60999714Y-109168428D01*
X60999714Y-108930333D01*
X60952095Y-108739857D01*
X60904476Y-108644619D01*
X60856857Y-108597000D01*
X60761619Y-108549380D01*
X59999714Y-108882714D02*
X59999714Y-109549380D01*
X59999714Y-108977952D02*
X59952095Y-108930333D01*
X59856857Y-108882714D01*
X59714000Y-108882714D01*
X59618761Y-108930333D01*
X59571142Y-109025571D01*
X59571142Y-109549380D01*
D12*
X61347333Y-111232714D02*
X61385428Y-111270809D01*
X61499714Y-111308904D01*
X61575904Y-111308904D01*
X61690190Y-111270809D01*
X61766380Y-111194619D01*
X61804476Y-111118428D01*
X61842571Y-110966047D01*
X61842571Y-110851761D01*
X61804476Y-110699380D01*
X61766380Y-110623190D01*
X61690190Y-110547000D01*
X61575904Y-110508904D01*
X61499714Y-110508904D01*
X61385428Y-110547000D01*
X61347333Y-110585095D01*
X60585428Y-111308904D02*
X61042571Y-111308904D01*
X60814000Y-111308904D02*
X60814000Y-110508904D01*
X60890190Y-110623190D01*
X60966380Y-110699380D01*
X61042571Y-110737476D01*
%TD*%
M02*
