%TF.GenerationSoftware,KiCad,Pcbnew,(5.1.9)-1*%
%TF.CreationDate,2021-06-15T23:19:55+02:00*%
%TF.ProjectId,opena3xx-mcdu,6f70656e-6133-4787-982d-6d6364752e6b,0.1*%
%TF.SameCoordinates,Original*%
%TF.FileFunction,Paste,Top*%
%TF.FilePolarity,Positive*%
%FSLAX46Y46*%
G04 Gerber Fmt 4.6, Leading zero omitted, Abs format (unit mm)*
G04 Created by KiCad (PCBNEW (5.1.9)-1) date 2021-06-15 23:19:55*
%MOMM*%
%LPD*%
G01*
G04 APERTURE LIST*
G04 APERTURE END LIST*
%TO.C,D11*%
G36*
G01*
X176684600Y-204470000D02*
X175434600Y-204470000D01*
G75*
G02*
X175184600Y-204220000I0J250000D01*
G01*
X175184600Y-203295000D01*
G75*
G02*
X175434600Y-203045000I250000J0D01*
G01*
X176684600Y-203045000D01*
G75*
G02*
X176934600Y-203295000I0J-250000D01*
G01*
X176934600Y-204220000D01*
G75*
G02*
X176684600Y-204470000I-250000J0D01*
G01*
G37*
G36*
G01*
X176684600Y-207445000D02*
X175434600Y-207445000D01*
G75*
G02*
X175184600Y-207195000I0J250000D01*
G01*
X175184600Y-206270000D01*
G75*
G02*
X175434600Y-206020000I250000J0D01*
G01*
X176684600Y-206020000D01*
G75*
G02*
X176934600Y-206270000I0J-250000D01*
G01*
X176934600Y-207195000D01*
G75*
G02*
X176684600Y-207445000I-250000J0D01*
G01*
G37*
%TD*%
%TO.C,D10*%
G36*
G01*
X308650800Y-193585800D02*
X307400800Y-193585800D01*
G75*
G02*
X307150800Y-193335800I0J250000D01*
G01*
X307150800Y-192410800D01*
G75*
G02*
X307400800Y-192160800I250000J0D01*
G01*
X308650800Y-192160800D01*
G75*
G02*
X308900800Y-192410800I0J-250000D01*
G01*
X308900800Y-193335800D01*
G75*
G02*
X308650800Y-193585800I-250000J0D01*
G01*
G37*
G36*
G01*
X308650800Y-196560800D02*
X307400800Y-196560800D01*
G75*
G02*
X307150800Y-196310800I0J250000D01*
G01*
X307150800Y-195385800D01*
G75*
G02*
X307400800Y-195135800I250000J0D01*
G01*
X308650800Y-195135800D01*
G75*
G02*
X308900800Y-195385800I0J-250000D01*
G01*
X308900800Y-196310800D01*
G75*
G02*
X308650800Y-196560800I-250000J0D01*
G01*
G37*
%TD*%
%TO.C,D9*%
G36*
G01*
X176621600Y-186626200D02*
X175371600Y-186626200D01*
G75*
G02*
X175121600Y-186376200I0J250000D01*
G01*
X175121600Y-185451200D01*
G75*
G02*
X175371600Y-185201200I250000J0D01*
G01*
X176621600Y-185201200D01*
G75*
G02*
X176871600Y-185451200I0J-250000D01*
G01*
X176871600Y-186376200D01*
G75*
G02*
X176621600Y-186626200I-250000J0D01*
G01*
G37*
G36*
G01*
X176621600Y-189601200D02*
X175371600Y-189601200D01*
G75*
G02*
X175121600Y-189351200I0J250000D01*
G01*
X175121600Y-188426200D01*
G75*
G02*
X175371600Y-188176200I250000J0D01*
G01*
X176621600Y-188176200D01*
G75*
G02*
X176871600Y-188426200I0J-250000D01*
G01*
X176871600Y-189351200D01*
G75*
G02*
X176621600Y-189601200I-250000J0D01*
G01*
G37*
%TD*%
%TO.C,D8*%
G36*
G01*
X242748600Y-30228700D02*
X242748600Y-28978700D01*
G75*
G02*
X242998600Y-28728700I250000J0D01*
G01*
X243923600Y-28728700D01*
G75*
G02*
X244173600Y-28978700I0J-250000D01*
G01*
X244173600Y-30228700D01*
G75*
G02*
X243923600Y-30478700I-250000J0D01*
G01*
X242998600Y-30478700D01*
G75*
G02*
X242748600Y-30228700I0J250000D01*
G01*
G37*
G36*
G01*
X239773600Y-30228700D02*
X239773600Y-28978700D01*
G75*
G02*
X240023600Y-28728700I250000J0D01*
G01*
X240948600Y-28728700D01*
G75*
G02*
X241198600Y-28978700I0J-250000D01*
G01*
X241198600Y-30228700D01*
G75*
G02*
X240948600Y-30478700I-250000J0D01*
G01*
X240023600Y-30478700D01*
G75*
G02*
X239773600Y-30228700I0J250000D01*
G01*
G37*
%TD*%
%TO.C,D7*%
G36*
G01*
X227888600Y-30228700D02*
X227888600Y-28978700D01*
G75*
G02*
X228138600Y-28728700I250000J0D01*
G01*
X229063600Y-28728700D01*
G75*
G02*
X229313600Y-28978700I0J-250000D01*
G01*
X229313600Y-30228700D01*
G75*
G02*
X229063600Y-30478700I-250000J0D01*
G01*
X228138600Y-30478700D01*
G75*
G02*
X227888600Y-30228700I0J250000D01*
G01*
G37*
G36*
G01*
X224913600Y-30228700D02*
X224913600Y-28978700D01*
G75*
G02*
X225163600Y-28728700I250000J0D01*
G01*
X226088600Y-28728700D01*
G75*
G02*
X226338600Y-28978700I0J-250000D01*
G01*
X226338600Y-30228700D01*
G75*
G02*
X226088600Y-30478700I-250000J0D01*
G01*
X225163600Y-30478700D01*
G75*
G02*
X224913600Y-30228700I0J250000D01*
G01*
G37*
%TD*%
%TO.C,D6*%
G36*
G01*
X272783600Y-30228700D02*
X272783600Y-28978700D01*
G75*
G02*
X273033600Y-28728700I250000J0D01*
G01*
X273958600Y-28728700D01*
G75*
G02*
X274208600Y-28978700I0J-250000D01*
G01*
X274208600Y-30228700D01*
G75*
G02*
X273958600Y-30478700I-250000J0D01*
G01*
X273033600Y-30478700D01*
G75*
G02*
X272783600Y-30228700I0J250000D01*
G01*
G37*
G36*
G01*
X269808600Y-30228700D02*
X269808600Y-28978700D01*
G75*
G02*
X270058600Y-28728700I250000J0D01*
G01*
X270983600Y-28728700D01*
G75*
G02*
X271233600Y-28978700I0J-250000D01*
G01*
X271233600Y-30228700D01*
G75*
G02*
X270983600Y-30478700I-250000J0D01*
G01*
X270058600Y-30478700D01*
G75*
G02*
X269808600Y-30228700I0J250000D01*
G01*
G37*
%TD*%
%TO.C,D5*%
G36*
G01*
X212648600Y-30165200D02*
X212648600Y-28915200D01*
G75*
G02*
X212898600Y-28665200I250000J0D01*
G01*
X213823600Y-28665200D01*
G75*
G02*
X214073600Y-28915200I0J-250000D01*
G01*
X214073600Y-30165200D01*
G75*
G02*
X213823600Y-30415200I-250000J0D01*
G01*
X212898600Y-30415200D01*
G75*
G02*
X212648600Y-30165200I0J250000D01*
G01*
G37*
G36*
G01*
X209673600Y-30165200D02*
X209673600Y-28915200D01*
G75*
G02*
X209923600Y-28665200I250000J0D01*
G01*
X210848600Y-28665200D01*
G75*
G02*
X211098600Y-28915200I0J-250000D01*
G01*
X211098600Y-30165200D01*
G75*
G02*
X210848600Y-30415200I-250000J0D01*
G01*
X209923600Y-30415200D01*
G75*
G02*
X209673600Y-30165200I0J250000D01*
G01*
G37*
%TD*%
M02*
