G04 #@! TF.GenerationSoftware,KiCad,Pcbnew,(5.1.10)-1*
G04 #@! TF.CreationDate,2022-01-05T11:35:52+00:00*
G04 #@! TF.ProjectId,opena3xx-mcdu,6f70656e-6133-4787-982d-6d6364752e6b,0.1*
G04 #@! TF.SameCoordinates,Original*
G04 #@! TF.FileFunction,Other,Fab,Bot*
%FSLAX46Y46*%
G04 Gerber Fmt 4.6, Leading zero omitted, Abs format (unit mm)*
G04 Created by KiCad (PCBNEW (5.1.10)-1) date 2022-01-05 11:35:52*
%MOMM*%
%LPD*%
G01*
G04 APERTURE LIST*
%ADD10C,0.100000*%
%ADD11C,0.120000*%
%ADD12C,0.150000*%
G04 APERTURE END LIST*
D10*
X43032280Y-174899720D02*
X45522280Y-174899720D01*
X45522280Y-174899720D02*
X45522280Y-171699720D01*
X45522280Y-171699720D02*
X43032280Y-171699720D01*
X43032280Y-171699720D02*
X43032280Y-174899720D01*
X163756540Y-166275620D02*
X163756540Y-168765620D01*
X163756540Y-168765620D02*
X166956540Y-168765620D01*
X166956540Y-168765620D02*
X166956540Y-166275620D01*
X166956540Y-166275620D02*
X163756540Y-166275620D01*
X160335160Y-156659180D02*
X160335160Y-159149180D01*
X160335160Y-159149180D02*
X163535160Y-159149180D01*
X163535160Y-159149180D02*
X163535160Y-156659180D01*
X163535160Y-156659180D02*
X160335160Y-156659180D01*
X169757400Y-229812460D02*
X169757400Y-219812460D01*
X177257400Y-229812460D02*
X169757400Y-229812460D01*
X177257400Y-219812460D02*
X177257400Y-229812460D01*
X169757400Y-219812460D02*
X177257400Y-219812460D01*
X176057400Y-219862460D02*
X176057400Y-229762460D01*
X175930000Y-160099000D02*
X175930000Y-169999000D01*
X169630000Y-160049000D02*
X177130000Y-160049000D01*
X177130000Y-160049000D02*
X177130000Y-170049000D01*
X177130000Y-170049000D02*
X169630000Y-170049000D01*
X169630000Y-170049000D02*
X169630000Y-160049000D01*
X169630000Y-159356000D02*
X169630000Y-149356000D01*
X177130000Y-159356000D02*
X169630000Y-159356000D01*
X177130000Y-149356000D02*
X177130000Y-159356000D01*
X169630000Y-149356000D02*
X177130000Y-149356000D01*
X175930000Y-149406000D02*
X175930000Y-159306000D01*
X162382000Y-126847000D02*
X159182000Y-126847000D01*
X162382000Y-129337000D02*
X162382000Y-126847000D01*
X159182000Y-129337000D02*
X162382000Y-129337000D01*
X159182000Y-126847000D02*
X159182000Y-129337000D01*
X169719000Y-127301000D02*
X169719000Y-117301000D01*
X177219000Y-127301000D02*
X169719000Y-127301000D01*
X177219000Y-117301000D02*
X177219000Y-127301000D01*
X169719000Y-117301000D02*
X177219000Y-117301000D01*
X176019000Y-117351000D02*
X176019000Y-127251000D01*
X169719000Y-138096000D02*
X169719000Y-128096000D01*
X177219000Y-138096000D02*
X169719000Y-138096000D01*
X177219000Y-128096000D02*
X177219000Y-138096000D01*
X169719000Y-128096000D02*
X177219000Y-128096000D01*
X176019000Y-128146000D02*
X176019000Y-138046000D01*
X145094000Y-107467000D02*
X146094000Y-108467000D01*
X145094000Y-90567000D02*
X145094000Y-107467000D01*
X152594000Y-90567000D02*
X145094000Y-90567000D01*
X152594000Y-108467000D02*
X152594000Y-90567000D01*
X146094000Y-108467000D02*
X152594000Y-108467000D01*
X123504000Y-107467000D02*
X124504000Y-108467000D01*
X123504000Y-90567000D02*
X123504000Y-107467000D01*
X131004000Y-90567000D02*
X123504000Y-90567000D01*
X131004000Y-108467000D02*
X131004000Y-90567000D01*
X124504000Y-108467000D02*
X131004000Y-108467000D01*
X100644000Y-107467000D02*
X101644000Y-108467000D01*
X100644000Y-90567000D02*
X100644000Y-107467000D01*
X108144000Y-90567000D02*
X100644000Y-90567000D01*
X108144000Y-108467000D02*
X108144000Y-90567000D01*
X101644000Y-108467000D02*
X108144000Y-108467000D01*
X79054000Y-107467000D02*
X80054000Y-108467000D01*
X79054000Y-90567000D02*
X79054000Y-107467000D01*
X86554000Y-90567000D02*
X79054000Y-90567000D01*
X86554000Y-108467000D02*
X86554000Y-90567000D01*
X80054000Y-108467000D02*
X86554000Y-108467000D01*
X57464000Y-107467000D02*
X58464000Y-108467000D01*
X57464000Y-90567000D02*
X57464000Y-107467000D01*
X64964000Y-90567000D02*
X57464000Y-90567000D01*
X64964000Y-108467000D02*
X64964000Y-90567000D01*
X58464000Y-108467000D02*
X64964000Y-108467000D01*
X43074400Y-31783200D02*
X49074400Y-31783200D01*
X43074400Y-37783200D02*
X49074400Y-37783200D01*
X49074400Y-37783200D02*
X49074400Y-31783200D01*
X43074400Y-37783200D02*
X43074400Y-31783200D01*
X45059000Y-206908000D02*
X45059000Y-203708000D01*
X43459000Y-206908000D02*
X45059000Y-206908000D01*
X43459000Y-203708000D02*
X43459000Y-206908000D01*
X45059000Y-203708000D02*
X43459000Y-203708000D01*
X163691000Y-189852000D02*
X166891000Y-189852000D01*
X163691000Y-188252000D02*
X163691000Y-189852000D01*
X166891000Y-188252000D02*
X163691000Y-188252000D01*
X166891000Y-189852000D02*
X166891000Y-188252000D01*
X45123000Y-188938000D02*
X45123000Y-185738000D01*
X43523000Y-188938000D02*
X45123000Y-188938000D01*
X43523000Y-185738000D02*
X43523000Y-188938000D01*
X45123000Y-185738000D02*
X43523000Y-185738000D01*
X106693000Y-33058200D02*
X103493000Y-33058200D01*
X106693000Y-34658200D02*
X106693000Y-33058200D01*
X103493000Y-34658200D02*
X106693000Y-34658200D01*
X103493000Y-33058200D02*
X103493000Y-34658200D01*
X91897000Y-33058200D02*
X88697000Y-33058200D01*
X91897000Y-34658200D02*
X91897000Y-33058200D01*
X88697000Y-34658200D02*
X91897000Y-34658200D01*
X88697000Y-33058200D02*
X88697000Y-34658200D01*
X136791000Y-33058200D02*
X133591000Y-33058200D01*
X136791000Y-34658200D02*
X136791000Y-33058200D01*
X133591000Y-34658200D02*
X136791000Y-34658200D01*
X133591000Y-33058200D02*
X133591000Y-34658200D01*
X76593000Y-33058200D02*
X73393000Y-33058200D01*
X76593000Y-34658200D02*
X76593000Y-33058200D01*
X73393000Y-34658200D02*
X76593000Y-34658200D01*
X73393000Y-33058200D02*
X73393000Y-34658200D01*
X65735000Y-188569000D02*
X62535000Y-188569000D01*
X65735000Y-191059000D02*
X65735000Y-188569000D01*
X62535000Y-191059000D02*
X65735000Y-191059000D01*
X62535000Y-188569000D02*
X62535000Y-191059000D01*
X65862000Y-175615000D02*
X62662000Y-175615000D01*
X65862000Y-178105000D02*
X65862000Y-175615000D01*
X62662000Y-178105000D02*
X65862000Y-178105000D01*
X62662000Y-175615000D02*
X62662000Y-178105000D01*
X166763000Y-235623000D02*
X163563000Y-235623000D01*
X166763000Y-238113000D02*
X166763000Y-235623000D01*
X163563000Y-238113000D02*
X166763000Y-238113000D01*
X163563000Y-235623000D02*
X163563000Y-238113000D01*
X121234000Y-235686000D02*
X118034000Y-235686000D01*
X121234000Y-238176000D02*
X121234000Y-235686000D01*
X118034000Y-238176000D02*
X121234000Y-238176000D01*
X118034000Y-235686000D02*
X118034000Y-238176000D01*
X151206000Y-221653000D02*
X148006000Y-221653000D01*
X151206000Y-224143000D02*
X151206000Y-221653000D01*
X148006000Y-224143000D02*
X151206000Y-224143000D01*
X148006000Y-221653000D02*
X148006000Y-224143000D01*
X106248000Y-221653000D02*
X103048000Y-221653000D01*
X106248000Y-224143000D02*
X106248000Y-221653000D01*
X103048000Y-224143000D02*
X106248000Y-224143000D01*
X103048000Y-221653000D02*
X103048000Y-224143000D01*
X136220000Y-207619000D02*
X133020000Y-207619000D01*
X136220000Y-210109000D02*
X136220000Y-207619000D01*
X133020000Y-210109000D02*
X136220000Y-210109000D01*
X133020000Y-207619000D02*
X133020000Y-210109000D01*
X166663000Y-193459000D02*
X163463000Y-193459000D01*
X166663000Y-195949000D02*
X166663000Y-193459000D01*
X163463000Y-195949000D02*
X166663000Y-195949000D01*
X163463000Y-193459000D02*
X163463000Y-195949000D01*
X121234000Y-193713000D02*
X118034000Y-193713000D01*
X121234000Y-196203000D02*
X121234000Y-193713000D01*
X118034000Y-196203000D02*
X121234000Y-196203000D01*
X118034000Y-193713000D02*
X118034000Y-196203000D01*
X151269000Y-179679000D02*
X148069000Y-179679000D01*
X151269000Y-182169000D02*
X151269000Y-179679000D01*
X148069000Y-182169000D02*
X151269000Y-182169000D01*
X148069000Y-179679000D02*
X148069000Y-182169000D01*
X106248000Y-179616000D02*
X103048000Y-179616000D01*
X106248000Y-182106000D02*
X106248000Y-179616000D01*
X103048000Y-182106000D02*
X106248000Y-182106000D01*
X103048000Y-179616000D02*
X103048000Y-182106000D01*
X136220000Y-165582000D02*
X133020000Y-165582000D01*
X136220000Y-168072000D02*
X136220000Y-165582000D01*
X133020000Y-168072000D02*
X136220000Y-168072000D01*
X133020000Y-165582000D02*
X133020000Y-168072000D01*
X90183000Y-236448000D02*
X86983000Y-236448000D01*
X90183000Y-238938000D02*
X90183000Y-236448000D01*
X86983000Y-238938000D02*
X90183000Y-238938000D01*
X86983000Y-236448000D02*
X86983000Y-238938000D01*
X90309000Y-224764000D02*
X87109000Y-224764000D01*
X90309000Y-227254000D02*
X90309000Y-224764000D01*
X87109000Y-227254000D02*
X90309000Y-227254000D01*
X87109000Y-224764000D02*
X87109000Y-227254000D01*
X90246000Y-212572000D02*
X87046000Y-212572000D01*
X90246000Y-215062000D02*
X90246000Y-212572000D01*
X87046000Y-215062000D02*
X90246000Y-215062000D01*
X87046000Y-212572000D02*
X87046000Y-215062000D01*
X90246000Y-200634000D02*
X87046000Y-200634000D01*
X90246000Y-203124000D02*
X90246000Y-200634000D01*
X87046000Y-203124000D02*
X90246000Y-203124000D01*
X87046000Y-200634000D02*
X87046000Y-203124000D01*
X65799000Y-162280000D02*
X62599000Y-162280000D01*
X65799000Y-164770000D02*
X65799000Y-162280000D01*
X62599000Y-164770000D02*
X65799000Y-164770000D01*
X62599000Y-162280000D02*
X62599000Y-164770000D01*
X119773000Y-149453000D02*
X116573000Y-149453000D01*
X119773000Y-151943000D02*
X119773000Y-149453000D01*
X116573000Y-151943000D02*
X119773000Y-151943000D01*
X116573000Y-149453000D02*
X116573000Y-151943000D01*
X65799000Y-149453000D02*
X62599000Y-149453000D01*
X65799000Y-151943000D02*
X65799000Y-149453000D01*
X62599000Y-151943000D02*
X65799000Y-151943000D01*
X62599000Y-149453000D02*
X62599000Y-151943000D01*
X101803000Y-136436000D02*
X98603000Y-136436000D01*
X101803000Y-138926000D02*
X101803000Y-136436000D01*
X98603000Y-138926000D02*
X101803000Y-138926000D01*
X98603000Y-136436000D02*
X98603000Y-138926000D01*
X164859000Y-112052000D02*
X161659000Y-112052000D01*
X164859000Y-114542000D02*
X164859000Y-112052000D01*
X161659000Y-114542000D02*
X164859000Y-114542000D01*
X161659000Y-112052000D02*
X161659000Y-114542000D01*
X164693000Y-80568400D02*
X161493000Y-80568400D01*
X164693000Y-83058400D02*
X164693000Y-80568400D01*
X161493000Y-83058400D02*
X164693000Y-83058400D01*
X161493000Y-80568400D02*
X161493000Y-83058400D01*
X48402000Y-112049000D02*
X45202000Y-112049000D01*
X48402000Y-114539000D02*
X48402000Y-112049000D01*
X45202000Y-114539000D02*
X48402000Y-114539000D01*
X45202000Y-112049000D02*
X45202000Y-114539000D01*
X48478200Y-80497300D02*
X45278200Y-80497300D01*
X48478200Y-82987300D02*
X48478200Y-80497300D01*
X45278200Y-82987300D02*
X48478200Y-82987300D01*
X45278200Y-80497300D02*
X45278200Y-82987300D01*
X44311000Y-43357700D02*
X47511000Y-43357700D01*
X44311000Y-41757700D02*
X44311000Y-43357700D01*
X47511000Y-41757700D02*
X44311000Y-41757700D01*
X47511000Y-43357700D02*
X47511000Y-41757700D01*
X85852600Y-62852500D02*
X85852600Y-66052500D01*
X87452600Y-62852500D02*
X85852600Y-62852500D01*
X87452600Y-66052500D02*
X87452600Y-62852500D01*
X85852600Y-66052500D02*
X87452600Y-66052500D01*
X80898600Y-62852500D02*
X80898600Y-66052500D01*
X82498600Y-62852500D02*
X80898600Y-62852500D01*
X82498600Y-66052500D02*
X82498600Y-62852500D01*
X80898600Y-66052500D02*
X82498600Y-66052500D01*
X101855000Y-76568500D02*
X101855000Y-79768500D01*
X103455000Y-76568500D02*
X101855000Y-76568500D01*
X103455000Y-79768500D02*
X103455000Y-76568500D01*
X101855000Y-79768500D02*
X103455000Y-79768500D01*
X97790600Y-76594500D02*
X97790600Y-79794500D01*
X99390600Y-76594500D02*
X97790600Y-76594500D01*
X99390600Y-79794500D02*
X99390600Y-76594500D01*
X97790600Y-79794500D02*
X99390600Y-79794500D01*
X99199600Y-66052500D02*
X99199600Y-62852500D01*
X97599600Y-66052500D02*
X99199600Y-66052500D01*
X97599600Y-62852500D02*
X97599600Y-66052500D01*
X99199600Y-62852500D02*
X97599600Y-62852500D01*
X94182600Y-66052500D02*
X94182600Y-62852500D01*
X92582600Y-66052500D02*
X94182600Y-66052500D01*
X92582600Y-62852500D02*
X92582600Y-66052500D01*
X94182600Y-62852500D02*
X92582600Y-62852500D01*
X123063000Y-76695500D02*
X123063000Y-79895500D01*
X124663000Y-76695500D02*
X123063000Y-76695500D01*
X124663000Y-79895500D02*
X124663000Y-76695500D01*
X123063000Y-79895500D02*
X124663000Y-79895500D01*
X61951000Y-37553700D02*
X61951000Y-34353700D01*
X60351000Y-37553700D02*
X61951000Y-37553700D01*
X60351000Y-34353700D02*
X60351000Y-37553700D01*
X61951000Y-34353700D02*
X60351000Y-34353700D01*
X66141000Y-37553700D02*
X66141000Y-34353700D01*
X64541000Y-37553700D02*
X66141000Y-37553700D01*
X64541000Y-34353700D02*
X64541000Y-37553700D01*
X66141000Y-34353700D02*
X64541000Y-34353700D01*
X57696000Y-37553700D02*
X57696000Y-34353700D01*
X56096000Y-37553700D02*
X57696000Y-37553700D01*
X56096000Y-34353700D02*
X56096000Y-37553700D01*
X57696000Y-34353700D02*
X56096000Y-34353700D01*
X53886000Y-37553700D02*
X53886000Y-34353700D01*
X52286000Y-37553700D02*
X53886000Y-37553700D01*
X52286000Y-34353700D02*
X52286000Y-37553700D01*
X53886000Y-34353700D02*
X52286000Y-34353700D01*
X169757400Y-219195460D02*
X169757400Y-209195460D01*
X177257400Y-219195460D02*
X169757400Y-219195460D01*
X177257400Y-209195460D02*
X177257400Y-219195460D01*
X169757400Y-209195460D02*
X177257400Y-209195460D01*
X176057400Y-209245460D02*
X176057400Y-219145460D01*
X80644600Y-69037200D02*
X79374600Y-70307200D01*
X130174600Y-69037200D02*
X80644600Y-69037200D01*
X130174600Y-74117200D02*
X130174600Y-69037200D01*
X79374600Y-74117200D02*
X130174600Y-74117200D01*
X79374600Y-70307200D02*
X79374600Y-74117200D01*
X41532000Y-209465000D02*
X41532000Y-219465000D01*
X34032000Y-209465000D02*
X41532000Y-209465000D01*
X34032000Y-219465000D02*
X34032000Y-209465000D01*
X41532000Y-219465000D02*
X34032000Y-219465000D01*
X35232000Y-219415000D02*
X35232000Y-209515000D01*
X41532000Y-220069000D02*
X41532000Y-230069000D01*
X34032000Y-220069000D02*
X41532000Y-220069000D01*
X34032000Y-230069000D02*
X34032000Y-220069000D01*
X41532000Y-230069000D02*
X34032000Y-230069000D01*
X35232000Y-230019000D02*
X35232000Y-220119000D01*
X53314800Y-28282800D02*
X53314800Y-26682800D01*
X56514800Y-28282800D02*
X53314800Y-28282800D01*
X56514800Y-27082800D02*
X56514800Y-28282800D01*
X56114800Y-26682800D02*
X56514800Y-27082800D01*
X53314800Y-26682800D02*
X56114800Y-26682800D01*
X60185000Y-28244700D02*
X60185000Y-26644700D01*
X63385000Y-28244700D02*
X60185000Y-28244700D01*
X63385000Y-27044700D02*
X63385000Y-28244700D01*
X62985000Y-26644700D02*
X63385000Y-27044700D01*
X60185000Y-26644700D02*
X62985000Y-26644700D01*
X46355200Y-28232000D02*
X46355200Y-26632000D01*
X49555200Y-28232000D02*
X46355200Y-28232000D01*
X49555200Y-27032000D02*
X49555200Y-28232000D01*
X49155200Y-26632000D02*
X49555200Y-27032000D01*
X46355200Y-26632000D02*
X49155200Y-26632000D01*
X39421000Y-28282800D02*
X39421000Y-26682800D01*
X42621000Y-28282800D02*
X39421000Y-28282800D01*
X42621000Y-27082800D02*
X42621000Y-28282800D01*
X42221000Y-26682800D02*
X42621000Y-27082800D01*
X39421000Y-26682800D02*
X42221000Y-26682800D01*
X150444000Y-110147000D02*
X147244000Y-110147000D01*
X150444000Y-111747000D02*
X150444000Y-110147000D01*
X147244000Y-111747000D02*
X150444000Y-111747000D01*
X147244000Y-110147000D02*
X147244000Y-111747000D01*
X128854000Y-110147000D02*
X125654000Y-110147000D01*
X128854000Y-111747000D02*
X128854000Y-110147000D01*
X125654000Y-111747000D02*
X128854000Y-111747000D01*
X125654000Y-110147000D02*
X125654000Y-111747000D01*
X105740000Y-110554000D02*
X102540000Y-110554000D01*
X105740000Y-112154000D02*
X105740000Y-110554000D01*
X102540000Y-112154000D02*
X105740000Y-112154000D01*
X102540000Y-110554000D02*
X102540000Y-112154000D01*
X84404000Y-110147000D02*
X81204000Y-110147000D01*
X84404000Y-111747000D02*
X84404000Y-110147000D01*
X81204000Y-111747000D02*
X84404000Y-111747000D01*
X81204000Y-110147000D02*
X81204000Y-111747000D01*
X62814000Y-110147000D02*
X59614000Y-110147000D01*
X62814000Y-111747000D02*
X62814000Y-110147000D01*
X59614000Y-111747000D02*
X62814000Y-111747000D01*
X59614000Y-110147000D02*
X59614000Y-111747000D01*
D11*
X44639184Y-172785434D02*
X44258232Y-172518767D01*
X44639184Y-172328291D02*
X43839184Y-172328291D01*
X43839184Y-172633053D01*
X43877280Y-172709243D01*
X43915375Y-172747339D01*
X43991565Y-172785434D01*
X44105851Y-172785434D01*
X44182041Y-172747339D01*
X44220137Y-172709243D01*
X44258232Y-172633053D01*
X44258232Y-172328291D01*
X44105851Y-173471148D02*
X44639184Y-173471148D01*
X43801089Y-173280672D02*
X44372518Y-173090196D01*
X44372518Y-173585434D01*
X43839184Y-173814005D02*
X43839184Y-174347339D01*
X44639184Y-174004481D01*
X165870825Y-167882524D02*
X166137492Y-167501572D01*
X166327968Y-167882524D02*
X166327968Y-167082524D01*
X166023206Y-167082524D01*
X165947016Y-167120620D01*
X165908920Y-167158715D01*
X165870825Y-167234905D01*
X165870825Y-167349191D01*
X165908920Y-167425381D01*
X165947016Y-167463477D01*
X166023206Y-167501572D01*
X166327968Y-167501572D01*
X165185111Y-167349191D02*
X165185111Y-167882524D01*
X165375587Y-167044429D02*
X165566063Y-167615858D01*
X165070825Y-167615858D01*
X164423206Y-167082524D02*
X164575587Y-167082524D01*
X164651778Y-167120620D01*
X164689873Y-167158715D01*
X164766063Y-167273000D01*
X164804159Y-167425381D01*
X164804159Y-167730143D01*
X164766063Y-167806334D01*
X164727968Y-167844429D01*
X164651778Y-167882524D01*
X164499397Y-167882524D01*
X164423206Y-167844429D01*
X164385111Y-167806334D01*
X164347016Y-167730143D01*
X164347016Y-167539667D01*
X164385111Y-167463477D01*
X164423206Y-167425381D01*
X164499397Y-167387286D01*
X164651778Y-167387286D01*
X164727968Y-167425381D01*
X164766063Y-167463477D01*
X164804159Y-167539667D01*
X162449445Y-158266084D02*
X162716112Y-157885132D01*
X162906588Y-158266084D02*
X162906588Y-157466084D01*
X162601826Y-157466084D01*
X162525636Y-157504180D01*
X162487540Y-157542275D01*
X162449445Y-157618465D01*
X162449445Y-157732751D01*
X162487540Y-157808941D01*
X162525636Y-157847037D01*
X162601826Y-157885132D01*
X162906588Y-157885132D01*
X161763731Y-157732751D02*
X161763731Y-158266084D01*
X161954207Y-157427989D02*
X162144683Y-157999418D01*
X161649445Y-157999418D01*
X160963731Y-157466084D02*
X161344683Y-157466084D01*
X161382779Y-157847037D01*
X161344683Y-157808941D01*
X161268493Y-157770846D01*
X161078017Y-157770846D01*
X161001826Y-157808941D01*
X160963731Y-157847037D01*
X160925636Y-157923227D01*
X160925636Y-158113703D01*
X160963731Y-158189894D01*
X161001826Y-158227989D01*
X161078017Y-158266084D01*
X161268493Y-158266084D01*
X161344683Y-158227989D01*
X161382779Y-158189894D01*
D12*
X172959780Y-224479126D02*
X173674066Y-224479126D01*
X173816923Y-224431507D01*
X173912161Y-224336269D01*
X173959780Y-224193412D01*
X173959780Y-224098174D01*
X172959780Y-224860079D02*
X172959780Y-225479126D01*
X173340733Y-225145793D01*
X173340733Y-225288650D01*
X173388352Y-225383888D01*
X173435971Y-225431507D01*
X173531209Y-225479126D01*
X173769304Y-225479126D01*
X173864542Y-225431507D01*
X173912161Y-225383888D01*
X173959780Y-225288650D01*
X173959780Y-225002936D01*
X173912161Y-224907698D01*
X173864542Y-224860079D01*
X172832380Y-164715666D02*
X173546666Y-164715666D01*
X173689523Y-164668047D01*
X173784761Y-164572809D01*
X173832380Y-164429952D01*
X173832380Y-164334714D01*
X173832380Y-165239476D02*
X173832380Y-165429952D01*
X173784761Y-165525190D01*
X173737142Y-165572809D01*
X173594285Y-165668047D01*
X173403809Y-165715666D01*
X173022857Y-165715666D01*
X172927619Y-165668047D01*
X172880000Y-165620428D01*
X172832380Y-165525190D01*
X172832380Y-165334714D01*
X172880000Y-165239476D01*
X172927619Y-165191857D01*
X173022857Y-165144238D01*
X173260952Y-165144238D01*
X173356190Y-165191857D01*
X173403809Y-165239476D01*
X173451428Y-165334714D01*
X173451428Y-165525190D01*
X173403809Y-165620428D01*
X173356190Y-165668047D01*
X173260952Y-165715666D01*
X172832380Y-154022666D02*
X173546666Y-154022666D01*
X173689523Y-153975047D01*
X173784761Y-153879809D01*
X173832380Y-153736952D01*
X173832380Y-153641714D01*
X173260952Y-154641714D02*
X173213333Y-154546476D01*
X173165714Y-154498857D01*
X173070476Y-154451238D01*
X173022857Y-154451238D01*
X172927619Y-154498857D01*
X172880000Y-154546476D01*
X172832380Y-154641714D01*
X172832380Y-154832190D01*
X172880000Y-154927428D01*
X172927619Y-154975047D01*
X173022857Y-155022666D01*
X173070476Y-155022666D01*
X173165714Y-154975047D01*
X173213333Y-154927428D01*
X173260952Y-154832190D01*
X173260952Y-154641714D01*
X173308571Y-154546476D01*
X173356190Y-154498857D01*
X173451428Y-154451238D01*
X173641904Y-154451238D01*
X173737142Y-154498857D01*
X173784761Y-154546476D01*
X173832380Y-154641714D01*
X173832380Y-154832190D01*
X173784761Y-154927428D01*
X173737142Y-154975047D01*
X173641904Y-155022666D01*
X173451428Y-155022666D01*
X173356190Y-154975047D01*
X173308571Y-154927428D01*
X173260952Y-154832190D01*
D11*
X161296285Y-128453904D02*
X161562952Y-128072952D01*
X161753428Y-128453904D02*
X161753428Y-127653904D01*
X161448666Y-127653904D01*
X161372476Y-127692000D01*
X161334380Y-127730095D01*
X161296285Y-127806285D01*
X161296285Y-127920571D01*
X161334380Y-127996761D01*
X161372476Y-128034857D01*
X161448666Y-128072952D01*
X161753428Y-128072952D01*
X160610571Y-127920571D02*
X160610571Y-128453904D01*
X160801047Y-127615809D02*
X160991523Y-128187238D01*
X160496285Y-128187238D01*
X159848666Y-127920571D02*
X159848666Y-128453904D01*
X160039142Y-127615809D02*
X160229619Y-128187238D01*
X159734380Y-128187238D01*
D12*
X172921380Y-121967666D02*
X173635666Y-121967666D01*
X173778523Y-121920047D01*
X173873761Y-121824809D01*
X173921380Y-121681952D01*
X173921380Y-121586714D01*
X172921380Y-122348619D02*
X172921380Y-123015285D01*
X173921380Y-122586714D01*
X172921380Y-132762666D02*
X173635666Y-132762666D01*
X173778523Y-132715047D01*
X173873761Y-132619809D01*
X173921380Y-132476952D01*
X173921380Y-132381714D01*
X172921380Y-133667428D02*
X172921380Y-133476952D01*
X172969000Y-133381714D01*
X173016619Y-133334095D01*
X173159476Y-133238857D01*
X173349952Y-133191238D01*
X173730904Y-133191238D01*
X173826142Y-133238857D01*
X173873761Y-133286476D01*
X173921380Y-133381714D01*
X173921380Y-133572190D01*
X173873761Y-133667428D01*
X173826142Y-133715047D01*
X173730904Y-133762666D01*
X173492809Y-133762666D01*
X173397571Y-133715047D01*
X173349952Y-133667428D01*
X173302333Y-133572190D01*
X173302333Y-133381714D01*
X173349952Y-133286476D01*
X173397571Y-133238857D01*
X173492809Y-133191238D01*
X149605904Y-98969380D02*
X149605904Y-99778904D01*
X149558285Y-99874142D01*
X149510666Y-99921761D01*
X149415428Y-99969380D01*
X149224952Y-99969380D01*
X149129714Y-99921761D01*
X149082095Y-99874142D01*
X149034476Y-99778904D01*
X149034476Y-98969380D01*
X148082095Y-98969380D02*
X148558285Y-98969380D01*
X148605904Y-99445571D01*
X148558285Y-99397952D01*
X148463047Y-99350333D01*
X148224952Y-99350333D01*
X148129714Y-99397952D01*
X148082095Y-99445571D01*
X148034476Y-99540809D01*
X148034476Y-99778904D01*
X148082095Y-99874142D01*
X148129714Y-99921761D01*
X148224952Y-99969380D01*
X148463047Y-99969380D01*
X148558285Y-99921761D01*
X148605904Y-99874142D01*
X128015904Y-98969380D02*
X128015904Y-99778904D01*
X127968285Y-99874142D01*
X127920666Y-99921761D01*
X127825428Y-99969380D01*
X127634952Y-99969380D01*
X127539714Y-99921761D01*
X127492095Y-99874142D01*
X127444476Y-99778904D01*
X127444476Y-98969380D01*
X126539714Y-99302714D02*
X126539714Y-99969380D01*
X126777809Y-98921761D02*
X127015904Y-99636047D01*
X126396857Y-99636047D01*
X105155904Y-98969380D02*
X105155904Y-99778904D01*
X105108285Y-99874142D01*
X105060666Y-99921761D01*
X104965428Y-99969380D01*
X104774952Y-99969380D01*
X104679714Y-99921761D01*
X104632095Y-99874142D01*
X104584476Y-99778904D01*
X104584476Y-98969380D01*
X104203523Y-98969380D02*
X103584476Y-98969380D01*
X103917809Y-99350333D01*
X103774952Y-99350333D01*
X103679714Y-99397952D01*
X103632095Y-99445571D01*
X103584476Y-99540809D01*
X103584476Y-99778904D01*
X103632095Y-99874142D01*
X103679714Y-99921761D01*
X103774952Y-99969380D01*
X104060666Y-99969380D01*
X104155904Y-99921761D01*
X104203523Y-99874142D01*
X83565904Y-98969380D02*
X83565904Y-99778904D01*
X83518285Y-99874142D01*
X83470666Y-99921761D01*
X83375428Y-99969380D01*
X83184952Y-99969380D01*
X83089714Y-99921761D01*
X83042095Y-99874142D01*
X82994476Y-99778904D01*
X82994476Y-98969380D01*
X82565904Y-99064619D02*
X82518285Y-99017000D01*
X82423047Y-98969380D01*
X82184952Y-98969380D01*
X82089714Y-99017000D01*
X82042095Y-99064619D01*
X81994476Y-99159857D01*
X81994476Y-99255095D01*
X82042095Y-99397952D01*
X82613523Y-99969380D01*
X81994476Y-99969380D01*
X61975904Y-98969380D02*
X61975904Y-99778904D01*
X61928285Y-99874142D01*
X61880666Y-99921761D01*
X61785428Y-99969380D01*
X61594952Y-99969380D01*
X61499714Y-99921761D01*
X61452095Y-99874142D01*
X61404476Y-99778904D01*
X61404476Y-98969380D01*
X60404476Y-99969380D02*
X60975904Y-99969380D01*
X60690190Y-99969380D02*
X60690190Y-98969380D01*
X60785428Y-99112238D01*
X60880666Y-99207476D01*
X60975904Y-99255095D01*
X48360114Y-35187961D02*
X48217257Y-35235580D01*
X47979161Y-35235580D01*
X47883923Y-35187961D01*
X47836304Y-35140342D01*
X47788685Y-35045104D01*
X47788685Y-34949866D01*
X47836304Y-34854628D01*
X47883923Y-34807009D01*
X47979161Y-34759390D01*
X48169638Y-34711771D01*
X48264876Y-34664152D01*
X48312495Y-34616533D01*
X48360114Y-34521295D01*
X48360114Y-34426057D01*
X48312495Y-34330819D01*
X48264876Y-34283200D01*
X48169638Y-34235580D01*
X47931542Y-34235580D01*
X47788685Y-34283200D01*
X47455352Y-34235580D02*
X47217257Y-35235580D01*
X47026780Y-34521295D01*
X46836304Y-35235580D01*
X46598209Y-34235580D01*
X45693447Y-35235580D02*
X46264876Y-35235580D01*
X45979161Y-35235580D02*
X45979161Y-34235580D01*
X46074400Y-34378438D01*
X46169638Y-34473676D01*
X46264876Y-34521295D01*
X45074400Y-34235580D02*
X44979161Y-34235580D01*
X44883923Y-34283200D01*
X44836304Y-34330819D01*
X44788685Y-34426057D01*
X44741066Y-34616533D01*
X44741066Y-34854628D01*
X44788685Y-35045104D01*
X44836304Y-35140342D01*
X44883923Y-35187961D01*
X44979161Y-35235580D01*
X45074400Y-35235580D01*
X45169638Y-35187961D01*
X45217257Y-35140342D01*
X45264876Y-35045104D01*
X45312495Y-34854628D01*
X45312495Y-34616533D01*
X45264876Y-34426057D01*
X45217257Y-34330819D01*
X45169638Y-34283200D01*
X45074400Y-34235580D01*
X44122019Y-34235580D02*
X44026780Y-34235580D01*
X43931542Y-34283200D01*
X43883923Y-34330819D01*
X43836304Y-34426057D01*
X43788685Y-34616533D01*
X43788685Y-34854628D01*
X43836304Y-35045104D01*
X43883923Y-35140342D01*
X43931542Y-35187961D01*
X44026780Y-35235580D01*
X44122019Y-35235580D01*
X44217257Y-35187961D01*
X44264876Y-35140342D01*
X44312495Y-35045104D01*
X44360114Y-34854628D01*
X44360114Y-34616533D01*
X44312495Y-34426057D01*
X44264876Y-34330819D01*
X44217257Y-34283200D01*
X44122019Y-34235580D01*
D11*
X44620904Y-204793714D02*
X44239952Y-204527047D01*
X44620904Y-204336571D02*
X43820904Y-204336571D01*
X43820904Y-204641333D01*
X43859000Y-204717523D01*
X43897095Y-204755619D01*
X43973285Y-204793714D01*
X44087571Y-204793714D01*
X44163761Y-204755619D01*
X44201857Y-204717523D01*
X44239952Y-204641333D01*
X44239952Y-204336571D01*
X44087571Y-205479428D02*
X44620904Y-205479428D01*
X43782809Y-205288952D02*
X44354238Y-205098476D01*
X44354238Y-205593714D01*
X43820904Y-205822285D02*
X43820904Y-206317523D01*
X44125666Y-206050857D01*
X44125666Y-206165142D01*
X44163761Y-206241333D01*
X44201857Y-206279428D01*
X44278047Y-206317523D01*
X44468523Y-206317523D01*
X44544714Y-206279428D01*
X44582809Y-206241333D01*
X44620904Y-206165142D01*
X44620904Y-205936571D01*
X44582809Y-205860380D01*
X44544714Y-205822285D01*
X165805285Y-189413904D02*
X166071952Y-189032952D01*
X166262428Y-189413904D02*
X166262428Y-188613904D01*
X165957666Y-188613904D01*
X165881476Y-188652000D01*
X165843380Y-188690095D01*
X165805285Y-188766285D01*
X165805285Y-188880571D01*
X165843380Y-188956761D01*
X165881476Y-188994857D01*
X165957666Y-189032952D01*
X166262428Y-189032952D01*
X165119571Y-188880571D02*
X165119571Y-189413904D01*
X165310047Y-188575809D02*
X165500523Y-189147238D01*
X165005285Y-189147238D01*
X164738619Y-188690095D02*
X164700523Y-188652000D01*
X164624333Y-188613904D01*
X164433857Y-188613904D01*
X164357666Y-188652000D01*
X164319571Y-188690095D01*
X164281476Y-188766285D01*
X164281476Y-188842476D01*
X164319571Y-188956761D01*
X164776714Y-189413904D01*
X164281476Y-189413904D01*
X44684904Y-186823714D02*
X44303952Y-186557047D01*
X44684904Y-186366571D02*
X43884904Y-186366571D01*
X43884904Y-186671333D01*
X43923000Y-186747523D01*
X43961095Y-186785619D01*
X44037285Y-186823714D01*
X44151571Y-186823714D01*
X44227761Y-186785619D01*
X44265857Y-186747523D01*
X44303952Y-186671333D01*
X44303952Y-186366571D01*
X44151571Y-187509428D02*
X44684904Y-187509428D01*
X43846809Y-187318952D02*
X44418238Y-187128476D01*
X44418238Y-187623714D01*
X44684904Y-188347523D02*
X44684904Y-187890380D01*
X44684904Y-188118952D02*
X43884904Y-188118952D01*
X43999190Y-188042761D01*
X44075380Y-187966571D01*
X44113476Y-187890380D01*
X105607285Y-34220104D02*
X105873952Y-33839152D01*
X106064428Y-34220104D02*
X106064428Y-33420104D01*
X105759666Y-33420104D01*
X105683476Y-33458200D01*
X105645380Y-33496295D01*
X105607285Y-33572485D01*
X105607285Y-33686771D01*
X105645380Y-33762961D01*
X105683476Y-33801057D01*
X105759666Y-33839152D01*
X106064428Y-33839152D01*
X104921571Y-33686771D02*
X104921571Y-34220104D01*
X105112047Y-33382009D02*
X105302523Y-33953438D01*
X104807285Y-33953438D01*
X104350142Y-33420104D02*
X104273952Y-33420104D01*
X104197761Y-33458200D01*
X104159666Y-33496295D01*
X104121571Y-33572485D01*
X104083476Y-33724866D01*
X104083476Y-33915342D01*
X104121571Y-34067723D01*
X104159666Y-34143914D01*
X104197761Y-34182009D01*
X104273952Y-34220104D01*
X104350142Y-34220104D01*
X104426333Y-34182009D01*
X104464428Y-34143914D01*
X104502523Y-34067723D01*
X104540619Y-33915342D01*
X104540619Y-33724866D01*
X104502523Y-33572485D01*
X104464428Y-33496295D01*
X104426333Y-33458200D01*
X104350142Y-33420104D01*
X90811285Y-34220104D02*
X91077952Y-33839152D01*
X91268428Y-34220104D02*
X91268428Y-33420104D01*
X90963666Y-33420104D01*
X90887476Y-33458200D01*
X90849380Y-33496295D01*
X90811285Y-33572485D01*
X90811285Y-33686771D01*
X90849380Y-33762961D01*
X90887476Y-33801057D01*
X90963666Y-33839152D01*
X91268428Y-33839152D01*
X90544619Y-33420104D02*
X90049380Y-33420104D01*
X90316047Y-33724866D01*
X90201761Y-33724866D01*
X90125571Y-33762961D01*
X90087476Y-33801057D01*
X90049380Y-33877247D01*
X90049380Y-34067723D01*
X90087476Y-34143914D01*
X90125571Y-34182009D01*
X90201761Y-34220104D01*
X90430333Y-34220104D01*
X90506523Y-34182009D01*
X90544619Y-34143914D01*
X89668428Y-34220104D02*
X89516047Y-34220104D01*
X89439857Y-34182009D01*
X89401761Y-34143914D01*
X89325571Y-34029628D01*
X89287476Y-33877247D01*
X89287476Y-33572485D01*
X89325571Y-33496295D01*
X89363666Y-33458200D01*
X89439857Y-33420104D01*
X89592238Y-33420104D01*
X89668428Y-33458200D01*
X89706523Y-33496295D01*
X89744619Y-33572485D01*
X89744619Y-33762961D01*
X89706523Y-33839152D01*
X89668428Y-33877247D01*
X89592238Y-33915342D01*
X89439857Y-33915342D01*
X89363666Y-33877247D01*
X89325571Y-33839152D01*
X89287476Y-33762961D01*
X135705285Y-34220104D02*
X135971952Y-33839152D01*
X136162428Y-34220104D02*
X136162428Y-33420104D01*
X135857666Y-33420104D01*
X135781476Y-33458200D01*
X135743380Y-33496295D01*
X135705285Y-33572485D01*
X135705285Y-33686771D01*
X135743380Y-33762961D01*
X135781476Y-33801057D01*
X135857666Y-33839152D01*
X136162428Y-33839152D01*
X135438619Y-33420104D02*
X134943380Y-33420104D01*
X135210047Y-33724866D01*
X135095761Y-33724866D01*
X135019571Y-33762961D01*
X134981476Y-33801057D01*
X134943380Y-33877247D01*
X134943380Y-34067723D01*
X134981476Y-34143914D01*
X135019571Y-34182009D01*
X135095761Y-34220104D01*
X135324333Y-34220104D01*
X135400523Y-34182009D01*
X135438619Y-34143914D01*
X134486238Y-33762961D02*
X134562428Y-33724866D01*
X134600523Y-33686771D01*
X134638619Y-33610580D01*
X134638619Y-33572485D01*
X134600523Y-33496295D01*
X134562428Y-33458200D01*
X134486238Y-33420104D01*
X134333857Y-33420104D01*
X134257666Y-33458200D01*
X134219571Y-33496295D01*
X134181476Y-33572485D01*
X134181476Y-33610580D01*
X134219571Y-33686771D01*
X134257666Y-33724866D01*
X134333857Y-33762961D01*
X134486238Y-33762961D01*
X134562428Y-33801057D01*
X134600523Y-33839152D01*
X134638619Y-33915342D01*
X134638619Y-34067723D01*
X134600523Y-34143914D01*
X134562428Y-34182009D01*
X134486238Y-34220104D01*
X134333857Y-34220104D01*
X134257666Y-34182009D01*
X134219571Y-34143914D01*
X134181476Y-34067723D01*
X134181476Y-33915342D01*
X134219571Y-33839152D01*
X134257666Y-33801057D01*
X134333857Y-33762961D01*
X75507285Y-34220104D02*
X75773952Y-33839152D01*
X75964428Y-34220104D02*
X75964428Y-33420104D01*
X75659666Y-33420104D01*
X75583476Y-33458200D01*
X75545380Y-33496295D01*
X75507285Y-33572485D01*
X75507285Y-33686771D01*
X75545380Y-33762961D01*
X75583476Y-33801057D01*
X75659666Y-33839152D01*
X75964428Y-33839152D01*
X75240619Y-33420104D02*
X74745380Y-33420104D01*
X75012047Y-33724866D01*
X74897761Y-33724866D01*
X74821571Y-33762961D01*
X74783476Y-33801057D01*
X74745380Y-33877247D01*
X74745380Y-34067723D01*
X74783476Y-34143914D01*
X74821571Y-34182009D01*
X74897761Y-34220104D01*
X75126333Y-34220104D01*
X75202523Y-34182009D01*
X75240619Y-34143914D01*
X74478714Y-33420104D02*
X73945380Y-33420104D01*
X74288238Y-34220104D01*
X64649285Y-190175904D02*
X64915952Y-189794952D01*
X65106428Y-190175904D02*
X65106428Y-189375904D01*
X64801666Y-189375904D01*
X64725476Y-189414000D01*
X64687380Y-189452095D01*
X64649285Y-189528285D01*
X64649285Y-189642571D01*
X64687380Y-189718761D01*
X64725476Y-189756857D01*
X64801666Y-189794952D01*
X65106428Y-189794952D01*
X64382619Y-189375904D02*
X63887380Y-189375904D01*
X64154047Y-189680666D01*
X64039761Y-189680666D01*
X63963571Y-189718761D01*
X63925476Y-189756857D01*
X63887380Y-189833047D01*
X63887380Y-190023523D01*
X63925476Y-190099714D01*
X63963571Y-190137809D01*
X64039761Y-190175904D01*
X64268333Y-190175904D01*
X64344523Y-190137809D01*
X64382619Y-190099714D01*
X63201666Y-189375904D02*
X63354047Y-189375904D01*
X63430238Y-189414000D01*
X63468333Y-189452095D01*
X63544523Y-189566380D01*
X63582619Y-189718761D01*
X63582619Y-190023523D01*
X63544523Y-190099714D01*
X63506428Y-190137809D01*
X63430238Y-190175904D01*
X63277857Y-190175904D01*
X63201666Y-190137809D01*
X63163571Y-190099714D01*
X63125476Y-190023523D01*
X63125476Y-189833047D01*
X63163571Y-189756857D01*
X63201666Y-189718761D01*
X63277857Y-189680666D01*
X63430238Y-189680666D01*
X63506428Y-189718761D01*
X63544523Y-189756857D01*
X63582619Y-189833047D01*
X64776285Y-177221904D02*
X65042952Y-176840952D01*
X65233428Y-177221904D02*
X65233428Y-176421904D01*
X64928666Y-176421904D01*
X64852476Y-176460000D01*
X64814380Y-176498095D01*
X64776285Y-176574285D01*
X64776285Y-176688571D01*
X64814380Y-176764761D01*
X64852476Y-176802857D01*
X64928666Y-176840952D01*
X65233428Y-176840952D01*
X64509619Y-176421904D02*
X64014380Y-176421904D01*
X64281047Y-176726666D01*
X64166761Y-176726666D01*
X64090571Y-176764761D01*
X64052476Y-176802857D01*
X64014380Y-176879047D01*
X64014380Y-177069523D01*
X64052476Y-177145714D01*
X64090571Y-177183809D01*
X64166761Y-177221904D01*
X64395333Y-177221904D01*
X64471523Y-177183809D01*
X64509619Y-177145714D01*
X63290571Y-176421904D02*
X63671523Y-176421904D01*
X63709619Y-176802857D01*
X63671523Y-176764761D01*
X63595333Y-176726666D01*
X63404857Y-176726666D01*
X63328666Y-176764761D01*
X63290571Y-176802857D01*
X63252476Y-176879047D01*
X63252476Y-177069523D01*
X63290571Y-177145714D01*
X63328666Y-177183809D01*
X63404857Y-177221904D01*
X63595333Y-177221904D01*
X63671523Y-177183809D01*
X63709619Y-177145714D01*
X165677285Y-237229904D02*
X165943952Y-236848952D01*
X166134428Y-237229904D02*
X166134428Y-236429904D01*
X165829666Y-236429904D01*
X165753476Y-236468000D01*
X165715380Y-236506095D01*
X165677285Y-236582285D01*
X165677285Y-236696571D01*
X165715380Y-236772761D01*
X165753476Y-236810857D01*
X165829666Y-236848952D01*
X166134428Y-236848952D01*
X165410619Y-236429904D02*
X164915380Y-236429904D01*
X165182047Y-236734666D01*
X165067761Y-236734666D01*
X164991571Y-236772761D01*
X164953476Y-236810857D01*
X164915380Y-236887047D01*
X164915380Y-237077523D01*
X164953476Y-237153714D01*
X164991571Y-237191809D01*
X165067761Y-237229904D01*
X165296333Y-237229904D01*
X165372523Y-237191809D01*
X165410619Y-237153714D01*
X164229666Y-236696571D02*
X164229666Y-237229904D01*
X164420142Y-236391809D02*
X164610619Y-236963238D01*
X164115380Y-236963238D01*
X120148285Y-237292904D02*
X120414952Y-236911952D01*
X120605428Y-237292904D02*
X120605428Y-236492904D01*
X120300666Y-236492904D01*
X120224476Y-236531000D01*
X120186380Y-236569095D01*
X120148285Y-236645285D01*
X120148285Y-236759571D01*
X120186380Y-236835761D01*
X120224476Y-236873857D01*
X120300666Y-236911952D01*
X120605428Y-236911952D01*
X119881619Y-236492904D02*
X119386380Y-236492904D01*
X119653047Y-236797666D01*
X119538761Y-236797666D01*
X119462571Y-236835761D01*
X119424476Y-236873857D01*
X119386380Y-236950047D01*
X119386380Y-237140523D01*
X119424476Y-237216714D01*
X119462571Y-237254809D01*
X119538761Y-237292904D01*
X119767333Y-237292904D01*
X119843523Y-237254809D01*
X119881619Y-237216714D01*
X119119714Y-236492904D02*
X118624476Y-236492904D01*
X118891142Y-236797666D01*
X118776857Y-236797666D01*
X118700666Y-236835761D01*
X118662571Y-236873857D01*
X118624476Y-236950047D01*
X118624476Y-237140523D01*
X118662571Y-237216714D01*
X118700666Y-237254809D01*
X118776857Y-237292904D01*
X119005428Y-237292904D01*
X119081619Y-237254809D01*
X119119714Y-237216714D01*
X150120285Y-223259904D02*
X150386952Y-222878952D01*
X150577428Y-223259904D02*
X150577428Y-222459904D01*
X150272666Y-222459904D01*
X150196476Y-222498000D01*
X150158380Y-222536095D01*
X150120285Y-222612285D01*
X150120285Y-222726571D01*
X150158380Y-222802761D01*
X150196476Y-222840857D01*
X150272666Y-222878952D01*
X150577428Y-222878952D01*
X149853619Y-222459904D02*
X149358380Y-222459904D01*
X149625047Y-222764666D01*
X149510761Y-222764666D01*
X149434571Y-222802761D01*
X149396476Y-222840857D01*
X149358380Y-222917047D01*
X149358380Y-223107523D01*
X149396476Y-223183714D01*
X149434571Y-223221809D01*
X149510761Y-223259904D01*
X149739333Y-223259904D01*
X149815523Y-223221809D01*
X149853619Y-223183714D01*
X149053619Y-222536095D02*
X149015523Y-222498000D01*
X148939333Y-222459904D01*
X148748857Y-222459904D01*
X148672666Y-222498000D01*
X148634571Y-222536095D01*
X148596476Y-222612285D01*
X148596476Y-222688476D01*
X148634571Y-222802761D01*
X149091714Y-223259904D01*
X148596476Y-223259904D01*
X105162285Y-223259904D02*
X105428952Y-222878952D01*
X105619428Y-223259904D02*
X105619428Y-222459904D01*
X105314666Y-222459904D01*
X105238476Y-222498000D01*
X105200380Y-222536095D01*
X105162285Y-222612285D01*
X105162285Y-222726571D01*
X105200380Y-222802761D01*
X105238476Y-222840857D01*
X105314666Y-222878952D01*
X105619428Y-222878952D01*
X104895619Y-222459904D02*
X104400380Y-222459904D01*
X104667047Y-222764666D01*
X104552761Y-222764666D01*
X104476571Y-222802761D01*
X104438476Y-222840857D01*
X104400380Y-222917047D01*
X104400380Y-223107523D01*
X104438476Y-223183714D01*
X104476571Y-223221809D01*
X104552761Y-223259904D01*
X104781333Y-223259904D01*
X104857523Y-223221809D01*
X104895619Y-223183714D01*
X103638476Y-223259904D02*
X104095619Y-223259904D01*
X103867047Y-223259904D02*
X103867047Y-222459904D01*
X103943238Y-222574190D01*
X104019428Y-222650380D01*
X104095619Y-222688476D01*
X135134285Y-209225904D02*
X135400952Y-208844952D01*
X135591428Y-209225904D02*
X135591428Y-208425904D01*
X135286666Y-208425904D01*
X135210476Y-208464000D01*
X135172380Y-208502095D01*
X135134285Y-208578285D01*
X135134285Y-208692571D01*
X135172380Y-208768761D01*
X135210476Y-208806857D01*
X135286666Y-208844952D01*
X135591428Y-208844952D01*
X134867619Y-208425904D02*
X134372380Y-208425904D01*
X134639047Y-208730666D01*
X134524761Y-208730666D01*
X134448571Y-208768761D01*
X134410476Y-208806857D01*
X134372380Y-208883047D01*
X134372380Y-209073523D01*
X134410476Y-209149714D01*
X134448571Y-209187809D01*
X134524761Y-209225904D01*
X134753333Y-209225904D01*
X134829523Y-209187809D01*
X134867619Y-209149714D01*
X133877142Y-208425904D02*
X133800952Y-208425904D01*
X133724761Y-208464000D01*
X133686666Y-208502095D01*
X133648571Y-208578285D01*
X133610476Y-208730666D01*
X133610476Y-208921142D01*
X133648571Y-209073523D01*
X133686666Y-209149714D01*
X133724761Y-209187809D01*
X133800952Y-209225904D01*
X133877142Y-209225904D01*
X133953333Y-209187809D01*
X133991428Y-209149714D01*
X134029523Y-209073523D01*
X134067619Y-208921142D01*
X134067619Y-208730666D01*
X134029523Y-208578285D01*
X133991428Y-208502095D01*
X133953333Y-208464000D01*
X133877142Y-208425904D01*
X165577285Y-195065904D02*
X165843952Y-194684952D01*
X166034428Y-195065904D02*
X166034428Y-194265904D01*
X165729666Y-194265904D01*
X165653476Y-194304000D01*
X165615380Y-194342095D01*
X165577285Y-194418285D01*
X165577285Y-194532571D01*
X165615380Y-194608761D01*
X165653476Y-194646857D01*
X165729666Y-194684952D01*
X166034428Y-194684952D01*
X165272523Y-194342095D02*
X165234428Y-194304000D01*
X165158238Y-194265904D01*
X164967761Y-194265904D01*
X164891571Y-194304000D01*
X164853476Y-194342095D01*
X164815380Y-194418285D01*
X164815380Y-194494476D01*
X164853476Y-194608761D01*
X165310619Y-195065904D01*
X164815380Y-195065904D01*
X164434428Y-195065904D02*
X164282047Y-195065904D01*
X164205857Y-195027809D01*
X164167761Y-194989714D01*
X164091571Y-194875428D01*
X164053476Y-194723047D01*
X164053476Y-194418285D01*
X164091571Y-194342095D01*
X164129666Y-194304000D01*
X164205857Y-194265904D01*
X164358238Y-194265904D01*
X164434428Y-194304000D01*
X164472523Y-194342095D01*
X164510619Y-194418285D01*
X164510619Y-194608761D01*
X164472523Y-194684952D01*
X164434428Y-194723047D01*
X164358238Y-194761142D01*
X164205857Y-194761142D01*
X164129666Y-194723047D01*
X164091571Y-194684952D01*
X164053476Y-194608761D01*
X120148285Y-195319904D02*
X120414952Y-194938952D01*
X120605428Y-195319904D02*
X120605428Y-194519904D01*
X120300666Y-194519904D01*
X120224476Y-194558000D01*
X120186380Y-194596095D01*
X120148285Y-194672285D01*
X120148285Y-194786571D01*
X120186380Y-194862761D01*
X120224476Y-194900857D01*
X120300666Y-194938952D01*
X120605428Y-194938952D01*
X119843523Y-194596095D02*
X119805428Y-194558000D01*
X119729238Y-194519904D01*
X119538761Y-194519904D01*
X119462571Y-194558000D01*
X119424476Y-194596095D01*
X119386380Y-194672285D01*
X119386380Y-194748476D01*
X119424476Y-194862761D01*
X119881619Y-195319904D01*
X119386380Y-195319904D01*
X118929238Y-194862761D02*
X119005428Y-194824666D01*
X119043523Y-194786571D01*
X119081619Y-194710380D01*
X119081619Y-194672285D01*
X119043523Y-194596095D01*
X119005428Y-194558000D01*
X118929238Y-194519904D01*
X118776857Y-194519904D01*
X118700666Y-194558000D01*
X118662571Y-194596095D01*
X118624476Y-194672285D01*
X118624476Y-194710380D01*
X118662571Y-194786571D01*
X118700666Y-194824666D01*
X118776857Y-194862761D01*
X118929238Y-194862761D01*
X119005428Y-194900857D01*
X119043523Y-194938952D01*
X119081619Y-195015142D01*
X119081619Y-195167523D01*
X119043523Y-195243714D01*
X119005428Y-195281809D01*
X118929238Y-195319904D01*
X118776857Y-195319904D01*
X118700666Y-195281809D01*
X118662571Y-195243714D01*
X118624476Y-195167523D01*
X118624476Y-195015142D01*
X118662571Y-194938952D01*
X118700666Y-194900857D01*
X118776857Y-194862761D01*
X150183285Y-181285904D02*
X150449952Y-180904952D01*
X150640428Y-181285904D02*
X150640428Y-180485904D01*
X150335666Y-180485904D01*
X150259476Y-180524000D01*
X150221380Y-180562095D01*
X150183285Y-180638285D01*
X150183285Y-180752571D01*
X150221380Y-180828761D01*
X150259476Y-180866857D01*
X150335666Y-180904952D01*
X150640428Y-180904952D01*
X149878523Y-180562095D02*
X149840428Y-180524000D01*
X149764238Y-180485904D01*
X149573761Y-180485904D01*
X149497571Y-180524000D01*
X149459476Y-180562095D01*
X149421380Y-180638285D01*
X149421380Y-180714476D01*
X149459476Y-180828761D01*
X149916619Y-181285904D01*
X149421380Y-181285904D01*
X149154714Y-180485904D02*
X148621380Y-180485904D01*
X148964238Y-181285904D01*
X105162285Y-181222904D02*
X105428952Y-180841952D01*
X105619428Y-181222904D02*
X105619428Y-180422904D01*
X105314666Y-180422904D01*
X105238476Y-180461000D01*
X105200380Y-180499095D01*
X105162285Y-180575285D01*
X105162285Y-180689571D01*
X105200380Y-180765761D01*
X105238476Y-180803857D01*
X105314666Y-180841952D01*
X105619428Y-180841952D01*
X104857523Y-180499095D02*
X104819428Y-180461000D01*
X104743238Y-180422904D01*
X104552761Y-180422904D01*
X104476571Y-180461000D01*
X104438476Y-180499095D01*
X104400380Y-180575285D01*
X104400380Y-180651476D01*
X104438476Y-180765761D01*
X104895619Y-181222904D01*
X104400380Y-181222904D01*
X103714666Y-180422904D02*
X103867047Y-180422904D01*
X103943238Y-180461000D01*
X103981333Y-180499095D01*
X104057523Y-180613380D01*
X104095619Y-180765761D01*
X104095619Y-181070523D01*
X104057523Y-181146714D01*
X104019428Y-181184809D01*
X103943238Y-181222904D01*
X103790857Y-181222904D01*
X103714666Y-181184809D01*
X103676571Y-181146714D01*
X103638476Y-181070523D01*
X103638476Y-180880047D01*
X103676571Y-180803857D01*
X103714666Y-180765761D01*
X103790857Y-180727666D01*
X103943238Y-180727666D01*
X104019428Y-180765761D01*
X104057523Y-180803857D01*
X104095619Y-180880047D01*
X135134285Y-167188904D02*
X135400952Y-166807952D01*
X135591428Y-167188904D02*
X135591428Y-166388904D01*
X135286666Y-166388904D01*
X135210476Y-166427000D01*
X135172380Y-166465095D01*
X135134285Y-166541285D01*
X135134285Y-166655571D01*
X135172380Y-166731761D01*
X135210476Y-166769857D01*
X135286666Y-166807952D01*
X135591428Y-166807952D01*
X134829523Y-166465095D02*
X134791428Y-166427000D01*
X134715238Y-166388904D01*
X134524761Y-166388904D01*
X134448571Y-166427000D01*
X134410476Y-166465095D01*
X134372380Y-166541285D01*
X134372380Y-166617476D01*
X134410476Y-166731761D01*
X134867619Y-167188904D01*
X134372380Y-167188904D01*
X133648571Y-166388904D02*
X134029523Y-166388904D01*
X134067619Y-166769857D01*
X134029523Y-166731761D01*
X133953333Y-166693666D01*
X133762857Y-166693666D01*
X133686666Y-166731761D01*
X133648571Y-166769857D01*
X133610476Y-166846047D01*
X133610476Y-167036523D01*
X133648571Y-167112714D01*
X133686666Y-167150809D01*
X133762857Y-167188904D01*
X133953333Y-167188904D01*
X134029523Y-167150809D01*
X134067619Y-167112714D01*
X89097285Y-238054904D02*
X89363952Y-237673952D01*
X89554428Y-238054904D02*
X89554428Y-237254904D01*
X89249666Y-237254904D01*
X89173476Y-237293000D01*
X89135380Y-237331095D01*
X89097285Y-237407285D01*
X89097285Y-237521571D01*
X89135380Y-237597761D01*
X89173476Y-237635857D01*
X89249666Y-237673952D01*
X89554428Y-237673952D01*
X88792523Y-237331095D02*
X88754428Y-237293000D01*
X88678238Y-237254904D01*
X88487761Y-237254904D01*
X88411571Y-237293000D01*
X88373476Y-237331095D01*
X88335380Y-237407285D01*
X88335380Y-237483476D01*
X88373476Y-237597761D01*
X88830619Y-238054904D01*
X88335380Y-238054904D01*
X87649666Y-237521571D02*
X87649666Y-238054904D01*
X87840142Y-237216809D02*
X88030619Y-237788238D01*
X87535380Y-237788238D01*
X89223285Y-226370904D02*
X89489952Y-225989952D01*
X89680428Y-226370904D02*
X89680428Y-225570904D01*
X89375666Y-225570904D01*
X89299476Y-225609000D01*
X89261380Y-225647095D01*
X89223285Y-225723285D01*
X89223285Y-225837571D01*
X89261380Y-225913761D01*
X89299476Y-225951857D01*
X89375666Y-225989952D01*
X89680428Y-225989952D01*
X88918523Y-225647095D02*
X88880428Y-225609000D01*
X88804238Y-225570904D01*
X88613761Y-225570904D01*
X88537571Y-225609000D01*
X88499476Y-225647095D01*
X88461380Y-225723285D01*
X88461380Y-225799476D01*
X88499476Y-225913761D01*
X88956619Y-226370904D01*
X88461380Y-226370904D01*
X88194714Y-225570904D02*
X87699476Y-225570904D01*
X87966142Y-225875666D01*
X87851857Y-225875666D01*
X87775666Y-225913761D01*
X87737571Y-225951857D01*
X87699476Y-226028047D01*
X87699476Y-226218523D01*
X87737571Y-226294714D01*
X87775666Y-226332809D01*
X87851857Y-226370904D01*
X88080428Y-226370904D01*
X88156619Y-226332809D01*
X88194714Y-226294714D01*
X89160285Y-214178904D02*
X89426952Y-213797952D01*
X89617428Y-214178904D02*
X89617428Y-213378904D01*
X89312666Y-213378904D01*
X89236476Y-213417000D01*
X89198380Y-213455095D01*
X89160285Y-213531285D01*
X89160285Y-213645571D01*
X89198380Y-213721761D01*
X89236476Y-213759857D01*
X89312666Y-213797952D01*
X89617428Y-213797952D01*
X88855523Y-213455095D02*
X88817428Y-213417000D01*
X88741238Y-213378904D01*
X88550761Y-213378904D01*
X88474571Y-213417000D01*
X88436476Y-213455095D01*
X88398380Y-213531285D01*
X88398380Y-213607476D01*
X88436476Y-213721761D01*
X88893619Y-214178904D01*
X88398380Y-214178904D01*
X88093619Y-213455095D02*
X88055523Y-213417000D01*
X87979333Y-213378904D01*
X87788857Y-213378904D01*
X87712666Y-213417000D01*
X87674571Y-213455095D01*
X87636476Y-213531285D01*
X87636476Y-213607476D01*
X87674571Y-213721761D01*
X88131714Y-214178904D01*
X87636476Y-214178904D01*
X89160285Y-202240904D02*
X89426952Y-201859952D01*
X89617428Y-202240904D02*
X89617428Y-201440904D01*
X89312666Y-201440904D01*
X89236476Y-201479000D01*
X89198380Y-201517095D01*
X89160285Y-201593285D01*
X89160285Y-201707571D01*
X89198380Y-201783761D01*
X89236476Y-201821857D01*
X89312666Y-201859952D01*
X89617428Y-201859952D01*
X88855523Y-201517095D02*
X88817428Y-201479000D01*
X88741238Y-201440904D01*
X88550761Y-201440904D01*
X88474571Y-201479000D01*
X88436476Y-201517095D01*
X88398380Y-201593285D01*
X88398380Y-201669476D01*
X88436476Y-201783761D01*
X88893619Y-202240904D01*
X88398380Y-202240904D01*
X87636476Y-202240904D02*
X88093619Y-202240904D01*
X87865047Y-202240904D02*
X87865047Y-201440904D01*
X87941238Y-201555190D01*
X88017428Y-201631380D01*
X88093619Y-201669476D01*
X64713285Y-163886904D02*
X64979952Y-163505952D01*
X65170428Y-163886904D02*
X65170428Y-163086904D01*
X64865666Y-163086904D01*
X64789476Y-163125000D01*
X64751380Y-163163095D01*
X64713285Y-163239285D01*
X64713285Y-163353571D01*
X64751380Y-163429761D01*
X64789476Y-163467857D01*
X64865666Y-163505952D01*
X65170428Y-163505952D01*
X64408523Y-163163095D02*
X64370428Y-163125000D01*
X64294238Y-163086904D01*
X64103761Y-163086904D01*
X64027571Y-163125000D01*
X63989476Y-163163095D01*
X63951380Y-163239285D01*
X63951380Y-163315476D01*
X63989476Y-163429761D01*
X64446619Y-163886904D01*
X63951380Y-163886904D01*
X63456142Y-163086904D02*
X63379952Y-163086904D01*
X63303761Y-163125000D01*
X63265666Y-163163095D01*
X63227571Y-163239285D01*
X63189476Y-163391666D01*
X63189476Y-163582142D01*
X63227571Y-163734523D01*
X63265666Y-163810714D01*
X63303761Y-163848809D01*
X63379952Y-163886904D01*
X63456142Y-163886904D01*
X63532333Y-163848809D01*
X63570428Y-163810714D01*
X63608523Y-163734523D01*
X63646619Y-163582142D01*
X63646619Y-163391666D01*
X63608523Y-163239285D01*
X63570428Y-163163095D01*
X63532333Y-163125000D01*
X63456142Y-163086904D01*
X118687285Y-151059904D02*
X118953952Y-150678952D01*
X119144428Y-151059904D02*
X119144428Y-150259904D01*
X118839666Y-150259904D01*
X118763476Y-150298000D01*
X118725380Y-150336095D01*
X118687285Y-150412285D01*
X118687285Y-150526571D01*
X118725380Y-150602761D01*
X118763476Y-150640857D01*
X118839666Y-150678952D01*
X119144428Y-150678952D01*
X117925380Y-151059904D02*
X118382523Y-151059904D01*
X118153952Y-151059904D02*
X118153952Y-150259904D01*
X118230142Y-150374190D01*
X118306333Y-150450380D01*
X118382523Y-150488476D01*
X117544428Y-151059904D02*
X117392047Y-151059904D01*
X117315857Y-151021809D01*
X117277761Y-150983714D01*
X117201571Y-150869428D01*
X117163476Y-150717047D01*
X117163476Y-150412285D01*
X117201571Y-150336095D01*
X117239666Y-150298000D01*
X117315857Y-150259904D01*
X117468238Y-150259904D01*
X117544428Y-150298000D01*
X117582523Y-150336095D01*
X117620619Y-150412285D01*
X117620619Y-150602761D01*
X117582523Y-150678952D01*
X117544428Y-150717047D01*
X117468238Y-150755142D01*
X117315857Y-150755142D01*
X117239666Y-150717047D01*
X117201571Y-150678952D01*
X117163476Y-150602761D01*
X64713285Y-151059904D02*
X64979952Y-150678952D01*
X65170428Y-151059904D02*
X65170428Y-150259904D01*
X64865666Y-150259904D01*
X64789476Y-150298000D01*
X64751380Y-150336095D01*
X64713285Y-150412285D01*
X64713285Y-150526571D01*
X64751380Y-150602761D01*
X64789476Y-150640857D01*
X64865666Y-150678952D01*
X65170428Y-150678952D01*
X63951380Y-151059904D02*
X64408523Y-151059904D01*
X64179952Y-151059904D02*
X64179952Y-150259904D01*
X64256142Y-150374190D01*
X64332333Y-150450380D01*
X64408523Y-150488476D01*
X63494238Y-150602761D02*
X63570428Y-150564666D01*
X63608523Y-150526571D01*
X63646619Y-150450380D01*
X63646619Y-150412285D01*
X63608523Y-150336095D01*
X63570428Y-150298000D01*
X63494238Y-150259904D01*
X63341857Y-150259904D01*
X63265666Y-150298000D01*
X63227571Y-150336095D01*
X63189476Y-150412285D01*
X63189476Y-150450380D01*
X63227571Y-150526571D01*
X63265666Y-150564666D01*
X63341857Y-150602761D01*
X63494238Y-150602761D01*
X63570428Y-150640857D01*
X63608523Y-150678952D01*
X63646619Y-150755142D01*
X63646619Y-150907523D01*
X63608523Y-150983714D01*
X63570428Y-151021809D01*
X63494238Y-151059904D01*
X63341857Y-151059904D01*
X63265666Y-151021809D01*
X63227571Y-150983714D01*
X63189476Y-150907523D01*
X63189476Y-150755142D01*
X63227571Y-150678952D01*
X63265666Y-150640857D01*
X63341857Y-150602761D01*
X100717285Y-138042904D02*
X100983952Y-137661952D01*
X101174428Y-138042904D02*
X101174428Y-137242904D01*
X100869666Y-137242904D01*
X100793476Y-137281000D01*
X100755380Y-137319095D01*
X100717285Y-137395285D01*
X100717285Y-137509571D01*
X100755380Y-137585761D01*
X100793476Y-137623857D01*
X100869666Y-137661952D01*
X101174428Y-137661952D01*
X99955380Y-138042904D02*
X100412523Y-138042904D01*
X100183952Y-138042904D02*
X100183952Y-137242904D01*
X100260142Y-137357190D01*
X100336333Y-137433380D01*
X100412523Y-137471476D01*
X99688714Y-137242904D02*
X99155380Y-137242904D01*
X99498238Y-138042904D01*
X163773285Y-113658904D02*
X164039952Y-113277952D01*
X164230428Y-113658904D02*
X164230428Y-112858904D01*
X163925666Y-112858904D01*
X163849476Y-112897000D01*
X163811380Y-112935095D01*
X163773285Y-113011285D01*
X163773285Y-113125571D01*
X163811380Y-113201761D01*
X163849476Y-113239857D01*
X163925666Y-113277952D01*
X164230428Y-113277952D01*
X163011380Y-113658904D02*
X163468523Y-113658904D01*
X163239952Y-113658904D02*
X163239952Y-112858904D01*
X163316142Y-112973190D01*
X163392333Y-113049380D01*
X163468523Y-113087476D01*
X162325666Y-112858904D02*
X162478047Y-112858904D01*
X162554238Y-112897000D01*
X162592333Y-112935095D01*
X162668523Y-113049380D01*
X162706619Y-113201761D01*
X162706619Y-113506523D01*
X162668523Y-113582714D01*
X162630428Y-113620809D01*
X162554238Y-113658904D01*
X162401857Y-113658904D01*
X162325666Y-113620809D01*
X162287571Y-113582714D01*
X162249476Y-113506523D01*
X162249476Y-113316047D01*
X162287571Y-113239857D01*
X162325666Y-113201761D01*
X162401857Y-113163666D01*
X162554238Y-113163666D01*
X162630428Y-113201761D01*
X162668523Y-113239857D01*
X162706619Y-113316047D01*
X163607285Y-82175304D02*
X163873952Y-81794352D01*
X164064428Y-82175304D02*
X164064428Y-81375304D01*
X163759666Y-81375304D01*
X163683476Y-81413400D01*
X163645380Y-81451495D01*
X163607285Y-81527685D01*
X163607285Y-81641971D01*
X163645380Y-81718161D01*
X163683476Y-81756257D01*
X163759666Y-81794352D01*
X164064428Y-81794352D01*
X162845380Y-82175304D02*
X163302523Y-82175304D01*
X163073952Y-82175304D02*
X163073952Y-81375304D01*
X163150142Y-81489590D01*
X163226333Y-81565780D01*
X163302523Y-81603876D01*
X162121571Y-81375304D02*
X162502523Y-81375304D01*
X162540619Y-81756257D01*
X162502523Y-81718161D01*
X162426333Y-81680066D01*
X162235857Y-81680066D01*
X162159666Y-81718161D01*
X162121571Y-81756257D01*
X162083476Y-81832447D01*
X162083476Y-82022923D01*
X162121571Y-82099114D01*
X162159666Y-82137209D01*
X162235857Y-82175304D01*
X162426333Y-82175304D01*
X162502523Y-82137209D01*
X162540619Y-82099114D01*
X47316285Y-113655904D02*
X47582952Y-113274952D01*
X47773428Y-113655904D02*
X47773428Y-112855904D01*
X47468666Y-112855904D01*
X47392476Y-112894000D01*
X47354380Y-112932095D01*
X47316285Y-113008285D01*
X47316285Y-113122571D01*
X47354380Y-113198761D01*
X47392476Y-113236857D01*
X47468666Y-113274952D01*
X47773428Y-113274952D01*
X46554380Y-113655904D02*
X47011523Y-113655904D01*
X46782952Y-113655904D02*
X46782952Y-112855904D01*
X46859142Y-112970190D01*
X46935333Y-113046380D01*
X47011523Y-113084476D01*
X45868666Y-113122571D02*
X45868666Y-113655904D01*
X46059142Y-112817809D02*
X46249619Y-113389238D01*
X45754380Y-113389238D01*
X47392485Y-82104204D02*
X47659152Y-81723252D01*
X47849628Y-82104204D02*
X47849628Y-81304204D01*
X47544866Y-81304204D01*
X47468676Y-81342300D01*
X47430580Y-81380395D01*
X47392485Y-81456585D01*
X47392485Y-81570871D01*
X47430580Y-81647061D01*
X47468676Y-81685157D01*
X47544866Y-81723252D01*
X47849628Y-81723252D01*
X46630580Y-82104204D02*
X47087723Y-82104204D01*
X46859152Y-82104204D02*
X46859152Y-81304204D01*
X46935342Y-81418490D01*
X47011533Y-81494680D01*
X47087723Y-81532776D01*
X46363914Y-81304204D02*
X45868676Y-81304204D01*
X46135342Y-81608966D01*
X46021057Y-81608966D01*
X45944866Y-81647061D01*
X45906771Y-81685157D01*
X45868676Y-81761347D01*
X45868676Y-81951823D01*
X45906771Y-82028014D01*
X45944866Y-82066109D01*
X46021057Y-82104204D01*
X46249628Y-82104204D01*
X46325819Y-82066109D01*
X46363914Y-82028014D01*
X46425285Y-42919604D02*
X46691952Y-42538652D01*
X46882428Y-42919604D02*
X46882428Y-42119604D01*
X46577666Y-42119604D01*
X46501476Y-42157700D01*
X46463380Y-42195795D01*
X46425285Y-42271985D01*
X46425285Y-42386271D01*
X46463380Y-42462461D01*
X46501476Y-42500557D01*
X46577666Y-42538652D01*
X46882428Y-42538652D01*
X45663380Y-42919604D02*
X46120523Y-42919604D01*
X45891952Y-42919604D02*
X45891952Y-42119604D01*
X45968142Y-42233890D01*
X46044333Y-42310080D01*
X46120523Y-42348176D01*
X45358619Y-42195795D02*
X45320523Y-42157700D01*
X45244333Y-42119604D01*
X45053857Y-42119604D01*
X44977666Y-42157700D01*
X44939571Y-42195795D01*
X44901476Y-42271985D01*
X44901476Y-42348176D01*
X44939571Y-42462461D01*
X45396714Y-42919604D01*
X44901476Y-42919604D01*
X87014504Y-63938214D02*
X86633552Y-63671547D01*
X87014504Y-63481071D02*
X86214504Y-63481071D01*
X86214504Y-63785833D01*
X86252600Y-63862023D01*
X86290695Y-63900119D01*
X86366885Y-63938214D01*
X86481171Y-63938214D01*
X86557361Y-63900119D01*
X86595457Y-63862023D01*
X86633552Y-63785833D01*
X86633552Y-63481071D01*
X87014504Y-64700119D02*
X87014504Y-64242976D01*
X87014504Y-64471547D02*
X86214504Y-64471547D01*
X86328790Y-64395357D01*
X86404980Y-64319166D01*
X86443076Y-64242976D01*
X87014504Y-65462023D02*
X87014504Y-65004880D01*
X87014504Y-65233452D02*
X86214504Y-65233452D01*
X86328790Y-65157261D01*
X86404980Y-65081071D01*
X86443076Y-65004880D01*
X82060504Y-63938214D02*
X81679552Y-63671547D01*
X82060504Y-63481071D02*
X81260504Y-63481071D01*
X81260504Y-63785833D01*
X81298600Y-63862023D01*
X81336695Y-63900119D01*
X81412885Y-63938214D01*
X81527171Y-63938214D01*
X81603361Y-63900119D01*
X81641457Y-63862023D01*
X81679552Y-63785833D01*
X81679552Y-63481071D01*
X82060504Y-64700119D02*
X82060504Y-64242976D01*
X82060504Y-64471547D02*
X81260504Y-64471547D01*
X81374790Y-64395357D01*
X81450980Y-64319166D01*
X81489076Y-64242976D01*
X81260504Y-65195357D02*
X81260504Y-65271547D01*
X81298600Y-65347738D01*
X81336695Y-65385833D01*
X81412885Y-65423928D01*
X81565266Y-65462023D01*
X81755742Y-65462023D01*
X81908123Y-65423928D01*
X81984314Y-65385833D01*
X82022409Y-65347738D01*
X82060504Y-65271547D01*
X82060504Y-65195357D01*
X82022409Y-65119166D01*
X81984314Y-65081071D01*
X81908123Y-65042976D01*
X81755742Y-65004880D01*
X81565266Y-65004880D01*
X81412885Y-65042976D01*
X81336695Y-65081071D01*
X81298600Y-65119166D01*
X81260504Y-65195357D01*
X103016904Y-78035166D02*
X102635952Y-77768500D01*
X103016904Y-77578023D02*
X102216904Y-77578023D01*
X102216904Y-77882785D01*
X102255000Y-77958976D01*
X102293095Y-77997071D01*
X102369285Y-78035166D01*
X102483571Y-78035166D01*
X102559761Y-77997071D01*
X102597857Y-77958976D01*
X102635952Y-77882785D01*
X102635952Y-77578023D01*
X103016904Y-78416119D02*
X103016904Y-78568500D01*
X102978809Y-78644690D01*
X102940714Y-78682785D01*
X102826428Y-78758976D01*
X102674047Y-78797071D01*
X102369285Y-78797071D01*
X102293095Y-78758976D01*
X102255000Y-78720880D01*
X102216904Y-78644690D01*
X102216904Y-78492309D01*
X102255000Y-78416119D01*
X102293095Y-78378023D01*
X102369285Y-78339928D01*
X102559761Y-78339928D01*
X102635952Y-78378023D01*
X102674047Y-78416119D01*
X102712142Y-78492309D01*
X102712142Y-78644690D01*
X102674047Y-78720880D01*
X102635952Y-78758976D01*
X102559761Y-78797071D01*
X98228695Y-78327833D02*
X98609647Y-78594500D01*
X98228695Y-78784976D02*
X99028695Y-78784976D01*
X99028695Y-78480214D01*
X98990600Y-78404023D01*
X98952504Y-78365928D01*
X98876314Y-78327833D01*
X98762028Y-78327833D01*
X98685838Y-78365928D01*
X98647742Y-78404023D01*
X98609647Y-78480214D01*
X98609647Y-78784976D01*
X98685838Y-77870690D02*
X98723933Y-77946880D01*
X98762028Y-77984976D01*
X98838219Y-78023071D01*
X98876314Y-78023071D01*
X98952504Y-77984976D01*
X98990600Y-77946880D01*
X99028695Y-77870690D01*
X99028695Y-77718309D01*
X98990600Y-77642119D01*
X98952504Y-77604023D01*
X98876314Y-77565928D01*
X98838219Y-77565928D01*
X98762028Y-77604023D01*
X98723933Y-77642119D01*
X98685838Y-77718309D01*
X98685838Y-77870690D01*
X98647742Y-77946880D01*
X98609647Y-77984976D01*
X98533457Y-78023071D01*
X98381076Y-78023071D01*
X98304885Y-77984976D01*
X98266790Y-77946880D01*
X98228695Y-77870690D01*
X98228695Y-77718309D01*
X98266790Y-77642119D01*
X98304885Y-77604023D01*
X98381076Y-77565928D01*
X98533457Y-77565928D01*
X98609647Y-77604023D01*
X98647742Y-77642119D01*
X98685838Y-77718309D01*
X98761504Y-64319166D02*
X98380552Y-64052500D01*
X98761504Y-63862023D02*
X97961504Y-63862023D01*
X97961504Y-64166785D01*
X97999600Y-64242976D01*
X98037695Y-64281071D01*
X98113885Y-64319166D01*
X98228171Y-64319166D01*
X98304361Y-64281071D01*
X98342457Y-64242976D01*
X98380552Y-64166785D01*
X98380552Y-63862023D01*
X97961504Y-64585833D02*
X97961504Y-65119166D01*
X98761504Y-64776309D01*
X93744504Y-64319166D02*
X93363552Y-64052500D01*
X93744504Y-63862023D02*
X92944504Y-63862023D01*
X92944504Y-64166785D01*
X92982600Y-64242976D01*
X93020695Y-64281071D01*
X93096885Y-64319166D01*
X93211171Y-64319166D01*
X93287361Y-64281071D01*
X93325457Y-64242976D01*
X93363552Y-64166785D01*
X93363552Y-63862023D01*
X92944504Y-65004880D02*
X92944504Y-64852500D01*
X92982600Y-64776309D01*
X93020695Y-64738214D01*
X93134980Y-64662023D01*
X93287361Y-64623928D01*
X93592123Y-64623928D01*
X93668314Y-64662023D01*
X93706409Y-64700119D01*
X93744504Y-64776309D01*
X93744504Y-64928690D01*
X93706409Y-65004880D01*
X93668314Y-65042976D01*
X93592123Y-65081071D01*
X93401647Y-65081071D01*
X93325457Y-65042976D01*
X93287361Y-65004880D01*
X93249266Y-64928690D01*
X93249266Y-64776309D01*
X93287361Y-64700119D01*
X93325457Y-64662023D01*
X93401647Y-64623928D01*
X124224904Y-78162166D02*
X123843952Y-77895500D01*
X124224904Y-77705023D02*
X123424904Y-77705023D01*
X123424904Y-78009785D01*
X123463000Y-78085976D01*
X123501095Y-78124071D01*
X123577285Y-78162166D01*
X123691571Y-78162166D01*
X123767761Y-78124071D01*
X123805857Y-78085976D01*
X123843952Y-78009785D01*
X123843952Y-77705023D01*
X123424904Y-78885976D02*
X123424904Y-78505023D01*
X123805857Y-78466928D01*
X123767761Y-78505023D01*
X123729666Y-78581214D01*
X123729666Y-78771690D01*
X123767761Y-78847880D01*
X123805857Y-78885976D01*
X123882047Y-78924071D01*
X124072523Y-78924071D01*
X124148714Y-78885976D01*
X124186809Y-78847880D01*
X124224904Y-78771690D01*
X124224904Y-78581214D01*
X124186809Y-78505023D01*
X124148714Y-78466928D01*
X61512904Y-35820366D02*
X61131952Y-35553700D01*
X61512904Y-35363223D02*
X60712904Y-35363223D01*
X60712904Y-35667985D01*
X60751000Y-35744176D01*
X60789095Y-35782271D01*
X60865285Y-35820366D01*
X60979571Y-35820366D01*
X61055761Y-35782271D01*
X61093857Y-35744176D01*
X61131952Y-35667985D01*
X61131952Y-35363223D01*
X60979571Y-36506080D02*
X61512904Y-36506080D01*
X60674809Y-36315604D02*
X61246238Y-36125128D01*
X61246238Y-36620366D01*
X65702904Y-35820366D02*
X65321952Y-35553700D01*
X65702904Y-35363223D02*
X64902904Y-35363223D01*
X64902904Y-35667985D01*
X64941000Y-35744176D01*
X64979095Y-35782271D01*
X65055285Y-35820366D01*
X65169571Y-35820366D01*
X65245761Y-35782271D01*
X65283857Y-35744176D01*
X65321952Y-35667985D01*
X65321952Y-35363223D01*
X64902904Y-36087033D02*
X64902904Y-36582271D01*
X65207666Y-36315604D01*
X65207666Y-36429890D01*
X65245761Y-36506080D01*
X65283857Y-36544176D01*
X65360047Y-36582271D01*
X65550523Y-36582271D01*
X65626714Y-36544176D01*
X65664809Y-36506080D01*
X65702904Y-36429890D01*
X65702904Y-36201319D01*
X65664809Y-36125128D01*
X65626714Y-36087033D01*
X57257904Y-35820366D02*
X56876952Y-35553700D01*
X57257904Y-35363223D02*
X56457904Y-35363223D01*
X56457904Y-35667985D01*
X56496000Y-35744176D01*
X56534095Y-35782271D01*
X56610285Y-35820366D01*
X56724571Y-35820366D01*
X56800761Y-35782271D01*
X56838857Y-35744176D01*
X56876952Y-35667985D01*
X56876952Y-35363223D01*
X56534095Y-36125128D02*
X56496000Y-36163223D01*
X56457904Y-36239414D01*
X56457904Y-36429890D01*
X56496000Y-36506080D01*
X56534095Y-36544176D01*
X56610285Y-36582271D01*
X56686476Y-36582271D01*
X56800761Y-36544176D01*
X57257904Y-36087033D01*
X57257904Y-36582271D01*
X53447904Y-35820366D02*
X53066952Y-35553700D01*
X53447904Y-35363223D02*
X52647904Y-35363223D01*
X52647904Y-35667985D01*
X52686000Y-35744176D01*
X52724095Y-35782271D01*
X52800285Y-35820366D01*
X52914571Y-35820366D01*
X52990761Y-35782271D01*
X53028857Y-35744176D01*
X53066952Y-35667985D01*
X53066952Y-35363223D01*
X53447904Y-36582271D02*
X53447904Y-36125128D01*
X53447904Y-36353700D02*
X52647904Y-36353700D01*
X52762190Y-36277509D01*
X52838380Y-36201319D01*
X52876476Y-36125128D01*
D12*
X172959780Y-213862126D02*
X173674066Y-213862126D01*
X173816923Y-213814507D01*
X173912161Y-213719269D01*
X173959780Y-213576412D01*
X173959780Y-213481174D01*
X173293114Y-214766888D02*
X173959780Y-214766888D01*
X172912161Y-214528793D02*
X173626447Y-214290698D01*
X173626447Y-214909745D01*
X105107933Y-71029580D02*
X105107933Y-71743866D01*
X105155552Y-71886723D01*
X105250790Y-71981961D01*
X105393647Y-72029580D01*
X105488885Y-72029580D01*
X104155552Y-71029580D02*
X104631742Y-71029580D01*
X104679361Y-71505771D01*
X104631742Y-71458152D01*
X104536504Y-71410533D01*
X104298409Y-71410533D01*
X104203171Y-71458152D01*
X104155552Y-71505771D01*
X104107933Y-71601009D01*
X104107933Y-71839104D01*
X104155552Y-71934342D01*
X104203171Y-71981961D01*
X104298409Y-72029580D01*
X104536504Y-72029580D01*
X104631742Y-71981961D01*
X104679361Y-71934342D01*
X37234380Y-214131666D02*
X37948666Y-214131666D01*
X38091523Y-214084047D01*
X38186761Y-213988809D01*
X38234380Y-213845952D01*
X38234380Y-213750714D01*
X37329619Y-214560238D02*
X37282000Y-214607857D01*
X37234380Y-214703095D01*
X37234380Y-214941190D01*
X37282000Y-215036428D01*
X37329619Y-215084047D01*
X37424857Y-215131666D01*
X37520095Y-215131666D01*
X37662952Y-215084047D01*
X38234380Y-214512619D01*
X38234380Y-215131666D01*
X37234380Y-224735666D02*
X37948666Y-224735666D01*
X38091523Y-224688047D01*
X38186761Y-224592809D01*
X38234380Y-224449952D01*
X38234380Y-224354714D01*
X38234380Y-225735666D02*
X38234380Y-225164238D01*
X38234380Y-225449952D02*
X37234380Y-225449952D01*
X37377238Y-225354714D01*
X37472476Y-225259476D01*
X37520095Y-225164238D01*
D11*
X55505276Y-27844704D02*
X55505276Y-27044704D01*
X55314800Y-27044704D01*
X55200514Y-27082800D01*
X55124323Y-27158990D01*
X55086228Y-27235180D01*
X55048133Y-27387561D01*
X55048133Y-27501847D01*
X55086228Y-27654228D01*
X55124323Y-27730419D01*
X55200514Y-27806609D01*
X55314800Y-27844704D01*
X55505276Y-27844704D01*
X54362419Y-27311371D02*
X54362419Y-27844704D01*
X54552895Y-27006609D02*
X54743371Y-27578038D01*
X54248133Y-27578038D01*
X62375476Y-27806604D02*
X62375476Y-27006604D01*
X62185000Y-27006604D01*
X62070714Y-27044700D01*
X61994523Y-27120890D01*
X61956428Y-27197080D01*
X61918333Y-27349461D01*
X61918333Y-27463747D01*
X61956428Y-27616128D01*
X61994523Y-27692319D01*
X62070714Y-27768509D01*
X62185000Y-27806604D01*
X62375476Y-27806604D01*
X61651666Y-27006604D02*
X61156428Y-27006604D01*
X61423095Y-27311366D01*
X61308809Y-27311366D01*
X61232619Y-27349461D01*
X61194523Y-27387557D01*
X61156428Y-27463747D01*
X61156428Y-27654223D01*
X61194523Y-27730414D01*
X61232619Y-27768509D01*
X61308809Y-27806604D01*
X61537380Y-27806604D01*
X61613571Y-27768509D01*
X61651666Y-27730414D01*
X48545676Y-27793904D02*
X48545676Y-26993904D01*
X48355200Y-26993904D01*
X48240914Y-27032000D01*
X48164723Y-27108190D01*
X48126628Y-27184380D01*
X48088533Y-27336761D01*
X48088533Y-27451047D01*
X48126628Y-27603428D01*
X48164723Y-27679619D01*
X48240914Y-27755809D01*
X48355200Y-27793904D01*
X48545676Y-27793904D01*
X47783771Y-27070095D02*
X47745676Y-27032000D01*
X47669485Y-26993904D01*
X47479009Y-26993904D01*
X47402819Y-27032000D01*
X47364723Y-27070095D01*
X47326628Y-27146285D01*
X47326628Y-27222476D01*
X47364723Y-27336761D01*
X47821866Y-27793904D01*
X47326628Y-27793904D01*
X41611476Y-27844704D02*
X41611476Y-27044704D01*
X41421000Y-27044704D01*
X41306714Y-27082800D01*
X41230523Y-27158990D01*
X41192428Y-27235180D01*
X41154333Y-27387561D01*
X41154333Y-27501847D01*
X41192428Y-27654228D01*
X41230523Y-27730419D01*
X41306714Y-27806609D01*
X41421000Y-27844704D01*
X41611476Y-27844704D01*
X40392428Y-27844704D02*
X40849571Y-27844704D01*
X40621000Y-27844704D02*
X40621000Y-27044704D01*
X40697190Y-27158990D01*
X40773380Y-27235180D01*
X40849571Y-27273276D01*
X148977333Y-111232714D02*
X149015428Y-111270809D01*
X149129714Y-111308904D01*
X149205904Y-111308904D01*
X149320190Y-111270809D01*
X149396380Y-111194619D01*
X149434476Y-111118428D01*
X149472571Y-110966047D01*
X149472571Y-110851761D01*
X149434476Y-110699380D01*
X149396380Y-110623190D01*
X149320190Y-110547000D01*
X149205904Y-110508904D01*
X149129714Y-110508904D01*
X149015428Y-110547000D01*
X148977333Y-110585095D01*
X148253523Y-110508904D02*
X148634476Y-110508904D01*
X148672571Y-110889857D01*
X148634476Y-110851761D01*
X148558285Y-110813666D01*
X148367809Y-110813666D01*
X148291619Y-110851761D01*
X148253523Y-110889857D01*
X148215428Y-110966047D01*
X148215428Y-111156523D01*
X148253523Y-111232714D01*
X148291619Y-111270809D01*
X148367809Y-111308904D01*
X148558285Y-111308904D01*
X148634476Y-111270809D01*
X148672571Y-111232714D01*
X127387333Y-111232714D02*
X127425428Y-111270809D01*
X127539714Y-111308904D01*
X127615904Y-111308904D01*
X127730190Y-111270809D01*
X127806380Y-111194619D01*
X127844476Y-111118428D01*
X127882571Y-110966047D01*
X127882571Y-110851761D01*
X127844476Y-110699380D01*
X127806380Y-110623190D01*
X127730190Y-110547000D01*
X127615904Y-110508904D01*
X127539714Y-110508904D01*
X127425428Y-110547000D01*
X127387333Y-110585095D01*
X126701619Y-110775571D02*
X126701619Y-111308904D01*
X126892095Y-110470809D02*
X127082571Y-111042238D01*
X126587333Y-111042238D01*
X104273333Y-111639714D02*
X104311428Y-111677809D01*
X104425714Y-111715904D01*
X104501904Y-111715904D01*
X104616190Y-111677809D01*
X104692380Y-111601619D01*
X104730476Y-111525428D01*
X104768571Y-111373047D01*
X104768571Y-111258761D01*
X104730476Y-111106380D01*
X104692380Y-111030190D01*
X104616190Y-110954000D01*
X104501904Y-110915904D01*
X104425714Y-110915904D01*
X104311428Y-110954000D01*
X104273333Y-110992095D01*
X104006666Y-110915904D02*
X103511428Y-110915904D01*
X103778095Y-111220666D01*
X103663809Y-111220666D01*
X103587619Y-111258761D01*
X103549523Y-111296857D01*
X103511428Y-111373047D01*
X103511428Y-111563523D01*
X103549523Y-111639714D01*
X103587619Y-111677809D01*
X103663809Y-111715904D01*
X103892380Y-111715904D01*
X103968571Y-111677809D01*
X104006666Y-111639714D01*
X82937333Y-111232714D02*
X82975428Y-111270809D01*
X83089714Y-111308904D01*
X83165904Y-111308904D01*
X83280190Y-111270809D01*
X83356380Y-111194619D01*
X83394476Y-111118428D01*
X83432571Y-110966047D01*
X83432571Y-110851761D01*
X83394476Y-110699380D01*
X83356380Y-110623190D01*
X83280190Y-110547000D01*
X83165904Y-110508904D01*
X83089714Y-110508904D01*
X82975428Y-110547000D01*
X82937333Y-110585095D01*
X82632571Y-110585095D02*
X82594476Y-110547000D01*
X82518285Y-110508904D01*
X82327809Y-110508904D01*
X82251619Y-110547000D01*
X82213523Y-110585095D01*
X82175428Y-110661285D01*
X82175428Y-110737476D01*
X82213523Y-110851761D01*
X82670666Y-111308904D01*
X82175428Y-111308904D01*
X61347333Y-111232714D02*
X61385428Y-111270809D01*
X61499714Y-111308904D01*
X61575904Y-111308904D01*
X61690190Y-111270809D01*
X61766380Y-111194619D01*
X61804476Y-111118428D01*
X61842571Y-110966047D01*
X61842571Y-110851761D01*
X61804476Y-110699380D01*
X61766380Y-110623190D01*
X61690190Y-110547000D01*
X61575904Y-110508904D01*
X61499714Y-110508904D01*
X61385428Y-110547000D01*
X61347333Y-110585095D01*
X60585428Y-111308904D02*
X61042571Y-111308904D01*
X60814000Y-111308904D02*
X60814000Y-110508904D01*
X60890190Y-110623190D01*
X60966380Y-110699380D01*
X61042571Y-110737476D01*
M02*
