G04 #@! TF.GenerationSoftware,KiCad,Pcbnew,(5.1.10)-1*
G04 #@! TF.CreationDate,2022-01-05T11:35:52+00:00*
G04 #@! TF.ProjectId,opena3xx-mcdu,6f70656e-6133-4787-982d-6d6364752e6b,0.1*
G04 #@! TF.SameCoordinates,Original*
G04 #@! TF.FileFunction,Other,Fab,Top*
%FSLAX46Y46*%
G04 Gerber Fmt 4.6, Leading zero omitted, Abs format (unit mm)*
G04 Created by KiCad (PCBNEW (5.1.10)-1) date 2022-01-05 11:35:52*
%MOMM*%
%LPD*%
G01*
G04 APERTURE LIST*
%ADD10C,0.100000*%
%ADD11C,0.120000*%
G04 APERTURE END LIST*
D10*
X39979000Y-203645000D02*
X38379000Y-203645000D01*
X39979000Y-206845000D02*
X39979000Y-203645000D01*
X38779000Y-206845000D02*
X39979000Y-206845000D01*
X38379000Y-206445000D02*
X38779000Y-206845000D01*
X38379000Y-203645000D02*
X38379000Y-206445000D01*
X171945000Y-192761000D02*
X170345000Y-192761000D01*
X171945000Y-195961000D02*
X171945000Y-192761000D01*
X170745000Y-195961000D02*
X171945000Y-195961000D01*
X170345000Y-195561000D02*
X170745000Y-195961000D01*
X170345000Y-192761000D02*
X170345000Y-195561000D01*
X39916000Y-185801000D02*
X38316000Y-185801000D01*
X39916000Y-189001000D02*
X39916000Y-185801000D01*
X38716000Y-189001000D02*
X39916000Y-189001000D01*
X38316000Y-188601000D02*
X38716000Y-189001000D01*
X38316000Y-185801000D02*
X38316000Y-188601000D01*
X106693000Y-30403700D02*
X106693000Y-28803700D01*
X103493000Y-30403700D02*
X106693000Y-30403700D01*
X103493000Y-29203700D02*
X103493000Y-30403700D01*
X103893000Y-28803700D02*
X103493000Y-29203700D01*
X106693000Y-28803700D02*
X103893000Y-28803700D01*
X91833000Y-30403700D02*
X91833000Y-28803700D01*
X88633000Y-30403700D02*
X91833000Y-30403700D01*
X88633000Y-29203700D02*
X88633000Y-30403700D01*
X89033000Y-28803700D02*
X88633000Y-29203700D01*
X91833000Y-28803700D02*
X89033000Y-28803700D01*
X136728000Y-30403700D02*
X136728000Y-28803700D01*
X133528000Y-30403700D02*
X136728000Y-30403700D01*
X133528000Y-29203700D02*
X133528000Y-30403700D01*
X133928000Y-28803700D02*
X133528000Y-29203700D01*
X136728000Y-28803700D02*
X133928000Y-28803700D01*
X76593000Y-30340200D02*
X76593000Y-28740200D01*
X73393000Y-30340200D02*
X76593000Y-30340200D01*
X73393000Y-29140200D02*
X73393000Y-30340200D01*
X73793000Y-28740200D02*
X73393000Y-29140200D01*
X76593000Y-28740200D02*
X73793000Y-28740200D01*
D11*
X39540904Y-206216428D02*
X38740904Y-206216428D01*
X38740904Y-206025952D01*
X38779000Y-205911666D01*
X38855190Y-205835476D01*
X38931380Y-205797380D01*
X39083761Y-205759285D01*
X39198047Y-205759285D01*
X39350428Y-205797380D01*
X39426619Y-205835476D01*
X39502809Y-205911666D01*
X39540904Y-206025952D01*
X39540904Y-206216428D01*
X39540904Y-204997380D02*
X39540904Y-205454523D01*
X39540904Y-205225952D02*
X38740904Y-205225952D01*
X38855190Y-205302142D01*
X38931380Y-205378333D01*
X38969476Y-205454523D01*
X39540904Y-204235476D02*
X39540904Y-204692619D01*
X39540904Y-204464047D02*
X38740904Y-204464047D01*
X38855190Y-204540238D01*
X38931380Y-204616428D01*
X38969476Y-204692619D01*
X171506904Y-195332428D02*
X170706904Y-195332428D01*
X170706904Y-195141952D01*
X170745000Y-195027666D01*
X170821190Y-194951476D01*
X170897380Y-194913380D01*
X171049761Y-194875285D01*
X171164047Y-194875285D01*
X171316428Y-194913380D01*
X171392619Y-194951476D01*
X171468809Y-195027666D01*
X171506904Y-195141952D01*
X171506904Y-195332428D01*
X171506904Y-194113380D02*
X171506904Y-194570523D01*
X171506904Y-194341952D02*
X170706904Y-194341952D01*
X170821190Y-194418142D01*
X170897380Y-194494333D01*
X170935476Y-194570523D01*
X170706904Y-193618142D02*
X170706904Y-193541952D01*
X170745000Y-193465761D01*
X170783095Y-193427666D01*
X170859285Y-193389571D01*
X171011666Y-193351476D01*
X171202142Y-193351476D01*
X171354523Y-193389571D01*
X171430714Y-193427666D01*
X171468809Y-193465761D01*
X171506904Y-193541952D01*
X171506904Y-193618142D01*
X171468809Y-193694333D01*
X171430714Y-193732428D01*
X171354523Y-193770523D01*
X171202142Y-193808619D01*
X171011666Y-193808619D01*
X170859285Y-193770523D01*
X170783095Y-193732428D01*
X170745000Y-193694333D01*
X170706904Y-193618142D01*
X39477904Y-187991476D02*
X38677904Y-187991476D01*
X38677904Y-187801000D01*
X38716000Y-187686714D01*
X38792190Y-187610523D01*
X38868380Y-187572428D01*
X39020761Y-187534333D01*
X39135047Y-187534333D01*
X39287428Y-187572428D01*
X39363619Y-187610523D01*
X39439809Y-187686714D01*
X39477904Y-187801000D01*
X39477904Y-187991476D01*
X39477904Y-187153380D02*
X39477904Y-187001000D01*
X39439809Y-186924809D01*
X39401714Y-186886714D01*
X39287428Y-186810523D01*
X39135047Y-186772428D01*
X38830285Y-186772428D01*
X38754095Y-186810523D01*
X38716000Y-186848619D01*
X38677904Y-186924809D01*
X38677904Y-187077190D01*
X38716000Y-187153380D01*
X38754095Y-187191476D01*
X38830285Y-187229571D01*
X39020761Y-187229571D01*
X39096952Y-187191476D01*
X39135047Y-187153380D01*
X39173142Y-187077190D01*
X39173142Y-186924809D01*
X39135047Y-186848619D01*
X39096952Y-186810523D01*
X39020761Y-186772428D01*
X104502523Y-29965604D02*
X104502523Y-29165604D01*
X104693000Y-29165604D01*
X104807285Y-29203700D01*
X104883476Y-29279890D01*
X104921571Y-29356080D01*
X104959666Y-29508461D01*
X104959666Y-29622747D01*
X104921571Y-29775128D01*
X104883476Y-29851319D01*
X104807285Y-29927509D01*
X104693000Y-29965604D01*
X104502523Y-29965604D01*
X105416809Y-29508461D02*
X105340619Y-29470366D01*
X105302523Y-29432271D01*
X105264428Y-29356080D01*
X105264428Y-29317985D01*
X105302523Y-29241795D01*
X105340619Y-29203700D01*
X105416809Y-29165604D01*
X105569190Y-29165604D01*
X105645380Y-29203700D01*
X105683476Y-29241795D01*
X105721571Y-29317985D01*
X105721571Y-29356080D01*
X105683476Y-29432271D01*
X105645380Y-29470366D01*
X105569190Y-29508461D01*
X105416809Y-29508461D01*
X105340619Y-29546557D01*
X105302523Y-29584652D01*
X105264428Y-29660842D01*
X105264428Y-29813223D01*
X105302523Y-29889414D01*
X105340619Y-29927509D01*
X105416809Y-29965604D01*
X105569190Y-29965604D01*
X105645380Y-29927509D01*
X105683476Y-29889414D01*
X105721571Y-29813223D01*
X105721571Y-29660842D01*
X105683476Y-29584652D01*
X105645380Y-29546557D01*
X105569190Y-29508461D01*
X89642523Y-29965604D02*
X89642523Y-29165604D01*
X89833000Y-29165604D01*
X89947285Y-29203700D01*
X90023476Y-29279890D01*
X90061571Y-29356080D01*
X90099666Y-29508461D01*
X90099666Y-29622747D01*
X90061571Y-29775128D01*
X90023476Y-29851319D01*
X89947285Y-29927509D01*
X89833000Y-29965604D01*
X89642523Y-29965604D01*
X90366333Y-29165604D02*
X90899666Y-29165604D01*
X90556809Y-29965604D01*
X134537523Y-29965604D02*
X134537523Y-29165604D01*
X134728000Y-29165604D01*
X134842285Y-29203700D01*
X134918476Y-29279890D01*
X134956571Y-29356080D01*
X134994666Y-29508461D01*
X134994666Y-29622747D01*
X134956571Y-29775128D01*
X134918476Y-29851319D01*
X134842285Y-29927509D01*
X134728000Y-29965604D01*
X134537523Y-29965604D01*
X135680380Y-29165604D02*
X135528000Y-29165604D01*
X135451809Y-29203700D01*
X135413714Y-29241795D01*
X135337523Y-29356080D01*
X135299428Y-29508461D01*
X135299428Y-29813223D01*
X135337523Y-29889414D01*
X135375619Y-29927509D01*
X135451809Y-29965604D01*
X135604190Y-29965604D01*
X135680380Y-29927509D01*
X135718476Y-29889414D01*
X135756571Y-29813223D01*
X135756571Y-29622747D01*
X135718476Y-29546557D01*
X135680380Y-29508461D01*
X135604190Y-29470366D01*
X135451809Y-29470366D01*
X135375619Y-29508461D01*
X135337523Y-29546557D01*
X135299428Y-29622747D01*
X74402523Y-29902104D02*
X74402523Y-29102104D01*
X74593000Y-29102104D01*
X74707285Y-29140200D01*
X74783476Y-29216390D01*
X74821571Y-29292580D01*
X74859666Y-29444961D01*
X74859666Y-29559247D01*
X74821571Y-29711628D01*
X74783476Y-29787819D01*
X74707285Y-29864009D01*
X74593000Y-29902104D01*
X74402523Y-29902104D01*
X75583476Y-29102104D02*
X75202523Y-29102104D01*
X75164428Y-29483057D01*
X75202523Y-29444961D01*
X75278714Y-29406866D01*
X75469190Y-29406866D01*
X75545380Y-29444961D01*
X75583476Y-29483057D01*
X75621571Y-29559247D01*
X75621571Y-29749723D01*
X75583476Y-29825914D01*
X75545380Y-29864009D01*
X75469190Y-29902104D01*
X75278714Y-29902104D01*
X75202523Y-29864009D01*
X75164428Y-29825914D01*
M02*
