M48
; DRILL file {KiCad (5.1.9)-1} date 06/15/21 23:19:47
; FORMAT={-:-/ absolute / inch / decimal}
; #@! TF.CreationDate,2021-06-15T23:19:47+02:00
; #@! TF.GenerationSoftware,Kicad,Pcbnew,(5.1.9)-1
; #@! TF.FileFunction,Plated,1,2,PTH
FMAT,2
INCH
T1C0.0300
T2C0.0394
T3C0.0598
%
G90
G05
T1
X6.8071Y-3.8795
X6.8071Y-4.0566
X6.8075Y-2.2235
X6.8075Y-2.4006
X6.8075Y-4.2915
X6.8075Y-4.4686
X6.8081Y-3.0515
X6.8081Y-3.2286
X6.8095Y-3.4655
X6.8095Y-3.6426
X6.8115Y-2.6375
X6.8115Y-2.8146
X6.9292Y-3.8539
X6.9292Y-4.0822
X6.9296Y-2.1979
X6.9296Y-2.4262
X6.9296Y-4.2659
X6.9296Y-4.4942
X6.9302Y-3.0259
X6.9302Y-3.2542
X6.9316Y-3.4399
X6.9316Y-3.6682
X6.9336Y-2.6119
X6.9336Y-2.8402
X7.0473Y-3.8795
X7.0473Y-4.0566
X7.0477Y-2.2235
X7.0477Y-2.4006
X7.0477Y-4.2915
X7.0477Y-4.4686
X7.0483Y-3.0515
X7.0483Y-3.2286
X7.0497Y-3.4655
X7.0497Y-3.6426
X7.0517Y-2.6375
X7.0517Y-2.8146
X7.284Y-9.2756
X7.284Y-9.4528
X7.2845Y-8.3295
X7.2845Y-8.5067
X7.2845Y-8.8025
X7.2845Y-8.9796
X7.2855Y-7.8585
X7.2855Y-8.0356
X7.406Y-9.25
X7.406Y-9.4783
X7.4066Y-8.3039
X7.4066Y-8.5322
X7.4066Y-8.7769
X7.4066Y-9.0052
X7.4076Y-7.8329
X7.4076Y-8.0612
X7.4415Y-5.3335
X7.4415Y-5.5106
X7.4425Y-7.3775
X7.4425Y-7.5546
X7.4435Y-6.3515
X7.4435Y-6.5287
X7.4445Y-5.8425
X7.4445Y-6.0196
X7.4465Y-6.8635
X7.4465Y-7.0406
X7.5241Y-9.2756
X7.5241Y-9.4528
X7.5247Y-8.3295
X7.5247Y-8.5067
X7.5247Y-8.8025
X7.5247Y-8.9796
X7.5257Y-7.8585
X7.5257Y-8.0356
X7.5636Y-5.3079
X7.5636Y-5.5362
X7.5646Y-7.3519
X7.5646Y-7.5802
X7.5656Y-6.3259
X7.5656Y-6.5543
X7.5666Y-5.8169
X7.5666Y-6.0452
X7.5686Y-6.8379
X7.5686Y-7.0662
X7.6817Y-5.3335
X7.6817Y-5.5106
X7.6827Y-7.3775
X7.6827Y-7.5546
X7.6837Y-6.3515
X7.6837Y-6.5287
X7.6847Y-5.8425
X7.6847Y-6.0196
X7.6867Y-6.8635
X7.6867Y-7.0406
X7.8725Y-8.3305
X7.8725Y-8.5076
X7.8725Y-8.8035
X7.8725Y-8.9806
X7.8729Y-9.2756
X7.8729Y-9.4528
X7.8745Y-7.8585
X7.8745Y-8.0356
X7.9946Y-8.3049
X7.9946Y-8.5332
X7.9946Y-8.7779
X7.9946Y-9.0062
X7.995Y-9.25
X7.995Y-9.4783
X7.9966Y-7.8329
X7.9966Y-8.0612
X8.1127Y-8.3305
X8.1127Y-8.5076
X8.1127Y-8.8035
X8.1127Y-8.9806
X8.1131Y-9.2756
X8.1131Y-9.4528
X8.1147Y-7.8585
X8.1147Y-8.0356
X8.1505Y-6.8645
X8.1505Y-7.0417
X8.1515Y-6.3515
X8.1515Y-6.5286
X8.1535Y-5.3335
X8.1535Y-5.5106
X8.1535Y-7.3785
X8.1535Y-7.5556
X8.1565Y-5.8425
X8.1565Y-6.0196
X8.2726Y-6.8389
X8.2726Y-7.0672
X8.2736Y-6.3259
X8.2736Y-6.5542
X8.2756Y-5.3079
X8.2756Y-5.5362
X8.2756Y-7.3529
X8.2756Y-7.5812
X8.2786Y-5.8169
X8.2786Y-6.0452
X8.3907Y-6.8645
X8.3907Y-7.0417
X8.3917Y-6.3515
X8.3917Y-6.5286
X8.3937Y-5.3335
X8.3937Y-5.5106
X8.3937Y-7.3785
X8.3937Y-7.5556
X8.3967Y-5.8425
X8.3967Y-6.0196
X8.4635Y-7.8575
X8.4635Y-8.0346
X8.4645Y-8.8045
X8.4645Y-8.9817
X8.4645Y-9.2735
X8.4645Y-9.4506
X8.4655Y-8.3305
X8.4655Y-8.5076
X8.5856Y-7.8319
X8.5856Y-8.0602
X8.5866Y-8.7789
X8.5866Y-9.0072
X8.5866Y-9.2479
X8.5866Y-9.4762
X8.5876Y-8.3049
X8.5876Y-8.5332
X8.7037Y-7.8575
X8.7037Y-8.0346
X8.7047Y-8.8045
X8.7047Y-8.9817
X8.7047Y-9.2735
X8.7047Y-9.4506
X8.7057Y-8.3305
X8.7057Y-8.5076
X8.8665Y-5.3335
X8.8665Y-5.5106
X8.8665Y-5.8435
X8.8665Y-6.0206
X8.9886Y-5.3079
X8.9886Y-5.5362
X8.9886Y-5.8179
X8.9886Y-6.0462
X9.0895Y-8.1325
X9.0895Y-8.3096
X9.0925Y-7.0325
X9.0925Y-7.2096
X9.0925Y-8.6855
X9.0925Y-8.8626
X9.0935Y-7.5825
X9.0935Y-7.7596
X9.0955Y-6.4795
X9.0955Y-6.6567
X9.0965Y-9.2375
X9.0965Y-9.4146
X9.1067Y-5.3335
X9.1067Y-5.5106
X9.1067Y-5.8435
X9.1067Y-6.0206
X9.2116Y-8.1069
X9.2116Y-8.3352
X9.2146Y-7.0069
X9.2146Y-7.2352
X9.2146Y-8.6599
X9.2146Y-8.8882
X9.2156Y-7.5569
X9.2156Y-7.7852
X9.2176Y-6.4539
X9.2176Y-6.6822
X9.2186Y-9.2119
X9.2186Y-9.4402
X9.3297Y-8.1325
X9.3297Y-8.3096
X9.3327Y-7.0325
X9.3327Y-7.2096
X9.3327Y-8.6855
X9.3327Y-8.8626
X9.3337Y-7.5825
X9.3337Y-7.7596
X9.3357Y-6.4795
X9.3357Y-6.6567
X9.3367Y-9.2375
X9.3367Y-9.4146
X9.5735Y-5.3325
X9.5735Y-5.5096
X9.5745Y-5.8435
X9.5745Y-6.0206
X9.6845Y-8.1325
X9.6845Y-8.3096
X9.6845Y-8.6865
X9.6845Y-8.8637
X9.6865Y-6.4805
X9.6865Y-6.6576
X9.6885Y-7.0325
X9.6885Y-7.2096
X9.6885Y-7.5825
X9.6885Y-7.7596
X9.6895Y-9.2375
X9.6895Y-9.4146
X9.6956Y-5.3069
X9.6956Y-5.5352
X9.6966Y-5.8179
X9.6966Y-6.0462
X9.8066Y-8.1069
X9.8066Y-8.3352
X9.8066Y-8.6609
X9.8066Y-8.8893
X9.8086Y-6.4549
X9.8086Y-6.6832
X9.8106Y-7.0069
X9.8106Y-7.2352
X9.8106Y-7.5569
X9.8106Y-7.7852
X9.8116Y-9.2119
X9.8116Y-9.4402
X9.8137Y-5.3325
X9.8137Y-5.5096
X9.8147Y-5.8435
X9.8147Y-6.0206
X9.9247Y-8.1325
X9.9247Y-8.3096
X9.9247Y-8.6865
X9.9247Y-8.8637
X9.9267Y-6.4805
X9.9267Y-6.6576
X9.9287Y-7.0325
X9.9287Y-7.2096
X9.9287Y-7.5825
X9.9287Y-7.7596
X9.9297Y-9.2375
X9.9297Y-9.4146
X10.2775Y-7.5825
X10.2775Y-7.7596
X10.2785Y-5.8435
X10.2785Y-6.0206
X10.2785Y-8.1335
X10.2785Y-8.3106
X10.2785Y-8.6865
X10.2785Y-8.8637
X10.2785Y-9.2375
X10.2785Y-9.4146
X10.2805Y-6.4805
X10.2805Y-6.6576
X10.2805Y-7.0315
X10.2805Y-7.2087
X10.2815Y-5.3315
X10.2815Y-5.5087
X10.3996Y-7.5569
X10.3996Y-7.7852
X10.4006Y-5.8179
X10.4006Y-6.0462
X10.4006Y-8.1079
X10.4006Y-8.3362
X10.4006Y-8.6609
X10.4006Y-8.8893
X10.4006Y-9.2119
X10.4006Y-9.4402
X10.4026Y-6.4549
X10.4026Y-6.6832
X10.4026Y-7.0059
X10.4026Y-7.2343
X10.4036Y-5.3059
X10.4036Y-5.5343
X10.5177Y-7.5825
X10.5177Y-7.7596
X10.5187Y-5.8435
X10.5187Y-6.0206
X10.5187Y-8.1335
X10.5187Y-8.3106
X10.5187Y-8.6865
X10.5187Y-8.8637
X10.5187Y-9.2375
X10.5187Y-9.4146
X10.5207Y-6.4805
X10.5207Y-6.6576
X10.5207Y-7.0315
X10.5207Y-7.2087
X10.5217Y-5.3315
X10.5217Y-5.5087
X10.8635Y-8.1335
X10.8635Y-8.3106
X10.8645Y-8.6855
X10.8645Y-8.8626
X10.8655Y-7.5835
X10.8655Y-7.7606
X10.8685Y-7.0315
X10.8685Y-7.2087
X10.8695Y-6.4815
X10.8695Y-6.6587
X10.8695Y-9.2365
X10.8695Y-9.4137
X10.9856Y-8.1079
X10.9856Y-8.3362
X10.9866Y-8.6599
X10.9866Y-8.8882
X10.9876Y-7.5579
X10.9876Y-7.7862
X10.9906Y-7.0059
X10.9906Y-7.2343
X10.9915Y-5.3315
X10.9915Y-5.5086
X10.9916Y-6.4559
X10.9916Y-6.6843
X10.9916Y-9.2109
X10.9916Y-9.4393
X10.9925Y-5.8435
X10.9925Y-6.0206
X11.1037Y-8.1335
X11.1037Y-8.3106
X11.1047Y-8.6855
X11.1047Y-8.8626
X11.1057Y-7.5835
X11.1057Y-7.7606
X11.1087Y-7.0315
X11.1087Y-7.2087
X11.1097Y-6.4815
X11.1097Y-6.6587
X11.1097Y-9.2365
X11.1097Y-9.4137
X11.1136Y-5.3059
X11.1136Y-5.5342
X11.1146Y-5.8179
X11.1146Y-6.0462
X11.2317Y-5.3315
X11.2317Y-5.5086
X11.2327Y-5.8435
X11.2327Y-6.0206
X11.4575Y-7.0315
X11.4575Y-7.2087
X11.4575Y-7.5815
X11.4575Y-7.7587
X11.4585Y-6.4815
X11.4585Y-6.6587
X11.4585Y-8.6865
X11.4585Y-8.8637
X11.4615Y-9.2365
X11.4615Y-9.4137
X11.4625Y-8.1345
X11.4625Y-8.3117
X11.5796Y-7.0059
X11.5796Y-7.2343
X11.5796Y-7.5559
X11.5796Y-7.7843
X11.5806Y-6.4559
X11.5806Y-6.6843
X11.5806Y-8.6609
X11.5806Y-8.8893
X11.5836Y-9.2109
X11.5836Y-9.4393
X11.5846Y-8.1089
X11.5846Y-8.3372
X11.6375Y-5.3315
X11.6375Y-5.5086
X11.6375Y-5.8515
X11.6375Y-6.0286
X11.6977Y-7.0315
X11.6977Y-7.2087
X11.6977Y-7.5815
X11.6977Y-7.7587
X11.6987Y-6.4815
X11.6987Y-6.6587
X11.6987Y-8.6865
X11.6987Y-8.8637
X11.7017Y-9.2365
X11.7017Y-9.4137
X11.7027Y-8.1345
X11.7027Y-8.3117
X11.7596Y-5.3059
X11.7596Y-5.5342
X11.7596Y-5.8259
X11.7596Y-6.0542
X11.8777Y-5.3315
X11.8777Y-5.5086
X11.8777Y-5.8515
X11.8777Y-6.0286
X12.0095Y-3.4655
X12.0095Y-3.6426
X12.0095Y-4.2915
X12.0095Y-4.4686
X12.0101Y-3.0515
X12.0101Y-3.2286
X12.0115Y-2.2255
X12.0115Y-2.4026
X12.0115Y-2.6375
X12.0115Y-2.8146
X12.0155Y-3.8795
X12.0155Y-4.0566
X12.1316Y-3.4399
X12.1316Y-3.6682
X12.1316Y-4.2659
X12.1316Y-4.4942
X12.1322Y-3.0259
X12.1322Y-3.2542
X12.1336Y-2.1999
X12.1336Y-2.4282
X12.1336Y-2.6119
X12.1336Y-2.8402
X12.1376Y-3.8539
X12.1376Y-4.0822
X12.2497Y-3.4655
X12.2497Y-3.6426
X12.2497Y-4.2915
X12.2497Y-4.4686
X12.2503Y-3.0515
X12.2503Y-3.2286
X12.2517Y-2.2255
X12.2517Y-2.4026
X12.2517Y-2.6375
X12.2517Y-2.8146
X12.2557Y-3.8795
X12.2557Y-4.0566
T2
X7.075Y-1.2808
X7.075Y-1.458
X7.3309Y-1.2808
X7.3309Y-1.458
X8.564Y-2.768
X8.564Y-2.868
X8.664Y-2.768
X8.664Y-2.868
X8.764Y-2.768
X8.764Y-2.868
X8.864Y-2.768
X8.864Y-2.868
X8.964Y-2.768
X8.964Y-2.868
X9.064Y-2.768
X9.064Y-2.868
X9.164Y-2.768
X9.164Y-2.868
X9.264Y-2.768
X9.264Y-2.868
X9.364Y-2.768
X9.364Y-2.868
X9.464Y-2.768
X9.464Y-2.868
X9.564Y-2.768
X9.564Y-2.868
X9.664Y-2.768
X9.664Y-2.868
X9.764Y-2.768
X9.764Y-2.868
X9.864Y-2.768
X9.864Y-2.868
X9.964Y-2.768
X9.964Y-2.868
X10.064Y-2.768
X10.064Y-2.868
X10.164Y-2.768
X10.164Y-2.868
X10.264Y-2.768
X10.264Y-2.868
X10.364Y-2.768
X10.364Y-2.868
X10.464Y-2.768
X10.464Y-2.868
T3
X6.8765Y-8.3435
X6.8765Y-8.5435
X6.8765Y-8.761
X6.8765Y-8.961
X12.215Y-5.977
X12.215Y-6.177
X12.215Y-6.398
X12.215Y-6.598
X12.2185Y-4.715
X12.2185Y-4.915
X12.2185Y-5.14
X12.2185Y-5.34
X12.219Y-8.408
X12.219Y-8.608
X12.219Y-8.826
X12.219Y-9.026
T0
M30
