%TF.GenerationSoftware,KiCad,Pcbnew,(5.1.9)-1*%
%TF.CreationDate,2021-06-15T23:19:55+02:00*%
%TF.ProjectId,opena3xx-mcdu,6f70656e-6133-4787-982d-6d6364752e6b,0.1*%
%TF.SameCoordinates,Original*%
%TF.FileFunction,Copper,L2,Bot*%
%TF.FilePolarity,Positive*%
%FSLAX46Y46*%
G04 Gerber Fmt 4.6, Leading zero omitted, Abs format (unit mm)*
G04 Created by KiCad (PCBNEW (5.1.9)-1) date 2021-06-15 23:19:55*
%MOMM*%
%LPD*%
G01*
G04 APERTURE LIST*
%TA.AperFunction,ComponentPad*%
%ADD10R,1.524000X1.524000*%
%TD*%
%TA.AperFunction,ComponentPad*%
%ADD11C,3.000000*%
%TD*%
%TA.AperFunction,ComponentPad*%
%ADD12R,3.000000X3.000000*%
%TD*%
%TA.AperFunction,ComponentPad*%
%ADD13C,1.700000*%
%TD*%
%TA.AperFunction,ComponentPad*%
%ADD14O,1.700000X1.700000*%
%TD*%
%TA.AperFunction,ComponentPad*%
%ADD15R,1.700000X1.700000*%
%TD*%
G04 APERTURE END LIST*
D10*
%TO.P,SW74,*%
%TO.N,*%
X207048600Y-161327600D03*
%TO.P,SW74,1*%
%TO.N,Net-(J9-Pad1)*%
X213148600Y-161327600D03*
%TO.P,SW74,*%
%TO.N,*%
X207048600Y-165827600D03*
%TO.P,SW74,2*%
%TO.N,Net-(J9-Pad2)*%
X213148600Y-165827600D03*
%TO.P,SW74,3*%
%TO.N,N/C*%
X210148600Y-160677600D03*
%TO.P,SW74,4*%
X210148600Y-166477600D03*
%TD*%
D11*
%TO.P,J9,2*%
%TO.N,Net-(J9-Pad2)*%
X310261000Y-167589200D03*
D12*
%TO.P,J9,1*%
%TO.N,Net-(J9-Pad1)*%
X310261000Y-162509200D03*
%TD*%
D10*
%TO.P,SW73,*%
%TO.N,*%
X279184600Y-135419600D03*
%TO.P,SW73,1*%
%TO.N,Net-(J8-Pad1)*%
X285284600Y-135419600D03*
%TO.P,SW73,*%
%TO.N,*%
X279184600Y-139919600D03*
%TO.P,SW73,2*%
%TO.N,Net-(J8-Pad2)*%
X285284600Y-139919600D03*
%TO.P,SW73,3*%
%TO.N,N/C*%
X282284600Y-134769600D03*
%TO.P,SW73,4*%
X282284600Y-140569600D03*
%TD*%
%TO.P,SW17,4*%
%TO.N,Net-(SW17-Pad4)*%
X264250600Y-140570000D03*
%TO.P,SW17,3*%
%TO.N,Net-(SW16-Pad4)*%
X264250600Y-134770000D03*
%TO.P,SW17,2*%
%TO.N,GND*%
X267250600Y-139920000D03*
%TO.P,SW17,*%
%TO.N,*%
X261150600Y-139920000D03*
%TO.P,SW17,1*%
%TO.N,/BUS1-0*%
X267250600Y-135420000D03*
%TO.P,SW17,*%
%TO.N,*%
X261150600Y-135420000D03*
%TD*%
D11*
%TO.P,J8,2*%
%TO.N,Net-(J8-Pad2)*%
X310261000Y-156895800D03*
D12*
%TO.P,J8,1*%
%TO.N,Net-(J8-Pad1)*%
X310261000Y-151815800D03*
%TD*%
D10*
%TO.P,SW3,4*%
%TO.N,Net-(R13-Pad1)*%
X176026240Y-82657600D03*
%TO.P,SW3,3*%
%TO.N,Net-(SW2-Pad4)*%
X176026240Y-76857600D03*
%TO.P,SW3,2*%
%TO.N,GND*%
X179026240Y-82007600D03*
%TO.P,SW3,*%
%TO.N,*%
X172926240Y-82007600D03*
%TO.P,SW3,1*%
%TO.N,/BUS0-2*%
X179026240Y-77507600D03*
%TO.P,SW3,*%
%TO.N,*%
X172926240Y-77507600D03*
%TD*%
%TO.P,SW72,4*%
%TO.N,Net-(R44-Pad1)*%
X298693000Y-153777600D03*
%TO.P,SW72,3*%
%TO.N,Net-(SW71-Pad4)*%
X298693000Y-147977600D03*
%TO.P,SW72,2*%
%TO.N,Net-(J7-Pad2)*%
X301693000Y-153127600D03*
%TO.P,SW72,*%
%TO.N,*%
X295593000Y-153127600D03*
%TO.P,SW72,1*%
%TO.N,Net-(J7-Pad1)*%
X301693000Y-148627600D03*
%TO.P,SW72,*%
%TO.N,*%
X295593000Y-148627600D03*
%TD*%
%TO.P,SW71,4*%
%TO.N,Net-(SW71-Pad4)*%
X298693000Y-140569600D03*
%TO.P,SW71,3*%
%TO.N,+12V*%
X298693000Y-134769600D03*
%TO.P,SW71,2*%
%TO.N,Net-(J6-Pad2)*%
X301693000Y-139919600D03*
%TO.P,SW71,*%
%TO.N,*%
X295593000Y-139919600D03*
%TO.P,SW71,1*%
%TO.N,Net-(J6-Pad1)*%
X301693000Y-135419600D03*
%TO.P,SW71,*%
%TO.N,*%
X295593000Y-135419600D03*
%TD*%
%TO.P,R44,2*%
%TO.N,GND*%
%TA.AperFunction,SMDPad,CuDef*%
G36*
G01*
X298562600Y-129167200D02*
X298562600Y-127017200D01*
G75*
G02*
X298812600Y-126767200I250000J0D01*
G01*
X299612600Y-126767200D01*
G75*
G02*
X299862600Y-127017200I0J-250000D01*
G01*
X299862600Y-129167200D01*
G75*
G02*
X299612600Y-129417200I-250000J0D01*
G01*
X298812600Y-129417200D01*
G75*
G02*
X298562600Y-129167200I0J250000D01*
G01*
G37*
%TD.AperFunction*%
%TO.P,R44,1*%
%TO.N,Net-(R44-Pad1)*%
%TA.AperFunction,SMDPad,CuDef*%
G36*
G01*
X295462600Y-129167200D02*
X295462600Y-127017200D01*
G75*
G02*
X295712600Y-126767200I250000J0D01*
G01*
X296512600Y-126767200D01*
G75*
G02*
X296762600Y-127017200I0J-250000D01*
G01*
X296762600Y-129167200D01*
G75*
G02*
X296512600Y-129417200I-250000J0D01*
G01*
X295712600Y-129417200D01*
G75*
G02*
X295462600Y-129167200I0J250000D01*
G01*
G37*
%TD.AperFunction*%
%TD*%
D11*
%TO.P,J7,2*%
%TO.N,Net-(J7-Pad2)*%
X310349900Y-124841000D03*
D12*
%TO.P,J7,1*%
%TO.N,Net-(J7-Pad1)*%
X310349900Y-119761000D03*
%TD*%
D11*
%TO.P,J6,2*%
%TO.N,Net-(J6-Pad2)*%
X310349900Y-135636000D03*
D12*
%TO.P,J6,1*%
%TO.N,Net-(J6-Pad1)*%
X310349900Y-130556000D03*
%TD*%
D10*
%TO.P,SW25,4*%
%TO.N,Net-(SW25-Pad4)*%
X188152600Y-204755000D03*
%TO.P,SW25,3*%
%TO.N,+12V*%
X188152600Y-198955000D03*
%TO.P,SW25,2*%
%TO.N,GND*%
X191152600Y-204105000D03*
%TO.P,SW25,*%
%TO.N,*%
X185052600Y-204105000D03*
%TO.P,SW25,1*%
%TO.N,/BUS1-8*%
X191152600Y-199605000D03*
%TO.P,SW25,*%
%TO.N,*%
X185052600Y-199605000D03*
%TD*%
%TO.P,U5,28*%
%TO.N,/BUS4-7*%
%TA.AperFunction,SMDPad,CuDef*%
G36*
G01*
X289349600Y-107922000D02*
X289349600Y-107622000D01*
G75*
G02*
X289499600Y-107472000I150000J0D01*
G01*
X291249600Y-107472000D01*
G75*
G02*
X291399600Y-107622000I0J-150000D01*
G01*
X291399600Y-107922000D01*
G75*
G02*
X291249600Y-108072000I-150000J0D01*
G01*
X289499600Y-108072000D01*
G75*
G02*
X289349600Y-107922000I0J150000D01*
G01*
G37*
%TD.AperFunction*%
%TO.P,U5,27*%
%TO.N,/BUS4-6*%
%TA.AperFunction,SMDPad,CuDef*%
G36*
G01*
X289349600Y-106652000D02*
X289349600Y-106352000D01*
G75*
G02*
X289499600Y-106202000I150000J0D01*
G01*
X291249600Y-106202000D01*
G75*
G02*
X291399600Y-106352000I0J-150000D01*
G01*
X291399600Y-106652000D01*
G75*
G02*
X291249600Y-106802000I-150000J0D01*
G01*
X289499600Y-106802000D01*
G75*
G02*
X289349600Y-106652000I0J150000D01*
G01*
G37*
%TD.AperFunction*%
%TO.P,U5,26*%
%TO.N,/BUS4-5*%
%TA.AperFunction,SMDPad,CuDef*%
G36*
G01*
X289349600Y-105382000D02*
X289349600Y-105082000D01*
G75*
G02*
X289499600Y-104932000I150000J0D01*
G01*
X291249600Y-104932000D01*
G75*
G02*
X291399600Y-105082000I0J-150000D01*
G01*
X291399600Y-105382000D01*
G75*
G02*
X291249600Y-105532000I-150000J0D01*
G01*
X289499600Y-105532000D01*
G75*
G02*
X289349600Y-105382000I0J150000D01*
G01*
G37*
%TD.AperFunction*%
%TO.P,U5,25*%
%TO.N,/BUS4-4*%
%TA.AperFunction,SMDPad,CuDef*%
G36*
G01*
X289349600Y-104112000D02*
X289349600Y-103812000D01*
G75*
G02*
X289499600Y-103662000I150000J0D01*
G01*
X291249600Y-103662000D01*
G75*
G02*
X291399600Y-103812000I0J-150000D01*
G01*
X291399600Y-104112000D01*
G75*
G02*
X291249600Y-104262000I-150000J0D01*
G01*
X289499600Y-104262000D01*
G75*
G02*
X289349600Y-104112000I0J150000D01*
G01*
G37*
%TD.AperFunction*%
%TO.P,U5,24*%
%TO.N,/BUS4-3*%
%TA.AperFunction,SMDPad,CuDef*%
G36*
G01*
X289349600Y-102842000D02*
X289349600Y-102542000D01*
G75*
G02*
X289499600Y-102392000I150000J0D01*
G01*
X291249600Y-102392000D01*
G75*
G02*
X291399600Y-102542000I0J-150000D01*
G01*
X291399600Y-102842000D01*
G75*
G02*
X291249600Y-102992000I-150000J0D01*
G01*
X289499600Y-102992000D01*
G75*
G02*
X289349600Y-102842000I0J150000D01*
G01*
G37*
%TD.AperFunction*%
%TO.P,U5,23*%
%TO.N,/BUS4-2*%
%TA.AperFunction,SMDPad,CuDef*%
G36*
G01*
X289349600Y-101572000D02*
X289349600Y-101272000D01*
G75*
G02*
X289499600Y-101122000I150000J0D01*
G01*
X291249600Y-101122000D01*
G75*
G02*
X291399600Y-101272000I0J-150000D01*
G01*
X291399600Y-101572000D01*
G75*
G02*
X291249600Y-101722000I-150000J0D01*
G01*
X289499600Y-101722000D01*
G75*
G02*
X289349600Y-101572000I0J150000D01*
G01*
G37*
%TD.AperFunction*%
%TO.P,U5,22*%
%TO.N,/BUS4-1*%
%TA.AperFunction,SMDPad,CuDef*%
G36*
G01*
X289349600Y-100302000D02*
X289349600Y-100002000D01*
G75*
G02*
X289499600Y-99852000I150000J0D01*
G01*
X291249600Y-99852000D01*
G75*
G02*
X291399600Y-100002000I0J-150000D01*
G01*
X291399600Y-100302000D01*
G75*
G02*
X291249600Y-100452000I-150000J0D01*
G01*
X289499600Y-100452000D01*
G75*
G02*
X289349600Y-100302000I0J150000D01*
G01*
G37*
%TD.AperFunction*%
%TO.P,U5,21*%
%TO.N,/BUS4-0*%
%TA.AperFunction,SMDPad,CuDef*%
G36*
G01*
X289349600Y-99032000D02*
X289349600Y-98732000D01*
G75*
G02*
X289499600Y-98582000I150000J0D01*
G01*
X291249600Y-98582000D01*
G75*
G02*
X291399600Y-98732000I0J-150000D01*
G01*
X291399600Y-99032000D01*
G75*
G02*
X291249600Y-99182000I-150000J0D01*
G01*
X289499600Y-99182000D01*
G75*
G02*
X289349600Y-99032000I0J150000D01*
G01*
G37*
%TD.AperFunction*%
%TO.P,U5,20*%
%TO.N,INT_BUS_4*%
%TA.AperFunction,SMDPad,CuDef*%
G36*
G01*
X289349600Y-97762000D02*
X289349600Y-97462000D01*
G75*
G02*
X289499600Y-97312000I150000J0D01*
G01*
X291249600Y-97312000D01*
G75*
G02*
X291399600Y-97462000I0J-150000D01*
G01*
X291399600Y-97762000D01*
G75*
G02*
X291249600Y-97912000I-150000J0D01*
G01*
X289499600Y-97912000D01*
G75*
G02*
X289349600Y-97762000I0J150000D01*
G01*
G37*
%TD.AperFunction*%
%TO.P,U5,19*%
%TO.N,N/C*%
%TA.AperFunction,SMDPad,CuDef*%
G36*
G01*
X289349600Y-96492000D02*
X289349600Y-96192000D01*
G75*
G02*
X289499600Y-96042000I150000J0D01*
G01*
X291249600Y-96042000D01*
G75*
G02*
X291399600Y-96192000I0J-150000D01*
G01*
X291399600Y-96492000D01*
G75*
G02*
X291249600Y-96642000I-150000J0D01*
G01*
X289499600Y-96642000D01*
G75*
G02*
X289349600Y-96492000I0J150000D01*
G01*
G37*
%TD.AperFunction*%
%TO.P,U5,18*%
%TO.N,BUSES_RESET*%
%TA.AperFunction,SMDPad,CuDef*%
G36*
G01*
X289349600Y-95222000D02*
X289349600Y-94922000D01*
G75*
G02*
X289499600Y-94772000I150000J0D01*
G01*
X291249600Y-94772000D01*
G75*
G02*
X291399600Y-94922000I0J-150000D01*
G01*
X291399600Y-95222000D01*
G75*
G02*
X291249600Y-95372000I-150000J0D01*
G01*
X289499600Y-95372000D01*
G75*
G02*
X289349600Y-95222000I0J150000D01*
G01*
G37*
%TD.AperFunction*%
%TO.P,U5,17*%
%TO.N,+5V*%
%TA.AperFunction,SMDPad,CuDef*%
G36*
G01*
X289349600Y-93952000D02*
X289349600Y-93652000D01*
G75*
G02*
X289499600Y-93502000I150000J0D01*
G01*
X291249600Y-93502000D01*
G75*
G02*
X291399600Y-93652000I0J-150000D01*
G01*
X291399600Y-93952000D01*
G75*
G02*
X291249600Y-94102000I-150000J0D01*
G01*
X289499600Y-94102000D01*
G75*
G02*
X289349600Y-93952000I0J150000D01*
G01*
G37*
%TD.AperFunction*%
%TO.P,U5,16*%
%TO.N,GND*%
%TA.AperFunction,SMDPad,CuDef*%
G36*
G01*
X289349600Y-92682000D02*
X289349600Y-92382000D01*
G75*
G02*
X289499600Y-92232000I150000J0D01*
G01*
X291249600Y-92232000D01*
G75*
G02*
X291399600Y-92382000I0J-150000D01*
G01*
X291399600Y-92682000D01*
G75*
G02*
X291249600Y-92832000I-150000J0D01*
G01*
X289499600Y-92832000D01*
G75*
G02*
X289349600Y-92682000I0J150000D01*
G01*
G37*
%TD.AperFunction*%
%TO.P,U5,15*%
%TA.AperFunction,SMDPad,CuDef*%
G36*
G01*
X289349600Y-91412000D02*
X289349600Y-91112000D01*
G75*
G02*
X289499600Y-90962000I150000J0D01*
G01*
X291249600Y-90962000D01*
G75*
G02*
X291399600Y-91112000I0J-150000D01*
G01*
X291399600Y-91412000D01*
G75*
G02*
X291249600Y-91562000I-150000J0D01*
G01*
X289499600Y-91562000D01*
G75*
G02*
X289349600Y-91412000I0J150000D01*
G01*
G37*
%TD.AperFunction*%
%TO.P,U5,14*%
%TO.N,N/C*%
%TA.AperFunction,SMDPad,CuDef*%
G36*
G01*
X280049600Y-91412000D02*
X280049600Y-91112000D01*
G75*
G02*
X280199600Y-90962000I150000J0D01*
G01*
X281949600Y-90962000D01*
G75*
G02*
X282099600Y-91112000I0J-150000D01*
G01*
X282099600Y-91412000D01*
G75*
G02*
X281949600Y-91562000I-150000J0D01*
G01*
X280199600Y-91562000D01*
G75*
G02*
X280049600Y-91412000I0J150000D01*
G01*
G37*
%TD.AperFunction*%
%TO.P,U5,13*%
%TO.N,SDA*%
%TA.AperFunction,SMDPad,CuDef*%
G36*
G01*
X280049600Y-92682000D02*
X280049600Y-92382000D01*
G75*
G02*
X280199600Y-92232000I150000J0D01*
G01*
X281949600Y-92232000D01*
G75*
G02*
X282099600Y-92382000I0J-150000D01*
G01*
X282099600Y-92682000D01*
G75*
G02*
X281949600Y-92832000I-150000J0D01*
G01*
X280199600Y-92832000D01*
G75*
G02*
X280049600Y-92682000I0J150000D01*
G01*
G37*
%TD.AperFunction*%
%TO.P,U5,12*%
%TO.N,SCL*%
%TA.AperFunction,SMDPad,CuDef*%
G36*
G01*
X280049600Y-93952000D02*
X280049600Y-93652000D01*
G75*
G02*
X280199600Y-93502000I150000J0D01*
G01*
X281949600Y-93502000D01*
G75*
G02*
X282099600Y-93652000I0J-150000D01*
G01*
X282099600Y-93952000D01*
G75*
G02*
X281949600Y-94102000I-150000J0D01*
G01*
X280199600Y-94102000D01*
G75*
G02*
X280049600Y-93952000I0J150000D01*
G01*
G37*
%TD.AperFunction*%
%TO.P,U5,11*%
%TO.N,N/C*%
%TA.AperFunction,SMDPad,CuDef*%
G36*
G01*
X280049600Y-95222000D02*
X280049600Y-94922000D01*
G75*
G02*
X280199600Y-94772000I150000J0D01*
G01*
X281949600Y-94772000D01*
G75*
G02*
X282099600Y-94922000I0J-150000D01*
G01*
X282099600Y-95222000D01*
G75*
G02*
X281949600Y-95372000I-150000J0D01*
G01*
X280199600Y-95372000D01*
G75*
G02*
X280049600Y-95222000I0J150000D01*
G01*
G37*
%TD.AperFunction*%
%TO.P,U5,10*%
%TO.N,GND*%
%TA.AperFunction,SMDPad,CuDef*%
G36*
G01*
X280049600Y-96492000D02*
X280049600Y-96192000D01*
G75*
G02*
X280199600Y-96042000I150000J0D01*
G01*
X281949600Y-96042000D01*
G75*
G02*
X282099600Y-96192000I0J-150000D01*
G01*
X282099600Y-96492000D01*
G75*
G02*
X281949600Y-96642000I-150000J0D01*
G01*
X280199600Y-96642000D01*
G75*
G02*
X280049600Y-96492000I0J150000D01*
G01*
G37*
%TD.AperFunction*%
%TO.P,U5,9*%
%TO.N,+5V*%
%TA.AperFunction,SMDPad,CuDef*%
G36*
G01*
X280049600Y-97762000D02*
X280049600Y-97462000D01*
G75*
G02*
X280199600Y-97312000I150000J0D01*
G01*
X281949600Y-97312000D01*
G75*
G02*
X282099600Y-97462000I0J-150000D01*
G01*
X282099600Y-97762000D01*
G75*
G02*
X281949600Y-97912000I-150000J0D01*
G01*
X280199600Y-97912000D01*
G75*
G02*
X280049600Y-97762000I0J150000D01*
G01*
G37*
%TD.AperFunction*%
%TO.P,U5,8*%
%TO.N,N/C*%
%TA.AperFunction,SMDPad,CuDef*%
G36*
G01*
X280049600Y-99032000D02*
X280049600Y-98732000D01*
G75*
G02*
X280199600Y-98582000I150000J0D01*
G01*
X281949600Y-98582000D01*
G75*
G02*
X282099600Y-98732000I0J-150000D01*
G01*
X282099600Y-99032000D01*
G75*
G02*
X281949600Y-99182000I-150000J0D01*
G01*
X280199600Y-99182000D01*
G75*
G02*
X280049600Y-99032000I0J150000D01*
G01*
G37*
%TD.AperFunction*%
%TO.P,U5,7*%
%TA.AperFunction,SMDPad,CuDef*%
G36*
G01*
X280049600Y-100302000D02*
X280049600Y-100002000D01*
G75*
G02*
X280199600Y-99852000I150000J0D01*
G01*
X281949600Y-99852000D01*
G75*
G02*
X282099600Y-100002000I0J-150000D01*
G01*
X282099600Y-100302000D01*
G75*
G02*
X281949600Y-100452000I-150000J0D01*
G01*
X280199600Y-100452000D01*
G75*
G02*
X280049600Y-100302000I0J150000D01*
G01*
G37*
%TD.AperFunction*%
%TO.P,U5,6*%
%TA.AperFunction,SMDPad,CuDef*%
G36*
G01*
X280049600Y-101572000D02*
X280049600Y-101272000D01*
G75*
G02*
X280199600Y-101122000I150000J0D01*
G01*
X281949600Y-101122000D01*
G75*
G02*
X282099600Y-101272000I0J-150000D01*
G01*
X282099600Y-101572000D01*
G75*
G02*
X281949600Y-101722000I-150000J0D01*
G01*
X280199600Y-101722000D01*
G75*
G02*
X280049600Y-101572000I0J150000D01*
G01*
G37*
%TD.AperFunction*%
%TO.P,U5,5*%
%TO.N,/BUS4-12*%
%TA.AperFunction,SMDPad,CuDef*%
G36*
G01*
X280049600Y-102842000D02*
X280049600Y-102542000D01*
G75*
G02*
X280199600Y-102392000I150000J0D01*
G01*
X281949600Y-102392000D01*
G75*
G02*
X282099600Y-102542000I0J-150000D01*
G01*
X282099600Y-102842000D01*
G75*
G02*
X281949600Y-102992000I-150000J0D01*
G01*
X280199600Y-102992000D01*
G75*
G02*
X280049600Y-102842000I0J150000D01*
G01*
G37*
%TD.AperFunction*%
%TO.P,U5,4*%
%TO.N,/BUS4-11*%
%TA.AperFunction,SMDPad,CuDef*%
G36*
G01*
X280049600Y-104112000D02*
X280049600Y-103812000D01*
G75*
G02*
X280199600Y-103662000I150000J0D01*
G01*
X281949600Y-103662000D01*
G75*
G02*
X282099600Y-103812000I0J-150000D01*
G01*
X282099600Y-104112000D01*
G75*
G02*
X281949600Y-104262000I-150000J0D01*
G01*
X280199600Y-104262000D01*
G75*
G02*
X280049600Y-104112000I0J150000D01*
G01*
G37*
%TD.AperFunction*%
%TO.P,U5,3*%
%TO.N,/BUS4-10*%
%TA.AperFunction,SMDPad,CuDef*%
G36*
G01*
X280049600Y-105382000D02*
X280049600Y-105082000D01*
G75*
G02*
X280199600Y-104932000I150000J0D01*
G01*
X281949600Y-104932000D01*
G75*
G02*
X282099600Y-105082000I0J-150000D01*
G01*
X282099600Y-105382000D01*
G75*
G02*
X281949600Y-105532000I-150000J0D01*
G01*
X280199600Y-105532000D01*
G75*
G02*
X280049600Y-105382000I0J150000D01*
G01*
G37*
%TD.AperFunction*%
%TO.P,U5,2*%
%TO.N,/BUS4-9*%
%TA.AperFunction,SMDPad,CuDef*%
G36*
G01*
X280049600Y-106652000D02*
X280049600Y-106352000D01*
G75*
G02*
X280199600Y-106202000I150000J0D01*
G01*
X281949600Y-106202000D01*
G75*
G02*
X282099600Y-106352000I0J-150000D01*
G01*
X282099600Y-106652000D01*
G75*
G02*
X281949600Y-106802000I-150000J0D01*
G01*
X280199600Y-106802000D01*
G75*
G02*
X280049600Y-106652000I0J150000D01*
G01*
G37*
%TD.AperFunction*%
%TO.P,U5,1*%
%TO.N,/BUS4-8*%
%TA.AperFunction,SMDPad,CuDef*%
G36*
G01*
X280049600Y-107922000D02*
X280049600Y-107622000D01*
G75*
G02*
X280199600Y-107472000I150000J0D01*
G01*
X281949600Y-107472000D01*
G75*
G02*
X282099600Y-107622000I0J-150000D01*
G01*
X282099600Y-107922000D01*
G75*
G02*
X281949600Y-108072000I-150000J0D01*
G01*
X280199600Y-108072000D01*
G75*
G02*
X280049600Y-107922000I0J150000D01*
G01*
G37*
%TD.AperFunction*%
%TD*%
%TO.P,U4,28*%
%TO.N,/BUS3-7*%
%TA.AperFunction,SMDPad,CuDef*%
G36*
G01*
X267759600Y-107922000D02*
X267759600Y-107622000D01*
G75*
G02*
X267909600Y-107472000I150000J0D01*
G01*
X269659600Y-107472000D01*
G75*
G02*
X269809600Y-107622000I0J-150000D01*
G01*
X269809600Y-107922000D01*
G75*
G02*
X269659600Y-108072000I-150000J0D01*
G01*
X267909600Y-108072000D01*
G75*
G02*
X267759600Y-107922000I0J150000D01*
G01*
G37*
%TD.AperFunction*%
%TO.P,U4,27*%
%TO.N,/BUS3-6*%
%TA.AperFunction,SMDPad,CuDef*%
G36*
G01*
X267759600Y-106652000D02*
X267759600Y-106352000D01*
G75*
G02*
X267909600Y-106202000I150000J0D01*
G01*
X269659600Y-106202000D01*
G75*
G02*
X269809600Y-106352000I0J-150000D01*
G01*
X269809600Y-106652000D01*
G75*
G02*
X269659600Y-106802000I-150000J0D01*
G01*
X267909600Y-106802000D01*
G75*
G02*
X267759600Y-106652000I0J150000D01*
G01*
G37*
%TD.AperFunction*%
%TO.P,U4,26*%
%TO.N,/BUS3-5*%
%TA.AperFunction,SMDPad,CuDef*%
G36*
G01*
X267759600Y-105382000D02*
X267759600Y-105082000D01*
G75*
G02*
X267909600Y-104932000I150000J0D01*
G01*
X269659600Y-104932000D01*
G75*
G02*
X269809600Y-105082000I0J-150000D01*
G01*
X269809600Y-105382000D01*
G75*
G02*
X269659600Y-105532000I-150000J0D01*
G01*
X267909600Y-105532000D01*
G75*
G02*
X267759600Y-105382000I0J150000D01*
G01*
G37*
%TD.AperFunction*%
%TO.P,U4,25*%
%TO.N,/BUS3-4*%
%TA.AperFunction,SMDPad,CuDef*%
G36*
G01*
X267759600Y-104112000D02*
X267759600Y-103812000D01*
G75*
G02*
X267909600Y-103662000I150000J0D01*
G01*
X269659600Y-103662000D01*
G75*
G02*
X269809600Y-103812000I0J-150000D01*
G01*
X269809600Y-104112000D01*
G75*
G02*
X269659600Y-104262000I-150000J0D01*
G01*
X267909600Y-104262000D01*
G75*
G02*
X267759600Y-104112000I0J150000D01*
G01*
G37*
%TD.AperFunction*%
%TO.P,U4,24*%
%TO.N,/BUS3-3*%
%TA.AperFunction,SMDPad,CuDef*%
G36*
G01*
X267759600Y-102842000D02*
X267759600Y-102542000D01*
G75*
G02*
X267909600Y-102392000I150000J0D01*
G01*
X269659600Y-102392000D01*
G75*
G02*
X269809600Y-102542000I0J-150000D01*
G01*
X269809600Y-102842000D01*
G75*
G02*
X269659600Y-102992000I-150000J0D01*
G01*
X267909600Y-102992000D01*
G75*
G02*
X267759600Y-102842000I0J150000D01*
G01*
G37*
%TD.AperFunction*%
%TO.P,U4,23*%
%TO.N,/BUS3-2*%
%TA.AperFunction,SMDPad,CuDef*%
G36*
G01*
X267759600Y-101572000D02*
X267759600Y-101272000D01*
G75*
G02*
X267909600Y-101122000I150000J0D01*
G01*
X269659600Y-101122000D01*
G75*
G02*
X269809600Y-101272000I0J-150000D01*
G01*
X269809600Y-101572000D01*
G75*
G02*
X269659600Y-101722000I-150000J0D01*
G01*
X267909600Y-101722000D01*
G75*
G02*
X267759600Y-101572000I0J150000D01*
G01*
G37*
%TD.AperFunction*%
%TO.P,U4,22*%
%TO.N,/BUS3-1*%
%TA.AperFunction,SMDPad,CuDef*%
G36*
G01*
X267759600Y-100302000D02*
X267759600Y-100002000D01*
G75*
G02*
X267909600Y-99852000I150000J0D01*
G01*
X269659600Y-99852000D01*
G75*
G02*
X269809600Y-100002000I0J-150000D01*
G01*
X269809600Y-100302000D01*
G75*
G02*
X269659600Y-100452000I-150000J0D01*
G01*
X267909600Y-100452000D01*
G75*
G02*
X267759600Y-100302000I0J150000D01*
G01*
G37*
%TD.AperFunction*%
%TO.P,U4,21*%
%TO.N,/BUS3-0*%
%TA.AperFunction,SMDPad,CuDef*%
G36*
G01*
X267759600Y-99032000D02*
X267759600Y-98732000D01*
G75*
G02*
X267909600Y-98582000I150000J0D01*
G01*
X269659600Y-98582000D01*
G75*
G02*
X269809600Y-98732000I0J-150000D01*
G01*
X269809600Y-99032000D01*
G75*
G02*
X269659600Y-99182000I-150000J0D01*
G01*
X267909600Y-99182000D01*
G75*
G02*
X267759600Y-99032000I0J150000D01*
G01*
G37*
%TD.AperFunction*%
%TO.P,U4,20*%
%TO.N,INT_BUS_3*%
%TA.AperFunction,SMDPad,CuDef*%
G36*
G01*
X267759600Y-97762000D02*
X267759600Y-97462000D01*
G75*
G02*
X267909600Y-97312000I150000J0D01*
G01*
X269659600Y-97312000D01*
G75*
G02*
X269809600Y-97462000I0J-150000D01*
G01*
X269809600Y-97762000D01*
G75*
G02*
X269659600Y-97912000I-150000J0D01*
G01*
X267909600Y-97912000D01*
G75*
G02*
X267759600Y-97762000I0J150000D01*
G01*
G37*
%TD.AperFunction*%
%TO.P,U4,19*%
%TO.N,N/C*%
%TA.AperFunction,SMDPad,CuDef*%
G36*
G01*
X267759600Y-96492000D02*
X267759600Y-96192000D01*
G75*
G02*
X267909600Y-96042000I150000J0D01*
G01*
X269659600Y-96042000D01*
G75*
G02*
X269809600Y-96192000I0J-150000D01*
G01*
X269809600Y-96492000D01*
G75*
G02*
X269659600Y-96642000I-150000J0D01*
G01*
X267909600Y-96642000D01*
G75*
G02*
X267759600Y-96492000I0J150000D01*
G01*
G37*
%TD.AperFunction*%
%TO.P,U4,18*%
%TO.N,BUSES_RESET*%
%TA.AperFunction,SMDPad,CuDef*%
G36*
G01*
X267759600Y-95222000D02*
X267759600Y-94922000D01*
G75*
G02*
X267909600Y-94772000I150000J0D01*
G01*
X269659600Y-94772000D01*
G75*
G02*
X269809600Y-94922000I0J-150000D01*
G01*
X269809600Y-95222000D01*
G75*
G02*
X269659600Y-95372000I-150000J0D01*
G01*
X267909600Y-95372000D01*
G75*
G02*
X267759600Y-95222000I0J150000D01*
G01*
G37*
%TD.AperFunction*%
%TO.P,U4,17*%
%TO.N,GND*%
%TA.AperFunction,SMDPad,CuDef*%
G36*
G01*
X267759600Y-93952000D02*
X267759600Y-93652000D01*
G75*
G02*
X267909600Y-93502000I150000J0D01*
G01*
X269659600Y-93502000D01*
G75*
G02*
X269809600Y-93652000I0J-150000D01*
G01*
X269809600Y-93952000D01*
G75*
G02*
X269659600Y-94102000I-150000J0D01*
G01*
X267909600Y-94102000D01*
G75*
G02*
X267759600Y-93952000I0J150000D01*
G01*
G37*
%TD.AperFunction*%
%TO.P,U4,16*%
%TO.N,+5V*%
%TA.AperFunction,SMDPad,CuDef*%
G36*
G01*
X267759600Y-92682000D02*
X267759600Y-92382000D01*
G75*
G02*
X267909600Y-92232000I150000J0D01*
G01*
X269659600Y-92232000D01*
G75*
G02*
X269809600Y-92382000I0J-150000D01*
G01*
X269809600Y-92682000D01*
G75*
G02*
X269659600Y-92832000I-150000J0D01*
G01*
X267909600Y-92832000D01*
G75*
G02*
X267759600Y-92682000I0J150000D01*
G01*
G37*
%TD.AperFunction*%
%TO.P,U4,15*%
%TA.AperFunction,SMDPad,CuDef*%
G36*
G01*
X267759600Y-91412000D02*
X267759600Y-91112000D01*
G75*
G02*
X267909600Y-90962000I150000J0D01*
G01*
X269659600Y-90962000D01*
G75*
G02*
X269809600Y-91112000I0J-150000D01*
G01*
X269809600Y-91412000D01*
G75*
G02*
X269659600Y-91562000I-150000J0D01*
G01*
X267909600Y-91562000D01*
G75*
G02*
X267759600Y-91412000I0J150000D01*
G01*
G37*
%TD.AperFunction*%
%TO.P,U4,14*%
%TO.N,N/C*%
%TA.AperFunction,SMDPad,CuDef*%
G36*
G01*
X258459600Y-91412000D02*
X258459600Y-91112000D01*
G75*
G02*
X258609600Y-90962000I150000J0D01*
G01*
X260359600Y-90962000D01*
G75*
G02*
X260509600Y-91112000I0J-150000D01*
G01*
X260509600Y-91412000D01*
G75*
G02*
X260359600Y-91562000I-150000J0D01*
G01*
X258609600Y-91562000D01*
G75*
G02*
X258459600Y-91412000I0J150000D01*
G01*
G37*
%TD.AperFunction*%
%TO.P,U4,13*%
%TO.N,SDA*%
%TA.AperFunction,SMDPad,CuDef*%
G36*
G01*
X258459600Y-92682000D02*
X258459600Y-92382000D01*
G75*
G02*
X258609600Y-92232000I150000J0D01*
G01*
X260359600Y-92232000D01*
G75*
G02*
X260509600Y-92382000I0J-150000D01*
G01*
X260509600Y-92682000D01*
G75*
G02*
X260359600Y-92832000I-150000J0D01*
G01*
X258609600Y-92832000D01*
G75*
G02*
X258459600Y-92682000I0J150000D01*
G01*
G37*
%TD.AperFunction*%
%TO.P,U4,12*%
%TO.N,SCL*%
%TA.AperFunction,SMDPad,CuDef*%
G36*
G01*
X258459600Y-93952000D02*
X258459600Y-93652000D01*
G75*
G02*
X258609600Y-93502000I150000J0D01*
G01*
X260359600Y-93502000D01*
G75*
G02*
X260509600Y-93652000I0J-150000D01*
G01*
X260509600Y-93952000D01*
G75*
G02*
X260359600Y-94102000I-150000J0D01*
G01*
X258609600Y-94102000D01*
G75*
G02*
X258459600Y-93952000I0J150000D01*
G01*
G37*
%TD.AperFunction*%
%TO.P,U4,11*%
%TO.N,N/C*%
%TA.AperFunction,SMDPad,CuDef*%
G36*
G01*
X258459600Y-95222000D02*
X258459600Y-94922000D01*
G75*
G02*
X258609600Y-94772000I150000J0D01*
G01*
X260359600Y-94772000D01*
G75*
G02*
X260509600Y-94922000I0J-150000D01*
G01*
X260509600Y-95222000D01*
G75*
G02*
X260359600Y-95372000I-150000J0D01*
G01*
X258609600Y-95372000D01*
G75*
G02*
X258459600Y-95222000I0J150000D01*
G01*
G37*
%TD.AperFunction*%
%TO.P,U4,10*%
%TO.N,GND*%
%TA.AperFunction,SMDPad,CuDef*%
G36*
G01*
X258459600Y-96492000D02*
X258459600Y-96192000D01*
G75*
G02*
X258609600Y-96042000I150000J0D01*
G01*
X260359600Y-96042000D01*
G75*
G02*
X260509600Y-96192000I0J-150000D01*
G01*
X260509600Y-96492000D01*
G75*
G02*
X260359600Y-96642000I-150000J0D01*
G01*
X258609600Y-96642000D01*
G75*
G02*
X258459600Y-96492000I0J150000D01*
G01*
G37*
%TD.AperFunction*%
%TO.P,U4,9*%
%TO.N,+5V*%
%TA.AperFunction,SMDPad,CuDef*%
G36*
G01*
X258459600Y-97762000D02*
X258459600Y-97462000D01*
G75*
G02*
X258609600Y-97312000I150000J0D01*
G01*
X260359600Y-97312000D01*
G75*
G02*
X260509600Y-97462000I0J-150000D01*
G01*
X260509600Y-97762000D01*
G75*
G02*
X260359600Y-97912000I-150000J0D01*
G01*
X258609600Y-97912000D01*
G75*
G02*
X258459600Y-97762000I0J150000D01*
G01*
G37*
%TD.AperFunction*%
%TO.P,U4,8*%
%TO.N,/BUS3-15*%
%TA.AperFunction,SMDPad,CuDef*%
G36*
G01*
X258459600Y-99032000D02*
X258459600Y-98732000D01*
G75*
G02*
X258609600Y-98582000I150000J0D01*
G01*
X260359600Y-98582000D01*
G75*
G02*
X260509600Y-98732000I0J-150000D01*
G01*
X260509600Y-99032000D01*
G75*
G02*
X260359600Y-99182000I-150000J0D01*
G01*
X258609600Y-99182000D01*
G75*
G02*
X258459600Y-99032000I0J150000D01*
G01*
G37*
%TD.AperFunction*%
%TO.P,U4,7*%
%TO.N,/BUS3-14*%
%TA.AperFunction,SMDPad,CuDef*%
G36*
G01*
X258459600Y-100302000D02*
X258459600Y-100002000D01*
G75*
G02*
X258609600Y-99852000I150000J0D01*
G01*
X260359600Y-99852000D01*
G75*
G02*
X260509600Y-100002000I0J-150000D01*
G01*
X260509600Y-100302000D01*
G75*
G02*
X260359600Y-100452000I-150000J0D01*
G01*
X258609600Y-100452000D01*
G75*
G02*
X258459600Y-100302000I0J150000D01*
G01*
G37*
%TD.AperFunction*%
%TO.P,U4,6*%
%TO.N,/BUS3-13*%
%TA.AperFunction,SMDPad,CuDef*%
G36*
G01*
X258459600Y-101572000D02*
X258459600Y-101272000D01*
G75*
G02*
X258609600Y-101122000I150000J0D01*
G01*
X260359600Y-101122000D01*
G75*
G02*
X260509600Y-101272000I0J-150000D01*
G01*
X260509600Y-101572000D01*
G75*
G02*
X260359600Y-101722000I-150000J0D01*
G01*
X258609600Y-101722000D01*
G75*
G02*
X258459600Y-101572000I0J150000D01*
G01*
G37*
%TD.AperFunction*%
%TO.P,U4,5*%
%TO.N,/BUS3-12*%
%TA.AperFunction,SMDPad,CuDef*%
G36*
G01*
X258459600Y-102842000D02*
X258459600Y-102542000D01*
G75*
G02*
X258609600Y-102392000I150000J0D01*
G01*
X260359600Y-102392000D01*
G75*
G02*
X260509600Y-102542000I0J-150000D01*
G01*
X260509600Y-102842000D01*
G75*
G02*
X260359600Y-102992000I-150000J0D01*
G01*
X258609600Y-102992000D01*
G75*
G02*
X258459600Y-102842000I0J150000D01*
G01*
G37*
%TD.AperFunction*%
%TO.P,U4,4*%
%TO.N,/BUS3-11*%
%TA.AperFunction,SMDPad,CuDef*%
G36*
G01*
X258459600Y-104112000D02*
X258459600Y-103812000D01*
G75*
G02*
X258609600Y-103662000I150000J0D01*
G01*
X260359600Y-103662000D01*
G75*
G02*
X260509600Y-103812000I0J-150000D01*
G01*
X260509600Y-104112000D01*
G75*
G02*
X260359600Y-104262000I-150000J0D01*
G01*
X258609600Y-104262000D01*
G75*
G02*
X258459600Y-104112000I0J150000D01*
G01*
G37*
%TD.AperFunction*%
%TO.P,U4,3*%
%TO.N,/BUS3-10*%
%TA.AperFunction,SMDPad,CuDef*%
G36*
G01*
X258459600Y-105382000D02*
X258459600Y-105082000D01*
G75*
G02*
X258609600Y-104932000I150000J0D01*
G01*
X260359600Y-104932000D01*
G75*
G02*
X260509600Y-105082000I0J-150000D01*
G01*
X260509600Y-105382000D01*
G75*
G02*
X260359600Y-105532000I-150000J0D01*
G01*
X258609600Y-105532000D01*
G75*
G02*
X258459600Y-105382000I0J150000D01*
G01*
G37*
%TD.AperFunction*%
%TO.P,U4,2*%
%TO.N,/BUS3-9*%
%TA.AperFunction,SMDPad,CuDef*%
G36*
G01*
X258459600Y-106652000D02*
X258459600Y-106352000D01*
G75*
G02*
X258609600Y-106202000I150000J0D01*
G01*
X260359600Y-106202000D01*
G75*
G02*
X260509600Y-106352000I0J-150000D01*
G01*
X260509600Y-106652000D01*
G75*
G02*
X260359600Y-106802000I-150000J0D01*
G01*
X258609600Y-106802000D01*
G75*
G02*
X258459600Y-106652000I0J150000D01*
G01*
G37*
%TD.AperFunction*%
%TO.P,U4,1*%
%TO.N,/BUS3-8*%
%TA.AperFunction,SMDPad,CuDef*%
G36*
G01*
X258459600Y-107922000D02*
X258459600Y-107622000D01*
G75*
G02*
X258609600Y-107472000I150000J0D01*
G01*
X260359600Y-107472000D01*
G75*
G02*
X260509600Y-107622000I0J-150000D01*
G01*
X260509600Y-107922000D01*
G75*
G02*
X260359600Y-108072000I-150000J0D01*
G01*
X258609600Y-108072000D01*
G75*
G02*
X258459600Y-107922000I0J150000D01*
G01*
G37*
%TD.AperFunction*%
%TD*%
%TO.P,U3,28*%
%TO.N,/BUS2-7*%
%TA.AperFunction,SMDPad,CuDef*%
G36*
G01*
X244899600Y-107922000D02*
X244899600Y-107622000D01*
G75*
G02*
X245049600Y-107472000I150000J0D01*
G01*
X246799600Y-107472000D01*
G75*
G02*
X246949600Y-107622000I0J-150000D01*
G01*
X246949600Y-107922000D01*
G75*
G02*
X246799600Y-108072000I-150000J0D01*
G01*
X245049600Y-108072000D01*
G75*
G02*
X244899600Y-107922000I0J150000D01*
G01*
G37*
%TD.AperFunction*%
%TO.P,U3,27*%
%TO.N,/BUS2-6*%
%TA.AperFunction,SMDPad,CuDef*%
G36*
G01*
X244899600Y-106652000D02*
X244899600Y-106352000D01*
G75*
G02*
X245049600Y-106202000I150000J0D01*
G01*
X246799600Y-106202000D01*
G75*
G02*
X246949600Y-106352000I0J-150000D01*
G01*
X246949600Y-106652000D01*
G75*
G02*
X246799600Y-106802000I-150000J0D01*
G01*
X245049600Y-106802000D01*
G75*
G02*
X244899600Y-106652000I0J150000D01*
G01*
G37*
%TD.AperFunction*%
%TO.P,U3,26*%
%TO.N,/BUS2-5*%
%TA.AperFunction,SMDPad,CuDef*%
G36*
G01*
X244899600Y-105382000D02*
X244899600Y-105082000D01*
G75*
G02*
X245049600Y-104932000I150000J0D01*
G01*
X246799600Y-104932000D01*
G75*
G02*
X246949600Y-105082000I0J-150000D01*
G01*
X246949600Y-105382000D01*
G75*
G02*
X246799600Y-105532000I-150000J0D01*
G01*
X245049600Y-105532000D01*
G75*
G02*
X244899600Y-105382000I0J150000D01*
G01*
G37*
%TD.AperFunction*%
%TO.P,U3,25*%
%TO.N,/BUS2-4*%
%TA.AperFunction,SMDPad,CuDef*%
G36*
G01*
X244899600Y-104112000D02*
X244899600Y-103812000D01*
G75*
G02*
X245049600Y-103662000I150000J0D01*
G01*
X246799600Y-103662000D01*
G75*
G02*
X246949600Y-103812000I0J-150000D01*
G01*
X246949600Y-104112000D01*
G75*
G02*
X246799600Y-104262000I-150000J0D01*
G01*
X245049600Y-104262000D01*
G75*
G02*
X244899600Y-104112000I0J150000D01*
G01*
G37*
%TD.AperFunction*%
%TO.P,U3,24*%
%TO.N,/BUS2-3*%
%TA.AperFunction,SMDPad,CuDef*%
G36*
G01*
X244899600Y-102842000D02*
X244899600Y-102542000D01*
G75*
G02*
X245049600Y-102392000I150000J0D01*
G01*
X246799600Y-102392000D01*
G75*
G02*
X246949600Y-102542000I0J-150000D01*
G01*
X246949600Y-102842000D01*
G75*
G02*
X246799600Y-102992000I-150000J0D01*
G01*
X245049600Y-102992000D01*
G75*
G02*
X244899600Y-102842000I0J150000D01*
G01*
G37*
%TD.AperFunction*%
%TO.P,U3,23*%
%TO.N,/BUS2-2*%
%TA.AperFunction,SMDPad,CuDef*%
G36*
G01*
X244899600Y-101572000D02*
X244899600Y-101272000D01*
G75*
G02*
X245049600Y-101122000I150000J0D01*
G01*
X246799600Y-101122000D01*
G75*
G02*
X246949600Y-101272000I0J-150000D01*
G01*
X246949600Y-101572000D01*
G75*
G02*
X246799600Y-101722000I-150000J0D01*
G01*
X245049600Y-101722000D01*
G75*
G02*
X244899600Y-101572000I0J150000D01*
G01*
G37*
%TD.AperFunction*%
%TO.P,U3,22*%
%TO.N,/BUS2-1*%
%TA.AperFunction,SMDPad,CuDef*%
G36*
G01*
X244899600Y-100302000D02*
X244899600Y-100002000D01*
G75*
G02*
X245049600Y-99852000I150000J0D01*
G01*
X246799600Y-99852000D01*
G75*
G02*
X246949600Y-100002000I0J-150000D01*
G01*
X246949600Y-100302000D01*
G75*
G02*
X246799600Y-100452000I-150000J0D01*
G01*
X245049600Y-100452000D01*
G75*
G02*
X244899600Y-100302000I0J150000D01*
G01*
G37*
%TD.AperFunction*%
%TO.P,U3,21*%
%TO.N,/BUS2-0*%
%TA.AperFunction,SMDPad,CuDef*%
G36*
G01*
X244899600Y-99032000D02*
X244899600Y-98732000D01*
G75*
G02*
X245049600Y-98582000I150000J0D01*
G01*
X246799600Y-98582000D01*
G75*
G02*
X246949600Y-98732000I0J-150000D01*
G01*
X246949600Y-99032000D01*
G75*
G02*
X246799600Y-99182000I-150000J0D01*
G01*
X245049600Y-99182000D01*
G75*
G02*
X244899600Y-99032000I0J150000D01*
G01*
G37*
%TD.AperFunction*%
%TO.P,U3,20*%
%TO.N,INT_BUS_2*%
%TA.AperFunction,SMDPad,CuDef*%
G36*
G01*
X244899600Y-97762000D02*
X244899600Y-97462000D01*
G75*
G02*
X245049600Y-97312000I150000J0D01*
G01*
X246799600Y-97312000D01*
G75*
G02*
X246949600Y-97462000I0J-150000D01*
G01*
X246949600Y-97762000D01*
G75*
G02*
X246799600Y-97912000I-150000J0D01*
G01*
X245049600Y-97912000D01*
G75*
G02*
X244899600Y-97762000I0J150000D01*
G01*
G37*
%TD.AperFunction*%
%TO.P,U3,19*%
%TO.N,N/C*%
%TA.AperFunction,SMDPad,CuDef*%
G36*
G01*
X244899600Y-96492000D02*
X244899600Y-96192000D01*
G75*
G02*
X245049600Y-96042000I150000J0D01*
G01*
X246799600Y-96042000D01*
G75*
G02*
X246949600Y-96192000I0J-150000D01*
G01*
X246949600Y-96492000D01*
G75*
G02*
X246799600Y-96642000I-150000J0D01*
G01*
X245049600Y-96642000D01*
G75*
G02*
X244899600Y-96492000I0J150000D01*
G01*
G37*
%TD.AperFunction*%
%TO.P,U3,18*%
%TO.N,BUSES_RESET*%
%TA.AperFunction,SMDPad,CuDef*%
G36*
G01*
X244899600Y-95222000D02*
X244899600Y-94922000D01*
G75*
G02*
X245049600Y-94772000I150000J0D01*
G01*
X246799600Y-94772000D01*
G75*
G02*
X246949600Y-94922000I0J-150000D01*
G01*
X246949600Y-95222000D01*
G75*
G02*
X246799600Y-95372000I-150000J0D01*
G01*
X245049600Y-95372000D01*
G75*
G02*
X244899600Y-95222000I0J150000D01*
G01*
G37*
%TD.AperFunction*%
%TO.P,U3,17*%
%TO.N,GND*%
%TA.AperFunction,SMDPad,CuDef*%
G36*
G01*
X244899600Y-93952000D02*
X244899600Y-93652000D01*
G75*
G02*
X245049600Y-93502000I150000J0D01*
G01*
X246799600Y-93502000D01*
G75*
G02*
X246949600Y-93652000I0J-150000D01*
G01*
X246949600Y-93952000D01*
G75*
G02*
X246799600Y-94102000I-150000J0D01*
G01*
X245049600Y-94102000D01*
G75*
G02*
X244899600Y-93952000I0J150000D01*
G01*
G37*
%TD.AperFunction*%
%TO.P,U3,16*%
%TO.N,+5V*%
%TA.AperFunction,SMDPad,CuDef*%
G36*
G01*
X244899600Y-92682000D02*
X244899600Y-92382000D01*
G75*
G02*
X245049600Y-92232000I150000J0D01*
G01*
X246799600Y-92232000D01*
G75*
G02*
X246949600Y-92382000I0J-150000D01*
G01*
X246949600Y-92682000D01*
G75*
G02*
X246799600Y-92832000I-150000J0D01*
G01*
X245049600Y-92832000D01*
G75*
G02*
X244899600Y-92682000I0J150000D01*
G01*
G37*
%TD.AperFunction*%
%TO.P,U3,15*%
%TO.N,GND*%
%TA.AperFunction,SMDPad,CuDef*%
G36*
G01*
X244899600Y-91412000D02*
X244899600Y-91112000D01*
G75*
G02*
X245049600Y-90962000I150000J0D01*
G01*
X246799600Y-90962000D01*
G75*
G02*
X246949600Y-91112000I0J-150000D01*
G01*
X246949600Y-91412000D01*
G75*
G02*
X246799600Y-91562000I-150000J0D01*
G01*
X245049600Y-91562000D01*
G75*
G02*
X244899600Y-91412000I0J150000D01*
G01*
G37*
%TD.AperFunction*%
%TO.P,U3,14*%
%TO.N,N/C*%
%TA.AperFunction,SMDPad,CuDef*%
G36*
G01*
X235599600Y-91412000D02*
X235599600Y-91112000D01*
G75*
G02*
X235749600Y-90962000I150000J0D01*
G01*
X237499600Y-90962000D01*
G75*
G02*
X237649600Y-91112000I0J-150000D01*
G01*
X237649600Y-91412000D01*
G75*
G02*
X237499600Y-91562000I-150000J0D01*
G01*
X235749600Y-91562000D01*
G75*
G02*
X235599600Y-91412000I0J150000D01*
G01*
G37*
%TD.AperFunction*%
%TO.P,U3,13*%
%TO.N,SDA*%
%TA.AperFunction,SMDPad,CuDef*%
G36*
G01*
X235599600Y-92682000D02*
X235599600Y-92382000D01*
G75*
G02*
X235749600Y-92232000I150000J0D01*
G01*
X237499600Y-92232000D01*
G75*
G02*
X237649600Y-92382000I0J-150000D01*
G01*
X237649600Y-92682000D01*
G75*
G02*
X237499600Y-92832000I-150000J0D01*
G01*
X235749600Y-92832000D01*
G75*
G02*
X235599600Y-92682000I0J150000D01*
G01*
G37*
%TD.AperFunction*%
%TO.P,U3,12*%
%TO.N,SCL*%
%TA.AperFunction,SMDPad,CuDef*%
G36*
G01*
X235599600Y-93952000D02*
X235599600Y-93652000D01*
G75*
G02*
X235749600Y-93502000I150000J0D01*
G01*
X237499600Y-93502000D01*
G75*
G02*
X237649600Y-93652000I0J-150000D01*
G01*
X237649600Y-93952000D01*
G75*
G02*
X237499600Y-94102000I-150000J0D01*
G01*
X235749600Y-94102000D01*
G75*
G02*
X235599600Y-93952000I0J150000D01*
G01*
G37*
%TD.AperFunction*%
%TO.P,U3,11*%
%TO.N,N/C*%
%TA.AperFunction,SMDPad,CuDef*%
G36*
G01*
X235599600Y-95222000D02*
X235599600Y-94922000D01*
G75*
G02*
X235749600Y-94772000I150000J0D01*
G01*
X237499600Y-94772000D01*
G75*
G02*
X237649600Y-94922000I0J-150000D01*
G01*
X237649600Y-95222000D01*
G75*
G02*
X237499600Y-95372000I-150000J0D01*
G01*
X235749600Y-95372000D01*
G75*
G02*
X235599600Y-95222000I0J150000D01*
G01*
G37*
%TD.AperFunction*%
%TO.P,U3,10*%
%TO.N,GND*%
%TA.AperFunction,SMDPad,CuDef*%
G36*
G01*
X235599600Y-96492000D02*
X235599600Y-96192000D01*
G75*
G02*
X235749600Y-96042000I150000J0D01*
G01*
X237499600Y-96042000D01*
G75*
G02*
X237649600Y-96192000I0J-150000D01*
G01*
X237649600Y-96492000D01*
G75*
G02*
X237499600Y-96642000I-150000J0D01*
G01*
X235749600Y-96642000D01*
G75*
G02*
X235599600Y-96492000I0J150000D01*
G01*
G37*
%TD.AperFunction*%
%TO.P,U3,9*%
%TO.N,+5V*%
%TA.AperFunction,SMDPad,CuDef*%
G36*
G01*
X235599600Y-97762000D02*
X235599600Y-97462000D01*
G75*
G02*
X235749600Y-97312000I150000J0D01*
G01*
X237499600Y-97312000D01*
G75*
G02*
X237649600Y-97462000I0J-150000D01*
G01*
X237649600Y-97762000D01*
G75*
G02*
X237499600Y-97912000I-150000J0D01*
G01*
X235749600Y-97912000D01*
G75*
G02*
X235599600Y-97762000I0J150000D01*
G01*
G37*
%TD.AperFunction*%
%TO.P,U3,8*%
%TO.N,/BUS2-15*%
%TA.AperFunction,SMDPad,CuDef*%
G36*
G01*
X235599600Y-99032000D02*
X235599600Y-98732000D01*
G75*
G02*
X235749600Y-98582000I150000J0D01*
G01*
X237499600Y-98582000D01*
G75*
G02*
X237649600Y-98732000I0J-150000D01*
G01*
X237649600Y-99032000D01*
G75*
G02*
X237499600Y-99182000I-150000J0D01*
G01*
X235749600Y-99182000D01*
G75*
G02*
X235599600Y-99032000I0J150000D01*
G01*
G37*
%TD.AperFunction*%
%TO.P,U3,7*%
%TO.N,/BUS2-14*%
%TA.AperFunction,SMDPad,CuDef*%
G36*
G01*
X235599600Y-100302000D02*
X235599600Y-100002000D01*
G75*
G02*
X235749600Y-99852000I150000J0D01*
G01*
X237499600Y-99852000D01*
G75*
G02*
X237649600Y-100002000I0J-150000D01*
G01*
X237649600Y-100302000D01*
G75*
G02*
X237499600Y-100452000I-150000J0D01*
G01*
X235749600Y-100452000D01*
G75*
G02*
X235599600Y-100302000I0J150000D01*
G01*
G37*
%TD.AperFunction*%
%TO.P,U3,6*%
%TO.N,/BUS2-13*%
%TA.AperFunction,SMDPad,CuDef*%
G36*
G01*
X235599600Y-101572000D02*
X235599600Y-101272000D01*
G75*
G02*
X235749600Y-101122000I150000J0D01*
G01*
X237499600Y-101122000D01*
G75*
G02*
X237649600Y-101272000I0J-150000D01*
G01*
X237649600Y-101572000D01*
G75*
G02*
X237499600Y-101722000I-150000J0D01*
G01*
X235749600Y-101722000D01*
G75*
G02*
X235599600Y-101572000I0J150000D01*
G01*
G37*
%TD.AperFunction*%
%TO.P,U3,5*%
%TO.N,/BUS2-12*%
%TA.AperFunction,SMDPad,CuDef*%
G36*
G01*
X235599600Y-102842000D02*
X235599600Y-102542000D01*
G75*
G02*
X235749600Y-102392000I150000J0D01*
G01*
X237499600Y-102392000D01*
G75*
G02*
X237649600Y-102542000I0J-150000D01*
G01*
X237649600Y-102842000D01*
G75*
G02*
X237499600Y-102992000I-150000J0D01*
G01*
X235749600Y-102992000D01*
G75*
G02*
X235599600Y-102842000I0J150000D01*
G01*
G37*
%TD.AperFunction*%
%TO.P,U3,4*%
%TO.N,/BUS2-11*%
%TA.AperFunction,SMDPad,CuDef*%
G36*
G01*
X235599600Y-104112000D02*
X235599600Y-103812000D01*
G75*
G02*
X235749600Y-103662000I150000J0D01*
G01*
X237499600Y-103662000D01*
G75*
G02*
X237649600Y-103812000I0J-150000D01*
G01*
X237649600Y-104112000D01*
G75*
G02*
X237499600Y-104262000I-150000J0D01*
G01*
X235749600Y-104262000D01*
G75*
G02*
X235599600Y-104112000I0J150000D01*
G01*
G37*
%TD.AperFunction*%
%TO.P,U3,3*%
%TO.N,/BUS2-10*%
%TA.AperFunction,SMDPad,CuDef*%
G36*
G01*
X235599600Y-105382000D02*
X235599600Y-105082000D01*
G75*
G02*
X235749600Y-104932000I150000J0D01*
G01*
X237499600Y-104932000D01*
G75*
G02*
X237649600Y-105082000I0J-150000D01*
G01*
X237649600Y-105382000D01*
G75*
G02*
X237499600Y-105532000I-150000J0D01*
G01*
X235749600Y-105532000D01*
G75*
G02*
X235599600Y-105382000I0J150000D01*
G01*
G37*
%TD.AperFunction*%
%TO.P,U3,2*%
%TO.N,/BUS2-9*%
%TA.AperFunction,SMDPad,CuDef*%
G36*
G01*
X235599600Y-106652000D02*
X235599600Y-106352000D01*
G75*
G02*
X235749600Y-106202000I150000J0D01*
G01*
X237499600Y-106202000D01*
G75*
G02*
X237649600Y-106352000I0J-150000D01*
G01*
X237649600Y-106652000D01*
G75*
G02*
X237499600Y-106802000I-150000J0D01*
G01*
X235749600Y-106802000D01*
G75*
G02*
X235599600Y-106652000I0J150000D01*
G01*
G37*
%TD.AperFunction*%
%TO.P,U3,1*%
%TO.N,/BUS2-8*%
%TA.AperFunction,SMDPad,CuDef*%
G36*
G01*
X235599600Y-107922000D02*
X235599600Y-107622000D01*
G75*
G02*
X235749600Y-107472000I150000J0D01*
G01*
X237499600Y-107472000D01*
G75*
G02*
X237649600Y-107622000I0J-150000D01*
G01*
X237649600Y-107922000D01*
G75*
G02*
X237499600Y-108072000I-150000J0D01*
G01*
X235749600Y-108072000D01*
G75*
G02*
X235599600Y-107922000I0J150000D01*
G01*
G37*
%TD.AperFunction*%
%TD*%
%TO.P,U2,28*%
%TO.N,/BUS1-7*%
%TA.AperFunction,SMDPad,CuDef*%
G36*
G01*
X223309600Y-107922000D02*
X223309600Y-107622000D01*
G75*
G02*
X223459600Y-107472000I150000J0D01*
G01*
X225209600Y-107472000D01*
G75*
G02*
X225359600Y-107622000I0J-150000D01*
G01*
X225359600Y-107922000D01*
G75*
G02*
X225209600Y-108072000I-150000J0D01*
G01*
X223459600Y-108072000D01*
G75*
G02*
X223309600Y-107922000I0J150000D01*
G01*
G37*
%TD.AperFunction*%
%TO.P,U2,27*%
%TO.N,/BUS1-6*%
%TA.AperFunction,SMDPad,CuDef*%
G36*
G01*
X223309600Y-106652000D02*
X223309600Y-106352000D01*
G75*
G02*
X223459600Y-106202000I150000J0D01*
G01*
X225209600Y-106202000D01*
G75*
G02*
X225359600Y-106352000I0J-150000D01*
G01*
X225359600Y-106652000D01*
G75*
G02*
X225209600Y-106802000I-150000J0D01*
G01*
X223459600Y-106802000D01*
G75*
G02*
X223309600Y-106652000I0J150000D01*
G01*
G37*
%TD.AperFunction*%
%TO.P,U2,26*%
%TO.N,/BUS1-5*%
%TA.AperFunction,SMDPad,CuDef*%
G36*
G01*
X223309600Y-105382000D02*
X223309600Y-105082000D01*
G75*
G02*
X223459600Y-104932000I150000J0D01*
G01*
X225209600Y-104932000D01*
G75*
G02*
X225359600Y-105082000I0J-150000D01*
G01*
X225359600Y-105382000D01*
G75*
G02*
X225209600Y-105532000I-150000J0D01*
G01*
X223459600Y-105532000D01*
G75*
G02*
X223309600Y-105382000I0J150000D01*
G01*
G37*
%TD.AperFunction*%
%TO.P,U2,25*%
%TO.N,/BUS1-4*%
%TA.AperFunction,SMDPad,CuDef*%
G36*
G01*
X223309600Y-104112000D02*
X223309600Y-103812000D01*
G75*
G02*
X223459600Y-103662000I150000J0D01*
G01*
X225209600Y-103662000D01*
G75*
G02*
X225359600Y-103812000I0J-150000D01*
G01*
X225359600Y-104112000D01*
G75*
G02*
X225209600Y-104262000I-150000J0D01*
G01*
X223459600Y-104262000D01*
G75*
G02*
X223309600Y-104112000I0J150000D01*
G01*
G37*
%TD.AperFunction*%
%TO.P,U2,24*%
%TO.N,/BUS1-3*%
%TA.AperFunction,SMDPad,CuDef*%
G36*
G01*
X223309600Y-102842000D02*
X223309600Y-102542000D01*
G75*
G02*
X223459600Y-102392000I150000J0D01*
G01*
X225209600Y-102392000D01*
G75*
G02*
X225359600Y-102542000I0J-150000D01*
G01*
X225359600Y-102842000D01*
G75*
G02*
X225209600Y-102992000I-150000J0D01*
G01*
X223459600Y-102992000D01*
G75*
G02*
X223309600Y-102842000I0J150000D01*
G01*
G37*
%TD.AperFunction*%
%TO.P,U2,23*%
%TO.N,/BUS1-2*%
%TA.AperFunction,SMDPad,CuDef*%
G36*
G01*
X223309600Y-101572000D02*
X223309600Y-101272000D01*
G75*
G02*
X223459600Y-101122000I150000J0D01*
G01*
X225209600Y-101122000D01*
G75*
G02*
X225359600Y-101272000I0J-150000D01*
G01*
X225359600Y-101572000D01*
G75*
G02*
X225209600Y-101722000I-150000J0D01*
G01*
X223459600Y-101722000D01*
G75*
G02*
X223309600Y-101572000I0J150000D01*
G01*
G37*
%TD.AperFunction*%
%TO.P,U2,22*%
%TO.N,/BUS1-1*%
%TA.AperFunction,SMDPad,CuDef*%
G36*
G01*
X223309600Y-100302000D02*
X223309600Y-100002000D01*
G75*
G02*
X223459600Y-99852000I150000J0D01*
G01*
X225209600Y-99852000D01*
G75*
G02*
X225359600Y-100002000I0J-150000D01*
G01*
X225359600Y-100302000D01*
G75*
G02*
X225209600Y-100452000I-150000J0D01*
G01*
X223459600Y-100452000D01*
G75*
G02*
X223309600Y-100302000I0J150000D01*
G01*
G37*
%TD.AperFunction*%
%TO.P,U2,21*%
%TO.N,/BUS1-0*%
%TA.AperFunction,SMDPad,CuDef*%
G36*
G01*
X223309600Y-99032000D02*
X223309600Y-98732000D01*
G75*
G02*
X223459600Y-98582000I150000J0D01*
G01*
X225209600Y-98582000D01*
G75*
G02*
X225359600Y-98732000I0J-150000D01*
G01*
X225359600Y-99032000D01*
G75*
G02*
X225209600Y-99182000I-150000J0D01*
G01*
X223459600Y-99182000D01*
G75*
G02*
X223309600Y-99032000I0J150000D01*
G01*
G37*
%TD.AperFunction*%
%TO.P,U2,20*%
%TO.N,INT_BUS_1*%
%TA.AperFunction,SMDPad,CuDef*%
G36*
G01*
X223309600Y-97762000D02*
X223309600Y-97462000D01*
G75*
G02*
X223459600Y-97312000I150000J0D01*
G01*
X225209600Y-97312000D01*
G75*
G02*
X225359600Y-97462000I0J-150000D01*
G01*
X225359600Y-97762000D01*
G75*
G02*
X225209600Y-97912000I-150000J0D01*
G01*
X223459600Y-97912000D01*
G75*
G02*
X223309600Y-97762000I0J150000D01*
G01*
G37*
%TD.AperFunction*%
%TO.P,U2,19*%
%TO.N,N/C*%
%TA.AperFunction,SMDPad,CuDef*%
G36*
G01*
X223309600Y-96492000D02*
X223309600Y-96192000D01*
G75*
G02*
X223459600Y-96042000I150000J0D01*
G01*
X225209600Y-96042000D01*
G75*
G02*
X225359600Y-96192000I0J-150000D01*
G01*
X225359600Y-96492000D01*
G75*
G02*
X225209600Y-96642000I-150000J0D01*
G01*
X223459600Y-96642000D01*
G75*
G02*
X223309600Y-96492000I0J150000D01*
G01*
G37*
%TD.AperFunction*%
%TO.P,U2,18*%
%TO.N,BUSES_RESET*%
%TA.AperFunction,SMDPad,CuDef*%
G36*
G01*
X223309600Y-95222000D02*
X223309600Y-94922000D01*
G75*
G02*
X223459600Y-94772000I150000J0D01*
G01*
X225209600Y-94772000D01*
G75*
G02*
X225359600Y-94922000I0J-150000D01*
G01*
X225359600Y-95222000D01*
G75*
G02*
X225209600Y-95372000I-150000J0D01*
G01*
X223459600Y-95372000D01*
G75*
G02*
X223309600Y-95222000I0J150000D01*
G01*
G37*
%TD.AperFunction*%
%TO.P,U2,17*%
%TO.N,GND*%
%TA.AperFunction,SMDPad,CuDef*%
G36*
G01*
X223309600Y-93952000D02*
X223309600Y-93652000D01*
G75*
G02*
X223459600Y-93502000I150000J0D01*
G01*
X225209600Y-93502000D01*
G75*
G02*
X225359600Y-93652000I0J-150000D01*
G01*
X225359600Y-93952000D01*
G75*
G02*
X225209600Y-94102000I-150000J0D01*
G01*
X223459600Y-94102000D01*
G75*
G02*
X223309600Y-93952000I0J150000D01*
G01*
G37*
%TD.AperFunction*%
%TO.P,U2,16*%
%TA.AperFunction,SMDPad,CuDef*%
G36*
G01*
X223309600Y-92682000D02*
X223309600Y-92382000D01*
G75*
G02*
X223459600Y-92232000I150000J0D01*
G01*
X225209600Y-92232000D01*
G75*
G02*
X225359600Y-92382000I0J-150000D01*
G01*
X225359600Y-92682000D01*
G75*
G02*
X225209600Y-92832000I-150000J0D01*
G01*
X223459600Y-92832000D01*
G75*
G02*
X223309600Y-92682000I0J150000D01*
G01*
G37*
%TD.AperFunction*%
%TO.P,U2,15*%
%TO.N,+5V*%
%TA.AperFunction,SMDPad,CuDef*%
G36*
G01*
X223309600Y-91412000D02*
X223309600Y-91112000D01*
G75*
G02*
X223459600Y-90962000I150000J0D01*
G01*
X225209600Y-90962000D01*
G75*
G02*
X225359600Y-91112000I0J-150000D01*
G01*
X225359600Y-91412000D01*
G75*
G02*
X225209600Y-91562000I-150000J0D01*
G01*
X223459600Y-91562000D01*
G75*
G02*
X223309600Y-91412000I0J150000D01*
G01*
G37*
%TD.AperFunction*%
%TO.P,U2,14*%
%TO.N,N/C*%
%TA.AperFunction,SMDPad,CuDef*%
G36*
G01*
X214009600Y-91412000D02*
X214009600Y-91112000D01*
G75*
G02*
X214159600Y-90962000I150000J0D01*
G01*
X215909600Y-90962000D01*
G75*
G02*
X216059600Y-91112000I0J-150000D01*
G01*
X216059600Y-91412000D01*
G75*
G02*
X215909600Y-91562000I-150000J0D01*
G01*
X214159600Y-91562000D01*
G75*
G02*
X214009600Y-91412000I0J150000D01*
G01*
G37*
%TD.AperFunction*%
%TO.P,U2,13*%
%TO.N,SDA*%
%TA.AperFunction,SMDPad,CuDef*%
G36*
G01*
X214009600Y-92682000D02*
X214009600Y-92382000D01*
G75*
G02*
X214159600Y-92232000I150000J0D01*
G01*
X215909600Y-92232000D01*
G75*
G02*
X216059600Y-92382000I0J-150000D01*
G01*
X216059600Y-92682000D01*
G75*
G02*
X215909600Y-92832000I-150000J0D01*
G01*
X214159600Y-92832000D01*
G75*
G02*
X214009600Y-92682000I0J150000D01*
G01*
G37*
%TD.AperFunction*%
%TO.P,U2,12*%
%TO.N,SCL*%
%TA.AperFunction,SMDPad,CuDef*%
G36*
G01*
X214009600Y-93952000D02*
X214009600Y-93652000D01*
G75*
G02*
X214159600Y-93502000I150000J0D01*
G01*
X215909600Y-93502000D01*
G75*
G02*
X216059600Y-93652000I0J-150000D01*
G01*
X216059600Y-93952000D01*
G75*
G02*
X215909600Y-94102000I-150000J0D01*
G01*
X214159600Y-94102000D01*
G75*
G02*
X214009600Y-93952000I0J150000D01*
G01*
G37*
%TD.AperFunction*%
%TO.P,U2,11*%
%TO.N,N/C*%
%TA.AperFunction,SMDPad,CuDef*%
G36*
G01*
X214009600Y-95222000D02*
X214009600Y-94922000D01*
G75*
G02*
X214159600Y-94772000I150000J0D01*
G01*
X215909600Y-94772000D01*
G75*
G02*
X216059600Y-94922000I0J-150000D01*
G01*
X216059600Y-95222000D01*
G75*
G02*
X215909600Y-95372000I-150000J0D01*
G01*
X214159600Y-95372000D01*
G75*
G02*
X214009600Y-95222000I0J150000D01*
G01*
G37*
%TD.AperFunction*%
%TO.P,U2,10*%
%TO.N,GND*%
%TA.AperFunction,SMDPad,CuDef*%
G36*
G01*
X214009600Y-96492000D02*
X214009600Y-96192000D01*
G75*
G02*
X214159600Y-96042000I150000J0D01*
G01*
X215909600Y-96042000D01*
G75*
G02*
X216059600Y-96192000I0J-150000D01*
G01*
X216059600Y-96492000D01*
G75*
G02*
X215909600Y-96642000I-150000J0D01*
G01*
X214159600Y-96642000D01*
G75*
G02*
X214009600Y-96492000I0J150000D01*
G01*
G37*
%TD.AperFunction*%
%TO.P,U2,9*%
%TO.N,+5V*%
%TA.AperFunction,SMDPad,CuDef*%
G36*
G01*
X214009600Y-97762000D02*
X214009600Y-97462000D01*
G75*
G02*
X214159600Y-97312000I150000J0D01*
G01*
X215909600Y-97312000D01*
G75*
G02*
X216059600Y-97462000I0J-150000D01*
G01*
X216059600Y-97762000D01*
G75*
G02*
X215909600Y-97912000I-150000J0D01*
G01*
X214159600Y-97912000D01*
G75*
G02*
X214009600Y-97762000I0J150000D01*
G01*
G37*
%TD.AperFunction*%
%TO.P,U2,8*%
%TO.N,/BUS1-15*%
%TA.AperFunction,SMDPad,CuDef*%
G36*
G01*
X214009600Y-99032000D02*
X214009600Y-98732000D01*
G75*
G02*
X214159600Y-98582000I150000J0D01*
G01*
X215909600Y-98582000D01*
G75*
G02*
X216059600Y-98732000I0J-150000D01*
G01*
X216059600Y-99032000D01*
G75*
G02*
X215909600Y-99182000I-150000J0D01*
G01*
X214159600Y-99182000D01*
G75*
G02*
X214009600Y-99032000I0J150000D01*
G01*
G37*
%TD.AperFunction*%
%TO.P,U2,7*%
%TO.N,/BUS1-14*%
%TA.AperFunction,SMDPad,CuDef*%
G36*
G01*
X214009600Y-100302000D02*
X214009600Y-100002000D01*
G75*
G02*
X214159600Y-99852000I150000J0D01*
G01*
X215909600Y-99852000D01*
G75*
G02*
X216059600Y-100002000I0J-150000D01*
G01*
X216059600Y-100302000D01*
G75*
G02*
X215909600Y-100452000I-150000J0D01*
G01*
X214159600Y-100452000D01*
G75*
G02*
X214009600Y-100302000I0J150000D01*
G01*
G37*
%TD.AperFunction*%
%TO.P,U2,6*%
%TO.N,/BUS1-13*%
%TA.AperFunction,SMDPad,CuDef*%
G36*
G01*
X214009600Y-101572000D02*
X214009600Y-101272000D01*
G75*
G02*
X214159600Y-101122000I150000J0D01*
G01*
X215909600Y-101122000D01*
G75*
G02*
X216059600Y-101272000I0J-150000D01*
G01*
X216059600Y-101572000D01*
G75*
G02*
X215909600Y-101722000I-150000J0D01*
G01*
X214159600Y-101722000D01*
G75*
G02*
X214009600Y-101572000I0J150000D01*
G01*
G37*
%TD.AperFunction*%
%TO.P,U2,5*%
%TO.N,/BUS1-12*%
%TA.AperFunction,SMDPad,CuDef*%
G36*
G01*
X214009600Y-102842000D02*
X214009600Y-102542000D01*
G75*
G02*
X214159600Y-102392000I150000J0D01*
G01*
X215909600Y-102392000D01*
G75*
G02*
X216059600Y-102542000I0J-150000D01*
G01*
X216059600Y-102842000D01*
G75*
G02*
X215909600Y-102992000I-150000J0D01*
G01*
X214159600Y-102992000D01*
G75*
G02*
X214009600Y-102842000I0J150000D01*
G01*
G37*
%TD.AperFunction*%
%TO.P,U2,4*%
%TO.N,/BUS1-11*%
%TA.AperFunction,SMDPad,CuDef*%
G36*
G01*
X214009600Y-104112000D02*
X214009600Y-103812000D01*
G75*
G02*
X214159600Y-103662000I150000J0D01*
G01*
X215909600Y-103662000D01*
G75*
G02*
X216059600Y-103812000I0J-150000D01*
G01*
X216059600Y-104112000D01*
G75*
G02*
X215909600Y-104262000I-150000J0D01*
G01*
X214159600Y-104262000D01*
G75*
G02*
X214009600Y-104112000I0J150000D01*
G01*
G37*
%TD.AperFunction*%
%TO.P,U2,3*%
%TO.N,/BUS1-10*%
%TA.AperFunction,SMDPad,CuDef*%
G36*
G01*
X214009600Y-105382000D02*
X214009600Y-105082000D01*
G75*
G02*
X214159600Y-104932000I150000J0D01*
G01*
X215909600Y-104932000D01*
G75*
G02*
X216059600Y-105082000I0J-150000D01*
G01*
X216059600Y-105382000D01*
G75*
G02*
X215909600Y-105532000I-150000J0D01*
G01*
X214159600Y-105532000D01*
G75*
G02*
X214009600Y-105382000I0J150000D01*
G01*
G37*
%TD.AperFunction*%
%TO.P,U2,2*%
%TO.N,/BUS1-9*%
%TA.AperFunction,SMDPad,CuDef*%
G36*
G01*
X214009600Y-106652000D02*
X214009600Y-106352000D01*
G75*
G02*
X214159600Y-106202000I150000J0D01*
G01*
X215909600Y-106202000D01*
G75*
G02*
X216059600Y-106352000I0J-150000D01*
G01*
X216059600Y-106652000D01*
G75*
G02*
X215909600Y-106802000I-150000J0D01*
G01*
X214159600Y-106802000D01*
G75*
G02*
X214009600Y-106652000I0J150000D01*
G01*
G37*
%TD.AperFunction*%
%TO.P,U2,1*%
%TO.N,/BUS1-8*%
%TA.AperFunction,SMDPad,CuDef*%
G36*
G01*
X214009600Y-107922000D02*
X214009600Y-107622000D01*
G75*
G02*
X214159600Y-107472000I150000J0D01*
G01*
X215909600Y-107472000D01*
G75*
G02*
X216059600Y-107622000I0J-150000D01*
G01*
X216059600Y-107922000D01*
G75*
G02*
X215909600Y-108072000I-150000J0D01*
G01*
X214159600Y-108072000D01*
G75*
G02*
X214009600Y-107922000I0J150000D01*
G01*
G37*
%TD.AperFunction*%
%TD*%
%TO.P,U1,28*%
%TO.N,/BUS0-7*%
%TA.AperFunction,SMDPad,CuDef*%
G36*
G01*
X201719600Y-107922000D02*
X201719600Y-107622000D01*
G75*
G02*
X201869600Y-107472000I150000J0D01*
G01*
X203619600Y-107472000D01*
G75*
G02*
X203769600Y-107622000I0J-150000D01*
G01*
X203769600Y-107922000D01*
G75*
G02*
X203619600Y-108072000I-150000J0D01*
G01*
X201869600Y-108072000D01*
G75*
G02*
X201719600Y-107922000I0J150000D01*
G01*
G37*
%TD.AperFunction*%
%TO.P,U1,27*%
%TO.N,/BUS0-6*%
%TA.AperFunction,SMDPad,CuDef*%
G36*
G01*
X201719600Y-106652000D02*
X201719600Y-106352000D01*
G75*
G02*
X201869600Y-106202000I150000J0D01*
G01*
X203619600Y-106202000D01*
G75*
G02*
X203769600Y-106352000I0J-150000D01*
G01*
X203769600Y-106652000D01*
G75*
G02*
X203619600Y-106802000I-150000J0D01*
G01*
X201869600Y-106802000D01*
G75*
G02*
X201719600Y-106652000I0J150000D01*
G01*
G37*
%TD.AperFunction*%
%TO.P,U1,26*%
%TO.N,/BUS0-5*%
%TA.AperFunction,SMDPad,CuDef*%
G36*
G01*
X201719600Y-105382000D02*
X201719600Y-105082000D01*
G75*
G02*
X201869600Y-104932000I150000J0D01*
G01*
X203619600Y-104932000D01*
G75*
G02*
X203769600Y-105082000I0J-150000D01*
G01*
X203769600Y-105382000D01*
G75*
G02*
X203619600Y-105532000I-150000J0D01*
G01*
X201869600Y-105532000D01*
G75*
G02*
X201719600Y-105382000I0J150000D01*
G01*
G37*
%TD.AperFunction*%
%TO.P,U1,25*%
%TO.N,/BUS0-4*%
%TA.AperFunction,SMDPad,CuDef*%
G36*
G01*
X201719600Y-104112000D02*
X201719600Y-103812000D01*
G75*
G02*
X201869600Y-103662000I150000J0D01*
G01*
X203619600Y-103662000D01*
G75*
G02*
X203769600Y-103812000I0J-150000D01*
G01*
X203769600Y-104112000D01*
G75*
G02*
X203619600Y-104262000I-150000J0D01*
G01*
X201869600Y-104262000D01*
G75*
G02*
X201719600Y-104112000I0J150000D01*
G01*
G37*
%TD.AperFunction*%
%TO.P,U1,24*%
%TO.N,/BUS0-3*%
%TA.AperFunction,SMDPad,CuDef*%
G36*
G01*
X201719600Y-102842000D02*
X201719600Y-102542000D01*
G75*
G02*
X201869600Y-102392000I150000J0D01*
G01*
X203619600Y-102392000D01*
G75*
G02*
X203769600Y-102542000I0J-150000D01*
G01*
X203769600Y-102842000D01*
G75*
G02*
X203619600Y-102992000I-150000J0D01*
G01*
X201869600Y-102992000D01*
G75*
G02*
X201719600Y-102842000I0J150000D01*
G01*
G37*
%TD.AperFunction*%
%TO.P,U1,23*%
%TO.N,/BUS0-2*%
%TA.AperFunction,SMDPad,CuDef*%
G36*
G01*
X201719600Y-101572000D02*
X201719600Y-101272000D01*
G75*
G02*
X201869600Y-101122000I150000J0D01*
G01*
X203619600Y-101122000D01*
G75*
G02*
X203769600Y-101272000I0J-150000D01*
G01*
X203769600Y-101572000D01*
G75*
G02*
X203619600Y-101722000I-150000J0D01*
G01*
X201869600Y-101722000D01*
G75*
G02*
X201719600Y-101572000I0J150000D01*
G01*
G37*
%TD.AperFunction*%
%TO.P,U1,22*%
%TO.N,/BUS0-1*%
%TA.AperFunction,SMDPad,CuDef*%
G36*
G01*
X201719600Y-100302000D02*
X201719600Y-100002000D01*
G75*
G02*
X201869600Y-99852000I150000J0D01*
G01*
X203619600Y-99852000D01*
G75*
G02*
X203769600Y-100002000I0J-150000D01*
G01*
X203769600Y-100302000D01*
G75*
G02*
X203619600Y-100452000I-150000J0D01*
G01*
X201869600Y-100452000D01*
G75*
G02*
X201719600Y-100302000I0J150000D01*
G01*
G37*
%TD.AperFunction*%
%TO.P,U1,21*%
%TO.N,/BUS0-0*%
%TA.AperFunction,SMDPad,CuDef*%
G36*
G01*
X201719600Y-99032000D02*
X201719600Y-98732000D01*
G75*
G02*
X201869600Y-98582000I150000J0D01*
G01*
X203619600Y-98582000D01*
G75*
G02*
X203769600Y-98732000I0J-150000D01*
G01*
X203769600Y-99032000D01*
G75*
G02*
X203619600Y-99182000I-150000J0D01*
G01*
X201869600Y-99182000D01*
G75*
G02*
X201719600Y-99032000I0J150000D01*
G01*
G37*
%TD.AperFunction*%
%TO.P,U1,20*%
%TO.N,INT_BUS_0*%
%TA.AperFunction,SMDPad,CuDef*%
G36*
G01*
X201719600Y-97762000D02*
X201719600Y-97462000D01*
G75*
G02*
X201869600Y-97312000I150000J0D01*
G01*
X203619600Y-97312000D01*
G75*
G02*
X203769600Y-97462000I0J-150000D01*
G01*
X203769600Y-97762000D01*
G75*
G02*
X203619600Y-97912000I-150000J0D01*
G01*
X201869600Y-97912000D01*
G75*
G02*
X201719600Y-97762000I0J150000D01*
G01*
G37*
%TD.AperFunction*%
%TO.P,U1,19*%
%TO.N,N/C*%
%TA.AperFunction,SMDPad,CuDef*%
G36*
G01*
X201719600Y-96492000D02*
X201719600Y-96192000D01*
G75*
G02*
X201869600Y-96042000I150000J0D01*
G01*
X203619600Y-96042000D01*
G75*
G02*
X203769600Y-96192000I0J-150000D01*
G01*
X203769600Y-96492000D01*
G75*
G02*
X203619600Y-96642000I-150000J0D01*
G01*
X201869600Y-96642000D01*
G75*
G02*
X201719600Y-96492000I0J150000D01*
G01*
G37*
%TD.AperFunction*%
%TO.P,U1,18*%
%TO.N,BUSES_RESET*%
%TA.AperFunction,SMDPad,CuDef*%
G36*
G01*
X201719600Y-95222000D02*
X201719600Y-94922000D01*
G75*
G02*
X201869600Y-94772000I150000J0D01*
G01*
X203619600Y-94772000D01*
G75*
G02*
X203769600Y-94922000I0J-150000D01*
G01*
X203769600Y-95222000D01*
G75*
G02*
X203619600Y-95372000I-150000J0D01*
G01*
X201869600Y-95372000D01*
G75*
G02*
X201719600Y-95222000I0J150000D01*
G01*
G37*
%TD.AperFunction*%
%TO.P,U1,17*%
%TO.N,GND*%
%TA.AperFunction,SMDPad,CuDef*%
G36*
G01*
X201719600Y-93952000D02*
X201719600Y-93652000D01*
G75*
G02*
X201869600Y-93502000I150000J0D01*
G01*
X203619600Y-93502000D01*
G75*
G02*
X203769600Y-93652000I0J-150000D01*
G01*
X203769600Y-93952000D01*
G75*
G02*
X203619600Y-94102000I-150000J0D01*
G01*
X201869600Y-94102000D01*
G75*
G02*
X201719600Y-93952000I0J150000D01*
G01*
G37*
%TD.AperFunction*%
%TO.P,U1,16*%
%TA.AperFunction,SMDPad,CuDef*%
G36*
G01*
X201719600Y-92682000D02*
X201719600Y-92382000D01*
G75*
G02*
X201869600Y-92232000I150000J0D01*
G01*
X203619600Y-92232000D01*
G75*
G02*
X203769600Y-92382000I0J-150000D01*
G01*
X203769600Y-92682000D01*
G75*
G02*
X203619600Y-92832000I-150000J0D01*
G01*
X201869600Y-92832000D01*
G75*
G02*
X201719600Y-92682000I0J150000D01*
G01*
G37*
%TD.AperFunction*%
%TO.P,U1,15*%
%TA.AperFunction,SMDPad,CuDef*%
G36*
G01*
X201719600Y-91412000D02*
X201719600Y-91112000D01*
G75*
G02*
X201869600Y-90962000I150000J0D01*
G01*
X203619600Y-90962000D01*
G75*
G02*
X203769600Y-91112000I0J-150000D01*
G01*
X203769600Y-91412000D01*
G75*
G02*
X203619600Y-91562000I-150000J0D01*
G01*
X201869600Y-91562000D01*
G75*
G02*
X201719600Y-91412000I0J150000D01*
G01*
G37*
%TD.AperFunction*%
%TO.P,U1,14*%
%TO.N,N/C*%
%TA.AperFunction,SMDPad,CuDef*%
G36*
G01*
X192419600Y-91412000D02*
X192419600Y-91112000D01*
G75*
G02*
X192569600Y-90962000I150000J0D01*
G01*
X194319600Y-90962000D01*
G75*
G02*
X194469600Y-91112000I0J-150000D01*
G01*
X194469600Y-91412000D01*
G75*
G02*
X194319600Y-91562000I-150000J0D01*
G01*
X192569600Y-91562000D01*
G75*
G02*
X192419600Y-91412000I0J150000D01*
G01*
G37*
%TD.AperFunction*%
%TO.P,U1,13*%
%TO.N,SDA*%
%TA.AperFunction,SMDPad,CuDef*%
G36*
G01*
X192419600Y-92682000D02*
X192419600Y-92382000D01*
G75*
G02*
X192569600Y-92232000I150000J0D01*
G01*
X194319600Y-92232000D01*
G75*
G02*
X194469600Y-92382000I0J-150000D01*
G01*
X194469600Y-92682000D01*
G75*
G02*
X194319600Y-92832000I-150000J0D01*
G01*
X192569600Y-92832000D01*
G75*
G02*
X192419600Y-92682000I0J150000D01*
G01*
G37*
%TD.AperFunction*%
%TO.P,U1,12*%
%TO.N,SCL*%
%TA.AperFunction,SMDPad,CuDef*%
G36*
G01*
X192419600Y-93952000D02*
X192419600Y-93652000D01*
G75*
G02*
X192569600Y-93502000I150000J0D01*
G01*
X194319600Y-93502000D01*
G75*
G02*
X194469600Y-93652000I0J-150000D01*
G01*
X194469600Y-93952000D01*
G75*
G02*
X194319600Y-94102000I-150000J0D01*
G01*
X192569600Y-94102000D01*
G75*
G02*
X192419600Y-93952000I0J150000D01*
G01*
G37*
%TD.AperFunction*%
%TO.P,U1,11*%
%TO.N,N/C*%
%TA.AperFunction,SMDPad,CuDef*%
G36*
G01*
X192419600Y-95222000D02*
X192419600Y-94922000D01*
G75*
G02*
X192569600Y-94772000I150000J0D01*
G01*
X194319600Y-94772000D01*
G75*
G02*
X194469600Y-94922000I0J-150000D01*
G01*
X194469600Y-95222000D01*
G75*
G02*
X194319600Y-95372000I-150000J0D01*
G01*
X192569600Y-95372000D01*
G75*
G02*
X192419600Y-95222000I0J150000D01*
G01*
G37*
%TD.AperFunction*%
%TO.P,U1,10*%
%TO.N,GND*%
%TA.AperFunction,SMDPad,CuDef*%
G36*
G01*
X192419600Y-96492000D02*
X192419600Y-96192000D01*
G75*
G02*
X192569600Y-96042000I150000J0D01*
G01*
X194319600Y-96042000D01*
G75*
G02*
X194469600Y-96192000I0J-150000D01*
G01*
X194469600Y-96492000D01*
G75*
G02*
X194319600Y-96642000I-150000J0D01*
G01*
X192569600Y-96642000D01*
G75*
G02*
X192419600Y-96492000I0J150000D01*
G01*
G37*
%TD.AperFunction*%
%TO.P,U1,9*%
%TO.N,+5V*%
%TA.AperFunction,SMDPad,CuDef*%
G36*
G01*
X192419600Y-97762000D02*
X192419600Y-97462000D01*
G75*
G02*
X192569600Y-97312000I150000J0D01*
G01*
X194319600Y-97312000D01*
G75*
G02*
X194469600Y-97462000I0J-150000D01*
G01*
X194469600Y-97762000D01*
G75*
G02*
X194319600Y-97912000I-150000J0D01*
G01*
X192569600Y-97912000D01*
G75*
G02*
X192419600Y-97762000I0J150000D01*
G01*
G37*
%TD.AperFunction*%
%TO.P,U1,8*%
%TO.N,/BUS0-15*%
%TA.AperFunction,SMDPad,CuDef*%
G36*
G01*
X192419600Y-99032000D02*
X192419600Y-98732000D01*
G75*
G02*
X192569600Y-98582000I150000J0D01*
G01*
X194319600Y-98582000D01*
G75*
G02*
X194469600Y-98732000I0J-150000D01*
G01*
X194469600Y-99032000D01*
G75*
G02*
X194319600Y-99182000I-150000J0D01*
G01*
X192569600Y-99182000D01*
G75*
G02*
X192419600Y-99032000I0J150000D01*
G01*
G37*
%TD.AperFunction*%
%TO.P,U1,7*%
%TO.N,/BUS0-14*%
%TA.AperFunction,SMDPad,CuDef*%
G36*
G01*
X192419600Y-100302000D02*
X192419600Y-100002000D01*
G75*
G02*
X192569600Y-99852000I150000J0D01*
G01*
X194319600Y-99852000D01*
G75*
G02*
X194469600Y-100002000I0J-150000D01*
G01*
X194469600Y-100302000D01*
G75*
G02*
X194319600Y-100452000I-150000J0D01*
G01*
X192569600Y-100452000D01*
G75*
G02*
X192419600Y-100302000I0J150000D01*
G01*
G37*
%TD.AperFunction*%
%TO.P,U1,6*%
%TO.N,/BUS0-13*%
%TA.AperFunction,SMDPad,CuDef*%
G36*
G01*
X192419600Y-101572000D02*
X192419600Y-101272000D01*
G75*
G02*
X192569600Y-101122000I150000J0D01*
G01*
X194319600Y-101122000D01*
G75*
G02*
X194469600Y-101272000I0J-150000D01*
G01*
X194469600Y-101572000D01*
G75*
G02*
X194319600Y-101722000I-150000J0D01*
G01*
X192569600Y-101722000D01*
G75*
G02*
X192419600Y-101572000I0J150000D01*
G01*
G37*
%TD.AperFunction*%
%TO.P,U1,5*%
%TO.N,/BUS0-12*%
%TA.AperFunction,SMDPad,CuDef*%
G36*
G01*
X192419600Y-102842000D02*
X192419600Y-102542000D01*
G75*
G02*
X192569600Y-102392000I150000J0D01*
G01*
X194319600Y-102392000D01*
G75*
G02*
X194469600Y-102542000I0J-150000D01*
G01*
X194469600Y-102842000D01*
G75*
G02*
X194319600Y-102992000I-150000J0D01*
G01*
X192569600Y-102992000D01*
G75*
G02*
X192419600Y-102842000I0J150000D01*
G01*
G37*
%TD.AperFunction*%
%TO.P,U1,4*%
%TO.N,/BUS0-11*%
%TA.AperFunction,SMDPad,CuDef*%
G36*
G01*
X192419600Y-104112000D02*
X192419600Y-103812000D01*
G75*
G02*
X192569600Y-103662000I150000J0D01*
G01*
X194319600Y-103662000D01*
G75*
G02*
X194469600Y-103812000I0J-150000D01*
G01*
X194469600Y-104112000D01*
G75*
G02*
X194319600Y-104262000I-150000J0D01*
G01*
X192569600Y-104262000D01*
G75*
G02*
X192419600Y-104112000I0J150000D01*
G01*
G37*
%TD.AperFunction*%
%TO.P,U1,3*%
%TO.N,/BUS0-10*%
%TA.AperFunction,SMDPad,CuDef*%
G36*
G01*
X192419600Y-105382000D02*
X192419600Y-105082000D01*
G75*
G02*
X192569600Y-104932000I150000J0D01*
G01*
X194319600Y-104932000D01*
G75*
G02*
X194469600Y-105082000I0J-150000D01*
G01*
X194469600Y-105382000D01*
G75*
G02*
X194319600Y-105532000I-150000J0D01*
G01*
X192569600Y-105532000D01*
G75*
G02*
X192419600Y-105382000I0J150000D01*
G01*
G37*
%TD.AperFunction*%
%TO.P,U1,2*%
%TO.N,/BUS0-9*%
%TA.AperFunction,SMDPad,CuDef*%
G36*
G01*
X192419600Y-106652000D02*
X192419600Y-106352000D01*
G75*
G02*
X192569600Y-106202000I150000J0D01*
G01*
X194319600Y-106202000D01*
G75*
G02*
X194469600Y-106352000I0J-150000D01*
G01*
X194469600Y-106652000D01*
G75*
G02*
X194319600Y-106802000I-150000J0D01*
G01*
X192569600Y-106802000D01*
G75*
G02*
X192419600Y-106652000I0J150000D01*
G01*
G37*
%TD.AperFunction*%
%TO.P,U1,1*%
%TO.N,/BUS0-8*%
%TA.AperFunction,SMDPad,CuDef*%
G36*
G01*
X192419600Y-107922000D02*
X192419600Y-107622000D01*
G75*
G02*
X192569600Y-107472000I150000J0D01*
G01*
X194319600Y-107472000D01*
G75*
G02*
X194469600Y-107622000I0J-150000D01*
G01*
X194469600Y-107922000D01*
G75*
G02*
X194319600Y-108072000I-150000J0D01*
G01*
X192569600Y-108072000D01*
G75*
G02*
X192419600Y-107922000I0J150000D01*
G01*
G37*
%TD.AperFunction*%
%TD*%
D13*
%TO.P,SW100,1*%
%TO.N,GND*%
X179705000Y-37033200D03*
%TO.P,SW100,2*%
X186205000Y-37033200D03*
%TO.P,SW100,3*%
%TO.N,RESET_SWITCH*%
X179705000Y-32533200D03*
%TO.P,SW100,4*%
X186205000Y-32533200D03*
%TD*%
D10*
%TO.P,SW70,4*%
%TO.N,Net-(R36-Pad1)*%
X192139600Y-192538000D03*
%TO.P,SW70,3*%
%TO.N,+12V*%
X192139600Y-186738000D03*
%TO.P,SW70,2*%
%TO.N,GND*%
X195139600Y-191888000D03*
%TO.P,SW70,*%
%TO.N,*%
X189039600Y-191888000D03*
%TO.P,SW70,1*%
%TO.N,/BUS4-5*%
X195139600Y-187388000D03*
%TO.P,SW70,*%
%TO.N,*%
X189039600Y-187388000D03*
%TD*%
%TO.P,SW69,4*%
%TO.N,Net-(R35-Pad1)*%
X192241600Y-179482000D03*
%TO.P,SW69,3*%
%TO.N,Net-(SW68-Pad4)*%
X192241600Y-173682000D03*
%TO.P,SW69,2*%
%TO.N,GND*%
X195241600Y-178832000D03*
%TO.P,SW69,*%
%TO.N,*%
X189141600Y-178832000D03*
%TO.P,SW69,1*%
%TO.N,/BUS4-4*%
X195241600Y-174332000D03*
%TO.P,SW69,*%
%TO.N,*%
X189141600Y-174332000D03*
%TD*%
%TO.P,SW68,4*%
%TO.N,Net-(SW68-Pad4)*%
X210199600Y-192563000D03*
%TO.P,SW68,3*%
%TO.N,Net-(SW67-Pad4)*%
X210199600Y-186763000D03*
%TO.P,SW68,2*%
%TO.N,GND*%
X213199600Y-191913000D03*
%TO.P,SW68,*%
%TO.N,*%
X207099600Y-191913000D03*
%TO.P,SW68,1*%
%TO.N,/BUS4-3*%
X213199600Y-187413000D03*
%TO.P,SW68,*%
%TO.N,*%
X207099600Y-187413000D03*
%TD*%
%TO.P,SW67,4*%
%TO.N,Net-(SW67-Pad4)*%
X210123600Y-179508000D03*
%TO.P,SW67,3*%
%TO.N,+12V*%
X210123600Y-173708000D03*
%TO.P,SW67,2*%
%TO.N,GND*%
X213123600Y-178858000D03*
%TO.P,SW67,*%
%TO.N,*%
X207023600Y-178858000D03*
%TO.P,SW67,1*%
%TO.N,/BUS4-2*%
X213123600Y-174358000D03*
%TO.P,SW67,*%
%TO.N,*%
X207023600Y-174358000D03*
%TD*%
%TO.P,SW66,4*%
%TO.N,Net-(R34-Pad1)*%
X294222600Y-239757000D03*
%TO.P,SW66,3*%
%TO.N,Net-(SW65-Pad4)*%
X294222600Y-233957000D03*
%TO.P,SW66,2*%
%TO.N,GND*%
X297222600Y-239107000D03*
%TO.P,SW66,*%
%TO.N,*%
X291122600Y-239107000D03*
%TO.P,SW66,1*%
%TO.N,/BUS4-1*%
X297222600Y-234607000D03*
%TO.P,SW66,*%
%TO.N,*%
X291122600Y-234607000D03*
%TD*%
%TO.P,SW65,4*%
%TO.N,Net-(SW65-Pad4)*%
X279185600Y-239757000D03*
%TO.P,SW65,3*%
%TO.N,Net-(SW64-Pad4)*%
X279185600Y-233957000D03*
%TO.P,SW65,2*%
%TO.N,GND*%
X282185600Y-239107000D03*
%TO.P,SW65,*%
%TO.N,*%
X276085600Y-239107000D03*
%TO.P,SW65,1*%
%TO.N,/BUS4-0*%
X282185600Y-234607000D03*
%TO.P,SW65,*%
%TO.N,*%
X276085600Y-234607000D03*
%TD*%
%TO.P,SW64,4*%
%TO.N,Net-(SW64-Pad4)*%
X264174600Y-239782000D03*
%TO.P,SW64,3*%
%TO.N,+12V*%
X264174600Y-233982000D03*
%TO.P,SW64,2*%
%TO.N,GND*%
X267174600Y-239132000D03*
%TO.P,SW64,*%
%TO.N,*%
X261074600Y-239132000D03*
%TO.P,SW64,1*%
%TO.N,/BUS3-15*%
X267174600Y-234632000D03*
%TO.P,SW64,*%
%TO.N,*%
X261074600Y-234632000D03*
%TD*%
%TO.P,SW63,4*%
%TO.N,Net-(R33-Pad1)*%
X249213600Y-239782000D03*
%TO.P,SW63,3*%
%TO.N,Net-(SW62-Pad4)*%
X249213600Y-233982000D03*
%TO.P,SW63,2*%
%TO.N,GND*%
X252213600Y-239132000D03*
%TO.P,SW63,*%
%TO.N,*%
X246113600Y-239132000D03*
%TO.P,SW63,1*%
%TO.N,/BUS3-14*%
X252213600Y-234632000D03*
%TO.P,SW63,*%
%TO.N,*%
X246113600Y-234632000D03*
%TD*%
%TO.P,SW62,4*%
%TO.N,Net-(SW62-Pad4)*%
X234151600Y-239782000D03*
%TO.P,SW62,3*%
%TO.N,Net-(SW61-Pad4)*%
X234151600Y-233982000D03*
%TO.P,SW62,2*%
%TO.N,GND*%
X237151600Y-239132000D03*
%TO.P,SW62,*%
%TO.N,*%
X231051600Y-239132000D03*
%TO.P,SW62,1*%
%TO.N,/BUS3-13*%
X237151600Y-234632000D03*
%TO.P,SW62,*%
%TO.N,*%
X231051600Y-234632000D03*
%TD*%
%TO.P,SW61,4*%
%TO.N,Net-(SW61-Pad4)*%
X294146600Y-225787000D03*
%TO.P,SW61,3*%
%TO.N,+12V*%
X294146600Y-219987000D03*
%TO.P,SW61,2*%
%TO.N,GND*%
X297146600Y-225137000D03*
%TO.P,SW61,*%
%TO.N,*%
X291046600Y-225137000D03*
%TO.P,SW61,1*%
%TO.N,/BUS3-12*%
X297146600Y-220637000D03*
%TO.P,SW61,*%
%TO.N,*%
X291046600Y-220637000D03*
%TD*%
%TO.P,SW60,4*%
%TO.N,Net-(R32-Pad1)*%
X279058600Y-225761000D03*
%TO.P,SW60,3*%
%TO.N,Net-(SW59-Pad4)*%
X279058600Y-219961000D03*
%TO.P,SW60,2*%
%TO.N,GND*%
X282058600Y-225111000D03*
%TO.P,SW60,*%
%TO.N,*%
X275958600Y-225111000D03*
%TO.P,SW60,1*%
%TO.N,/BUS3-11*%
X282058600Y-220611000D03*
%TO.P,SW60,*%
%TO.N,*%
X275958600Y-220611000D03*
%TD*%
%TO.P,SW59,4*%
%TO.N,Net-(SW59-Pad4)*%
X264174600Y-225787000D03*
%TO.P,SW59,3*%
%TO.N,Net-(SW58-Pad4)*%
X264174600Y-219987000D03*
%TO.P,SW59,2*%
%TO.N,GND*%
X267174600Y-225137000D03*
%TO.P,SW59,*%
%TO.N,*%
X261074600Y-225137000D03*
%TO.P,SW59,1*%
%TO.N,/BUS3-10*%
X267174600Y-220637000D03*
%TO.P,SW59,*%
%TO.N,*%
X261074600Y-220637000D03*
%TD*%
%TO.P,SW58,4*%
%TO.N,Net-(SW58-Pad4)*%
X249086600Y-225787000D03*
%TO.P,SW58,3*%
%TO.N,+12V*%
X249086600Y-219987000D03*
%TO.P,SW58,2*%
%TO.N,GND*%
X252086600Y-225137000D03*
%TO.P,SW58,*%
%TO.N,*%
X245986600Y-225137000D03*
%TO.P,SW58,1*%
%TO.N,/BUS3-9*%
X252086600Y-220637000D03*
%TO.P,SW58,*%
%TO.N,*%
X245986600Y-220637000D03*
%TD*%
%TO.P,SW57,4*%
%TO.N,Net-(R31-Pad1)*%
X234049600Y-225761000D03*
%TO.P,SW57,3*%
%TO.N,Net-(SW56-Pad4)*%
X234049600Y-219961000D03*
%TO.P,SW57,2*%
%TO.N,GND*%
X237049600Y-225111000D03*
%TO.P,SW57,*%
%TO.N,*%
X230949600Y-225111000D03*
%TO.P,SW57,1*%
%TO.N,/BUS3-8*%
X237049600Y-220611000D03*
%TO.P,SW57,*%
%TO.N,*%
X230949600Y-220611000D03*
%TD*%
%TO.P,SW56,4*%
%TO.N,Net-(SW56-Pad4)*%
X294247600Y-211766000D03*
%TO.P,SW56,3*%
%TO.N,Net-(SW55-Pad4)*%
X294247600Y-205966000D03*
%TO.P,SW56,2*%
%TO.N,GND*%
X297247600Y-211116000D03*
%TO.P,SW56,*%
%TO.N,*%
X291147600Y-211116000D03*
%TO.P,SW56,1*%
%TO.N,/BUS3-7*%
X297247600Y-206616000D03*
%TO.P,SW56,*%
%TO.N,*%
X291147600Y-206616000D03*
%TD*%
%TO.P,SW55,4*%
%TO.N,Net-(SW55-Pad4)*%
X279033600Y-211740000D03*
%TO.P,SW55,3*%
%TO.N,+12V*%
X279033600Y-205940000D03*
%TO.P,SW55,2*%
%TO.N,GND*%
X282033600Y-211090000D03*
%TO.P,SW55,*%
%TO.N,*%
X275933600Y-211090000D03*
%TO.P,SW55,1*%
%TO.N,/BUS3-6*%
X282033600Y-206590000D03*
%TO.P,SW55,*%
%TO.N,*%
X275933600Y-206590000D03*
%TD*%
%TO.P,SW54,4*%
%TO.N,Net-(R30-Pad1)*%
X264174600Y-211740000D03*
%TO.P,SW54,3*%
%TO.N,Net-(SW53-Pad4)*%
X264174600Y-205940000D03*
%TO.P,SW54,2*%
%TO.N,GND*%
X267174600Y-211090000D03*
%TO.P,SW54,*%
%TO.N,*%
X261074600Y-211090000D03*
%TO.P,SW54,1*%
%TO.N,/BUS3-5*%
X267174600Y-206590000D03*
%TO.P,SW54,*%
%TO.N,*%
X261074600Y-206590000D03*
%TD*%
%TO.P,SW53,4*%
%TO.N,Net-(SW53-Pad4)*%
X249086600Y-211715000D03*
%TO.P,SW53,3*%
%TO.N,Net-(SW52-Pad4)*%
X249086600Y-205915000D03*
%TO.P,SW53,2*%
%TO.N,GND*%
X252086600Y-211065000D03*
%TO.P,SW53,*%
%TO.N,*%
X245986600Y-211065000D03*
%TO.P,SW53,1*%
%TO.N,/BUS3-4*%
X252086600Y-206565000D03*
%TO.P,SW53,*%
%TO.N,*%
X245986600Y-206565000D03*
%TD*%
%TO.P,SW52,4*%
%TO.N,Net-(SW52-Pad4)*%
X233973600Y-211715000D03*
%TO.P,SW52,3*%
%TO.N,+12V*%
X233973600Y-205915000D03*
%TO.P,SW52,2*%
%TO.N,GND*%
X236973600Y-211065000D03*
%TO.P,SW52,*%
%TO.N,*%
X230873600Y-211065000D03*
%TO.P,SW52,1*%
%TO.N,/BUS3-3*%
X236973600Y-206565000D03*
%TO.P,SW52,*%
%TO.N,*%
X230873600Y-206565000D03*
%TD*%
%TO.P,SW51,4*%
%TO.N,Net-(R29-Pad1)*%
X294120600Y-197720000D03*
%TO.P,SW51,3*%
%TO.N,Net-(SW50-Pad4)*%
X294120600Y-191920000D03*
%TO.P,SW51,2*%
%TO.N,GND*%
X297120600Y-197070000D03*
%TO.P,SW51,*%
%TO.N,*%
X291020600Y-197070000D03*
%TO.P,SW51,1*%
%TO.N,/BUS3-2*%
X297120600Y-192570000D03*
%TO.P,SW51,*%
%TO.N,*%
X291020600Y-192570000D03*
%TD*%
%TO.P,SW50,4*%
%TO.N,Net-(SW50-Pad4)*%
X279084600Y-197770000D03*
%TO.P,SW50,3*%
%TO.N,Net-(SW49-Pad4)*%
X279084600Y-191970000D03*
%TO.P,SW50,2*%
%TO.N,GND*%
X282084600Y-197120000D03*
%TO.P,SW50,*%
%TO.N,*%
X275984600Y-197120000D03*
%TO.P,SW50,1*%
%TO.N,/BUS3-1*%
X282084600Y-192620000D03*
%TO.P,SW50,*%
%TO.N,*%
X275984600Y-192620000D03*
%TD*%
%TO.P,SW49,4*%
%TO.N,Net-(SW49-Pad4)*%
X264148600Y-197745000D03*
%TO.P,SW49,3*%
%TO.N,+12V*%
X264148600Y-191945000D03*
%TO.P,SW49,2*%
%TO.N,GND*%
X267148600Y-197095000D03*
%TO.P,SW49,*%
%TO.N,*%
X261048600Y-197095000D03*
%TO.P,SW49,1*%
%TO.N,/BUS3-0*%
X267148600Y-192595000D03*
%TO.P,SW49,*%
%TO.N,*%
X261048600Y-192595000D03*
%TD*%
%TO.P,SW48,4*%
%TO.N,Net-(R28-Pad1)*%
X249188600Y-197745000D03*
%TO.P,SW48,3*%
%TO.N,Net-(SW47-Pad4)*%
X249188600Y-191945000D03*
%TO.P,SW48,2*%
%TO.N,GND*%
X252188600Y-197095000D03*
%TO.P,SW48,*%
%TO.N,*%
X246088600Y-197095000D03*
%TO.P,SW48,1*%
%TO.N,/BUS2-15*%
X252188600Y-192595000D03*
%TO.P,SW48,*%
%TO.N,*%
X246088600Y-192595000D03*
%TD*%
%TO.P,SW47,4*%
%TO.N,Net-(SW47-Pad4)*%
X234075600Y-197745000D03*
%TO.P,SW47,3*%
%TO.N,Net-(SW46-Pad4)*%
X234075600Y-191945000D03*
%TO.P,SW47,2*%
%TO.N,GND*%
X237075600Y-197095000D03*
%TO.P,SW47,*%
%TO.N,*%
X230975600Y-197095000D03*
%TO.P,SW47,1*%
%TO.N,/BUS2-14*%
X237075600Y-192595000D03*
%TO.P,SW47,*%
%TO.N,*%
X230975600Y-192595000D03*
%TD*%
%TO.P,SW46,4*%
%TO.N,Net-(SW46-Pad4)*%
X294120600Y-183750000D03*
%TO.P,SW46,3*%
%TO.N,+12V*%
X294120600Y-177950000D03*
%TO.P,SW46,2*%
%TO.N,GND*%
X297120600Y-183100000D03*
%TO.P,SW46,*%
%TO.N,*%
X291020600Y-183100000D03*
%TO.P,SW46,1*%
%TO.N,/BUS2-13*%
X297120600Y-178600000D03*
%TO.P,SW46,*%
%TO.N,*%
X291020600Y-178600000D03*
%TD*%
%TO.P,SW45,4*%
%TO.N,Net-(R27-Pad1)*%
X279160600Y-183750000D03*
%TO.P,SW45,3*%
%TO.N,Net-(SW44-Pad4)*%
X279160600Y-177950000D03*
%TO.P,SW45,2*%
%TO.N,GND*%
X282160600Y-183100000D03*
%TO.P,SW45,*%
%TO.N,*%
X276060600Y-183100000D03*
%TO.P,SW45,1*%
%TO.N,/BUS2-12*%
X282160600Y-178600000D03*
%TO.P,SW45,*%
%TO.N,*%
X276060600Y-178600000D03*
%TD*%
%TO.P,SW44,4*%
%TO.N,Net-(SW44-Pad4)*%
X264225600Y-183750000D03*
%TO.P,SW44,3*%
%TO.N,Net-(SW43-Pad4)*%
X264225600Y-177950000D03*
%TO.P,SW44,2*%
%TO.N,GND*%
X267225600Y-183100000D03*
%TO.P,SW44,*%
%TO.N,*%
X261125600Y-183100000D03*
%TO.P,SW44,1*%
%TO.N,/BUS2-11*%
X267225600Y-178600000D03*
%TO.P,SW44,*%
%TO.N,*%
X261125600Y-178600000D03*
%TD*%
%TO.P,SW43,4*%
%TO.N,Net-(SW43-Pad4)*%
X249188600Y-183775000D03*
%TO.P,SW43,3*%
%TO.N,+12V*%
X249188600Y-177975000D03*
%TO.P,SW43,2*%
%TO.N,GND*%
X252188600Y-183125000D03*
%TO.P,SW43,*%
%TO.N,*%
X246088600Y-183125000D03*
%TO.P,SW43,1*%
%TO.N,/BUS2-10*%
X252188600Y-178625000D03*
%TO.P,SW43,*%
%TO.N,*%
X246088600Y-178625000D03*
%TD*%
%TO.P,SW42,4*%
%TO.N,Net-(R26-Pad1)*%
X234049600Y-183775000D03*
%TO.P,SW42,3*%
%TO.N,Net-(SW41-Pad4)*%
X234049600Y-177975000D03*
%TO.P,SW42,2*%
%TO.N,GND*%
X237049600Y-183125000D03*
%TO.P,SW42,*%
%TO.N,*%
X230949600Y-183125000D03*
%TO.P,SW42,1*%
%TO.N,/BUS2-9*%
X237049600Y-178625000D03*
%TO.P,SW42,*%
%TO.N,*%
X230949600Y-178625000D03*
%TD*%
%TO.P,SW41,4*%
%TO.N,Net-(SW41-Pad4)*%
X294146600Y-169780000D03*
%TO.P,SW41,3*%
%TO.N,Net-(SW40-Pad4)*%
X294146600Y-163980000D03*
%TO.P,SW41,2*%
%TO.N,GND*%
X297146600Y-169130000D03*
%TO.P,SW41,*%
%TO.N,*%
X291046600Y-169130000D03*
%TO.P,SW41,1*%
%TO.N,/BUS2-8*%
X297146600Y-164630000D03*
%TO.P,SW41,*%
%TO.N,*%
X291046600Y-164630000D03*
%TD*%
%TO.P,SW40,4*%
%TO.N,Net-(SW40-Pad4)*%
X279185600Y-169780000D03*
%TO.P,SW40,3*%
%TO.N,+12V*%
X279185600Y-163980000D03*
%TO.P,SW40,2*%
%TO.N,GND*%
X282185600Y-169130000D03*
%TO.P,SW40,*%
%TO.N,*%
X276085600Y-169130000D03*
%TO.P,SW40,1*%
%TO.N,/BUS2-7*%
X282185600Y-164630000D03*
%TO.P,SW40,*%
%TO.N,*%
X276085600Y-164630000D03*
%TD*%
%TO.P,SW39,4*%
%TO.N,Net-(R25-Pad1)*%
X264225600Y-169754000D03*
%TO.P,SW39,3*%
%TO.N,Net-(SW38-Pad4)*%
X264225600Y-163954000D03*
%TO.P,SW39,2*%
%TO.N,GND*%
X267225600Y-169104000D03*
%TO.P,SW39,*%
%TO.N,*%
X261125600Y-169104000D03*
%TO.P,SW39,1*%
%TO.N,/BUS2-6*%
X267225600Y-164604000D03*
%TO.P,SW39,*%
%TO.N,*%
X261125600Y-164604000D03*
%TD*%
%TO.P,SW38,4*%
%TO.N,Net-(SW38-Pad4)*%
X249137600Y-169754000D03*
%TO.P,SW38,3*%
%TO.N,Net-(SW37-Pad4)*%
X249137600Y-163954000D03*
%TO.P,SW38,2*%
%TO.N,GND*%
X252137600Y-169104000D03*
%TO.P,SW38,*%
%TO.N,*%
X246037600Y-169104000D03*
%TO.P,SW38,1*%
%TO.N,/BUS2-5*%
X252137600Y-164604000D03*
%TO.P,SW38,*%
%TO.N,*%
X246037600Y-164604000D03*
%TD*%
%TO.P,SW37,4*%
%TO.N,Net-(SW37-Pad4)*%
X234126600Y-169729000D03*
%TO.P,SW37,3*%
%TO.N,+12V*%
X234126600Y-163929000D03*
%TO.P,SW37,2*%
%TO.N,GND*%
X237126600Y-169079000D03*
%TO.P,SW37,*%
%TO.N,*%
X231026600Y-169079000D03*
%TO.P,SW37,1*%
%TO.N,/BUS2-4*%
X237126600Y-164579000D03*
%TO.P,SW37,*%
%TO.N,*%
X231026600Y-164579000D03*
%TD*%
%TO.P,SW36,4*%
%TO.N,Net-(R24-Pad1)*%
X218098600Y-240696000D03*
%TO.P,SW36,3*%
%TO.N,Net-(SW35-Pad4)*%
X218098600Y-234896000D03*
%TO.P,SW36,2*%
%TO.N,GND*%
X221098600Y-240046000D03*
%TO.P,SW36,*%
%TO.N,*%
X214998600Y-240046000D03*
%TO.P,SW36,1*%
%TO.N,/BUS2-3*%
X221098600Y-235546000D03*
%TO.P,SW36,*%
%TO.N,*%
X214998600Y-235546000D03*
%TD*%
%TO.P,SW35,4*%
%TO.N,Net-(SW35-Pad4)*%
X203072600Y-240750000D03*
%TO.P,SW35,3*%
%TO.N,Net-(SW34-Pad4)*%
X203072600Y-234950000D03*
%TO.P,SW35,2*%
%TO.N,GND*%
X206072600Y-240100000D03*
%TO.P,SW35,*%
%TO.N,*%
X199972600Y-240100000D03*
%TO.P,SW35,1*%
%TO.N,/BUS2-2*%
X206072600Y-235600000D03*
%TO.P,SW35,*%
%TO.N,*%
X199972600Y-235600000D03*
%TD*%
%TO.P,SW34,4*%
%TO.N,Net-(SW34-Pad4)*%
X188112600Y-240750000D03*
%TO.P,SW34,3*%
%TO.N,+12V*%
X188112600Y-234950000D03*
%TO.P,SW34,2*%
%TO.N,GND*%
X191112600Y-240100000D03*
%TO.P,SW34,*%
%TO.N,*%
X185012600Y-240100000D03*
%TO.P,SW34,1*%
%TO.N,/BUS2-1*%
X191112600Y-235600000D03*
%TO.P,SW34,*%
%TO.N,*%
X185012600Y-235600000D03*
%TD*%
%TO.P,SW33,4*%
%TO.N,Net-(R23-Pad1)*%
X218098600Y-228784000D03*
%TO.P,SW33,3*%
%TO.N,Net-(SW32-Pad4)*%
X218098600Y-222984000D03*
%TO.P,SW33,2*%
%TO.N,GND*%
X221098600Y-228134000D03*
%TO.P,SW33,*%
%TO.N,*%
X214998600Y-228134000D03*
%TO.P,SW33,1*%
%TO.N,/BUS2-0*%
X221098600Y-223634000D03*
%TO.P,SW33,*%
%TO.N,*%
X214998600Y-223634000D03*
%TD*%
%TO.P,SW32,4*%
%TO.N,Net-(SW32-Pad4)*%
X203061600Y-228758000D03*
%TO.P,SW32,3*%
%TO.N,Net-(SW31-Pad4)*%
X203061600Y-222958000D03*
%TO.P,SW32,2*%
%TO.N,GND*%
X206061600Y-228108000D03*
%TO.P,SW32,*%
%TO.N,*%
X199961600Y-228108000D03*
%TO.P,SW32,1*%
%TO.N,/BUS1-15*%
X206061600Y-223608000D03*
%TO.P,SW32,*%
%TO.N,*%
X199961600Y-223608000D03*
%TD*%
%TO.P,SW31,4*%
%TO.N,Net-(SW31-Pad4)*%
X188126600Y-228733000D03*
%TO.P,SW31,3*%
%TO.N,+12V*%
X188126600Y-222933000D03*
%TO.P,SW31,2*%
%TO.N,GND*%
X191126600Y-228083000D03*
%TO.P,SW31,*%
%TO.N,*%
X185026600Y-228083000D03*
%TO.P,SW31,1*%
%TO.N,/BUS1-14*%
X191126600Y-223583000D03*
%TO.P,SW31,*%
%TO.N,*%
X185026600Y-223583000D03*
%TD*%
%TO.P,SW30,4*%
%TO.N,Net-(R22-Pad1)*%
X218124600Y-216744000D03*
%TO.P,SW30,3*%
%TO.N,Net-(SW29-Pad4)*%
X218124600Y-210944000D03*
%TO.P,SW30,2*%
%TO.N,GND*%
X221124600Y-216094000D03*
%TO.P,SW30,*%
%TO.N,*%
X215024600Y-216094000D03*
%TO.P,SW30,1*%
%TO.N,/BUS1-13*%
X221124600Y-211594000D03*
%TO.P,SW30,*%
%TO.N,*%
X215024600Y-211594000D03*
%TD*%
%TO.P,SW29,4*%
%TO.N,Net-(SW29-Pad4)*%
X203061600Y-216744000D03*
%TO.P,SW29,3*%
%TO.N,Net-(SW28-Pad4)*%
X203061600Y-210944000D03*
%TO.P,SW29,2*%
%TO.N,GND*%
X206061600Y-216094000D03*
%TO.P,SW29,*%
%TO.N,*%
X199961600Y-216094000D03*
%TO.P,SW29,1*%
%TO.N,/BUS1-12*%
X206061600Y-211594000D03*
%TO.P,SW29,*%
%TO.N,*%
X199961600Y-211594000D03*
%TD*%
%TO.P,SW28,4*%
%TO.N,Net-(SW28-Pad4)*%
X188126600Y-216719000D03*
%TO.P,SW28,3*%
%TO.N,+12V*%
X188126600Y-210919000D03*
%TO.P,SW28,2*%
%TO.N,GND*%
X191126600Y-216069000D03*
%TO.P,SW28,*%
%TO.N,*%
X185026600Y-216069000D03*
%TO.P,SW28,1*%
%TO.N,/BUS1-11*%
X191126600Y-211569000D03*
%TO.P,SW28,*%
%TO.N,*%
X185026600Y-211569000D03*
%TD*%
%TO.P,SW27,4*%
%TO.N,Net-(R21-Pad1)*%
X218073600Y-204730000D03*
%TO.P,SW27,3*%
%TO.N,Net-(SW26-Pad4)*%
X218073600Y-198930000D03*
%TO.P,SW27,2*%
%TO.N,GND*%
X221073600Y-204080000D03*
%TO.P,SW27,*%
%TO.N,*%
X214973600Y-204080000D03*
%TO.P,SW27,1*%
%TO.N,/BUS1-10*%
X221073600Y-199580000D03*
%TO.P,SW27,*%
%TO.N,*%
X214973600Y-199580000D03*
%TD*%
%TO.P,SW26,4*%
%TO.N,Net-(SW26-Pad4)*%
X203112600Y-204755000D03*
%TO.P,SW26,3*%
%TO.N,Net-(SW25-Pad4)*%
X203112600Y-198955000D03*
%TO.P,SW26,2*%
%TO.N,GND*%
X206112600Y-204105000D03*
%TO.P,SW26,*%
%TO.N,*%
X200012600Y-204105000D03*
%TO.P,SW26,1*%
%TO.N,/BUS1-9*%
X206112600Y-199605000D03*
%TO.P,SW26,*%
%TO.N,*%
X200012600Y-199605000D03*
%TD*%
%TO.P,SW24,4*%
%TO.N,Net-(R20-Pad1)*%
X192165600Y-166478000D03*
%TO.P,SW24,3*%
%TO.N,Net-(SW23-Pad4)*%
X192165600Y-160678000D03*
%TO.P,SW24,2*%
%TO.N,GND*%
X195165600Y-165828000D03*
%TO.P,SW24,*%
%TO.N,*%
X189065600Y-165828000D03*
%TO.P,SW24,1*%
%TO.N,/BUS1-7*%
X195165600Y-161328000D03*
%TO.P,SW24,*%
%TO.N,*%
X189065600Y-161328000D03*
%TD*%
%TO.P,SW23,4*%
%TO.N,Net-(SW23-Pad4)*%
X282309600Y-153574000D03*
%TO.P,SW23,3*%
%TO.N,Net-(SW22-Pad4)*%
X282309600Y-147774000D03*
%TO.P,SW23,2*%
%TO.N,GND*%
X285309600Y-152924000D03*
%TO.P,SW23,*%
%TO.N,*%
X279209600Y-152924000D03*
%TO.P,SW23,1*%
%TO.N,/BUS1-6*%
X285309600Y-148424000D03*
%TO.P,SW23,*%
%TO.N,*%
X279209600Y-148424000D03*
%TD*%
%TO.P,SW22,4*%
%TO.N,Net-(SW22-Pad4)*%
X264174600Y-153574000D03*
%TO.P,SW22,3*%
%TO.N,+12V*%
X264174600Y-147774000D03*
%TO.P,SW22,2*%
%TO.N,GND*%
X267174600Y-152924000D03*
%TO.P,SW22,*%
%TO.N,*%
X261074600Y-152924000D03*
%TO.P,SW22,1*%
%TO.N,/BUS1-5*%
X267174600Y-148424000D03*
%TO.P,SW22,*%
%TO.N,*%
X261074600Y-148424000D03*
%TD*%
%TO.P,SW21,4*%
%TO.N,Net-(R19-Pad1)*%
X246292600Y-153574000D03*
%TO.P,SW21,3*%
%TO.N,Net-(SW20-Pad4)*%
X246292600Y-147774000D03*
%TO.P,SW21,2*%
%TO.N,GND*%
X249292600Y-152924000D03*
%TO.P,SW21,*%
%TO.N,*%
X243192600Y-152924000D03*
%TO.P,SW21,1*%
%TO.N,/BUS1-4*%
X249292600Y-148424000D03*
%TO.P,SW21,*%
%TO.N,*%
X243192600Y-148424000D03*
%TD*%
%TO.P,SW20,4*%
%TO.N,Net-(SW20-Pad4)*%
X228309600Y-153574000D03*
%TO.P,SW20,3*%
%TO.N,Net-(SW19-Pad4)*%
X228309600Y-147774000D03*
%TO.P,SW20,2*%
%TO.N,GND*%
X231309600Y-152924000D03*
%TO.P,SW20,*%
%TO.N,*%
X225209600Y-152924000D03*
%TO.P,SW20,1*%
%TO.N,/BUS1-3*%
X231309600Y-148424000D03*
%TO.P,SW20,*%
%TO.N,*%
X225209600Y-148424000D03*
%TD*%
%TO.P,SW19,4*%
%TO.N,Net-(SW19-Pad4)*%
X210275600Y-153549000D03*
%TO.P,SW19,3*%
%TO.N,+12V*%
X210275600Y-147749000D03*
%TO.P,SW19,2*%
%TO.N,GND*%
X213275600Y-152899000D03*
%TO.P,SW19,*%
%TO.N,*%
X207175600Y-152899000D03*
%TO.P,SW19,1*%
%TO.N,/BUS1-2*%
X213275600Y-148399000D03*
%TO.P,SW19,*%
%TO.N,*%
X207175600Y-148399000D03*
%TD*%
%TO.P,SW18,4*%
%TO.N,Net-(R18-Pad1)*%
X192190600Y-153549000D03*
%TO.P,SW18,3*%
%TO.N,Net-(SW17-Pad4)*%
X192190600Y-147749000D03*
%TO.P,SW18,2*%
%TO.N,GND*%
X195190600Y-152899000D03*
%TO.P,SW18,*%
%TO.N,*%
X189090600Y-152899000D03*
%TO.P,SW18,1*%
%TO.N,/BUS1-1*%
X195190600Y-148399000D03*
%TO.P,SW18,*%
%TO.N,*%
X189090600Y-148399000D03*
%TD*%
%TO.P,SW16,4*%
%TO.N,Net-(SW16-Pad4)*%
X246267600Y-140595000D03*
%TO.P,SW16,3*%
%TO.N,+12V*%
X246267600Y-134795000D03*
%TO.P,SW16,2*%
%TO.N,GND*%
X249267600Y-139945000D03*
%TO.P,SW16,*%
%TO.N,*%
X243167600Y-139945000D03*
%TO.P,SW16,1*%
%TO.N,/BUS0-15*%
X249267600Y-135445000D03*
%TO.P,SW16,*%
%TO.N,*%
X243167600Y-135445000D03*
%TD*%
%TO.P,SW15,4*%
%TO.N,Net-(R17-Pad1)*%
X228309600Y-140620000D03*
%TO.P,SW15,3*%
%TO.N,Net-(SW14-Pad4)*%
X228309600Y-134820000D03*
%TO.P,SW15,2*%
%TO.N,GND*%
X231309600Y-139970000D03*
%TO.P,SW15,*%
%TO.N,*%
X225209600Y-139970000D03*
%TO.P,SW15,1*%
%TO.N,/BUS0-14*%
X231309600Y-135470000D03*
%TO.P,SW15,*%
%TO.N,*%
X225209600Y-135470000D03*
%TD*%
%TO.P,SW14,4*%
%TO.N,Net-(SW14-Pad4)*%
X210199600Y-140620000D03*
%TO.P,SW14,3*%
%TO.N,Net-(SW13-Pad4)*%
X210199600Y-134820000D03*
%TO.P,SW14,2*%
%TO.N,GND*%
X213199600Y-139970000D03*
%TO.P,SW14,*%
%TO.N,*%
X207099600Y-139970000D03*
%TO.P,SW14,1*%
%TO.N,/BUS0-13*%
X213199600Y-135470000D03*
%TO.P,SW14,*%
%TO.N,*%
X207099600Y-135470000D03*
%TD*%
%TO.P,SW13,4*%
%TO.N,Net-(SW13-Pad4)*%
X192114600Y-140620000D03*
%TO.P,SW13,3*%
%TO.N,+12V*%
X192114600Y-134820000D03*
%TO.P,SW13,2*%
%TO.N,GND*%
X195114600Y-139970000D03*
%TO.P,SW13,*%
%TO.N,*%
X189014600Y-139970000D03*
%TO.P,SW13,1*%
%TO.N,/BUS0-12*%
X195114600Y-135470000D03*
%TO.P,SW13,*%
%TO.N,*%
X189014600Y-135470000D03*
%TD*%
%TO.P,SW12,4*%
%TO.N,Net-(R16-Pad1)*%
X308141800Y-114153600D03*
%TO.P,SW12,3*%
%TO.N,Net-(SW11-Pad4)*%
X308141800Y-108353600D03*
%TO.P,SW12,2*%
%TO.N,GND*%
X311141800Y-113503600D03*
%TO.P,SW12,*%
%TO.N,*%
X305041800Y-113503600D03*
%TO.P,SW12,1*%
%TO.N,/BUS0-11*%
X311141800Y-109003600D03*
%TO.P,SW12,*%
%TO.N,*%
X305041800Y-109003600D03*
%TD*%
%TO.P,SW11,4*%
%TO.N,Net-(SW11-Pad4)*%
X308294200Y-103688800D03*
%TO.P,SW11,3*%
%TO.N,Net-(SW10-Pad4)*%
X308294200Y-97888800D03*
%TO.P,SW11,2*%
%TO.N,GND*%
X311294200Y-103038800D03*
%TO.P,SW11,*%
%TO.N,*%
X305194200Y-103038800D03*
%TO.P,SW11,1*%
%TO.N,/BUS0-10*%
X311294200Y-98538800D03*
%TO.P,SW11,*%
%TO.N,*%
X305194200Y-98538800D03*
%TD*%
%TO.P,SW10,4*%
%TO.N,Net-(SW10-Pad4)*%
X308141800Y-93173200D03*
%TO.P,SW10,3*%
%TO.N,+12V*%
X308141800Y-87373200D03*
%TO.P,SW10,2*%
%TO.N,GND*%
X311141800Y-92523200D03*
%TO.P,SW10,*%
%TO.N,*%
X305041800Y-92523200D03*
%TO.P,SW10,1*%
%TO.N,/BUS0-9*%
X311141800Y-88023200D03*
%TO.P,SW10,*%
%TO.N,*%
X305041800Y-88023200D03*
%TD*%
%TO.P,SW9,4*%
%TO.N,Net-(R15-Pad1)*%
X308157040Y-82657600D03*
%TO.P,SW9,3*%
%TO.N,Net-(SW8-Pad4)*%
X308157040Y-76857600D03*
%TO.P,SW9,2*%
%TO.N,GND*%
X311157040Y-82007600D03*
%TO.P,SW9,*%
%TO.N,*%
X305057040Y-82007600D03*
%TO.P,SW9,1*%
%TO.N,/BUS0-8*%
X311157040Y-77507600D03*
%TO.P,SW9,*%
%TO.N,*%
X305057040Y-77507600D03*
%TD*%
%TO.P,SW8,4*%
%TO.N,Net-(SW8-Pad4)*%
X308192600Y-72142000D03*
%TO.P,SW8,3*%
%TO.N,Net-(SW7-Pad4)*%
X308192600Y-66342000D03*
%TO.P,SW8,2*%
%TO.N,GND*%
X311192600Y-71492000D03*
%TO.P,SW8,*%
%TO.N,*%
X305092600Y-71492000D03*
%TO.P,SW8,1*%
%TO.N,/BUS0-7*%
X311192600Y-66992000D03*
%TO.P,SW8,*%
%TO.N,*%
X305092600Y-66992000D03*
%TD*%
%TO.P,SW7,4*%
%TO.N,Net-(SW7-Pad4)*%
X308192600Y-61677200D03*
%TO.P,SW7,3*%
%TO.N,+12V*%
X308192600Y-55877200D03*
%TO.P,SW7,2*%
%TO.N,GND*%
X311192600Y-61027200D03*
%TO.P,SW7,*%
%TO.N,*%
X305092600Y-61027200D03*
%TO.P,SW7,1*%
%TO.N,/BUS0-6*%
X311192600Y-56527200D03*
%TO.P,SW7,*%
%TO.N,*%
X305092600Y-56527200D03*
%TD*%
%TO.P,SW6,4*%
%TO.N,Net-(R14-Pad1)*%
X176011000Y-114153600D03*
%TO.P,SW6,3*%
%TO.N,Net-(SW5-Pad4)*%
X176011000Y-108353600D03*
%TO.P,SW6,2*%
%TO.N,GND*%
X179011000Y-113503600D03*
%TO.P,SW6,*%
%TO.N,*%
X172911000Y-113503600D03*
%TO.P,SW6,1*%
%TO.N,/BUS0-5*%
X179011000Y-109003600D03*
%TO.P,SW6,*%
%TO.N,*%
X172911000Y-109003600D03*
%TD*%
%TO.P,SW5,4*%
%TO.N,Net-(SW5-Pad4)*%
X176000840Y-103688800D03*
%TO.P,SW5,3*%
%TO.N,Net-(SW4-Pad4)*%
X176000840Y-97888800D03*
%TO.P,SW5,2*%
%TO.N,GND*%
X179000840Y-103038800D03*
%TO.P,SW5,*%
%TO.N,*%
X172900840Y-103038800D03*
%TO.P,SW5,1*%
%TO.N,/BUS0-4*%
X179000840Y-98538800D03*
%TO.P,SW5,*%
%TO.N,*%
X172900840Y-98538800D03*
%TD*%
%TO.P,SW4,4*%
%TO.N,Net-(SW4-Pad4)*%
X176061800Y-93173200D03*
%TO.P,SW4,3*%
%TO.N,+12V*%
X176061800Y-87373200D03*
%TO.P,SW4,2*%
%TO.N,GND*%
X179061800Y-92523200D03*
%TO.P,SW4,*%
%TO.N,*%
X172961800Y-92523200D03*
%TO.P,SW4,1*%
%TO.N,/BUS0-3*%
X179061800Y-88023200D03*
%TO.P,SW4,*%
%TO.N,*%
X172961800Y-88023200D03*
%TD*%
%TO.P,SW2,4*%
%TO.N,Net-(SW2-Pad4)*%
X176112600Y-72142000D03*
%TO.P,SW2,3*%
%TO.N,Net-(SW1-Pad4)*%
X176112600Y-66342000D03*
%TO.P,SW2,2*%
%TO.N,GND*%
X179112600Y-71492000D03*
%TO.P,SW2,*%
%TO.N,*%
X173012600Y-71492000D03*
%TO.P,SW2,1*%
%TO.N,/BUS0-1*%
X179112600Y-66992000D03*
%TO.P,SW2,*%
%TO.N,*%
X173012600Y-66992000D03*
%TD*%
%TO.P,SW1,4*%
%TO.N,Net-(SW1-Pad4)*%
X176011000Y-61626400D03*
%TO.P,SW1,3*%
%TO.N,+12V*%
X176011000Y-55826400D03*
%TO.P,SW1,2*%
%TO.N,GND*%
X179011000Y-60976400D03*
%TO.P,SW1,*%
%TO.N,*%
X172911000Y-60976400D03*
%TO.P,SW1,1*%
%TO.N,/BUS0-0*%
X179011000Y-56476400D03*
%TO.P,SW1,*%
%TO.N,*%
X172911000Y-56476400D03*
%TD*%
%TO.P,R43,2*%
%TO.N,GND*%
%TA.AperFunction,SMDPad,CuDef*%
G36*
G01*
X180514600Y-206208000D02*
X181764600Y-206208000D01*
G75*
G02*
X182014600Y-206458000I0J-250000D01*
G01*
X182014600Y-207258000D01*
G75*
G02*
X181764600Y-207508000I-250000J0D01*
G01*
X180514600Y-207508000D01*
G75*
G02*
X180264600Y-207258000I0J250000D01*
G01*
X180264600Y-206458000D01*
G75*
G02*
X180514600Y-206208000I250000J0D01*
G01*
G37*
%TD.AperFunction*%
%TO.P,R43,1*%
%TO.N,Net-(D11-Pad1)*%
%TA.AperFunction,SMDPad,CuDef*%
G36*
G01*
X180514600Y-203108000D02*
X181764600Y-203108000D01*
G75*
G02*
X182014600Y-203358000I0J-250000D01*
G01*
X182014600Y-204158000D01*
G75*
G02*
X181764600Y-204408000I-250000J0D01*
G01*
X180514600Y-204408000D01*
G75*
G02*
X180264600Y-204158000I0J250000D01*
G01*
X180264600Y-203358000D01*
G75*
G02*
X180514600Y-203108000I250000J0D01*
G01*
G37*
%TD.AperFunction*%
%TD*%
%TO.P,R42,2*%
%TO.N,GND*%
%TA.AperFunction,SMDPad,CuDef*%
G36*
G01*
X301271600Y-188427000D02*
X301271600Y-189677000D01*
G75*
G02*
X301021600Y-189927000I-250000J0D01*
G01*
X300221600Y-189927000D01*
G75*
G02*
X299971600Y-189677000I0J250000D01*
G01*
X299971600Y-188427000D01*
G75*
G02*
X300221600Y-188177000I250000J0D01*
G01*
X301021600Y-188177000D01*
G75*
G02*
X301271600Y-188427000I0J-250000D01*
G01*
G37*
%TD.AperFunction*%
%TO.P,R42,1*%
%TO.N,Net-(D10-Pad1)*%
%TA.AperFunction,SMDPad,CuDef*%
G36*
G01*
X304371600Y-188427000D02*
X304371600Y-189677000D01*
G75*
G02*
X304121600Y-189927000I-250000J0D01*
G01*
X303321600Y-189927000D01*
G75*
G02*
X303071600Y-189677000I0J250000D01*
G01*
X303071600Y-188427000D01*
G75*
G02*
X303321600Y-188177000I250000J0D01*
G01*
X304121600Y-188177000D01*
G75*
G02*
X304371600Y-188427000I0J-250000D01*
G01*
G37*
%TD.AperFunction*%
%TD*%
%TO.P,R41,2*%
%TO.N,GND*%
%TA.AperFunction,SMDPad,CuDef*%
G36*
G01*
X180578600Y-188238000D02*
X181828600Y-188238000D01*
G75*
G02*
X182078600Y-188488000I0J-250000D01*
G01*
X182078600Y-189288000D01*
G75*
G02*
X181828600Y-189538000I-250000J0D01*
G01*
X180578600Y-189538000D01*
G75*
G02*
X180328600Y-189288000I0J250000D01*
G01*
X180328600Y-188488000D01*
G75*
G02*
X180578600Y-188238000I250000J0D01*
G01*
G37*
%TD.AperFunction*%
%TO.P,R41,1*%
%TO.N,Net-(D9-Pad1)*%
%TA.AperFunction,SMDPad,CuDef*%
G36*
G01*
X180578600Y-185138000D02*
X181828600Y-185138000D01*
G75*
G02*
X182078600Y-185388000I0J-250000D01*
G01*
X182078600Y-186188000D01*
G75*
G02*
X181828600Y-186438000I-250000J0D01*
G01*
X180578600Y-186438000D01*
G75*
G02*
X180328600Y-186188000I0J250000D01*
G01*
X180328600Y-185388000D01*
G75*
G02*
X180578600Y-185138000I250000J0D01*
G01*
G37*
%TD.AperFunction*%
%TD*%
%TO.P,R40,2*%
%TO.N,GND*%
%TA.AperFunction,SMDPad,CuDef*%
G36*
G01*
X242873600Y-34483200D02*
X242873600Y-33233200D01*
G75*
G02*
X243123600Y-32983200I250000J0D01*
G01*
X243923600Y-32983200D01*
G75*
G02*
X244173600Y-33233200I0J-250000D01*
G01*
X244173600Y-34483200D01*
G75*
G02*
X243923600Y-34733200I-250000J0D01*
G01*
X243123600Y-34733200D01*
G75*
G02*
X242873600Y-34483200I0J250000D01*
G01*
G37*
%TD.AperFunction*%
%TO.P,R40,1*%
%TO.N,Net-(D8-Pad1)*%
%TA.AperFunction,SMDPad,CuDef*%
G36*
G01*
X239773600Y-34483200D02*
X239773600Y-33233200D01*
G75*
G02*
X240023600Y-32983200I250000J0D01*
G01*
X240823600Y-32983200D01*
G75*
G02*
X241073600Y-33233200I0J-250000D01*
G01*
X241073600Y-34483200D01*
G75*
G02*
X240823600Y-34733200I-250000J0D01*
G01*
X240023600Y-34733200D01*
G75*
G02*
X239773600Y-34483200I0J250000D01*
G01*
G37*
%TD.AperFunction*%
%TD*%
%TO.P,R39,2*%
%TO.N,GND*%
%TA.AperFunction,SMDPad,CuDef*%
G36*
G01*
X228077600Y-34483200D02*
X228077600Y-33233200D01*
G75*
G02*
X228327600Y-32983200I250000J0D01*
G01*
X229127600Y-32983200D01*
G75*
G02*
X229377600Y-33233200I0J-250000D01*
G01*
X229377600Y-34483200D01*
G75*
G02*
X229127600Y-34733200I-250000J0D01*
G01*
X228327600Y-34733200D01*
G75*
G02*
X228077600Y-34483200I0J250000D01*
G01*
G37*
%TD.AperFunction*%
%TO.P,R39,1*%
%TO.N,Net-(D7-Pad1)*%
%TA.AperFunction,SMDPad,CuDef*%
G36*
G01*
X224977600Y-34483200D02*
X224977600Y-33233200D01*
G75*
G02*
X225227600Y-32983200I250000J0D01*
G01*
X226027600Y-32983200D01*
G75*
G02*
X226277600Y-33233200I0J-250000D01*
G01*
X226277600Y-34483200D01*
G75*
G02*
X226027600Y-34733200I-250000J0D01*
G01*
X225227600Y-34733200D01*
G75*
G02*
X224977600Y-34483200I0J250000D01*
G01*
G37*
%TD.AperFunction*%
%TD*%
%TO.P,R38,2*%
%TO.N,GND*%
%TA.AperFunction,SMDPad,CuDef*%
G36*
G01*
X272971600Y-34483200D02*
X272971600Y-33233200D01*
G75*
G02*
X273221600Y-32983200I250000J0D01*
G01*
X274021600Y-32983200D01*
G75*
G02*
X274271600Y-33233200I0J-250000D01*
G01*
X274271600Y-34483200D01*
G75*
G02*
X274021600Y-34733200I-250000J0D01*
G01*
X273221600Y-34733200D01*
G75*
G02*
X272971600Y-34483200I0J250000D01*
G01*
G37*
%TD.AperFunction*%
%TO.P,R38,1*%
%TO.N,Net-(D6-Pad1)*%
%TA.AperFunction,SMDPad,CuDef*%
G36*
G01*
X269871600Y-34483200D02*
X269871600Y-33233200D01*
G75*
G02*
X270121600Y-32983200I250000J0D01*
G01*
X270921600Y-32983200D01*
G75*
G02*
X271171600Y-33233200I0J-250000D01*
G01*
X271171600Y-34483200D01*
G75*
G02*
X270921600Y-34733200I-250000J0D01*
G01*
X270121600Y-34733200D01*
G75*
G02*
X269871600Y-34483200I0J250000D01*
G01*
G37*
%TD.AperFunction*%
%TD*%
%TO.P,R37,2*%
%TO.N,GND*%
%TA.AperFunction,SMDPad,CuDef*%
G36*
G01*
X212773600Y-34483200D02*
X212773600Y-33233200D01*
G75*
G02*
X213023600Y-32983200I250000J0D01*
G01*
X213823600Y-32983200D01*
G75*
G02*
X214073600Y-33233200I0J-250000D01*
G01*
X214073600Y-34483200D01*
G75*
G02*
X213823600Y-34733200I-250000J0D01*
G01*
X213023600Y-34733200D01*
G75*
G02*
X212773600Y-34483200I0J250000D01*
G01*
G37*
%TD.AperFunction*%
%TO.P,R37,1*%
%TO.N,Net-(D5-Pad1)*%
%TA.AperFunction,SMDPad,CuDef*%
G36*
G01*
X209673600Y-34483200D02*
X209673600Y-33233200D01*
G75*
G02*
X209923600Y-32983200I250000J0D01*
G01*
X210723600Y-32983200D01*
G75*
G02*
X210973600Y-33233200I0J-250000D01*
G01*
X210973600Y-34483200D01*
G75*
G02*
X210723600Y-34733200I-250000J0D01*
G01*
X209923600Y-34733200D01*
G75*
G02*
X209673600Y-34483200I0J250000D01*
G01*
G37*
%TD.AperFunction*%
%TD*%
%TO.P,R36,2*%
%TO.N,GND*%
%TA.AperFunction,SMDPad,CuDef*%
G36*
G01*
X201915600Y-190889000D02*
X201915600Y-188739000D01*
G75*
G02*
X202165600Y-188489000I250000J0D01*
G01*
X202965600Y-188489000D01*
G75*
G02*
X203215600Y-188739000I0J-250000D01*
G01*
X203215600Y-190889000D01*
G75*
G02*
X202965600Y-191139000I-250000J0D01*
G01*
X202165600Y-191139000D01*
G75*
G02*
X201915600Y-190889000I0J250000D01*
G01*
G37*
%TD.AperFunction*%
%TO.P,R36,1*%
%TO.N,Net-(R36-Pad1)*%
%TA.AperFunction,SMDPad,CuDef*%
G36*
G01*
X198815600Y-190889000D02*
X198815600Y-188739000D01*
G75*
G02*
X199065600Y-188489000I250000J0D01*
G01*
X199865600Y-188489000D01*
G75*
G02*
X200115600Y-188739000I0J-250000D01*
G01*
X200115600Y-190889000D01*
G75*
G02*
X199865600Y-191139000I-250000J0D01*
G01*
X199065600Y-191139000D01*
G75*
G02*
X198815600Y-190889000I0J250000D01*
G01*
G37*
%TD.AperFunction*%
%TD*%
%TO.P,R35,2*%
%TO.N,GND*%
%TA.AperFunction,SMDPad,CuDef*%
G36*
G01*
X202042600Y-177935000D02*
X202042600Y-175785000D01*
G75*
G02*
X202292600Y-175535000I250000J0D01*
G01*
X203092600Y-175535000D01*
G75*
G02*
X203342600Y-175785000I0J-250000D01*
G01*
X203342600Y-177935000D01*
G75*
G02*
X203092600Y-178185000I-250000J0D01*
G01*
X202292600Y-178185000D01*
G75*
G02*
X202042600Y-177935000I0J250000D01*
G01*
G37*
%TD.AperFunction*%
%TO.P,R35,1*%
%TO.N,Net-(R35-Pad1)*%
%TA.AperFunction,SMDPad,CuDef*%
G36*
G01*
X198942600Y-177935000D02*
X198942600Y-175785000D01*
G75*
G02*
X199192600Y-175535000I250000J0D01*
G01*
X199992600Y-175535000D01*
G75*
G02*
X200242600Y-175785000I0J-250000D01*
G01*
X200242600Y-177935000D01*
G75*
G02*
X199992600Y-178185000I-250000J0D01*
G01*
X199192600Y-178185000D01*
G75*
G02*
X198942600Y-177935000I0J250000D01*
G01*
G37*
%TD.AperFunction*%
%TD*%
%TO.P,R34,2*%
%TO.N,GND*%
%TA.AperFunction,SMDPad,CuDef*%
G36*
G01*
X302943600Y-237943000D02*
X302943600Y-235793000D01*
G75*
G02*
X303193600Y-235543000I250000J0D01*
G01*
X303993600Y-235543000D01*
G75*
G02*
X304243600Y-235793000I0J-250000D01*
G01*
X304243600Y-237943000D01*
G75*
G02*
X303993600Y-238193000I-250000J0D01*
G01*
X303193600Y-238193000D01*
G75*
G02*
X302943600Y-237943000I0J250000D01*
G01*
G37*
%TD.AperFunction*%
%TO.P,R34,1*%
%TO.N,Net-(R34-Pad1)*%
%TA.AperFunction,SMDPad,CuDef*%
G36*
G01*
X299843600Y-237943000D02*
X299843600Y-235793000D01*
G75*
G02*
X300093600Y-235543000I250000J0D01*
G01*
X300893600Y-235543000D01*
G75*
G02*
X301143600Y-235793000I0J-250000D01*
G01*
X301143600Y-237943000D01*
G75*
G02*
X300893600Y-238193000I-250000J0D01*
G01*
X300093600Y-238193000D01*
G75*
G02*
X299843600Y-237943000I0J250000D01*
G01*
G37*
%TD.AperFunction*%
%TD*%
%TO.P,R33,2*%
%TO.N,GND*%
%TA.AperFunction,SMDPad,CuDef*%
G36*
G01*
X257414600Y-238006000D02*
X257414600Y-235856000D01*
G75*
G02*
X257664600Y-235606000I250000J0D01*
G01*
X258464600Y-235606000D01*
G75*
G02*
X258714600Y-235856000I0J-250000D01*
G01*
X258714600Y-238006000D01*
G75*
G02*
X258464600Y-238256000I-250000J0D01*
G01*
X257664600Y-238256000D01*
G75*
G02*
X257414600Y-238006000I0J250000D01*
G01*
G37*
%TD.AperFunction*%
%TO.P,R33,1*%
%TO.N,Net-(R33-Pad1)*%
%TA.AperFunction,SMDPad,CuDef*%
G36*
G01*
X254314600Y-238006000D02*
X254314600Y-235856000D01*
G75*
G02*
X254564600Y-235606000I250000J0D01*
G01*
X255364600Y-235606000D01*
G75*
G02*
X255614600Y-235856000I0J-250000D01*
G01*
X255614600Y-238006000D01*
G75*
G02*
X255364600Y-238256000I-250000J0D01*
G01*
X254564600Y-238256000D01*
G75*
G02*
X254314600Y-238006000I0J250000D01*
G01*
G37*
%TD.AperFunction*%
%TD*%
%TO.P,R32,2*%
%TO.N,GND*%
%TA.AperFunction,SMDPad,CuDef*%
G36*
G01*
X287386600Y-223973000D02*
X287386600Y-221823000D01*
G75*
G02*
X287636600Y-221573000I250000J0D01*
G01*
X288436600Y-221573000D01*
G75*
G02*
X288686600Y-221823000I0J-250000D01*
G01*
X288686600Y-223973000D01*
G75*
G02*
X288436600Y-224223000I-250000J0D01*
G01*
X287636600Y-224223000D01*
G75*
G02*
X287386600Y-223973000I0J250000D01*
G01*
G37*
%TD.AperFunction*%
%TO.P,R32,1*%
%TO.N,Net-(R32-Pad1)*%
%TA.AperFunction,SMDPad,CuDef*%
G36*
G01*
X284286600Y-223973000D02*
X284286600Y-221823000D01*
G75*
G02*
X284536600Y-221573000I250000J0D01*
G01*
X285336600Y-221573000D01*
G75*
G02*
X285586600Y-221823000I0J-250000D01*
G01*
X285586600Y-223973000D01*
G75*
G02*
X285336600Y-224223000I-250000J0D01*
G01*
X284536600Y-224223000D01*
G75*
G02*
X284286600Y-223973000I0J250000D01*
G01*
G37*
%TD.AperFunction*%
%TD*%
%TO.P,R31,2*%
%TO.N,GND*%
%TA.AperFunction,SMDPad,CuDef*%
G36*
G01*
X242428600Y-223973000D02*
X242428600Y-221823000D01*
G75*
G02*
X242678600Y-221573000I250000J0D01*
G01*
X243478600Y-221573000D01*
G75*
G02*
X243728600Y-221823000I0J-250000D01*
G01*
X243728600Y-223973000D01*
G75*
G02*
X243478600Y-224223000I-250000J0D01*
G01*
X242678600Y-224223000D01*
G75*
G02*
X242428600Y-223973000I0J250000D01*
G01*
G37*
%TD.AperFunction*%
%TO.P,R31,1*%
%TO.N,Net-(R31-Pad1)*%
%TA.AperFunction,SMDPad,CuDef*%
G36*
G01*
X239328600Y-223973000D02*
X239328600Y-221823000D01*
G75*
G02*
X239578600Y-221573000I250000J0D01*
G01*
X240378600Y-221573000D01*
G75*
G02*
X240628600Y-221823000I0J-250000D01*
G01*
X240628600Y-223973000D01*
G75*
G02*
X240378600Y-224223000I-250000J0D01*
G01*
X239578600Y-224223000D01*
G75*
G02*
X239328600Y-223973000I0J250000D01*
G01*
G37*
%TD.AperFunction*%
%TD*%
%TO.P,R30,2*%
%TO.N,GND*%
%TA.AperFunction,SMDPad,CuDef*%
G36*
G01*
X272400600Y-209939000D02*
X272400600Y-207789000D01*
G75*
G02*
X272650600Y-207539000I250000J0D01*
G01*
X273450600Y-207539000D01*
G75*
G02*
X273700600Y-207789000I0J-250000D01*
G01*
X273700600Y-209939000D01*
G75*
G02*
X273450600Y-210189000I-250000J0D01*
G01*
X272650600Y-210189000D01*
G75*
G02*
X272400600Y-209939000I0J250000D01*
G01*
G37*
%TD.AperFunction*%
%TO.P,R30,1*%
%TO.N,Net-(R30-Pad1)*%
%TA.AperFunction,SMDPad,CuDef*%
G36*
G01*
X269300600Y-209939000D02*
X269300600Y-207789000D01*
G75*
G02*
X269550600Y-207539000I250000J0D01*
G01*
X270350600Y-207539000D01*
G75*
G02*
X270600600Y-207789000I0J-250000D01*
G01*
X270600600Y-209939000D01*
G75*
G02*
X270350600Y-210189000I-250000J0D01*
G01*
X269550600Y-210189000D01*
G75*
G02*
X269300600Y-209939000I0J250000D01*
G01*
G37*
%TD.AperFunction*%
%TD*%
%TO.P,R29,2*%
%TO.N,GND*%
%TA.AperFunction,SMDPad,CuDef*%
G36*
G01*
X302843600Y-195779000D02*
X302843600Y-193629000D01*
G75*
G02*
X303093600Y-193379000I250000J0D01*
G01*
X303893600Y-193379000D01*
G75*
G02*
X304143600Y-193629000I0J-250000D01*
G01*
X304143600Y-195779000D01*
G75*
G02*
X303893600Y-196029000I-250000J0D01*
G01*
X303093600Y-196029000D01*
G75*
G02*
X302843600Y-195779000I0J250000D01*
G01*
G37*
%TD.AperFunction*%
%TO.P,R29,1*%
%TO.N,Net-(R29-Pad1)*%
%TA.AperFunction,SMDPad,CuDef*%
G36*
G01*
X299743600Y-195779000D02*
X299743600Y-193629000D01*
G75*
G02*
X299993600Y-193379000I250000J0D01*
G01*
X300793600Y-193379000D01*
G75*
G02*
X301043600Y-193629000I0J-250000D01*
G01*
X301043600Y-195779000D01*
G75*
G02*
X300793600Y-196029000I-250000J0D01*
G01*
X299993600Y-196029000D01*
G75*
G02*
X299743600Y-195779000I0J250000D01*
G01*
G37*
%TD.AperFunction*%
%TD*%
%TO.P,R28,2*%
%TO.N,GND*%
%TA.AperFunction,SMDPad,CuDef*%
G36*
G01*
X257414600Y-196033000D02*
X257414600Y-193883000D01*
G75*
G02*
X257664600Y-193633000I250000J0D01*
G01*
X258464600Y-193633000D01*
G75*
G02*
X258714600Y-193883000I0J-250000D01*
G01*
X258714600Y-196033000D01*
G75*
G02*
X258464600Y-196283000I-250000J0D01*
G01*
X257664600Y-196283000D01*
G75*
G02*
X257414600Y-196033000I0J250000D01*
G01*
G37*
%TD.AperFunction*%
%TO.P,R28,1*%
%TO.N,Net-(R28-Pad1)*%
%TA.AperFunction,SMDPad,CuDef*%
G36*
G01*
X254314600Y-196033000D02*
X254314600Y-193883000D01*
G75*
G02*
X254564600Y-193633000I250000J0D01*
G01*
X255364600Y-193633000D01*
G75*
G02*
X255614600Y-193883000I0J-250000D01*
G01*
X255614600Y-196033000D01*
G75*
G02*
X255364600Y-196283000I-250000J0D01*
G01*
X254564600Y-196283000D01*
G75*
G02*
X254314600Y-196033000I0J250000D01*
G01*
G37*
%TD.AperFunction*%
%TD*%
%TO.P,R27,2*%
%TO.N,GND*%
%TA.AperFunction,SMDPad,CuDef*%
G36*
G01*
X287449600Y-181999000D02*
X287449600Y-179849000D01*
G75*
G02*
X287699600Y-179599000I250000J0D01*
G01*
X288499600Y-179599000D01*
G75*
G02*
X288749600Y-179849000I0J-250000D01*
G01*
X288749600Y-181999000D01*
G75*
G02*
X288499600Y-182249000I-250000J0D01*
G01*
X287699600Y-182249000D01*
G75*
G02*
X287449600Y-181999000I0J250000D01*
G01*
G37*
%TD.AperFunction*%
%TO.P,R27,1*%
%TO.N,Net-(R27-Pad1)*%
%TA.AperFunction,SMDPad,CuDef*%
G36*
G01*
X284349600Y-181999000D02*
X284349600Y-179849000D01*
G75*
G02*
X284599600Y-179599000I250000J0D01*
G01*
X285399600Y-179599000D01*
G75*
G02*
X285649600Y-179849000I0J-250000D01*
G01*
X285649600Y-181999000D01*
G75*
G02*
X285399600Y-182249000I-250000J0D01*
G01*
X284599600Y-182249000D01*
G75*
G02*
X284349600Y-181999000I0J250000D01*
G01*
G37*
%TD.AperFunction*%
%TD*%
%TO.P,R26,2*%
%TO.N,GND*%
%TA.AperFunction,SMDPad,CuDef*%
G36*
G01*
X242428600Y-181936000D02*
X242428600Y-179786000D01*
G75*
G02*
X242678600Y-179536000I250000J0D01*
G01*
X243478600Y-179536000D01*
G75*
G02*
X243728600Y-179786000I0J-250000D01*
G01*
X243728600Y-181936000D01*
G75*
G02*
X243478600Y-182186000I-250000J0D01*
G01*
X242678600Y-182186000D01*
G75*
G02*
X242428600Y-181936000I0J250000D01*
G01*
G37*
%TD.AperFunction*%
%TO.P,R26,1*%
%TO.N,Net-(R26-Pad1)*%
%TA.AperFunction,SMDPad,CuDef*%
G36*
G01*
X239328600Y-181936000D02*
X239328600Y-179786000D01*
G75*
G02*
X239578600Y-179536000I250000J0D01*
G01*
X240378600Y-179536000D01*
G75*
G02*
X240628600Y-179786000I0J-250000D01*
G01*
X240628600Y-181936000D01*
G75*
G02*
X240378600Y-182186000I-250000J0D01*
G01*
X239578600Y-182186000D01*
G75*
G02*
X239328600Y-181936000I0J250000D01*
G01*
G37*
%TD.AperFunction*%
%TD*%
%TO.P,R25,2*%
%TO.N,GND*%
%TA.AperFunction,SMDPad,CuDef*%
G36*
G01*
X272400600Y-167902000D02*
X272400600Y-165752000D01*
G75*
G02*
X272650600Y-165502000I250000J0D01*
G01*
X273450600Y-165502000D01*
G75*
G02*
X273700600Y-165752000I0J-250000D01*
G01*
X273700600Y-167902000D01*
G75*
G02*
X273450600Y-168152000I-250000J0D01*
G01*
X272650600Y-168152000D01*
G75*
G02*
X272400600Y-167902000I0J250000D01*
G01*
G37*
%TD.AperFunction*%
%TO.P,R25,1*%
%TO.N,Net-(R25-Pad1)*%
%TA.AperFunction,SMDPad,CuDef*%
G36*
G01*
X269300600Y-167902000D02*
X269300600Y-165752000D01*
G75*
G02*
X269550600Y-165502000I250000J0D01*
G01*
X270350600Y-165502000D01*
G75*
G02*
X270600600Y-165752000I0J-250000D01*
G01*
X270600600Y-167902000D01*
G75*
G02*
X270350600Y-168152000I-250000J0D01*
G01*
X269550600Y-168152000D01*
G75*
G02*
X269300600Y-167902000I0J250000D01*
G01*
G37*
%TD.AperFunction*%
%TD*%
%TO.P,R24,2*%
%TO.N,GND*%
%TA.AperFunction,SMDPad,CuDef*%
G36*
G01*
X226363600Y-238768000D02*
X226363600Y-236618000D01*
G75*
G02*
X226613600Y-236368000I250000J0D01*
G01*
X227413600Y-236368000D01*
G75*
G02*
X227663600Y-236618000I0J-250000D01*
G01*
X227663600Y-238768000D01*
G75*
G02*
X227413600Y-239018000I-250000J0D01*
G01*
X226613600Y-239018000D01*
G75*
G02*
X226363600Y-238768000I0J250000D01*
G01*
G37*
%TD.AperFunction*%
%TO.P,R24,1*%
%TO.N,Net-(R24-Pad1)*%
%TA.AperFunction,SMDPad,CuDef*%
G36*
G01*
X223263600Y-238768000D02*
X223263600Y-236618000D01*
G75*
G02*
X223513600Y-236368000I250000J0D01*
G01*
X224313600Y-236368000D01*
G75*
G02*
X224563600Y-236618000I0J-250000D01*
G01*
X224563600Y-238768000D01*
G75*
G02*
X224313600Y-239018000I-250000J0D01*
G01*
X223513600Y-239018000D01*
G75*
G02*
X223263600Y-238768000I0J250000D01*
G01*
G37*
%TD.AperFunction*%
%TD*%
%TO.P,R23,2*%
%TO.N,GND*%
%TA.AperFunction,SMDPad,CuDef*%
G36*
G01*
X226489600Y-227084000D02*
X226489600Y-224934000D01*
G75*
G02*
X226739600Y-224684000I250000J0D01*
G01*
X227539600Y-224684000D01*
G75*
G02*
X227789600Y-224934000I0J-250000D01*
G01*
X227789600Y-227084000D01*
G75*
G02*
X227539600Y-227334000I-250000J0D01*
G01*
X226739600Y-227334000D01*
G75*
G02*
X226489600Y-227084000I0J250000D01*
G01*
G37*
%TD.AperFunction*%
%TO.P,R23,1*%
%TO.N,Net-(R23-Pad1)*%
%TA.AperFunction,SMDPad,CuDef*%
G36*
G01*
X223389600Y-227084000D02*
X223389600Y-224934000D01*
G75*
G02*
X223639600Y-224684000I250000J0D01*
G01*
X224439600Y-224684000D01*
G75*
G02*
X224689600Y-224934000I0J-250000D01*
G01*
X224689600Y-227084000D01*
G75*
G02*
X224439600Y-227334000I-250000J0D01*
G01*
X223639600Y-227334000D01*
G75*
G02*
X223389600Y-227084000I0J250000D01*
G01*
G37*
%TD.AperFunction*%
%TD*%
%TO.P,R22,2*%
%TO.N,GND*%
%TA.AperFunction,SMDPad,CuDef*%
G36*
G01*
X226426600Y-214892000D02*
X226426600Y-212742000D01*
G75*
G02*
X226676600Y-212492000I250000J0D01*
G01*
X227476600Y-212492000D01*
G75*
G02*
X227726600Y-212742000I0J-250000D01*
G01*
X227726600Y-214892000D01*
G75*
G02*
X227476600Y-215142000I-250000J0D01*
G01*
X226676600Y-215142000D01*
G75*
G02*
X226426600Y-214892000I0J250000D01*
G01*
G37*
%TD.AperFunction*%
%TO.P,R22,1*%
%TO.N,Net-(R22-Pad1)*%
%TA.AperFunction,SMDPad,CuDef*%
G36*
G01*
X223326600Y-214892000D02*
X223326600Y-212742000D01*
G75*
G02*
X223576600Y-212492000I250000J0D01*
G01*
X224376600Y-212492000D01*
G75*
G02*
X224626600Y-212742000I0J-250000D01*
G01*
X224626600Y-214892000D01*
G75*
G02*
X224376600Y-215142000I-250000J0D01*
G01*
X223576600Y-215142000D01*
G75*
G02*
X223326600Y-214892000I0J250000D01*
G01*
G37*
%TD.AperFunction*%
%TD*%
%TO.P,R21,2*%
%TO.N,GND*%
%TA.AperFunction,SMDPad,CuDef*%
G36*
G01*
X226426600Y-202954000D02*
X226426600Y-200804000D01*
G75*
G02*
X226676600Y-200554000I250000J0D01*
G01*
X227476600Y-200554000D01*
G75*
G02*
X227726600Y-200804000I0J-250000D01*
G01*
X227726600Y-202954000D01*
G75*
G02*
X227476600Y-203204000I-250000J0D01*
G01*
X226676600Y-203204000D01*
G75*
G02*
X226426600Y-202954000I0J250000D01*
G01*
G37*
%TD.AperFunction*%
%TO.P,R21,1*%
%TO.N,Net-(R21-Pad1)*%
%TA.AperFunction,SMDPad,CuDef*%
G36*
G01*
X223326600Y-202954000D02*
X223326600Y-200804000D01*
G75*
G02*
X223576600Y-200554000I250000J0D01*
G01*
X224376600Y-200554000D01*
G75*
G02*
X224626600Y-200804000I0J-250000D01*
G01*
X224626600Y-202954000D01*
G75*
G02*
X224376600Y-203204000I-250000J0D01*
G01*
X223576600Y-203204000D01*
G75*
G02*
X223326600Y-202954000I0J250000D01*
G01*
G37*
%TD.AperFunction*%
%TD*%
%TO.P,R20,2*%
%TO.N,GND*%
%TA.AperFunction,SMDPad,CuDef*%
G36*
G01*
X201979600Y-164600000D02*
X201979600Y-162450000D01*
G75*
G02*
X202229600Y-162200000I250000J0D01*
G01*
X203029600Y-162200000D01*
G75*
G02*
X203279600Y-162450000I0J-250000D01*
G01*
X203279600Y-164600000D01*
G75*
G02*
X203029600Y-164850000I-250000J0D01*
G01*
X202229600Y-164850000D01*
G75*
G02*
X201979600Y-164600000I0J250000D01*
G01*
G37*
%TD.AperFunction*%
%TO.P,R20,1*%
%TO.N,Net-(R20-Pad1)*%
%TA.AperFunction,SMDPad,CuDef*%
G36*
G01*
X198879600Y-164600000D02*
X198879600Y-162450000D01*
G75*
G02*
X199129600Y-162200000I250000J0D01*
G01*
X199929600Y-162200000D01*
G75*
G02*
X200179600Y-162450000I0J-250000D01*
G01*
X200179600Y-164600000D01*
G75*
G02*
X199929600Y-164850000I-250000J0D01*
G01*
X199129600Y-164850000D01*
G75*
G02*
X198879600Y-164600000I0J250000D01*
G01*
G37*
%TD.AperFunction*%
%TD*%
%TO.P,R19,2*%
%TO.N,GND*%
%TA.AperFunction,SMDPad,CuDef*%
G36*
G01*
X255953600Y-151773000D02*
X255953600Y-149623000D01*
G75*
G02*
X256203600Y-149373000I250000J0D01*
G01*
X257003600Y-149373000D01*
G75*
G02*
X257253600Y-149623000I0J-250000D01*
G01*
X257253600Y-151773000D01*
G75*
G02*
X257003600Y-152023000I-250000J0D01*
G01*
X256203600Y-152023000D01*
G75*
G02*
X255953600Y-151773000I0J250000D01*
G01*
G37*
%TD.AperFunction*%
%TO.P,R19,1*%
%TO.N,Net-(R19-Pad1)*%
%TA.AperFunction,SMDPad,CuDef*%
G36*
G01*
X252853600Y-151773000D02*
X252853600Y-149623000D01*
G75*
G02*
X253103600Y-149373000I250000J0D01*
G01*
X253903600Y-149373000D01*
G75*
G02*
X254153600Y-149623000I0J-250000D01*
G01*
X254153600Y-151773000D01*
G75*
G02*
X253903600Y-152023000I-250000J0D01*
G01*
X253103600Y-152023000D01*
G75*
G02*
X252853600Y-151773000I0J250000D01*
G01*
G37*
%TD.AperFunction*%
%TD*%
%TO.P,R18,2*%
%TO.N,GND*%
%TA.AperFunction,SMDPad,CuDef*%
G36*
G01*
X201979600Y-151773000D02*
X201979600Y-149623000D01*
G75*
G02*
X202229600Y-149373000I250000J0D01*
G01*
X203029600Y-149373000D01*
G75*
G02*
X203279600Y-149623000I0J-250000D01*
G01*
X203279600Y-151773000D01*
G75*
G02*
X203029600Y-152023000I-250000J0D01*
G01*
X202229600Y-152023000D01*
G75*
G02*
X201979600Y-151773000I0J250000D01*
G01*
G37*
%TD.AperFunction*%
%TO.P,R18,1*%
%TO.N,Net-(R18-Pad1)*%
%TA.AperFunction,SMDPad,CuDef*%
G36*
G01*
X198879600Y-151773000D02*
X198879600Y-149623000D01*
G75*
G02*
X199129600Y-149373000I250000J0D01*
G01*
X199929600Y-149373000D01*
G75*
G02*
X200179600Y-149623000I0J-250000D01*
G01*
X200179600Y-151773000D01*
G75*
G02*
X199929600Y-152023000I-250000J0D01*
G01*
X199129600Y-152023000D01*
G75*
G02*
X198879600Y-151773000I0J250000D01*
G01*
G37*
%TD.AperFunction*%
%TD*%
%TO.P,R17,2*%
%TO.N,GND*%
%TA.AperFunction,SMDPad,CuDef*%
G36*
G01*
X237983600Y-138756000D02*
X237983600Y-136606000D01*
G75*
G02*
X238233600Y-136356000I250000J0D01*
G01*
X239033600Y-136356000D01*
G75*
G02*
X239283600Y-136606000I0J-250000D01*
G01*
X239283600Y-138756000D01*
G75*
G02*
X239033600Y-139006000I-250000J0D01*
G01*
X238233600Y-139006000D01*
G75*
G02*
X237983600Y-138756000I0J250000D01*
G01*
G37*
%TD.AperFunction*%
%TO.P,R17,1*%
%TO.N,Net-(R17-Pad1)*%
%TA.AperFunction,SMDPad,CuDef*%
G36*
G01*
X234883600Y-138756000D02*
X234883600Y-136606000D01*
G75*
G02*
X235133600Y-136356000I250000J0D01*
G01*
X235933600Y-136356000D01*
G75*
G02*
X236183600Y-136606000I0J-250000D01*
G01*
X236183600Y-138756000D01*
G75*
G02*
X235933600Y-139006000I-250000J0D01*
G01*
X235133600Y-139006000D01*
G75*
G02*
X234883600Y-138756000I0J250000D01*
G01*
G37*
%TD.AperFunction*%
%TD*%
%TO.P,R16,2*%
%TO.N,GND*%
%TA.AperFunction,SMDPad,CuDef*%
G36*
G01*
X301039600Y-114372000D02*
X301039600Y-112222000D01*
G75*
G02*
X301289600Y-111972000I250000J0D01*
G01*
X302089600Y-111972000D01*
G75*
G02*
X302339600Y-112222000I0J-250000D01*
G01*
X302339600Y-114372000D01*
G75*
G02*
X302089600Y-114622000I-250000J0D01*
G01*
X301289600Y-114622000D01*
G75*
G02*
X301039600Y-114372000I0J250000D01*
G01*
G37*
%TD.AperFunction*%
%TO.P,R16,1*%
%TO.N,Net-(R16-Pad1)*%
%TA.AperFunction,SMDPad,CuDef*%
G36*
G01*
X297939600Y-114372000D02*
X297939600Y-112222000D01*
G75*
G02*
X298189600Y-111972000I250000J0D01*
G01*
X298989600Y-111972000D01*
G75*
G02*
X299239600Y-112222000I0J-250000D01*
G01*
X299239600Y-114372000D01*
G75*
G02*
X298989600Y-114622000I-250000J0D01*
G01*
X298189600Y-114622000D01*
G75*
G02*
X297939600Y-114372000I0J250000D01*
G01*
G37*
%TD.AperFunction*%
%TD*%
%TO.P,R15,2*%
%TO.N,GND*%
%TA.AperFunction,SMDPad,CuDef*%
G36*
G01*
X300874000Y-82888400D02*
X300874000Y-80738400D01*
G75*
G02*
X301124000Y-80488400I250000J0D01*
G01*
X301924000Y-80488400D01*
G75*
G02*
X302174000Y-80738400I0J-250000D01*
G01*
X302174000Y-82888400D01*
G75*
G02*
X301924000Y-83138400I-250000J0D01*
G01*
X301124000Y-83138400D01*
G75*
G02*
X300874000Y-82888400I0J250000D01*
G01*
G37*
%TD.AperFunction*%
%TO.P,R15,1*%
%TO.N,Net-(R15-Pad1)*%
%TA.AperFunction,SMDPad,CuDef*%
G36*
G01*
X297774000Y-82888400D02*
X297774000Y-80738400D01*
G75*
G02*
X298024000Y-80488400I250000J0D01*
G01*
X298824000Y-80488400D01*
G75*
G02*
X299074000Y-80738400I0J-250000D01*
G01*
X299074000Y-82888400D01*
G75*
G02*
X298824000Y-83138400I-250000J0D01*
G01*
X298024000Y-83138400D01*
G75*
G02*
X297774000Y-82888400I0J250000D01*
G01*
G37*
%TD.AperFunction*%
%TD*%
%TO.P,R14,2*%
%TO.N,GND*%
%TA.AperFunction,SMDPad,CuDef*%
G36*
G01*
X184582640Y-114369160D02*
X184582640Y-112219160D01*
G75*
G02*
X184832640Y-111969160I250000J0D01*
G01*
X185632640Y-111969160D01*
G75*
G02*
X185882640Y-112219160I0J-250000D01*
G01*
X185882640Y-114369160D01*
G75*
G02*
X185632640Y-114619160I-250000J0D01*
G01*
X184832640Y-114619160D01*
G75*
G02*
X184582640Y-114369160I0J250000D01*
G01*
G37*
%TD.AperFunction*%
%TO.P,R14,1*%
%TO.N,Net-(R14-Pad1)*%
%TA.AperFunction,SMDPad,CuDef*%
G36*
G01*
X181482640Y-114369160D02*
X181482640Y-112219160D01*
G75*
G02*
X181732640Y-111969160I250000J0D01*
G01*
X182532640Y-111969160D01*
G75*
G02*
X182782640Y-112219160I0J-250000D01*
G01*
X182782640Y-114369160D01*
G75*
G02*
X182532640Y-114619160I-250000J0D01*
G01*
X181732640Y-114619160D01*
G75*
G02*
X181482640Y-114369160I0J250000D01*
G01*
G37*
%TD.AperFunction*%
%TD*%
%TO.P,R13,2*%
%TO.N,GND*%
%TA.AperFunction,SMDPad,CuDef*%
G36*
G01*
X184658840Y-82817280D02*
X184658840Y-80667280D01*
G75*
G02*
X184908840Y-80417280I250000J0D01*
G01*
X185708840Y-80417280D01*
G75*
G02*
X185958840Y-80667280I0J-250000D01*
G01*
X185958840Y-82817280D01*
G75*
G02*
X185708840Y-83067280I-250000J0D01*
G01*
X184908840Y-83067280D01*
G75*
G02*
X184658840Y-82817280I0J250000D01*
G01*
G37*
%TD.AperFunction*%
%TO.P,R13,1*%
%TO.N,Net-(R13-Pad1)*%
%TA.AperFunction,SMDPad,CuDef*%
G36*
G01*
X181558840Y-82817280D02*
X181558840Y-80667280D01*
G75*
G02*
X181808840Y-80417280I250000J0D01*
G01*
X182608840Y-80417280D01*
G75*
G02*
X182858840Y-80667280I0J-250000D01*
G01*
X182858840Y-82817280D01*
G75*
G02*
X182608840Y-83067280I-250000J0D01*
G01*
X181808840Y-83067280D01*
G75*
G02*
X181558840Y-82817280I0J250000D01*
G01*
G37*
%TD.AperFunction*%
%TD*%
%TO.P,R12,2*%
%TO.N,+5V*%
%TA.AperFunction,SMDPad,CuDef*%
G36*
G01*
X181891600Y-41932700D02*
X181891600Y-43182700D01*
G75*
G02*
X181641600Y-43432700I-250000J0D01*
G01*
X180841600Y-43432700D01*
G75*
G02*
X180591600Y-43182700I0J250000D01*
G01*
X180591600Y-41932700D01*
G75*
G02*
X180841600Y-41682700I250000J0D01*
G01*
X181641600Y-41682700D01*
G75*
G02*
X181891600Y-41932700I0J-250000D01*
G01*
G37*
%TD.AperFunction*%
%TO.P,R12,1*%
%TO.N,RESET_SWITCH*%
%TA.AperFunction,SMDPad,CuDef*%
G36*
G01*
X184991600Y-41932700D02*
X184991600Y-43182700D01*
G75*
G02*
X184741600Y-43432700I-250000J0D01*
G01*
X183941600Y-43432700D01*
G75*
G02*
X183691600Y-43182700I0J250000D01*
G01*
X183691600Y-41932700D01*
G75*
G02*
X183941600Y-41682700I250000J0D01*
G01*
X184741600Y-41682700D01*
G75*
G02*
X184991600Y-41932700I0J-250000D01*
G01*
G37*
%TD.AperFunction*%
%TD*%
%TO.P,R11,2*%
%TO.N,+5V*%
%TA.AperFunction,SMDPad,CuDef*%
G36*
G01*
X224158200Y-63552500D02*
X222908200Y-63552500D01*
G75*
G02*
X222658200Y-63302500I0J250000D01*
G01*
X222658200Y-62502500D01*
G75*
G02*
X222908200Y-62252500I250000J0D01*
G01*
X224158200Y-62252500D01*
G75*
G02*
X224408200Y-62502500I0J-250000D01*
G01*
X224408200Y-63302500D01*
G75*
G02*
X224158200Y-63552500I-250000J0D01*
G01*
G37*
%TD.AperFunction*%
%TO.P,R11,1*%
%TO.N,SCL*%
%TA.AperFunction,SMDPad,CuDef*%
G36*
G01*
X224158200Y-66652500D02*
X222908200Y-66652500D01*
G75*
G02*
X222658200Y-66402500I0J250000D01*
G01*
X222658200Y-65602500D01*
G75*
G02*
X222908200Y-65352500I250000J0D01*
G01*
X224158200Y-65352500D01*
G75*
G02*
X224408200Y-65602500I0J-250000D01*
G01*
X224408200Y-66402500D01*
G75*
G02*
X224158200Y-66652500I-250000J0D01*
G01*
G37*
%TD.AperFunction*%
%TD*%
%TO.P,R10,2*%
%TO.N,+5V*%
%TA.AperFunction,SMDPad,CuDef*%
G36*
G01*
X219204200Y-63552500D02*
X217954200Y-63552500D01*
G75*
G02*
X217704200Y-63302500I0J250000D01*
G01*
X217704200Y-62502500D01*
G75*
G02*
X217954200Y-62252500I250000J0D01*
G01*
X219204200Y-62252500D01*
G75*
G02*
X219454200Y-62502500I0J-250000D01*
G01*
X219454200Y-63302500D01*
G75*
G02*
X219204200Y-63552500I-250000J0D01*
G01*
G37*
%TD.AperFunction*%
%TO.P,R10,1*%
%TO.N,SDA*%
%TA.AperFunction,SMDPad,CuDef*%
G36*
G01*
X219204200Y-66652500D02*
X217954200Y-66652500D01*
G75*
G02*
X217704200Y-66402500I0J250000D01*
G01*
X217704200Y-65602500D01*
G75*
G02*
X217954200Y-65352500I250000J0D01*
G01*
X219204200Y-65352500D01*
G75*
G02*
X219454200Y-65602500I0J-250000D01*
G01*
X219454200Y-66402500D01*
G75*
G02*
X219204200Y-66652500I-250000J0D01*
G01*
G37*
%TD.AperFunction*%
%TD*%
%TO.P,R9,2*%
%TO.N,INT_BUS_4*%
%TA.AperFunction,SMDPad,CuDef*%
G36*
G01*
X240160200Y-77268500D02*
X238910200Y-77268500D01*
G75*
G02*
X238660200Y-77018500I0J250000D01*
G01*
X238660200Y-76218500D01*
G75*
G02*
X238910200Y-75968500I250000J0D01*
G01*
X240160200Y-75968500D01*
G75*
G02*
X240410200Y-76218500I0J-250000D01*
G01*
X240410200Y-77018500D01*
G75*
G02*
X240160200Y-77268500I-250000J0D01*
G01*
G37*
%TD.AperFunction*%
%TO.P,R9,1*%
%TO.N,+5V*%
%TA.AperFunction,SMDPad,CuDef*%
G36*
G01*
X240160200Y-80368500D02*
X238910200Y-80368500D01*
G75*
G02*
X238660200Y-80118500I0J250000D01*
G01*
X238660200Y-79318500D01*
G75*
G02*
X238910200Y-79068500I250000J0D01*
G01*
X240160200Y-79068500D01*
G75*
G02*
X240410200Y-79318500I0J-250000D01*
G01*
X240410200Y-80118500D01*
G75*
G02*
X240160200Y-80368500I-250000J0D01*
G01*
G37*
%TD.AperFunction*%
%TD*%
%TO.P,R8,2*%
%TO.N,INT_BUS_3*%
%TA.AperFunction,SMDPad,CuDef*%
G36*
G01*
X236096200Y-77294500D02*
X234846200Y-77294500D01*
G75*
G02*
X234596200Y-77044500I0J250000D01*
G01*
X234596200Y-76244500D01*
G75*
G02*
X234846200Y-75994500I250000J0D01*
G01*
X236096200Y-75994500D01*
G75*
G02*
X236346200Y-76244500I0J-250000D01*
G01*
X236346200Y-77044500D01*
G75*
G02*
X236096200Y-77294500I-250000J0D01*
G01*
G37*
%TD.AperFunction*%
%TO.P,R8,1*%
%TO.N,+5V*%
%TA.AperFunction,SMDPad,CuDef*%
G36*
G01*
X236096200Y-80394500D02*
X234846200Y-80394500D01*
G75*
G02*
X234596200Y-80144500I0J250000D01*
G01*
X234596200Y-79344500D01*
G75*
G02*
X234846200Y-79094500I250000J0D01*
G01*
X236096200Y-79094500D01*
G75*
G02*
X236346200Y-79344500I0J-250000D01*
G01*
X236346200Y-80144500D01*
G75*
G02*
X236096200Y-80394500I-250000J0D01*
G01*
G37*
%TD.AperFunction*%
%TD*%
%TO.P,R7,2*%
%TO.N,INT_BUS_2*%
%TA.AperFunction,SMDPad,CuDef*%
G36*
G01*
X234655200Y-65352500D02*
X235905200Y-65352500D01*
G75*
G02*
X236155200Y-65602500I0J-250000D01*
G01*
X236155200Y-66402500D01*
G75*
G02*
X235905200Y-66652500I-250000J0D01*
G01*
X234655200Y-66652500D01*
G75*
G02*
X234405200Y-66402500I0J250000D01*
G01*
X234405200Y-65602500D01*
G75*
G02*
X234655200Y-65352500I250000J0D01*
G01*
G37*
%TD.AperFunction*%
%TO.P,R7,1*%
%TO.N,+5V*%
%TA.AperFunction,SMDPad,CuDef*%
G36*
G01*
X234655200Y-62252500D02*
X235905200Y-62252500D01*
G75*
G02*
X236155200Y-62502500I0J-250000D01*
G01*
X236155200Y-63302500D01*
G75*
G02*
X235905200Y-63552500I-250000J0D01*
G01*
X234655200Y-63552500D01*
G75*
G02*
X234405200Y-63302500I0J250000D01*
G01*
X234405200Y-62502500D01*
G75*
G02*
X234655200Y-62252500I250000J0D01*
G01*
G37*
%TD.AperFunction*%
%TD*%
%TO.P,R6,2*%
%TO.N,INT_BUS_1*%
%TA.AperFunction,SMDPad,CuDef*%
G36*
G01*
X229638200Y-65352500D02*
X230888200Y-65352500D01*
G75*
G02*
X231138200Y-65602500I0J-250000D01*
G01*
X231138200Y-66402500D01*
G75*
G02*
X230888200Y-66652500I-250000J0D01*
G01*
X229638200Y-66652500D01*
G75*
G02*
X229388200Y-66402500I0J250000D01*
G01*
X229388200Y-65602500D01*
G75*
G02*
X229638200Y-65352500I250000J0D01*
G01*
G37*
%TD.AperFunction*%
%TO.P,R6,1*%
%TO.N,+5V*%
%TA.AperFunction,SMDPad,CuDef*%
G36*
G01*
X229638200Y-62252500D02*
X230888200Y-62252500D01*
G75*
G02*
X231138200Y-62502500I0J-250000D01*
G01*
X231138200Y-63302500D01*
G75*
G02*
X230888200Y-63552500I-250000J0D01*
G01*
X229638200Y-63552500D01*
G75*
G02*
X229388200Y-63302500I0J250000D01*
G01*
X229388200Y-62502500D01*
G75*
G02*
X229638200Y-62252500I250000J0D01*
G01*
G37*
%TD.AperFunction*%
%TD*%
%TO.P,R5,2*%
%TO.N,INT_BUS_0*%
%TA.AperFunction,SMDPad,CuDef*%
G36*
G01*
X261368200Y-77395500D02*
X260118200Y-77395500D01*
G75*
G02*
X259868200Y-77145500I0J250000D01*
G01*
X259868200Y-76345500D01*
G75*
G02*
X260118200Y-76095500I250000J0D01*
G01*
X261368200Y-76095500D01*
G75*
G02*
X261618200Y-76345500I0J-250000D01*
G01*
X261618200Y-77145500D01*
G75*
G02*
X261368200Y-77395500I-250000J0D01*
G01*
G37*
%TD.AperFunction*%
%TO.P,R5,1*%
%TO.N,+5V*%
%TA.AperFunction,SMDPad,CuDef*%
G36*
G01*
X261368200Y-80495500D02*
X260118200Y-80495500D01*
G75*
G02*
X259868200Y-80245500I0J250000D01*
G01*
X259868200Y-79445500D01*
G75*
G02*
X260118200Y-79195500I250000J0D01*
G01*
X261368200Y-79195500D01*
G75*
G02*
X261618200Y-79445500I0J-250000D01*
G01*
X261618200Y-80245500D01*
G75*
G02*
X261368200Y-80495500I-250000J0D01*
G01*
G37*
%TD.AperFunction*%
%TD*%
%TO.P,R4,2*%
%TO.N,GND*%
%TA.AperFunction,SMDPad,CuDef*%
G36*
G01*
X197406600Y-36853700D02*
X198656600Y-36853700D01*
G75*
G02*
X198906600Y-37103700I0J-250000D01*
G01*
X198906600Y-37903700D01*
G75*
G02*
X198656600Y-38153700I-250000J0D01*
G01*
X197406600Y-38153700D01*
G75*
G02*
X197156600Y-37903700I0J250000D01*
G01*
X197156600Y-37103700D01*
G75*
G02*
X197406600Y-36853700I250000J0D01*
G01*
G37*
%TD.AperFunction*%
%TO.P,R4,1*%
%TO.N,Net-(D4-Pad1)*%
%TA.AperFunction,SMDPad,CuDef*%
G36*
G01*
X197406600Y-33753700D02*
X198656600Y-33753700D01*
G75*
G02*
X198906600Y-34003700I0J-250000D01*
G01*
X198906600Y-34803700D01*
G75*
G02*
X198656600Y-35053700I-250000J0D01*
G01*
X197406600Y-35053700D01*
G75*
G02*
X197156600Y-34803700I0J250000D01*
G01*
X197156600Y-34003700D01*
G75*
G02*
X197406600Y-33753700I250000J0D01*
G01*
G37*
%TD.AperFunction*%
%TD*%
%TO.P,R3,2*%
%TO.N,GND*%
%TA.AperFunction,SMDPad,CuDef*%
G36*
G01*
X201596600Y-36853700D02*
X202846600Y-36853700D01*
G75*
G02*
X203096600Y-37103700I0J-250000D01*
G01*
X203096600Y-37903700D01*
G75*
G02*
X202846600Y-38153700I-250000J0D01*
G01*
X201596600Y-38153700D01*
G75*
G02*
X201346600Y-37903700I0J250000D01*
G01*
X201346600Y-37103700D01*
G75*
G02*
X201596600Y-36853700I250000J0D01*
G01*
G37*
%TD.AperFunction*%
%TO.P,R3,1*%
%TO.N,Net-(D3-Pad1)*%
%TA.AperFunction,SMDPad,CuDef*%
G36*
G01*
X201596600Y-33753700D02*
X202846600Y-33753700D01*
G75*
G02*
X203096600Y-34003700I0J-250000D01*
G01*
X203096600Y-34803700D01*
G75*
G02*
X202846600Y-35053700I-250000J0D01*
G01*
X201596600Y-35053700D01*
G75*
G02*
X201346600Y-34803700I0J250000D01*
G01*
X201346600Y-34003700D01*
G75*
G02*
X201596600Y-33753700I250000J0D01*
G01*
G37*
%TD.AperFunction*%
%TD*%
%TO.P,R2,2*%
%TO.N,GND*%
%TA.AperFunction,SMDPad,CuDef*%
G36*
G01*
X193151600Y-36853700D02*
X194401600Y-36853700D01*
G75*
G02*
X194651600Y-37103700I0J-250000D01*
G01*
X194651600Y-37903700D01*
G75*
G02*
X194401600Y-38153700I-250000J0D01*
G01*
X193151600Y-38153700D01*
G75*
G02*
X192901600Y-37903700I0J250000D01*
G01*
X192901600Y-37103700D01*
G75*
G02*
X193151600Y-36853700I250000J0D01*
G01*
G37*
%TD.AperFunction*%
%TO.P,R2,1*%
%TO.N,Net-(D2-Pad1)*%
%TA.AperFunction,SMDPad,CuDef*%
G36*
G01*
X193151600Y-33753700D02*
X194401600Y-33753700D01*
G75*
G02*
X194651600Y-34003700I0J-250000D01*
G01*
X194651600Y-34803700D01*
G75*
G02*
X194401600Y-35053700I-250000J0D01*
G01*
X193151600Y-35053700D01*
G75*
G02*
X192901600Y-34803700I0J250000D01*
G01*
X192901600Y-34003700D01*
G75*
G02*
X193151600Y-33753700I250000J0D01*
G01*
G37*
%TD.AperFunction*%
%TD*%
%TO.P,R1,2*%
%TO.N,GND*%
%TA.AperFunction,SMDPad,CuDef*%
G36*
G01*
X189341600Y-36853700D02*
X190591600Y-36853700D01*
G75*
G02*
X190841600Y-37103700I0J-250000D01*
G01*
X190841600Y-37903700D01*
G75*
G02*
X190591600Y-38153700I-250000J0D01*
G01*
X189341600Y-38153700D01*
G75*
G02*
X189091600Y-37903700I0J250000D01*
G01*
X189091600Y-37103700D01*
G75*
G02*
X189341600Y-36853700I250000J0D01*
G01*
G37*
%TD.AperFunction*%
%TO.P,R1,1*%
%TO.N,Net-(D1-Pad1)*%
%TA.AperFunction,SMDPad,CuDef*%
G36*
G01*
X189341600Y-33753700D02*
X190591600Y-33753700D01*
G75*
G02*
X190841600Y-34003700I0J-250000D01*
G01*
X190841600Y-34803700D01*
G75*
G02*
X190591600Y-35053700I-250000J0D01*
G01*
X189341600Y-35053700D01*
G75*
G02*
X189091600Y-34803700I0J250000D01*
G01*
X189091600Y-34003700D01*
G75*
G02*
X189341600Y-33753700I250000J0D01*
G01*
G37*
%TD.AperFunction*%
%TD*%
D11*
%TO.P,J4,2*%
%TO.N,GND*%
X310362600Y-218643000D03*
D12*
%TO.P,J4,1*%
%TO.N,+12V*%
X310362600Y-213563000D03*
%TD*%
D11*
%TO.P,J3,2*%
%TO.N,GND*%
X310362600Y-229260400D03*
D12*
%TO.P,J3,1*%
%TO.N,+12V*%
X310362600Y-224180400D03*
%TD*%
D14*
%TO.P,J5,40*%
%TO.N,N/C*%
X265785200Y-72847200D03*
%TO.P,J5,39*%
X265785200Y-70307200D03*
%TO.P,J5,38*%
X263245200Y-72847200D03*
%TO.P,J5,37*%
X263245200Y-70307200D03*
%TO.P,J5,36*%
%TO.N,INT_BUS_0*%
X260705200Y-72847200D03*
%TO.P,J5,35*%
%TO.N,N/C*%
X260705200Y-70307200D03*
%TO.P,J5,34*%
X258165200Y-72847200D03*
%TO.P,J5,33*%
X258165200Y-70307200D03*
%TO.P,J5,32*%
X255625200Y-72847200D03*
%TO.P,J5,31*%
%TO.N,GENERAL_LED*%
X255625200Y-70307200D03*
%TO.P,J5,30*%
%TO.N,N/C*%
X253085200Y-72847200D03*
%TO.P,J5,29*%
%TO.N,FAULT_LED*%
X253085200Y-70307200D03*
%TO.P,J5,28*%
%TO.N,N/C*%
X250545200Y-72847200D03*
%TO.P,J5,27*%
X250545200Y-70307200D03*
%TO.P,J5,26*%
%TO.N,RESET_SWITCH*%
X248005200Y-72847200D03*
%TO.P,J5,25*%
%TO.N,N/C*%
X248005200Y-70307200D03*
%TO.P,J5,24*%
X245465200Y-72847200D03*
%TO.P,J5,23*%
X245465200Y-70307200D03*
%TO.P,J5,22*%
X242925200Y-72847200D03*
%TO.P,J5,21*%
X242925200Y-70307200D03*
%TO.P,J5,20*%
X240385200Y-72847200D03*
%TO.P,J5,19*%
X240385200Y-70307200D03*
%TO.P,J5,18*%
%TO.N,INT_BUS_4*%
X237845200Y-72847200D03*
%TO.P,J5,17*%
%TO.N,N/C*%
X237845200Y-70307200D03*
%TO.P,J5,16*%
%TO.N,INT_BUS_3*%
X235305200Y-72847200D03*
%TO.P,J5,15*%
%TO.N,INT_BUS_2*%
X235305200Y-70307200D03*
%TO.P,J5,14*%
%TO.N,N/C*%
X232765200Y-72847200D03*
%TO.P,J5,13*%
X232765200Y-70307200D03*
%TO.P,J5,12*%
%TO.N,BUSES_RESET*%
X230225200Y-72847200D03*
%TO.P,J5,11*%
%TO.N,INT_BUS_1*%
X230225200Y-70307200D03*
%TO.P,J5,10*%
%TO.N,N/C*%
X227685200Y-72847200D03*
%TO.P,J5,9*%
X227685200Y-70307200D03*
%TO.P,J5,8*%
X225145200Y-72847200D03*
%TO.P,J5,7*%
%TO.N,SIGNAL_LED*%
X225145200Y-70307200D03*
%TO.P,J5,6*%
%TO.N,GND*%
X222605200Y-72847200D03*
%TO.P,J5,5*%
%TO.N,SCL*%
X222605200Y-70307200D03*
%TO.P,J5,4*%
%TO.N,+5V*%
X220065200Y-72847200D03*
%TO.P,J5,3*%
%TO.N,SDA*%
X220065200Y-70307200D03*
%TO.P,J5,2*%
%TO.N,+5V*%
X217525200Y-72847200D03*
D15*
%TO.P,J5,1*%
%TO.N,N/C*%
X217525200Y-70307200D03*
%TD*%
D11*
%TO.P,J2,2*%
%TO.N,GND*%
X174662600Y-211925200D03*
D12*
%TO.P,J2,1*%
%TO.N,+5V*%
X174662600Y-217005200D03*
%TD*%
D11*
%TO.P,J1,2*%
%TO.N,GND*%
X174662600Y-222529400D03*
D12*
%TO.P,J1,1*%
%TO.N,+5V*%
X174662600Y-227609400D03*
%TD*%
%TO.P,D4,2*%
%TO.N,SIGNAL_LED*%
%TA.AperFunction,SMDPad,CuDef*%
G36*
G01*
X191020400Y-26857800D02*
X191020400Y-28107800D01*
G75*
G02*
X190770400Y-28357800I-250000J0D01*
G01*
X189845400Y-28357800D01*
G75*
G02*
X189595400Y-28107800I0J250000D01*
G01*
X189595400Y-26857800D01*
G75*
G02*
X189845400Y-26607800I250000J0D01*
G01*
X190770400Y-26607800D01*
G75*
G02*
X191020400Y-26857800I0J-250000D01*
G01*
G37*
%TD.AperFunction*%
%TO.P,D4,1*%
%TO.N,Net-(D4-Pad1)*%
%TA.AperFunction,SMDPad,CuDef*%
G36*
G01*
X193995400Y-26857800D02*
X193995400Y-28107800D01*
G75*
G02*
X193745400Y-28357800I-250000J0D01*
G01*
X192820400Y-28357800D01*
G75*
G02*
X192570400Y-28107800I0J250000D01*
G01*
X192570400Y-26857800D01*
G75*
G02*
X192820400Y-26607800I250000J0D01*
G01*
X193745400Y-26607800D01*
G75*
G02*
X193995400Y-26857800I0J-250000D01*
G01*
G37*
%TD.AperFunction*%
%TD*%
%TO.P,D3,2*%
%TO.N,FAULT_LED*%
%TA.AperFunction,SMDPad,CuDef*%
G36*
G01*
X197890600Y-26819700D02*
X197890600Y-28069700D01*
G75*
G02*
X197640600Y-28319700I-250000J0D01*
G01*
X196715600Y-28319700D01*
G75*
G02*
X196465600Y-28069700I0J250000D01*
G01*
X196465600Y-26819700D01*
G75*
G02*
X196715600Y-26569700I250000J0D01*
G01*
X197640600Y-26569700D01*
G75*
G02*
X197890600Y-26819700I0J-250000D01*
G01*
G37*
%TD.AperFunction*%
%TO.P,D3,1*%
%TO.N,Net-(D3-Pad1)*%
%TA.AperFunction,SMDPad,CuDef*%
G36*
G01*
X200865600Y-26819700D02*
X200865600Y-28069700D01*
G75*
G02*
X200615600Y-28319700I-250000J0D01*
G01*
X199690600Y-28319700D01*
G75*
G02*
X199440600Y-28069700I0J250000D01*
G01*
X199440600Y-26819700D01*
G75*
G02*
X199690600Y-26569700I250000J0D01*
G01*
X200615600Y-26569700D01*
G75*
G02*
X200865600Y-26819700I0J-250000D01*
G01*
G37*
%TD.AperFunction*%
%TD*%
%TO.P,D2,2*%
%TO.N,GENERAL_LED*%
%TA.AperFunction,SMDPad,CuDef*%
G36*
G01*
X184060800Y-26807000D02*
X184060800Y-28057000D01*
G75*
G02*
X183810800Y-28307000I-250000J0D01*
G01*
X182885800Y-28307000D01*
G75*
G02*
X182635800Y-28057000I0J250000D01*
G01*
X182635800Y-26807000D01*
G75*
G02*
X182885800Y-26557000I250000J0D01*
G01*
X183810800Y-26557000D01*
G75*
G02*
X184060800Y-26807000I0J-250000D01*
G01*
G37*
%TD.AperFunction*%
%TO.P,D2,1*%
%TO.N,Net-(D2-Pad1)*%
%TA.AperFunction,SMDPad,CuDef*%
G36*
G01*
X187035800Y-26807000D02*
X187035800Y-28057000D01*
G75*
G02*
X186785800Y-28307000I-250000J0D01*
G01*
X185860800Y-28307000D01*
G75*
G02*
X185610800Y-28057000I0J250000D01*
G01*
X185610800Y-26807000D01*
G75*
G02*
X185860800Y-26557000I250000J0D01*
G01*
X186785800Y-26557000D01*
G75*
G02*
X187035800Y-26807000I0J-250000D01*
G01*
G37*
%TD.AperFunction*%
%TD*%
%TO.P,D1,2*%
%TO.N,+5V*%
%TA.AperFunction,SMDPad,CuDef*%
G36*
G01*
X177126600Y-26857800D02*
X177126600Y-28107800D01*
G75*
G02*
X176876600Y-28357800I-250000J0D01*
G01*
X175951600Y-28357800D01*
G75*
G02*
X175701600Y-28107800I0J250000D01*
G01*
X175701600Y-26857800D01*
G75*
G02*
X175951600Y-26607800I250000J0D01*
G01*
X176876600Y-26607800D01*
G75*
G02*
X177126600Y-26857800I0J-250000D01*
G01*
G37*
%TD.AperFunction*%
%TO.P,D1,1*%
%TO.N,Net-(D1-Pad1)*%
%TA.AperFunction,SMDPad,CuDef*%
G36*
G01*
X180101600Y-26857800D02*
X180101600Y-28107800D01*
G75*
G02*
X179851600Y-28357800I-250000J0D01*
G01*
X178926600Y-28357800D01*
G75*
G02*
X178676600Y-28107800I0J250000D01*
G01*
X178676600Y-26857800D01*
G75*
G02*
X178926600Y-26607800I250000J0D01*
G01*
X179851600Y-26607800D01*
G75*
G02*
X180101600Y-26857800I0J-250000D01*
G01*
G37*
%TD.AperFunction*%
%TD*%
%TO.P,C5,2*%
%TO.N,GND*%
%TA.AperFunction,SMDPad,CuDef*%
G36*
G01*
X286624600Y-111597001D02*
X286624600Y-110296999D01*
G75*
G02*
X286874599Y-110047000I249999J0D01*
G01*
X287699601Y-110047000D01*
G75*
G02*
X287949600Y-110296999I0J-249999D01*
G01*
X287949600Y-111597001D01*
G75*
G02*
X287699601Y-111847000I-249999J0D01*
G01*
X286874599Y-111847000D01*
G75*
G02*
X286624600Y-111597001I0J249999D01*
G01*
G37*
%TD.AperFunction*%
%TO.P,C5,1*%
%TO.N,+5V*%
%TA.AperFunction,SMDPad,CuDef*%
G36*
G01*
X283499600Y-111597001D02*
X283499600Y-110296999D01*
G75*
G02*
X283749599Y-110047000I249999J0D01*
G01*
X284574601Y-110047000D01*
G75*
G02*
X284824600Y-110296999I0J-249999D01*
G01*
X284824600Y-111597001D01*
G75*
G02*
X284574601Y-111847000I-249999J0D01*
G01*
X283749599Y-111847000D01*
G75*
G02*
X283499600Y-111597001I0J249999D01*
G01*
G37*
%TD.AperFunction*%
%TD*%
%TO.P,C4,2*%
%TO.N,GND*%
%TA.AperFunction,SMDPad,CuDef*%
G36*
G01*
X265034600Y-111597001D02*
X265034600Y-110296999D01*
G75*
G02*
X265284599Y-110047000I249999J0D01*
G01*
X266109601Y-110047000D01*
G75*
G02*
X266359600Y-110296999I0J-249999D01*
G01*
X266359600Y-111597001D01*
G75*
G02*
X266109601Y-111847000I-249999J0D01*
G01*
X265284599Y-111847000D01*
G75*
G02*
X265034600Y-111597001I0J249999D01*
G01*
G37*
%TD.AperFunction*%
%TO.P,C4,1*%
%TO.N,+5V*%
%TA.AperFunction,SMDPad,CuDef*%
G36*
G01*
X261909600Y-111597001D02*
X261909600Y-110296999D01*
G75*
G02*
X262159599Y-110047000I249999J0D01*
G01*
X262984601Y-110047000D01*
G75*
G02*
X263234600Y-110296999I0J-249999D01*
G01*
X263234600Y-111597001D01*
G75*
G02*
X262984601Y-111847000I-249999J0D01*
G01*
X262159599Y-111847000D01*
G75*
G02*
X261909600Y-111597001I0J249999D01*
G01*
G37*
%TD.AperFunction*%
%TD*%
%TO.P,C3,2*%
%TO.N,GND*%
%TA.AperFunction,SMDPad,CuDef*%
G36*
G01*
X241920600Y-112004001D02*
X241920600Y-110703999D01*
G75*
G02*
X242170599Y-110454000I249999J0D01*
G01*
X242995601Y-110454000D01*
G75*
G02*
X243245600Y-110703999I0J-249999D01*
G01*
X243245600Y-112004001D01*
G75*
G02*
X242995601Y-112254000I-249999J0D01*
G01*
X242170599Y-112254000D01*
G75*
G02*
X241920600Y-112004001I0J249999D01*
G01*
G37*
%TD.AperFunction*%
%TO.P,C3,1*%
%TO.N,+5V*%
%TA.AperFunction,SMDPad,CuDef*%
G36*
G01*
X238795600Y-112004001D02*
X238795600Y-110703999D01*
G75*
G02*
X239045599Y-110454000I249999J0D01*
G01*
X239870601Y-110454000D01*
G75*
G02*
X240120600Y-110703999I0J-249999D01*
G01*
X240120600Y-112004001D01*
G75*
G02*
X239870601Y-112254000I-249999J0D01*
G01*
X239045599Y-112254000D01*
G75*
G02*
X238795600Y-112004001I0J249999D01*
G01*
G37*
%TD.AperFunction*%
%TD*%
%TO.P,C2,2*%
%TO.N,GND*%
%TA.AperFunction,SMDPad,CuDef*%
G36*
G01*
X220584600Y-111597001D02*
X220584600Y-110296999D01*
G75*
G02*
X220834599Y-110047000I249999J0D01*
G01*
X221659601Y-110047000D01*
G75*
G02*
X221909600Y-110296999I0J-249999D01*
G01*
X221909600Y-111597001D01*
G75*
G02*
X221659601Y-111847000I-249999J0D01*
G01*
X220834599Y-111847000D01*
G75*
G02*
X220584600Y-111597001I0J249999D01*
G01*
G37*
%TD.AperFunction*%
%TO.P,C2,1*%
%TO.N,+5V*%
%TA.AperFunction,SMDPad,CuDef*%
G36*
G01*
X217459600Y-111597001D02*
X217459600Y-110296999D01*
G75*
G02*
X217709599Y-110047000I249999J0D01*
G01*
X218534601Y-110047000D01*
G75*
G02*
X218784600Y-110296999I0J-249999D01*
G01*
X218784600Y-111597001D01*
G75*
G02*
X218534601Y-111847000I-249999J0D01*
G01*
X217709599Y-111847000D01*
G75*
G02*
X217459600Y-111597001I0J249999D01*
G01*
G37*
%TD.AperFunction*%
%TD*%
%TO.P,C1,2*%
%TO.N,GND*%
%TA.AperFunction,SMDPad,CuDef*%
G36*
G01*
X198994600Y-111597001D02*
X198994600Y-110296999D01*
G75*
G02*
X199244599Y-110047000I249999J0D01*
G01*
X200069601Y-110047000D01*
G75*
G02*
X200319600Y-110296999I0J-249999D01*
G01*
X200319600Y-111597001D01*
G75*
G02*
X200069601Y-111847000I-249999J0D01*
G01*
X199244599Y-111847000D01*
G75*
G02*
X198994600Y-111597001I0J249999D01*
G01*
G37*
%TD.AperFunction*%
%TO.P,C1,1*%
%TO.N,+5V*%
%TA.AperFunction,SMDPad,CuDef*%
G36*
G01*
X195869600Y-111597001D02*
X195869600Y-110296999D01*
G75*
G02*
X196119599Y-110047000I249999J0D01*
G01*
X196944601Y-110047000D01*
G75*
G02*
X197194600Y-110296999I0J-249999D01*
G01*
X197194600Y-111597001D01*
G75*
G02*
X196944601Y-111847000I-249999J0D01*
G01*
X196119599Y-111847000D01*
G75*
G02*
X195869600Y-111597001I0J249999D01*
G01*
G37*
%TD.AperFunction*%
%TD*%
M02*
