%TF.GenerationSoftware,KiCad,Pcbnew,(5.1.9)-1*%
%TF.CreationDate,2021-06-21T17:11:14+02:00*%
%TF.ProjectId,opena3xx-mcdu,6f70656e-6133-4787-982d-6d6364752e6b,0.1*%
%TF.SameCoordinates,Original*%
%TF.FileFunction,Soldermask,Top*%
%TF.FilePolarity,Negative*%
%FSLAX46Y46*%
G04 Gerber Fmt 4.6, Leading zero omitted, Abs format (unit mm)*
G04 Created by KiCad (PCBNEW (5.1.9)-1) date 2021-06-21 17:11:14*
%MOMM*%
%LPD*%
G01*
G04 APERTURE LIST*
%ADD10C,3.000000*%
%ADD11R,3.000000X3.000000*%
%ADD12R,1.524000X1.524000*%
%ADD13C,1.700000*%
%ADD14O,1.700000X1.700000*%
%ADD15R,1.700000X1.700000*%
G04 APERTURE END LIST*
D10*
%TO.C,J3*%
X173482000Y-229260000D03*
D11*
X173482000Y-224180000D03*
%TD*%
D12*
%TO.C,SW74*%
X70168000Y-161328000D03*
X76268000Y-161328000D03*
X70168000Y-165828000D03*
X76268000Y-165828000D03*
X73268000Y-160678000D03*
X73268000Y-166478000D03*
%TD*%
D10*
%TO.C,J9*%
X173380000Y-167589000D03*
D11*
X173380000Y-162509000D03*
%TD*%
D12*
%TO.C,SW73*%
X142304000Y-135420000D03*
X148404000Y-135420000D03*
X142304000Y-139920000D03*
X148404000Y-139920000D03*
X145404000Y-134770000D03*
X145404000Y-140570000D03*
%TD*%
%TO.C,SW17*%
X127370000Y-140570000D03*
X127370000Y-134770000D03*
X130370000Y-139920000D03*
X124270000Y-139920000D03*
X130370000Y-135420000D03*
X124270000Y-135420000D03*
%TD*%
D10*
%TO.C,J8*%
X173380000Y-156896000D03*
D11*
X173380000Y-151816000D03*
%TD*%
D12*
%TO.C,SW3*%
X39145600Y-82657600D03*
X39145600Y-76857600D03*
X42145600Y-82007600D03*
X36045600Y-82007600D03*
X42145600Y-77507600D03*
X36045600Y-77507600D03*
%TD*%
%TO.C,SW72*%
X161812000Y-153778000D03*
X161812000Y-147978000D03*
X164812000Y-153128000D03*
X158712000Y-153128000D03*
X164812000Y-148628000D03*
X158712000Y-148628000D03*
%TD*%
%TO.C,SW71*%
X161812000Y-140570000D03*
X161812000Y-134770000D03*
X164812000Y-139920000D03*
X158712000Y-139920000D03*
X164812000Y-135420000D03*
X158712000Y-135420000D03*
%TD*%
D10*
%TO.C,J7*%
X173469000Y-124841000D03*
D11*
X173469000Y-119761000D03*
%TD*%
D10*
%TO.C,J6*%
X173469000Y-135636000D03*
D11*
X173469000Y-130556000D03*
%TD*%
D12*
%TO.C,SW25*%
X51272000Y-204755000D03*
X51272000Y-198955000D03*
X54272000Y-204105000D03*
X48172000Y-204105000D03*
X54272000Y-199605000D03*
X48172000Y-199605000D03*
%TD*%
D13*
%TO.C,SW100*%
X42824400Y-37033200D03*
X49324400Y-37033200D03*
X42824400Y-32533200D03*
X49324400Y-32533200D03*
%TD*%
D12*
%TO.C,SW70*%
X55259000Y-192538000D03*
X55259000Y-186738000D03*
X58259000Y-191888000D03*
X52159000Y-191888000D03*
X58259000Y-187388000D03*
X52159000Y-187388000D03*
%TD*%
%TO.C,SW69*%
X55361000Y-179482000D03*
X55361000Y-173682000D03*
X58361000Y-178832000D03*
X52261000Y-178832000D03*
X58361000Y-174332000D03*
X52261000Y-174332000D03*
%TD*%
%TO.C,SW68*%
X73319000Y-192563000D03*
X73319000Y-186763000D03*
X76319000Y-191913000D03*
X70219000Y-191913000D03*
X76319000Y-187413000D03*
X70219000Y-187413000D03*
%TD*%
%TO.C,SW67*%
X73243000Y-179508000D03*
X73243000Y-173708000D03*
X76243000Y-178858000D03*
X70143000Y-178858000D03*
X76243000Y-174358000D03*
X70143000Y-174358000D03*
%TD*%
%TO.C,SW66*%
X157342000Y-239757000D03*
X157342000Y-233957000D03*
X160342000Y-239107000D03*
X154242000Y-239107000D03*
X160342000Y-234607000D03*
X154242000Y-234607000D03*
%TD*%
%TO.C,SW65*%
X142305000Y-239757000D03*
X142305000Y-233957000D03*
X145305000Y-239107000D03*
X139205000Y-239107000D03*
X145305000Y-234607000D03*
X139205000Y-234607000D03*
%TD*%
%TO.C,SW64*%
X127294000Y-239782000D03*
X127294000Y-233982000D03*
X130294000Y-239132000D03*
X124194000Y-239132000D03*
X130294000Y-234632000D03*
X124194000Y-234632000D03*
%TD*%
%TO.C,SW63*%
X112333000Y-239782000D03*
X112333000Y-233982000D03*
X115333000Y-239132000D03*
X109233000Y-239132000D03*
X115333000Y-234632000D03*
X109233000Y-234632000D03*
%TD*%
%TO.C,SW62*%
X97271000Y-239782000D03*
X97271000Y-233982000D03*
X100271000Y-239132000D03*
X94171000Y-239132000D03*
X100271000Y-234632000D03*
X94171000Y-234632000D03*
%TD*%
%TO.C,SW61*%
X157266000Y-225787000D03*
X157266000Y-219987000D03*
X160266000Y-225137000D03*
X154166000Y-225137000D03*
X160266000Y-220637000D03*
X154166000Y-220637000D03*
%TD*%
%TO.C,SW60*%
X142178000Y-225761000D03*
X142178000Y-219961000D03*
X145178000Y-225111000D03*
X139078000Y-225111000D03*
X145178000Y-220611000D03*
X139078000Y-220611000D03*
%TD*%
%TO.C,SW59*%
X127294000Y-225787000D03*
X127294000Y-219987000D03*
X130294000Y-225137000D03*
X124194000Y-225137000D03*
X130294000Y-220637000D03*
X124194000Y-220637000D03*
%TD*%
%TO.C,SW58*%
X112206000Y-225787000D03*
X112206000Y-219987000D03*
X115206000Y-225137000D03*
X109106000Y-225137000D03*
X115206000Y-220637000D03*
X109106000Y-220637000D03*
%TD*%
%TO.C,SW57*%
X97169000Y-225761000D03*
X97169000Y-219961000D03*
X100169000Y-225111000D03*
X94069000Y-225111000D03*
X100169000Y-220611000D03*
X94069000Y-220611000D03*
%TD*%
%TO.C,SW56*%
X157367000Y-211766000D03*
X157367000Y-205966000D03*
X160367000Y-211116000D03*
X154267000Y-211116000D03*
X160367000Y-206616000D03*
X154267000Y-206616000D03*
%TD*%
%TO.C,SW55*%
X142153000Y-211740000D03*
X142153000Y-205940000D03*
X145153000Y-211090000D03*
X139053000Y-211090000D03*
X145153000Y-206590000D03*
X139053000Y-206590000D03*
%TD*%
%TO.C,SW54*%
X127294000Y-211740000D03*
X127294000Y-205940000D03*
X130294000Y-211090000D03*
X124194000Y-211090000D03*
X130294000Y-206590000D03*
X124194000Y-206590000D03*
%TD*%
%TO.C,SW53*%
X112206000Y-211715000D03*
X112206000Y-205915000D03*
X115206000Y-211065000D03*
X109106000Y-211065000D03*
X115206000Y-206565000D03*
X109106000Y-206565000D03*
%TD*%
%TO.C,SW52*%
X97093000Y-211715000D03*
X97093000Y-205915000D03*
X100093000Y-211065000D03*
X93993000Y-211065000D03*
X100093000Y-206565000D03*
X93993000Y-206565000D03*
%TD*%
%TO.C,SW51*%
X157240000Y-197720000D03*
X157240000Y-191920000D03*
X160240000Y-197070000D03*
X154140000Y-197070000D03*
X160240000Y-192570000D03*
X154140000Y-192570000D03*
%TD*%
%TO.C,SW50*%
X142204000Y-197770000D03*
X142204000Y-191970000D03*
X145204000Y-197120000D03*
X139104000Y-197120000D03*
X145204000Y-192620000D03*
X139104000Y-192620000D03*
%TD*%
%TO.C,SW49*%
X127268000Y-197745000D03*
X127268000Y-191945000D03*
X130268000Y-197095000D03*
X124168000Y-197095000D03*
X130268000Y-192595000D03*
X124168000Y-192595000D03*
%TD*%
%TO.C,SW48*%
X112308000Y-197745000D03*
X112308000Y-191945000D03*
X115308000Y-197095000D03*
X109208000Y-197095000D03*
X115308000Y-192595000D03*
X109208000Y-192595000D03*
%TD*%
%TO.C,SW47*%
X97195000Y-197745000D03*
X97195000Y-191945000D03*
X100195000Y-197095000D03*
X94095000Y-197095000D03*
X100195000Y-192595000D03*
X94095000Y-192595000D03*
%TD*%
%TO.C,SW46*%
X157240000Y-183750000D03*
X157240000Y-177950000D03*
X160240000Y-183100000D03*
X154140000Y-183100000D03*
X160240000Y-178600000D03*
X154140000Y-178600000D03*
%TD*%
%TO.C,SW45*%
X142280000Y-183750000D03*
X142280000Y-177950000D03*
X145280000Y-183100000D03*
X139180000Y-183100000D03*
X145280000Y-178600000D03*
X139180000Y-178600000D03*
%TD*%
%TO.C,SW44*%
X127345000Y-183750000D03*
X127345000Y-177950000D03*
X130345000Y-183100000D03*
X124245000Y-183100000D03*
X130345000Y-178600000D03*
X124245000Y-178600000D03*
%TD*%
%TO.C,SW43*%
X112308000Y-183775000D03*
X112308000Y-177975000D03*
X115308000Y-183125000D03*
X109208000Y-183125000D03*
X115308000Y-178625000D03*
X109208000Y-178625000D03*
%TD*%
%TO.C,SW42*%
X97169000Y-183775000D03*
X97169000Y-177975000D03*
X100169000Y-183125000D03*
X94069000Y-183125000D03*
X100169000Y-178625000D03*
X94069000Y-178625000D03*
%TD*%
%TO.C,SW41*%
X157266000Y-169780000D03*
X157266000Y-163980000D03*
X160266000Y-169130000D03*
X154166000Y-169130000D03*
X160266000Y-164630000D03*
X154166000Y-164630000D03*
%TD*%
%TO.C,SW40*%
X142305000Y-169780000D03*
X142305000Y-163980000D03*
X145305000Y-169130000D03*
X139205000Y-169130000D03*
X145305000Y-164630000D03*
X139205000Y-164630000D03*
%TD*%
%TO.C,SW39*%
X127345000Y-169754000D03*
X127345000Y-163954000D03*
X130345000Y-169104000D03*
X124245000Y-169104000D03*
X130345000Y-164604000D03*
X124245000Y-164604000D03*
%TD*%
%TO.C,SW38*%
X112257000Y-169754000D03*
X112257000Y-163954000D03*
X115257000Y-169104000D03*
X109157000Y-169104000D03*
X115257000Y-164604000D03*
X109157000Y-164604000D03*
%TD*%
%TO.C,SW37*%
X97246000Y-169729000D03*
X97246000Y-163929000D03*
X100246000Y-169079000D03*
X94146000Y-169079000D03*
X100246000Y-164579000D03*
X94146000Y-164579000D03*
%TD*%
%TO.C,SW36*%
X81218000Y-240696000D03*
X81218000Y-234896000D03*
X84218000Y-240046000D03*
X78118000Y-240046000D03*
X84218000Y-235546000D03*
X78118000Y-235546000D03*
%TD*%
%TO.C,SW35*%
X66192000Y-240750000D03*
X66192000Y-234950000D03*
X69192000Y-240100000D03*
X63092000Y-240100000D03*
X69192000Y-235600000D03*
X63092000Y-235600000D03*
%TD*%
%TO.C,SW34*%
X51232000Y-240750000D03*
X51232000Y-234950000D03*
X54232000Y-240100000D03*
X48132000Y-240100000D03*
X54232000Y-235600000D03*
X48132000Y-235600000D03*
%TD*%
%TO.C,SW33*%
X81218000Y-228784000D03*
X81218000Y-222984000D03*
X84218000Y-228134000D03*
X78118000Y-228134000D03*
X84218000Y-223634000D03*
X78118000Y-223634000D03*
%TD*%
%TO.C,SW32*%
X66181000Y-228758000D03*
X66181000Y-222958000D03*
X69181000Y-228108000D03*
X63081000Y-228108000D03*
X69181000Y-223608000D03*
X63081000Y-223608000D03*
%TD*%
%TO.C,SW31*%
X51246000Y-228733000D03*
X51246000Y-222933000D03*
X54246000Y-228083000D03*
X48146000Y-228083000D03*
X54246000Y-223583000D03*
X48146000Y-223583000D03*
%TD*%
%TO.C,SW30*%
X81244000Y-216744000D03*
X81244000Y-210944000D03*
X84244000Y-216094000D03*
X78144000Y-216094000D03*
X84244000Y-211594000D03*
X78144000Y-211594000D03*
%TD*%
%TO.C,SW29*%
X66181000Y-216744000D03*
X66181000Y-210944000D03*
X69181000Y-216094000D03*
X63081000Y-216094000D03*
X69181000Y-211594000D03*
X63081000Y-211594000D03*
%TD*%
%TO.C,SW28*%
X51246000Y-216719000D03*
X51246000Y-210919000D03*
X54246000Y-216069000D03*
X48146000Y-216069000D03*
X54246000Y-211569000D03*
X48146000Y-211569000D03*
%TD*%
%TO.C,SW27*%
X81193000Y-204730000D03*
X81193000Y-198930000D03*
X84193000Y-204080000D03*
X78093000Y-204080000D03*
X84193000Y-199580000D03*
X78093000Y-199580000D03*
%TD*%
%TO.C,SW26*%
X66232000Y-204755000D03*
X66232000Y-198955000D03*
X69232000Y-204105000D03*
X63132000Y-204105000D03*
X69232000Y-199605000D03*
X63132000Y-199605000D03*
%TD*%
%TO.C,SW24*%
X55285000Y-166478000D03*
X55285000Y-160678000D03*
X58285000Y-165828000D03*
X52185000Y-165828000D03*
X58285000Y-161328000D03*
X52185000Y-161328000D03*
%TD*%
%TO.C,SW23*%
X145429000Y-153574000D03*
X145429000Y-147774000D03*
X148429000Y-152924000D03*
X142329000Y-152924000D03*
X148429000Y-148424000D03*
X142329000Y-148424000D03*
%TD*%
%TO.C,SW22*%
X127294000Y-153574000D03*
X127294000Y-147774000D03*
X130294000Y-152924000D03*
X124194000Y-152924000D03*
X130294000Y-148424000D03*
X124194000Y-148424000D03*
%TD*%
%TO.C,SW21*%
X109412000Y-153574000D03*
X109412000Y-147774000D03*
X112412000Y-152924000D03*
X106312000Y-152924000D03*
X112412000Y-148424000D03*
X106312000Y-148424000D03*
%TD*%
%TO.C,SW20*%
X91429000Y-153574000D03*
X91429000Y-147774000D03*
X94429000Y-152924000D03*
X88329000Y-152924000D03*
X94429000Y-148424000D03*
X88329000Y-148424000D03*
%TD*%
%TO.C,SW19*%
X73395000Y-153549000D03*
X73395000Y-147749000D03*
X76395000Y-152899000D03*
X70295000Y-152899000D03*
X76395000Y-148399000D03*
X70295000Y-148399000D03*
%TD*%
%TO.C,SW18*%
X55310000Y-153549000D03*
X55310000Y-147749000D03*
X58310000Y-152899000D03*
X52210000Y-152899000D03*
X58310000Y-148399000D03*
X52210000Y-148399000D03*
%TD*%
%TO.C,SW16*%
X109387000Y-140595000D03*
X109387000Y-134795000D03*
X112387000Y-139945000D03*
X106287000Y-139945000D03*
X112387000Y-135445000D03*
X106287000Y-135445000D03*
%TD*%
%TO.C,SW15*%
X91429000Y-140620000D03*
X91429000Y-134820000D03*
X94429000Y-139970000D03*
X88329000Y-139970000D03*
X94429000Y-135470000D03*
X88329000Y-135470000D03*
%TD*%
%TO.C,SW14*%
X73319000Y-140620000D03*
X73319000Y-134820000D03*
X76319000Y-139970000D03*
X70219000Y-139970000D03*
X76319000Y-135470000D03*
X70219000Y-135470000D03*
%TD*%
%TO.C,SW13*%
X55234000Y-140620000D03*
X55234000Y-134820000D03*
X58234000Y-139970000D03*
X52134000Y-139970000D03*
X58234000Y-135470000D03*
X52134000Y-135470000D03*
%TD*%
%TO.C,SW12*%
X171261000Y-114154000D03*
X171261000Y-108354000D03*
X174261000Y-113504000D03*
X168161000Y-113504000D03*
X174261000Y-109004000D03*
X168161000Y-109004000D03*
%TD*%
%TO.C,SW11*%
X171414000Y-103688800D03*
X171414000Y-97888800D03*
X174414000Y-103038800D03*
X168314000Y-103038800D03*
X174414000Y-98538800D03*
X168314000Y-98538800D03*
%TD*%
%TO.C,SW10*%
X171261000Y-93173200D03*
X171261000Y-87373200D03*
X174261000Y-92523200D03*
X168161000Y-92523200D03*
X174261000Y-88023200D03*
X168161000Y-88023200D03*
%TD*%
%TO.C,SW9*%
X171276000Y-82657600D03*
X171276000Y-76857600D03*
X174276000Y-82007600D03*
X168176000Y-82007600D03*
X174276000Y-77507600D03*
X168176000Y-77507600D03*
%TD*%
%TO.C,SW8*%
X171312000Y-72142000D03*
X171312000Y-66342000D03*
X174312000Y-71492000D03*
X168212000Y-71492000D03*
X174312000Y-66992000D03*
X168212000Y-66992000D03*
%TD*%
%TO.C,SW7*%
X171312000Y-61677200D03*
X171312000Y-55877200D03*
X174312000Y-61027200D03*
X168212000Y-61027200D03*
X174312000Y-56527200D03*
X168212000Y-56527200D03*
%TD*%
%TO.C,SW6*%
X39130400Y-114154000D03*
X39130400Y-108354000D03*
X42130400Y-113504000D03*
X36030400Y-113504000D03*
X42130400Y-109004000D03*
X36030400Y-109004000D03*
%TD*%
%TO.C,SW5*%
X39120200Y-103688800D03*
X39120200Y-97888800D03*
X42120200Y-103038800D03*
X36020200Y-103038800D03*
X42120200Y-98538800D03*
X36020200Y-98538800D03*
%TD*%
%TO.C,SW4*%
X39181200Y-93173200D03*
X39181200Y-87373200D03*
X42181200Y-92523200D03*
X36081200Y-92523200D03*
X42181200Y-88023200D03*
X36081200Y-88023200D03*
%TD*%
%TO.C,SW2*%
X39232000Y-72142000D03*
X39232000Y-66342000D03*
X42232000Y-71492000D03*
X36132000Y-71492000D03*
X42232000Y-66992000D03*
X36132000Y-66992000D03*
%TD*%
%TO.C,SW1*%
X39130400Y-61626400D03*
X39130400Y-55826400D03*
X42130400Y-60976400D03*
X36030400Y-60976400D03*
X42130400Y-56476400D03*
X36030400Y-56476400D03*
%TD*%
D10*
%TO.C,J4*%
X173482000Y-218643000D03*
D11*
X173482000Y-213563000D03*
%TD*%
D14*
%TO.C,J5*%
X128904600Y-72847200D03*
X128904600Y-70307200D03*
X126364600Y-72847200D03*
X126364600Y-70307200D03*
X123824600Y-72847200D03*
X123824600Y-70307200D03*
X121284600Y-72847200D03*
X121284600Y-70307200D03*
X118744600Y-72847200D03*
X118744600Y-70307200D03*
X116204600Y-72847200D03*
X116204600Y-70307200D03*
X113664600Y-72847200D03*
X113664600Y-70307200D03*
X111124600Y-72847200D03*
X111124600Y-70307200D03*
X108584600Y-72847200D03*
X108584600Y-70307200D03*
X106044600Y-72847200D03*
X106044600Y-70307200D03*
X103504600Y-72847200D03*
X103504600Y-70307200D03*
X100964600Y-72847200D03*
X100964600Y-70307200D03*
X98424600Y-72847200D03*
X98424600Y-70307200D03*
X95884600Y-72847200D03*
X95884600Y-70307200D03*
X93344600Y-72847200D03*
X93344600Y-70307200D03*
X90804600Y-72847200D03*
X90804600Y-70307200D03*
X88264600Y-72847200D03*
X88264600Y-70307200D03*
X85724600Y-72847200D03*
X85724600Y-70307200D03*
X83184600Y-72847200D03*
X83184600Y-70307200D03*
X80644600Y-72847200D03*
D15*
X80644600Y-70307200D03*
%TD*%
D10*
%TO.C,J2*%
X37782000Y-211925000D03*
D11*
X37782000Y-217005000D03*
%TD*%
D10*
%TO.C,J1*%
X37782000Y-222529000D03*
D11*
X37782000Y-227609000D03*
%TD*%
%TO.C,D11*%
G36*
G01*
X39804000Y-204470000D02*
X38554000Y-204470000D01*
G75*
G02*
X38304000Y-204220000I0J250000D01*
G01*
X38304000Y-203295000D01*
G75*
G02*
X38554000Y-203045000I250000J0D01*
G01*
X39804000Y-203045000D01*
G75*
G02*
X40054000Y-203295000I0J-250000D01*
G01*
X40054000Y-204220000D01*
G75*
G02*
X39804000Y-204470000I-250000J0D01*
G01*
G37*
G36*
G01*
X39804000Y-207445000D02*
X38554000Y-207445000D01*
G75*
G02*
X38304000Y-207195000I0J250000D01*
G01*
X38304000Y-206270000D01*
G75*
G02*
X38554000Y-206020000I250000J0D01*
G01*
X39804000Y-206020000D01*
G75*
G02*
X40054000Y-206270000I0J-250000D01*
G01*
X40054000Y-207195000D01*
G75*
G02*
X39804000Y-207445000I-250000J0D01*
G01*
G37*
%TD*%
%TO.C,D10*%
G36*
G01*
X171770000Y-193586000D02*
X170520000Y-193586000D01*
G75*
G02*
X170270000Y-193336000I0J250000D01*
G01*
X170270000Y-192411000D01*
G75*
G02*
X170520000Y-192161000I250000J0D01*
G01*
X171770000Y-192161000D01*
G75*
G02*
X172020000Y-192411000I0J-250000D01*
G01*
X172020000Y-193336000D01*
G75*
G02*
X171770000Y-193586000I-250000J0D01*
G01*
G37*
G36*
G01*
X171770000Y-196561000D02*
X170520000Y-196561000D01*
G75*
G02*
X170270000Y-196311000I0J250000D01*
G01*
X170270000Y-195386000D01*
G75*
G02*
X170520000Y-195136000I250000J0D01*
G01*
X171770000Y-195136000D01*
G75*
G02*
X172020000Y-195386000I0J-250000D01*
G01*
X172020000Y-196311000D01*
G75*
G02*
X171770000Y-196561000I-250000J0D01*
G01*
G37*
%TD*%
%TO.C,D9*%
G36*
G01*
X39741000Y-186626000D02*
X38491000Y-186626000D01*
G75*
G02*
X38241000Y-186376000I0J250000D01*
G01*
X38241000Y-185451000D01*
G75*
G02*
X38491000Y-185201000I250000J0D01*
G01*
X39741000Y-185201000D01*
G75*
G02*
X39991000Y-185451000I0J-250000D01*
G01*
X39991000Y-186376000D01*
G75*
G02*
X39741000Y-186626000I-250000J0D01*
G01*
G37*
G36*
G01*
X39741000Y-189601000D02*
X38491000Y-189601000D01*
G75*
G02*
X38241000Y-189351000I0J250000D01*
G01*
X38241000Y-188426000D01*
G75*
G02*
X38491000Y-188176000I250000J0D01*
G01*
X39741000Y-188176000D01*
G75*
G02*
X39991000Y-188426000I0J-250000D01*
G01*
X39991000Y-189351000D01*
G75*
G02*
X39741000Y-189601000I-250000J0D01*
G01*
G37*
%TD*%
%TO.C,D8*%
G36*
G01*
X105868000Y-30228700D02*
X105868000Y-28978700D01*
G75*
G02*
X106118000Y-28728700I250000J0D01*
G01*
X107043000Y-28728700D01*
G75*
G02*
X107293000Y-28978700I0J-250000D01*
G01*
X107293000Y-30228700D01*
G75*
G02*
X107043000Y-30478700I-250000J0D01*
G01*
X106118000Y-30478700D01*
G75*
G02*
X105868000Y-30228700I0J250000D01*
G01*
G37*
G36*
G01*
X102893000Y-30228700D02*
X102893000Y-28978700D01*
G75*
G02*
X103143000Y-28728700I250000J0D01*
G01*
X104068000Y-28728700D01*
G75*
G02*
X104318000Y-28978700I0J-250000D01*
G01*
X104318000Y-30228700D01*
G75*
G02*
X104068000Y-30478700I-250000J0D01*
G01*
X103143000Y-30478700D01*
G75*
G02*
X102893000Y-30228700I0J250000D01*
G01*
G37*
%TD*%
%TO.C,D7*%
G36*
G01*
X91008000Y-30228700D02*
X91008000Y-28978700D01*
G75*
G02*
X91258000Y-28728700I250000J0D01*
G01*
X92183000Y-28728700D01*
G75*
G02*
X92433000Y-28978700I0J-250000D01*
G01*
X92433000Y-30228700D01*
G75*
G02*
X92183000Y-30478700I-250000J0D01*
G01*
X91258000Y-30478700D01*
G75*
G02*
X91008000Y-30228700I0J250000D01*
G01*
G37*
G36*
G01*
X88033000Y-30228700D02*
X88033000Y-28978700D01*
G75*
G02*
X88283000Y-28728700I250000J0D01*
G01*
X89208000Y-28728700D01*
G75*
G02*
X89458000Y-28978700I0J-250000D01*
G01*
X89458000Y-30228700D01*
G75*
G02*
X89208000Y-30478700I-250000J0D01*
G01*
X88283000Y-30478700D01*
G75*
G02*
X88033000Y-30228700I0J250000D01*
G01*
G37*
%TD*%
%TO.C,D6*%
G36*
G01*
X135903000Y-30228700D02*
X135903000Y-28978700D01*
G75*
G02*
X136153000Y-28728700I250000J0D01*
G01*
X137078000Y-28728700D01*
G75*
G02*
X137328000Y-28978700I0J-250000D01*
G01*
X137328000Y-30228700D01*
G75*
G02*
X137078000Y-30478700I-250000J0D01*
G01*
X136153000Y-30478700D01*
G75*
G02*
X135903000Y-30228700I0J250000D01*
G01*
G37*
G36*
G01*
X132928000Y-30228700D02*
X132928000Y-28978700D01*
G75*
G02*
X133178000Y-28728700I250000J0D01*
G01*
X134103000Y-28728700D01*
G75*
G02*
X134353000Y-28978700I0J-250000D01*
G01*
X134353000Y-30228700D01*
G75*
G02*
X134103000Y-30478700I-250000J0D01*
G01*
X133178000Y-30478700D01*
G75*
G02*
X132928000Y-30228700I0J250000D01*
G01*
G37*
%TD*%
%TO.C,D5*%
G36*
G01*
X75768000Y-30165200D02*
X75768000Y-28915200D01*
G75*
G02*
X76018000Y-28665200I250000J0D01*
G01*
X76943000Y-28665200D01*
G75*
G02*
X77193000Y-28915200I0J-250000D01*
G01*
X77193000Y-30165200D01*
G75*
G02*
X76943000Y-30415200I-250000J0D01*
G01*
X76018000Y-30415200D01*
G75*
G02*
X75768000Y-30165200I0J250000D01*
G01*
G37*
G36*
G01*
X72793000Y-30165200D02*
X72793000Y-28915200D01*
G75*
G02*
X73043000Y-28665200I250000J0D01*
G01*
X73968000Y-28665200D01*
G75*
G02*
X74218000Y-28915200I0J-250000D01*
G01*
X74218000Y-30165200D01*
G75*
G02*
X73968000Y-30415200I-250000J0D01*
G01*
X73043000Y-30415200D01*
G75*
G02*
X72793000Y-30165200I0J250000D01*
G01*
G37*
%TD*%
M02*
