%TF.GenerationSoftware,KiCad,Pcbnew,(5.1.9)-1*%
%TF.CreationDate,2021-06-21T17:11:14+02:00*%
%TF.ProjectId,opena3xx-mcdu,6f70656e-6133-4787-982d-6d6364752e6b,0.1*%
%TF.SameCoordinates,Original*%
%TF.FileFunction,Other,Fab,Top*%
%FSLAX46Y46*%
G04 Gerber Fmt 4.6, Leading zero omitted, Abs format (unit mm)*
G04 Created by KiCad (PCBNEW (5.1.9)-1) date 2021-06-21 17:11:14*
%MOMM*%
%LPD*%
G01*
G04 APERTURE LIST*
%ADD10C,0.100000*%
%ADD11C,0.150000*%
%ADD12C,0.120000*%
G04 APERTURE END LIST*
D10*
%TO.C,D11*%
X39979000Y-203645000D02*
X38379000Y-203645000D01*
X39979000Y-206845000D02*
X39979000Y-203645000D01*
X38779000Y-206845000D02*
X39979000Y-206845000D01*
X38379000Y-206445000D02*
X38779000Y-206845000D01*
X38379000Y-203645000D02*
X38379000Y-206445000D01*
%TO.C,D10*%
X171945000Y-192761000D02*
X170345000Y-192761000D01*
X171945000Y-195961000D02*
X171945000Y-192761000D01*
X170745000Y-195961000D02*
X171945000Y-195961000D01*
X170345000Y-195561000D02*
X170745000Y-195961000D01*
X170345000Y-192761000D02*
X170345000Y-195561000D01*
%TO.C,D9*%
X39916000Y-185801000D02*
X38316000Y-185801000D01*
X39916000Y-189001000D02*
X39916000Y-185801000D01*
X38716000Y-189001000D02*
X39916000Y-189001000D01*
X38316000Y-188601000D02*
X38716000Y-189001000D01*
X38316000Y-185801000D02*
X38316000Y-188601000D01*
%TO.C,D8*%
X106693000Y-30403700D02*
X106693000Y-28803700D01*
X103493000Y-30403700D02*
X106693000Y-30403700D01*
X103493000Y-29203700D02*
X103493000Y-30403700D01*
X103893000Y-28803700D02*
X103493000Y-29203700D01*
X106693000Y-28803700D02*
X103893000Y-28803700D01*
%TO.C,D7*%
X91833000Y-30403700D02*
X91833000Y-28803700D01*
X88633000Y-30403700D02*
X91833000Y-30403700D01*
X88633000Y-29203700D02*
X88633000Y-30403700D01*
X89033000Y-28803700D02*
X88633000Y-29203700D01*
X91833000Y-28803700D02*
X89033000Y-28803700D01*
%TO.C,D6*%
X136728000Y-30403700D02*
X136728000Y-28803700D01*
X133528000Y-30403700D02*
X136728000Y-30403700D01*
X133528000Y-29203700D02*
X133528000Y-30403700D01*
X133928000Y-28803700D02*
X133528000Y-29203700D01*
X136728000Y-28803700D02*
X133928000Y-28803700D01*
%TO.C,D5*%
X76593000Y-30340200D02*
X76593000Y-28740200D01*
X73393000Y-30340200D02*
X76593000Y-30340200D01*
X73393000Y-29140200D02*
X73393000Y-30340200D01*
X73793000Y-28740200D02*
X73393000Y-29140200D01*
X76593000Y-28740200D02*
X73793000Y-28740200D01*
%TD*%
%TO.C,SW74*%
D11*
X71548952Y-156410380D02*
X72120380Y-156410380D01*
X71834666Y-157410380D02*
X71834666Y-156410380D01*
X72929904Y-157410380D02*
X72453714Y-157410380D01*
X72453714Y-156410380D01*
X73739428Y-157410380D02*
X73263238Y-157410380D01*
X73263238Y-156410380D01*
X74072761Y-157029428D02*
X74834666Y-157029428D01*
X75739428Y-156410380D02*
X75548952Y-156410380D01*
X75453714Y-156458000D01*
X75406095Y-156505619D01*
X75310857Y-156648476D01*
X75263238Y-156838952D01*
X75263238Y-157219904D01*
X75310857Y-157315142D01*
X75358476Y-157362761D01*
X75453714Y-157410380D01*
X75644190Y-157410380D01*
X75739428Y-157362761D01*
X75787047Y-157315142D01*
X75834666Y-157219904D01*
X75834666Y-156981809D01*
X75787047Y-156886571D01*
X75739428Y-156838952D01*
X75644190Y-156791333D01*
X75453714Y-156791333D01*
X75358476Y-156838952D01*
X75310857Y-156886571D01*
X75263238Y-156981809D01*
X76215619Y-157124666D02*
X76691809Y-157124666D01*
X76120380Y-157410380D02*
X76453714Y-156410380D01*
X76787047Y-157410380D01*
%TO.C,SW73*%
X143684952Y-130502380D02*
X144256380Y-130502380D01*
X143970666Y-131502380D02*
X143970666Y-130502380D01*
X145065904Y-131502380D02*
X144589714Y-131502380D01*
X144589714Y-130502380D01*
X145875428Y-131502380D02*
X145399238Y-131502380D01*
X145399238Y-130502380D01*
X146208761Y-131121428D02*
X146970666Y-131121428D01*
X147875428Y-130502380D02*
X147684952Y-130502380D01*
X147589714Y-130550000D01*
X147542095Y-130597619D01*
X147446857Y-130740476D01*
X147399238Y-130930952D01*
X147399238Y-131311904D01*
X147446857Y-131407142D01*
X147494476Y-131454761D01*
X147589714Y-131502380D01*
X147780190Y-131502380D01*
X147875428Y-131454761D01*
X147923047Y-131407142D01*
X147970666Y-131311904D01*
X147970666Y-131073809D01*
X147923047Y-130978571D01*
X147875428Y-130930952D01*
X147780190Y-130883333D01*
X147589714Y-130883333D01*
X147494476Y-130930952D01*
X147446857Y-130978571D01*
X147399238Y-131073809D01*
X148351619Y-131216666D02*
X148827809Y-131216666D01*
X148256380Y-131502380D02*
X148589714Y-130502380D01*
X148923047Y-131502380D01*
%TO.C,SW17*%
X125650952Y-130502380D02*
X126222380Y-130502380D01*
X125936666Y-131502380D02*
X125936666Y-130502380D01*
X127031904Y-131502380D02*
X126555714Y-131502380D01*
X126555714Y-130502380D01*
X127841428Y-131502380D02*
X127365238Y-131502380D01*
X127365238Y-130502380D01*
X128174761Y-131121428D02*
X128936666Y-131121428D01*
X129841428Y-130502380D02*
X129650952Y-130502380D01*
X129555714Y-130550000D01*
X129508095Y-130597619D01*
X129412857Y-130740476D01*
X129365238Y-130930952D01*
X129365238Y-131311904D01*
X129412857Y-131407142D01*
X129460476Y-131454761D01*
X129555714Y-131502380D01*
X129746190Y-131502380D01*
X129841428Y-131454761D01*
X129889047Y-131407142D01*
X129936666Y-131311904D01*
X129936666Y-131073809D01*
X129889047Y-130978571D01*
X129841428Y-130930952D01*
X129746190Y-130883333D01*
X129555714Y-130883333D01*
X129460476Y-130930952D01*
X129412857Y-130978571D01*
X129365238Y-131073809D01*
X130317619Y-131216666D02*
X130793809Y-131216666D01*
X130222380Y-131502380D02*
X130555714Y-130502380D01*
X130889047Y-131502380D01*
%TO.C,SW3*%
X37426552Y-72589980D02*
X37997980Y-72589980D01*
X37712266Y-73589980D02*
X37712266Y-72589980D01*
X38807504Y-73589980D02*
X38331314Y-73589980D01*
X38331314Y-72589980D01*
X39617028Y-73589980D02*
X39140838Y-73589980D01*
X39140838Y-72589980D01*
X39950361Y-73209028D02*
X40712266Y-73209028D01*
X41617028Y-72589980D02*
X41426552Y-72589980D01*
X41331314Y-72637600D01*
X41283695Y-72685219D01*
X41188457Y-72828076D01*
X41140838Y-73018552D01*
X41140838Y-73399504D01*
X41188457Y-73494742D01*
X41236076Y-73542361D01*
X41331314Y-73589980D01*
X41521790Y-73589980D01*
X41617028Y-73542361D01*
X41664647Y-73494742D01*
X41712266Y-73399504D01*
X41712266Y-73161409D01*
X41664647Y-73066171D01*
X41617028Y-73018552D01*
X41521790Y-72970933D01*
X41331314Y-72970933D01*
X41236076Y-73018552D01*
X41188457Y-73066171D01*
X41140838Y-73161409D01*
X42093219Y-73304266D02*
X42569409Y-73304266D01*
X41997980Y-73589980D02*
X42331314Y-72589980D01*
X42664647Y-73589980D01*
%TO.C,SW72*%
X160092952Y-143710380D02*
X160664380Y-143710380D01*
X160378666Y-144710380D02*
X160378666Y-143710380D01*
X161473904Y-144710380D02*
X160997714Y-144710380D01*
X160997714Y-143710380D01*
X162283428Y-144710380D02*
X161807238Y-144710380D01*
X161807238Y-143710380D01*
X162616761Y-144329428D02*
X163378666Y-144329428D01*
X164283428Y-143710380D02*
X164092952Y-143710380D01*
X163997714Y-143758000D01*
X163950095Y-143805619D01*
X163854857Y-143948476D01*
X163807238Y-144138952D01*
X163807238Y-144519904D01*
X163854857Y-144615142D01*
X163902476Y-144662761D01*
X163997714Y-144710380D01*
X164188190Y-144710380D01*
X164283428Y-144662761D01*
X164331047Y-144615142D01*
X164378666Y-144519904D01*
X164378666Y-144281809D01*
X164331047Y-144186571D01*
X164283428Y-144138952D01*
X164188190Y-144091333D01*
X163997714Y-144091333D01*
X163902476Y-144138952D01*
X163854857Y-144186571D01*
X163807238Y-144281809D01*
X164759619Y-144424666D02*
X165235809Y-144424666D01*
X164664380Y-144710380D02*
X164997714Y-143710380D01*
X165331047Y-144710380D01*
%TO.C,SW71*%
X160092952Y-130502380D02*
X160664380Y-130502380D01*
X160378666Y-131502380D02*
X160378666Y-130502380D01*
X161473904Y-131502380D02*
X160997714Y-131502380D01*
X160997714Y-130502380D01*
X162283428Y-131502380D02*
X161807238Y-131502380D01*
X161807238Y-130502380D01*
X162616761Y-131121428D02*
X163378666Y-131121428D01*
X164283428Y-130502380D02*
X164092952Y-130502380D01*
X163997714Y-130550000D01*
X163950095Y-130597619D01*
X163854857Y-130740476D01*
X163807238Y-130930952D01*
X163807238Y-131311904D01*
X163854857Y-131407142D01*
X163902476Y-131454761D01*
X163997714Y-131502380D01*
X164188190Y-131502380D01*
X164283428Y-131454761D01*
X164331047Y-131407142D01*
X164378666Y-131311904D01*
X164378666Y-131073809D01*
X164331047Y-130978571D01*
X164283428Y-130930952D01*
X164188190Y-130883333D01*
X163997714Y-130883333D01*
X163902476Y-130930952D01*
X163854857Y-130978571D01*
X163807238Y-131073809D01*
X164759619Y-131216666D02*
X165235809Y-131216666D01*
X164664380Y-131502380D02*
X164997714Y-130502380D01*
X165331047Y-131502380D01*
%TO.C,SW25*%
X49552952Y-194687380D02*
X50124380Y-194687380D01*
X49838666Y-195687380D02*
X49838666Y-194687380D01*
X50933904Y-195687380D02*
X50457714Y-195687380D01*
X50457714Y-194687380D01*
X51743428Y-195687380D02*
X51267238Y-195687380D01*
X51267238Y-194687380D01*
X52076761Y-195306428D02*
X52838666Y-195306428D01*
X53743428Y-194687380D02*
X53552952Y-194687380D01*
X53457714Y-194735000D01*
X53410095Y-194782619D01*
X53314857Y-194925476D01*
X53267238Y-195115952D01*
X53267238Y-195496904D01*
X53314857Y-195592142D01*
X53362476Y-195639761D01*
X53457714Y-195687380D01*
X53648190Y-195687380D01*
X53743428Y-195639761D01*
X53791047Y-195592142D01*
X53838666Y-195496904D01*
X53838666Y-195258809D01*
X53791047Y-195163571D01*
X53743428Y-195115952D01*
X53648190Y-195068333D01*
X53457714Y-195068333D01*
X53362476Y-195115952D01*
X53314857Y-195163571D01*
X53267238Y-195258809D01*
X54219619Y-195401666D02*
X54695809Y-195401666D01*
X54124380Y-195687380D02*
X54457714Y-194687380D01*
X54791047Y-195687380D01*
%TO.C,SW70*%
X53539952Y-182470380D02*
X54111380Y-182470380D01*
X53825666Y-183470380D02*
X53825666Y-182470380D01*
X54920904Y-183470380D02*
X54444714Y-183470380D01*
X54444714Y-182470380D01*
X55730428Y-183470380D02*
X55254238Y-183470380D01*
X55254238Y-182470380D01*
X56063761Y-183089428D02*
X56825666Y-183089428D01*
X57730428Y-182470380D02*
X57539952Y-182470380D01*
X57444714Y-182518000D01*
X57397095Y-182565619D01*
X57301857Y-182708476D01*
X57254238Y-182898952D01*
X57254238Y-183279904D01*
X57301857Y-183375142D01*
X57349476Y-183422761D01*
X57444714Y-183470380D01*
X57635190Y-183470380D01*
X57730428Y-183422761D01*
X57778047Y-183375142D01*
X57825666Y-183279904D01*
X57825666Y-183041809D01*
X57778047Y-182946571D01*
X57730428Y-182898952D01*
X57635190Y-182851333D01*
X57444714Y-182851333D01*
X57349476Y-182898952D01*
X57301857Y-182946571D01*
X57254238Y-183041809D01*
X58206619Y-183184666D02*
X58682809Y-183184666D01*
X58111380Y-183470380D02*
X58444714Y-182470380D01*
X58778047Y-183470380D01*
%TO.C,SW69*%
X53641952Y-169414380D02*
X54213380Y-169414380D01*
X53927666Y-170414380D02*
X53927666Y-169414380D01*
X55022904Y-170414380D02*
X54546714Y-170414380D01*
X54546714Y-169414380D01*
X55832428Y-170414380D02*
X55356238Y-170414380D01*
X55356238Y-169414380D01*
X56165761Y-170033428D02*
X56927666Y-170033428D01*
X57832428Y-169414380D02*
X57641952Y-169414380D01*
X57546714Y-169462000D01*
X57499095Y-169509619D01*
X57403857Y-169652476D01*
X57356238Y-169842952D01*
X57356238Y-170223904D01*
X57403857Y-170319142D01*
X57451476Y-170366761D01*
X57546714Y-170414380D01*
X57737190Y-170414380D01*
X57832428Y-170366761D01*
X57880047Y-170319142D01*
X57927666Y-170223904D01*
X57927666Y-169985809D01*
X57880047Y-169890571D01*
X57832428Y-169842952D01*
X57737190Y-169795333D01*
X57546714Y-169795333D01*
X57451476Y-169842952D01*
X57403857Y-169890571D01*
X57356238Y-169985809D01*
X58308619Y-170128666D02*
X58784809Y-170128666D01*
X58213380Y-170414380D02*
X58546714Y-169414380D01*
X58880047Y-170414380D01*
%TO.C,SW68*%
X71599952Y-182495380D02*
X72171380Y-182495380D01*
X71885666Y-183495380D02*
X71885666Y-182495380D01*
X72980904Y-183495380D02*
X72504714Y-183495380D01*
X72504714Y-182495380D01*
X73790428Y-183495380D02*
X73314238Y-183495380D01*
X73314238Y-182495380D01*
X74123761Y-183114428D02*
X74885666Y-183114428D01*
X75790428Y-182495380D02*
X75599952Y-182495380D01*
X75504714Y-182543000D01*
X75457095Y-182590619D01*
X75361857Y-182733476D01*
X75314238Y-182923952D01*
X75314238Y-183304904D01*
X75361857Y-183400142D01*
X75409476Y-183447761D01*
X75504714Y-183495380D01*
X75695190Y-183495380D01*
X75790428Y-183447761D01*
X75838047Y-183400142D01*
X75885666Y-183304904D01*
X75885666Y-183066809D01*
X75838047Y-182971571D01*
X75790428Y-182923952D01*
X75695190Y-182876333D01*
X75504714Y-182876333D01*
X75409476Y-182923952D01*
X75361857Y-182971571D01*
X75314238Y-183066809D01*
X76266619Y-183209666D02*
X76742809Y-183209666D01*
X76171380Y-183495380D02*
X76504714Y-182495380D01*
X76838047Y-183495380D01*
%TO.C,SW67*%
X71523952Y-169440380D02*
X72095380Y-169440380D01*
X71809666Y-170440380D02*
X71809666Y-169440380D01*
X72904904Y-170440380D02*
X72428714Y-170440380D01*
X72428714Y-169440380D01*
X73714428Y-170440380D02*
X73238238Y-170440380D01*
X73238238Y-169440380D01*
X74047761Y-170059428D02*
X74809666Y-170059428D01*
X75714428Y-169440380D02*
X75523952Y-169440380D01*
X75428714Y-169488000D01*
X75381095Y-169535619D01*
X75285857Y-169678476D01*
X75238238Y-169868952D01*
X75238238Y-170249904D01*
X75285857Y-170345142D01*
X75333476Y-170392761D01*
X75428714Y-170440380D01*
X75619190Y-170440380D01*
X75714428Y-170392761D01*
X75762047Y-170345142D01*
X75809666Y-170249904D01*
X75809666Y-170011809D01*
X75762047Y-169916571D01*
X75714428Y-169868952D01*
X75619190Y-169821333D01*
X75428714Y-169821333D01*
X75333476Y-169868952D01*
X75285857Y-169916571D01*
X75238238Y-170011809D01*
X76190619Y-170154666D02*
X76666809Y-170154666D01*
X76095380Y-170440380D02*
X76428714Y-169440380D01*
X76762047Y-170440380D01*
%TO.C,SW66*%
X155622952Y-229689380D02*
X156194380Y-229689380D01*
X155908666Y-230689380D02*
X155908666Y-229689380D01*
X157003904Y-230689380D02*
X156527714Y-230689380D01*
X156527714Y-229689380D01*
X157813428Y-230689380D02*
X157337238Y-230689380D01*
X157337238Y-229689380D01*
X158146761Y-230308428D02*
X158908666Y-230308428D01*
X159813428Y-229689380D02*
X159622952Y-229689380D01*
X159527714Y-229737000D01*
X159480095Y-229784619D01*
X159384857Y-229927476D01*
X159337238Y-230117952D01*
X159337238Y-230498904D01*
X159384857Y-230594142D01*
X159432476Y-230641761D01*
X159527714Y-230689380D01*
X159718190Y-230689380D01*
X159813428Y-230641761D01*
X159861047Y-230594142D01*
X159908666Y-230498904D01*
X159908666Y-230260809D01*
X159861047Y-230165571D01*
X159813428Y-230117952D01*
X159718190Y-230070333D01*
X159527714Y-230070333D01*
X159432476Y-230117952D01*
X159384857Y-230165571D01*
X159337238Y-230260809D01*
X160289619Y-230403666D02*
X160765809Y-230403666D01*
X160194380Y-230689380D02*
X160527714Y-229689380D01*
X160861047Y-230689380D01*
%TO.C,SW65*%
X140585952Y-229689380D02*
X141157380Y-229689380D01*
X140871666Y-230689380D02*
X140871666Y-229689380D01*
X141966904Y-230689380D02*
X141490714Y-230689380D01*
X141490714Y-229689380D01*
X142776428Y-230689380D02*
X142300238Y-230689380D01*
X142300238Y-229689380D01*
X143109761Y-230308428D02*
X143871666Y-230308428D01*
X144776428Y-229689380D02*
X144585952Y-229689380D01*
X144490714Y-229737000D01*
X144443095Y-229784619D01*
X144347857Y-229927476D01*
X144300238Y-230117952D01*
X144300238Y-230498904D01*
X144347857Y-230594142D01*
X144395476Y-230641761D01*
X144490714Y-230689380D01*
X144681190Y-230689380D01*
X144776428Y-230641761D01*
X144824047Y-230594142D01*
X144871666Y-230498904D01*
X144871666Y-230260809D01*
X144824047Y-230165571D01*
X144776428Y-230117952D01*
X144681190Y-230070333D01*
X144490714Y-230070333D01*
X144395476Y-230117952D01*
X144347857Y-230165571D01*
X144300238Y-230260809D01*
X145252619Y-230403666D02*
X145728809Y-230403666D01*
X145157380Y-230689380D02*
X145490714Y-229689380D01*
X145824047Y-230689380D01*
%TO.C,SW64*%
X125574952Y-229714380D02*
X126146380Y-229714380D01*
X125860666Y-230714380D02*
X125860666Y-229714380D01*
X126955904Y-230714380D02*
X126479714Y-230714380D01*
X126479714Y-229714380D01*
X127765428Y-230714380D02*
X127289238Y-230714380D01*
X127289238Y-229714380D01*
X128098761Y-230333428D02*
X128860666Y-230333428D01*
X129765428Y-229714380D02*
X129574952Y-229714380D01*
X129479714Y-229762000D01*
X129432095Y-229809619D01*
X129336857Y-229952476D01*
X129289238Y-230142952D01*
X129289238Y-230523904D01*
X129336857Y-230619142D01*
X129384476Y-230666761D01*
X129479714Y-230714380D01*
X129670190Y-230714380D01*
X129765428Y-230666761D01*
X129813047Y-230619142D01*
X129860666Y-230523904D01*
X129860666Y-230285809D01*
X129813047Y-230190571D01*
X129765428Y-230142952D01*
X129670190Y-230095333D01*
X129479714Y-230095333D01*
X129384476Y-230142952D01*
X129336857Y-230190571D01*
X129289238Y-230285809D01*
X130241619Y-230428666D02*
X130717809Y-230428666D01*
X130146380Y-230714380D02*
X130479714Y-229714380D01*
X130813047Y-230714380D01*
%TO.C,SW63*%
X110613952Y-229714380D02*
X111185380Y-229714380D01*
X110899666Y-230714380D02*
X110899666Y-229714380D01*
X111994904Y-230714380D02*
X111518714Y-230714380D01*
X111518714Y-229714380D01*
X112804428Y-230714380D02*
X112328238Y-230714380D01*
X112328238Y-229714380D01*
X113137761Y-230333428D02*
X113899666Y-230333428D01*
X114804428Y-229714380D02*
X114613952Y-229714380D01*
X114518714Y-229762000D01*
X114471095Y-229809619D01*
X114375857Y-229952476D01*
X114328238Y-230142952D01*
X114328238Y-230523904D01*
X114375857Y-230619142D01*
X114423476Y-230666761D01*
X114518714Y-230714380D01*
X114709190Y-230714380D01*
X114804428Y-230666761D01*
X114852047Y-230619142D01*
X114899666Y-230523904D01*
X114899666Y-230285809D01*
X114852047Y-230190571D01*
X114804428Y-230142952D01*
X114709190Y-230095333D01*
X114518714Y-230095333D01*
X114423476Y-230142952D01*
X114375857Y-230190571D01*
X114328238Y-230285809D01*
X115280619Y-230428666D02*
X115756809Y-230428666D01*
X115185380Y-230714380D02*
X115518714Y-229714380D01*
X115852047Y-230714380D01*
%TO.C,SW62*%
X95551952Y-229714380D02*
X96123380Y-229714380D01*
X95837666Y-230714380D02*
X95837666Y-229714380D01*
X96932904Y-230714380D02*
X96456714Y-230714380D01*
X96456714Y-229714380D01*
X97742428Y-230714380D02*
X97266238Y-230714380D01*
X97266238Y-229714380D01*
X98075761Y-230333428D02*
X98837666Y-230333428D01*
X99742428Y-229714380D02*
X99551952Y-229714380D01*
X99456714Y-229762000D01*
X99409095Y-229809619D01*
X99313857Y-229952476D01*
X99266238Y-230142952D01*
X99266238Y-230523904D01*
X99313857Y-230619142D01*
X99361476Y-230666761D01*
X99456714Y-230714380D01*
X99647190Y-230714380D01*
X99742428Y-230666761D01*
X99790047Y-230619142D01*
X99837666Y-230523904D01*
X99837666Y-230285809D01*
X99790047Y-230190571D01*
X99742428Y-230142952D01*
X99647190Y-230095333D01*
X99456714Y-230095333D01*
X99361476Y-230142952D01*
X99313857Y-230190571D01*
X99266238Y-230285809D01*
X100218619Y-230428666D02*
X100694809Y-230428666D01*
X100123380Y-230714380D02*
X100456714Y-229714380D01*
X100790047Y-230714380D01*
%TO.C,SW61*%
X155546952Y-215719380D02*
X156118380Y-215719380D01*
X155832666Y-216719380D02*
X155832666Y-215719380D01*
X156927904Y-216719380D02*
X156451714Y-216719380D01*
X156451714Y-215719380D01*
X157737428Y-216719380D02*
X157261238Y-216719380D01*
X157261238Y-215719380D01*
X158070761Y-216338428D02*
X158832666Y-216338428D01*
X159737428Y-215719380D02*
X159546952Y-215719380D01*
X159451714Y-215767000D01*
X159404095Y-215814619D01*
X159308857Y-215957476D01*
X159261238Y-216147952D01*
X159261238Y-216528904D01*
X159308857Y-216624142D01*
X159356476Y-216671761D01*
X159451714Y-216719380D01*
X159642190Y-216719380D01*
X159737428Y-216671761D01*
X159785047Y-216624142D01*
X159832666Y-216528904D01*
X159832666Y-216290809D01*
X159785047Y-216195571D01*
X159737428Y-216147952D01*
X159642190Y-216100333D01*
X159451714Y-216100333D01*
X159356476Y-216147952D01*
X159308857Y-216195571D01*
X159261238Y-216290809D01*
X160213619Y-216433666D02*
X160689809Y-216433666D01*
X160118380Y-216719380D02*
X160451714Y-215719380D01*
X160785047Y-216719380D01*
%TO.C,SW60*%
X140458952Y-215693380D02*
X141030380Y-215693380D01*
X140744666Y-216693380D02*
X140744666Y-215693380D01*
X141839904Y-216693380D02*
X141363714Y-216693380D01*
X141363714Y-215693380D01*
X142649428Y-216693380D02*
X142173238Y-216693380D01*
X142173238Y-215693380D01*
X142982761Y-216312428D02*
X143744666Y-216312428D01*
X144649428Y-215693380D02*
X144458952Y-215693380D01*
X144363714Y-215741000D01*
X144316095Y-215788619D01*
X144220857Y-215931476D01*
X144173238Y-216121952D01*
X144173238Y-216502904D01*
X144220857Y-216598142D01*
X144268476Y-216645761D01*
X144363714Y-216693380D01*
X144554190Y-216693380D01*
X144649428Y-216645761D01*
X144697047Y-216598142D01*
X144744666Y-216502904D01*
X144744666Y-216264809D01*
X144697047Y-216169571D01*
X144649428Y-216121952D01*
X144554190Y-216074333D01*
X144363714Y-216074333D01*
X144268476Y-216121952D01*
X144220857Y-216169571D01*
X144173238Y-216264809D01*
X145125619Y-216407666D02*
X145601809Y-216407666D01*
X145030380Y-216693380D02*
X145363714Y-215693380D01*
X145697047Y-216693380D01*
%TO.C,SW59*%
X125574952Y-215719380D02*
X126146380Y-215719380D01*
X125860666Y-216719380D02*
X125860666Y-215719380D01*
X126955904Y-216719380D02*
X126479714Y-216719380D01*
X126479714Y-215719380D01*
X127765428Y-216719380D02*
X127289238Y-216719380D01*
X127289238Y-215719380D01*
X128098761Y-216338428D02*
X128860666Y-216338428D01*
X129765428Y-215719380D02*
X129574952Y-215719380D01*
X129479714Y-215767000D01*
X129432095Y-215814619D01*
X129336857Y-215957476D01*
X129289238Y-216147952D01*
X129289238Y-216528904D01*
X129336857Y-216624142D01*
X129384476Y-216671761D01*
X129479714Y-216719380D01*
X129670190Y-216719380D01*
X129765428Y-216671761D01*
X129813047Y-216624142D01*
X129860666Y-216528904D01*
X129860666Y-216290809D01*
X129813047Y-216195571D01*
X129765428Y-216147952D01*
X129670190Y-216100333D01*
X129479714Y-216100333D01*
X129384476Y-216147952D01*
X129336857Y-216195571D01*
X129289238Y-216290809D01*
X130241619Y-216433666D02*
X130717809Y-216433666D01*
X130146380Y-216719380D02*
X130479714Y-215719380D01*
X130813047Y-216719380D01*
%TO.C,SW58*%
X110486952Y-215719380D02*
X111058380Y-215719380D01*
X110772666Y-216719380D02*
X110772666Y-215719380D01*
X111867904Y-216719380D02*
X111391714Y-216719380D01*
X111391714Y-215719380D01*
X112677428Y-216719380D02*
X112201238Y-216719380D01*
X112201238Y-215719380D01*
X113010761Y-216338428D02*
X113772666Y-216338428D01*
X114677428Y-215719380D02*
X114486952Y-215719380D01*
X114391714Y-215767000D01*
X114344095Y-215814619D01*
X114248857Y-215957476D01*
X114201238Y-216147952D01*
X114201238Y-216528904D01*
X114248857Y-216624142D01*
X114296476Y-216671761D01*
X114391714Y-216719380D01*
X114582190Y-216719380D01*
X114677428Y-216671761D01*
X114725047Y-216624142D01*
X114772666Y-216528904D01*
X114772666Y-216290809D01*
X114725047Y-216195571D01*
X114677428Y-216147952D01*
X114582190Y-216100333D01*
X114391714Y-216100333D01*
X114296476Y-216147952D01*
X114248857Y-216195571D01*
X114201238Y-216290809D01*
X115153619Y-216433666D02*
X115629809Y-216433666D01*
X115058380Y-216719380D02*
X115391714Y-215719380D01*
X115725047Y-216719380D01*
%TO.C,SW57*%
X95449952Y-215693380D02*
X96021380Y-215693380D01*
X95735666Y-216693380D02*
X95735666Y-215693380D01*
X96830904Y-216693380D02*
X96354714Y-216693380D01*
X96354714Y-215693380D01*
X97640428Y-216693380D02*
X97164238Y-216693380D01*
X97164238Y-215693380D01*
X97973761Y-216312428D02*
X98735666Y-216312428D01*
X99640428Y-215693380D02*
X99449952Y-215693380D01*
X99354714Y-215741000D01*
X99307095Y-215788619D01*
X99211857Y-215931476D01*
X99164238Y-216121952D01*
X99164238Y-216502904D01*
X99211857Y-216598142D01*
X99259476Y-216645761D01*
X99354714Y-216693380D01*
X99545190Y-216693380D01*
X99640428Y-216645761D01*
X99688047Y-216598142D01*
X99735666Y-216502904D01*
X99735666Y-216264809D01*
X99688047Y-216169571D01*
X99640428Y-216121952D01*
X99545190Y-216074333D01*
X99354714Y-216074333D01*
X99259476Y-216121952D01*
X99211857Y-216169571D01*
X99164238Y-216264809D01*
X100116619Y-216407666D02*
X100592809Y-216407666D01*
X100021380Y-216693380D02*
X100354714Y-215693380D01*
X100688047Y-216693380D01*
%TO.C,SW56*%
X155647952Y-201698380D02*
X156219380Y-201698380D01*
X155933666Y-202698380D02*
X155933666Y-201698380D01*
X157028904Y-202698380D02*
X156552714Y-202698380D01*
X156552714Y-201698380D01*
X157838428Y-202698380D02*
X157362238Y-202698380D01*
X157362238Y-201698380D01*
X158171761Y-202317428D02*
X158933666Y-202317428D01*
X159838428Y-201698380D02*
X159647952Y-201698380D01*
X159552714Y-201746000D01*
X159505095Y-201793619D01*
X159409857Y-201936476D01*
X159362238Y-202126952D01*
X159362238Y-202507904D01*
X159409857Y-202603142D01*
X159457476Y-202650761D01*
X159552714Y-202698380D01*
X159743190Y-202698380D01*
X159838428Y-202650761D01*
X159886047Y-202603142D01*
X159933666Y-202507904D01*
X159933666Y-202269809D01*
X159886047Y-202174571D01*
X159838428Y-202126952D01*
X159743190Y-202079333D01*
X159552714Y-202079333D01*
X159457476Y-202126952D01*
X159409857Y-202174571D01*
X159362238Y-202269809D01*
X160314619Y-202412666D02*
X160790809Y-202412666D01*
X160219380Y-202698380D02*
X160552714Y-201698380D01*
X160886047Y-202698380D01*
%TO.C,SW55*%
X140433952Y-201672380D02*
X141005380Y-201672380D01*
X140719666Y-202672380D02*
X140719666Y-201672380D01*
X141814904Y-202672380D02*
X141338714Y-202672380D01*
X141338714Y-201672380D01*
X142624428Y-202672380D02*
X142148238Y-202672380D01*
X142148238Y-201672380D01*
X142957761Y-202291428D02*
X143719666Y-202291428D01*
X144624428Y-201672380D02*
X144433952Y-201672380D01*
X144338714Y-201720000D01*
X144291095Y-201767619D01*
X144195857Y-201910476D01*
X144148238Y-202100952D01*
X144148238Y-202481904D01*
X144195857Y-202577142D01*
X144243476Y-202624761D01*
X144338714Y-202672380D01*
X144529190Y-202672380D01*
X144624428Y-202624761D01*
X144672047Y-202577142D01*
X144719666Y-202481904D01*
X144719666Y-202243809D01*
X144672047Y-202148571D01*
X144624428Y-202100952D01*
X144529190Y-202053333D01*
X144338714Y-202053333D01*
X144243476Y-202100952D01*
X144195857Y-202148571D01*
X144148238Y-202243809D01*
X145100619Y-202386666D02*
X145576809Y-202386666D01*
X145005380Y-202672380D02*
X145338714Y-201672380D01*
X145672047Y-202672380D01*
%TO.C,SW54*%
X125574952Y-201672380D02*
X126146380Y-201672380D01*
X125860666Y-202672380D02*
X125860666Y-201672380D01*
X126955904Y-202672380D02*
X126479714Y-202672380D01*
X126479714Y-201672380D01*
X127765428Y-202672380D02*
X127289238Y-202672380D01*
X127289238Y-201672380D01*
X128098761Y-202291428D02*
X128860666Y-202291428D01*
X129765428Y-201672380D02*
X129574952Y-201672380D01*
X129479714Y-201720000D01*
X129432095Y-201767619D01*
X129336857Y-201910476D01*
X129289238Y-202100952D01*
X129289238Y-202481904D01*
X129336857Y-202577142D01*
X129384476Y-202624761D01*
X129479714Y-202672380D01*
X129670190Y-202672380D01*
X129765428Y-202624761D01*
X129813047Y-202577142D01*
X129860666Y-202481904D01*
X129860666Y-202243809D01*
X129813047Y-202148571D01*
X129765428Y-202100952D01*
X129670190Y-202053333D01*
X129479714Y-202053333D01*
X129384476Y-202100952D01*
X129336857Y-202148571D01*
X129289238Y-202243809D01*
X130241619Y-202386666D02*
X130717809Y-202386666D01*
X130146380Y-202672380D02*
X130479714Y-201672380D01*
X130813047Y-202672380D01*
%TO.C,SW53*%
X110486952Y-201647380D02*
X111058380Y-201647380D01*
X110772666Y-202647380D02*
X110772666Y-201647380D01*
X111867904Y-202647380D02*
X111391714Y-202647380D01*
X111391714Y-201647380D01*
X112677428Y-202647380D02*
X112201238Y-202647380D01*
X112201238Y-201647380D01*
X113010761Y-202266428D02*
X113772666Y-202266428D01*
X114677428Y-201647380D02*
X114486952Y-201647380D01*
X114391714Y-201695000D01*
X114344095Y-201742619D01*
X114248857Y-201885476D01*
X114201238Y-202075952D01*
X114201238Y-202456904D01*
X114248857Y-202552142D01*
X114296476Y-202599761D01*
X114391714Y-202647380D01*
X114582190Y-202647380D01*
X114677428Y-202599761D01*
X114725047Y-202552142D01*
X114772666Y-202456904D01*
X114772666Y-202218809D01*
X114725047Y-202123571D01*
X114677428Y-202075952D01*
X114582190Y-202028333D01*
X114391714Y-202028333D01*
X114296476Y-202075952D01*
X114248857Y-202123571D01*
X114201238Y-202218809D01*
X115153619Y-202361666D02*
X115629809Y-202361666D01*
X115058380Y-202647380D02*
X115391714Y-201647380D01*
X115725047Y-202647380D01*
%TO.C,SW52*%
X95373952Y-201647380D02*
X95945380Y-201647380D01*
X95659666Y-202647380D02*
X95659666Y-201647380D01*
X96754904Y-202647380D02*
X96278714Y-202647380D01*
X96278714Y-201647380D01*
X97564428Y-202647380D02*
X97088238Y-202647380D01*
X97088238Y-201647380D01*
X97897761Y-202266428D02*
X98659666Y-202266428D01*
X99564428Y-201647380D02*
X99373952Y-201647380D01*
X99278714Y-201695000D01*
X99231095Y-201742619D01*
X99135857Y-201885476D01*
X99088238Y-202075952D01*
X99088238Y-202456904D01*
X99135857Y-202552142D01*
X99183476Y-202599761D01*
X99278714Y-202647380D01*
X99469190Y-202647380D01*
X99564428Y-202599761D01*
X99612047Y-202552142D01*
X99659666Y-202456904D01*
X99659666Y-202218809D01*
X99612047Y-202123571D01*
X99564428Y-202075952D01*
X99469190Y-202028333D01*
X99278714Y-202028333D01*
X99183476Y-202075952D01*
X99135857Y-202123571D01*
X99088238Y-202218809D01*
X100040619Y-202361666D02*
X100516809Y-202361666D01*
X99945380Y-202647380D02*
X100278714Y-201647380D01*
X100612047Y-202647380D01*
%TO.C,SW51*%
X155520952Y-187652380D02*
X156092380Y-187652380D01*
X155806666Y-188652380D02*
X155806666Y-187652380D01*
X156901904Y-188652380D02*
X156425714Y-188652380D01*
X156425714Y-187652380D01*
X157711428Y-188652380D02*
X157235238Y-188652380D01*
X157235238Y-187652380D01*
X158044761Y-188271428D02*
X158806666Y-188271428D01*
X159711428Y-187652380D02*
X159520952Y-187652380D01*
X159425714Y-187700000D01*
X159378095Y-187747619D01*
X159282857Y-187890476D01*
X159235238Y-188080952D01*
X159235238Y-188461904D01*
X159282857Y-188557142D01*
X159330476Y-188604761D01*
X159425714Y-188652380D01*
X159616190Y-188652380D01*
X159711428Y-188604761D01*
X159759047Y-188557142D01*
X159806666Y-188461904D01*
X159806666Y-188223809D01*
X159759047Y-188128571D01*
X159711428Y-188080952D01*
X159616190Y-188033333D01*
X159425714Y-188033333D01*
X159330476Y-188080952D01*
X159282857Y-188128571D01*
X159235238Y-188223809D01*
X160187619Y-188366666D02*
X160663809Y-188366666D01*
X160092380Y-188652380D02*
X160425714Y-187652380D01*
X160759047Y-188652380D01*
%TO.C,SW50*%
X140484952Y-187702380D02*
X141056380Y-187702380D01*
X140770666Y-188702380D02*
X140770666Y-187702380D01*
X141865904Y-188702380D02*
X141389714Y-188702380D01*
X141389714Y-187702380D01*
X142675428Y-188702380D02*
X142199238Y-188702380D01*
X142199238Y-187702380D01*
X143008761Y-188321428D02*
X143770666Y-188321428D01*
X144675428Y-187702380D02*
X144484952Y-187702380D01*
X144389714Y-187750000D01*
X144342095Y-187797619D01*
X144246857Y-187940476D01*
X144199238Y-188130952D01*
X144199238Y-188511904D01*
X144246857Y-188607142D01*
X144294476Y-188654761D01*
X144389714Y-188702380D01*
X144580190Y-188702380D01*
X144675428Y-188654761D01*
X144723047Y-188607142D01*
X144770666Y-188511904D01*
X144770666Y-188273809D01*
X144723047Y-188178571D01*
X144675428Y-188130952D01*
X144580190Y-188083333D01*
X144389714Y-188083333D01*
X144294476Y-188130952D01*
X144246857Y-188178571D01*
X144199238Y-188273809D01*
X145151619Y-188416666D02*
X145627809Y-188416666D01*
X145056380Y-188702380D02*
X145389714Y-187702380D01*
X145723047Y-188702380D01*
%TO.C,SW49*%
X125548952Y-187677380D02*
X126120380Y-187677380D01*
X125834666Y-188677380D02*
X125834666Y-187677380D01*
X126929904Y-188677380D02*
X126453714Y-188677380D01*
X126453714Y-187677380D01*
X127739428Y-188677380D02*
X127263238Y-188677380D01*
X127263238Y-187677380D01*
X128072761Y-188296428D02*
X128834666Y-188296428D01*
X129739428Y-187677380D02*
X129548952Y-187677380D01*
X129453714Y-187725000D01*
X129406095Y-187772619D01*
X129310857Y-187915476D01*
X129263238Y-188105952D01*
X129263238Y-188486904D01*
X129310857Y-188582142D01*
X129358476Y-188629761D01*
X129453714Y-188677380D01*
X129644190Y-188677380D01*
X129739428Y-188629761D01*
X129787047Y-188582142D01*
X129834666Y-188486904D01*
X129834666Y-188248809D01*
X129787047Y-188153571D01*
X129739428Y-188105952D01*
X129644190Y-188058333D01*
X129453714Y-188058333D01*
X129358476Y-188105952D01*
X129310857Y-188153571D01*
X129263238Y-188248809D01*
X130215619Y-188391666D02*
X130691809Y-188391666D01*
X130120380Y-188677380D02*
X130453714Y-187677380D01*
X130787047Y-188677380D01*
%TO.C,SW48*%
X110588952Y-187677380D02*
X111160380Y-187677380D01*
X110874666Y-188677380D02*
X110874666Y-187677380D01*
X111969904Y-188677380D02*
X111493714Y-188677380D01*
X111493714Y-187677380D01*
X112779428Y-188677380D02*
X112303238Y-188677380D01*
X112303238Y-187677380D01*
X113112761Y-188296428D02*
X113874666Y-188296428D01*
X114779428Y-187677380D02*
X114588952Y-187677380D01*
X114493714Y-187725000D01*
X114446095Y-187772619D01*
X114350857Y-187915476D01*
X114303238Y-188105952D01*
X114303238Y-188486904D01*
X114350857Y-188582142D01*
X114398476Y-188629761D01*
X114493714Y-188677380D01*
X114684190Y-188677380D01*
X114779428Y-188629761D01*
X114827047Y-188582142D01*
X114874666Y-188486904D01*
X114874666Y-188248809D01*
X114827047Y-188153571D01*
X114779428Y-188105952D01*
X114684190Y-188058333D01*
X114493714Y-188058333D01*
X114398476Y-188105952D01*
X114350857Y-188153571D01*
X114303238Y-188248809D01*
X115255619Y-188391666D02*
X115731809Y-188391666D01*
X115160380Y-188677380D02*
X115493714Y-187677380D01*
X115827047Y-188677380D01*
%TO.C,SW47*%
X95475952Y-187677380D02*
X96047380Y-187677380D01*
X95761666Y-188677380D02*
X95761666Y-187677380D01*
X96856904Y-188677380D02*
X96380714Y-188677380D01*
X96380714Y-187677380D01*
X97666428Y-188677380D02*
X97190238Y-188677380D01*
X97190238Y-187677380D01*
X97999761Y-188296428D02*
X98761666Y-188296428D01*
X99666428Y-187677380D02*
X99475952Y-187677380D01*
X99380714Y-187725000D01*
X99333095Y-187772619D01*
X99237857Y-187915476D01*
X99190238Y-188105952D01*
X99190238Y-188486904D01*
X99237857Y-188582142D01*
X99285476Y-188629761D01*
X99380714Y-188677380D01*
X99571190Y-188677380D01*
X99666428Y-188629761D01*
X99714047Y-188582142D01*
X99761666Y-188486904D01*
X99761666Y-188248809D01*
X99714047Y-188153571D01*
X99666428Y-188105952D01*
X99571190Y-188058333D01*
X99380714Y-188058333D01*
X99285476Y-188105952D01*
X99237857Y-188153571D01*
X99190238Y-188248809D01*
X100142619Y-188391666D02*
X100618809Y-188391666D01*
X100047380Y-188677380D02*
X100380714Y-187677380D01*
X100714047Y-188677380D01*
%TO.C,SW46*%
X155520952Y-173682380D02*
X156092380Y-173682380D01*
X155806666Y-174682380D02*
X155806666Y-173682380D01*
X156901904Y-174682380D02*
X156425714Y-174682380D01*
X156425714Y-173682380D01*
X157711428Y-174682380D02*
X157235238Y-174682380D01*
X157235238Y-173682380D01*
X158044761Y-174301428D02*
X158806666Y-174301428D01*
X159711428Y-173682380D02*
X159520952Y-173682380D01*
X159425714Y-173730000D01*
X159378095Y-173777619D01*
X159282857Y-173920476D01*
X159235238Y-174110952D01*
X159235238Y-174491904D01*
X159282857Y-174587142D01*
X159330476Y-174634761D01*
X159425714Y-174682380D01*
X159616190Y-174682380D01*
X159711428Y-174634761D01*
X159759047Y-174587142D01*
X159806666Y-174491904D01*
X159806666Y-174253809D01*
X159759047Y-174158571D01*
X159711428Y-174110952D01*
X159616190Y-174063333D01*
X159425714Y-174063333D01*
X159330476Y-174110952D01*
X159282857Y-174158571D01*
X159235238Y-174253809D01*
X160187619Y-174396666D02*
X160663809Y-174396666D01*
X160092380Y-174682380D02*
X160425714Y-173682380D01*
X160759047Y-174682380D01*
%TO.C,SW45*%
X140560952Y-173682380D02*
X141132380Y-173682380D01*
X140846666Y-174682380D02*
X140846666Y-173682380D01*
X141941904Y-174682380D02*
X141465714Y-174682380D01*
X141465714Y-173682380D01*
X142751428Y-174682380D02*
X142275238Y-174682380D01*
X142275238Y-173682380D01*
X143084761Y-174301428D02*
X143846666Y-174301428D01*
X144751428Y-173682380D02*
X144560952Y-173682380D01*
X144465714Y-173730000D01*
X144418095Y-173777619D01*
X144322857Y-173920476D01*
X144275238Y-174110952D01*
X144275238Y-174491904D01*
X144322857Y-174587142D01*
X144370476Y-174634761D01*
X144465714Y-174682380D01*
X144656190Y-174682380D01*
X144751428Y-174634761D01*
X144799047Y-174587142D01*
X144846666Y-174491904D01*
X144846666Y-174253809D01*
X144799047Y-174158571D01*
X144751428Y-174110952D01*
X144656190Y-174063333D01*
X144465714Y-174063333D01*
X144370476Y-174110952D01*
X144322857Y-174158571D01*
X144275238Y-174253809D01*
X145227619Y-174396666D02*
X145703809Y-174396666D01*
X145132380Y-174682380D02*
X145465714Y-173682380D01*
X145799047Y-174682380D01*
%TO.C,SW44*%
X125625952Y-173682380D02*
X126197380Y-173682380D01*
X125911666Y-174682380D02*
X125911666Y-173682380D01*
X127006904Y-174682380D02*
X126530714Y-174682380D01*
X126530714Y-173682380D01*
X127816428Y-174682380D02*
X127340238Y-174682380D01*
X127340238Y-173682380D01*
X128149761Y-174301428D02*
X128911666Y-174301428D01*
X129816428Y-173682380D02*
X129625952Y-173682380D01*
X129530714Y-173730000D01*
X129483095Y-173777619D01*
X129387857Y-173920476D01*
X129340238Y-174110952D01*
X129340238Y-174491904D01*
X129387857Y-174587142D01*
X129435476Y-174634761D01*
X129530714Y-174682380D01*
X129721190Y-174682380D01*
X129816428Y-174634761D01*
X129864047Y-174587142D01*
X129911666Y-174491904D01*
X129911666Y-174253809D01*
X129864047Y-174158571D01*
X129816428Y-174110952D01*
X129721190Y-174063333D01*
X129530714Y-174063333D01*
X129435476Y-174110952D01*
X129387857Y-174158571D01*
X129340238Y-174253809D01*
X130292619Y-174396666D02*
X130768809Y-174396666D01*
X130197380Y-174682380D02*
X130530714Y-173682380D01*
X130864047Y-174682380D01*
%TO.C,SW43*%
X110588952Y-173707380D02*
X111160380Y-173707380D01*
X110874666Y-174707380D02*
X110874666Y-173707380D01*
X111969904Y-174707380D02*
X111493714Y-174707380D01*
X111493714Y-173707380D01*
X112779428Y-174707380D02*
X112303238Y-174707380D01*
X112303238Y-173707380D01*
X113112761Y-174326428D02*
X113874666Y-174326428D01*
X114779428Y-173707380D02*
X114588952Y-173707380D01*
X114493714Y-173755000D01*
X114446095Y-173802619D01*
X114350857Y-173945476D01*
X114303238Y-174135952D01*
X114303238Y-174516904D01*
X114350857Y-174612142D01*
X114398476Y-174659761D01*
X114493714Y-174707380D01*
X114684190Y-174707380D01*
X114779428Y-174659761D01*
X114827047Y-174612142D01*
X114874666Y-174516904D01*
X114874666Y-174278809D01*
X114827047Y-174183571D01*
X114779428Y-174135952D01*
X114684190Y-174088333D01*
X114493714Y-174088333D01*
X114398476Y-174135952D01*
X114350857Y-174183571D01*
X114303238Y-174278809D01*
X115255619Y-174421666D02*
X115731809Y-174421666D01*
X115160380Y-174707380D02*
X115493714Y-173707380D01*
X115827047Y-174707380D01*
%TO.C,SW42*%
X95449952Y-173707380D02*
X96021380Y-173707380D01*
X95735666Y-174707380D02*
X95735666Y-173707380D01*
X96830904Y-174707380D02*
X96354714Y-174707380D01*
X96354714Y-173707380D01*
X97640428Y-174707380D02*
X97164238Y-174707380D01*
X97164238Y-173707380D01*
X97973761Y-174326428D02*
X98735666Y-174326428D01*
X99640428Y-173707380D02*
X99449952Y-173707380D01*
X99354714Y-173755000D01*
X99307095Y-173802619D01*
X99211857Y-173945476D01*
X99164238Y-174135952D01*
X99164238Y-174516904D01*
X99211857Y-174612142D01*
X99259476Y-174659761D01*
X99354714Y-174707380D01*
X99545190Y-174707380D01*
X99640428Y-174659761D01*
X99688047Y-174612142D01*
X99735666Y-174516904D01*
X99735666Y-174278809D01*
X99688047Y-174183571D01*
X99640428Y-174135952D01*
X99545190Y-174088333D01*
X99354714Y-174088333D01*
X99259476Y-174135952D01*
X99211857Y-174183571D01*
X99164238Y-174278809D01*
X100116619Y-174421666D02*
X100592809Y-174421666D01*
X100021380Y-174707380D02*
X100354714Y-173707380D01*
X100688047Y-174707380D01*
%TO.C,SW41*%
X155546952Y-159712380D02*
X156118380Y-159712380D01*
X155832666Y-160712380D02*
X155832666Y-159712380D01*
X156927904Y-160712380D02*
X156451714Y-160712380D01*
X156451714Y-159712380D01*
X157737428Y-160712380D02*
X157261238Y-160712380D01*
X157261238Y-159712380D01*
X158070761Y-160331428D02*
X158832666Y-160331428D01*
X159737428Y-159712380D02*
X159546952Y-159712380D01*
X159451714Y-159760000D01*
X159404095Y-159807619D01*
X159308857Y-159950476D01*
X159261238Y-160140952D01*
X159261238Y-160521904D01*
X159308857Y-160617142D01*
X159356476Y-160664761D01*
X159451714Y-160712380D01*
X159642190Y-160712380D01*
X159737428Y-160664761D01*
X159785047Y-160617142D01*
X159832666Y-160521904D01*
X159832666Y-160283809D01*
X159785047Y-160188571D01*
X159737428Y-160140952D01*
X159642190Y-160093333D01*
X159451714Y-160093333D01*
X159356476Y-160140952D01*
X159308857Y-160188571D01*
X159261238Y-160283809D01*
X160213619Y-160426666D02*
X160689809Y-160426666D01*
X160118380Y-160712380D02*
X160451714Y-159712380D01*
X160785047Y-160712380D01*
%TO.C,SW40*%
X140585952Y-159712380D02*
X141157380Y-159712380D01*
X140871666Y-160712380D02*
X140871666Y-159712380D01*
X141966904Y-160712380D02*
X141490714Y-160712380D01*
X141490714Y-159712380D01*
X142776428Y-160712380D02*
X142300238Y-160712380D01*
X142300238Y-159712380D01*
X143109761Y-160331428D02*
X143871666Y-160331428D01*
X144776428Y-159712380D02*
X144585952Y-159712380D01*
X144490714Y-159760000D01*
X144443095Y-159807619D01*
X144347857Y-159950476D01*
X144300238Y-160140952D01*
X144300238Y-160521904D01*
X144347857Y-160617142D01*
X144395476Y-160664761D01*
X144490714Y-160712380D01*
X144681190Y-160712380D01*
X144776428Y-160664761D01*
X144824047Y-160617142D01*
X144871666Y-160521904D01*
X144871666Y-160283809D01*
X144824047Y-160188571D01*
X144776428Y-160140952D01*
X144681190Y-160093333D01*
X144490714Y-160093333D01*
X144395476Y-160140952D01*
X144347857Y-160188571D01*
X144300238Y-160283809D01*
X145252619Y-160426666D02*
X145728809Y-160426666D01*
X145157380Y-160712380D02*
X145490714Y-159712380D01*
X145824047Y-160712380D01*
%TO.C,SW39*%
X125625952Y-159686380D02*
X126197380Y-159686380D01*
X125911666Y-160686380D02*
X125911666Y-159686380D01*
X127006904Y-160686380D02*
X126530714Y-160686380D01*
X126530714Y-159686380D01*
X127816428Y-160686380D02*
X127340238Y-160686380D01*
X127340238Y-159686380D01*
X128149761Y-160305428D02*
X128911666Y-160305428D01*
X129816428Y-159686380D02*
X129625952Y-159686380D01*
X129530714Y-159734000D01*
X129483095Y-159781619D01*
X129387857Y-159924476D01*
X129340238Y-160114952D01*
X129340238Y-160495904D01*
X129387857Y-160591142D01*
X129435476Y-160638761D01*
X129530714Y-160686380D01*
X129721190Y-160686380D01*
X129816428Y-160638761D01*
X129864047Y-160591142D01*
X129911666Y-160495904D01*
X129911666Y-160257809D01*
X129864047Y-160162571D01*
X129816428Y-160114952D01*
X129721190Y-160067333D01*
X129530714Y-160067333D01*
X129435476Y-160114952D01*
X129387857Y-160162571D01*
X129340238Y-160257809D01*
X130292619Y-160400666D02*
X130768809Y-160400666D01*
X130197380Y-160686380D02*
X130530714Y-159686380D01*
X130864047Y-160686380D01*
%TO.C,SW38*%
X110537952Y-159686380D02*
X111109380Y-159686380D01*
X110823666Y-160686380D02*
X110823666Y-159686380D01*
X111918904Y-160686380D02*
X111442714Y-160686380D01*
X111442714Y-159686380D01*
X112728428Y-160686380D02*
X112252238Y-160686380D01*
X112252238Y-159686380D01*
X113061761Y-160305428D02*
X113823666Y-160305428D01*
X114728428Y-159686380D02*
X114537952Y-159686380D01*
X114442714Y-159734000D01*
X114395095Y-159781619D01*
X114299857Y-159924476D01*
X114252238Y-160114952D01*
X114252238Y-160495904D01*
X114299857Y-160591142D01*
X114347476Y-160638761D01*
X114442714Y-160686380D01*
X114633190Y-160686380D01*
X114728428Y-160638761D01*
X114776047Y-160591142D01*
X114823666Y-160495904D01*
X114823666Y-160257809D01*
X114776047Y-160162571D01*
X114728428Y-160114952D01*
X114633190Y-160067333D01*
X114442714Y-160067333D01*
X114347476Y-160114952D01*
X114299857Y-160162571D01*
X114252238Y-160257809D01*
X115204619Y-160400666D02*
X115680809Y-160400666D01*
X115109380Y-160686380D02*
X115442714Y-159686380D01*
X115776047Y-160686380D01*
%TO.C,SW37*%
X95526952Y-159661380D02*
X96098380Y-159661380D01*
X95812666Y-160661380D02*
X95812666Y-159661380D01*
X96907904Y-160661380D02*
X96431714Y-160661380D01*
X96431714Y-159661380D01*
X97717428Y-160661380D02*
X97241238Y-160661380D01*
X97241238Y-159661380D01*
X98050761Y-160280428D02*
X98812666Y-160280428D01*
X99717428Y-159661380D02*
X99526952Y-159661380D01*
X99431714Y-159709000D01*
X99384095Y-159756619D01*
X99288857Y-159899476D01*
X99241238Y-160089952D01*
X99241238Y-160470904D01*
X99288857Y-160566142D01*
X99336476Y-160613761D01*
X99431714Y-160661380D01*
X99622190Y-160661380D01*
X99717428Y-160613761D01*
X99765047Y-160566142D01*
X99812666Y-160470904D01*
X99812666Y-160232809D01*
X99765047Y-160137571D01*
X99717428Y-160089952D01*
X99622190Y-160042333D01*
X99431714Y-160042333D01*
X99336476Y-160089952D01*
X99288857Y-160137571D01*
X99241238Y-160232809D01*
X100193619Y-160375666D02*
X100669809Y-160375666D01*
X100098380Y-160661380D02*
X100431714Y-159661380D01*
X100765047Y-160661380D01*
%TO.C,SW36*%
X79498952Y-230628380D02*
X80070380Y-230628380D01*
X79784666Y-231628380D02*
X79784666Y-230628380D01*
X80879904Y-231628380D02*
X80403714Y-231628380D01*
X80403714Y-230628380D01*
X81689428Y-231628380D02*
X81213238Y-231628380D01*
X81213238Y-230628380D01*
X82022761Y-231247428D02*
X82784666Y-231247428D01*
X83689428Y-230628380D02*
X83498952Y-230628380D01*
X83403714Y-230676000D01*
X83356095Y-230723619D01*
X83260857Y-230866476D01*
X83213238Y-231056952D01*
X83213238Y-231437904D01*
X83260857Y-231533142D01*
X83308476Y-231580761D01*
X83403714Y-231628380D01*
X83594190Y-231628380D01*
X83689428Y-231580761D01*
X83737047Y-231533142D01*
X83784666Y-231437904D01*
X83784666Y-231199809D01*
X83737047Y-231104571D01*
X83689428Y-231056952D01*
X83594190Y-231009333D01*
X83403714Y-231009333D01*
X83308476Y-231056952D01*
X83260857Y-231104571D01*
X83213238Y-231199809D01*
X84165619Y-231342666D02*
X84641809Y-231342666D01*
X84070380Y-231628380D02*
X84403714Y-230628380D01*
X84737047Y-231628380D01*
%TO.C,SW35*%
X64472952Y-230682380D02*
X65044380Y-230682380D01*
X64758666Y-231682380D02*
X64758666Y-230682380D01*
X65853904Y-231682380D02*
X65377714Y-231682380D01*
X65377714Y-230682380D01*
X66663428Y-231682380D02*
X66187238Y-231682380D01*
X66187238Y-230682380D01*
X66996761Y-231301428D02*
X67758666Y-231301428D01*
X68663428Y-230682380D02*
X68472952Y-230682380D01*
X68377714Y-230730000D01*
X68330095Y-230777619D01*
X68234857Y-230920476D01*
X68187238Y-231110952D01*
X68187238Y-231491904D01*
X68234857Y-231587142D01*
X68282476Y-231634761D01*
X68377714Y-231682380D01*
X68568190Y-231682380D01*
X68663428Y-231634761D01*
X68711047Y-231587142D01*
X68758666Y-231491904D01*
X68758666Y-231253809D01*
X68711047Y-231158571D01*
X68663428Y-231110952D01*
X68568190Y-231063333D01*
X68377714Y-231063333D01*
X68282476Y-231110952D01*
X68234857Y-231158571D01*
X68187238Y-231253809D01*
X69139619Y-231396666D02*
X69615809Y-231396666D01*
X69044380Y-231682380D02*
X69377714Y-230682380D01*
X69711047Y-231682380D01*
%TO.C,SW34*%
X49512952Y-230682380D02*
X50084380Y-230682380D01*
X49798666Y-231682380D02*
X49798666Y-230682380D01*
X50893904Y-231682380D02*
X50417714Y-231682380D01*
X50417714Y-230682380D01*
X51703428Y-231682380D02*
X51227238Y-231682380D01*
X51227238Y-230682380D01*
X52036761Y-231301428D02*
X52798666Y-231301428D01*
X53703428Y-230682380D02*
X53512952Y-230682380D01*
X53417714Y-230730000D01*
X53370095Y-230777619D01*
X53274857Y-230920476D01*
X53227238Y-231110952D01*
X53227238Y-231491904D01*
X53274857Y-231587142D01*
X53322476Y-231634761D01*
X53417714Y-231682380D01*
X53608190Y-231682380D01*
X53703428Y-231634761D01*
X53751047Y-231587142D01*
X53798666Y-231491904D01*
X53798666Y-231253809D01*
X53751047Y-231158571D01*
X53703428Y-231110952D01*
X53608190Y-231063333D01*
X53417714Y-231063333D01*
X53322476Y-231110952D01*
X53274857Y-231158571D01*
X53227238Y-231253809D01*
X54179619Y-231396666D02*
X54655809Y-231396666D01*
X54084380Y-231682380D02*
X54417714Y-230682380D01*
X54751047Y-231682380D01*
%TO.C,SW33*%
X79498952Y-218716380D02*
X80070380Y-218716380D01*
X79784666Y-219716380D02*
X79784666Y-218716380D01*
X80879904Y-219716380D02*
X80403714Y-219716380D01*
X80403714Y-218716380D01*
X81689428Y-219716380D02*
X81213238Y-219716380D01*
X81213238Y-218716380D01*
X82022761Y-219335428D02*
X82784666Y-219335428D01*
X83689428Y-218716380D02*
X83498952Y-218716380D01*
X83403714Y-218764000D01*
X83356095Y-218811619D01*
X83260857Y-218954476D01*
X83213238Y-219144952D01*
X83213238Y-219525904D01*
X83260857Y-219621142D01*
X83308476Y-219668761D01*
X83403714Y-219716380D01*
X83594190Y-219716380D01*
X83689428Y-219668761D01*
X83737047Y-219621142D01*
X83784666Y-219525904D01*
X83784666Y-219287809D01*
X83737047Y-219192571D01*
X83689428Y-219144952D01*
X83594190Y-219097333D01*
X83403714Y-219097333D01*
X83308476Y-219144952D01*
X83260857Y-219192571D01*
X83213238Y-219287809D01*
X84165619Y-219430666D02*
X84641809Y-219430666D01*
X84070380Y-219716380D02*
X84403714Y-218716380D01*
X84737047Y-219716380D01*
%TO.C,SW32*%
X64461952Y-218690380D02*
X65033380Y-218690380D01*
X64747666Y-219690380D02*
X64747666Y-218690380D01*
X65842904Y-219690380D02*
X65366714Y-219690380D01*
X65366714Y-218690380D01*
X66652428Y-219690380D02*
X66176238Y-219690380D01*
X66176238Y-218690380D01*
X66985761Y-219309428D02*
X67747666Y-219309428D01*
X68652428Y-218690380D02*
X68461952Y-218690380D01*
X68366714Y-218738000D01*
X68319095Y-218785619D01*
X68223857Y-218928476D01*
X68176238Y-219118952D01*
X68176238Y-219499904D01*
X68223857Y-219595142D01*
X68271476Y-219642761D01*
X68366714Y-219690380D01*
X68557190Y-219690380D01*
X68652428Y-219642761D01*
X68700047Y-219595142D01*
X68747666Y-219499904D01*
X68747666Y-219261809D01*
X68700047Y-219166571D01*
X68652428Y-219118952D01*
X68557190Y-219071333D01*
X68366714Y-219071333D01*
X68271476Y-219118952D01*
X68223857Y-219166571D01*
X68176238Y-219261809D01*
X69128619Y-219404666D02*
X69604809Y-219404666D01*
X69033380Y-219690380D02*
X69366714Y-218690380D01*
X69700047Y-219690380D01*
%TO.C,SW31*%
X49526952Y-218665380D02*
X50098380Y-218665380D01*
X49812666Y-219665380D02*
X49812666Y-218665380D01*
X50907904Y-219665380D02*
X50431714Y-219665380D01*
X50431714Y-218665380D01*
X51717428Y-219665380D02*
X51241238Y-219665380D01*
X51241238Y-218665380D01*
X52050761Y-219284428D02*
X52812666Y-219284428D01*
X53717428Y-218665380D02*
X53526952Y-218665380D01*
X53431714Y-218713000D01*
X53384095Y-218760619D01*
X53288857Y-218903476D01*
X53241238Y-219093952D01*
X53241238Y-219474904D01*
X53288857Y-219570142D01*
X53336476Y-219617761D01*
X53431714Y-219665380D01*
X53622190Y-219665380D01*
X53717428Y-219617761D01*
X53765047Y-219570142D01*
X53812666Y-219474904D01*
X53812666Y-219236809D01*
X53765047Y-219141571D01*
X53717428Y-219093952D01*
X53622190Y-219046333D01*
X53431714Y-219046333D01*
X53336476Y-219093952D01*
X53288857Y-219141571D01*
X53241238Y-219236809D01*
X54193619Y-219379666D02*
X54669809Y-219379666D01*
X54098380Y-219665380D02*
X54431714Y-218665380D01*
X54765047Y-219665380D01*
%TO.C,SW30*%
X79524952Y-206676380D02*
X80096380Y-206676380D01*
X79810666Y-207676380D02*
X79810666Y-206676380D01*
X80905904Y-207676380D02*
X80429714Y-207676380D01*
X80429714Y-206676380D01*
X81715428Y-207676380D02*
X81239238Y-207676380D01*
X81239238Y-206676380D01*
X82048761Y-207295428D02*
X82810666Y-207295428D01*
X83715428Y-206676380D02*
X83524952Y-206676380D01*
X83429714Y-206724000D01*
X83382095Y-206771619D01*
X83286857Y-206914476D01*
X83239238Y-207104952D01*
X83239238Y-207485904D01*
X83286857Y-207581142D01*
X83334476Y-207628761D01*
X83429714Y-207676380D01*
X83620190Y-207676380D01*
X83715428Y-207628761D01*
X83763047Y-207581142D01*
X83810666Y-207485904D01*
X83810666Y-207247809D01*
X83763047Y-207152571D01*
X83715428Y-207104952D01*
X83620190Y-207057333D01*
X83429714Y-207057333D01*
X83334476Y-207104952D01*
X83286857Y-207152571D01*
X83239238Y-207247809D01*
X84191619Y-207390666D02*
X84667809Y-207390666D01*
X84096380Y-207676380D02*
X84429714Y-206676380D01*
X84763047Y-207676380D01*
%TO.C,SW29*%
X64461952Y-206676380D02*
X65033380Y-206676380D01*
X64747666Y-207676380D02*
X64747666Y-206676380D01*
X65842904Y-207676380D02*
X65366714Y-207676380D01*
X65366714Y-206676380D01*
X66652428Y-207676380D02*
X66176238Y-207676380D01*
X66176238Y-206676380D01*
X66985761Y-207295428D02*
X67747666Y-207295428D01*
X68652428Y-206676380D02*
X68461952Y-206676380D01*
X68366714Y-206724000D01*
X68319095Y-206771619D01*
X68223857Y-206914476D01*
X68176238Y-207104952D01*
X68176238Y-207485904D01*
X68223857Y-207581142D01*
X68271476Y-207628761D01*
X68366714Y-207676380D01*
X68557190Y-207676380D01*
X68652428Y-207628761D01*
X68700047Y-207581142D01*
X68747666Y-207485904D01*
X68747666Y-207247809D01*
X68700047Y-207152571D01*
X68652428Y-207104952D01*
X68557190Y-207057333D01*
X68366714Y-207057333D01*
X68271476Y-207104952D01*
X68223857Y-207152571D01*
X68176238Y-207247809D01*
X69128619Y-207390666D02*
X69604809Y-207390666D01*
X69033380Y-207676380D02*
X69366714Y-206676380D01*
X69700047Y-207676380D01*
%TO.C,SW28*%
X49526952Y-206651380D02*
X50098380Y-206651380D01*
X49812666Y-207651380D02*
X49812666Y-206651380D01*
X50907904Y-207651380D02*
X50431714Y-207651380D01*
X50431714Y-206651380D01*
X51717428Y-207651380D02*
X51241238Y-207651380D01*
X51241238Y-206651380D01*
X52050761Y-207270428D02*
X52812666Y-207270428D01*
X53717428Y-206651380D02*
X53526952Y-206651380D01*
X53431714Y-206699000D01*
X53384095Y-206746619D01*
X53288857Y-206889476D01*
X53241238Y-207079952D01*
X53241238Y-207460904D01*
X53288857Y-207556142D01*
X53336476Y-207603761D01*
X53431714Y-207651380D01*
X53622190Y-207651380D01*
X53717428Y-207603761D01*
X53765047Y-207556142D01*
X53812666Y-207460904D01*
X53812666Y-207222809D01*
X53765047Y-207127571D01*
X53717428Y-207079952D01*
X53622190Y-207032333D01*
X53431714Y-207032333D01*
X53336476Y-207079952D01*
X53288857Y-207127571D01*
X53241238Y-207222809D01*
X54193619Y-207365666D02*
X54669809Y-207365666D01*
X54098380Y-207651380D02*
X54431714Y-206651380D01*
X54765047Y-207651380D01*
%TO.C,SW27*%
X79473952Y-194662380D02*
X80045380Y-194662380D01*
X79759666Y-195662380D02*
X79759666Y-194662380D01*
X80854904Y-195662380D02*
X80378714Y-195662380D01*
X80378714Y-194662380D01*
X81664428Y-195662380D02*
X81188238Y-195662380D01*
X81188238Y-194662380D01*
X81997761Y-195281428D02*
X82759666Y-195281428D01*
X83664428Y-194662380D02*
X83473952Y-194662380D01*
X83378714Y-194710000D01*
X83331095Y-194757619D01*
X83235857Y-194900476D01*
X83188238Y-195090952D01*
X83188238Y-195471904D01*
X83235857Y-195567142D01*
X83283476Y-195614761D01*
X83378714Y-195662380D01*
X83569190Y-195662380D01*
X83664428Y-195614761D01*
X83712047Y-195567142D01*
X83759666Y-195471904D01*
X83759666Y-195233809D01*
X83712047Y-195138571D01*
X83664428Y-195090952D01*
X83569190Y-195043333D01*
X83378714Y-195043333D01*
X83283476Y-195090952D01*
X83235857Y-195138571D01*
X83188238Y-195233809D01*
X84140619Y-195376666D02*
X84616809Y-195376666D01*
X84045380Y-195662380D02*
X84378714Y-194662380D01*
X84712047Y-195662380D01*
%TO.C,SW26*%
X64512952Y-194687380D02*
X65084380Y-194687380D01*
X64798666Y-195687380D02*
X64798666Y-194687380D01*
X65893904Y-195687380D02*
X65417714Y-195687380D01*
X65417714Y-194687380D01*
X66703428Y-195687380D02*
X66227238Y-195687380D01*
X66227238Y-194687380D01*
X67036761Y-195306428D02*
X67798666Y-195306428D01*
X68703428Y-194687380D02*
X68512952Y-194687380D01*
X68417714Y-194735000D01*
X68370095Y-194782619D01*
X68274857Y-194925476D01*
X68227238Y-195115952D01*
X68227238Y-195496904D01*
X68274857Y-195592142D01*
X68322476Y-195639761D01*
X68417714Y-195687380D01*
X68608190Y-195687380D01*
X68703428Y-195639761D01*
X68751047Y-195592142D01*
X68798666Y-195496904D01*
X68798666Y-195258809D01*
X68751047Y-195163571D01*
X68703428Y-195115952D01*
X68608190Y-195068333D01*
X68417714Y-195068333D01*
X68322476Y-195115952D01*
X68274857Y-195163571D01*
X68227238Y-195258809D01*
X69179619Y-195401666D02*
X69655809Y-195401666D01*
X69084380Y-195687380D02*
X69417714Y-194687380D01*
X69751047Y-195687380D01*
%TO.C,SW24*%
X53565952Y-156410380D02*
X54137380Y-156410380D01*
X53851666Y-157410380D02*
X53851666Y-156410380D01*
X54946904Y-157410380D02*
X54470714Y-157410380D01*
X54470714Y-156410380D01*
X55756428Y-157410380D02*
X55280238Y-157410380D01*
X55280238Y-156410380D01*
X56089761Y-157029428D02*
X56851666Y-157029428D01*
X57756428Y-156410380D02*
X57565952Y-156410380D01*
X57470714Y-156458000D01*
X57423095Y-156505619D01*
X57327857Y-156648476D01*
X57280238Y-156838952D01*
X57280238Y-157219904D01*
X57327857Y-157315142D01*
X57375476Y-157362761D01*
X57470714Y-157410380D01*
X57661190Y-157410380D01*
X57756428Y-157362761D01*
X57804047Y-157315142D01*
X57851666Y-157219904D01*
X57851666Y-156981809D01*
X57804047Y-156886571D01*
X57756428Y-156838952D01*
X57661190Y-156791333D01*
X57470714Y-156791333D01*
X57375476Y-156838952D01*
X57327857Y-156886571D01*
X57280238Y-156981809D01*
X58232619Y-157124666D02*
X58708809Y-157124666D01*
X58137380Y-157410380D02*
X58470714Y-156410380D01*
X58804047Y-157410380D01*
%TO.C,SW23*%
X143709952Y-143506380D02*
X144281380Y-143506380D01*
X143995666Y-144506380D02*
X143995666Y-143506380D01*
X145090904Y-144506380D02*
X144614714Y-144506380D01*
X144614714Y-143506380D01*
X145900428Y-144506380D02*
X145424238Y-144506380D01*
X145424238Y-143506380D01*
X146233761Y-144125428D02*
X146995666Y-144125428D01*
X147900428Y-143506380D02*
X147709952Y-143506380D01*
X147614714Y-143554000D01*
X147567095Y-143601619D01*
X147471857Y-143744476D01*
X147424238Y-143934952D01*
X147424238Y-144315904D01*
X147471857Y-144411142D01*
X147519476Y-144458761D01*
X147614714Y-144506380D01*
X147805190Y-144506380D01*
X147900428Y-144458761D01*
X147948047Y-144411142D01*
X147995666Y-144315904D01*
X147995666Y-144077809D01*
X147948047Y-143982571D01*
X147900428Y-143934952D01*
X147805190Y-143887333D01*
X147614714Y-143887333D01*
X147519476Y-143934952D01*
X147471857Y-143982571D01*
X147424238Y-144077809D01*
X148376619Y-144220666D02*
X148852809Y-144220666D01*
X148281380Y-144506380D02*
X148614714Y-143506380D01*
X148948047Y-144506380D01*
%TO.C,SW22*%
X125574952Y-143506380D02*
X126146380Y-143506380D01*
X125860666Y-144506380D02*
X125860666Y-143506380D01*
X126955904Y-144506380D02*
X126479714Y-144506380D01*
X126479714Y-143506380D01*
X127765428Y-144506380D02*
X127289238Y-144506380D01*
X127289238Y-143506380D01*
X128098761Y-144125428D02*
X128860666Y-144125428D01*
X129765428Y-143506380D02*
X129574952Y-143506380D01*
X129479714Y-143554000D01*
X129432095Y-143601619D01*
X129336857Y-143744476D01*
X129289238Y-143934952D01*
X129289238Y-144315904D01*
X129336857Y-144411142D01*
X129384476Y-144458761D01*
X129479714Y-144506380D01*
X129670190Y-144506380D01*
X129765428Y-144458761D01*
X129813047Y-144411142D01*
X129860666Y-144315904D01*
X129860666Y-144077809D01*
X129813047Y-143982571D01*
X129765428Y-143934952D01*
X129670190Y-143887333D01*
X129479714Y-143887333D01*
X129384476Y-143934952D01*
X129336857Y-143982571D01*
X129289238Y-144077809D01*
X130241619Y-144220666D02*
X130717809Y-144220666D01*
X130146380Y-144506380D02*
X130479714Y-143506380D01*
X130813047Y-144506380D01*
%TO.C,SW21*%
X107692952Y-143506380D02*
X108264380Y-143506380D01*
X107978666Y-144506380D02*
X107978666Y-143506380D01*
X109073904Y-144506380D02*
X108597714Y-144506380D01*
X108597714Y-143506380D01*
X109883428Y-144506380D02*
X109407238Y-144506380D01*
X109407238Y-143506380D01*
X110216761Y-144125428D02*
X110978666Y-144125428D01*
X111883428Y-143506380D02*
X111692952Y-143506380D01*
X111597714Y-143554000D01*
X111550095Y-143601619D01*
X111454857Y-143744476D01*
X111407238Y-143934952D01*
X111407238Y-144315904D01*
X111454857Y-144411142D01*
X111502476Y-144458761D01*
X111597714Y-144506380D01*
X111788190Y-144506380D01*
X111883428Y-144458761D01*
X111931047Y-144411142D01*
X111978666Y-144315904D01*
X111978666Y-144077809D01*
X111931047Y-143982571D01*
X111883428Y-143934952D01*
X111788190Y-143887333D01*
X111597714Y-143887333D01*
X111502476Y-143934952D01*
X111454857Y-143982571D01*
X111407238Y-144077809D01*
X112359619Y-144220666D02*
X112835809Y-144220666D01*
X112264380Y-144506380D02*
X112597714Y-143506380D01*
X112931047Y-144506380D01*
%TO.C,SW20*%
X89709952Y-143506380D02*
X90281380Y-143506380D01*
X89995666Y-144506380D02*
X89995666Y-143506380D01*
X91090904Y-144506380D02*
X90614714Y-144506380D01*
X90614714Y-143506380D01*
X91900428Y-144506380D02*
X91424238Y-144506380D01*
X91424238Y-143506380D01*
X92233761Y-144125428D02*
X92995666Y-144125428D01*
X93900428Y-143506380D02*
X93709952Y-143506380D01*
X93614714Y-143554000D01*
X93567095Y-143601619D01*
X93471857Y-143744476D01*
X93424238Y-143934952D01*
X93424238Y-144315904D01*
X93471857Y-144411142D01*
X93519476Y-144458761D01*
X93614714Y-144506380D01*
X93805190Y-144506380D01*
X93900428Y-144458761D01*
X93948047Y-144411142D01*
X93995666Y-144315904D01*
X93995666Y-144077809D01*
X93948047Y-143982571D01*
X93900428Y-143934952D01*
X93805190Y-143887333D01*
X93614714Y-143887333D01*
X93519476Y-143934952D01*
X93471857Y-143982571D01*
X93424238Y-144077809D01*
X94376619Y-144220666D02*
X94852809Y-144220666D01*
X94281380Y-144506380D02*
X94614714Y-143506380D01*
X94948047Y-144506380D01*
%TO.C,SW19*%
X71675952Y-143481380D02*
X72247380Y-143481380D01*
X71961666Y-144481380D02*
X71961666Y-143481380D01*
X73056904Y-144481380D02*
X72580714Y-144481380D01*
X72580714Y-143481380D01*
X73866428Y-144481380D02*
X73390238Y-144481380D01*
X73390238Y-143481380D01*
X74199761Y-144100428D02*
X74961666Y-144100428D01*
X75866428Y-143481380D02*
X75675952Y-143481380D01*
X75580714Y-143529000D01*
X75533095Y-143576619D01*
X75437857Y-143719476D01*
X75390238Y-143909952D01*
X75390238Y-144290904D01*
X75437857Y-144386142D01*
X75485476Y-144433761D01*
X75580714Y-144481380D01*
X75771190Y-144481380D01*
X75866428Y-144433761D01*
X75914047Y-144386142D01*
X75961666Y-144290904D01*
X75961666Y-144052809D01*
X75914047Y-143957571D01*
X75866428Y-143909952D01*
X75771190Y-143862333D01*
X75580714Y-143862333D01*
X75485476Y-143909952D01*
X75437857Y-143957571D01*
X75390238Y-144052809D01*
X76342619Y-144195666D02*
X76818809Y-144195666D01*
X76247380Y-144481380D02*
X76580714Y-143481380D01*
X76914047Y-144481380D01*
%TO.C,SW18*%
X53590952Y-143481380D02*
X54162380Y-143481380D01*
X53876666Y-144481380D02*
X53876666Y-143481380D01*
X54971904Y-144481380D02*
X54495714Y-144481380D01*
X54495714Y-143481380D01*
X55781428Y-144481380D02*
X55305238Y-144481380D01*
X55305238Y-143481380D01*
X56114761Y-144100428D02*
X56876666Y-144100428D01*
X57781428Y-143481380D02*
X57590952Y-143481380D01*
X57495714Y-143529000D01*
X57448095Y-143576619D01*
X57352857Y-143719476D01*
X57305238Y-143909952D01*
X57305238Y-144290904D01*
X57352857Y-144386142D01*
X57400476Y-144433761D01*
X57495714Y-144481380D01*
X57686190Y-144481380D01*
X57781428Y-144433761D01*
X57829047Y-144386142D01*
X57876666Y-144290904D01*
X57876666Y-144052809D01*
X57829047Y-143957571D01*
X57781428Y-143909952D01*
X57686190Y-143862333D01*
X57495714Y-143862333D01*
X57400476Y-143909952D01*
X57352857Y-143957571D01*
X57305238Y-144052809D01*
X58257619Y-144195666D02*
X58733809Y-144195666D01*
X58162380Y-144481380D02*
X58495714Y-143481380D01*
X58829047Y-144481380D01*
%TO.C,SW16*%
X107667952Y-130527380D02*
X108239380Y-130527380D01*
X107953666Y-131527380D02*
X107953666Y-130527380D01*
X109048904Y-131527380D02*
X108572714Y-131527380D01*
X108572714Y-130527380D01*
X109858428Y-131527380D02*
X109382238Y-131527380D01*
X109382238Y-130527380D01*
X110191761Y-131146428D02*
X110953666Y-131146428D01*
X111858428Y-130527380D02*
X111667952Y-130527380D01*
X111572714Y-130575000D01*
X111525095Y-130622619D01*
X111429857Y-130765476D01*
X111382238Y-130955952D01*
X111382238Y-131336904D01*
X111429857Y-131432142D01*
X111477476Y-131479761D01*
X111572714Y-131527380D01*
X111763190Y-131527380D01*
X111858428Y-131479761D01*
X111906047Y-131432142D01*
X111953666Y-131336904D01*
X111953666Y-131098809D01*
X111906047Y-131003571D01*
X111858428Y-130955952D01*
X111763190Y-130908333D01*
X111572714Y-130908333D01*
X111477476Y-130955952D01*
X111429857Y-131003571D01*
X111382238Y-131098809D01*
X112334619Y-131241666D02*
X112810809Y-131241666D01*
X112239380Y-131527380D02*
X112572714Y-130527380D01*
X112906047Y-131527380D01*
%TO.C,SW15*%
X89709952Y-130552380D02*
X90281380Y-130552380D01*
X89995666Y-131552380D02*
X89995666Y-130552380D01*
X91090904Y-131552380D02*
X90614714Y-131552380D01*
X90614714Y-130552380D01*
X91900428Y-131552380D02*
X91424238Y-131552380D01*
X91424238Y-130552380D01*
X92233761Y-131171428D02*
X92995666Y-131171428D01*
X93900428Y-130552380D02*
X93709952Y-130552380D01*
X93614714Y-130600000D01*
X93567095Y-130647619D01*
X93471857Y-130790476D01*
X93424238Y-130980952D01*
X93424238Y-131361904D01*
X93471857Y-131457142D01*
X93519476Y-131504761D01*
X93614714Y-131552380D01*
X93805190Y-131552380D01*
X93900428Y-131504761D01*
X93948047Y-131457142D01*
X93995666Y-131361904D01*
X93995666Y-131123809D01*
X93948047Y-131028571D01*
X93900428Y-130980952D01*
X93805190Y-130933333D01*
X93614714Y-130933333D01*
X93519476Y-130980952D01*
X93471857Y-131028571D01*
X93424238Y-131123809D01*
X94376619Y-131266666D02*
X94852809Y-131266666D01*
X94281380Y-131552380D02*
X94614714Y-130552380D01*
X94948047Y-131552380D01*
%TO.C,SW14*%
X71599952Y-130552380D02*
X72171380Y-130552380D01*
X71885666Y-131552380D02*
X71885666Y-130552380D01*
X72980904Y-131552380D02*
X72504714Y-131552380D01*
X72504714Y-130552380D01*
X73790428Y-131552380D02*
X73314238Y-131552380D01*
X73314238Y-130552380D01*
X74123761Y-131171428D02*
X74885666Y-131171428D01*
X75790428Y-130552380D02*
X75599952Y-130552380D01*
X75504714Y-130600000D01*
X75457095Y-130647619D01*
X75361857Y-130790476D01*
X75314238Y-130980952D01*
X75314238Y-131361904D01*
X75361857Y-131457142D01*
X75409476Y-131504761D01*
X75504714Y-131552380D01*
X75695190Y-131552380D01*
X75790428Y-131504761D01*
X75838047Y-131457142D01*
X75885666Y-131361904D01*
X75885666Y-131123809D01*
X75838047Y-131028571D01*
X75790428Y-130980952D01*
X75695190Y-130933333D01*
X75504714Y-130933333D01*
X75409476Y-130980952D01*
X75361857Y-131028571D01*
X75314238Y-131123809D01*
X76266619Y-131266666D02*
X76742809Y-131266666D01*
X76171380Y-131552380D02*
X76504714Y-130552380D01*
X76838047Y-131552380D01*
%TO.C,SW13*%
X53514952Y-130552380D02*
X54086380Y-130552380D01*
X53800666Y-131552380D02*
X53800666Y-130552380D01*
X54895904Y-131552380D02*
X54419714Y-131552380D01*
X54419714Y-130552380D01*
X55705428Y-131552380D02*
X55229238Y-131552380D01*
X55229238Y-130552380D01*
X56038761Y-131171428D02*
X56800666Y-131171428D01*
X57705428Y-130552380D02*
X57514952Y-130552380D01*
X57419714Y-130600000D01*
X57372095Y-130647619D01*
X57276857Y-130790476D01*
X57229238Y-130980952D01*
X57229238Y-131361904D01*
X57276857Y-131457142D01*
X57324476Y-131504761D01*
X57419714Y-131552380D01*
X57610190Y-131552380D01*
X57705428Y-131504761D01*
X57753047Y-131457142D01*
X57800666Y-131361904D01*
X57800666Y-131123809D01*
X57753047Y-131028571D01*
X57705428Y-130980952D01*
X57610190Y-130933333D01*
X57419714Y-130933333D01*
X57324476Y-130980952D01*
X57276857Y-131028571D01*
X57229238Y-131123809D01*
X58181619Y-131266666D02*
X58657809Y-131266666D01*
X58086380Y-131552380D02*
X58419714Y-130552380D01*
X58753047Y-131552380D01*
%TO.C,SW12*%
X169541952Y-104086380D02*
X170113380Y-104086380D01*
X169827666Y-105086380D02*
X169827666Y-104086380D01*
X170922904Y-105086380D02*
X170446714Y-105086380D01*
X170446714Y-104086380D01*
X171732428Y-105086380D02*
X171256238Y-105086380D01*
X171256238Y-104086380D01*
X172065761Y-104705428D02*
X172827666Y-104705428D01*
X173732428Y-104086380D02*
X173541952Y-104086380D01*
X173446714Y-104134000D01*
X173399095Y-104181619D01*
X173303857Y-104324476D01*
X173256238Y-104514952D01*
X173256238Y-104895904D01*
X173303857Y-104991142D01*
X173351476Y-105038761D01*
X173446714Y-105086380D01*
X173637190Y-105086380D01*
X173732428Y-105038761D01*
X173780047Y-104991142D01*
X173827666Y-104895904D01*
X173827666Y-104657809D01*
X173780047Y-104562571D01*
X173732428Y-104514952D01*
X173637190Y-104467333D01*
X173446714Y-104467333D01*
X173351476Y-104514952D01*
X173303857Y-104562571D01*
X173256238Y-104657809D01*
X174208619Y-104800666D02*
X174684809Y-104800666D01*
X174113380Y-105086380D02*
X174446714Y-104086380D01*
X174780047Y-105086380D01*
%TO.C,SW11*%
X169694952Y-93621180D02*
X170266380Y-93621180D01*
X169980666Y-94621180D02*
X169980666Y-93621180D01*
X171075904Y-94621180D02*
X170599714Y-94621180D01*
X170599714Y-93621180D01*
X171885428Y-94621180D02*
X171409238Y-94621180D01*
X171409238Y-93621180D01*
X172218761Y-94240228D02*
X172980666Y-94240228D01*
X173885428Y-93621180D02*
X173694952Y-93621180D01*
X173599714Y-93668800D01*
X173552095Y-93716419D01*
X173456857Y-93859276D01*
X173409238Y-94049752D01*
X173409238Y-94430704D01*
X173456857Y-94525942D01*
X173504476Y-94573561D01*
X173599714Y-94621180D01*
X173790190Y-94621180D01*
X173885428Y-94573561D01*
X173933047Y-94525942D01*
X173980666Y-94430704D01*
X173980666Y-94192609D01*
X173933047Y-94097371D01*
X173885428Y-94049752D01*
X173790190Y-94002133D01*
X173599714Y-94002133D01*
X173504476Y-94049752D01*
X173456857Y-94097371D01*
X173409238Y-94192609D01*
X174361619Y-94335466D02*
X174837809Y-94335466D01*
X174266380Y-94621180D02*
X174599714Y-93621180D01*
X174933047Y-94621180D01*
%TO.C,SW10*%
X169541952Y-83105580D02*
X170113380Y-83105580D01*
X169827666Y-84105580D02*
X169827666Y-83105580D01*
X170922904Y-84105580D02*
X170446714Y-84105580D01*
X170446714Y-83105580D01*
X171732428Y-84105580D02*
X171256238Y-84105580D01*
X171256238Y-83105580D01*
X172065761Y-83724628D02*
X172827666Y-83724628D01*
X173732428Y-83105580D02*
X173541952Y-83105580D01*
X173446714Y-83153200D01*
X173399095Y-83200819D01*
X173303857Y-83343676D01*
X173256238Y-83534152D01*
X173256238Y-83915104D01*
X173303857Y-84010342D01*
X173351476Y-84057961D01*
X173446714Y-84105580D01*
X173637190Y-84105580D01*
X173732428Y-84057961D01*
X173780047Y-84010342D01*
X173827666Y-83915104D01*
X173827666Y-83677009D01*
X173780047Y-83581771D01*
X173732428Y-83534152D01*
X173637190Y-83486533D01*
X173446714Y-83486533D01*
X173351476Y-83534152D01*
X173303857Y-83581771D01*
X173256238Y-83677009D01*
X174208619Y-83819866D02*
X174684809Y-83819866D01*
X174113380Y-84105580D02*
X174446714Y-83105580D01*
X174780047Y-84105580D01*
%TO.C,SW9*%
X169556952Y-72589980D02*
X170128380Y-72589980D01*
X169842666Y-73589980D02*
X169842666Y-72589980D01*
X170937904Y-73589980D02*
X170461714Y-73589980D01*
X170461714Y-72589980D01*
X171747428Y-73589980D02*
X171271238Y-73589980D01*
X171271238Y-72589980D01*
X172080761Y-73209028D02*
X172842666Y-73209028D01*
X173747428Y-72589980D02*
X173556952Y-72589980D01*
X173461714Y-72637600D01*
X173414095Y-72685219D01*
X173318857Y-72828076D01*
X173271238Y-73018552D01*
X173271238Y-73399504D01*
X173318857Y-73494742D01*
X173366476Y-73542361D01*
X173461714Y-73589980D01*
X173652190Y-73589980D01*
X173747428Y-73542361D01*
X173795047Y-73494742D01*
X173842666Y-73399504D01*
X173842666Y-73161409D01*
X173795047Y-73066171D01*
X173747428Y-73018552D01*
X173652190Y-72970933D01*
X173461714Y-72970933D01*
X173366476Y-73018552D01*
X173318857Y-73066171D01*
X173271238Y-73161409D01*
X174223619Y-73304266D02*
X174699809Y-73304266D01*
X174128380Y-73589980D02*
X174461714Y-72589980D01*
X174795047Y-73589980D01*
%TO.C,SW8*%
X169592952Y-62074380D02*
X170164380Y-62074380D01*
X169878666Y-63074380D02*
X169878666Y-62074380D01*
X170973904Y-63074380D02*
X170497714Y-63074380D01*
X170497714Y-62074380D01*
X171783428Y-63074380D02*
X171307238Y-63074380D01*
X171307238Y-62074380D01*
X172116761Y-62693428D02*
X172878666Y-62693428D01*
X173783428Y-62074380D02*
X173592952Y-62074380D01*
X173497714Y-62122000D01*
X173450095Y-62169619D01*
X173354857Y-62312476D01*
X173307238Y-62502952D01*
X173307238Y-62883904D01*
X173354857Y-62979142D01*
X173402476Y-63026761D01*
X173497714Y-63074380D01*
X173688190Y-63074380D01*
X173783428Y-63026761D01*
X173831047Y-62979142D01*
X173878666Y-62883904D01*
X173878666Y-62645809D01*
X173831047Y-62550571D01*
X173783428Y-62502952D01*
X173688190Y-62455333D01*
X173497714Y-62455333D01*
X173402476Y-62502952D01*
X173354857Y-62550571D01*
X173307238Y-62645809D01*
X174259619Y-62788666D02*
X174735809Y-62788666D01*
X174164380Y-63074380D02*
X174497714Y-62074380D01*
X174831047Y-63074380D01*
%TO.C,SW7*%
X169592952Y-51609580D02*
X170164380Y-51609580D01*
X169878666Y-52609580D02*
X169878666Y-51609580D01*
X170973904Y-52609580D02*
X170497714Y-52609580D01*
X170497714Y-51609580D01*
X171783428Y-52609580D02*
X171307238Y-52609580D01*
X171307238Y-51609580D01*
X172116761Y-52228628D02*
X172878666Y-52228628D01*
X173783428Y-51609580D02*
X173592952Y-51609580D01*
X173497714Y-51657200D01*
X173450095Y-51704819D01*
X173354857Y-51847676D01*
X173307238Y-52038152D01*
X173307238Y-52419104D01*
X173354857Y-52514342D01*
X173402476Y-52561961D01*
X173497714Y-52609580D01*
X173688190Y-52609580D01*
X173783428Y-52561961D01*
X173831047Y-52514342D01*
X173878666Y-52419104D01*
X173878666Y-52181009D01*
X173831047Y-52085771D01*
X173783428Y-52038152D01*
X173688190Y-51990533D01*
X173497714Y-51990533D01*
X173402476Y-52038152D01*
X173354857Y-52085771D01*
X173307238Y-52181009D01*
X174259619Y-52323866D02*
X174735809Y-52323866D01*
X174164380Y-52609580D02*
X174497714Y-51609580D01*
X174831047Y-52609580D01*
%TO.C,SW6*%
X37411352Y-104086380D02*
X37982780Y-104086380D01*
X37697066Y-105086380D02*
X37697066Y-104086380D01*
X38792304Y-105086380D02*
X38316114Y-105086380D01*
X38316114Y-104086380D01*
X39601828Y-105086380D02*
X39125638Y-105086380D01*
X39125638Y-104086380D01*
X39935161Y-104705428D02*
X40697066Y-104705428D01*
X41601828Y-104086380D02*
X41411352Y-104086380D01*
X41316114Y-104134000D01*
X41268495Y-104181619D01*
X41173257Y-104324476D01*
X41125638Y-104514952D01*
X41125638Y-104895904D01*
X41173257Y-104991142D01*
X41220876Y-105038761D01*
X41316114Y-105086380D01*
X41506590Y-105086380D01*
X41601828Y-105038761D01*
X41649447Y-104991142D01*
X41697066Y-104895904D01*
X41697066Y-104657809D01*
X41649447Y-104562571D01*
X41601828Y-104514952D01*
X41506590Y-104467333D01*
X41316114Y-104467333D01*
X41220876Y-104514952D01*
X41173257Y-104562571D01*
X41125638Y-104657809D01*
X42078019Y-104800666D02*
X42554209Y-104800666D01*
X41982780Y-105086380D02*
X42316114Y-104086380D01*
X42649447Y-105086380D01*
%TO.C,SW5*%
X37401152Y-93621180D02*
X37972580Y-93621180D01*
X37686866Y-94621180D02*
X37686866Y-93621180D01*
X38782104Y-94621180D02*
X38305914Y-94621180D01*
X38305914Y-93621180D01*
X39591628Y-94621180D02*
X39115438Y-94621180D01*
X39115438Y-93621180D01*
X39924961Y-94240228D02*
X40686866Y-94240228D01*
X41591628Y-93621180D02*
X41401152Y-93621180D01*
X41305914Y-93668800D01*
X41258295Y-93716419D01*
X41163057Y-93859276D01*
X41115438Y-94049752D01*
X41115438Y-94430704D01*
X41163057Y-94525942D01*
X41210676Y-94573561D01*
X41305914Y-94621180D01*
X41496390Y-94621180D01*
X41591628Y-94573561D01*
X41639247Y-94525942D01*
X41686866Y-94430704D01*
X41686866Y-94192609D01*
X41639247Y-94097371D01*
X41591628Y-94049752D01*
X41496390Y-94002133D01*
X41305914Y-94002133D01*
X41210676Y-94049752D01*
X41163057Y-94097371D01*
X41115438Y-94192609D01*
X42067819Y-94335466D02*
X42544009Y-94335466D01*
X41972580Y-94621180D02*
X42305914Y-93621180D01*
X42639247Y-94621180D01*
%TO.C,SW4*%
X37462152Y-83105580D02*
X38033580Y-83105580D01*
X37747866Y-84105580D02*
X37747866Y-83105580D01*
X38843104Y-84105580D02*
X38366914Y-84105580D01*
X38366914Y-83105580D01*
X39652628Y-84105580D02*
X39176438Y-84105580D01*
X39176438Y-83105580D01*
X39985961Y-83724628D02*
X40747866Y-83724628D01*
X41652628Y-83105580D02*
X41462152Y-83105580D01*
X41366914Y-83153200D01*
X41319295Y-83200819D01*
X41224057Y-83343676D01*
X41176438Y-83534152D01*
X41176438Y-83915104D01*
X41224057Y-84010342D01*
X41271676Y-84057961D01*
X41366914Y-84105580D01*
X41557390Y-84105580D01*
X41652628Y-84057961D01*
X41700247Y-84010342D01*
X41747866Y-83915104D01*
X41747866Y-83677009D01*
X41700247Y-83581771D01*
X41652628Y-83534152D01*
X41557390Y-83486533D01*
X41366914Y-83486533D01*
X41271676Y-83534152D01*
X41224057Y-83581771D01*
X41176438Y-83677009D01*
X42128819Y-83819866D02*
X42605009Y-83819866D01*
X42033580Y-84105580D02*
X42366914Y-83105580D01*
X42700247Y-84105580D01*
%TO.C,SW2*%
X37512952Y-62074380D02*
X38084380Y-62074380D01*
X37798666Y-63074380D02*
X37798666Y-62074380D01*
X38893904Y-63074380D02*
X38417714Y-63074380D01*
X38417714Y-62074380D01*
X39703428Y-63074380D02*
X39227238Y-63074380D01*
X39227238Y-62074380D01*
X40036761Y-62693428D02*
X40798666Y-62693428D01*
X41703428Y-62074380D02*
X41512952Y-62074380D01*
X41417714Y-62122000D01*
X41370095Y-62169619D01*
X41274857Y-62312476D01*
X41227238Y-62502952D01*
X41227238Y-62883904D01*
X41274857Y-62979142D01*
X41322476Y-63026761D01*
X41417714Y-63074380D01*
X41608190Y-63074380D01*
X41703428Y-63026761D01*
X41751047Y-62979142D01*
X41798666Y-62883904D01*
X41798666Y-62645809D01*
X41751047Y-62550571D01*
X41703428Y-62502952D01*
X41608190Y-62455333D01*
X41417714Y-62455333D01*
X41322476Y-62502952D01*
X41274857Y-62550571D01*
X41227238Y-62645809D01*
X42179619Y-62788666D02*
X42655809Y-62788666D01*
X42084380Y-63074380D02*
X42417714Y-62074380D01*
X42751047Y-63074380D01*
%TO.C,SW1*%
X37411352Y-51558780D02*
X37982780Y-51558780D01*
X37697066Y-52558780D02*
X37697066Y-51558780D01*
X38792304Y-52558780D02*
X38316114Y-52558780D01*
X38316114Y-51558780D01*
X39601828Y-52558780D02*
X39125638Y-52558780D01*
X39125638Y-51558780D01*
X39935161Y-52177828D02*
X40697066Y-52177828D01*
X41601828Y-51558780D02*
X41411352Y-51558780D01*
X41316114Y-51606400D01*
X41268495Y-51654019D01*
X41173257Y-51796876D01*
X41125638Y-51987352D01*
X41125638Y-52368304D01*
X41173257Y-52463542D01*
X41220876Y-52511161D01*
X41316114Y-52558780D01*
X41506590Y-52558780D01*
X41601828Y-52511161D01*
X41649447Y-52463542D01*
X41697066Y-52368304D01*
X41697066Y-52130209D01*
X41649447Y-52034971D01*
X41601828Y-51987352D01*
X41506590Y-51939733D01*
X41316114Y-51939733D01*
X41220876Y-51987352D01*
X41173257Y-52034971D01*
X41125638Y-52130209D01*
X42078019Y-52273066D02*
X42554209Y-52273066D01*
X41982780Y-52558780D02*
X42316114Y-51558780D01*
X42649447Y-52558780D01*
%TO.C,D11*%
X40927571Y-210768809D02*
X40927571Y-211102142D01*
X41451380Y-211102142D02*
X40451380Y-211102142D01*
X40451380Y-210625952D01*
X41451380Y-210245000D02*
X40451380Y-210245000D01*
X41165666Y-209911666D01*
X40451380Y-209578333D01*
X41451380Y-209578333D01*
X41070428Y-208340238D02*
X41070428Y-207578333D01*
X40451380Y-206435476D02*
X41451380Y-206197380D01*
X40737095Y-206006904D01*
X41451380Y-205816428D01*
X40451380Y-205578333D01*
X41451380Y-205197380D02*
X40451380Y-205197380D01*
X41451380Y-204768809D02*
X40927571Y-204768809D01*
X40832333Y-204816428D01*
X40784714Y-204911666D01*
X40784714Y-205054523D01*
X40832333Y-205149761D01*
X40879952Y-205197380D01*
X41451380Y-204292619D02*
X40784714Y-204292619D01*
X40451380Y-204292619D02*
X40499000Y-204340238D01*
X40546619Y-204292619D01*
X40499000Y-204245000D01*
X40451380Y-204292619D01*
X40546619Y-204292619D01*
X40784714Y-203959285D02*
X40784714Y-203578333D01*
X40451380Y-203816428D02*
X41308523Y-203816428D01*
X41403761Y-203768809D01*
X41451380Y-203673571D01*
X41451380Y-203578333D01*
X41403761Y-202864047D02*
X41451380Y-202959285D01*
X41451380Y-203149761D01*
X41403761Y-203245000D01*
X41308523Y-203292619D01*
X40927571Y-203292619D01*
X40832333Y-203245000D01*
X40784714Y-203149761D01*
X40784714Y-202959285D01*
X40832333Y-202864047D01*
X40927571Y-202816428D01*
X41022809Y-202816428D01*
X41118047Y-203292619D01*
X41451380Y-201149761D02*
X41451380Y-201625952D01*
X40451380Y-201625952D01*
X40927571Y-200816428D02*
X40927571Y-200483095D01*
X41451380Y-200340238D02*
X41451380Y-200816428D01*
X40451380Y-200816428D01*
X40451380Y-200340238D01*
X41451380Y-199911666D02*
X40451380Y-199911666D01*
X40451380Y-199673571D01*
X40499000Y-199530714D01*
X40594238Y-199435476D01*
X40689476Y-199387857D01*
X40879952Y-199340238D01*
X41022809Y-199340238D01*
X41213285Y-199387857D01*
X41308523Y-199435476D01*
X41403761Y-199530714D01*
X41451380Y-199673571D01*
X41451380Y-199911666D01*
D12*
X39540904Y-206216428D02*
X38740904Y-206216428D01*
X38740904Y-206025952D01*
X38779000Y-205911666D01*
X38855190Y-205835476D01*
X38931380Y-205797380D01*
X39083761Y-205759285D01*
X39198047Y-205759285D01*
X39350428Y-205797380D01*
X39426619Y-205835476D01*
X39502809Y-205911666D01*
X39540904Y-206025952D01*
X39540904Y-206216428D01*
X39540904Y-204997380D02*
X39540904Y-205454523D01*
X39540904Y-205225952D02*
X38740904Y-205225952D01*
X38855190Y-205302142D01*
X38931380Y-205378333D01*
X38969476Y-205454523D01*
X39540904Y-204235476D02*
X39540904Y-204692619D01*
X39540904Y-204464047D02*
X38740904Y-204464047D01*
X38855190Y-204540238D01*
X38931380Y-204616428D01*
X38969476Y-204692619D01*
%TO.C,D10*%
D11*
X173417380Y-203956238D02*
X172417380Y-203956238D01*
X173131666Y-203622904D01*
X172417380Y-203289571D01*
X173417380Y-203289571D01*
X173322142Y-202241952D02*
X173369761Y-202289571D01*
X173417380Y-202432428D01*
X173417380Y-202527666D01*
X173369761Y-202670523D01*
X173274523Y-202765761D01*
X173179285Y-202813380D01*
X172988809Y-202861000D01*
X172845952Y-202861000D01*
X172655476Y-202813380D01*
X172560238Y-202765761D01*
X172465000Y-202670523D01*
X172417380Y-202527666D01*
X172417380Y-202432428D01*
X172465000Y-202289571D01*
X172512619Y-202241952D01*
X173417380Y-201813380D02*
X172417380Y-201813380D01*
X172417380Y-201575285D01*
X172465000Y-201432428D01*
X172560238Y-201337190D01*
X172655476Y-201289571D01*
X172845952Y-201241952D01*
X172988809Y-201241952D01*
X173179285Y-201289571D01*
X173274523Y-201337190D01*
X173369761Y-201432428D01*
X173417380Y-201575285D01*
X173417380Y-201813380D01*
X172417380Y-200813380D02*
X173226904Y-200813380D01*
X173322142Y-200765761D01*
X173369761Y-200718142D01*
X173417380Y-200622904D01*
X173417380Y-200432428D01*
X173369761Y-200337190D01*
X173322142Y-200289571D01*
X173226904Y-200241952D01*
X172417380Y-200241952D01*
X173417380Y-199003857D02*
X172417380Y-199003857D01*
X173131666Y-198670523D01*
X172417380Y-198337190D01*
X173417380Y-198337190D01*
X172893571Y-197861000D02*
X172893571Y-197527666D01*
X173417380Y-197384809D02*
X173417380Y-197861000D01*
X172417380Y-197861000D01*
X172417380Y-197384809D01*
X173417380Y-196956238D02*
X172417380Y-196956238D01*
X173417380Y-196384809D01*
X172417380Y-196384809D01*
X172417380Y-195908619D02*
X173226904Y-195908619D01*
X173322142Y-195861000D01*
X173369761Y-195813380D01*
X173417380Y-195718142D01*
X173417380Y-195527666D01*
X173369761Y-195432428D01*
X173322142Y-195384809D01*
X173226904Y-195337190D01*
X172417380Y-195337190D01*
X173036428Y-194099095D02*
X173036428Y-193337190D01*
X172417380Y-192194333D02*
X173417380Y-191956238D01*
X172703095Y-191765761D01*
X173417380Y-191575285D01*
X172417380Y-191337190D01*
X173417380Y-190956238D02*
X172417380Y-190956238D01*
X172893571Y-190956238D02*
X172893571Y-190384809D01*
X173417380Y-190384809D02*
X172417380Y-190384809D01*
X173417380Y-189908619D02*
X172417380Y-189908619D01*
X172417380Y-189575285D02*
X172417380Y-189003857D01*
X173417380Y-189289571D02*
X172417380Y-189289571D01*
X172893571Y-188670523D02*
X172893571Y-188337190D01*
X173417380Y-188194333D02*
X173417380Y-188670523D01*
X172417380Y-188670523D01*
X172417380Y-188194333D01*
X173417380Y-186527666D02*
X173417380Y-187003857D01*
X172417380Y-187003857D01*
X172893571Y-186194333D02*
X172893571Y-185861000D01*
X173417380Y-185718142D02*
X173417380Y-186194333D01*
X172417380Y-186194333D01*
X172417380Y-185718142D01*
X173417380Y-185289571D02*
X172417380Y-185289571D01*
X172417380Y-185051476D01*
X172465000Y-184908619D01*
X172560238Y-184813380D01*
X172655476Y-184765761D01*
X172845952Y-184718142D01*
X172988809Y-184718142D01*
X173179285Y-184765761D01*
X173274523Y-184813380D01*
X173369761Y-184908619D01*
X173417380Y-185051476D01*
X173417380Y-185289571D01*
D12*
X171506904Y-195332428D02*
X170706904Y-195332428D01*
X170706904Y-195141952D01*
X170745000Y-195027666D01*
X170821190Y-194951476D01*
X170897380Y-194913380D01*
X171049761Y-194875285D01*
X171164047Y-194875285D01*
X171316428Y-194913380D01*
X171392619Y-194951476D01*
X171468809Y-195027666D01*
X171506904Y-195141952D01*
X171506904Y-195332428D01*
X171506904Y-194113380D02*
X171506904Y-194570523D01*
X171506904Y-194341952D02*
X170706904Y-194341952D01*
X170821190Y-194418142D01*
X170897380Y-194494333D01*
X170935476Y-194570523D01*
X170706904Y-193618142D02*
X170706904Y-193541952D01*
X170745000Y-193465761D01*
X170783095Y-193427666D01*
X170859285Y-193389571D01*
X171011666Y-193351476D01*
X171202142Y-193351476D01*
X171354523Y-193389571D01*
X171430714Y-193427666D01*
X171468809Y-193465761D01*
X171506904Y-193541952D01*
X171506904Y-193618142D01*
X171468809Y-193694333D01*
X171430714Y-193732428D01*
X171354523Y-193770523D01*
X171202142Y-193808619D01*
X171011666Y-193808619D01*
X170859285Y-193770523D01*
X170783095Y-193732428D01*
X170745000Y-193694333D01*
X170706904Y-193618142D01*
%TO.C,D9*%
D11*
X40864571Y-193734333D02*
X40864571Y-194067666D01*
X41388380Y-194067666D02*
X40388380Y-194067666D01*
X40388380Y-193591476D01*
X41102666Y-193258142D02*
X41102666Y-192781952D01*
X41388380Y-193353380D02*
X40388380Y-193020047D01*
X41388380Y-192686714D01*
X41388380Y-192353380D02*
X40388380Y-192353380D01*
X41388380Y-191401000D02*
X41388380Y-191877190D01*
X40388380Y-191877190D01*
X41007428Y-190305761D02*
X41007428Y-189543857D01*
X41102666Y-188353380D02*
X41102666Y-187877190D01*
X41388380Y-188448619D02*
X40388380Y-188115285D01*
X41388380Y-187781952D01*
X41388380Y-187448619D02*
X40721714Y-187448619D01*
X40816952Y-187448619D02*
X40769333Y-187401000D01*
X40721714Y-187305761D01*
X40721714Y-187162904D01*
X40769333Y-187067666D01*
X40864571Y-187020047D01*
X41388380Y-187020047D01*
X40864571Y-187020047D02*
X40769333Y-186972428D01*
X40721714Y-186877190D01*
X40721714Y-186734333D01*
X40769333Y-186639095D01*
X40864571Y-186591476D01*
X41388380Y-186591476D01*
X41388380Y-186115285D02*
X40388380Y-186115285D01*
X40769333Y-186115285D02*
X40721714Y-186020047D01*
X40721714Y-185829571D01*
X40769333Y-185734333D01*
X40816952Y-185686714D01*
X40912190Y-185639095D01*
X41197904Y-185639095D01*
X41293142Y-185686714D01*
X41340761Y-185734333D01*
X41388380Y-185829571D01*
X41388380Y-186020047D01*
X41340761Y-186115285D01*
X41340761Y-184829571D02*
X41388380Y-184924809D01*
X41388380Y-185115285D01*
X41340761Y-185210523D01*
X41245523Y-185258142D01*
X40864571Y-185258142D01*
X40769333Y-185210523D01*
X40721714Y-185115285D01*
X40721714Y-184924809D01*
X40769333Y-184829571D01*
X40864571Y-184781952D01*
X40959809Y-184781952D01*
X41055047Y-185258142D01*
X41388380Y-184353380D02*
X40721714Y-184353380D01*
X40912190Y-184353380D02*
X40816952Y-184305761D01*
X40769333Y-184258142D01*
X40721714Y-184162904D01*
X40721714Y-184067666D01*
X41388380Y-182496238D02*
X41388380Y-182972428D01*
X40388380Y-182972428D01*
X40864571Y-182162904D02*
X40864571Y-181829571D01*
X41388380Y-181686714D02*
X41388380Y-182162904D01*
X40388380Y-182162904D01*
X40388380Y-181686714D01*
X41388380Y-181258142D02*
X40388380Y-181258142D01*
X40388380Y-181020047D01*
X40436000Y-180877190D01*
X40531238Y-180781952D01*
X40626476Y-180734333D01*
X40816952Y-180686714D01*
X40959809Y-180686714D01*
X41150285Y-180734333D01*
X41245523Y-180781952D01*
X41340761Y-180877190D01*
X41388380Y-181020047D01*
X41388380Y-181258142D01*
D12*
X39477904Y-187991476D02*
X38677904Y-187991476D01*
X38677904Y-187801000D01*
X38716000Y-187686714D01*
X38792190Y-187610523D01*
X38868380Y-187572428D01*
X39020761Y-187534333D01*
X39135047Y-187534333D01*
X39287428Y-187572428D01*
X39363619Y-187610523D01*
X39439809Y-187686714D01*
X39477904Y-187801000D01*
X39477904Y-187991476D01*
X39477904Y-187153380D02*
X39477904Y-187001000D01*
X39439809Y-186924809D01*
X39401714Y-186886714D01*
X39287428Y-186810523D01*
X39135047Y-186772428D01*
X38830285Y-186772428D01*
X38754095Y-186810523D01*
X38716000Y-186848619D01*
X38677904Y-186924809D01*
X38677904Y-187077190D01*
X38716000Y-187153380D01*
X38754095Y-187191476D01*
X38830285Y-187229571D01*
X39020761Y-187229571D01*
X39096952Y-187191476D01*
X39135047Y-187153380D01*
X39173142Y-187077190D01*
X39173142Y-186924809D01*
X39135047Y-186848619D01*
X39096952Y-186810523D01*
X39020761Y-186772428D01*
%TO.C,D8*%
D11*
X99235857Y-31876080D02*
X98902523Y-31399890D01*
X98664428Y-31876080D02*
X98664428Y-30876080D01*
X99045380Y-30876080D01*
X99140619Y-30923700D01*
X99188238Y-30971319D01*
X99235857Y-31066557D01*
X99235857Y-31209414D01*
X99188238Y-31304652D01*
X99140619Y-31352271D01*
X99045380Y-31399890D01*
X98664428Y-31399890D01*
X99664428Y-31876080D02*
X99664428Y-30876080D01*
X99902523Y-30876080D01*
X100045380Y-30923700D01*
X100140619Y-31018938D01*
X100188238Y-31114176D01*
X100235857Y-31304652D01*
X100235857Y-31447509D01*
X100188238Y-31637985D01*
X100140619Y-31733223D01*
X100045380Y-31828461D01*
X99902523Y-31876080D01*
X99664428Y-31876080D01*
X100854904Y-31399890D02*
X100854904Y-31876080D01*
X100521571Y-30876080D02*
X100854904Y-31399890D01*
X101188238Y-30876080D01*
X102283476Y-31495128D02*
X103045380Y-31495128D01*
X104807285Y-30923700D02*
X104712047Y-30876080D01*
X104569190Y-30876080D01*
X104426333Y-30923700D01*
X104331095Y-31018938D01*
X104283476Y-31114176D01*
X104235857Y-31304652D01*
X104235857Y-31447509D01*
X104283476Y-31637985D01*
X104331095Y-31733223D01*
X104426333Y-31828461D01*
X104569190Y-31876080D01*
X104664428Y-31876080D01*
X104807285Y-31828461D01*
X104854904Y-31780842D01*
X104854904Y-31447509D01*
X104664428Y-31447509D01*
X105283476Y-31876080D02*
X105283476Y-31209414D01*
X105283476Y-31399890D02*
X105331095Y-31304652D01*
X105378714Y-31257033D01*
X105473952Y-31209414D01*
X105569190Y-31209414D01*
X106283476Y-31828461D02*
X106188238Y-31876080D01*
X105997761Y-31876080D01*
X105902523Y-31828461D01*
X105854904Y-31733223D01*
X105854904Y-31352271D01*
X105902523Y-31257033D01*
X105997761Y-31209414D01*
X106188238Y-31209414D01*
X106283476Y-31257033D01*
X106331095Y-31352271D01*
X106331095Y-31447509D01*
X105854904Y-31542747D01*
X107140619Y-31828461D02*
X107045380Y-31876080D01*
X106854904Y-31876080D01*
X106759666Y-31828461D01*
X106712047Y-31733223D01*
X106712047Y-31352271D01*
X106759666Y-31257033D01*
X106854904Y-31209414D01*
X107045380Y-31209414D01*
X107140619Y-31257033D01*
X107188238Y-31352271D01*
X107188238Y-31447509D01*
X106712047Y-31542747D01*
X107616809Y-31209414D02*
X107616809Y-31876080D01*
X107616809Y-31304652D02*
X107664428Y-31257033D01*
X107759666Y-31209414D01*
X107902523Y-31209414D01*
X107997761Y-31257033D01*
X108045380Y-31352271D01*
X108045380Y-31876080D01*
X109759666Y-31876080D02*
X109283476Y-31876080D01*
X109283476Y-30876080D01*
X110093000Y-31352271D02*
X110426333Y-31352271D01*
X110569190Y-31876080D02*
X110093000Y-31876080D01*
X110093000Y-30876080D01*
X110569190Y-30876080D01*
X110997761Y-31876080D02*
X110997761Y-30876080D01*
X111235857Y-30876080D01*
X111378714Y-30923700D01*
X111473952Y-31018938D01*
X111521571Y-31114176D01*
X111569190Y-31304652D01*
X111569190Y-31447509D01*
X111521571Y-31637985D01*
X111473952Y-31733223D01*
X111378714Y-31828461D01*
X111235857Y-31876080D01*
X110997761Y-31876080D01*
D12*
X104502523Y-29965604D02*
X104502523Y-29165604D01*
X104693000Y-29165604D01*
X104807285Y-29203700D01*
X104883476Y-29279890D01*
X104921571Y-29356080D01*
X104959666Y-29508461D01*
X104959666Y-29622747D01*
X104921571Y-29775128D01*
X104883476Y-29851319D01*
X104807285Y-29927509D01*
X104693000Y-29965604D01*
X104502523Y-29965604D01*
X105416809Y-29508461D02*
X105340619Y-29470366D01*
X105302523Y-29432271D01*
X105264428Y-29356080D01*
X105264428Y-29317985D01*
X105302523Y-29241795D01*
X105340619Y-29203700D01*
X105416809Y-29165604D01*
X105569190Y-29165604D01*
X105645380Y-29203700D01*
X105683476Y-29241795D01*
X105721571Y-29317985D01*
X105721571Y-29356080D01*
X105683476Y-29432271D01*
X105645380Y-29470366D01*
X105569190Y-29508461D01*
X105416809Y-29508461D01*
X105340619Y-29546557D01*
X105302523Y-29584652D01*
X105264428Y-29660842D01*
X105264428Y-29813223D01*
X105302523Y-29889414D01*
X105340619Y-29927509D01*
X105416809Y-29965604D01*
X105569190Y-29965604D01*
X105645380Y-29927509D01*
X105683476Y-29889414D01*
X105721571Y-29813223D01*
X105721571Y-29660842D01*
X105683476Y-29584652D01*
X105645380Y-29546557D01*
X105569190Y-29508461D01*
%TO.C,D7*%
D11*
X84185380Y-31876080D02*
X84185380Y-30876080D01*
X84661571Y-31876080D02*
X84661571Y-30876080D01*
X85233000Y-31876080D01*
X85233000Y-30876080D01*
X85709190Y-31876080D02*
X85709190Y-30876080D01*
X85947285Y-30876080D01*
X86090142Y-30923700D01*
X86185380Y-31018938D01*
X86233000Y-31114176D01*
X86280619Y-31304652D01*
X86280619Y-31447509D01*
X86233000Y-31637985D01*
X86185380Y-31733223D01*
X86090142Y-31828461D01*
X85947285Y-31876080D01*
X85709190Y-31876080D01*
X86709190Y-31495128D02*
X87471095Y-31495128D01*
X88661571Y-31590366D02*
X89137761Y-31590366D01*
X88566333Y-31876080D02*
X88899666Y-30876080D01*
X89233000Y-31876080D01*
X89566333Y-31876080D02*
X89566333Y-31209414D01*
X89566333Y-31304652D02*
X89613952Y-31257033D01*
X89709190Y-31209414D01*
X89852047Y-31209414D01*
X89947285Y-31257033D01*
X89994904Y-31352271D01*
X89994904Y-31876080D01*
X89994904Y-31352271D02*
X90042523Y-31257033D01*
X90137761Y-31209414D01*
X90280619Y-31209414D01*
X90375857Y-31257033D01*
X90423476Y-31352271D01*
X90423476Y-31876080D01*
X90899666Y-31876080D02*
X90899666Y-30876080D01*
X90899666Y-31257033D02*
X90994904Y-31209414D01*
X91185380Y-31209414D01*
X91280619Y-31257033D01*
X91328238Y-31304652D01*
X91375857Y-31399890D01*
X91375857Y-31685604D01*
X91328238Y-31780842D01*
X91280619Y-31828461D01*
X91185380Y-31876080D01*
X90994904Y-31876080D01*
X90899666Y-31828461D01*
X92185380Y-31828461D02*
X92090142Y-31876080D01*
X91899666Y-31876080D01*
X91804428Y-31828461D01*
X91756809Y-31733223D01*
X91756809Y-31352271D01*
X91804428Y-31257033D01*
X91899666Y-31209414D01*
X92090142Y-31209414D01*
X92185380Y-31257033D01*
X92233000Y-31352271D01*
X92233000Y-31447509D01*
X91756809Y-31542747D01*
X92661571Y-31876080D02*
X92661571Y-31209414D01*
X92661571Y-31399890D02*
X92709190Y-31304652D01*
X92756809Y-31257033D01*
X92852047Y-31209414D01*
X92947285Y-31209414D01*
X94518714Y-31876080D02*
X94042523Y-31876080D01*
X94042523Y-30876080D01*
X94852047Y-31352271D02*
X95185380Y-31352271D01*
X95328238Y-31876080D02*
X94852047Y-31876080D01*
X94852047Y-30876080D01*
X95328238Y-30876080D01*
X95756809Y-31876080D02*
X95756809Y-30876080D01*
X95994904Y-30876080D01*
X96137761Y-30923700D01*
X96233000Y-31018938D01*
X96280619Y-31114176D01*
X96328238Y-31304652D01*
X96328238Y-31447509D01*
X96280619Y-31637985D01*
X96233000Y-31733223D01*
X96137761Y-31828461D01*
X95994904Y-31876080D01*
X95756809Y-31876080D01*
D12*
X89642523Y-29965604D02*
X89642523Y-29165604D01*
X89833000Y-29165604D01*
X89947285Y-29203700D01*
X90023476Y-29279890D01*
X90061571Y-29356080D01*
X90099666Y-29508461D01*
X90099666Y-29622747D01*
X90061571Y-29775128D01*
X90023476Y-29851319D01*
X89947285Y-29927509D01*
X89833000Y-29965604D01*
X89642523Y-29965604D01*
X90366333Y-29165604D02*
X90899666Y-29165604D01*
X90556809Y-29965604D01*
%TO.C,D6*%
D11*
X128818476Y-31352271D02*
X128485142Y-31352271D01*
X128485142Y-31876080D02*
X128485142Y-30876080D01*
X128961333Y-30876080D01*
X129342285Y-31876080D02*
X129342285Y-30876080D01*
X129675619Y-31590366D01*
X130008952Y-30876080D01*
X130008952Y-31876080D01*
X130437523Y-30971319D02*
X130485142Y-30923700D01*
X130580380Y-30876080D01*
X130818476Y-30876080D01*
X130913714Y-30923700D01*
X130961333Y-30971319D01*
X131008952Y-31066557D01*
X131008952Y-31161795D01*
X130961333Y-31304652D01*
X130389904Y-31876080D01*
X131008952Y-31876080D01*
X132199428Y-31495128D02*
X132961333Y-31495128D01*
X134151809Y-31590366D02*
X134628000Y-31590366D01*
X134056571Y-31876080D02*
X134389904Y-30876080D01*
X134723238Y-31876080D01*
X135056571Y-31876080D02*
X135056571Y-31209414D01*
X135056571Y-31304652D02*
X135104190Y-31257033D01*
X135199428Y-31209414D01*
X135342285Y-31209414D01*
X135437523Y-31257033D01*
X135485142Y-31352271D01*
X135485142Y-31876080D01*
X135485142Y-31352271D02*
X135532761Y-31257033D01*
X135628000Y-31209414D01*
X135770857Y-31209414D01*
X135866095Y-31257033D01*
X135913714Y-31352271D01*
X135913714Y-31876080D01*
X136389904Y-31876080D02*
X136389904Y-30876080D01*
X136389904Y-31257033D02*
X136485142Y-31209414D01*
X136675619Y-31209414D01*
X136770857Y-31257033D01*
X136818476Y-31304652D01*
X136866095Y-31399890D01*
X136866095Y-31685604D01*
X136818476Y-31780842D01*
X136770857Y-31828461D01*
X136675619Y-31876080D01*
X136485142Y-31876080D01*
X136389904Y-31828461D01*
X137675619Y-31828461D02*
X137580380Y-31876080D01*
X137389904Y-31876080D01*
X137294666Y-31828461D01*
X137247047Y-31733223D01*
X137247047Y-31352271D01*
X137294666Y-31257033D01*
X137389904Y-31209414D01*
X137580380Y-31209414D01*
X137675619Y-31257033D01*
X137723238Y-31352271D01*
X137723238Y-31447509D01*
X137247047Y-31542747D01*
X138151809Y-31876080D02*
X138151809Y-31209414D01*
X138151809Y-31399890D02*
X138199428Y-31304652D01*
X138247047Y-31257033D01*
X138342285Y-31209414D01*
X138437523Y-31209414D01*
X140008952Y-31876080D02*
X139532761Y-31876080D01*
X139532761Y-30876080D01*
X140342285Y-31352271D02*
X140675619Y-31352271D01*
X140818476Y-31876080D02*
X140342285Y-31876080D01*
X140342285Y-30876080D01*
X140818476Y-30876080D01*
X141247047Y-31876080D02*
X141247047Y-30876080D01*
X141485142Y-30876080D01*
X141628000Y-30923700D01*
X141723238Y-31018938D01*
X141770857Y-31114176D01*
X141818476Y-31304652D01*
X141818476Y-31447509D01*
X141770857Y-31637985D01*
X141723238Y-31733223D01*
X141628000Y-31828461D01*
X141485142Y-31876080D01*
X141247047Y-31876080D01*
D12*
X134537523Y-29965604D02*
X134537523Y-29165604D01*
X134728000Y-29165604D01*
X134842285Y-29203700D01*
X134918476Y-29279890D01*
X134956571Y-29356080D01*
X134994666Y-29508461D01*
X134994666Y-29622747D01*
X134956571Y-29775128D01*
X134918476Y-29851319D01*
X134842285Y-29927509D01*
X134728000Y-29965604D01*
X134537523Y-29965604D01*
X135680380Y-29165604D02*
X135528000Y-29165604D01*
X135451809Y-29203700D01*
X135413714Y-29241795D01*
X135337523Y-29356080D01*
X135299428Y-29508461D01*
X135299428Y-29813223D01*
X135337523Y-29889414D01*
X135375619Y-29927509D01*
X135451809Y-29965604D01*
X135604190Y-29965604D01*
X135680380Y-29927509D01*
X135718476Y-29889414D01*
X135756571Y-29813223D01*
X135756571Y-29622747D01*
X135718476Y-29546557D01*
X135680380Y-29508461D01*
X135604190Y-29470366D01*
X135451809Y-29470366D01*
X135375619Y-29508461D01*
X135337523Y-29546557D01*
X135299428Y-29622747D01*
%TO.C,D5*%
D11*
X68683476Y-31288771D02*
X68350142Y-31288771D01*
X68350142Y-31812580D02*
X68350142Y-30812580D01*
X68826333Y-30812580D01*
X69207285Y-31812580D02*
X69207285Y-30812580D01*
X69540619Y-31526866D01*
X69873952Y-30812580D01*
X69873952Y-31812580D01*
X70873952Y-31812580D02*
X70302523Y-31812580D01*
X70588238Y-31812580D02*
X70588238Y-30812580D01*
X70493000Y-30955438D01*
X70397761Y-31050676D01*
X70302523Y-31098295D01*
X72064428Y-31431628D02*
X72826333Y-31431628D01*
X74016809Y-31526866D02*
X74493000Y-31526866D01*
X73921571Y-31812580D02*
X74254904Y-30812580D01*
X74588238Y-31812580D01*
X74921571Y-31812580D02*
X74921571Y-31145914D01*
X74921571Y-31241152D02*
X74969190Y-31193533D01*
X75064428Y-31145914D01*
X75207285Y-31145914D01*
X75302523Y-31193533D01*
X75350142Y-31288771D01*
X75350142Y-31812580D01*
X75350142Y-31288771D02*
X75397761Y-31193533D01*
X75493000Y-31145914D01*
X75635857Y-31145914D01*
X75731095Y-31193533D01*
X75778714Y-31288771D01*
X75778714Y-31812580D01*
X76254904Y-31812580D02*
X76254904Y-30812580D01*
X76254904Y-31193533D02*
X76350142Y-31145914D01*
X76540619Y-31145914D01*
X76635857Y-31193533D01*
X76683476Y-31241152D01*
X76731095Y-31336390D01*
X76731095Y-31622104D01*
X76683476Y-31717342D01*
X76635857Y-31764961D01*
X76540619Y-31812580D01*
X76350142Y-31812580D01*
X76254904Y-31764961D01*
X77540619Y-31764961D02*
X77445380Y-31812580D01*
X77254904Y-31812580D01*
X77159666Y-31764961D01*
X77112047Y-31669723D01*
X77112047Y-31288771D01*
X77159666Y-31193533D01*
X77254904Y-31145914D01*
X77445380Y-31145914D01*
X77540619Y-31193533D01*
X77588238Y-31288771D01*
X77588238Y-31384009D01*
X77112047Y-31479247D01*
X78016809Y-31812580D02*
X78016809Y-31145914D01*
X78016809Y-31336390D02*
X78064428Y-31241152D01*
X78112047Y-31193533D01*
X78207285Y-31145914D01*
X78302523Y-31145914D01*
X79873952Y-31812580D02*
X79397761Y-31812580D01*
X79397761Y-30812580D01*
X80207285Y-31288771D02*
X80540619Y-31288771D01*
X80683476Y-31812580D02*
X80207285Y-31812580D01*
X80207285Y-30812580D01*
X80683476Y-30812580D01*
X81112047Y-31812580D02*
X81112047Y-30812580D01*
X81350142Y-30812580D01*
X81492999Y-30860200D01*
X81588238Y-30955438D01*
X81635857Y-31050676D01*
X81683476Y-31241152D01*
X81683476Y-31384009D01*
X81635857Y-31574485D01*
X81588238Y-31669723D01*
X81492999Y-31764961D01*
X81350142Y-31812580D01*
X81112047Y-31812580D01*
D12*
X74402523Y-29902104D02*
X74402523Y-29102104D01*
X74593000Y-29102104D01*
X74707285Y-29140200D01*
X74783476Y-29216390D01*
X74821571Y-29292580D01*
X74859666Y-29444961D01*
X74859666Y-29559247D01*
X74821571Y-29711628D01*
X74783476Y-29787819D01*
X74707285Y-29864009D01*
X74593000Y-29902104D01*
X74402523Y-29902104D01*
X75583476Y-29102104D02*
X75202523Y-29102104D01*
X75164428Y-29483057D01*
X75202523Y-29444961D01*
X75278714Y-29406866D01*
X75469190Y-29406866D01*
X75545380Y-29444961D01*
X75583476Y-29483057D01*
X75621571Y-29559247D01*
X75621571Y-29749723D01*
X75583476Y-29825914D01*
X75545380Y-29864009D01*
X75469190Y-29902104D01*
X75278714Y-29902104D01*
X75202523Y-29864009D01*
X75164428Y-29825914D01*
%TD*%
M02*
