M48
; DRILL file {KiCad (5.1.9)-1} date 06/21/21 17:09:52
; FORMAT={-:-/ absolute / metric / decimal}
; #@! TF.CreationDate,2021-06-21T17:09:52+02:00
; #@! TF.GenerationSoftware,Kicad,Pcbnew,(5.1.9)-1
; #@! TF.FileFunction,Plated,1,2,PTH
FMAT,2
METRIC
T1C0.400
T2C0.762
T3C1.000
T4C1.520
%
G90
G05
T1
X40.146Y-169.915
X40.783Y-191.216
X41.141Y-188.601
X41.362Y-206.598
X51.536Y-100.325
X55.604Y-111.837
X57.458Y-119.521
X59.078Y-92.455
X59.184Y-94.704
X59.764Y-104.158
X59.885Y-102.573
X61.501Y-102.697
X63.062Y-146.165
X63.453Y-36.462
X64.475Y-160.112
X66.246Y-144.183
X68.349Y-132.108
X68.656Y-129.29
X68.677Y-126.566
X70.647Y-109.803
X70.941Y-126.72
X71.225Y-111.444
X73.465Y-31.913
X73.506Y-105.342
X73.537Y-107.939
X74.983Y-102.067
X75.076Y-92.068
X76.128Y-92.962
X77.225Y-89.917
X77.438Y-181.994
X79.518Y-111.44
X79.919Y-88.723
X81.447Y-107.38
X81.669Y-96.594
X83.747Y-97.478
X83.843Y-68.019
X85.11Y-102.119
X85.32Y-91.406
X86.31Y-81.681
X88.795Y-32.041
X90.043Y-91.35
X90.874Y-95.343
X91.037Y-111.703
X91.06Y-92.768
X91.705Y-109.391
X92.992Y-107.083
X93.345Y-82.576
X94.647Y-110.181
X95.654Y-91.495
X97.816Y-107.208
X100.596Y-109.079
X102.022Y-98.821
X102.319Y-106.867
X102.319Y-120.564
X103.073Y-145.339
X103.239Y-31.913
X104.028Y-102.296
X104.028Y-120.19
X104.375Y-99.654
X106.061Y-106.554
X106.522Y-96.602
X106.844Y-132.206
X107.115Y-105.537
X107.501Y-170.605
X110.245Y-111.277
X110.245Y-118.844
X111.125Y-79.471
X111.846Y-111.736
X112.898Y-175.704
X114.409Y-96.588
X116.594Y-128.762
X116.644Y-138.981
X116.732Y-180.135
X117.77Y-84.892
X118.933Y-138.142
X119.42Y-101.866
X120.654Y-98.679
X121.717Y-190.094
X122.922Y-110.0
X123.274Y-200.008
X124.106Y-111.796
X124.928Y-108.161
X125.52Y-95.471
X125.979Y-100.628
X126.198Y-108.758
X127.782Y-100.037
X128.721Y-96.025
X128.907Y-151.227
X128.958Y-156.029
X129.855Y-112.967
X129.969Y-100.571
X130.464Y-116.84
X130.464Y-120.41
X131.651Y-117.584
X132.886Y-123.364
X132.992Y-221.083
X133.641Y-31.589
X133.838Y-96.827
X134.778Y-104.708
X135.803Y-199.511
X135.874Y-103.351
X135.989Y-109.163
X136.553Y-188.42
X138.87Y-153.208
X139.438Y-85.221
X139.623Y-157.031
X140.678Y-142.549
X141.558Y-106.527
X141.732Y-180.645
X141.861Y-186.195
X142.017Y-104.596
X143.918Y-126.689
X144.707Y-117.598
X145.501Y-175.704
X146.104Y-108.632
X146.127Y-107.164
X146.218Y-105.186
X146.816Y-160.467
X148.398Y-109.369
X148.438Y-145.973
X148.494Y-175.704
X149.071Y-104.196
X149.164Y-96.977
X149.639Y-106.228
X149.683Y-120.821
X150.501Y-96.864
X150.998Y-120.687
X151.562Y-107.482
X152.044Y-204.013
X152.587Y-123.729
X154.147Y-160.481
X163.206Y-104.328
X165.303Y-176.479
X167.64Y-150.876
X168.798Y-190.986
X169.548Y-107.524
X176.837Y-88.167
T2
X36.02Y-98.539
X36.02Y-103.039
X36.03Y-56.476
X36.03Y-60.976
X36.03Y-109.004
X36.03Y-113.504
X36.046Y-77.508
X36.046Y-82.008
X36.081Y-88.023
X36.081Y-92.523
X36.132Y-66.992
X36.132Y-71.492
X39.12Y-97.889
X39.12Y-103.689
X39.13Y-55.826
X39.13Y-61.626
X39.13Y-108.354
X39.13Y-114.154
X39.146Y-76.858
X39.146Y-82.658
X39.181Y-87.373
X39.181Y-93.173
X39.232Y-66.342
X39.232Y-72.142
X42.12Y-98.539
X42.12Y-103.039
X42.13Y-56.476
X42.13Y-60.976
X42.13Y-109.004
X42.13Y-113.504
X42.146Y-77.508
X42.146Y-82.008
X42.181Y-88.023
X42.181Y-92.523
X42.232Y-66.992
X42.232Y-71.492
X48.132Y-235.6
X48.132Y-240.1
X48.146Y-211.569
X48.146Y-216.069
X48.146Y-223.583
X48.146Y-228.083
X48.172Y-199.605
X48.172Y-204.105
X51.232Y-234.95
X51.232Y-240.75
X51.246Y-210.919
X51.246Y-216.719
X51.246Y-222.933
X51.246Y-228.733
X51.272Y-198.955
X51.272Y-204.755
X52.134Y-135.47
X52.134Y-139.97
X52.159Y-187.388
X52.159Y-191.888
X52.185Y-161.328
X52.185Y-165.828
X52.21Y-148.399
X52.21Y-152.899
X52.261Y-174.332
X52.261Y-178.832
X54.232Y-235.6
X54.232Y-240.1
X54.246Y-211.569
X54.246Y-216.069
X54.246Y-223.583
X54.246Y-228.083
X54.272Y-199.605
X54.272Y-204.105
X55.234Y-134.82
X55.234Y-140.62
X55.259Y-186.738
X55.259Y-192.538
X55.285Y-160.678
X55.285Y-166.478
X55.31Y-147.749
X55.31Y-153.549
X55.361Y-173.682
X55.361Y-179.482
X58.234Y-135.47
X58.234Y-139.97
X58.259Y-187.388
X58.259Y-191.888
X58.285Y-161.328
X58.285Y-165.828
X58.31Y-148.399
X58.31Y-152.899
X58.361Y-174.332
X58.361Y-178.832
X63.081Y-211.594
X63.081Y-216.094
X63.081Y-223.608
X63.081Y-228.108
X63.092Y-235.6
X63.092Y-240.1
X63.132Y-199.605
X63.132Y-204.105
X66.181Y-210.944
X66.181Y-216.744
X66.181Y-222.958
X66.181Y-228.758
X66.192Y-234.95
X66.192Y-240.75
X66.232Y-198.955
X66.232Y-204.755
X69.181Y-211.594
X69.181Y-216.094
X69.181Y-223.608
X69.181Y-228.108
X69.192Y-235.6
X69.192Y-240.1
X69.232Y-199.605
X69.232Y-204.105
X70.143Y-174.358
X70.143Y-178.858
X70.168Y-161.328
X70.168Y-165.828
X70.219Y-135.47
X70.219Y-139.97
X70.219Y-187.413
X70.219Y-191.913
X70.295Y-148.399
X70.295Y-152.899
X73.243Y-173.708
X73.243Y-179.508
X73.268Y-160.678
X73.268Y-166.478
X73.319Y-134.82
X73.319Y-140.62
X73.319Y-186.763
X73.319Y-192.563
X73.395Y-147.749
X73.395Y-153.549
X76.243Y-174.358
X76.243Y-178.858
X76.268Y-161.328
X76.268Y-165.828
X76.319Y-135.47
X76.319Y-139.97
X76.319Y-187.413
X76.319Y-191.913
X76.395Y-148.399
X76.395Y-152.899
X78.093Y-199.58
X78.093Y-204.08
X78.118Y-223.634
X78.118Y-228.134
X78.118Y-235.546
X78.118Y-240.046
X78.144Y-211.594
X78.144Y-216.094
X81.193Y-198.93
X81.193Y-204.73
X81.218Y-222.984
X81.218Y-228.784
X81.218Y-234.896
X81.218Y-240.696
X81.244Y-210.944
X81.244Y-216.744
X84.193Y-199.58
X84.193Y-204.08
X84.218Y-223.634
X84.218Y-228.134
X84.218Y-235.546
X84.218Y-240.046
X84.244Y-211.594
X84.244Y-216.094
X88.329Y-135.47
X88.329Y-139.97
X88.329Y-148.424
X88.329Y-152.924
X91.429Y-134.82
X91.429Y-140.62
X91.429Y-147.774
X91.429Y-153.574
X93.993Y-206.565
X93.993Y-211.065
X94.069Y-178.625
X94.069Y-183.125
X94.069Y-220.611
X94.069Y-225.111
X94.095Y-192.595
X94.095Y-197.095
X94.146Y-164.579
X94.146Y-169.079
X94.171Y-234.632
X94.171Y-239.132
X94.429Y-135.47
X94.429Y-139.97
X94.429Y-148.424
X94.429Y-152.924
X97.093Y-205.915
X97.093Y-211.715
X97.169Y-177.975
X97.169Y-183.775
X97.169Y-219.961
X97.169Y-225.761
X97.195Y-191.945
X97.195Y-197.745
X97.246Y-163.929
X97.246Y-169.729
X97.271Y-233.982
X97.271Y-239.782
X100.093Y-206.565
X100.093Y-211.065
X100.169Y-178.625
X100.169Y-183.125
X100.169Y-220.611
X100.169Y-225.111
X100.195Y-192.595
X100.195Y-197.095
X100.246Y-164.579
X100.246Y-169.079
X100.271Y-234.632
X100.271Y-239.132
X106.287Y-135.445
X106.287Y-139.945
X106.312Y-148.424
X106.312Y-152.924
X109.106Y-206.565
X109.106Y-211.065
X109.106Y-220.637
X109.106Y-225.137
X109.157Y-164.604
X109.157Y-169.104
X109.208Y-178.625
X109.208Y-183.125
X109.208Y-192.595
X109.208Y-197.095
X109.233Y-234.632
X109.233Y-239.132
X109.387Y-134.795
X109.387Y-140.595
X109.412Y-147.774
X109.412Y-153.574
X112.206Y-205.915
X112.206Y-211.715
X112.206Y-219.987
X112.206Y-225.787
X112.257Y-163.954
X112.257Y-169.754
X112.308Y-177.975
X112.308Y-183.775
X112.308Y-191.945
X112.308Y-197.745
X112.333Y-233.982
X112.333Y-239.782
X112.387Y-135.445
X112.387Y-139.945
X112.412Y-148.424
X112.412Y-152.924
X115.206Y-206.565
X115.206Y-211.065
X115.206Y-220.637
X115.206Y-225.137
X115.257Y-164.604
X115.257Y-169.104
X115.308Y-178.625
X115.308Y-183.125
X115.308Y-192.595
X115.308Y-197.095
X115.333Y-234.632
X115.333Y-239.132
X124.168Y-192.595
X124.168Y-197.095
X124.194Y-148.424
X124.194Y-152.924
X124.194Y-206.59
X124.194Y-211.09
X124.194Y-220.637
X124.194Y-225.137
X124.194Y-234.632
X124.194Y-239.132
X124.245Y-164.604
X124.245Y-169.104
X124.245Y-178.6
X124.245Y-183.1
X124.27Y-135.42
X124.27Y-139.92
X127.268Y-191.945
X127.268Y-197.745
X127.294Y-147.774
X127.294Y-153.574
X127.294Y-205.94
X127.294Y-211.74
X127.294Y-219.987
X127.294Y-225.787
X127.294Y-233.982
X127.294Y-239.782
X127.345Y-163.954
X127.345Y-169.754
X127.345Y-177.95
X127.345Y-183.75
X127.37Y-134.77
X127.37Y-140.57
X130.268Y-192.595
X130.268Y-197.095
X130.294Y-148.424
X130.294Y-152.924
X130.294Y-206.59
X130.294Y-211.09
X130.294Y-220.637
X130.294Y-225.137
X130.294Y-234.632
X130.294Y-239.132
X130.345Y-164.604
X130.345Y-169.104
X130.345Y-178.6
X130.345Y-183.1
X130.37Y-135.42
X130.37Y-139.92
X139.053Y-206.59
X139.053Y-211.09
X139.078Y-220.611
X139.078Y-225.111
X139.104Y-192.62
X139.104Y-197.12
X139.18Y-178.6
X139.18Y-183.1
X139.205Y-164.63
X139.205Y-169.13
X139.205Y-234.607
X139.205Y-239.107
X142.153Y-205.94
X142.153Y-211.74
X142.178Y-219.961
X142.178Y-225.761
X142.204Y-191.97
X142.204Y-197.77
X142.28Y-177.95
X142.28Y-183.75
X142.304Y-135.42
X142.304Y-139.92
X142.305Y-163.98
X142.305Y-169.78
X142.305Y-233.957
X142.305Y-239.757
X142.329Y-148.424
X142.329Y-152.924
X145.153Y-206.59
X145.153Y-211.09
X145.178Y-220.611
X145.178Y-225.111
X145.204Y-192.62
X145.204Y-197.12
X145.28Y-178.6
X145.28Y-183.1
X145.305Y-164.63
X145.305Y-169.13
X145.305Y-234.607
X145.305Y-239.107
X145.404Y-134.77
X145.404Y-140.57
X145.429Y-147.774
X145.429Y-153.574
X148.404Y-135.42
X148.404Y-139.92
X148.429Y-148.424
X148.429Y-152.924
X154.14Y-178.6
X154.14Y-183.1
X154.14Y-192.57
X154.14Y-197.07
X154.166Y-164.63
X154.166Y-169.13
X154.166Y-220.637
X154.166Y-225.137
X154.242Y-234.607
X154.242Y-239.107
X154.267Y-206.616
X154.267Y-211.116
X157.24Y-177.95
X157.24Y-183.75
X157.24Y-191.92
X157.24Y-197.72
X157.266Y-163.98
X157.266Y-169.78
X157.266Y-219.987
X157.266Y-225.787
X157.342Y-233.957
X157.342Y-239.757
X157.367Y-205.966
X157.367Y-211.766
X158.712Y-135.42
X158.712Y-139.92
X158.712Y-148.628
X158.712Y-153.128
X160.24Y-178.6
X160.24Y-183.1
X160.24Y-192.57
X160.24Y-197.07
X160.266Y-164.63
X160.266Y-169.13
X160.266Y-220.637
X160.266Y-225.137
X160.342Y-234.607
X160.342Y-239.107
X160.367Y-206.616
X160.367Y-211.116
X161.812Y-134.77
X161.812Y-140.57
X161.812Y-147.978
X161.812Y-153.778
X164.812Y-135.42
X164.812Y-139.92
X164.812Y-148.628
X164.812Y-153.128
X168.161Y-88.023
X168.161Y-92.523
X168.161Y-109.004
X168.161Y-113.504
X168.176Y-77.508
X168.176Y-82.008
X168.212Y-56.527
X168.212Y-61.027
X168.212Y-66.992
X168.212Y-71.492
X168.314Y-98.539
X168.314Y-103.039
X171.261Y-87.373
X171.261Y-93.173
X171.261Y-108.354
X171.261Y-114.154
X171.276Y-76.858
X171.276Y-82.658
X171.312Y-55.877
X171.312Y-61.677
X171.312Y-66.342
X171.312Y-72.142
X171.414Y-97.889
X171.414Y-103.689
X174.261Y-88.023
X174.261Y-92.523
X174.261Y-109.004
X174.261Y-113.504
X174.276Y-77.508
X174.276Y-82.008
X174.312Y-56.527
X174.312Y-61.027
X174.312Y-66.992
X174.312Y-71.492
X174.414Y-98.539
X174.414Y-103.039
T3
X42.824Y-32.533
X42.824Y-37.033
X49.324Y-32.533
X49.324Y-37.033
X80.645Y-70.307
X80.645Y-72.847
X83.185Y-70.307
X83.185Y-72.847
X85.725Y-70.307
X85.725Y-72.847
X88.265Y-70.307
X88.265Y-72.847
X90.805Y-70.307
X90.805Y-72.847
X93.345Y-70.307
X93.345Y-72.847
X95.885Y-70.307
X95.885Y-72.847
X98.425Y-70.307
X98.425Y-72.847
X100.965Y-70.307
X100.965Y-72.847
X103.505Y-70.307
X103.505Y-72.847
X106.045Y-70.307
X106.045Y-72.847
X108.585Y-70.307
X108.585Y-72.847
X111.125Y-70.307
X111.125Y-72.847
X113.665Y-70.307
X113.665Y-72.847
X116.205Y-70.307
X116.205Y-72.847
X118.745Y-70.307
X118.745Y-72.847
X121.285Y-70.307
X121.285Y-72.847
X123.825Y-70.307
X123.825Y-72.847
X126.365Y-70.307
X126.365Y-72.847
X128.905Y-70.307
X128.905Y-72.847
T4
X37.782Y-211.925
X37.782Y-217.005
X37.782Y-222.529
X37.782Y-227.609
X173.38Y-151.816
X173.38Y-156.896
X173.38Y-162.509
X173.38Y-167.589
X173.469Y-119.761
X173.469Y-124.841
X173.469Y-130.556
X173.469Y-135.636
X173.482Y-213.563
X173.482Y-218.643
X173.482Y-224.18
X173.482Y-229.26
T0
M30
