%TF.GenerationSoftware,KiCad,Pcbnew,(5.1.9)-1*%
%TF.CreationDate,2021-06-15T23:19:55+02:00*%
%TF.ProjectId,opena3xx-mcdu,6f70656e-6133-4787-982d-6d6364752e6b,0.1*%
%TF.SameCoordinates,Original*%
%TF.FileFunction,Soldermask,Top*%
%TF.FilePolarity,Negative*%
%FSLAX46Y46*%
G04 Gerber Fmt 4.6, Leading zero omitted, Abs format (unit mm)*
G04 Created by KiCad (PCBNEW (5.1.9)-1) date 2021-06-15 23:19:55*
%MOMM*%
%LPD*%
G01*
G04 APERTURE LIST*
%ADD10R,1.524000X1.524000*%
%ADD11C,3.000000*%
%ADD12R,3.000000X3.000000*%
%ADD13C,1.700000*%
%ADD14O,1.700000X1.700000*%
%ADD15R,1.700000X1.700000*%
G04 APERTURE END LIST*
D10*
%TO.C,SW74*%
X207048600Y-161327600D03*
X213148600Y-161327600D03*
X207048600Y-165827600D03*
X213148600Y-165827600D03*
X210148600Y-160677600D03*
X210148600Y-166477600D03*
%TD*%
D11*
%TO.C,J9*%
X310261000Y-167589200D03*
D12*
X310261000Y-162509200D03*
%TD*%
D10*
%TO.C,SW73*%
X279184600Y-135419600D03*
X285284600Y-135419600D03*
X279184600Y-139919600D03*
X285284600Y-139919600D03*
X282284600Y-134769600D03*
X282284600Y-140569600D03*
%TD*%
%TO.C,SW17*%
X264250600Y-140570000D03*
X264250600Y-134770000D03*
X267250600Y-139920000D03*
X261150600Y-139920000D03*
X267250600Y-135420000D03*
X261150600Y-135420000D03*
%TD*%
D11*
%TO.C,J8*%
X310261000Y-156895800D03*
D12*
X310261000Y-151815800D03*
%TD*%
D10*
%TO.C,SW3*%
X176026240Y-82657600D03*
X176026240Y-76857600D03*
X179026240Y-82007600D03*
X172926240Y-82007600D03*
X179026240Y-77507600D03*
X172926240Y-77507600D03*
%TD*%
%TO.C,SW72*%
X298693000Y-153777600D03*
X298693000Y-147977600D03*
X301693000Y-153127600D03*
X295593000Y-153127600D03*
X301693000Y-148627600D03*
X295593000Y-148627600D03*
%TD*%
%TO.C,SW71*%
X298693000Y-140569600D03*
X298693000Y-134769600D03*
X301693000Y-139919600D03*
X295593000Y-139919600D03*
X301693000Y-135419600D03*
X295593000Y-135419600D03*
%TD*%
D11*
%TO.C,J7*%
X310349900Y-124841000D03*
D12*
X310349900Y-119761000D03*
%TD*%
D11*
%TO.C,J6*%
X310349900Y-135636000D03*
D12*
X310349900Y-130556000D03*
%TD*%
D10*
%TO.C,SW25*%
X188152600Y-204755000D03*
X188152600Y-198955000D03*
X191152600Y-204105000D03*
X185052600Y-204105000D03*
X191152600Y-199605000D03*
X185052600Y-199605000D03*
%TD*%
D13*
%TO.C,SW100*%
X179705000Y-37033200D03*
X186205000Y-37033200D03*
X179705000Y-32533200D03*
X186205000Y-32533200D03*
%TD*%
D10*
%TO.C,SW70*%
X192139600Y-192538000D03*
X192139600Y-186738000D03*
X195139600Y-191888000D03*
X189039600Y-191888000D03*
X195139600Y-187388000D03*
X189039600Y-187388000D03*
%TD*%
%TO.C,SW69*%
X192241600Y-179482000D03*
X192241600Y-173682000D03*
X195241600Y-178832000D03*
X189141600Y-178832000D03*
X195241600Y-174332000D03*
X189141600Y-174332000D03*
%TD*%
%TO.C,SW68*%
X210199600Y-192563000D03*
X210199600Y-186763000D03*
X213199600Y-191913000D03*
X207099600Y-191913000D03*
X213199600Y-187413000D03*
X207099600Y-187413000D03*
%TD*%
%TO.C,SW67*%
X210123600Y-179508000D03*
X210123600Y-173708000D03*
X213123600Y-178858000D03*
X207023600Y-178858000D03*
X213123600Y-174358000D03*
X207023600Y-174358000D03*
%TD*%
%TO.C,SW66*%
X294222600Y-239757000D03*
X294222600Y-233957000D03*
X297222600Y-239107000D03*
X291122600Y-239107000D03*
X297222600Y-234607000D03*
X291122600Y-234607000D03*
%TD*%
%TO.C,SW65*%
X279185600Y-239757000D03*
X279185600Y-233957000D03*
X282185600Y-239107000D03*
X276085600Y-239107000D03*
X282185600Y-234607000D03*
X276085600Y-234607000D03*
%TD*%
%TO.C,SW64*%
X264174600Y-239782000D03*
X264174600Y-233982000D03*
X267174600Y-239132000D03*
X261074600Y-239132000D03*
X267174600Y-234632000D03*
X261074600Y-234632000D03*
%TD*%
%TO.C,SW63*%
X249213600Y-239782000D03*
X249213600Y-233982000D03*
X252213600Y-239132000D03*
X246113600Y-239132000D03*
X252213600Y-234632000D03*
X246113600Y-234632000D03*
%TD*%
%TO.C,SW62*%
X234151600Y-239782000D03*
X234151600Y-233982000D03*
X237151600Y-239132000D03*
X231051600Y-239132000D03*
X237151600Y-234632000D03*
X231051600Y-234632000D03*
%TD*%
%TO.C,SW61*%
X294146600Y-225787000D03*
X294146600Y-219987000D03*
X297146600Y-225137000D03*
X291046600Y-225137000D03*
X297146600Y-220637000D03*
X291046600Y-220637000D03*
%TD*%
%TO.C,SW60*%
X279058600Y-225761000D03*
X279058600Y-219961000D03*
X282058600Y-225111000D03*
X275958600Y-225111000D03*
X282058600Y-220611000D03*
X275958600Y-220611000D03*
%TD*%
%TO.C,SW59*%
X264174600Y-225787000D03*
X264174600Y-219987000D03*
X267174600Y-225137000D03*
X261074600Y-225137000D03*
X267174600Y-220637000D03*
X261074600Y-220637000D03*
%TD*%
%TO.C,SW58*%
X249086600Y-225787000D03*
X249086600Y-219987000D03*
X252086600Y-225137000D03*
X245986600Y-225137000D03*
X252086600Y-220637000D03*
X245986600Y-220637000D03*
%TD*%
%TO.C,SW57*%
X234049600Y-225761000D03*
X234049600Y-219961000D03*
X237049600Y-225111000D03*
X230949600Y-225111000D03*
X237049600Y-220611000D03*
X230949600Y-220611000D03*
%TD*%
%TO.C,SW56*%
X294247600Y-211766000D03*
X294247600Y-205966000D03*
X297247600Y-211116000D03*
X291147600Y-211116000D03*
X297247600Y-206616000D03*
X291147600Y-206616000D03*
%TD*%
%TO.C,SW55*%
X279033600Y-211740000D03*
X279033600Y-205940000D03*
X282033600Y-211090000D03*
X275933600Y-211090000D03*
X282033600Y-206590000D03*
X275933600Y-206590000D03*
%TD*%
%TO.C,SW54*%
X264174600Y-211740000D03*
X264174600Y-205940000D03*
X267174600Y-211090000D03*
X261074600Y-211090000D03*
X267174600Y-206590000D03*
X261074600Y-206590000D03*
%TD*%
%TO.C,SW53*%
X249086600Y-211715000D03*
X249086600Y-205915000D03*
X252086600Y-211065000D03*
X245986600Y-211065000D03*
X252086600Y-206565000D03*
X245986600Y-206565000D03*
%TD*%
%TO.C,SW52*%
X233973600Y-211715000D03*
X233973600Y-205915000D03*
X236973600Y-211065000D03*
X230873600Y-211065000D03*
X236973600Y-206565000D03*
X230873600Y-206565000D03*
%TD*%
%TO.C,SW51*%
X294120600Y-197720000D03*
X294120600Y-191920000D03*
X297120600Y-197070000D03*
X291020600Y-197070000D03*
X297120600Y-192570000D03*
X291020600Y-192570000D03*
%TD*%
%TO.C,SW50*%
X279084600Y-197770000D03*
X279084600Y-191970000D03*
X282084600Y-197120000D03*
X275984600Y-197120000D03*
X282084600Y-192620000D03*
X275984600Y-192620000D03*
%TD*%
%TO.C,SW49*%
X264148600Y-197745000D03*
X264148600Y-191945000D03*
X267148600Y-197095000D03*
X261048600Y-197095000D03*
X267148600Y-192595000D03*
X261048600Y-192595000D03*
%TD*%
%TO.C,SW48*%
X249188600Y-197745000D03*
X249188600Y-191945000D03*
X252188600Y-197095000D03*
X246088600Y-197095000D03*
X252188600Y-192595000D03*
X246088600Y-192595000D03*
%TD*%
%TO.C,SW47*%
X234075600Y-197745000D03*
X234075600Y-191945000D03*
X237075600Y-197095000D03*
X230975600Y-197095000D03*
X237075600Y-192595000D03*
X230975600Y-192595000D03*
%TD*%
%TO.C,SW46*%
X294120600Y-183750000D03*
X294120600Y-177950000D03*
X297120600Y-183100000D03*
X291020600Y-183100000D03*
X297120600Y-178600000D03*
X291020600Y-178600000D03*
%TD*%
%TO.C,SW45*%
X279160600Y-183750000D03*
X279160600Y-177950000D03*
X282160600Y-183100000D03*
X276060600Y-183100000D03*
X282160600Y-178600000D03*
X276060600Y-178600000D03*
%TD*%
%TO.C,SW44*%
X264225600Y-183750000D03*
X264225600Y-177950000D03*
X267225600Y-183100000D03*
X261125600Y-183100000D03*
X267225600Y-178600000D03*
X261125600Y-178600000D03*
%TD*%
%TO.C,SW43*%
X249188600Y-183775000D03*
X249188600Y-177975000D03*
X252188600Y-183125000D03*
X246088600Y-183125000D03*
X252188600Y-178625000D03*
X246088600Y-178625000D03*
%TD*%
%TO.C,SW42*%
X234049600Y-183775000D03*
X234049600Y-177975000D03*
X237049600Y-183125000D03*
X230949600Y-183125000D03*
X237049600Y-178625000D03*
X230949600Y-178625000D03*
%TD*%
%TO.C,SW41*%
X294146600Y-169780000D03*
X294146600Y-163980000D03*
X297146600Y-169130000D03*
X291046600Y-169130000D03*
X297146600Y-164630000D03*
X291046600Y-164630000D03*
%TD*%
%TO.C,SW40*%
X279185600Y-169780000D03*
X279185600Y-163980000D03*
X282185600Y-169130000D03*
X276085600Y-169130000D03*
X282185600Y-164630000D03*
X276085600Y-164630000D03*
%TD*%
%TO.C,SW39*%
X264225600Y-169754000D03*
X264225600Y-163954000D03*
X267225600Y-169104000D03*
X261125600Y-169104000D03*
X267225600Y-164604000D03*
X261125600Y-164604000D03*
%TD*%
%TO.C,SW38*%
X249137600Y-169754000D03*
X249137600Y-163954000D03*
X252137600Y-169104000D03*
X246037600Y-169104000D03*
X252137600Y-164604000D03*
X246037600Y-164604000D03*
%TD*%
%TO.C,SW37*%
X234126600Y-169729000D03*
X234126600Y-163929000D03*
X237126600Y-169079000D03*
X231026600Y-169079000D03*
X237126600Y-164579000D03*
X231026600Y-164579000D03*
%TD*%
%TO.C,SW36*%
X218098600Y-240696000D03*
X218098600Y-234896000D03*
X221098600Y-240046000D03*
X214998600Y-240046000D03*
X221098600Y-235546000D03*
X214998600Y-235546000D03*
%TD*%
%TO.C,SW35*%
X203072600Y-240750000D03*
X203072600Y-234950000D03*
X206072600Y-240100000D03*
X199972600Y-240100000D03*
X206072600Y-235600000D03*
X199972600Y-235600000D03*
%TD*%
%TO.C,SW34*%
X188112600Y-240750000D03*
X188112600Y-234950000D03*
X191112600Y-240100000D03*
X185012600Y-240100000D03*
X191112600Y-235600000D03*
X185012600Y-235600000D03*
%TD*%
%TO.C,SW33*%
X218098600Y-228784000D03*
X218098600Y-222984000D03*
X221098600Y-228134000D03*
X214998600Y-228134000D03*
X221098600Y-223634000D03*
X214998600Y-223634000D03*
%TD*%
%TO.C,SW32*%
X203061600Y-228758000D03*
X203061600Y-222958000D03*
X206061600Y-228108000D03*
X199961600Y-228108000D03*
X206061600Y-223608000D03*
X199961600Y-223608000D03*
%TD*%
%TO.C,SW31*%
X188126600Y-228733000D03*
X188126600Y-222933000D03*
X191126600Y-228083000D03*
X185026600Y-228083000D03*
X191126600Y-223583000D03*
X185026600Y-223583000D03*
%TD*%
%TO.C,SW30*%
X218124600Y-216744000D03*
X218124600Y-210944000D03*
X221124600Y-216094000D03*
X215024600Y-216094000D03*
X221124600Y-211594000D03*
X215024600Y-211594000D03*
%TD*%
%TO.C,SW29*%
X203061600Y-216744000D03*
X203061600Y-210944000D03*
X206061600Y-216094000D03*
X199961600Y-216094000D03*
X206061600Y-211594000D03*
X199961600Y-211594000D03*
%TD*%
%TO.C,SW28*%
X188126600Y-216719000D03*
X188126600Y-210919000D03*
X191126600Y-216069000D03*
X185026600Y-216069000D03*
X191126600Y-211569000D03*
X185026600Y-211569000D03*
%TD*%
%TO.C,SW27*%
X218073600Y-204730000D03*
X218073600Y-198930000D03*
X221073600Y-204080000D03*
X214973600Y-204080000D03*
X221073600Y-199580000D03*
X214973600Y-199580000D03*
%TD*%
%TO.C,SW26*%
X203112600Y-204755000D03*
X203112600Y-198955000D03*
X206112600Y-204105000D03*
X200012600Y-204105000D03*
X206112600Y-199605000D03*
X200012600Y-199605000D03*
%TD*%
%TO.C,SW24*%
X192165600Y-166478000D03*
X192165600Y-160678000D03*
X195165600Y-165828000D03*
X189065600Y-165828000D03*
X195165600Y-161328000D03*
X189065600Y-161328000D03*
%TD*%
%TO.C,SW23*%
X282309600Y-153574000D03*
X282309600Y-147774000D03*
X285309600Y-152924000D03*
X279209600Y-152924000D03*
X285309600Y-148424000D03*
X279209600Y-148424000D03*
%TD*%
%TO.C,SW22*%
X264174600Y-153574000D03*
X264174600Y-147774000D03*
X267174600Y-152924000D03*
X261074600Y-152924000D03*
X267174600Y-148424000D03*
X261074600Y-148424000D03*
%TD*%
%TO.C,SW21*%
X246292600Y-153574000D03*
X246292600Y-147774000D03*
X249292600Y-152924000D03*
X243192600Y-152924000D03*
X249292600Y-148424000D03*
X243192600Y-148424000D03*
%TD*%
%TO.C,SW20*%
X228309600Y-153574000D03*
X228309600Y-147774000D03*
X231309600Y-152924000D03*
X225209600Y-152924000D03*
X231309600Y-148424000D03*
X225209600Y-148424000D03*
%TD*%
%TO.C,SW19*%
X210275600Y-153549000D03*
X210275600Y-147749000D03*
X213275600Y-152899000D03*
X207175600Y-152899000D03*
X213275600Y-148399000D03*
X207175600Y-148399000D03*
%TD*%
%TO.C,SW18*%
X192190600Y-153549000D03*
X192190600Y-147749000D03*
X195190600Y-152899000D03*
X189090600Y-152899000D03*
X195190600Y-148399000D03*
X189090600Y-148399000D03*
%TD*%
%TO.C,SW16*%
X246267600Y-140595000D03*
X246267600Y-134795000D03*
X249267600Y-139945000D03*
X243167600Y-139945000D03*
X249267600Y-135445000D03*
X243167600Y-135445000D03*
%TD*%
%TO.C,SW15*%
X228309600Y-140620000D03*
X228309600Y-134820000D03*
X231309600Y-139970000D03*
X225209600Y-139970000D03*
X231309600Y-135470000D03*
X225209600Y-135470000D03*
%TD*%
%TO.C,SW14*%
X210199600Y-140620000D03*
X210199600Y-134820000D03*
X213199600Y-139970000D03*
X207099600Y-139970000D03*
X213199600Y-135470000D03*
X207099600Y-135470000D03*
%TD*%
%TO.C,SW13*%
X192114600Y-140620000D03*
X192114600Y-134820000D03*
X195114600Y-139970000D03*
X189014600Y-139970000D03*
X195114600Y-135470000D03*
X189014600Y-135470000D03*
%TD*%
%TO.C,SW12*%
X308141800Y-114153600D03*
X308141800Y-108353600D03*
X311141800Y-113503600D03*
X305041800Y-113503600D03*
X311141800Y-109003600D03*
X305041800Y-109003600D03*
%TD*%
%TO.C,SW11*%
X308294200Y-103688800D03*
X308294200Y-97888800D03*
X311294200Y-103038800D03*
X305194200Y-103038800D03*
X311294200Y-98538800D03*
X305194200Y-98538800D03*
%TD*%
%TO.C,SW10*%
X308141800Y-93173200D03*
X308141800Y-87373200D03*
X311141800Y-92523200D03*
X305041800Y-92523200D03*
X311141800Y-88023200D03*
X305041800Y-88023200D03*
%TD*%
%TO.C,SW9*%
X308157040Y-82657600D03*
X308157040Y-76857600D03*
X311157040Y-82007600D03*
X305057040Y-82007600D03*
X311157040Y-77507600D03*
X305057040Y-77507600D03*
%TD*%
%TO.C,SW8*%
X308192600Y-72142000D03*
X308192600Y-66342000D03*
X311192600Y-71492000D03*
X305092600Y-71492000D03*
X311192600Y-66992000D03*
X305092600Y-66992000D03*
%TD*%
%TO.C,SW7*%
X308192600Y-61677200D03*
X308192600Y-55877200D03*
X311192600Y-61027200D03*
X305092600Y-61027200D03*
X311192600Y-56527200D03*
X305092600Y-56527200D03*
%TD*%
%TO.C,SW6*%
X176011000Y-114153600D03*
X176011000Y-108353600D03*
X179011000Y-113503600D03*
X172911000Y-113503600D03*
X179011000Y-109003600D03*
X172911000Y-109003600D03*
%TD*%
%TO.C,SW5*%
X176000840Y-103688800D03*
X176000840Y-97888800D03*
X179000840Y-103038800D03*
X172900840Y-103038800D03*
X179000840Y-98538800D03*
X172900840Y-98538800D03*
%TD*%
%TO.C,SW4*%
X176061800Y-93173200D03*
X176061800Y-87373200D03*
X179061800Y-92523200D03*
X172961800Y-92523200D03*
X179061800Y-88023200D03*
X172961800Y-88023200D03*
%TD*%
%TO.C,SW2*%
X176112600Y-72142000D03*
X176112600Y-66342000D03*
X179112600Y-71492000D03*
X173012600Y-71492000D03*
X179112600Y-66992000D03*
X173012600Y-66992000D03*
%TD*%
%TO.C,SW1*%
X176011000Y-61626400D03*
X176011000Y-55826400D03*
X179011000Y-60976400D03*
X172911000Y-60976400D03*
X179011000Y-56476400D03*
X172911000Y-56476400D03*
%TD*%
D11*
%TO.C,J4*%
X310362600Y-218643000D03*
D12*
X310362600Y-213563000D03*
%TD*%
D11*
%TO.C,J3*%
X310362600Y-229260400D03*
D12*
X310362600Y-224180400D03*
%TD*%
D14*
%TO.C,J5*%
X265785200Y-72847200D03*
X265785200Y-70307200D03*
X263245200Y-72847200D03*
X263245200Y-70307200D03*
X260705200Y-72847200D03*
X260705200Y-70307200D03*
X258165200Y-72847200D03*
X258165200Y-70307200D03*
X255625200Y-72847200D03*
X255625200Y-70307200D03*
X253085200Y-72847200D03*
X253085200Y-70307200D03*
X250545200Y-72847200D03*
X250545200Y-70307200D03*
X248005200Y-72847200D03*
X248005200Y-70307200D03*
X245465200Y-72847200D03*
X245465200Y-70307200D03*
X242925200Y-72847200D03*
X242925200Y-70307200D03*
X240385200Y-72847200D03*
X240385200Y-70307200D03*
X237845200Y-72847200D03*
X237845200Y-70307200D03*
X235305200Y-72847200D03*
X235305200Y-70307200D03*
X232765200Y-72847200D03*
X232765200Y-70307200D03*
X230225200Y-72847200D03*
X230225200Y-70307200D03*
X227685200Y-72847200D03*
X227685200Y-70307200D03*
X225145200Y-72847200D03*
X225145200Y-70307200D03*
X222605200Y-72847200D03*
X222605200Y-70307200D03*
X220065200Y-72847200D03*
X220065200Y-70307200D03*
X217525200Y-72847200D03*
D15*
X217525200Y-70307200D03*
%TD*%
D11*
%TO.C,J2*%
X174662600Y-211925200D03*
D12*
X174662600Y-217005200D03*
%TD*%
D11*
%TO.C,J1*%
X174662600Y-222529400D03*
D12*
X174662600Y-227609400D03*
%TD*%
%TO.C,D11*%
G36*
G01*
X176684600Y-204470000D02*
X175434600Y-204470000D01*
G75*
G02*
X175184600Y-204220000I0J250000D01*
G01*
X175184600Y-203295000D01*
G75*
G02*
X175434600Y-203045000I250000J0D01*
G01*
X176684600Y-203045000D01*
G75*
G02*
X176934600Y-203295000I0J-250000D01*
G01*
X176934600Y-204220000D01*
G75*
G02*
X176684600Y-204470000I-250000J0D01*
G01*
G37*
G36*
G01*
X176684600Y-207445000D02*
X175434600Y-207445000D01*
G75*
G02*
X175184600Y-207195000I0J250000D01*
G01*
X175184600Y-206270000D01*
G75*
G02*
X175434600Y-206020000I250000J0D01*
G01*
X176684600Y-206020000D01*
G75*
G02*
X176934600Y-206270000I0J-250000D01*
G01*
X176934600Y-207195000D01*
G75*
G02*
X176684600Y-207445000I-250000J0D01*
G01*
G37*
%TD*%
%TO.C,D10*%
G36*
G01*
X308650800Y-193585800D02*
X307400800Y-193585800D01*
G75*
G02*
X307150800Y-193335800I0J250000D01*
G01*
X307150800Y-192410800D01*
G75*
G02*
X307400800Y-192160800I250000J0D01*
G01*
X308650800Y-192160800D01*
G75*
G02*
X308900800Y-192410800I0J-250000D01*
G01*
X308900800Y-193335800D01*
G75*
G02*
X308650800Y-193585800I-250000J0D01*
G01*
G37*
G36*
G01*
X308650800Y-196560800D02*
X307400800Y-196560800D01*
G75*
G02*
X307150800Y-196310800I0J250000D01*
G01*
X307150800Y-195385800D01*
G75*
G02*
X307400800Y-195135800I250000J0D01*
G01*
X308650800Y-195135800D01*
G75*
G02*
X308900800Y-195385800I0J-250000D01*
G01*
X308900800Y-196310800D01*
G75*
G02*
X308650800Y-196560800I-250000J0D01*
G01*
G37*
%TD*%
%TO.C,D9*%
G36*
G01*
X176621600Y-186626200D02*
X175371600Y-186626200D01*
G75*
G02*
X175121600Y-186376200I0J250000D01*
G01*
X175121600Y-185451200D01*
G75*
G02*
X175371600Y-185201200I250000J0D01*
G01*
X176621600Y-185201200D01*
G75*
G02*
X176871600Y-185451200I0J-250000D01*
G01*
X176871600Y-186376200D01*
G75*
G02*
X176621600Y-186626200I-250000J0D01*
G01*
G37*
G36*
G01*
X176621600Y-189601200D02*
X175371600Y-189601200D01*
G75*
G02*
X175121600Y-189351200I0J250000D01*
G01*
X175121600Y-188426200D01*
G75*
G02*
X175371600Y-188176200I250000J0D01*
G01*
X176621600Y-188176200D01*
G75*
G02*
X176871600Y-188426200I0J-250000D01*
G01*
X176871600Y-189351200D01*
G75*
G02*
X176621600Y-189601200I-250000J0D01*
G01*
G37*
%TD*%
%TO.C,D8*%
G36*
G01*
X242748600Y-30228700D02*
X242748600Y-28978700D01*
G75*
G02*
X242998600Y-28728700I250000J0D01*
G01*
X243923600Y-28728700D01*
G75*
G02*
X244173600Y-28978700I0J-250000D01*
G01*
X244173600Y-30228700D01*
G75*
G02*
X243923600Y-30478700I-250000J0D01*
G01*
X242998600Y-30478700D01*
G75*
G02*
X242748600Y-30228700I0J250000D01*
G01*
G37*
G36*
G01*
X239773600Y-30228700D02*
X239773600Y-28978700D01*
G75*
G02*
X240023600Y-28728700I250000J0D01*
G01*
X240948600Y-28728700D01*
G75*
G02*
X241198600Y-28978700I0J-250000D01*
G01*
X241198600Y-30228700D01*
G75*
G02*
X240948600Y-30478700I-250000J0D01*
G01*
X240023600Y-30478700D01*
G75*
G02*
X239773600Y-30228700I0J250000D01*
G01*
G37*
%TD*%
%TO.C,D7*%
G36*
G01*
X227888600Y-30228700D02*
X227888600Y-28978700D01*
G75*
G02*
X228138600Y-28728700I250000J0D01*
G01*
X229063600Y-28728700D01*
G75*
G02*
X229313600Y-28978700I0J-250000D01*
G01*
X229313600Y-30228700D01*
G75*
G02*
X229063600Y-30478700I-250000J0D01*
G01*
X228138600Y-30478700D01*
G75*
G02*
X227888600Y-30228700I0J250000D01*
G01*
G37*
G36*
G01*
X224913600Y-30228700D02*
X224913600Y-28978700D01*
G75*
G02*
X225163600Y-28728700I250000J0D01*
G01*
X226088600Y-28728700D01*
G75*
G02*
X226338600Y-28978700I0J-250000D01*
G01*
X226338600Y-30228700D01*
G75*
G02*
X226088600Y-30478700I-250000J0D01*
G01*
X225163600Y-30478700D01*
G75*
G02*
X224913600Y-30228700I0J250000D01*
G01*
G37*
%TD*%
%TO.C,D6*%
G36*
G01*
X272783600Y-30228700D02*
X272783600Y-28978700D01*
G75*
G02*
X273033600Y-28728700I250000J0D01*
G01*
X273958600Y-28728700D01*
G75*
G02*
X274208600Y-28978700I0J-250000D01*
G01*
X274208600Y-30228700D01*
G75*
G02*
X273958600Y-30478700I-250000J0D01*
G01*
X273033600Y-30478700D01*
G75*
G02*
X272783600Y-30228700I0J250000D01*
G01*
G37*
G36*
G01*
X269808600Y-30228700D02*
X269808600Y-28978700D01*
G75*
G02*
X270058600Y-28728700I250000J0D01*
G01*
X270983600Y-28728700D01*
G75*
G02*
X271233600Y-28978700I0J-250000D01*
G01*
X271233600Y-30228700D01*
G75*
G02*
X270983600Y-30478700I-250000J0D01*
G01*
X270058600Y-30478700D01*
G75*
G02*
X269808600Y-30228700I0J250000D01*
G01*
G37*
%TD*%
%TO.C,D5*%
G36*
G01*
X212648600Y-30165200D02*
X212648600Y-28915200D01*
G75*
G02*
X212898600Y-28665200I250000J0D01*
G01*
X213823600Y-28665200D01*
G75*
G02*
X214073600Y-28915200I0J-250000D01*
G01*
X214073600Y-30165200D01*
G75*
G02*
X213823600Y-30415200I-250000J0D01*
G01*
X212898600Y-30415200D01*
G75*
G02*
X212648600Y-30165200I0J250000D01*
G01*
G37*
G36*
G01*
X209673600Y-30165200D02*
X209673600Y-28915200D01*
G75*
G02*
X209923600Y-28665200I250000J0D01*
G01*
X210848600Y-28665200D01*
G75*
G02*
X211098600Y-28915200I0J-250000D01*
G01*
X211098600Y-30165200D01*
G75*
G02*
X210848600Y-30415200I-250000J0D01*
G01*
X209923600Y-30415200D01*
G75*
G02*
X209673600Y-30165200I0J250000D01*
G01*
G37*
%TD*%
M02*
