%TF.GenerationSoftware,KiCad,Pcbnew,(5.1.10)-1*%
%TF.CreationDate,2022-01-05T11:20:31+00:00*%
%TF.ProjectId,opena3xx-mcdu,6f70656e-6133-4787-982d-6d6364752e6b,0.1*%
%TF.SameCoordinates,Original*%
%TF.FileFunction,Copper,L2,Bot*%
%TF.FilePolarity,Positive*%
%FSLAX46Y46*%
G04 Gerber Fmt 4.6, Leading zero omitted, Abs format (unit mm)*
G04 Created by KiCad (PCBNEW (5.1.10)-1) date 2022-01-05 11:20:31*
%MOMM*%
%LPD*%
G01*
G04 APERTURE LIST*
%TA.AperFunction,ComponentPad*%
%ADD10C,3.000000*%
%TD*%
%TA.AperFunction,ComponentPad*%
%ADD11R,3.000000X3.000000*%
%TD*%
%TA.AperFunction,ComponentPad*%
%ADD12R,1.524000X1.524000*%
%TD*%
%TA.AperFunction,ComponentPad*%
%ADD13C,1.700000*%
%TD*%
%TA.AperFunction,ComponentPad*%
%ADD14O,1.700000X1.700000*%
%TD*%
%TA.AperFunction,ComponentPad*%
%ADD15R,1.700000X1.700000*%
%TD*%
%TA.AperFunction,ViaPad*%
%ADD16C,0.800000*%
%TD*%
%TA.AperFunction,Conductor*%
%ADD17C,0.250000*%
%TD*%
%TA.AperFunction,Conductor*%
%ADD18C,1.000000*%
%TD*%
G04 APERTURE END LIST*
%TA.AperFunction,SMDPad,CuDef*%
G36*
G01*
X45352280Y-172399720D02*
X43202280Y-172399720D01*
G75*
G02*
X42952280Y-172149720I0J250000D01*
G01*
X42952280Y-171349720D01*
G75*
G02*
X43202280Y-171099720I250000J0D01*
G01*
X45352280Y-171099720D01*
G75*
G02*
X45602280Y-171349720I0J-250000D01*
G01*
X45602280Y-172149720D01*
G75*
G02*
X45352280Y-172399720I-250000J0D01*
G01*
G37*
%TD.AperFunction*%
%TA.AperFunction,SMDPad,CuDef*%
G36*
G01*
X45352280Y-175499720D02*
X43202280Y-175499720D01*
G75*
G02*
X42952280Y-175249720I0J250000D01*
G01*
X42952280Y-174449720D01*
G75*
G02*
X43202280Y-174199720I250000J0D01*
G01*
X45352280Y-174199720D01*
G75*
G02*
X45602280Y-174449720I0J-250000D01*
G01*
X45602280Y-175249720D01*
G75*
G02*
X45352280Y-175499720I-250000J0D01*
G01*
G37*
%TD.AperFunction*%
%TA.AperFunction,SMDPad,CuDef*%
G36*
G01*
X166256540Y-168595620D02*
X166256540Y-166445620D01*
G75*
G02*
X166506540Y-166195620I250000J0D01*
G01*
X167306540Y-166195620D01*
G75*
G02*
X167556540Y-166445620I0J-250000D01*
G01*
X167556540Y-168595620D01*
G75*
G02*
X167306540Y-168845620I-250000J0D01*
G01*
X166506540Y-168845620D01*
G75*
G02*
X166256540Y-168595620I0J250000D01*
G01*
G37*
%TD.AperFunction*%
%TA.AperFunction,SMDPad,CuDef*%
G36*
G01*
X163156540Y-168595620D02*
X163156540Y-166445620D01*
G75*
G02*
X163406540Y-166195620I250000J0D01*
G01*
X164206540Y-166195620D01*
G75*
G02*
X164456540Y-166445620I0J-250000D01*
G01*
X164456540Y-168595620D01*
G75*
G02*
X164206540Y-168845620I-250000J0D01*
G01*
X163406540Y-168845620D01*
G75*
G02*
X163156540Y-168595620I0J250000D01*
G01*
G37*
%TD.AperFunction*%
%TA.AperFunction,SMDPad,CuDef*%
G36*
G01*
X162835160Y-158979180D02*
X162835160Y-156829180D01*
G75*
G02*
X163085160Y-156579180I250000J0D01*
G01*
X163885160Y-156579180D01*
G75*
G02*
X164135160Y-156829180I0J-250000D01*
G01*
X164135160Y-158979180D01*
G75*
G02*
X163885160Y-159229180I-250000J0D01*
G01*
X163085160Y-159229180D01*
G75*
G02*
X162835160Y-158979180I0J250000D01*
G01*
G37*
%TD.AperFunction*%
%TA.AperFunction,SMDPad,CuDef*%
G36*
G01*
X159735160Y-158979180D02*
X159735160Y-156829180D01*
G75*
G02*
X159985160Y-156579180I250000J0D01*
G01*
X160785160Y-156579180D01*
G75*
G02*
X161035160Y-156829180I0J-250000D01*
G01*
X161035160Y-158979180D01*
G75*
G02*
X160785160Y-159229180I-250000J0D01*
G01*
X159985160Y-159229180D01*
G75*
G02*
X159735160Y-158979180I0J250000D01*
G01*
G37*
%TD.AperFunction*%
D10*
X173507400Y-227352460D03*
D11*
X173507400Y-222272460D03*
D12*
X70168000Y-161328000D03*
X76268000Y-161328000D03*
X70168000Y-165828000D03*
X76268000Y-165828000D03*
X73268000Y-160678000D03*
X73268000Y-166478000D03*
D10*
X173380000Y-167589000D03*
D11*
X173380000Y-162509000D03*
D12*
X142304000Y-135420000D03*
X148404000Y-135420000D03*
X142304000Y-139920000D03*
X148404000Y-139920000D03*
X145404000Y-134770000D03*
X145404000Y-140570000D03*
X127370000Y-140570000D03*
X127370000Y-134770000D03*
X130370000Y-139920000D03*
X124270000Y-139920000D03*
X130370000Y-135420000D03*
X124270000Y-135420000D03*
D10*
X173380000Y-156896000D03*
D11*
X173380000Y-151816000D03*
D12*
X39145600Y-82657600D03*
X39145600Y-76857600D03*
X42145600Y-82007600D03*
X36045600Y-82007600D03*
X42145600Y-77507600D03*
X36045600Y-77507600D03*
X161812000Y-153778000D03*
X161812000Y-147978000D03*
X164812000Y-153128000D03*
X158712000Y-153128000D03*
X164812000Y-148628000D03*
X158712000Y-148628000D03*
X161812000Y-140570000D03*
X161812000Y-134770000D03*
X164812000Y-139920000D03*
X158712000Y-139920000D03*
X164812000Y-135420000D03*
X158712000Y-135420000D03*
%TA.AperFunction,SMDPad,CuDef*%
G36*
G01*
X161682000Y-129167001D02*
X161682000Y-127016999D01*
G75*
G02*
X161931999Y-126767000I249999J0D01*
G01*
X162732001Y-126767000D01*
G75*
G02*
X162982000Y-127016999I0J-249999D01*
G01*
X162982000Y-129167001D01*
G75*
G02*
X162732001Y-129417000I-249999J0D01*
G01*
X161931999Y-129417000D01*
G75*
G02*
X161682000Y-129167001I0J249999D01*
G01*
G37*
%TD.AperFunction*%
%TA.AperFunction,SMDPad,CuDef*%
G36*
G01*
X158582000Y-129167001D02*
X158582000Y-127016999D01*
G75*
G02*
X158831999Y-126767000I249999J0D01*
G01*
X159632001Y-126767000D01*
G75*
G02*
X159882000Y-127016999I0J-249999D01*
G01*
X159882000Y-129167001D01*
G75*
G02*
X159632001Y-129417000I-249999J0D01*
G01*
X158831999Y-129417000D01*
G75*
G02*
X158582000Y-129167001I0J249999D01*
G01*
G37*
%TD.AperFunction*%
D10*
X173469000Y-124841000D03*
D11*
X173469000Y-119761000D03*
D10*
X173469000Y-135636000D03*
D11*
X173469000Y-130556000D03*
D12*
X51272000Y-204755000D03*
X51272000Y-198955000D03*
X54272000Y-204105000D03*
X48172000Y-204105000D03*
X54272000Y-199605000D03*
X48172000Y-199605000D03*
%TA.AperFunction,SMDPad,CuDef*%
G36*
G01*
X152469000Y-107922000D02*
X152469000Y-107622000D01*
G75*
G02*
X152619000Y-107472000I150000J0D01*
G01*
X154369000Y-107472000D01*
G75*
G02*
X154519000Y-107622000I0J-150000D01*
G01*
X154519000Y-107922000D01*
G75*
G02*
X154369000Y-108072000I-150000J0D01*
G01*
X152619000Y-108072000D01*
G75*
G02*
X152469000Y-107922000I0J150000D01*
G01*
G37*
%TD.AperFunction*%
%TA.AperFunction,SMDPad,CuDef*%
G36*
G01*
X152469000Y-106652000D02*
X152469000Y-106352000D01*
G75*
G02*
X152619000Y-106202000I150000J0D01*
G01*
X154369000Y-106202000D01*
G75*
G02*
X154519000Y-106352000I0J-150000D01*
G01*
X154519000Y-106652000D01*
G75*
G02*
X154369000Y-106802000I-150000J0D01*
G01*
X152619000Y-106802000D01*
G75*
G02*
X152469000Y-106652000I0J150000D01*
G01*
G37*
%TD.AperFunction*%
%TA.AperFunction,SMDPad,CuDef*%
G36*
G01*
X152469000Y-105382000D02*
X152469000Y-105082000D01*
G75*
G02*
X152619000Y-104932000I150000J0D01*
G01*
X154369000Y-104932000D01*
G75*
G02*
X154519000Y-105082000I0J-150000D01*
G01*
X154519000Y-105382000D01*
G75*
G02*
X154369000Y-105532000I-150000J0D01*
G01*
X152619000Y-105532000D01*
G75*
G02*
X152469000Y-105382000I0J150000D01*
G01*
G37*
%TD.AperFunction*%
%TA.AperFunction,SMDPad,CuDef*%
G36*
G01*
X152469000Y-104112000D02*
X152469000Y-103812000D01*
G75*
G02*
X152619000Y-103662000I150000J0D01*
G01*
X154369000Y-103662000D01*
G75*
G02*
X154519000Y-103812000I0J-150000D01*
G01*
X154519000Y-104112000D01*
G75*
G02*
X154369000Y-104262000I-150000J0D01*
G01*
X152619000Y-104262000D01*
G75*
G02*
X152469000Y-104112000I0J150000D01*
G01*
G37*
%TD.AperFunction*%
%TA.AperFunction,SMDPad,CuDef*%
G36*
G01*
X152469000Y-102842000D02*
X152469000Y-102542000D01*
G75*
G02*
X152619000Y-102392000I150000J0D01*
G01*
X154369000Y-102392000D01*
G75*
G02*
X154519000Y-102542000I0J-150000D01*
G01*
X154519000Y-102842000D01*
G75*
G02*
X154369000Y-102992000I-150000J0D01*
G01*
X152619000Y-102992000D01*
G75*
G02*
X152469000Y-102842000I0J150000D01*
G01*
G37*
%TD.AperFunction*%
%TA.AperFunction,SMDPad,CuDef*%
G36*
G01*
X152469000Y-101572000D02*
X152469000Y-101272000D01*
G75*
G02*
X152619000Y-101122000I150000J0D01*
G01*
X154369000Y-101122000D01*
G75*
G02*
X154519000Y-101272000I0J-150000D01*
G01*
X154519000Y-101572000D01*
G75*
G02*
X154369000Y-101722000I-150000J0D01*
G01*
X152619000Y-101722000D01*
G75*
G02*
X152469000Y-101572000I0J150000D01*
G01*
G37*
%TD.AperFunction*%
%TA.AperFunction,SMDPad,CuDef*%
G36*
G01*
X152469000Y-100302000D02*
X152469000Y-100002000D01*
G75*
G02*
X152619000Y-99852000I150000J0D01*
G01*
X154369000Y-99852000D01*
G75*
G02*
X154519000Y-100002000I0J-150000D01*
G01*
X154519000Y-100302000D01*
G75*
G02*
X154369000Y-100452000I-150000J0D01*
G01*
X152619000Y-100452000D01*
G75*
G02*
X152469000Y-100302000I0J150000D01*
G01*
G37*
%TD.AperFunction*%
%TA.AperFunction,SMDPad,CuDef*%
G36*
G01*
X152469000Y-99032000D02*
X152469000Y-98732000D01*
G75*
G02*
X152619000Y-98582000I150000J0D01*
G01*
X154369000Y-98582000D01*
G75*
G02*
X154519000Y-98732000I0J-150000D01*
G01*
X154519000Y-99032000D01*
G75*
G02*
X154369000Y-99182000I-150000J0D01*
G01*
X152619000Y-99182000D01*
G75*
G02*
X152469000Y-99032000I0J150000D01*
G01*
G37*
%TD.AperFunction*%
%TA.AperFunction,SMDPad,CuDef*%
G36*
G01*
X152469000Y-97762000D02*
X152469000Y-97462000D01*
G75*
G02*
X152619000Y-97312000I150000J0D01*
G01*
X154369000Y-97312000D01*
G75*
G02*
X154519000Y-97462000I0J-150000D01*
G01*
X154519000Y-97762000D01*
G75*
G02*
X154369000Y-97912000I-150000J0D01*
G01*
X152619000Y-97912000D01*
G75*
G02*
X152469000Y-97762000I0J150000D01*
G01*
G37*
%TD.AperFunction*%
%TA.AperFunction,SMDPad,CuDef*%
G36*
G01*
X152469000Y-96492000D02*
X152469000Y-96192000D01*
G75*
G02*
X152619000Y-96042000I150000J0D01*
G01*
X154369000Y-96042000D01*
G75*
G02*
X154519000Y-96192000I0J-150000D01*
G01*
X154519000Y-96492000D01*
G75*
G02*
X154369000Y-96642000I-150000J0D01*
G01*
X152619000Y-96642000D01*
G75*
G02*
X152469000Y-96492000I0J150000D01*
G01*
G37*
%TD.AperFunction*%
%TA.AperFunction,SMDPad,CuDef*%
G36*
G01*
X152469000Y-95222000D02*
X152469000Y-94922000D01*
G75*
G02*
X152619000Y-94772000I150000J0D01*
G01*
X154369000Y-94772000D01*
G75*
G02*
X154519000Y-94922000I0J-150000D01*
G01*
X154519000Y-95222000D01*
G75*
G02*
X154369000Y-95372000I-150000J0D01*
G01*
X152619000Y-95372000D01*
G75*
G02*
X152469000Y-95222000I0J150000D01*
G01*
G37*
%TD.AperFunction*%
%TA.AperFunction,SMDPad,CuDef*%
G36*
G01*
X152469000Y-93952000D02*
X152469000Y-93652000D01*
G75*
G02*
X152619000Y-93502000I150000J0D01*
G01*
X154369000Y-93502000D01*
G75*
G02*
X154519000Y-93652000I0J-150000D01*
G01*
X154519000Y-93952000D01*
G75*
G02*
X154369000Y-94102000I-150000J0D01*
G01*
X152619000Y-94102000D01*
G75*
G02*
X152469000Y-93952000I0J150000D01*
G01*
G37*
%TD.AperFunction*%
%TA.AperFunction,SMDPad,CuDef*%
G36*
G01*
X152469000Y-92682000D02*
X152469000Y-92382000D01*
G75*
G02*
X152619000Y-92232000I150000J0D01*
G01*
X154369000Y-92232000D01*
G75*
G02*
X154519000Y-92382000I0J-150000D01*
G01*
X154519000Y-92682000D01*
G75*
G02*
X154369000Y-92832000I-150000J0D01*
G01*
X152619000Y-92832000D01*
G75*
G02*
X152469000Y-92682000I0J150000D01*
G01*
G37*
%TD.AperFunction*%
%TA.AperFunction,SMDPad,CuDef*%
G36*
G01*
X152469000Y-91412000D02*
X152469000Y-91112000D01*
G75*
G02*
X152619000Y-90962000I150000J0D01*
G01*
X154369000Y-90962000D01*
G75*
G02*
X154519000Y-91112000I0J-150000D01*
G01*
X154519000Y-91412000D01*
G75*
G02*
X154369000Y-91562000I-150000J0D01*
G01*
X152619000Y-91562000D01*
G75*
G02*
X152469000Y-91412000I0J150000D01*
G01*
G37*
%TD.AperFunction*%
%TA.AperFunction,SMDPad,CuDef*%
G36*
G01*
X143169000Y-91412000D02*
X143169000Y-91112000D01*
G75*
G02*
X143319000Y-90962000I150000J0D01*
G01*
X145069000Y-90962000D01*
G75*
G02*
X145219000Y-91112000I0J-150000D01*
G01*
X145219000Y-91412000D01*
G75*
G02*
X145069000Y-91562000I-150000J0D01*
G01*
X143319000Y-91562000D01*
G75*
G02*
X143169000Y-91412000I0J150000D01*
G01*
G37*
%TD.AperFunction*%
%TA.AperFunction,SMDPad,CuDef*%
G36*
G01*
X143169000Y-92682000D02*
X143169000Y-92382000D01*
G75*
G02*
X143319000Y-92232000I150000J0D01*
G01*
X145069000Y-92232000D01*
G75*
G02*
X145219000Y-92382000I0J-150000D01*
G01*
X145219000Y-92682000D01*
G75*
G02*
X145069000Y-92832000I-150000J0D01*
G01*
X143319000Y-92832000D01*
G75*
G02*
X143169000Y-92682000I0J150000D01*
G01*
G37*
%TD.AperFunction*%
%TA.AperFunction,SMDPad,CuDef*%
G36*
G01*
X143169000Y-93952000D02*
X143169000Y-93652000D01*
G75*
G02*
X143319000Y-93502000I150000J0D01*
G01*
X145069000Y-93502000D01*
G75*
G02*
X145219000Y-93652000I0J-150000D01*
G01*
X145219000Y-93952000D01*
G75*
G02*
X145069000Y-94102000I-150000J0D01*
G01*
X143319000Y-94102000D01*
G75*
G02*
X143169000Y-93952000I0J150000D01*
G01*
G37*
%TD.AperFunction*%
%TA.AperFunction,SMDPad,CuDef*%
G36*
G01*
X143169000Y-95222000D02*
X143169000Y-94922000D01*
G75*
G02*
X143319000Y-94772000I150000J0D01*
G01*
X145069000Y-94772000D01*
G75*
G02*
X145219000Y-94922000I0J-150000D01*
G01*
X145219000Y-95222000D01*
G75*
G02*
X145069000Y-95372000I-150000J0D01*
G01*
X143319000Y-95372000D01*
G75*
G02*
X143169000Y-95222000I0J150000D01*
G01*
G37*
%TD.AperFunction*%
%TA.AperFunction,SMDPad,CuDef*%
G36*
G01*
X143169000Y-96492000D02*
X143169000Y-96192000D01*
G75*
G02*
X143319000Y-96042000I150000J0D01*
G01*
X145069000Y-96042000D01*
G75*
G02*
X145219000Y-96192000I0J-150000D01*
G01*
X145219000Y-96492000D01*
G75*
G02*
X145069000Y-96642000I-150000J0D01*
G01*
X143319000Y-96642000D01*
G75*
G02*
X143169000Y-96492000I0J150000D01*
G01*
G37*
%TD.AperFunction*%
%TA.AperFunction,SMDPad,CuDef*%
G36*
G01*
X143169000Y-97762000D02*
X143169000Y-97462000D01*
G75*
G02*
X143319000Y-97312000I150000J0D01*
G01*
X145069000Y-97312000D01*
G75*
G02*
X145219000Y-97462000I0J-150000D01*
G01*
X145219000Y-97762000D01*
G75*
G02*
X145069000Y-97912000I-150000J0D01*
G01*
X143319000Y-97912000D01*
G75*
G02*
X143169000Y-97762000I0J150000D01*
G01*
G37*
%TD.AperFunction*%
%TA.AperFunction,SMDPad,CuDef*%
G36*
G01*
X143169000Y-99032000D02*
X143169000Y-98732000D01*
G75*
G02*
X143319000Y-98582000I150000J0D01*
G01*
X145069000Y-98582000D01*
G75*
G02*
X145219000Y-98732000I0J-150000D01*
G01*
X145219000Y-99032000D01*
G75*
G02*
X145069000Y-99182000I-150000J0D01*
G01*
X143319000Y-99182000D01*
G75*
G02*
X143169000Y-99032000I0J150000D01*
G01*
G37*
%TD.AperFunction*%
%TA.AperFunction,SMDPad,CuDef*%
G36*
G01*
X143169000Y-100302000D02*
X143169000Y-100002000D01*
G75*
G02*
X143319000Y-99852000I150000J0D01*
G01*
X145069000Y-99852000D01*
G75*
G02*
X145219000Y-100002000I0J-150000D01*
G01*
X145219000Y-100302000D01*
G75*
G02*
X145069000Y-100452000I-150000J0D01*
G01*
X143319000Y-100452000D01*
G75*
G02*
X143169000Y-100302000I0J150000D01*
G01*
G37*
%TD.AperFunction*%
%TA.AperFunction,SMDPad,CuDef*%
G36*
G01*
X143169000Y-101572000D02*
X143169000Y-101272000D01*
G75*
G02*
X143319000Y-101122000I150000J0D01*
G01*
X145069000Y-101122000D01*
G75*
G02*
X145219000Y-101272000I0J-150000D01*
G01*
X145219000Y-101572000D01*
G75*
G02*
X145069000Y-101722000I-150000J0D01*
G01*
X143319000Y-101722000D01*
G75*
G02*
X143169000Y-101572000I0J150000D01*
G01*
G37*
%TD.AperFunction*%
%TA.AperFunction,SMDPad,CuDef*%
G36*
G01*
X143169000Y-102842000D02*
X143169000Y-102542000D01*
G75*
G02*
X143319000Y-102392000I150000J0D01*
G01*
X145069000Y-102392000D01*
G75*
G02*
X145219000Y-102542000I0J-150000D01*
G01*
X145219000Y-102842000D01*
G75*
G02*
X145069000Y-102992000I-150000J0D01*
G01*
X143319000Y-102992000D01*
G75*
G02*
X143169000Y-102842000I0J150000D01*
G01*
G37*
%TD.AperFunction*%
%TA.AperFunction,SMDPad,CuDef*%
G36*
G01*
X143169000Y-104112000D02*
X143169000Y-103812000D01*
G75*
G02*
X143319000Y-103662000I150000J0D01*
G01*
X145069000Y-103662000D01*
G75*
G02*
X145219000Y-103812000I0J-150000D01*
G01*
X145219000Y-104112000D01*
G75*
G02*
X145069000Y-104262000I-150000J0D01*
G01*
X143319000Y-104262000D01*
G75*
G02*
X143169000Y-104112000I0J150000D01*
G01*
G37*
%TD.AperFunction*%
%TA.AperFunction,SMDPad,CuDef*%
G36*
G01*
X143169000Y-105382000D02*
X143169000Y-105082000D01*
G75*
G02*
X143319000Y-104932000I150000J0D01*
G01*
X145069000Y-104932000D01*
G75*
G02*
X145219000Y-105082000I0J-150000D01*
G01*
X145219000Y-105382000D01*
G75*
G02*
X145069000Y-105532000I-150000J0D01*
G01*
X143319000Y-105532000D01*
G75*
G02*
X143169000Y-105382000I0J150000D01*
G01*
G37*
%TD.AperFunction*%
%TA.AperFunction,SMDPad,CuDef*%
G36*
G01*
X143169000Y-106652000D02*
X143169000Y-106352000D01*
G75*
G02*
X143319000Y-106202000I150000J0D01*
G01*
X145069000Y-106202000D01*
G75*
G02*
X145219000Y-106352000I0J-150000D01*
G01*
X145219000Y-106652000D01*
G75*
G02*
X145069000Y-106802000I-150000J0D01*
G01*
X143319000Y-106802000D01*
G75*
G02*
X143169000Y-106652000I0J150000D01*
G01*
G37*
%TD.AperFunction*%
%TA.AperFunction,SMDPad,CuDef*%
G36*
G01*
X143169000Y-107922000D02*
X143169000Y-107622000D01*
G75*
G02*
X143319000Y-107472000I150000J0D01*
G01*
X145069000Y-107472000D01*
G75*
G02*
X145219000Y-107622000I0J-150000D01*
G01*
X145219000Y-107922000D01*
G75*
G02*
X145069000Y-108072000I-150000J0D01*
G01*
X143319000Y-108072000D01*
G75*
G02*
X143169000Y-107922000I0J150000D01*
G01*
G37*
%TD.AperFunction*%
%TA.AperFunction,SMDPad,CuDef*%
G36*
G01*
X130879000Y-107922000D02*
X130879000Y-107622000D01*
G75*
G02*
X131029000Y-107472000I150000J0D01*
G01*
X132779000Y-107472000D01*
G75*
G02*
X132929000Y-107622000I0J-150000D01*
G01*
X132929000Y-107922000D01*
G75*
G02*
X132779000Y-108072000I-150000J0D01*
G01*
X131029000Y-108072000D01*
G75*
G02*
X130879000Y-107922000I0J150000D01*
G01*
G37*
%TD.AperFunction*%
%TA.AperFunction,SMDPad,CuDef*%
G36*
G01*
X130879000Y-106652000D02*
X130879000Y-106352000D01*
G75*
G02*
X131029000Y-106202000I150000J0D01*
G01*
X132779000Y-106202000D01*
G75*
G02*
X132929000Y-106352000I0J-150000D01*
G01*
X132929000Y-106652000D01*
G75*
G02*
X132779000Y-106802000I-150000J0D01*
G01*
X131029000Y-106802000D01*
G75*
G02*
X130879000Y-106652000I0J150000D01*
G01*
G37*
%TD.AperFunction*%
%TA.AperFunction,SMDPad,CuDef*%
G36*
G01*
X130879000Y-105382000D02*
X130879000Y-105082000D01*
G75*
G02*
X131029000Y-104932000I150000J0D01*
G01*
X132779000Y-104932000D01*
G75*
G02*
X132929000Y-105082000I0J-150000D01*
G01*
X132929000Y-105382000D01*
G75*
G02*
X132779000Y-105532000I-150000J0D01*
G01*
X131029000Y-105532000D01*
G75*
G02*
X130879000Y-105382000I0J150000D01*
G01*
G37*
%TD.AperFunction*%
%TA.AperFunction,SMDPad,CuDef*%
G36*
G01*
X130879000Y-104112000D02*
X130879000Y-103812000D01*
G75*
G02*
X131029000Y-103662000I150000J0D01*
G01*
X132779000Y-103662000D01*
G75*
G02*
X132929000Y-103812000I0J-150000D01*
G01*
X132929000Y-104112000D01*
G75*
G02*
X132779000Y-104262000I-150000J0D01*
G01*
X131029000Y-104262000D01*
G75*
G02*
X130879000Y-104112000I0J150000D01*
G01*
G37*
%TD.AperFunction*%
%TA.AperFunction,SMDPad,CuDef*%
G36*
G01*
X130879000Y-102842000D02*
X130879000Y-102542000D01*
G75*
G02*
X131029000Y-102392000I150000J0D01*
G01*
X132779000Y-102392000D01*
G75*
G02*
X132929000Y-102542000I0J-150000D01*
G01*
X132929000Y-102842000D01*
G75*
G02*
X132779000Y-102992000I-150000J0D01*
G01*
X131029000Y-102992000D01*
G75*
G02*
X130879000Y-102842000I0J150000D01*
G01*
G37*
%TD.AperFunction*%
%TA.AperFunction,SMDPad,CuDef*%
G36*
G01*
X130879000Y-101572000D02*
X130879000Y-101272000D01*
G75*
G02*
X131029000Y-101122000I150000J0D01*
G01*
X132779000Y-101122000D01*
G75*
G02*
X132929000Y-101272000I0J-150000D01*
G01*
X132929000Y-101572000D01*
G75*
G02*
X132779000Y-101722000I-150000J0D01*
G01*
X131029000Y-101722000D01*
G75*
G02*
X130879000Y-101572000I0J150000D01*
G01*
G37*
%TD.AperFunction*%
%TA.AperFunction,SMDPad,CuDef*%
G36*
G01*
X130879000Y-100302000D02*
X130879000Y-100002000D01*
G75*
G02*
X131029000Y-99852000I150000J0D01*
G01*
X132779000Y-99852000D01*
G75*
G02*
X132929000Y-100002000I0J-150000D01*
G01*
X132929000Y-100302000D01*
G75*
G02*
X132779000Y-100452000I-150000J0D01*
G01*
X131029000Y-100452000D01*
G75*
G02*
X130879000Y-100302000I0J150000D01*
G01*
G37*
%TD.AperFunction*%
%TA.AperFunction,SMDPad,CuDef*%
G36*
G01*
X130879000Y-99032000D02*
X130879000Y-98732000D01*
G75*
G02*
X131029000Y-98582000I150000J0D01*
G01*
X132779000Y-98582000D01*
G75*
G02*
X132929000Y-98732000I0J-150000D01*
G01*
X132929000Y-99032000D01*
G75*
G02*
X132779000Y-99182000I-150000J0D01*
G01*
X131029000Y-99182000D01*
G75*
G02*
X130879000Y-99032000I0J150000D01*
G01*
G37*
%TD.AperFunction*%
%TA.AperFunction,SMDPad,CuDef*%
G36*
G01*
X130879000Y-97762000D02*
X130879000Y-97462000D01*
G75*
G02*
X131029000Y-97312000I150000J0D01*
G01*
X132779000Y-97312000D01*
G75*
G02*
X132929000Y-97462000I0J-150000D01*
G01*
X132929000Y-97762000D01*
G75*
G02*
X132779000Y-97912000I-150000J0D01*
G01*
X131029000Y-97912000D01*
G75*
G02*
X130879000Y-97762000I0J150000D01*
G01*
G37*
%TD.AperFunction*%
%TA.AperFunction,SMDPad,CuDef*%
G36*
G01*
X130879000Y-96492000D02*
X130879000Y-96192000D01*
G75*
G02*
X131029000Y-96042000I150000J0D01*
G01*
X132779000Y-96042000D01*
G75*
G02*
X132929000Y-96192000I0J-150000D01*
G01*
X132929000Y-96492000D01*
G75*
G02*
X132779000Y-96642000I-150000J0D01*
G01*
X131029000Y-96642000D01*
G75*
G02*
X130879000Y-96492000I0J150000D01*
G01*
G37*
%TD.AperFunction*%
%TA.AperFunction,SMDPad,CuDef*%
G36*
G01*
X130879000Y-95222000D02*
X130879000Y-94922000D01*
G75*
G02*
X131029000Y-94772000I150000J0D01*
G01*
X132779000Y-94772000D01*
G75*
G02*
X132929000Y-94922000I0J-150000D01*
G01*
X132929000Y-95222000D01*
G75*
G02*
X132779000Y-95372000I-150000J0D01*
G01*
X131029000Y-95372000D01*
G75*
G02*
X130879000Y-95222000I0J150000D01*
G01*
G37*
%TD.AperFunction*%
%TA.AperFunction,SMDPad,CuDef*%
G36*
G01*
X130879000Y-93952000D02*
X130879000Y-93652000D01*
G75*
G02*
X131029000Y-93502000I150000J0D01*
G01*
X132779000Y-93502000D01*
G75*
G02*
X132929000Y-93652000I0J-150000D01*
G01*
X132929000Y-93952000D01*
G75*
G02*
X132779000Y-94102000I-150000J0D01*
G01*
X131029000Y-94102000D01*
G75*
G02*
X130879000Y-93952000I0J150000D01*
G01*
G37*
%TD.AperFunction*%
%TA.AperFunction,SMDPad,CuDef*%
G36*
G01*
X130879000Y-92682000D02*
X130879000Y-92382000D01*
G75*
G02*
X131029000Y-92232000I150000J0D01*
G01*
X132779000Y-92232000D01*
G75*
G02*
X132929000Y-92382000I0J-150000D01*
G01*
X132929000Y-92682000D01*
G75*
G02*
X132779000Y-92832000I-150000J0D01*
G01*
X131029000Y-92832000D01*
G75*
G02*
X130879000Y-92682000I0J150000D01*
G01*
G37*
%TD.AperFunction*%
%TA.AperFunction,SMDPad,CuDef*%
G36*
G01*
X130879000Y-91412000D02*
X130879000Y-91112000D01*
G75*
G02*
X131029000Y-90962000I150000J0D01*
G01*
X132779000Y-90962000D01*
G75*
G02*
X132929000Y-91112000I0J-150000D01*
G01*
X132929000Y-91412000D01*
G75*
G02*
X132779000Y-91562000I-150000J0D01*
G01*
X131029000Y-91562000D01*
G75*
G02*
X130879000Y-91412000I0J150000D01*
G01*
G37*
%TD.AperFunction*%
%TA.AperFunction,SMDPad,CuDef*%
G36*
G01*
X121579000Y-91412000D02*
X121579000Y-91112000D01*
G75*
G02*
X121729000Y-90962000I150000J0D01*
G01*
X123479000Y-90962000D01*
G75*
G02*
X123629000Y-91112000I0J-150000D01*
G01*
X123629000Y-91412000D01*
G75*
G02*
X123479000Y-91562000I-150000J0D01*
G01*
X121729000Y-91562000D01*
G75*
G02*
X121579000Y-91412000I0J150000D01*
G01*
G37*
%TD.AperFunction*%
%TA.AperFunction,SMDPad,CuDef*%
G36*
G01*
X121579000Y-92682000D02*
X121579000Y-92382000D01*
G75*
G02*
X121729000Y-92232000I150000J0D01*
G01*
X123479000Y-92232000D01*
G75*
G02*
X123629000Y-92382000I0J-150000D01*
G01*
X123629000Y-92682000D01*
G75*
G02*
X123479000Y-92832000I-150000J0D01*
G01*
X121729000Y-92832000D01*
G75*
G02*
X121579000Y-92682000I0J150000D01*
G01*
G37*
%TD.AperFunction*%
%TA.AperFunction,SMDPad,CuDef*%
G36*
G01*
X121579000Y-93952000D02*
X121579000Y-93652000D01*
G75*
G02*
X121729000Y-93502000I150000J0D01*
G01*
X123479000Y-93502000D01*
G75*
G02*
X123629000Y-93652000I0J-150000D01*
G01*
X123629000Y-93952000D01*
G75*
G02*
X123479000Y-94102000I-150000J0D01*
G01*
X121729000Y-94102000D01*
G75*
G02*
X121579000Y-93952000I0J150000D01*
G01*
G37*
%TD.AperFunction*%
%TA.AperFunction,SMDPad,CuDef*%
G36*
G01*
X121579000Y-95222000D02*
X121579000Y-94922000D01*
G75*
G02*
X121729000Y-94772000I150000J0D01*
G01*
X123479000Y-94772000D01*
G75*
G02*
X123629000Y-94922000I0J-150000D01*
G01*
X123629000Y-95222000D01*
G75*
G02*
X123479000Y-95372000I-150000J0D01*
G01*
X121729000Y-95372000D01*
G75*
G02*
X121579000Y-95222000I0J150000D01*
G01*
G37*
%TD.AperFunction*%
%TA.AperFunction,SMDPad,CuDef*%
G36*
G01*
X121579000Y-96492000D02*
X121579000Y-96192000D01*
G75*
G02*
X121729000Y-96042000I150000J0D01*
G01*
X123479000Y-96042000D01*
G75*
G02*
X123629000Y-96192000I0J-150000D01*
G01*
X123629000Y-96492000D01*
G75*
G02*
X123479000Y-96642000I-150000J0D01*
G01*
X121729000Y-96642000D01*
G75*
G02*
X121579000Y-96492000I0J150000D01*
G01*
G37*
%TD.AperFunction*%
%TA.AperFunction,SMDPad,CuDef*%
G36*
G01*
X121579000Y-97762000D02*
X121579000Y-97462000D01*
G75*
G02*
X121729000Y-97312000I150000J0D01*
G01*
X123479000Y-97312000D01*
G75*
G02*
X123629000Y-97462000I0J-150000D01*
G01*
X123629000Y-97762000D01*
G75*
G02*
X123479000Y-97912000I-150000J0D01*
G01*
X121729000Y-97912000D01*
G75*
G02*
X121579000Y-97762000I0J150000D01*
G01*
G37*
%TD.AperFunction*%
%TA.AperFunction,SMDPad,CuDef*%
G36*
G01*
X121579000Y-99032000D02*
X121579000Y-98732000D01*
G75*
G02*
X121729000Y-98582000I150000J0D01*
G01*
X123479000Y-98582000D01*
G75*
G02*
X123629000Y-98732000I0J-150000D01*
G01*
X123629000Y-99032000D01*
G75*
G02*
X123479000Y-99182000I-150000J0D01*
G01*
X121729000Y-99182000D01*
G75*
G02*
X121579000Y-99032000I0J150000D01*
G01*
G37*
%TD.AperFunction*%
%TA.AperFunction,SMDPad,CuDef*%
G36*
G01*
X121579000Y-100302000D02*
X121579000Y-100002000D01*
G75*
G02*
X121729000Y-99852000I150000J0D01*
G01*
X123479000Y-99852000D01*
G75*
G02*
X123629000Y-100002000I0J-150000D01*
G01*
X123629000Y-100302000D01*
G75*
G02*
X123479000Y-100452000I-150000J0D01*
G01*
X121729000Y-100452000D01*
G75*
G02*
X121579000Y-100302000I0J150000D01*
G01*
G37*
%TD.AperFunction*%
%TA.AperFunction,SMDPad,CuDef*%
G36*
G01*
X121579000Y-101572000D02*
X121579000Y-101272000D01*
G75*
G02*
X121729000Y-101122000I150000J0D01*
G01*
X123479000Y-101122000D01*
G75*
G02*
X123629000Y-101272000I0J-150000D01*
G01*
X123629000Y-101572000D01*
G75*
G02*
X123479000Y-101722000I-150000J0D01*
G01*
X121729000Y-101722000D01*
G75*
G02*
X121579000Y-101572000I0J150000D01*
G01*
G37*
%TD.AperFunction*%
%TA.AperFunction,SMDPad,CuDef*%
G36*
G01*
X121579000Y-102842000D02*
X121579000Y-102542000D01*
G75*
G02*
X121729000Y-102392000I150000J0D01*
G01*
X123479000Y-102392000D01*
G75*
G02*
X123629000Y-102542000I0J-150000D01*
G01*
X123629000Y-102842000D01*
G75*
G02*
X123479000Y-102992000I-150000J0D01*
G01*
X121729000Y-102992000D01*
G75*
G02*
X121579000Y-102842000I0J150000D01*
G01*
G37*
%TD.AperFunction*%
%TA.AperFunction,SMDPad,CuDef*%
G36*
G01*
X121579000Y-104112000D02*
X121579000Y-103812000D01*
G75*
G02*
X121729000Y-103662000I150000J0D01*
G01*
X123479000Y-103662000D01*
G75*
G02*
X123629000Y-103812000I0J-150000D01*
G01*
X123629000Y-104112000D01*
G75*
G02*
X123479000Y-104262000I-150000J0D01*
G01*
X121729000Y-104262000D01*
G75*
G02*
X121579000Y-104112000I0J150000D01*
G01*
G37*
%TD.AperFunction*%
%TA.AperFunction,SMDPad,CuDef*%
G36*
G01*
X121579000Y-105382000D02*
X121579000Y-105082000D01*
G75*
G02*
X121729000Y-104932000I150000J0D01*
G01*
X123479000Y-104932000D01*
G75*
G02*
X123629000Y-105082000I0J-150000D01*
G01*
X123629000Y-105382000D01*
G75*
G02*
X123479000Y-105532000I-150000J0D01*
G01*
X121729000Y-105532000D01*
G75*
G02*
X121579000Y-105382000I0J150000D01*
G01*
G37*
%TD.AperFunction*%
%TA.AperFunction,SMDPad,CuDef*%
G36*
G01*
X121579000Y-106652000D02*
X121579000Y-106352000D01*
G75*
G02*
X121729000Y-106202000I150000J0D01*
G01*
X123479000Y-106202000D01*
G75*
G02*
X123629000Y-106352000I0J-150000D01*
G01*
X123629000Y-106652000D01*
G75*
G02*
X123479000Y-106802000I-150000J0D01*
G01*
X121729000Y-106802000D01*
G75*
G02*
X121579000Y-106652000I0J150000D01*
G01*
G37*
%TD.AperFunction*%
%TA.AperFunction,SMDPad,CuDef*%
G36*
G01*
X121579000Y-107922000D02*
X121579000Y-107622000D01*
G75*
G02*
X121729000Y-107472000I150000J0D01*
G01*
X123479000Y-107472000D01*
G75*
G02*
X123629000Y-107622000I0J-150000D01*
G01*
X123629000Y-107922000D01*
G75*
G02*
X123479000Y-108072000I-150000J0D01*
G01*
X121729000Y-108072000D01*
G75*
G02*
X121579000Y-107922000I0J150000D01*
G01*
G37*
%TD.AperFunction*%
%TA.AperFunction,SMDPad,CuDef*%
G36*
G01*
X108019000Y-107922000D02*
X108019000Y-107622000D01*
G75*
G02*
X108169000Y-107472000I150000J0D01*
G01*
X109919000Y-107472000D01*
G75*
G02*
X110069000Y-107622000I0J-150000D01*
G01*
X110069000Y-107922000D01*
G75*
G02*
X109919000Y-108072000I-150000J0D01*
G01*
X108169000Y-108072000D01*
G75*
G02*
X108019000Y-107922000I0J150000D01*
G01*
G37*
%TD.AperFunction*%
%TA.AperFunction,SMDPad,CuDef*%
G36*
G01*
X108019000Y-106652000D02*
X108019000Y-106352000D01*
G75*
G02*
X108169000Y-106202000I150000J0D01*
G01*
X109919000Y-106202000D01*
G75*
G02*
X110069000Y-106352000I0J-150000D01*
G01*
X110069000Y-106652000D01*
G75*
G02*
X109919000Y-106802000I-150000J0D01*
G01*
X108169000Y-106802000D01*
G75*
G02*
X108019000Y-106652000I0J150000D01*
G01*
G37*
%TD.AperFunction*%
%TA.AperFunction,SMDPad,CuDef*%
G36*
G01*
X108019000Y-105382000D02*
X108019000Y-105082000D01*
G75*
G02*
X108169000Y-104932000I150000J0D01*
G01*
X109919000Y-104932000D01*
G75*
G02*
X110069000Y-105082000I0J-150000D01*
G01*
X110069000Y-105382000D01*
G75*
G02*
X109919000Y-105532000I-150000J0D01*
G01*
X108169000Y-105532000D01*
G75*
G02*
X108019000Y-105382000I0J150000D01*
G01*
G37*
%TD.AperFunction*%
%TA.AperFunction,SMDPad,CuDef*%
G36*
G01*
X108019000Y-104112000D02*
X108019000Y-103812000D01*
G75*
G02*
X108169000Y-103662000I150000J0D01*
G01*
X109919000Y-103662000D01*
G75*
G02*
X110069000Y-103812000I0J-150000D01*
G01*
X110069000Y-104112000D01*
G75*
G02*
X109919000Y-104262000I-150000J0D01*
G01*
X108169000Y-104262000D01*
G75*
G02*
X108019000Y-104112000I0J150000D01*
G01*
G37*
%TD.AperFunction*%
%TA.AperFunction,SMDPad,CuDef*%
G36*
G01*
X108019000Y-102842000D02*
X108019000Y-102542000D01*
G75*
G02*
X108169000Y-102392000I150000J0D01*
G01*
X109919000Y-102392000D01*
G75*
G02*
X110069000Y-102542000I0J-150000D01*
G01*
X110069000Y-102842000D01*
G75*
G02*
X109919000Y-102992000I-150000J0D01*
G01*
X108169000Y-102992000D01*
G75*
G02*
X108019000Y-102842000I0J150000D01*
G01*
G37*
%TD.AperFunction*%
%TA.AperFunction,SMDPad,CuDef*%
G36*
G01*
X108019000Y-101572000D02*
X108019000Y-101272000D01*
G75*
G02*
X108169000Y-101122000I150000J0D01*
G01*
X109919000Y-101122000D01*
G75*
G02*
X110069000Y-101272000I0J-150000D01*
G01*
X110069000Y-101572000D01*
G75*
G02*
X109919000Y-101722000I-150000J0D01*
G01*
X108169000Y-101722000D01*
G75*
G02*
X108019000Y-101572000I0J150000D01*
G01*
G37*
%TD.AperFunction*%
%TA.AperFunction,SMDPad,CuDef*%
G36*
G01*
X108019000Y-100302000D02*
X108019000Y-100002000D01*
G75*
G02*
X108169000Y-99852000I150000J0D01*
G01*
X109919000Y-99852000D01*
G75*
G02*
X110069000Y-100002000I0J-150000D01*
G01*
X110069000Y-100302000D01*
G75*
G02*
X109919000Y-100452000I-150000J0D01*
G01*
X108169000Y-100452000D01*
G75*
G02*
X108019000Y-100302000I0J150000D01*
G01*
G37*
%TD.AperFunction*%
%TA.AperFunction,SMDPad,CuDef*%
G36*
G01*
X108019000Y-99032000D02*
X108019000Y-98732000D01*
G75*
G02*
X108169000Y-98582000I150000J0D01*
G01*
X109919000Y-98582000D01*
G75*
G02*
X110069000Y-98732000I0J-150000D01*
G01*
X110069000Y-99032000D01*
G75*
G02*
X109919000Y-99182000I-150000J0D01*
G01*
X108169000Y-99182000D01*
G75*
G02*
X108019000Y-99032000I0J150000D01*
G01*
G37*
%TD.AperFunction*%
%TA.AperFunction,SMDPad,CuDef*%
G36*
G01*
X108019000Y-97762000D02*
X108019000Y-97462000D01*
G75*
G02*
X108169000Y-97312000I150000J0D01*
G01*
X109919000Y-97312000D01*
G75*
G02*
X110069000Y-97462000I0J-150000D01*
G01*
X110069000Y-97762000D01*
G75*
G02*
X109919000Y-97912000I-150000J0D01*
G01*
X108169000Y-97912000D01*
G75*
G02*
X108019000Y-97762000I0J150000D01*
G01*
G37*
%TD.AperFunction*%
%TA.AperFunction,SMDPad,CuDef*%
G36*
G01*
X108019000Y-96492000D02*
X108019000Y-96192000D01*
G75*
G02*
X108169000Y-96042000I150000J0D01*
G01*
X109919000Y-96042000D01*
G75*
G02*
X110069000Y-96192000I0J-150000D01*
G01*
X110069000Y-96492000D01*
G75*
G02*
X109919000Y-96642000I-150000J0D01*
G01*
X108169000Y-96642000D01*
G75*
G02*
X108019000Y-96492000I0J150000D01*
G01*
G37*
%TD.AperFunction*%
%TA.AperFunction,SMDPad,CuDef*%
G36*
G01*
X108019000Y-95222000D02*
X108019000Y-94922000D01*
G75*
G02*
X108169000Y-94772000I150000J0D01*
G01*
X109919000Y-94772000D01*
G75*
G02*
X110069000Y-94922000I0J-150000D01*
G01*
X110069000Y-95222000D01*
G75*
G02*
X109919000Y-95372000I-150000J0D01*
G01*
X108169000Y-95372000D01*
G75*
G02*
X108019000Y-95222000I0J150000D01*
G01*
G37*
%TD.AperFunction*%
%TA.AperFunction,SMDPad,CuDef*%
G36*
G01*
X108019000Y-93952000D02*
X108019000Y-93652000D01*
G75*
G02*
X108169000Y-93502000I150000J0D01*
G01*
X109919000Y-93502000D01*
G75*
G02*
X110069000Y-93652000I0J-150000D01*
G01*
X110069000Y-93952000D01*
G75*
G02*
X109919000Y-94102000I-150000J0D01*
G01*
X108169000Y-94102000D01*
G75*
G02*
X108019000Y-93952000I0J150000D01*
G01*
G37*
%TD.AperFunction*%
%TA.AperFunction,SMDPad,CuDef*%
G36*
G01*
X108019000Y-92682000D02*
X108019000Y-92382000D01*
G75*
G02*
X108169000Y-92232000I150000J0D01*
G01*
X109919000Y-92232000D01*
G75*
G02*
X110069000Y-92382000I0J-150000D01*
G01*
X110069000Y-92682000D01*
G75*
G02*
X109919000Y-92832000I-150000J0D01*
G01*
X108169000Y-92832000D01*
G75*
G02*
X108019000Y-92682000I0J150000D01*
G01*
G37*
%TD.AperFunction*%
%TA.AperFunction,SMDPad,CuDef*%
G36*
G01*
X108019000Y-91412000D02*
X108019000Y-91112000D01*
G75*
G02*
X108169000Y-90962000I150000J0D01*
G01*
X109919000Y-90962000D01*
G75*
G02*
X110069000Y-91112000I0J-150000D01*
G01*
X110069000Y-91412000D01*
G75*
G02*
X109919000Y-91562000I-150000J0D01*
G01*
X108169000Y-91562000D01*
G75*
G02*
X108019000Y-91412000I0J150000D01*
G01*
G37*
%TD.AperFunction*%
%TA.AperFunction,SMDPad,CuDef*%
G36*
G01*
X98719000Y-91412000D02*
X98719000Y-91112000D01*
G75*
G02*
X98869000Y-90962000I150000J0D01*
G01*
X100619000Y-90962000D01*
G75*
G02*
X100769000Y-91112000I0J-150000D01*
G01*
X100769000Y-91412000D01*
G75*
G02*
X100619000Y-91562000I-150000J0D01*
G01*
X98869000Y-91562000D01*
G75*
G02*
X98719000Y-91412000I0J150000D01*
G01*
G37*
%TD.AperFunction*%
%TA.AperFunction,SMDPad,CuDef*%
G36*
G01*
X98719000Y-92682000D02*
X98719000Y-92382000D01*
G75*
G02*
X98869000Y-92232000I150000J0D01*
G01*
X100619000Y-92232000D01*
G75*
G02*
X100769000Y-92382000I0J-150000D01*
G01*
X100769000Y-92682000D01*
G75*
G02*
X100619000Y-92832000I-150000J0D01*
G01*
X98869000Y-92832000D01*
G75*
G02*
X98719000Y-92682000I0J150000D01*
G01*
G37*
%TD.AperFunction*%
%TA.AperFunction,SMDPad,CuDef*%
G36*
G01*
X98719000Y-93952000D02*
X98719000Y-93652000D01*
G75*
G02*
X98869000Y-93502000I150000J0D01*
G01*
X100619000Y-93502000D01*
G75*
G02*
X100769000Y-93652000I0J-150000D01*
G01*
X100769000Y-93952000D01*
G75*
G02*
X100619000Y-94102000I-150000J0D01*
G01*
X98869000Y-94102000D01*
G75*
G02*
X98719000Y-93952000I0J150000D01*
G01*
G37*
%TD.AperFunction*%
%TA.AperFunction,SMDPad,CuDef*%
G36*
G01*
X98719000Y-95222000D02*
X98719000Y-94922000D01*
G75*
G02*
X98869000Y-94772000I150000J0D01*
G01*
X100619000Y-94772000D01*
G75*
G02*
X100769000Y-94922000I0J-150000D01*
G01*
X100769000Y-95222000D01*
G75*
G02*
X100619000Y-95372000I-150000J0D01*
G01*
X98869000Y-95372000D01*
G75*
G02*
X98719000Y-95222000I0J150000D01*
G01*
G37*
%TD.AperFunction*%
%TA.AperFunction,SMDPad,CuDef*%
G36*
G01*
X98719000Y-96492000D02*
X98719000Y-96192000D01*
G75*
G02*
X98869000Y-96042000I150000J0D01*
G01*
X100619000Y-96042000D01*
G75*
G02*
X100769000Y-96192000I0J-150000D01*
G01*
X100769000Y-96492000D01*
G75*
G02*
X100619000Y-96642000I-150000J0D01*
G01*
X98869000Y-96642000D01*
G75*
G02*
X98719000Y-96492000I0J150000D01*
G01*
G37*
%TD.AperFunction*%
%TA.AperFunction,SMDPad,CuDef*%
G36*
G01*
X98719000Y-97762000D02*
X98719000Y-97462000D01*
G75*
G02*
X98869000Y-97312000I150000J0D01*
G01*
X100619000Y-97312000D01*
G75*
G02*
X100769000Y-97462000I0J-150000D01*
G01*
X100769000Y-97762000D01*
G75*
G02*
X100619000Y-97912000I-150000J0D01*
G01*
X98869000Y-97912000D01*
G75*
G02*
X98719000Y-97762000I0J150000D01*
G01*
G37*
%TD.AperFunction*%
%TA.AperFunction,SMDPad,CuDef*%
G36*
G01*
X98719000Y-99032000D02*
X98719000Y-98732000D01*
G75*
G02*
X98869000Y-98582000I150000J0D01*
G01*
X100619000Y-98582000D01*
G75*
G02*
X100769000Y-98732000I0J-150000D01*
G01*
X100769000Y-99032000D01*
G75*
G02*
X100619000Y-99182000I-150000J0D01*
G01*
X98869000Y-99182000D01*
G75*
G02*
X98719000Y-99032000I0J150000D01*
G01*
G37*
%TD.AperFunction*%
%TA.AperFunction,SMDPad,CuDef*%
G36*
G01*
X98719000Y-100302000D02*
X98719000Y-100002000D01*
G75*
G02*
X98869000Y-99852000I150000J0D01*
G01*
X100619000Y-99852000D01*
G75*
G02*
X100769000Y-100002000I0J-150000D01*
G01*
X100769000Y-100302000D01*
G75*
G02*
X100619000Y-100452000I-150000J0D01*
G01*
X98869000Y-100452000D01*
G75*
G02*
X98719000Y-100302000I0J150000D01*
G01*
G37*
%TD.AperFunction*%
%TA.AperFunction,SMDPad,CuDef*%
G36*
G01*
X98719000Y-101572000D02*
X98719000Y-101272000D01*
G75*
G02*
X98869000Y-101122000I150000J0D01*
G01*
X100619000Y-101122000D01*
G75*
G02*
X100769000Y-101272000I0J-150000D01*
G01*
X100769000Y-101572000D01*
G75*
G02*
X100619000Y-101722000I-150000J0D01*
G01*
X98869000Y-101722000D01*
G75*
G02*
X98719000Y-101572000I0J150000D01*
G01*
G37*
%TD.AperFunction*%
%TA.AperFunction,SMDPad,CuDef*%
G36*
G01*
X98719000Y-102842000D02*
X98719000Y-102542000D01*
G75*
G02*
X98869000Y-102392000I150000J0D01*
G01*
X100619000Y-102392000D01*
G75*
G02*
X100769000Y-102542000I0J-150000D01*
G01*
X100769000Y-102842000D01*
G75*
G02*
X100619000Y-102992000I-150000J0D01*
G01*
X98869000Y-102992000D01*
G75*
G02*
X98719000Y-102842000I0J150000D01*
G01*
G37*
%TD.AperFunction*%
%TA.AperFunction,SMDPad,CuDef*%
G36*
G01*
X98719000Y-104112000D02*
X98719000Y-103812000D01*
G75*
G02*
X98869000Y-103662000I150000J0D01*
G01*
X100619000Y-103662000D01*
G75*
G02*
X100769000Y-103812000I0J-150000D01*
G01*
X100769000Y-104112000D01*
G75*
G02*
X100619000Y-104262000I-150000J0D01*
G01*
X98869000Y-104262000D01*
G75*
G02*
X98719000Y-104112000I0J150000D01*
G01*
G37*
%TD.AperFunction*%
%TA.AperFunction,SMDPad,CuDef*%
G36*
G01*
X98719000Y-105382000D02*
X98719000Y-105082000D01*
G75*
G02*
X98869000Y-104932000I150000J0D01*
G01*
X100619000Y-104932000D01*
G75*
G02*
X100769000Y-105082000I0J-150000D01*
G01*
X100769000Y-105382000D01*
G75*
G02*
X100619000Y-105532000I-150000J0D01*
G01*
X98869000Y-105532000D01*
G75*
G02*
X98719000Y-105382000I0J150000D01*
G01*
G37*
%TD.AperFunction*%
%TA.AperFunction,SMDPad,CuDef*%
G36*
G01*
X98719000Y-106652000D02*
X98719000Y-106352000D01*
G75*
G02*
X98869000Y-106202000I150000J0D01*
G01*
X100619000Y-106202000D01*
G75*
G02*
X100769000Y-106352000I0J-150000D01*
G01*
X100769000Y-106652000D01*
G75*
G02*
X100619000Y-106802000I-150000J0D01*
G01*
X98869000Y-106802000D01*
G75*
G02*
X98719000Y-106652000I0J150000D01*
G01*
G37*
%TD.AperFunction*%
%TA.AperFunction,SMDPad,CuDef*%
G36*
G01*
X98719000Y-107922000D02*
X98719000Y-107622000D01*
G75*
G02*
X98869000Y-107472000I150000J0D01*
G01*
X100619000Y-107472000D01*
G75*
G02*
X100769000Y-107622000I0J-150000D01*
G01*
X100769000Y-107922000D01*
G75*
G02*
X100619000Y-108072000I-150000J0D01*
G01*
X98869000Y-108072000D01*
G75*
G02*
X98719000Y-107922000I0J150000D01*
G01*
G37*
%TD.AperFunction*%
%TA.AperFunction,SMDPad,CuDef*%
G36*
G01*
X86429000Y-107922000D02*
X86429000Y-107622000D01*
G75*
G02*
X86579000Y-107472000I150000J0D01*
G01*
X88329000Y-107472000D01*
G75*
G02*
X88479000Y-107622000I0J-150000D01*
G01*
X88479000Y-107922000D01*
G75*
G02*
X88329000Y-108072000I-150000J0D01*
G01*
X86579000Y-108072000D01*
G75*
G02*
X86429000Y-107922000I0J150000D01*
G01*
G37*
%TD.AperFunction*%
%TA.AperFunction,SMDPad,CuDef*%
G36*
G01*
X86429000Y-106652000D02*
X86429000Y-106352000D01*
G75*
G02*
X86579000Y-106202000I150000J0D01*
G01*
X88329000Y-106202000D01*
G75*
G02*
X88479000Y-106352000I0J-150000D01*
G01*
X88479000Y-106652000D01*
G75*
G02*
X88329000Y-106802000I-150000J0D01*
G01*
X86579000Y-106802000D01*
G75*
G02*
X86429000Y-106652000I0J150000D01*
G01*
G37*
%TD.AperFunction*%
%TA.AperFunction,SMDPad,CuDef*%
G36*
G01*
X86429000Y-105382000D02*
X86429000Y-105082000D01*
G75*
G02*
X86579000Y-104932000I150000J0D01*
G01*
X88329000Y-104932000D01*
G75*
G02*
X88479000Y-105082000I0J-150000D01*
G01*
X88479000Y-105382000D01*
G75*
G02*
X88329000Y-105532000I-150000J0D01*
G01*
X86579000Y-105532000D01*
G75*
G02*
X86429000Y-105382000I0J150000D01*
G01*
G37*
%TD.AperFunction*%
%TA.AperFunction,SMDPad,CuDef*%
G36*
G01*
X86429000Y-104112000D02*
X86429000Y-103812000D01*
G75*
G02*
X86579000Y-103662000I150000J0D01*
G01*
X88329000Y-103662000D01*
G75*
G02*
X88479000Y-103812000I0J-150000D01*
G01*
X88479000Y-104112000D01*
G75*
G02*
X88329000Y-104262000I-150000J0D01*
G01*
X86579000Y-104262000D01*
G75*
G02*
X86429000Y-104112000I0J150000D01*
G01*
G37*
%TD.AperFunction*%
%TA.AperFunction,SMDPad,CuDef*%
G36*
G01*
X86429000Y-102842000D02*
X86429000Y-102542000D01*
G75*
G02*
X86579000Y-102392000I150000J0D01*
G01*
X88329000Y-102392000D01*
G75*
G02*
X88479000Y-102542000I0J-150000D01*
G01*
X88479000Y-102842000D01*
G75*
G02*
X88329000Y-102992000I-150000J0D01*
G01*
X86579000Y-102992000D01*
G75*
G02*
X86429000Y-102842000I0J150000D01*
G01*
G37*
%TD.AperFunction*%
%TA.AperFunction,SMDPad,CuDef*%
G36*
G01*
X86429000Y-101572000D02*
X86429000Y-101272000D01*
G75*
G02*
X86579000Y-101122000I150000J0D01*
G01*
X88329000Y-101122000D01*
G75*
G02*
X88479000Y-101272000I0J-150000D01*
G01*
X88479000Y-101572000D01*
G75*
G02*
X88329000Y-101722000I-150000J0D01*
G01*
X86579000Y-101722000D01*
G75*
G02*
X86429000Y-101572000I0J150000D01*
G01*
G37*
%TD.AperFunction*%
%TA.AperFunction,SMDPad,CuDef*%
G36*
G01*
X86429000Y-100302000D02*
X86429000Y-100002000D01*
G75*
G02*
X86579000Y-99852000I150000J0D01*
G01*
X88329000Y-99852000D01*
G75*
G02*
X88479000Y-100002000I0J-150000D01*
G01*
X88479000Y-100302000D01*
G75*
G02*
X88329000Y-100452000I-150000J0D01*
G01*
X86579000Y-100452000D01*
G75*
G02*
X86429000Y-100302000I0J150000D01*
G01*
G37*
%TD.AperFunction*%
%TA.AperFunction,SMDPad,CuDef*%
G36*
G01*
X86429000Y-99032000D02*
X86429000Y-98732000D01*
G75*
G02*
X86579000Y-98582000I150000J0D01*
G01*
X88329000Y-98582000D01*
G75*
G02*
X88479000Y-98732000I0J-150000D01*
G01*
X88479000Y-99032000D01*
G75*
G02*
X88329000Y-99182000I-150000J0D01*
G01*
X86579000Y-99182000D01*
G75*
G02*
X86429000Y-99032000I0J150000D01*
G01*
G37*
%TD.AperFunction*%
%TA.AperFunction,SMDPad,CuDef*%
G36*
G01*
X86429000Y-97762000D02*
X86429000Y-97462000D01*
G75*
G02*
X86579000Y-97312000I150000J0D01*
G01*
X88329000Y-97312000D01*
G75*
G02*
X88479000Y-97462000I0J-150000D01*
G01*
X88479000Y-97762000D01*
G75*
G02*
X88329000Y-97912000I-150000J0D01*
G01*
X86579000Y-97912000D01*
G75*
G02*
X86429000Y-97762000I0J150000D01*
G01*
G37*
%TD.AperFunction*%
%TA.AperFunction,SMDPad,CuDef*%
G36*
G01*
X86429000Y-96492000D02*
X86429000Y-96192000D01*
G75*
G02*
X86579000Y-96042000I150000J0D01*
G01*
X88329000Y-96042000D01*
G75*
G02*
X88479000Y-96192000I0J-150000D01*
G01*
X88479000Y-96492000D01*
G75*
G02*
X88329000Y-96642000I-150000J0D01*
G01*
X86579000Y-96642000D01*
G75*
G02*
X86429000Y-96492000I0J150000D01*
G01*
G37*
%TD.AperFunction*%
%TA.AperFunction,SMDPad,CuDef*%
G36*
G01*
X86429000Y-95222000D02*
X86429000Y-94922000D01*
G75*
G02*
X86579000Y-94772000I150000J0D01*
G01*
X88329000Y-94772000D01*
G75*
G02*
X88479000Y-94922000I0J-150000D01*
G01*
X88479000Y-95222000D01*
G75*
G02*
X88329000Y-95372000I-150000J0D01*
G01*
X86579000Y-95372000D01*
G75*
G02*
X86429000Y-95222000I0J150000D01*
G01*
G37*
%TD.AperFunction*%
%TA.AperFunction,SMDPad,CuDef*%
G36*
G01*
X86429000Y-93952000D02*
X86429000Y-93652000D01*
G75*
G02*
X86579000Y-93502000I150000J0D01*
G01*
X88329000Y-93502000D01*
G75*
G02*
X88479000Y-93652000I0J-150000D01*
G01*
X88479000Y-93952000D01*
G75*
G02*
X88329000Y-94102000I-150000J0D01*
G01*
X86579000Y-94102000D01*
G75*
G02*
X86429000Y-93952000I0J150000D01*
G01*
G37*
%TD.AperFunction*%
%TA.AperFunction,SMDPad,CuDef*%
G36*
G01*
X86429000Y-92682000D02*
X86429000Y-92382000D01*
G75*
G02*
X86579000Y-92232000I150000J0D01*
G01*
X88329000Y-92232000D01*
G75*
G02*
X88479000Y-92382000I0J-150000D01*
G01*
X88479000Y-92682000D01*
G75*
G02*
X88329000Y-92832000I-150000J0D01*
G01*
X86579000Y-92832000D01*
G75*
G02*
X86429000Y-92682000I0J150000D01*
G01*
G37*
%TD.AperFunction*%
%TA.AperFunction,SMDPad,CuDef*%
G36*
G01*
X86429000Y-91412000D02*
X86429000Y-91112000D01*
G75*
G02*
X86579000Y-90962000I150000J0D01*
G01*
X88329000Y-90962000D01*
G75*
G02*
X88479000Y-91112000I0J-150000D01*
G01*
X88479000Y-91412000D01*
G75*
G02*
X88329000Y-91562000I-150000J0D01*
G01*
X86579000Y-91562000D01*
G75*
G02*
X86429000Y-91412000I0J150000D01*
G01*
G37*
%TD.AperFunction*%
%TA.AperFunction,SMDPad,CuDef*%
G36*
G01*
X77129000Y-91412000D02*
X77129000Y-91112000D01*
G75*
G02*
X77279000Y-90962000I150000J0D01*
G01*
X79029000Y-90962000D01*
G75*
G02*
X79179000Y-91112000I0J-150000D01*
G01*
X79179000Y-91412000D01*
G75*
G02*
X79029000Y-91562000I-150000J0D01*
G01*
X77279000Y-91562000D01*
G75*
G02*
X77129000Y-91412000I0J150000D01*
G01*
G37*
%TD.AperFunction*%
%TA.AperFunction,SMDPad,CuDef*%
G36*
G01*
X77129000Y-92682000D02*
X77129000Y-92382000D01*
G75*
G02*
X77279000Y-92232000I150000J0D01*
G01*
X79029000Y-92232000D01*
G75*
G02*
X79179000Y-92382000I0J-150000D01*
G01*
X79179000Y-92682000D01*
G75*
G02*
X79029000Y-92832000I-150000J0D01*
G01*
X77279000Y-92832000D01*
G75*
G02*
X77129000Y-92682000I0J150000D01*
G01*
G37*
%TD.AperFunction*%
%TA.AperFunction,SMDPad,CuDef*%
G36*
G01*
X77129000Y-93952000D02*
X77129000Y-93652000D01*
G75*
G02*
X77279000Y-93502000I150000J0D01*
G01*
X79029000Y-93502000D01*
G75*
G02*
X79179000Y-93652000I0J-150000D01*
G01*
X79179000Y-93952000D01*
G75*
G02*
X79029000Y-94102000I-150000J0D01*
G01*
X77279000Y-94102000D01*
G75*
G02*
X77129000Y-93952000I0J150000D01*
G01*
G37*
%TD.AperFunction*%
%TA.AperFunction,SMDPad,CuDef*%
G36*
G01*
X77129000Y-95222000D02*
X77129000Y-94922000D01*
G75*
G02*
X77279000Y-94772000I150000J0D01*
G01*
X79029000Y-94772000D01*
G75*
G02*
X79179000Y-94922000I0J-150000D01*
G01*
X79179000Y-95222000D01*
G75*
G02*
X79029000Y-95372000I-150000J0D01*
G01*
X77279000Y-95372000D01*
G75*
G02*
X77129000Y-95222000I0J150000D01*
G01*
G37*
%TD.AperFunction*%
%TA.AperFunction,SMDPad,CuDef*%
G36*
G01*
X77129000Y-96492000D02*
X77129000Y-96192000D01*
G75*
G02*
X77279000Y-96042000I150000J0D01*
G01*
X79029000Y-96042000D01*
G75*
G02*
X79179000Y-96192000I0J-150000D01*
G01*
X79179000Y-96492000D01*
G75*
G02*
X79029000Y-96642000I-150000J0D01*
G01*
X77279000Y-96642000D01*
G75*
G02*
X77129000Y-96492000I0J150000D01*
G01*
G37*
%TD.AperFunction*%
%TA.AperFunction,SMDPad,CuDef*%
G36*
G01*
X77129000Y-97762000D02*
X77129000Y-97462000D01*
G75*
G02*
X77279000Y-97312000I150000J0D01*
G01*
X79029000Y-97312000D01*
G75*
G02*
X79179000Y-97462000I0J-150000D01*
G01*
X79179000Y-97762000D01*
G75*
G02*
X79029000Y-97912000I-150000J0D01*
G01*
X77279000Y-97912000D01*
G75*
G02*
X77129000Y-97762000I0J150000D01*
G01*
G37*
%TD.AperFunction*%
%TA.AperFunction,SMDPad,CuDef*%
G36*
G01*
X77129000Y-99032000D02*
X77129000Y-98732000D01*
G75*
G02*
X77279000Y-98582000I150000J0D01*
G01*
X79029000Y-98582000D01*
G75*
G02*
X79179000Y-98732000I0J-150000D01*
G01*
X79179000Y-99032000D01*
G75*
G02*
X79029000Y-99182000I-150000J0D01*
G01*
X77279000Y-99182000D01*
G75*
G02*
X77129000Y-99032000I0J150000D01*
G01*
G37*
%TD.AperFunction*%
%TA.AperFunction,SMDPad,CuDef*%
G36*
G01*
X77129000Y-100302000D02*
X77129000Y-100002000D01*
G75*
G02*
X77279000Y-99852000I150000J0D01*
G01*
X79029000Y-99852000D01*
G75*
G02*
X79179000Y-100002000I0J-150000D01*
G01*
X79179000Y-100302000D01*
G75*
G02*
X79029000Y-100452000I-150000J0D01*
G01*
X77279000Y-100452000D01*
G75*
G02*
X77129000Y-100302000I0J150000D01*
G01*
G37*
%TD.AperFunction*%
%TA.AperFunction,SMDPad,CuDef*%
G36*
G01*
X77129000Y-101572000D02*
X77129000Y-101272000D01*
G75*
G02*
X77279000Y-101122000I150000J0D01*
G01*
X79029000Y-101122000D01*
G75*
G02*
X79179000Y-101272000I0J-150000D01*
G01*
X79179000Y-101572000D01*
G75*
G02*
X79029000Y-101722000I-150000J0D01*
G01*
X77279000Y-101722000D01*
G75*
G02*
X77129000Y-101572000I0J150000D01*
G01*
G37*
%TD.AperFunction*%
%TA.AperFunction,SMDPad,CuDef*%
G36*
G01*
X77129000Y-102842000D02*
X77129000Y-102542000D01*
G75*
G02*
X77279000Y-102392000I150000J0D01*
G01*
X79029000Y-102392000D01*
G75*
G02*
X79179000Y-102542000I0J-150000D01*
G01*
X79179000Y-102842000D01*
G75*
G02*
X79029000Y-102992000I-150000J0D01*
G01*
X77279000Y-102992000D01*
G75*
G02*
X77129000Y-102842000I0J150000D01*
G01*
G37*
%TD.AperFunction*%
%TA.AperFunction,SMDPad,CuDef*%
G36*
G01*
X77129000Y-104112000D02*
X77129000Y-103812000D01*
G75*
G02*
X77279000Y-103662000I150000J0D01*
G01*
X79029000Y-103662000D01*
G75*
G02*
X79179000Y-103812000I0J-150000D01*
G01*
X79179000Y-104112000D01*
G75*
G02*
X79029000Y-104262000I-150000J0D01*
G01*
X77279000Y-104262000D01*
G75*
G02*
X77129000Y-104112000I0J150000D01*
G01*
G37*
%TD.AperFunction*%
%TA.AperFunction,SMDPad,CuDef*%
G36*
G01*
X77129000Y-105382000D02*
X77129000Y-105082000D01*
G75*
G02*
X77279000Y-104932000I150000J0D01*
G01*
X79029000Y-104932000D01*
G75*
G02*
X79179000Y-105082000I0J-150000D01*
G01*
X79179000Y-105382000D01*
G75*
G02*
X79029000Y-105532000I-150000J0D01*
G01*
X77279000Y-105532000D01*
G75*
G02*
X77129000Y-105382000I0J150000D01*
G01*
G37*
%TD.AperFunction*%
%TA.AperFunction,SMDPad,CuDef*%
G36*
G01*
X77129000Y-106652000D02*
X77129000Y-106352000D01*
G75*
G02*
X77279000Y-106202000I150000J0D01*
G01*
X79029000Y-106202000D01*
G75*
G02*
X79179000Y-106352000I0J-150000D01*
G01*
X79179000Y-106652000D01*
G75*
G02*
X79029000Y-106802000I-150000J0D01*
G01*
X77279000Y-106802000D01*
G75*
G02*
X77129000Y-106652000I0J150000D01*
G01*
G37*
%TD.AperFunction*%
%TA.AperFunction,SMDPad,CuDef*%
G36*
G01*
X77129000Y-107922000D02*
X77129000Y-107622000D01*
G75*
G02*
X77279000Y-107472000I150000J0D01*
G01*
X79029000Y-107472000D01*
G75*
G02*
X79179000Y-107622000I0J-150000D01*
G01*
X79179000Y-107922000D01*
G75*
G02*
X79029000Y-108072000I-150000J0D01*
G01*
X77279000Y-108072000D01*
G75*
G02*
X77129000Y-107922000I0J150000D01*
G01*
G37*
%TD.AperFunction*%
%TA.AperFunction,SMDPad,CuDef*%
G36*
G01*
X64839000Y-107922000D02*
X64839000Y-107622000D01*
G75*
G02*
X64989000Y-107472000I150000J0D01*
G01*
X66739000Y-107472000D01*
G75*
G02*
X66889000Y-107622000I0J-150000D01*
G01*
X66889000Y-107922000D01*
G75*
G02*
X66739000Y-108072000I-150000J0D01*
G01*
X64989000Y-108072000D01*
G75*
G02*
X64839000Y-107922000I0J150000D01*
G01*
G37*
%TD.AperFunction*%
%TA.AperFunction,SMDPad,CuDef*%
G36*
G01*
X64839000Y-106652000D02*
X64839000Y-106352000D01*
G75*
G02*
X64989000Y-106202000I150000J0D01*
G01*
X66739000Y-106202000D01*
G75*
G02*
X66889000Y-106352000I0J-150000D01*
G01*
X66889000Y-106652000D01*
G75*
G02*
X66739000Y-106802000I-150000J0D01*
G01*
X64989000Y-106802000D01*
G75*
G02*
X64839000Y-106652000I0J150000D01*
G01*
G37*
%TD.AperFunction*%
%TA.AperFunction,SMDPad,CuDef*%
G36*
G01*
X64839000Y-105382000D02*
X64839000Y-105082000D01*
G75*
G02*
X64989000Y-104932000I150000J0D01*
G01*
X66739000Y-104932000D01*
G75*
G02*
X66889000Y-105082000I0J-150000D01*
G01*
X66889000Y-105382000D01*
G75*
G02*
X66739000Y-105532000I-150000J0D01*
G01*
X64989000Y-105532000D01*
G75*
G02*
X64839000Y-105382000I0J150000D01*
G01*
G37*
%TD.AperFunction*%
%TA.AperFunction,SMDPad,CuDef*%
G36*
G01*
X64839000Y-104112000D02*
X64839000Y-103812000D01*
G75*
G02*
X64989000Y-103662000I150000J0D01*
G01*
X66739000Y-103662000D01*
G75*
G02*
X66889000Y-103812000I0J-150000D01*
G01*
X66889000Y-104112000D01*
G75*
G02*
X66739000Y-104262000I-150000J0D01*
G01*
X64989000Y-104262000D01*
G75*
G02*
X64839000Y-104112000I0J150000D01*
G01*
G37*
%TD.AperFunction*%
%TA.AperFunction,SMDPad,CuDef*%
G36*
G01*
X64839000Y-102842000D02*
X64839000Y-102542000D01*
G75*
G02*
X64989000Y-102392000I150000J0D01*
G01*
X66739000Y-102392000D01*
G75*
G02*
X66889000Y-102542000I0J-150000D01*
G01*
X66889000Y-102842000D01*
G75*
G02*
X66739000Y-102992000I-150000J0D01*
G01*
X64989000Y-102992000D01*
G75*
G02*
X64839000Y-102842000I0J150000D01*
G01*
G37*
%TD.AperFunction*%
%TA.AperFunction,SMDPad,CuDef*%
G36*
G01*
X64839000Y-101572000D02*
X64839000Y-101272000D01*
G75*
G02*
X64989000Y-101122000I150000J0D01*
G01*
X66739000Y-101122000D01*
G75*
G02*
X66889000Y-101272000I0J-150000D01*
G01*
X66889000Y-101572000D01*
G75*
G02*
X66739000Y-101722000I-150000J0D01*
G01*
X64989000Y-101722000D01*
G75*
G02*
X64839000Y-101572000I0J150000D01*
G01*
G37*
%TD.AperFunction*%
%TA.AperFunction,SMDPad,CuDef*%
G36*
G01*
X64839000Y-100302000D02*
X64839000Y-100002000D01*
G75*
G02*
X64989000Y-99852000I150000J0D01*
G01*
X66739000Y-99852000D01*
G75*
G02*
X66889000Y-100002000I0J-150000D01*
G01*
X66889000Y-100302000D01*
G75*
G02*
X66739000Y-100452000I-150000J0D01*
G01*
X64989000Y-100452000D01*
G75*
G02*
X64839000Y-100302000I0J150000D01*
G01*
G37*
%TD.AperFunction*%
%TA.AperFunction,SMDPad,CuDef*%
G36*
G01*
X64839000Y-99032000D02*
X64839000Y-98732000D01*
G75*
G02*
X64989000Y-98582000I150000J0D01*
G01*
X66739000Y-98582000D01*
G75*
G02*
X66889000Y-98732000I0J-150000D01*
G01*
X66889000Y-99032000D01*
G75*
G02*
X66739000Y-99182000I-150000J0D01*
G01*
X64989000Y-99182000D01*
G75*
G02*
X64839000Y-99032000I0J150000D01*
G01*
G37*
%TD.AperFunction*%
%TA.AperFunction,SMDPad,CuDef*%
G36*
G01*
X64839000Y-97762000D02*
X64839000Y-97462000D01*
G75*
G02*
X64989000Y-97312000I150000J0D01*
G01*
X66739000Y-97312000D01*
G75*
G02*
X66889000Y-97462000I0J-150000D01*
G01*
X66889000Y-97762000D01*
G75*
G02*
X66739000Y-97912000I-150000J0D01*
G01*
X64989000Y-97912000D01*
G75*
G02*
X64839000Y-97762000I0J150000D01*
G01*
G37*
%TD.AperFunction*%
%TA.AperFunction,SMDPad,CuDef*%
G36*
G01*
X64839000Y-96492000D02*
X64839000Y-96192000D01*
G75*
G02*
X64989000Y-96042000I150000J0D01*
G01*
X66739000Y-96042000D01*
G75*
G02*
X66889000Y-96192000I0J-150000D01*
G01*
X66889000Y-96492000D01*
G75*
G02*
X66739000Y-96642000I-150000J0D01*
G01*
X64989000Y-96642000D01*
G75*
G02*
X64839000Y-96492000I0J150000D01*
G01*
G37*
%TD.AperFunction*%
%TA.AperFunction,SMDPad,CuDef*%
G36*
G01*
X64839000Y-95222000D02*
X64839000Y-94922000D01*
G75*
G02*
X64989000Y-94772000I150000J0D01*
G01*
X66739000Y-94772000D01*
G75*
G02*
X66889000Y-94922000I0J-150000D01*
G01*
X66889000Y-95222000D01*
G75*
G02*
X66739000Y-95372000I-150000J0D01*
G01*
X64989000Y-95372000D01*
G75*
G02*
X64839000Y-95222000I0J150000D01*
G01*
G37*
%TD.AperFunction*%
%TA.AperFunction,SMDPad,CuDef*%
G36*
G01*
X64839000Y-93952000D02*
X64839000Y-93652000D01*
G75*
G02*
X64989000Y-93502000I150000J0D01*
G01*
X66739000Y-93502000D01*
G75*
G02*
X66889000Y-93652000I0J-150000D01*
G01*
X66889000Y-93952000D01*
G75*
G02*
X66739000Y-94102000I-150000J0D01*
G01*
X64989000Y-94102000D01*
G75*
G02*
X64839000Y-93952000I0J150000D01*
G01*
G37*
%TD.AperFunction*%
%TA.AperFunction,SMDPad,CuDef*%
G36*
G01*
X64839000Y-92682000D02*
X64839000Y-92382000D01*
G75*
G02*
X64989000Y-92232000I150000J0D01*
G01*
X66739000Y-92232000D01*
G75*
G02*
X66889000Y-92382000I0J-150000D01*
G01*
X66889000Y-92682000D01*
G75*
G02*
X66739000Y-92832000I-150000J0D01*
G01*
X64989000Y-92832000D01*
G75*
G02*
X64839000Y-92682000I0J150000D01*
G01*
G37*
%TD.AperFunction*%
%TA.AperFunction,SMDPad,CuDef*%
G36*
G01*
X64839000Y-91412000D02*
X64839000Y-91112000D01*
G75*
G02*
X64989000Y-90962000I150000J0D01*
G01*
X66739000Y-90962000D01*
G75*
G02*
X66889000Y-91112000I0J-150000D01*
G01*
X66889000Y-91412000D01*
G75*
G02*
X66739000Y-91562000I-150000J0D01*
G01*
X64989000Y-91562000D01*
G75*
G02*
X64839000Y-91412000I0J150000D01*
G01*
G37*
%TD.AperFunction*%
%TA.AperFunction,SMDPad,CuDef*%
G36*
G01*
X55539000Y-91412000D02*
X55539000Y-91112000D01*
G75*
G02*
X55689000Y-90962000I150000J0D01*
G01*
X57439000Y-90962000D01*
G75*
G02*
X57589000Y-91112000I0J-150000D01*
G01*
X57589000Y-91412000D01*
G75*
G02*
X57439000Y-91562000I-150000J0D01*
G01*
X55689000Y-91562000D01*
G75*
G02*
X55539000Y-91412000I0J150000D01*
G01*
G37*
%TD.AperFunction*%
%TA.AperFunction,SMDPad,CuDef*%
G36*
G01*
X55539000Y-92682000D02*
X55539000Y-92382000D01*
G75*
G02*
X55689000Y-92232000I150000J0D01*
G01*
X57439000Y-92232000D01*
G75*
G02*
X57589000Y-92382000I0J-150000D01*
G01*
X57589000Y-92682000D01*
G75*
G02*
X57439000Y-92832000I-150000J0D01*
G01*
X55689000Y-92832000D01*
G75*
G02*
X55539000Y-92682000I0J150000D01*
G01*
G37*
%TD.AperFunction*%
%TA.AperFunction,SMDPad,CuDef*%
G36*
G01*
X55539000Y-93952000D02*
X55539000Y-93652000D01*
G75*
G02*
X55689000Y-93502000I150000J0D01*
G01*
X57439000Y-93502000D01*
G75*
G02*
X57589000Y-93652000I0J-150000D01*
G01*
X57589000Y-93952000D01*
G75*
G02*
X57439000Y-94102000I-150000J0D01*
G01*
X55689000Y-94102000D01*
G75*
G02*
X55539000Y-93952000I0J150000D01*
G01*
G37*
%TD.AperFunction*%
%TA.AperFunction,SMDPad,CuDef*%
G36*
G01*
X55539000Y-95222000D02*
X55539000Y-94922000D01*
G75*
G02*
X55689000Y-94772000I150000J0D01*
G01*
X57439000Y-94772000D01*
G75*
G02*
X57589000Y-94922000I0J-150000D01*
G01*
X57589000Y-95222000D01*
G75*
G02*
X57439000Y-95372000I-150000J0D01*
G01*
X55689000Y-95372000D01*
G75*
G02*
X55539000Y-95222000I0J150000D01*
G01*
G37*
%TD.AperFunction*%
%TA.AperFunction,SMDPad,CuDef*%
G36*
G01*
X55539000Y-96492000D02*
X55539000Y-96192000D01*
G75*
G02*
X55689000Y-96042000I150000J0D01*
G01*
X57439000Y-96042000D01*
G75*
G02*
X57589000Y-96192000I0J-150000D01*
G01*
X57589000Y-96492000D01*
G75*
G02*
X57439000Y-96642000I-150000J0D01*
G01*
X55689000Y-96642000D01*
G75*
G02*
X55539000Y-96492000I0J150000D01*
G01*
G37*
%TD.AperFunction*%
%TA.AperFunction,SMDPad,CuDef*%
G36*
G01*
X55539000Y-97762000D02*
X55539000Y-97462000D01*
G75*
G02*
X55689000Y-97312000I150000J0D01*
G01*
X57439000Y-97312000D01*
G75*
G02*
X57589000Y-97462000I0J-150000D01*
G01*
X57589000Y-97762000D01*
G75*
G02*
X57439000Y-97912000I-150000J0D01*
G01*
X55689000Y-97912000D01*
G75*
G02*
X55539000Y-97762000I0J150000D01*
G01*
G37*
%TD.AperFunction*%
%TA.AperFunction,SMDPad,CuDef*%
G36*
G01*
X55539000Y-99032000D02*
X55539000Y-98732000D01*
G75*
G02*
X55689000Y-98582000I150000J0D01*
G01*
X57439000Y-98582000D01*
G75*
G02*
X57589000Y-98732000I0J-150000D01*
G01*
X57589000Y-99032000D01*
G75*
G02*
X57439000Y-99182000I-150000J0D01*
G01*
X55689000Y-99182000D01*
G75*
G02*
X55539000Y-99032000I0J150000D01*
G01*
G37*
%TD.AperFunction*%
%TA.AperFunction,SMDPad,CuDef*%
G36*
G01*
X55539000Y-100302000D02*
X55539000Y-100002000D01*
G75*
G02*
X55689000Y-99852000I150000J0D01*
G01*
X57439000Y-99852000D01*
G75*
G02*
X57589000Y-100002000I0J-150000D01*
G01*
X57589000Y-100302000D01*
G75*
G02*
X57439000Y-100452000I-150000J0D01*
G01*
X55689000Y-100452000D01*
G75*
G02*
X55539000Y-100302000I0J150000D01*
G01*
G37*
%TD.AperFunction*%
%TA.AperFunction,SMDPad,CuDef*%
G36*
G01*
X55539000Y-101572000D02*
X55539000Y-101272000D01*
G75*
G02*
X55689000Y-101122000I150000J0D01*
G01*
X57439000Y-101122000D01*
G75*
G02*
X57589000Y-101272000I0J-150000D01*
G01*
X57589000Y-101572000D01*
G75*
G02*
X57439000Y-101722000I-150000J0D01*
G01*
X55689000Y-101722000D01*
G75*
G02*
X55539000Y-101572000I0J150000D01*
G01*
G37*
%TD.AperFunction*%
%TA.AperFunction,SMDPad,CuDef*%
G36*
G01*
X55539000Y-102842000D02*
X55539000Y-102542000D01*
G75*
G02*
X55689000Y-102392000I150000J0D01*
G01*
X57439000Y-102392000D01*
G75*
G02*
X57589000Y-102542000I0J-150000D01*
G01*
X57589000Y-102842000D01*
G75*
G02*
X57439000Y-102992000I-150000J0D01*
G01*
X55689000Y-102992000D01*
G75*
G02*
X55539000Y-102842000I0J150000D01*
G01*
G37*
%TD.AperFunction*%
%TA.AperFunction,SMDPad,CuDef*%
G36*
G01*
X55539000Y-104112000D02*
X55539000Y-103812000D01*
G75*
G02*
X55689000Y-103662000I150000J0D01*
G01*
X57439000Y-103662000D01*
G75*
G02*
X57589000Y-103812000I0J-150000D01*
G01*
X57589000Y-104112000D01*
G75*
G02*
X57439000Y-104262000I-150000J0D01*
G01*
X55689000Y-104262000D01*
G75*
G02*
X55539000Y-104112000I0J150000D01*
G01*
G37*
%TD.AperFunction*%
%TA.AperFunction,SMDPad,CuDef*%
G36*
G01*
X55539000Y-105382000D02*
X55539000Y-105082000D01*
G75*
G02*
X55689000Y-104932000I150000J0D01*
G01*
X57439000Y-104932000D01*
G75*
G02*
X57589000Y-105082000I0J-150000D01*
G01*
X57589000Y-105382000D01*
G75*
G02*
X57439000Y-105532000I-150000J0D01*
G01*
X55689000Y-105532000D01*
G75*
G02*
X55539000Y-105382000I0J150000D01*
G01*
G37*
%TD.AperFunction*%
%TA.AperFunction,SMDPad,CuDef*%
G36*
G01*
X55539000Y-106652000D02*
X55539000Y-106352000D01*
G75*
G02*
X55689000Y-106202000I150000J0D01*
G01*
X57439000Y-106202000D01*
G75*
G02*
X57589000Y-106352000I0J-150000D01*
G01*
X57589000Y-106652000D01*
G75*
G02*
X57439000Y-106802000I-150000J0D01*
G01*
X55689000Y-106802000D01*
G75*
G02*
X55539000Y-106652000I0J150000D01*
G01*
G37*
%TD.AperFunction*%
%TA.AperFunction,SMDPad,CuDef*%
G36*
G01*
X55539000Y-107922000D02*
X55539000Y-107622000D01*
G75*
G02*
X55689000Y-107472000I150000J0D01*
G01*
X57439000Y-107472000D01*
G75*
G02*
X57589000Y-107622000I0J-150000D01*
G01*
X57589000Y-107922000D01*
G75*
G02*
X57439000Y-108072000I-150000J0D01*
G01*
X55689000Y-108072000D01*
G75*
G02*
X55539000Y-107922000I0J150000D01*
G01*
G37*
%TD.AperFunction*%
D13*
X42824400Y-37033200D03*
X49324400Y-37033200D03*
X42824400Y-32533200D03*
X49324400Y-32533200D03*
D12*
X55259000Y-192538000D03*
X55259000Y-186738000D03*
X58259000Y-191888000D03*
X52159000Y-191888000D03*
X58259000Y-187388000D03*
X52159000Y-187388000D03*
X55361000Y-179482000D03*
X55361000Y-173682000D03*
X58361000Y-178832000D03*
X52261000Y-178832000D03*
X58361000Y-174332000D03*
X52261000Y-174332000D03*
X73319000Y-192563000D03*
X73319000Y-186763000D03*
X76319000Y-191913000D03*
X70219000Y-191913000D03*
X76319000Y-187413000D03*
X70219000Y-187413000D03*
X73243000Y-179508000D03*
X73243000Y-173708000D03*
X76243000Y-178858000D03*
X70143000Y-178858000D03*
X76243000Y-174358000D03*
X70143000Y-174358000D03*
X157342000Y-239757000D03*
X157342000Y-233957000D03*
X160342000Y-239107000D03*
X154242000Y-239107000D03*
X160342000Y-234607000D03*
X154242000Y-234607000D03*
X142305000Y-239757000D03*
X142305000Y-233957000D03*
X145305000Y-239107000D03*
X139205000Y-239107000D03*
X145305000Y-234607000D03*
X139205000Y-234607000D03*
X127294000Y-239782000D03*
X127294000Y-233982000D03*
X130294000Y-239132000D03*
X124194000Y-239132000D03*
X130294000Y-234632000D03*
X124194000Y-234632000D03*
X112333000Y-239782000D03*
X112333000Y-233982000D03*
X115333000Y-239132000D03*
X109233000Y-239132000D03*
X115333000Y-234632000D03*
X109233000Y-234632000D03*
X97271000Y-239782000D03*
X97271000Y-233982000D03*
X100271000Y-239132000D03*
X94171000Y-239132000D03*
X100271000Y-234632000D03*
X94171000Y-234632000D03*
X157266000Y-225787000D03*
X157266000Y-219987000D03*
X160266000Y-225137000D03*
X154166000Y-225137000D03*
X160266000Y-220637000D03*
X154166000Y-220637000D03*
X142178000Y-225761000D03*
X142178000Y-219961000D03*
X145178000Y-225111000D03*
X139078000Y-225111000D03*
X145178000Y-220611000D03*
X139078000Y-220611000D03*
X127294000Y-225787000D03*
X127294000Y-219987000D03*
X130294000Y-225137000D03*
X124194000Y-225137000D03*
X130294000Y-220637000D03*
X124194000Y-220637000D03*
X112206000Y-225787000D03*
X112206000Y-219987000D03*
X115206000Y-225137000D03*
X109106000Y-225137000D03*
X115206000Y-220637000D03*
X109106000Y-220637000D03*
X97169000Y-225761000D03*
X97169000Y-219961000D03*
X100169000Y-225111000D03*
X94069000Y-225111000D03*
X100169000Y-220611000D03*
X94069000Y-220611000D03*
X157367000Y-211766000D03*
X157367000Y-205966000D03*
X160367000Y-211116000D03*
X154267000Y-211116000D03*
X160367000Y-206616000D03*
X154267000Y-206616000D03*
X142153000Y-211740000D03*
X142153000Y-205940000D03*
X145153000Y-211090000D03*
X139053000Y-211090000D03*
X145153000Y-206590000D03*
X139053000Y-206590000D03*
X127294000Y-211740000D03*
X127294000Y-205940000D03*
X130294000Y-211090000D03*
X124194000Y-211090000D03*
X130294000Y-206590000D03*
X124194000Y-206590000D03*
X112206000Y-211715000D03*
X112206000Y-205915000D03*
X115206000Y-211065000D03*
X109106000Y-211065000D03*
X115206000Y-206565000D03*
X109106000Y-206565000D03*
X97093000Y-211715000D03*
X97093000Y-205915000D03*
X100093000Y-211065000D03*
X93993000Y-211065000D03*
X100093000Y-206565000D03*
X93993000Y-206565000D03*
X157240000Y-197720000D03*
X157240000Y-191920000D03*
X160240000Y-197070000D03*
X154140000Y-197070000D03*
X160240000Y-192570000D03*
X154140000Y-192570000D03*
X142204000Y-197770000D03*
X142204000Y-191970000D03*
X145204000Y-197120000D03*
X139104000Y-197120000D03*
X145204000Y-192620000D03*
X139104000Y-192620000D03*
X127268000Y-197745000D03*
X127268000Y-191945000D03*
X130268000Y-197095000D03*
X124168000Y-197095000D03*
X130268000Y-192595000D03*
X124168000Y-192595000D03*
X112308000Y-197745000D03*
X112308000Y-191945000D03*
X115308000Y-197095000D03*
X109208000Y-197095000D03*
X115308000Y-192595000D03*
X109208000Y-192595000D03*
X97195000Y-197745000D03*
X97195000Y-191945000D03*
X100195000Y-197095000D03*
X94095000Y-197095000D03*
X100195000Y-192595000D03*
X94095000Y-192595000D03*
X157240000Y-183750000D03*
X157240000Y-177950000D03*
X160240000Y-183100000D03*
X154140000Y-183100000D03*
X160240000Y-178600000D03*
X154140000Y-178600000D03*
X142280000Y-183750000D03*
X142280000Y-177950000D03*
X145280000Y-183100000D03*
X139180000Y-183100000D03*
X145280000Y-178600000D03*
X139180000Y-178600000D03*
X127345000Y-183750000D03*
X127345000Y-177950000D03*
X130345000Y-183100000D03*
X124245000Y-183100000D03*
X130345000Y-178600000D03*
X124245000Y-178600000D03*
X112308000Y-183775000D03*
X112308000Y-177975000D03*
X115308000Y-183125000D03*
X109208000Y-183125000D03*
X115308000Y-178625000D03*
X109208000Y-178625000D03*
X97169000Y-183775000D03*
X97169000Y-177975000D03*
X100169000Y-183125000D03*
X94069000Y-183125000D03*
X100169000Y-178625000D03*
X94069000Y-178625000D03*
X157266000Y-169780000D03*
X157266000Y-163980000D03*
X160266000Y-169130000D03*
X154166000Y-169130000D03*
X160266000Y-164630000D03*
X154166000Y-164630000D03*
X142305000Y-169780000D03*
X142305000Y-163980000D03*
X145305000Y-169130000D03*
X139205000Y-169130000D03*
X145305000Y-164630000D03*
X139205000Y-164630000D03*
X127345000Y-169754000D03*
X127345000Y-163954000D03*
X130345000Y-169104000D03*
X124245000Y-169104000D03*
X130345000Y-164604000D03*
X124245000Y-164604000D03*
X112257000Y-169754000D03*
X112257000Y-163954000D03*
X115257000Y-169104000D03*
X109157000Y-169104000D03*
X115257000Y-164604000D03*
X109157000Y-164604000D03*
X97246000Y-169729000D03*
X97246000Y-163929000D03*
X100246000Y-169079000D03*
X94146000Y-169079000D03*
X100246000Y-164579000D03*
X94146000Y-164579000D03*
X81218000Y-240696000D03*
X81218000Y-234896000D03*
X84218000Y-240046000D03*
X78118000Y-240046000D03*
X84218000Y-235546000D03*
X78118000Y-235546000D03*
X66192000Y-240750000D03*
X66192000Y-234950000D03*
X69192000Y-240100000D03*
X63092000Y-240100000D03*
X69192000Y-235600000D03*
X63092000Y-235600000D03*
X51232000Y-240750000D03*
X51232000Y-234950000D03*
X54232000Y-240100000D03*
X48132000Y-240100000D03*
X54232000Y-235600000D03*
X48132000Y-235600000D03*
X81218000Y-228784000D03*
X81218000Y-222984000D03*
X84218000Y-228134000D03*
X78118000Y-228134000D03*
X84218000Y-223634000D03*
X78118000Y-223634000D03*
X66181000Y-228758000D03*
X66181000Y-222958000D03*
X69181000Y-228108000D03*
X63081000Y-228108000D03*
X69181000Y-223608000D03*
X63081000Y-223608000D03*
X51246000Y-228733000D03*
X51246000Y-222933000D03*
X54246000Y-228083000D03*
X48146000Y-228083000D03*
X54246000Y-223583000D03*
X48146000Y-223583000D03*
X81244000Y-216744000D03*
X81244000Y-210944000D03*
X84244000Y-216094000D03*
X78144000Y-216094000D03*
X84244000Y-211594000D03*
X78144000Y-211594000D03*
X66181000Y-216744000D03*
X66181000Y-210944000D03*
X69181000Y-216094000D03*
X63081000Y-216094000D03*
X69181000Y-211594000D03*
X63081000Y-211594000D03*
X51246000Y-216719000D03*
X51246000Y-210919000D03*
X54246000Y-216069000D03*
X48146000Y-216069000D03*
X54246000Y-211569000D03*
X48146000Y-211569000D03*
X81193000Y-204730000D03*
X81193000Y-198930000D03*
X84193000Y-204080000D03*
X78093000Y-204080000D03*
X84193000Y-199580000D03*
X78093000Y-199580000D03*
X66232000Y-204755000D03*
X66232000Y-198955000D03*
X69232000Y-204105000D03*
X63132000Y-204105000D03*
X69232000Y-199605000D03*
X63132000Y-199605000D03*
X55285000Y-166478000D03*
X55285000Y-160678000D03*
X58285000Y-165828000D03*
X52185000Y-165828000D03*
X58285000Y-161328000D03*
X52185000Y-161328000D03*
X145429000Y-153574000D03*
X145429000Y-147774000D03*
X148429000Y-152924000D03*
X142329000Y-152924000D03*
X148429000Y-148424000D03*
X142329000Y-148424000D03*
X127294000Y-153574000D03*
X127294000Y-147774000D03*
X130294000Y-152924000D03*
X124194000Y-152924000D03*
X130294000Y-148424000D03*
X124194000Y-148424000D03*
X109412000Y-153574000D03*
X109412000Y-147774000D03*
X112412000Y-152924000D03*
X106312000Y-152924000D03*
X112412000Y-148424000D03*
X106312000Y-148424000D03*
X91429000Y-153574000D03*
X91429000Y-147774000D03*
X94429000Y-152924000D03*
X88329000Y-152924000D03*
X94429000Y-148424000D03*
X88329000Y-148424000D03*
X73395000Y-153549000D03*
X73395000Y-147749000D03*
X76395000Y-152899000D03*
X70295000Y-152899000D03*
X76395000Y-148399000D03*
X70295000Y-148399000D03*
X55310000Y-153549000D03*
X55310000Y-147749000D03*
X58310000Y-152899000D03*
X52210000Y-152899000D03*
X58310000Y-148399000D03*
X52210000Y-148399000D03*
X109387000Y-140595000D03*
X109387000Y-134795000D03*
X112387000Y-139945000D03*
X106287000Y-139945000D03*
X112387000Y-135445000D03*
X106287000Y-135445000D03*
X91429000Y-140620000D03*
X91429000Y-134820000D03*
X94429000Y-139970000D03*
X88329000Y-139970000D03*
X94429000Y-135470000D03*
X88329000Y-135470000D03*
X73319000Y-140620000D03*
X73319000Y-134820000D03*
X76319000Y-139970000D03*
X70219000Y-139970000D03*
X76319000Y-135470000D03*
X70219000Y-135470000D03*
X55234000Y-140620000D03*
X55234000Y-134820000D03*
X58234000Y-139970000D03*
X52134000Y-139970000D03*
X58234000Y-135470000D03*
X52134000Y-135470000D03*
X171261000Y-114154000D03*
X171261000Y-108354000D03*
X174261000Y-113504000D03*
X168161000Y-113504000D03*
X174261000Y-109004000D03*
X168161000Y-109004000D03*
X171414000Y-103688800D03*
X171414000Y-97888800D03*
X174414000Y-103038800D03*
X168314000Y-103038800D03*
X174414000Y-98538800D03*
X168314000Y-98538800D03*
X171261000Y-93173200D03*
X171261000Y-87373200D03*
X174261000Y-92523200D03*
X168161000Y-92523200D03*
X174261000Y-88023200D03*
X168161000Y-88023200D03*
X171276000Y-82657600D03*
X171276000Y-76857600D03*
X174276000Y-82007600D03*
X168176000Y-82007600D03*
X174276000Y-77507600D03*
X168176000Y-77507600D03*
X171312000Y-72142000D03*
X171312000Y-66342000D03*
X174312000Y-71492000D03*
X168212000Y-71492000D03*
X174312000Y-66992000D03*
X168212000Y-66992000D03*
X171312000Y-61677200D03*
X171312000Y-55877200D03*
X174312000Y-61027200D03*
X168212000Y-61027200D03*
X174312000Y-56527200D03*
X168212000Y-56527200D03*
X39130400Y-114154000D03*
X39130400Y-108354000D03*
X42130400Y-113504000D03*
X36030400Y-113504000D03*
X42130400Y-109004000D03*
X36030400Y-109004000D03*
X39120200Y-103688800D03*
X39120200Y-97888800D03*
X42120200Y-103038800D03*
X36020200Y-103038800D03*
X42120200Y-98538800D03*
X36020200Y-98538800D03*
X39181200Y-93173200D03*
X39181200Y-87373200D03*
X42181200Y-92523200D03*
X36081200Y-92523200D03*
X42181200Y-88023200D03*
X36081200Y-88023200D03*
X39232000Y-72142000D03*
X39232000Y-66342000D03*
X42232000Y-71492000D03*
X36132000Y-71492000D03*
X42232000Y-66992000D03*
X36132000Y-66992000D03*
X39130400Y-61626400D03*
X39130400Y-55826400D03*
X42130400Y-60976400D03*
X36030400Y-60976400D03*
X42130400Y-56476400D03*
X36030400Y-56476400D03*
%TA.AperFunction,SMDPad,CuDef*%
G36*
G01*
X43633999Y-206208000D02*
X44884001Y-206208000D01*
G75*
G02*
X45134000Y-206457999I0J-249999D01*
G01*
X45134000Y-207258001D01*
G75*
G02*
X44884001Y-207508000I-249999J0D01*
G01*
X43633999Y-207508000D01*
G75*
G02*
X43384000Y-207258001I0J249999D01*
G01*
X43384000Y-206457999D01*
G75*
G02*
X43633999Y-206208000I249999J0D01*
G01*
G37*
%TD.AperFunction*%
%TA.AperFunction,SMDPad,CuDef*%
G36*
G01*
X43633999Y-203108000D02*
X44884001Y-203108000D01*
G75*
G02*
X45134000Y-203357999I0J-249999D01*
G01*
X45134000Y-204158001D01*
G75*
G02*
X44884001Y-204408000I-249999J0D01*
G01*
X43633999Y-204408000D01*
G75*
G02*
X43384000Y-204158001I0J249999D01*
G01*
X43384000Y-203357999D01*
G75*
G02*
X43633999Y-203108000I249999J0D01*
G01*
G37*
%TD.AperFunction*%
%TA.AperFunction,SMDPad,CuDef*%
G36*
G01*
X164391000Y-188426999D02*
X164391000Y-189677001D01*
G75*
G02*
X164141001Y-189927000I-249999J0D01*
G01*
X163340999Y-189927000D01*
G75*
G02*
X163091000Y-189677001I0J249999D01*
G01*
X163091000Y-188426999D01*
G75*
G02*
X163340999Y-188177000I249999J0D01*
G01*
X164141001Y-188177000D01*
G75*
G02*
X164391000Y-188426999I0J-249999D01*
G01*
G37*
%TD.AperFunction*%
%TA.AperFunction,SMDPad,CuDef*%
G36*
G01*
X167491000Y-188426999D02*
X167491000Y-189677001D01*
G75*
G02*
X167241001Y-189927000I-249999J0D01*
G01*
X166440999Y-189927000D01*
G75*
G02*
X166191000Y-189677001I0J249999D01*
G01*
X166191000Y-188426999D01*
G75*
G02*
X166440999Y-188177000I249999J0D01*
G01*
X167241001Y-188177000D01*
G75*
G02*
X167491000Y-188426999I0J-249999D01*
G01*
G37*
%TD.AperFunction*%
%TA.AperFunction,SMDPad,CuDef*%
G36*
G01*
X43697999Y-188238000D02*
X44948001Y-188238000D01*
G75*
G02*
X45198000Y-188487999I0J-249999D01*
G01*
X45198000Y-189288001D01*
G75*
G02*
X44948001Y-189538000I-249999J0D01*
G01*
X43697999Y-189538000D01*
G75*
G02*
X43448000Y-189288001I0J249999D01*
G01*
X43448000Y-188487999D01*
G75*
G02*
X43697999Y-188238000I249999J0D01*
G01*
G37*
%TD.AperFunction*%
%TA.AperFunction,SMDPad,CuDef*%
G36*
G01*
X43697999Y-185138000D02*
X44948001Y-185138000D01*
G75*
G02*
X45198000Y-185387999I0J-249999D01*
G01*
X45198000Y-186188001D01*
G75*
G02*
X44948001Y-186438000I-249999J0D01*
G01*
X43697999Y-186438000D01*
G75*
G02*
X43448000Y-186188001I0J249999D01*
G01*
X43448000Y-185387999D01*
G75*
G02*
X43697999Y-185138000I249999J0D01*
G01*
G37*
%TD.AperFunction*%
%TA.AperFunction,SMDPad,CuDef*%
G36*
G01*
X105993000Y-34483201D02*
X105993000Y-33233199D01*
G75*
G02*
X106242999Y-32983200I249999J0D01*
G01*
X107043001Y-32983200D01*
G75*
G02*
X107293000Y-33233199I0J-249999D01*
G01*
X107293000Y-34483201D01*
G75*
G02*
X107043001Y-34733200I-249999J0D01*
G01*
X106242999Y-34733200D01*
G75*
G02*
X105993000Y-34483201I0J249999D01*
G01*
G37*
%TD.AperFunction*%
%TA.AperFunction,SMDPad,CuDef*%
G36*
G01*
X102893000Y-34483201D02*
X102893000Y-33233199D01*
G75*
G02*
X103142999Y-32983200I249999J0D01*
G01*
X103943001Y-32983200D01*
G75*
G02*
X104193000Y-33233199I0J-249999D01*
G01*
X104193000Y-34483201D01*
G75*
G02*
X103943001Y-34733200I-249999J0D01*
G01*
X103142999Y-34733200D01*
G75*
G02*
X102893000Y-34483201I0J249999D01*
G01*
G37*
%TD.AperFunction*%
%TA.AperFunction,SMDPad,CuDef*%
G36*
G01*
X91197000Y-34483201D02*
X91197000Y-33233199D01*
G75*
G02*
X91446999Y-32983200I249999J0D01*
G01*
X92247001Y-32983200D01*
G75*
G02*
X92497000Y-33233199I0J-249999D01*
G01*
X92497000Y-34483201D01*
G75*
G02*
X92247001Y-34733200I-249999J0D01*
G01*
X91446999Y-34733200D01*
G75*
G02*
X91197000Y-34483201I0J249999D01*
G01*
G37*
%TD.AperFunction*%
%TA.AperFunction,SMDPad,CuDef*%
G36*
G01*
X88097000Y-34483201D02*
X88097000Y-33233199D01*
G75*
G02*
X88346999Y-32983200I249999J0D01*
G01*
X89147001Y-32983200D01*
G75*
G02*
X89397000Y-33233199I0J-249999D01*
G01*
X89397000Y-34483201D01*
G75*
G02*
X89147001Y-34733200I-249999J0D01*
G01*
X88346999Y-34733200D01*
G75*
G02*
X88097000Y-34483201I0J249999D01*
G01*
G37*
%TD.AperFunction*%
%TA.AperFunction,SMDPad,CuDef*%
G36*
G01*
X136091000Y-34483201D02*
X136091000Y-33233199D01*
G75*
G02*
X136340999Y-32983200I249999J0D01*
G01*
X137141001Y-32983200D01*
G75*
G02*
X137391000Y-33233199I0J-249999D01*
G01*
X137391000Y-34483201D01*
G75*
G02*
X137141001Y-34733200I-249999J0D01*
G01*
X136340999Y-34733200D01*
G75*
G02*
X136091000Y-34483201I0J249999D01*
G01*
G37*
%TD.AperFunction*%
%TA.AperFunction,SMDPad,CuDef*%
G36*
G01*
X132991000Y-34483201D02*
X132991000Y-33233199D01*
G75*
G02*
X133240999Y-32983200I249999J0D01*
G01*
X134041001Y-32983200D01*
G75*
G02*
X134291000Y-33233199I0J-249999D01*
G01*
X134291000Y-34483201D01*
G75*
G02*
X134041001Y-34733200I-249999J0D01*
G01*
X133240999Y-34733200D01*
G75*
G02*
X132991000Y-34483201I0J249999D01*
G01*
G37*
%TD.AperFunction*%
%TA.AperFunction,SMDPad,CuDef*%
G36*
G01*
X75893000Y-34483201D02*
X75893000Y-33233199D01*
G75*
G02*
X76142999Y-32983200I249999J0D01*
G01*
X76943001Y-32983200D01*
G75*
G02*
X77193000Y-33233199I0J-249999D01*
G01*
X77193000Y-34483201D01*
G75*
G02*
X76943001Y-34733200I-249999J0D01*
G01*
X76142999Y-34733200D01*
G75*
G02*
X75893000Y-34483201I0J249999D01*
G01*
G37*
%TD.AperFunction*%
%TA.AperFunction,SMDPad,CuDef*%
G36*
G01*
X72793000Y-34483201D02*
X72793000Y-33233199D01*
G75*
G02*
X73042999Y-32983200I249999J0D01*
G01*
X73843001Y-32983200D01*
G75*
G02*
X74093000Y-33233199I0J-249999D01*
G01*
X74093000Y-34483201D01*
G75*
G02*
X73843001Y-34733200I-249999J0D01*
G01*
X73042999Y-34733200D01*
G75*
G02*
X72793000Y-34483201I0J249999D01*
G01*
G37*
%TD.AperFunction*%
%TA.AperFunction,SMDPad,CuDef*%
G36*
G01*
X65035000Y-190889001D02*
X65035000Y-188738999D01*
G75*
G02*
X65284999Y-188489000I249999J0D01*
G01*
X66085001Y-188489000D01*
G75*
G02*
X66335000Y-188738999I0J-249999D01*
G01*
X66335000Y-190889001D01*
G75*
G02*
X66085001Y-191139000I-249999J0D01*
G01*
X65284999Y-191139000D01*
G75*
G02*
X65035000Y-190889001I0J249999D01*
G01*
G37*
%TD.AperFunction*%
%TA.AperFunction,SMDPad,CuDef*%
G36*
G01*
X61935000Y-190889001D02*
X61935000Y-188738999D01*
G75*
G02*
X62184999Y-188489000I249999J0D01*
G01*
X62985001Y-188489000D01*
G75*
G02*
X63235000Y-188738999I0J-249999D01*
G01*
X63235000Y-190889001D01*
G75*
G02*
X62985001Y-191139000I-249999J0D01*
G01*
X62184999Y-191139000D01*
G75*
G02*
X61935000Y-190889001I0J249999D01*
G01*
G37*
%TD.AperFunction*%
%TA.AperFunction,SMDPad,CuDef*%
G36*
G01*
X65162000Y-177935001D02*
X65162000Y-175784999D01*
G75*
G02*
X65411999Y-175535000I249999J0D01*
G01*
X66212001Y-175535000D01*
G75*
G02*
X66462000Y-175784999I0J-249999D01*
G01*
X66462000Y-177935001D01*
G75*
G02*
X66212001Y-178185000I-249999J0D01*
G01*
X65411999Y-178185000D01*
G75*
G02*
X65162000Y-177935001I0J249999D01*
G01*
G37*
%TD.AperFunction*%
%TA.AperFunction,SMDPad,CuDef*%
G36*
G01*
X62062000Y-177935001D02*
X62062000Y-175784999D01*
G75*
G02*
X62311999Y-175535000I249999J0D01*
G01*
X63112001Y-175535000D01*
G75*
G02*
X63362000Y-175784999I0J-249999D01*
G01*
X63362000Y-177935001D01*
G75*
G02*
X63112001Y-178185000I-249999J0D01*
G01*
X62311999Y-178185000D01*
G75*
G02*
X62062000Y-177935001I0J249999D01*
G01*
G37*
%TD.AperFunction*%
%TA.AperFunction,SMDPad,CuDef*%
G36*
G01*
X166063000Y-237943001D02*
X166063000Y-235792999D01*
G75*
G02*
X166312999Y-235543000I249999J0D01*
G01*
X167113001Y-235543000D01*
G75*
G02*
X167363000Y-235792999I0J-249999D01*
G01*
X167363000Y-237943001D01*
G75*
G02*
X167113001Y-238193000I-249999J0D01*
G01*
X166312999Y-238193000D01*
G75*
G02*
X166063000Y-237943001I0J249999D01*
G01*
G37*
%TD.AperFunction*%
%TA.AperFunction,SMDPad,CuDef*%
G36*
G01*
X162963000Y-237943001D02*
X162963000Y-235792999D01*
G75*
G02*
X163212999Y-235543000I249999J0D01*
G01*
X164013001Y-235543000D01*
G75*
G02*
X164263000Y-235792999I0J-249999D01*
G01*
X164263000Y-237943001D01*
G75*
G02*
X164013001Y-238193000I-249999J0D01*
G01*
X163212999Y-238193000D01*
G75*
G02*
X162963000Y-237943001I0J249999D01*
G01*
G37*
%TD.AperFunction*%
%TA.AperFunction,SMDPad,CuDef*%
G36*
G01*
X120534000Y-238006001D02*
X120534000Y-235855999D01*
G75*
G02*
X120783999Y-235606000I249999J0D01*
G01*
X121584001Y-235606000D01*
G75*
G02*
X121834000Y-235855999I0J-249999D01*
G01*
X121834000Y-238006001D01*
G75*
G02*
X121584001Y-238256000I-249999J0D01*
G01*
X120783999Y-238256000D01*
G75*
G02*
X120534000Y-238006001I0J249999D01*
G01*
G37*
%TD.AperFunction*%
%TA.AperFunction,SMDPad,CuDef*%
G36*
G01*
X117434000Y-238006001D02*
X117434000Y-235855999D01*
G75*
G02*
X117683999Y-235606000I249999J0D01*
G01*
X118484001Y-235606000D01*
G75*
G02*
X118734000Y-235855999I0J-249999D01*
G01*
X118734000Y-238006001D01*
G75*
G02*
X118484001Y-238256000I-249999J0D01*
G01*
X117683999Y-238256000D01*
G75*
G02*
X117434000Y-238006001I0J249999D01*
G01*
G37*
%TD.AperFunction*%
%TA.AperFunction,SMDPad,CuDef*%
G36*
G01*
X150506000Y-223973001D02*
X150506000Y-221822999D01*
G75*
G02*
X150755999Y-221573000I249999J0D01*
G01*
X151556001Y-221573000D01*
G75*
G02*
X151806000Y-221822999I0J-249999D01*
G01*
X151806000Y-223973001D01*
G75*
G02*
X151556001Y-224223000I-249999J0D01*
G01*
X150755999Y-224223000D01*
G75*
G02*
X150506000Y-223973001I0J249999D01*
G01*
G37*
%TD.AperFunction*%
%TA.AperFunction,SMDPad,CuDef*%
G36*
G01*
X147406000Y-223973001D02*
X147406000Y-221822999D01*
G75*
G02*
X147655999Y-221573000I249999J0D01*
G01*
X148456001Y-221573000D01*
G75*
G02*
X148706000Y-221822999I0J-249999D01*
G01*
X148706000Y-223973001D01*
G75*
G02*
X148456001Y-224223000I-249999J0D01*
G01*
X147655999Y-224223000D01*
G75*
G02*
X147406000Y-223973001I0J249999D01*
G01*
G37*
%TD.AperFunction*%
%TA.AperFunction,SMDPad,CuDef*%
G36*
G01*
X105548000Y-223973001D02*
X105548000Y-221822999D01*
G75*
G02*
X105797999Y-221573000I249999J0D01*
G01*
X106598001Y-221573000D01*
G75*
G02*
X106848000Y-221822999I0J-249999D01*
G01*
X106848000Y-223973001D01*
G75*
G02*
X106598001Y-224223000I-249999J0D01*
G01*
X105797999Y-224223000D01*
G75*
G02*
X105548000Y-223973001I0J249999D01*
G01*
G37*
%TD.AperFunction*%
%TA.AperFunction,SMDPad,CuDef*%
G36*
G01*
X102448000Y-223973001D02*
X102448000Y-221822999D01*
G75*
G02*
X102697999Y-221573000I249999J0D01*
G01*
X103498001Y-221573000D01*
G75*
G02*
X103748000Y-221822999I0J-249999D01*
G01*
X103748000Y-223973001D01*
G75*
G02*
X103498001Y-224223000I-249999J0D01*
G01*
X102697999Y-224223000D01*
G75*
G02*
X102448000Y-223973001I0J249999D01*
G01*
G37*
%TD.AperFunction*%
%TA.AperFunction,SMDPad,CuDef*%
G36*
G01*
X135520000Y-209939001D02*
X135520000Y-207788999D01*
G75*
G02*
X135769999Y-207539000I249999J0D01*
G01*
X136570001Y-207539000D01*
G75*
G02*
X136820000Y-207788999I0J-249999D01*
G01*
X136820000Y-209939001D01*
G75*
G02*
X136570001Y-210189000I-249999J0D01*
G01*
X135769999Y-210189000D01*
G75*
G02*
X135520000Y-209939001I0J249999D01*
G01*
G37*
%TD.AperFunction*%
%TA.AperFunction,SMDPad,CuDef*%
G36*
G01*
X132420000Y-209939001D02*
X132420000Y-207788999D01*
G75*
G02*
X132669999Y-207539000I249999J0D01*
G01*
X133470001Y-207539000D01*
G75*
G02*
X133720000Y-207788999I0J-249999D01*
G01*
X133720000Y-209939001D01*
G75*
G02*
X133470001Y-210189000I-249999J0D01*
G01*
X132669999Y-210189000D01*
G75*
G02*
X132420000Y-209939001I0J249999D01*
G01*
G37*
%TD.AperFunction*%
%TA.AperFunction,SMDPad,CuDef*%
G36*
G01*
X165963000Y-195779001D02*
X165963000Y-193628999D01*
G75*
G02*
X166212999Y-193379000I249999J0D01*
G01*
X167013001Y-193379000D01*
G75*
G02*
X167263000Y-193628999I0J-249999D01*
G01*
X167263000Y-195779001D01*
G75*
G02*
X167013001Y-196029000I-249999J0D01*
G01*
X166212999Y-196029000D01*
G75*
G02*
X165963000Y-195779001I0J249999D01*
G01*
G37*
%TD.AperFunction*%
%TA.AperFunction,SMDPad,CuDef*%
G36*
G01*
X162863000Y-195779001D02*
X162863000Y-193628999D01*
G75*
G02*
X163112999Y-193379000I249999J0D01*
G01*
X163913001Y-193379000D01*
G75*
G02*
X164163000Y-193628999I0J-249999D01*
G01*
X164163000Y-195779001D01*
G75*
G02*
X163913001Y-196029000I-249999J0D01*
G01*
X163112999Y-196029000D01*
G75*
G02*
X162863000Y-195779001I0J249999D01*
G01*
G37*
%TD.AperFunction*%
%TA.AperFunction,SMDPad,CuDef*%
G36*
G01*
X120534000Y-196033001D02*
X120534000Y-193882999D01*
G75*
G02*
X120783999Y-193633000I249999J0D01*
G01*
X121584001Y-193633000D01*
G75*
G02*
X121834000Y-193882999I0J-249999D01*
G01*
X121834000Y-196033001D01*
G75*
G02*
X121584001Y-196283000I-249999J0D01*
G01*
X120783999Y-196283000D01*
G75*
G02*
X120534000Y-196033001I0J249999D01*
G01*
G37*
%TD.AperFunction*%
%TA.AperFunction,SMDPad,CuDef*%
G36*
G01*
X117434000Y-196033001D02*
X117434000Y-193882999D01*
G75*
G02*
X117683999Y-193633000I249999J0D01*
G01*
X118484001Y-193633000D01*
G75*
G02*
X118734000Y-193882999I0J-249999D01*
G01*
X118734000Y-196033001D01*
G75*
G02*
X118484001Y-196283000I-249999J0D01*
G01*
X117683999Y-196283000D01*
G75*
G02*
X117434000Y-196033001I0J249999D01*
G01*
G37*
%TD.AperFunction*%
%TA.AperFunction,SMDPad,CuDef*%
G36*
G01*
X150569000Y-181999001D02*
X150569000Y-179848999D01*
G75*
G02*
X150818999Y-179599000I249999J0D01*
G01*
X151619001Y-179599000D01*
G75*
G02*
X151869000Y-179848999I0J-249999D01*
G01*
X151869000Y-181999001D01*
G75*
G02*
X151619001Y-182249000I-249999J0D01*
G01*
X150818999Y-182249000D01*
G75*
G02*
X150569000Y-181999001I0J249999D01*
G01*
G37*
%TD.AperFunction*%
%TA.AperFunction,SMDPad,CuDef*%
G36*
G01*
X147469000Y-181999001D02*
X147469000Y-179848999D01*
G75*
G02*
X147718999Y-179599000I249999J0D01*
G01*
X148519001Y-179599000D01*
G75*
G02*
X148769000Y-179848999I0J-249999D01*
G01*
X148769000Y-181999001D01*
G75*
G02*
X148519001Y-182249000I-249999J0D01*
G01*
X147718999Y-182249000D01*
G75*
G02*
X147469000Y-181999001I0J249999D01*
G01*
G37*
%TD.AperFunction*%
%TA.AperFunction,SMDPad,CuDef*%
G36*
G01*
X105548000Y-181936001D02*
X105548000Y-179785999D01*
G75*
G02*
X105797999Y-179536000I249999J0D01*
G01*
X106598001Y-179536000D01*
G75*
G02*
X106848000Y-179785999I0J-249999D01*
G01*
X106848000Y-181936001D01*
G75*
G02*
X106598001Y-182186000I-249999J0D01*
G01*
X105797999Y-182186000D01*
G75*
G02*
X105548000Y-181936001I0J249999D01*
G01*
G37*
%TD.AperFunction*%
%TA.AperFunction,SMDPad,CuDef*%
G36*
G01*
X102448000Y-181936001D02*
X102448000Y-179785999D01*
G75*
G02*
X102697999Y-179536000I249999J0D01*
G01*
X103498001Y-179536000D01*
G75*
G02*
X103748000Y-179785999I0J-249999D01*
G01*
X103748000Y-181936001D01*
G75*
G02*
X103498001Y-182186000I-249999J0D01*
G01*
X102697999Y-182186000D01*
G75*
G02*
X102448000Y-181936001I0J249999D01*
G01*
G37*
%TD.AperFunction*%
%TA.AperFunction,SMDPad,CuDef*%
G36*
G01*
X135520000Y-167902001D02*
X135520000Y-165751999D01*
G75*
G02*
X135769999Y-165502000I249999J0D01*
G01*
X136570001Y-165502000D01*
G75*
G02*
X136820000Y-165751999I0J-249999D01*
G01*
X136820000Y-167902001D01*
G75*
G02*
X136570001Y-168152000I-249999J0D01*
G01*
X135769999Y-168152000D01*
G75*
G02*
X135520000Y-167902001I0J249999D01*
G01*
G37*
%TD.AperFunction*%
%TA.AperFunction,SMDPad,CuDef*%
G36*
G01*
X132420000Y-167902001D02*
X132420000Y-165751999D01*
G75*
G02*
X132669999Y-165502000I249999J0D01*
G01*
X133470001Y-165502000D01*
G75*
G02*
X133720000Y-165751999I0J-249999D01*
G01*
X133720000Y-167902001D01*
G75*
G02*
X133470001Y-168152000I-249999J0D01*
G01*
X132669999Y-168152000D01*
G75*
G02*
X132420000Y-167902001I0J249999D01*
G01*
G37*
%TD.AperFunction*%
%TA.AperFunction,SMDPad,CuDef*%
G36*
G01*
X89483000Y-238768001D02*
X89483000Y-236617999D01*
G75*
G02*
X89732999Y-236368000I249999J0D01*
G01*
X90533001Y-236368000D01*
G75*
G02*
X90783000Y-236617999I0J-249999D01*
G01*
X90783000Y-238768001D01*
G75*
G02*
X90533001Y-239018000I-249999J0D01*
G01*
X89732999Y-239018000D01*
G75*
G02*
X89483000Y-238768001I0J249999D01*
G01*
G37*
%TD.AperFunction*%
%TA.AperFunction,SMDPad,CuDef*%
G36*
G01*
X86383000Y-238768001D02*
X86383000Y-236617999D01*
G75*
G02*
X86632999Y-236368000I249999J0D01*
G01*
X87433001Y-236368000D01*
G75*
G02*
X87683000Y-236617999I0J-249999D01*
G01*
X87683000Y-238768001D01*
G75*
G02*
X87433001Y-239018000I-249999J0D01*
G01*
X86632999Y-239018000D01*
G75*
G02*
X86383000Y-238768001I0J249999D01*
G01*
G37*
%TD.AperFunction*%
%TA.AperFunction,SMDPad,CuDef*%
G36*
G01*
X89609000Y-227084001D02*
X89609000Y-224933999D01*
G75*
G02*
X89858999Y-224684000I249999J0D01*
G01*
X90659001Y-224684000D01*
G75*
G02*
X90909000Y-224933999I0J-249999D01*
G01*
X90909000Y-227084001D01*
G75*
G02*
X90659001Y-227334000I-249999J0D01*
G01*
X89858999Y-227334000D01*
G75*
G02*
X89609000Y-227084001I0J249999D01*
G01*
G37*
%TD.AperFunction*%
%TA.AperFunction,SMDPad,CuDef*%
G36*
G01*
X86509000Y-227084001D02*
X86509000Y-224933999D01*
G75*
G02*
X86758999Y-224684000I249999J0D01*
G01*
X87559001Y-224684000D01*
G75*
G02*
X87809000Y-224933999I0J-249999D01*
G01*
X87809000Y-227084001D01*
G75*
G02*
X87559001Y-227334000I-249999J0D01*
G01*
X86758999Y-227334000D01*
G75*
G02*
X86509000Y-227084001I0J249999D01*
G01*
G37*
%TD.AperFunction*%
%TA.AperFunction,SMDPad,CuDef*%
G36*
G01*
X89546000Y-214892001D02*
X89546000Y-212741999D01*
G75*
G02*
X89795999Y-212492000I249999J0D01*
G01*
X90596001Y-212492000D01*
G75*
G02*
X90846000Y-212741999I0J-249999D01*
G01*
X90846000Y-214892001D01*
G75*
G02*
X90596001Y-215142000I-249999J0D01*
G01*
X89795999Y-215142000D01*
G75*
G02*
X89546000Y-214892001I0J249999D01*
G01*
G37*
%TD.AperFunction*%
%TA.AperFunction,SMDPad,CuDef*%
G36*
G01*
X86446000Y-214892001D02*
X86446000Y-212741999D01*
G75*
G02*
X86695999Y-212492000I249999J0D01*
G01*
X87496001Y-212492000D01*
G75*
G02*
X87746000Y-212741999I0J-249999D01*
G01*
X87746000Y-214892001D01*
G75*
G02*
X87496001Y-215142000I-249999J0D01*
G01*
X86695999Y-215142000D01*
G75*
G02*
X86446000Y-214892001I0J249999D01*
G01*
G37*
%TD.AperFunction*%
%TA.AperFunction,SMDPad,CuDef*%
G36*
G01*
X89546000Y-202954001D02*
X89546000Y-200803999D01*
G75*
G02*
X89795999Y-200554000I249999J0D01*
G01*
X90596001Y-200554000D01*
G75*
G02*
X90846000Y-200803999I0J-249999D01*
G01*
X90846000Y-202954001D01*
G75*
G02*
X90596001Y-203204000I-249999J0D01*
G01*
X89795999Y-203204000D01*
G75*
G02*
X89546000Y-202954001I0J249999D01*
G01*
G37*
%TD.AperFunction*%
%TA.AperFunction,SMDPad,CuDef*%
G36*
G01*
X86446000Y-202954001D02*
X86446000Y-200803999D01*
G75*
G02*
X86695999Y-200554000I249999J0D01*
G01*
X87496001Y-200554000D01*
G75*
G02*
X87746000Y-200803999I0J-249999D01*
G01*
X87746000Y-202954001D01*
G75*
G02*
X87496001Y-203204000I-249999J0D01*
G01*
X86695999Y-203204000D01*
G75*
G02*
X86446000Y-202954001I0J249999D01*
G01*
G37*
%TD.AperFunction*%
%TA.AperFunction,SMDPad,CuDef*%
G36*
G01*
X65099000Y-164600001D02*
X65099000Y-162449999D01*
G75*
G02*
X65348999Y-162200000I249999J0D01*
G01*
X66149001Y-162200000D01*
G75*
G02*
X66399000Y-162449999I0J-249999D01*
G01*
X66399000Y-164600001D01*
G75*
G02*
X66149001Y-164850000I-249999J0D01*
G01*
X65348999Y-164850000D01*
G75*
G02*
X65099000Y-164600001I0J249999D01*
G01*
G37*
%TD.AperFunction*%
%TA.AperFunction,SMDPad,CuDef*%
G36*
G01*
X61999000Y-164600001D02*
X61999000Y-162449999D01*
G75*
G02*
X62248999Y-162200000I249999J0D01*
G01*
X63049001Y-162200000D01*
G75*
G02*
X63299000Y-162449999I0J-249999D01*
G01*
X63299000Y-164600001D01*
G75*
G02*
X63049001Y-164850000I-249999J0D01*
G01*
X62248999Y-164850000D01*
G75*
G02*
X61999000Y-164600001I0J249999D01*
G01*
G37*
%TD.AperFunction*%
%TA.AperFunction,SMDPad,CuDef*%
G36*
G01*
X119073000Y-151773001D02*
X119073000Y-149622999D01*
G75*
G02*
X119322999Y-149373000I249999J0D01*
G01*
X120123001Y-149373000D01*
G75*
G02*
X120373000Y-149622999I0J-249999D01*
G01*
X120373000Y-151773001D01*
G75*
G02*
X120123001Y-152023000I-249999J0D01*
G01*
X119322999Y-152023000D01*
G75*
G02*
X119073000Y-151773001I0J249999D01*
G01*
G37*
%TD.AperFunction*%
%TA.AperFunction,SMDPad,CuDef*%
G36*
G01*
X115973000Y-151773001D02*
X115973000Y-149622999D01*
G75*
G02*
X116222999Y-149373000I249999J0D01*
G01*
X117023001Y-149373000D01*
G75*
G02*
X117273000Y-149622999I0J-249999D01*
G01*
X117273000Y-151773001D01*
G75*
G02*
X117023001Y-152023000I-249999J0D01*
G01*
X116222999Y-152023000D01*
G75*
G02*
X115973000Y-151773001I0J249999D01*
G01*
G37*
%TD.AperFunction*%
%TA.AperFunction,SMDPad,CuDef*%
G36*
G01*
X65099000Y-151773001D02*
X65099000Y-149622999D01*
G75*
G02*
X65348999Y-149373000I249999J0D01*
G01*
X66149001Y-149373000D01*
G75*
G02*
X66399000Y-149622999I0J-249999D01*
G01*
X66399000Y-151773001D01*
G75*
G02*
X66149001Y-152023000I-249999J0D01*
G01*
X65348999Y-152023000D01*
G75*
G02*
X65099000Y-151773001I0J249999D01*
G01*
G37*
%TD.AperFunction*%
%TA.AperFunction,SMDPad,CuDef*%
G36*
G01*
X61999000Y-151773001D02*
X61999000Y-149622999D01*
G75*
G02*
X62248999Y-149373000I249999J0D01*
G01*
X63049001Y-149373000D01*
G75*
G02*
X63299000Y-149622999I0J-249999D01*
G01*
X63299000Y-151773001D01*
G75*
G02*
X63049001Y-152023000I-249999J0D01*
G01*
X62248999Y-152023000D01*
G75*
G02*
X61999000Y-151773001I0J249999D01*
G01*
G37*
%TD.AperFunction*%
%TA.AperFunction,SMDPad,CuDef*%
G36*
G01*
X101103000Y-138756001D02*
X101103000Y-136605999D01*
G75*
G02*
X101352999Y-136356000I249999J0D01*
G01*
X102153001Y-136356000D01*
G75*
G02*
X102403000Y-136605999I0J-249999D01*
G01*
X102403000Y-138756001D01*
G75*
G02*
X102153001Y-139006000I-249999J0D01*
G01*
X101352999Y-139006000D01*
G75*
G02*
X101103000Y-138756001I0J249999D01*
G01*
G37*
%TD.AperFunction*%
%TA.AperFunction,SMDPad,CuDef*%
G36*
G01*
X98003000Y-138756001D02*
X98003000Y-136605999D01*
G75*
G02*
X98252999Y-136356000I249999J0D01*
G01*
X99053001Y-136356000D01*
G75*
G02*
X99303000Y-136605999I0J-249999D01*
G01*
X99303000Y-138756001D01*
G75*
G02*
X99053001Y-139006000I-249999J0D01*
G01*
X98252999Y-139006000D01*
G75*
G02*
X98003000Y-138756001I0J249999D01*
G01*
G37*
%TD.AperFunction*%
%TA.AperFunction,SMDPad,CuDef*%
G36*
G01*
X164159000Y-114372001D02*
X164159000Y-112221999D01*
G75*
G02*
X164408999Y-111972000I249999J0D01*
G01*
X165209001Y-111972000D01*
G75*
G02*
X165459000Y-112221999I0J-249999D01*
G01*
X165459000Y-114372001D01*
G75*
G02*
X165209001Y-114622000I-249999J0D01*
G01*
X164408999Y-114622000D01*
G75*
G02*
X164159000Y-114372001I0J249999D01*
G01*
G37*
%TD.AperFunction*%
%TA.AperFunction,SMDPad,CuDef*%
G36*
G01*
X161059000Y-114372001D02*
X161059000Y-112221999D01*
G75*
G02*
X161308999Y-111972000I249999J0D01*
G01*
X162109001Y-111972000D01*
G75*
G02*
X162359000Y-112221999I0J-249999D01*
G01*
X162359000Y-114372001D01*
G75*
G02*
X162109001Y-114622000I-249999J0D01*
G01*
X161308999Y-114622000D01*
G75*
G02*
X161059000Y-114372001I0J249999D01*
G01*
G37*
%TD.AperFunction*%
%TA.AperFunction,SMDPad,CuDef*%
G36*
G01*
X163993000Y-82888401D02*
X163993000Y-80738399D01*
G75*
G02*
X164242999Y-80488400I249999J0D01*
G01*
X165043001Y-80488400D01*
G75*
G02*
X165293000Y-80738399I0J-249999D01*
G01*
X165293000Y-82888401D01*
G75*
G02*
X165043001Y-83138400I-249999J0D01*
G01*
X164242999Y-83138400D01*
G75*
G02*
X163993000Y-82888401I0J249999D01*
G01*
G37*
%TD.AperFunction*%
%TA.AperFunction,SMDPad,CuDef*%
G36*
G01*
X160893000Y-82888401D02*
X160893000Y-80738399D01*
G75*
G02*
X161142999Y-80488400I249999J0D01*
G01*
X161943001Y-80488400D01*
G75*
G02*
X162193000Y-80738399I0J-249999D01*
G01*
X162193000Y-82888401D01*
G75*
G02*
X161943001Y-83138400I-249999J0D01*
G01*
X161142999Y-83138400D01*
G75*
G02*
X160893000Y-82888401I0J249999D01*
G01*
G37*
%TD.AperFunction*%
%TA.AperFunction,SMDPad,CuDef*%
G36*
G01*
X47702000Y-114369001D02*
X47702000Y-112218999D01*
G75*
G02*
X47951999Y-111969000I249999J0D01*
G01*
X48752001Y-111969000D01*
G75*
G02*
X49002000Y-112218999I0J-249999D01*
G01*
X49002000Y-114369001D01*
G75*
G02*
X48752001Y-114619000I-249999J0D01*
G01*
X47951999Y-114619000D01*
G75*
G02*
X47702000Y-114369001I0J249999D01*
G01*
G37*
%TD.AperFunction*%
%TA.AperFunction,SMDPad,CuDef*%
G36*
G01*
X44602000Y-114369001D02*
X44602000Y-112218999D01*
G75*
G02*
X44851999Y-111969000I249999J0D01*
G01*
X45652001Y-111969000D01*
G75*
G02*
X45902000Y-112218999I0J-249999D01*
G01*
X45902000Y-114369001D01*
G75*
G02*
X45652001Y-114619000I-249999J0D01*
G01*
X44851999Y-114619000D01*
G75*
G02*
X44602000Y-114369001I0J249999D01*
G01*
G37*
%TD.AperFunction*%
%TA.AperFunction,SMDPad,CuDef*%
G36*
G01*
X47778200Y-82817301D02*
X47778200Y-80667299D01*
G75*
G02*
X48028199Y-80417300I249999J0D01*
G01*
X48828201Y-80417300D01*
G75*
G02*
X49078200Y-80667299I0J-249999D01*
G01*
X49078200Y-82817301D01*
G75*
G02*
X48828201Y-83067300I-249999J0D01*
G01*
X48028199Y-83067300D01*
G75*
G02*
X47778200Y-82817301I0J249999D01*
G01*
G37*
%TD.AperFunction*%
%TA.AperFunction,SMDPad,CuDef*%
G36*
G01*
X44678200Y-82817301D02*
X44678200Y-80667299D01*
G75*
G02*
X44928199Y-80417300I249999J0D01*
G01*
X45728201Y-80417300D01*
G75*
G02*
X45978200Y-80667299I0J-249999D01*
G01*
X45978200Y-82817301D01*
G75*
G02*
X45728201Y-83067300I-249999J0D01*
G01*
X44928199Y-83067300D01*
G75*
G02*
X44678200Y-82817301I0J249999D01*
G01*
G37*
%TD.AperFunction*%
%TA.AperFunction,SMDPad,CuDef*%
G36*
G01*
X45011000Y-41932699D02*
X45011000Y-43182701D01*
G75*
G02*
X44761001Y-43432700I-249999J0D01*
G01*
X43960999Y-43432700D01*
G75*
G02*
X43711000Y-43182701I0J249999D01*
G01*
X43711000Y-41932699D01*
G75*
G02*
X43960999Y-41682700I249999J0D01*
G01*
X44761001Y-41682700D01*
G75*
G02*
X45011000Y-41932699I0J-249999D01*
G01*
G37*
%TD.AperFunction*%
%TA.AperFunction,SMDPad,CuDef*%
G36*
G01*
X48111000Y-41932699D02*
X48111000Y-43182701D01*
G75*
G02*
X47861001Y-43432700I-249999J0D01*
G01*
X47060999Y-43432700D01*
G75*
G02*
X46811000Y-43182701I0J249999D01*
G01*
X46811000Y-41932699D01*
G75*
G02*
X47060999Y-41682700I249999J0D01*
G01*
X47861001Y-41682700D01*
G75*
G02*
X48111000Y-41932699I0J-249999D01*
G01*
G37*
%TD.AperFunction*%
%TA.AperFunction,SMDPad,CuDef*%
G36*
G01*
X87277601Y-63552500D02*
X86027599Y-63552500D01*
G75*
G02*
X85777600Y-63302501I0J249999D01*
G01*
X85777600Y-62502499D01*
G75*
G02*
X86027599Y-62252500I249999J0D01*
G01*
X87277601Y-62252500D01*
G75*
G02*
X87527600Y-62502499I0J-249999D01*
G01*
X87527600Y-63302501D01*
G75*
G02*
X87277601Y-63552500I-249999J0D01*
G01*
G37*
%TD.AperFunction*%
%TA.AperFunction,SMDPad,CuDef*%
G36*
G01*
X87277601Y-66652500D02*
X86027599Y-66652500D01*
G75*
G02*
X85777600Y-66402501I0J249999D01*
G01*
X85777600Y-65602499D01*
G75*
G02*
X86027599Y-65352500I249999J0D01*
G01*
X87277601Y-65352500D01*
G75*
G02*
X87527600Y-65602499I0J-249999D01*
G01*
X87527600Y-66402501D01*
G75*
G02*
X87277601Y-66652500I-249999J0D01*
G01*
G37*
%TD.AperFunction*%
%TA.AperFunction,SMDPad,CuDef*%
G36*
G01*
X82323601Y-63552500D02*
X81073599Y-63552500D01*
G75*
G02*
X80823600Y-63302501I0J249999D01*
G01*
X80823600Y-62502499D01*
G75*
G02*
X81073599Y-62252500I249999J0D01*
G01*
X82323601Y-62252500D01*
G75*
G02*
X82573600Y-62502499I0J-249999D01*
G01*
X82573600Y-63302501D01*
G75*
G02*
X82323601Y-63552500I-249999J0D01*
G01*
G37*
%TD.AperFunction*%
%TA.AperFunction,SMDPad,CuDef*%
G36*
G01*
X82323601Y-66652500D02*
X81073599Y-66652500D01*
G75*
G02*
X80823600Y-66402501I0J249999D01*
G01*
X80823600Y-65602499D01*
G75*
G02*
X81073599Y-65352500I249999J0D01*
G01*
X82323601Y-65352500D01*
G75*
G02*
X82573600Y-65602499I0J-249999D01*
G01*
X82573600Y-66402501D01*
G75*
G02*
X82323601Y-66652500I-249999J0D01*
G01*
G37*
%TD.AperFunction*%
%TA.AperFunction,SMDPad,CuDef*%
G36*
G01*
X103280001Y-77268500D02*
X102029999Y-77268500D01*
G75*
G02*
X101780000Y-77018501I0J249999D01*
G01*
X101780000Y-76218499D01*
G75*
G02*
X102029999Y-75968500I249999J0D01*
G01*
X103280001Y-75968500D01*
G75*
G02*
X103530000Y-76218499I0J-249999D01*
G01*
X103530000Y-77018501D01*
G75*
G02*
X103280001Y-77268500I-249999J0D01*
G01*
G37*
%TD.AperFunction*%
%TA.AperFunction,SMDPad,CuDef*%
G36*
G01*
X103280001Y-80368500D02*
X102029999Y-80368500D01*
G75*
G02*
X101780000Y-80118501I0J249999D01*
G01*
X101780000Y-79318499D01*
G75*
G02*
X102029999Y-79068500I249999J0D01*
G01*
X103280001Y-79068500D01*
G75*
G02*
X103530000Y-79318499I0J-249999D01*
G01*
X103530000Y-80118501D01*
G75*
G02*
X103280001Y-80368500I-249999J0D01*
G01*
G37*
%TD.AperFunction*%
%TA.AperFunction,SMDPad,CuDef*%
G36*
G01*
X99215601Y-77294500D02*
X97965599Y-77294500D01*
G75*
G02*
X97715600Y-77044501I0J249999D01*
G01*
X97715600Y-76244499D01*
G75*
G02*
X97965599Y-75994500I249999J0D01*
G01*
X99215601Y-75994500D01*
G75*
G02*
X99465600Y-76244499I0J-249999D01*
G01*
X99465600Y-77044501D01*
G75*
G02*
X99215601Y-77294500I-249999J0D01*
G01*
G37*
%TD.AperFunction*%
%TA.AperFunction,SMDPad,CuDef*%
G36*
G01*
X99215601Y-80394500D02*
X97965599Y-80394500D01*
G75*
G02*
X97715600Y-80144501I0J249999D01*
G01*
X97715600Y-79344499D01*
G75*
G02*
X97965599Y-79094500I249999J0D01*
G01*
X99215601Y-79094500D01*
G75*
G02*
X99465600Y-79344499I0J-249999D01*
G01*
X99465600Y-80144501D01*
G75*
G02*
X99215601Y-80394500I-249999J0D01*
G01*
G37*
%TD.AperFunction*%
%TA.AperFunction,SMDPad,CuDef*%
G36*
G01*
X97774599Y-65352500D02*
X99024601Y-65352500D01*
G75*
G02*
X99274600Y-65602499I0J-249999D01*
G01*
X99274600Y-66402501D01*
G75*
G02*
X99024601Y-66652500I-249999J0D01*
G01*
X97774599Y-66652500D01*
G75*
G02*
X97524600Y-66402501I0J249999D01*
G01*
X97524600Y-65602499D01*
G75*
G02*
X97774599Y-65352500I249999J0D01*
G01*
G37*
%TD.AperFunction*%
%TA.AperFunction,SMDPad,CuDef*%
G36*
G01*
X97774599Y-62252500D02*
X99024601Y-62252500D01*
G75*
G02*
X99274600Y-62502499I0J-249999D01*
G01*
X99274600Y-63302501D01*
G75*
G02*
X99024601Y-63552500I-249999J0D01*
G01*
X97774599Y-63552500D01*
G75*
G02*
X97524600Y-63302501I0J249999D01*
G01*
X97524600Y-62502499D01*
G75*
G02*
X97774599Y-62252500I249999J0D01*
G01*
G37*
%TD.AperFunction*%
%TA.AperFunction,SMDPad,CuDef*%
G36*
G01*
X92757599Y-65352500D02*
X94007601Y-65352500D01*
G75*
G02*
X94257600Y-65602499I0J-249999D01*
G01*
X94257600Y-66402501D01*
G75*
G02*
X94007601Y-66652500I-249999J0D01*
G01*
X92757599Y-66652500D01*
G75*
G02*
X92507600Y-66402501I0J249999D01*
G01*
X92507600Y-65602499D01*
G75*
G02*
X92757599Y-65352500I249999J0D01*
G01*
G37*
%TD.AperFunction*%
%TA.AperFunction,SMDPad,CuDef*%
G36*
G01*
X92757599Y-62252500D02*
X94007601Y-62252500D01*
G75*
G02*
X94257600Y-62502499I0J-249999D01*
G01*
X94257600Y-63302501D01*
G75*
G02*
X94007601Y-63552500I-249999J0D01*
G01*
X92757599Y-63552500D01*
G75*
G02*
X92507600Y-63302501I0J249999D01*
G01*
X92507600Y-62502499D01*
G75*
G02*
X92757599Y-62252500I249999J0D01*
G01*
G37*
%TD.AperFunction*%
%TA.AperFunction,SMDPad,CuDef*%
G36*
G01*
X124488001Y-77395500D02*
X123237999Y-77395500D01*
G75*
G02*
X122988000Y-77145501I0J249999D01*
G01*
X122988000Y-76345499D01*
G75*
G02*
X123237999Y-76095500I249999J0D01*
G01*
X124488001Y-76095500D01*
G75*
G02*
X124738000Y-76345499I0J-249999D01*
G01*
X124738000Y-77145501D01*
G75*
G02*
X124488001Y-77395500I-249999J0D01*
G01*
G37*
%TD.AperFunction*%
%TA.AperFunction,SMDPad,CuDef*%
G36*
G01*
X124488001Y-80495500D02*
X123237999Y-80495500D01*
G75*
G02*
X122988000Y-80245501I0J249999D01*
G01*
X122988000Y-79445499D01*
G75*
G02*
X123237999Y-79195500I249999J0D01*
G01*
X124488001Y-79195500D01*
G75*
G02*
X124738000Y-79445499I0J-249999D01*
G01*
X124738000Y-80245501D01*
G75*
G02*
X124488001Y-80495500I-249999J0D01*
G01*
G37*
%TD.AperFunction*%
%TA.AperFunction,SMDPad,CuDef*%
G36*
G01*
X60525999Y-36853700D02*
X61776001Y-36853700D01*
G75*
G02*
X62026000Y-37103699I0J-249999D01*
G01*
X62026000Y-37903701D01*
G75*
G02*
X61776001Y-38153700I-249999J0D01*
G01*
X60525999Y-38153700D01*
G75*
G02*
X60276000Y-37903701I0J249999D01*
G01*
X60276000Y-37103699D01*
G75*
G02*
X60525999Y-36853700I249999J0D01*
G01*
G37*
%TD.AperFunction*%
%TA.AperFunction,SMDPad,CuDef*%
G36*
G01*
X60525999Y-33753700D02*
X61776001Y-33753700D01*
G75*
G02*
X62026000Y-34003699I0J-249999D01*
G01*
X62026000Y-34803701D01*
G75*
G02*
X61776001Y-35053700I-249999J0D01*
G01*
X60525999Y-35053700D01*
G75*
G02*
X60276000Y-34803701I0J249999D01*
G01*
X60276000Y-34003699D01*
G75*
G02*
X60525999Y-33753700I249999J0D01*
G01*
G37*
%TD.AperFunction*%
%TA.AperFunction,SMDPad,CuDef*%
G36*
G01*
X64715999Y-36853700D02*
X65966001Y-36853700D01*
G75*
G02*
X66216000Y-37103699I0J-249999D01*
G01*
X66216000Y-37903701D01*
G75*
G02*
X65966001Y-38153700I-249999J0D01*
G01*
X64715999Y-38153700D01*
G75*
G02*
X64466000Y-37903701I0J249999D01*
G01*
X64466000Y-37103699D01*
G75*
G02*
X64715999Y-36853700I249999J0D01*
G01*
G37*
%TD.AperFunction*%
%TA.AperFunction,SMDPad,CuDef*%
G36*
G01*
X64715999Y-33753700D02*
X65966001Y-33753700D01*
G75*
G02*
X66216000Y-34003699I0J-249999D01*
G01*
X66216000Y-34803701D01*
G75*
G02*
X65966001Y-35053700I-249999J0D01*
G01*
X64715999Y-35053700D01*
G75*
G02*
X64466000Y-34803701I0J249999D01*
G01*
X64466000Y-34003699D01*
G75*
G02*
X64715999Y-33753700I249999J0D01*
G01*
G37*
%TD.AperFunction*%
%TA.AperFunction,SMDPad,CuDef*%
G36*
G01*
X56270999Y-36853700D02*
X57521001Y-36853700D01*
G75*
G02*
X57771000Y-37103699I0J-249999D01*
G01*
X57771000Y-37903701D01*
G75*
G02*
X57521001Y-38153700I-249999J0D01*
G01*
X56270999Y-38153700D01*
G75*
G02*
X56021000Y-37903701I0J249999D01*
G01*
X56021000Y-37103699D01*
G75*
G02*
X56270999Y-36853700I249999J0D01*
G01*
G37*
%TD.AperFunction*%
%TA.AperFunction,SMDPad,CuDef*%
G36*
G01*
X56270999Y-33753700D02*
X57521001Y-33753700D01*
G75*
G02*
X57771000Y-34003699I0J-249999D01*
G01*
X57771000Y-34803701D01*
G75*
G02*
X57521001Y-35053700I-249999J0D01*
G01*
X56270999Y-35053700D01*
G75*
G02*
X56021000Y-34803701I0J249999D01*
G01*
X56021000Y-34003699D01*
G75*
G02*
X56270999Y-33753700I249999J0D01*
G01*
G37*
%TD.AperFunction*%
%TA.AperFunction,SMDPad,CuDef*%
G36*
G01*
X52460999Y-36853700D02*
X53711001Y-36853700D01*
G75*
G02*
X53961000Y-37103699I0J-249999D01*
G01*
X53961000Y-37903701D01*
G75*
G02*
X53711001Y-38153700I-249999J0D01*
G01*
X52460999Y-38153700D01*
G75*
G02*
X52211000Y-37903701I0J249999D01*
G01*
X52211000Y-37103699D01*
G75*
G02*
X52460999Y-36853700I249999J0D01*
G01*
G37*
%TD.AperFunction*%
%TA.AperFunction,SMDPad,CuDef*%
G36*
G01*
X52460999Y-33753700D02*
X53711001Y-33753700D01*
G75*
G02*
X53961000Y-34003699I0J-249999D01*
G01*
X53961000Y-34803701D01*
G75*
G02*
X53711001Y-35053700I-249999J0D01*
G01*
X52460999Y-35053700D01*
G75*
G02*
X52211000Y-34803701I0J249999D01*
G01*
X52211000Y-34003699D01*
G75*
G02*
X52460999Y-33753700I249999J0D01*
G01*
G37*
%TD.AperFunction*%
D10*
X173507400Y-216735460D03*
D11*
X173507400Y-211655460D03*
D14*
X128904600Y-72847200D03*
X128904600Y-70307200D03*
X126364600Y-72847200D03*
X126364600Y-70307200D03*
X123824600Y-72847200D03*
X123824600Y-70307200D03*
X121284600Y-72847200D03*
X121284600Y-70307200D03*
X118744600Y-72847200D03*
X118744600Y-70307200D03*
X116204600Y-72847200D03*
X116204600Y-70307200D03*
X113664600Y-72847200D03*
X113664600Y-70307200D03*
X111124600Y-72847200D03*
X111124600Y-70307200D03*
X108584600Y-72847200D03*
X108584600Y-70307200D03*
X106044600Y-72847200D03*
X106044600Y-70307200D03*
X103504600Y-72847200D03*
X103504600Y-70307200D03*
X100964600Y-72847200D03*
X100964600Y-70307200D03*
X98424600Y-72847200D03*
X98424600Y-70307200D03*
X95884600Y-72847200D03*
X95884600Y-70307200D03*
X93344600Y-72847200D03*
X93344600Y-70307200D03*
X90804600Y-72847200D03*
X90804600Y-70307200D03*
X88264600Y-72847200D03*
X88264600Y-70307200D03*
X85724600Y-72847200D03*
X85724600Y-70307200D03*
X83184600Y-72847200D03*
X83184600Y-70307200D03*
X80644600Y-72847200D03*
D15*
X80644600Y-70307200D03*
D10*
X37782000Y-211925000D03*
D11*
X37782000Y-217005000D03*
D10*
X37782000Y-222529000D03*
D11*
X37782000Y-227609000D03*
%TA.AperFunction,SMDPad,CuDef*%
G36*
G01*
X54139800Y-26857800D02*
X54139800Y-28107800D01*
G75*
G02*
X53889800Y-28357800I-250000J0D01*
G01*
X52964800Y-28357800D01*
G75*
G02*
X52714800Y-28107800I0J250000D01*
G01*
X52714800Y-26857800D01*
G75*
G02*
X52964800Y-26607800I250000J0D01*
G01*
X53889800Y-26607800D01*
G75*
G02*
X54139800Y-26857800I0J-250000D01*
G01*
G37*
%TD.AperFunction*%
%TA.AperFunction,SMDPad,CuDef*%
G36*
G01*
X57114800Y-26857800D02*
X57114800Y-28107800D01*
G75*
G02*
X56864800Y-28357800I-250000J0D01*
G01*
X55939800Y-28357800D01*
G75*
G02*
X55689800Y-28107800I0J250000D01*
G01*
X55689800Y-26857800D01*
G75*
G02*
X55939800Y-26607800I250000J0D01*
G01*
X56864800Y-26607800D01*
G75*
G02*
X57114800Y-26857800I0J-250000D01*
G01*
G37*
%TD.AperFunction*%
%TA.AperFunction,SMDPad,CuDef*%
G36*
G01*
X61010000Y-26819700D02*
X61010000Y-28069700D01*
G75*
G02*
X60760000Y-28319700I-250000J0D01*
G01*
X59835000Y-28319700D01*
G75*
G02*
X59585000Y-28069700I0J250000D01*
G01*
X59585000Y-26819700D01*
G75*
G02*
X59835000Y-26569700I250000J0D01*
G01*
X60760000Y-26569700D01*
G75*
G02*
X61010000Y-26819700I0J-250000D01*
G01*
G37*
%TD.AperFunction*%
%TA.AperFunction,SMDPad,CuDef*%
G36*
G01*
X63985000Y-26819700D02*
X63985000Y-28069700D01*
G75*
G02*
X63735000Y-28319700I-250000J0D01*
G01*
X62810000Y-28319700D01*
G75*
G02*
X62560000Y-28069700I0J250000D01*
G01*
X62560000Y-26819700D01*
G75*
G02*
X62810000Y-26569700I250000J0D01*
G01*
X63735000Y-26569700D01*
G75*
G02*
X63985000Y-26819700I0J-250000D01*
G01*
G37*
%TD.AperFunction*%
%TA.AperFunction,SMDPad,CuDef*%
G36*
G01*
X47180200Y-26807000D02*
X47180200Y-28057000D01*
G75*
G02*
X46930200Y-28307000I-250000J0D01*
G01*
X46005200Y-28307000D01*
G75*
G02*
X45755200Y-28057000I0J250000D01*
G01*
X45755200Y-26807000D01*
G75*
G02*
X46005200Y-26557000I250000J0D01*
G01*
X46930200Y-26557000D01*
G75*
G02*
X47180200Y-26807000I0J-250000D01*
G01*
G37*
%TD.AperFunction*%
%TA.AperFunction,SMDPad,CuDef*%
G36*
G01*
X50155200Y-26807000D02*
X50155200Y-28057000D01*
G75*
G02*
X49905200Y-28307000I-250000J0D01*
G01*
X48980200Y-28307000D01*
G75*
G02*
X48730200Y-28057000I0J250000D01*
G01*
X48730200Y-26807000D01*
G75*
G02*
X48980200Y-26557000I250000J0D01*
G01*
X49905200Y-26557000D01*
G75*
G02*
X50155200Y-26807000I0J-250000D01*
G01*
G37*
%TD.AperFunction*%
%TA.AperFunction,SMDPad,CuDef*%
G36*
G01*
X40246000Y-26857800D02*
X40246000Y-28107800D01*
G75*
G02*
X39996000Y-28357800I-250000J0D01*
G01*
X39071000Y-28357800D01*
G75*
G02*
X38821000Y-28107800I0J250000D01*
G01*
X38821000Y-26857800D01*
G75*
G02*
X39071000Y-26607800I250000J0D01*
G01*
X39996000Y-26607800D01*
G75*
G02*
X40246000Y-26857800I0J-250000D01*
G01*
G37*
%TD.AperFunction*%
%TA.AperFunction,SMDPad,CuDef*%
G36*
G01*
X43221000Y-26857800D02*
X43221000Y-28107800D01*
G75*
G02*
X42971000Y-28357800I-250000J0D01*
G01*
X42046000Y-28357800D01*
G75*
G02*
X41796000Y-28107800I0J250000D01*
G01*
X41796000Y-26857800D01*
G75*
G02*
X42046000Y-26607800I250000J0D01*
G01*
X42971000Y-26607800D01*
G75*
G02*
X43221000Y-26857800I0J-250000D01*
G01*
G37*
%TD.AperFunction*%
%TA.AperFunction,SMDPad,CuDef*%
G36*
G01*
X149744000Y-111597003D02*
X149744000Y-110296997D01*
G75*
G02*
X149993997Y-110047000I249997J0D01*
G01*
X150819003Y-110047000D01*
G75*
G02*
X151069000Y-110296997I0J-249997D01*
G01*
X151069000Y-111597003D01*
G75*
G02*
X150819003Y-111847000I-249997J0D01*
G01*
X149993997Y-111847000D01*
G75*
G02*
X149744000Y-111597003I0J249997D01*
G01*
G37*
%TD.AperFunction*%
%TA.AperFunction,SMDPad,CuDef*%
G36*
G01*
X146619000Y-111597003D02*
X146619000Y-110296997D01*
G75*
G02*
X146868997Y-110047000I249997J0D01*
G01*
X147694003Y-110047000D01*
G75*
G02*
X147944000Y-110296997I0J-249997D01*
G01*
X147944000Y-111597003D01*
G75*
G02*
X147694003Y-111847000I-249997J0D01*
G01*
X146868997Y-111847000D01*
G75*
G02*
X146619000Y-111597003I0J249997D01*
G01*
G37*
%TD.AperFunction*%
%TA.AperFunction,SMDPad,CuDef*%
G36*
G01*
X128154000Y-111597003D02*
X128154000Y-110296997D01*
G75*
G02*
X128403997Y-110047000I249997J0D01*
G01*
X129229003Y-110047000D01*
G75*
G02*
X129479000Y-110296997I0J-249997D01*
G01*
X129479000Y-111597003D01*
G75*
G02*
X129229003Y-111847000I-249997J0D01*
G01*
X128403997Y-111847000D01*
G75*
G02*
X128154000Y-111597003I0J249997D01*
G01*
G37*
%TD.AperFunction*%
%TA.AperFunction,SMDPad,CuDef*%
G36*
G01*
X125029000Y-111597003D02*
X125029000Y-110296997D01*
G75*
G02*
X125278997Y-110047000I249997J0D01*
G01*
X126104003Y-110047000D01*
G75*
G02*
X126354000Y-110296997I0J-249997D01*
G01*
X126354000Y-111597003D01*
G75*
G02*
X126104003Y-111847000I-249997J0D01*
G01*
X125278997Y-111847000D01*
G75*
G02*
X125029000Y-111597003I0J249997D01*
G01*
G37*
%TD.AperFunction*%
%TA.AperFunction,SMDPad,CuDef*%
G36*
G01*
X105040000Y-112004003D02*
X105040000Y-110703997D01*
G75*
G02*
X105289997Y-110454000I249997J0D01*
G01*
X106115003Y-110454000D01*
G75*
G02*
X106365000Y-110703997I0J-249997D01*
G01*
X106365000Y-112004003D01*
G75*
G02*
X106115003Y-112254000I-249997J0D01*
G01*
X105289997Y-112254000D01*
G75*
G02*
X105040000Y-112004003I0J249997D01*
G01*
G37*
%TD.AperFunction*%
%TA.AperFunction,SMDPad,CuDef*%
G36*
G01*
X101915000Y-112004003D02*
X101915000Y-110703997D01*
G75*
G02*
X102164997Y-110454000I249997J0D01*
G01*
X102990003Y-110454000D01*
G75*
G02*
X103240000Y-110703997I0J-249997D01*
G01*
X103240000Y-112004003D01*
G75*
G02*
X102990003Y-112254000I-249997J0D01*
G01*
X102164997Y-112254000D01*
G75*
G02*
X101915000Y-112004003I0J249997D01*
G01*
G37*
%TD.AperFunction*%
%TA.AperFunction,SMDPad,CuDef*%
G36*
G01*
X83704000Y-111597003D02*
X83704000Y-110296997D01*
G75*
G02*
X83953997Y-110047000I249997J0D01*
G01*
X84779003Y-110047000D01*
G75*
G02*
X85029000Y-110296997I0J-249997D01*
G01*
X85029000Y-111597003D01*
G75*
G02*
X84779003Y-111847000I-249997J0D01*
G01*
X83953997Y-111847000D01*
G75*
G02*
X83704000Y-111597003I0J249997D01*
G01*
G37*
%TD.AperFunction*%
%TA.AperFunction,SMDPad,CuDef*%
G36*
G01*
X80579000Y-111597003D02*
X80579000Y-110296997D01*
G75*
G02*
X80828997Y-110047000I249997J0D01*
G01*
X81654003Y-110047000D01*
G75*
G02*
X81904000Y-110296997I0J-249997D01*
G01*
X81904000Y-111597003D01*
G75*
G02*
X81654003Y-111847000I-249997J0D01*
G01*
X80828997Y-111847000D01*
G75*
G02*
X80579000Y-111597003I0J249997D01*
G01*
G37*
%TD.AperFunction*%
%TA.AperFunction,SMDPad,CuDef*%
G36*
G01*
X62114000Y-111597003D02*
X62114000Y-110296997D01*
G75*
G02*
X62363997Y-110047000I249997J0D01*
G01*
X63189003Y-110047000D01*
G75*
G02*
X63439000Y-110296997I0J-249997D01*
G01*
X63439000Y-111597003D01*
G75*
G02*
X63189003Y-111847000I-249997J0D01*
G01*
X62363997Y-111847000D01*
G75*
G02*
X62114000Y-111597003I0J249997D01*
G01*
G37*
%TD.AperFunction*%
%TA.AperFunction,SMDPad,CuDef*%
G36*
G01*
X58989000Y-111597003D02*
X58989000Y-110296997D01*
G75*
G02*
X59238997Y-110047000I249997J0D01*
G01*
X60064003Y-110047000D01*
G75*
G02*
X60314000Y-110296997I0J-249997D01*
G01*
X60314000Y-111597003D01*
G75*
G02*
X60064003Y-111847000I-249997J0D01*
G01*
X59238997Y-111847000D01*
G75*
G02*
X58989000Y-111597003I0J249997D01*
G01*
G37*
%TD.AperFunction*%
D16*
X130464400Y-116839800D03*
X130464400Y-120409800D03*
X90043000Y-91349800D03*
X86309900Y-81680600D03*
X133837700Y-96826600D03*
X122922400Y-110000300D03*
X120654000Y-98679400D03*
X106060700Y-106553700D03*
X90874000Y-95342800D03*
X55604000Y-111836900D03*
X51535600Y-100324800D03*
X81668900Y-96594200D03*
X85320400Y-91405900D03*
X63452900Y-36462500D03*
X111124600Y-79471500D03*
X149164000Y-96976900D03*
X139437500Y-85221400D03*
X117770000Y-84892300D03*
X125519700Y-95471400D03*
X114409500Y-96588400D03*
X150500800Y-96864100D03*
X128721400Y-96025300D03*
X106521900Y-96602500D03*
X93344600Y-82575700D03*
X91059700Y-92768400D03*
X83746600Y-97478200D03*
X83843300Y-68019100D03*
X59183800Y-94703800D03*
X76127900Y-92962300D03*
X79919300Y-88723000D03*
X59078300Y-92454900D03*
X75076500Y-92068000D03*
X145501100Y-175703600D03*
X152044400Y-204012800D03*
X121716800Y-190093600D03*
X141732000Y-180644800D03*
X165303200Y-176479200D03*
X167640000Y-150876000D03*
X103073200Y-145338800D03*
X77224800Y-89917500D03*
X59764400Y-104158500D03*
X176837400Y-88167300D03*
X95653600Y-91494900D03*
X59884700Y-102572600D03*
X61500600Y-102696900D03*
X57458100Y-119521300D03*
X64474800Y-160112000D03*
X68656500Y-129290400D03*
X94646600Y-110181200D03*
X91037100Y-111703000D03*
X66246200Y-144182900D03*
X70941200Y-126720300D03*
X91704600Y-109391500D03*
X85110100Y-102119300D03*
X63061900Y-146164800D03*
X68677400Y-126566400D03*
X74982500Y-102066900D03*
X68349200Y-132108400D03*
X81446500Y-107380500D03*
X73505900Y-105342100D03*
X70647500Y-109803200D03*
X79517800Y-111439800D03*
X73537400Y-107938700D03*
X71225200Y-111444200D03*
X143917900Y-126688800D03*
X128906900Y-151226900D03*
X110244700Y-118843700D03*
X110244700Y-111277300D03*
X107114800Y-105536600D03*
X116593900Y-128761700D03*
X111846100Y-111735500D03*
X106844200Y-132206100D03*
X100596100Y-109079200D03*
X102022100Y-98821000D03*
X132992000Y-221083500D03*
X132886200Y-123364100D03*
X104374800Y-99654000D03*
X118932900Y-138142500D03*
X104028500Y-120190400D03*
X104028500Y-102296200D03*
X92992300Y-107082600D03*
X148493800Y-175703600D03*
X148437800Y-145973300D03*
X140678400Y-142548800D03*
X128957900Y-156028800D03*
X116644200Y-138981300D03*
X102319100Y-120564400D03*
X102319100Y-106866600D03*
X97815900Y-107208400D03*
X150998200Y-120686700D03*
X144706800Y-117597700D03*
X123273700Y-200008100D03*
X129854500Y-112967000D03*
X124106100Y-111796100D03*
X135802800Y-199511100D03*
X134777600Y-104707900D03*
X141860800Y-186195500D03*
X129969200Y-100571100D03*
X135874200Y-103351100D03*
X136552900Y-188420100D03*
X135989500Y-109162900D03*
X127782200Y-100037400D03*
X125978600Y-100628100D03*
X119420200Y-101866000D03*
X152587400Y-123729500D03*
X149683200Y-120821400D03*
X131650700Y-117583500D03*
X126198000Y-108758300D03*
X124928400Y-108161400D03*
X151562500Y-107481700D03*
X146104100Y-108632000D03*
X154146900Y-160480800D03*
X149070800Y-104196100D03*
X146816100Y-160466900D03*
X148398000Y-109369500D03*
X107500800Y-170604800D03*
X112897700Y-175703600D03*
X163205500Y-104327500D03*
X169548200Y-107524500D03*
X142017500Y-104596300D03*
X139622500Y-157031400D03*
X40782600Y-191216200D03*
X149639000Y-106227900D03*
X141558400Y-106526700D03*
X138870500Y-153207900D03*
X40146300Y-169915500D03*
X146218400Y-105186400D03*
X146126600Y-107163600D03*
X73464800Y-31912800D03*
X133640500Y-31588600D03*
X88795100Y-32041500D03*
X103239100Y-31912800D03*
X41141400Y-188601500D03*
X168797800Y-190986200D03*
X41361700Y-206598200D03*
X116732400Y-180135200D03*
X77438400Y-181994100D03*
D17*
X130253200Y-93715900D02*
X126183300Y-93715900D01*
X126183300Y-93715900D02*
X125452900Y-94446300D01*
X125452900Y-94446300D02*
X125095200Y-94446300D01*
X125095200Y-94446300D02*
X124494600Y-95046900D01*
X124494600Y-95046900D02*
X124494600Y-95315200D01*
X124494600Y-95315200D02*
X123467800Y-96342000D01*
X123467800Y-96342000D02*
X122604000Y-96342000D01*
X82694000Y-96169600D02*
X82694000Y-99390100D01*
X82694000Y-99390100D02*
X83334900Y-100031000D01*
X83334900Y-100031000D02*
X83334900Y-109915400D01*
X83334900Y-109915400D02*
X84366500Y-110947000D01*
X90370000Y-91712700D02*
X90370000Y-91676800D01*
X90370000Y-91676800D02*
X90043000Y-91349800D01*
X90370000Y-91712700D02*
X91481300Y-91712700D01*
X91481300Y-91712700D02*
X96110600Y-96342000D01*
X96110600Y-96342000D02*
X99744000Y-96342000D01*
X128816500Y-110947000D02*
X128816500Y-115191900D01*
X128816500Y-115191900D02*
X130464400Y-116839800D01*
X166713000Y-236029000D02*
X166713000Y-236868000D01*
X160266000Y-225137000D02*
X159572500Y-225137000D01*
X153613400Y-114153900D02*
X150406500Y-110947000D01*
X153613400Y-125265000D02*
X153613400Y-114153900D01*
X153613400Y-114153900D02*
X156456600Y-111310700D01*
X156456600Y-111310700D02*
X162822700Y-111310700D01*
X162822700Y-111310700D02*
X164809000Y-113297000D01*
X160367000Y-211116000D02*
X160367000Y-212503100D01*
X155878800Y-222898000D02*
X151156000Y-222898000D01*
X156813300Y-222898000D02*
X155878800Y-222898000D01*
X145280000Y-183100000D02*
X149043000Y-183100000D01*
X149043000Y-183100000D02*
X151219000Y-180924000D01*
X145178000Y-225111000D02*
X148943000Y-225111000D01*
X148943000Y-225111000D02*
X151156000Y-222898000D01*
X134060700Y-123965300D02*
X134060700Y-123002600D01*
X134060700Y-123002600D02*
X131467900Y-120409800D01*
X131467900Y-120409800D02*
X130464400Y-120409800D01*
X105702500Y-111354000D02*
X107120800Y-112772300D01*
X107120800Y-112772300D02*
X119307500Y-112772300D01*
X119307500Y-112772300D02*
X130935800Y-124400600D01*
X130935800Y-124400600D02*
X133625400Y-124400600D01*
X133625400Y-124400600D02*
X134060700Y-123965300D01*
X153613400Y-125265000D02*
X135360400Y-125265000D01*
X135360400Y-125265000D02*
X134060700Y-123965300D01*
X87919000Y-216094000D02*
X84244000Y-216094000D01*
X90259000Y-226009000D02*
X90259000Y-218434000D01*
X90259000Y-218434000D02*
X87919000Y-216094000D01*
X90196000Y-213817000D02*
X87919000Y-216094000D01*
X90196000Y-213817000D02*
X98728100Y-213817000D01*
X98728100Y-213817000D02*
X100093000Y-212452100D01*
X87995000Y-204080000D02*
X90196000Y-201879000D01*
X84193000Y-204080000D02*
X87995000Y-204080000D01*
X87995000Y-204080000D02*
X87995000Y-211616000D01*
X87995000Y-211616000D02*
X90196000Y-213817000D01*
X100169000Y-226498100D02*
X99518900Y-227148200D01*
X99518900Y-227148200D02*
X91398200Y-227148200D01*
X91398200Y-227148200D02*
X90259000Y-226009000D01*
X62776500Y-110947000D02*
X66992800Y-110947000D01*
X66992800Y-110947000D02*
X70605500Y-107334300D01*
X70605500Y-107334300D02*
X70605500Y-103039200D01*
X70605500Y-103039200D02*
X77302700Y-96342000D01*
X77302700Y-96342000D02*
X78154000Y-96342000D01*
X58310000Y-152899000D02*
X63548000Y-152899000D01*
X63548000Y-152899000D02*
X65749000Y-150698000D01*
X56646200Y-188888000D02*
X56646200Y-186102800D01*
X56646200Y-186102800D02*
X58361000Y-184388000D01*
X58361000Y-184388000D02*
X58361000Y-178832000D01*
X44323000Y-188888000D02*
X56646200Y-188888000D01*
X56646200Y-188888000D02*
X56646200Y-188888100D01*
X56646200Y-188888100D02*
X58259000Y-190500900D01*
X42130400Y-60976400D02*
X42130400Y-62363500D01*
X42232000Y-71492000D02*
X42232000Y-70104900D01*
X42232000Y-70104900D02*
X40844800Y-68717700D01*
X40844800Y-68717700D02*
X40844800Y-63649100D01*
X40844800Y-63649100D02*
X42130400Y-62363500D01*
X153613400Y-125265000D02*
X159505000Y-125265000D01*
X159505000Y-125265000D02*
X162332000Y-128092000D01*
X153494000Y-92532000D02*
X153494000Y-91262000D01*
X144194000Y-96342000D02*
X146477900Y-96342000D01*
X146477900Y-96342000D02*
X150287900Y-92532000D01*
X150287900Y-92532000D02*
X153494000Y-92532000D01*
X130253200Y-93715900D02*
X130253200Y-90783400D01*
X130253200Y-90783400D02*
X130701700Y-90334900D01*
X130701700Y-90334900D02*
X133178300Y-90334900D01*
X133178300Y-90334900D02*
X139185400Y-96342000D01*
X139185400Y-96342000D02*
X144194000Y-96342000D01*
X159004900Y-183100000D02*
X156828900Y-180924000D01*
X156828900Y-180924000D02*
X151219000Y-180924000D01*
X163741000Y-189052000D02*
X159004900Y-184315900D01*
X159004900Y-184315900D02*
X159004900Y-183100000D01*
X130253200Y-93715900D02*
X131817900Y-93715900D01*
X131817900Y-93715900D02*
X131904000Y-93802000D01*
X109044000Y-91262000D02*
X112141500Y-91262000D01*
X112141500Y-91262000D02*
X117221500Y-96342000D01*
X117221500Y-96342000D02*
X122604000Y-96342000D01*
X120358600Y-237756400D02*
X121184000Y-236931000D01*
X115333000Y-239132000D02*
X118983000Y-239132000D01*
X118983000Y-239132000D02*
X120358600Y-237756400D01*
X120358600Y-237756400D02*
X123771400Y-241169200D01*
X123771400Y-241169200D02*
X129643900Y-241169200D01*
X129643900Y-241169200D02*
X130294000Y-240519100D01*
X130294000Y-239132000D02*
X130294000Y-240519100D01*
X121184000Y-194958000D02*
X119047000Y-197095000D01*
X119047000Y-197095000D02*
X115308000Y-197095000D01*
X128880900Y-197095000D02*
X128880900Y-196921600D01*
X128880900Y-196921600D02*
X126917300Y-194958000D01*
X126917300Y-194958000D02*
X121184000Y-194958000D01*
X130268000Y-197095000D02*
X128880900Y-197095000D01*
X112412000Y-152924000D02*
X117497000Y-152924000D01*
X117497000Y-152924000D02*
X119723000Y-150698000D01*
X107392200Y-93715900D02*
X108957900Y-93715900D01*
X108957900Y-93715900D02*
X109044000Y-93802000D01*
X99744000Y-96342000D02*
X104766100Y-96342000D01*
X104766100Y-96342000D02*
X107392200Y-93715900D01*
X109044000Y-91262000D02*
X108192700Y-91262000D01*
X108192700Y-91262000D02*
X107392200Y-92062500D01*
X107392200Y-92062500D02*
X107392200Y-93715900D01*
X145305000Y-170517100D02*
X144654900Y-171167200D01*
X87454000Y-92532000D02*
X89550700Y-92532000D01*
X89550700Y-92532000D02*
X90370000Y-91712700D01*
X87454000Y-93802000D02*
X87454000Y-92532000D01*
X65864000Y-91262000D02*
X75445300Y-81680700D01*
X75445300Y-81680700D02*
X86309900Y-81680700D01*
X86309900Y-81680700D02*
X86309900Y-81680600D01*
X82694000Y-96169600D02*
X85061600Y-93802000D01*
X85061600Y-93802000D02*
X87454000Y-93802000D01*
X78154000Y-96342000D02*
X80471500Y-96342000D01*
X80471500Y-96342000D02*
X81244400Y-95569100D01*
X81244400Y-95569100D02*
X82093500Y-95569100D01*
X82093500Y-95569100D02*
X82694000Y-96169600D01*
X65864000Y-91262000D02*
X65864000Y-92532000D01*
X58259000Y-191888000D02*
X58259000Y-190500900D01*
X58259000Y-190500900D02*
X60903800Y-187856100D01*
X60903800Y-187856100D02*
X63727100Y-187856100D01*
X63727100Y-187856100D02*
X65685000Y-189814000D01*
X48352000Y-115261800D02*
X48352000Y-113294000D01*
X48352000Y-125126800D02*
X48352000Y-115261800D01*
X43517500Y-113504000D02*
X43517500Y-114284200D01*
X43517500Y-114284200D02*
X44495100Y-115261800D01*
X44495100Y-115261800D02*
X48352000Y-115261800D01*
X42130400Y-113504000D02*
X43517500Y-113504000D01*
X42482600Y-83731700D02*
X46438800Y-83731700D01*
X46438800Y-83731700D02*
X48428200Y-81742300D01*
X42145600Y-83356500D02*
X42145600Y-83394700D01*
X42145600Y-83394700D02*
X42482600Y-83731700D01*
X42181200Y-91136100D02*
X40794000Y-89748900D01*
X40794000Y-89748900D02*
X40794000Y-85420300D01*
X40794000Y-85420300D02*
X42482600Y-83731700D01*
X42145600Y-82007600D02*
X42145600Y-83356500D01*
X42181200Y-92523200D02*
X42181200Y-91136100D01*
X106198000Y-181686100D02*
X106198000Y-180861000D01*
X130345000Y-169104000D02*
X133893000Y-169104000D01*
X145305000Y-169130000D02*
X145305000Y-170517100D01*
X42120200Y-103038800D02*
X43507300Y-103038800D01*
X43507300Y-103038800D02*
X50204100Y-96342000D01*
X50204100Y-96342000D02*
X56564000Y-96342000D01*
X58361000Y-178832000D02*
X63840000Y-178832000D01*
X63840000Y-178832000D02*
X65812000Y-176860000D01*
X100169000Y-225111000D02*
X104598500Y-225111000D01*
X104598500Y-225111000D02*
X106198000Y-223511500D01*
X106198000Y-222898000D02*
X106198000Y-223511500D01*
X100169000Y-225111000D02*
X100169000Y-226498100D01*
X90259000Y-226009000D02*
X88134000Y-228134000D01*
X88134000Y-228134000D02*
X84218000Y-228134000D01*
X160240000Y-183100000D02*
X159004900Y-183100000D01*
X89919500Y-237906500D02*
X90081100Y-237744900D01*
X89919500Y-237906500D02*
X87780000Y-240046000D01*
X87780000Y-240046000D02*
X84218000Y-240046000D01*
X90133000Y-237693000D02*
X89919500Y-237906500D01*
X100093000Y-211065000D02*
X100093000Y-212452100D01*
X100195000Y-197095000D02*
X100195000Y-198482100D01*
X90196000Y-201879000D02*
X96798100Y-201879000D01*
X96798100Y-201879000D02*
X100195000Y-198482100D01*
X101753000Y-137681000D02*
X101753000Y-138307000D01*
X44259000Y-206858000D02*
X52906100Y-206858000D01*
X52906100Y-206858000D02*
X54272000Y-205492100D01*
X54272000Y-204105000D02*
X54272000Y-205492100D01*
X166713000Y-236868000D02*
X164474000Y-239107000D01*
X164474000Y-239107000D02*
X160342000Y-239107000D01*
X166613000Y-194704000D02*
X164247000Y-197070000D01*
X164247000Y-197070000D02*
X160240000Y-197070000D01*
X163741000Y-189052000D02*
X166613000Y-191924000D01*
X166613000Y-191924000D02*
X166613000Y-194704000D01*
X65749000Y-163525000D02*
X63446000Y-165828000D01*
X63446000Y-165828000D02*
X58285000Y-165828000D01*
X65864000Y-92532000D02*
X65864000Y-93802000D01*
X65341000Y-37503700D02*
X61151000Y-37503700D01*
X61151000Y-37503700D02*
X56896000Y-37503700D01*
X53086000Y-37503700D02*
X49794900Y-37503700D01*
X49794900Y-37503700D02*
X49324400Y-37033200D01*
X56896000Y-37503700D02*
X53086000Y-37503700D01*
X100169000Y-183125000D02*
X100169000Y-183938200D01*
X100169000Y-183938200D02*
X100634800Y-184404000D01*
X106198000Y-183362000D02*
X106198000Y-180861000D01*
X105156000Y-184404000D02*
X106198000Y-183362000D01*
X104749600Y-184404000D02*
X105054400Y-184404000D01*
X100634800Y-184404000D02*
X104749600Y-184404000D01*
X104749600Y-184404000D02*
X105156000Y-184404000D01*
X105054400Y-184404000D02*
X106578400Y-185928000D01*
X106578400Y-185928000D02*
X113893600Y-185928000D01*
X115308000Y-184513600D02*
X115308000Y-183125000D01*
X113893600Y-185928000D02*
X115308000Y-184513600D01*
D18*
X160266000Y-225137000D02*
X162449800Y-225137000D01*
X162449800Y-225137000D02*
X166572800Y-229260000D01*
X158027000Y-222898000D02*
X160266000Y-225137000D01*
X151156000Y-222898000D02*
X158027000Y-222898000D01*
X151156000Y-222898000D02*
X151156000Y-218566400D01*
X151156000Y-218566400D02*
X153720800Y-216001600D01*
X153720800Y-216001600D02*
X158800800Y-216001600D01*
X160367000Y-214435400D02*
X160367000Y-211116000D01*
X158800800Y-216001600D02*
X160367000Y-214435400D01*
X130294000Y-211090000D02*
X130294000Y-212691600D01*
X130294000Y-212691600D02*
X133604000Y-216001600D01*
X136170000Y-215011600D02*
X137160000Y-216001600D01*
X136170000Y-208864000D02*
X136170000Y-215011600D01*
X137160000Y-216001600D02*
X153720800Y-216001600D01*
X133604000Y-216001600D02*
X137160000Y-216001600D01*
X136170000Y-208864000D02*
X137032800Y-208864000D01*
X137032800Y-208864000D02*
X137414000Y-209245200D01*
X143308200Y-209245200D02*
X145153000Y-211090000D01*
X137414000Y-209245200D02*
X143308200Y-209245200D01*
D17*
X136170000Y-168477600D02*
X136170000Y-166827000D01*
X135543600Y-169104000D02*
X136170000Y-168477600D01*
X139010800Y-171167200D02*
X138299600Y-171167200D01*
X144654900Y-171167200D02*
X139010800Y-171167200D01*
X139010800Y-171167200D02*
X138802400Y-171167200D01*
X136236400Y-169104000D02*
X134915600Y-169104000D01*
X138299600Y-171167200D02*
X136236400Y-169104000D01*
X134915600Y-169104000D02*
X135543600Y-169104000D01*
X130345000Y-169104000D02*
X134915600Y-169104000D01*
X75107600Y-176860000D02*
X76243000Y-177995400D01*
X76243000Y-177995400D02*
X76243000Y-178858000D01*
X65812000Y-176860000D02*
X75107600Y-176860000D01*
X129251200Y-152924000D02*
X130294000Y-152924000D01*
X127025200Y-150698000D02*
X129251200Y-152924000D01*
X119723000Y-150698000D02*
X127025200Y-150698000D01*
X112387000Y-139006200D02*
X112387000Y-139945000D01*
X111687800Y-138307000D02*
X112387000Y-139006200D01*
X101753000Y-138307000D02*
X111687800Y-138307000D01*
X98434400Y-139970000D02*
X101126800Y-139970000D01*
X94429000Y-139970000D02*
X98434400Y-139970000D01*
X98434400Y-139970000D02*
X100090000Y-139970000D01*
X101753000Y-139343800D02*
X101753000Y-137681000D01*
X101126800Y-139970000D02*
X101753000Y-139343800D01*
X49903000Y-126677800D02*
X49903000Y-141343000D01*
X49903000Y-126677800D02*
X48352000Y-125126800D01*
X49903000Y-141343000D02*
X51612800Y-143052800D01*
X51612800Y-143052800D02*
X57454800Y-143052800D01*
X58234000Y-142273600D02*
X58234000Y-139970000D01*
X57454800Y-143052800D02*
X58234000Y-142273600D01*
X174312000Y-60266000D02*
X174312000Y-61027200D01*
X172713600Y-58667600D02*
X174312000Y-60266000D01*
X174276000Y-81313800D02*
X174276000Y-82007600D01*
X173582700Y-80620500D02*
X174276000Y-81313800D01*
X165835900Y-80620500D02*
X173582700Y-80620500D01*
X164643000Y-81813400D02*
X165835900Y-80620500D01*
X172873900Y-91136100D02*
X174261000Y-92523200D01*
X153619900Y-91136100D02*
X172873900Y-91136100D01*
X153494000Y-91262000D02*
X153619900Y-91136100D01*
X172873800Y-112116800D02*
X174261000Y-113504000D01*
X165989200Y-112116800D02*
X172873800Y-112116800D01*
X164809000Y-113297000D02*
X165989200Y-112116800D01*
X91847000Y-35457800D02*
X91847000Y-33858200D01*
X91033600Y-36271200D02*
X91847000Y-35457800D01*
X84353400Y-33858200D02*
X86766400Y-36271200D01*
X76543000Y-33858200D02*
X84353400Y-33858200D01*
X86766400Y-36271200D02*
X90322400Y-36271200D01*
X90322400Y-36271200D02*
X91033600Y-36271200D01*
X106643000Y-35241400D02*
X106643000Y-33858200D01*
X105613200Y-36271200D02*
X106643000Y-35241400D01*
X90322400Y-36271200D02*
X104851200Y-36271200D01*
X104851200Y-36271200D02*
X105613200Y-36271200D01*
X136741000Y-35217000D02*
X136741000Y-33858200D01*
X135686800Y-36271200D02*
X136741000Y-35217000D01*
X134467600Y-36271200D02*
X136448800Y-36271200D01*
X104851200Y-36271200D02*
X134467600Y-36271200D01*
X134467600Y-36271200D02*
X135686800Y-36271200D01*
X158845200Y-58667600D02*
X162922000Y-58667600D01*
X136448800Y-36271200D02*
X158845200Y-58667600D01*
X162922000Y-58667600D02*
X172713600Y-58667600D01*
X161550400Y-58667600D02*
X162922000Y-58667600D01*
X76395000Y-152036200D02*
X76395000Y-152899000D01*
X75056800Y-150698000D02*
X76395000Y-152036200D01*
X65749000Y-150698000D02*
X75056800Y-150698000D01*
X70993200Y-189814000D02*
X75361600Y-189814000D01*
X65685000Y-189814000D02*
X70993200Y-189814000D01*
X70993200Y-189814000D02*
X73006300Y-189814000D01*
X76319000Y-190771400D02*
X76319000Y-191913000D01*
X75361600Y-189814000D02*
X76319000Y-190771400D01*
X76352400Y-191946400D02*
X76319000Y-191913000D01*
X76352400Y-195597500D02*
X76352400Y-191946400D01*
X69232000Y-202717900D02*
X76352400Y-195597500D01*
X69232000Y-204105000D02*
X69232000Y-202717900D01*
X90133000Y-237693000D02*
X91440200Y-237693000D01*
X91440200Y-237693000D02*
X92252800Y-236880400D01*
X92252800Y-236880400D02*
X99415600Y-236880400D01*
X100271000Y-237735800D02*
X100271000Y-239132000D01*
X99415600Y-236880400D02*
X100271000Y-237735800D01*
X114850200Y-225137000D02*
X115206000Y-225137000D01*
X113224700Y-223511500D02*
X114850200Y-225137000D01*
X106198000Y-223511500D02*
X113224700Y-223511500D01*
X44277280Y-171749720D02*
X47317660Y-168709340D01*
X47317660Y-168709340D02*
X57353200Y-168709340D01*
X58285000Y-167777540D02*
X58285000Y-165828000D01*
X57353200Y-168709340D02*
X58285000Y-167777540D01*
X37782000Y-211925000D02*
X39192000Y-211925000D01*
X39192000Y-211925000D02*
X44259000Y-206858000D01*
X37782000Y-222529000D02*
X35656800Y-220403800D01*
X35656800Y-220403800D02*
X35656800Y-214050200D01*
X35656800Y-214050200D02*
X37782000Y-211925000D01*
D18*
X166713000Y-236868000D02*
X166713000Y-234146860D01*
X168193320Y-229260000D02*
X169896590Y-230963270D01*
X166572800Y-229260000D02*
X168193320Y-229260000D01*
X169896590Y-230963270D02*
X173507400Y-227352460D01*
X166713000Y-234146860D02*
X169896590Y-230963270D01*
X173507400Y-216735460D02*
X175699220Y-216735460D01*
X175699220Y-216735460D02*
X177038000Y-218074240D01*
X177038000Y-223821860D02*
X173507400Y-227352460D01*
X177038000Y-218074240D02*
X177038000Y-223821860D01*
D17*
X134146900Y-96517400D02*
X133837700Y-96826600D01*
X140136500Y-98381200D02*
X136010700Y-98381200D01*
X136010700Y-98381200D02*
X134146900Y-96517400D01*
X134146900Y-96517400D02*
X134146900Y-93923400D01*
X134146900Y-93923400D02*
X132755500Y-92532000D01*
X132755500Y-92532000D02*
X131904000Y-92532000D01*
X120654000Y-97612000D02*
X120654000Y-98679400D01*
X120654000Y-97612000D02*
X116882800Y-97612000D01*
X116882800Y-97612000D02*
X111802800Y-92532000D01*
X111802800Y-92532000D02*
X109044000Y-92532000D01*
X122604000Y-97612000D02*
X120654000Y-97612000D01*
X125691500Y-110947000D02*
X124744800Y-110000300D01*
X124744800Y-110000300D02*
X122922400Y-110000300D01*
X102577500Y-111354000D02*
X102577500Y-110036900D01*
X102577500Y-110036900D02*
X106060700Y-106553700D01*
X140136500Y-98381200D02*
X140136500Y-106554400D01*
X140136500Y-106554400D02*
X144529100Y-110947000D01*
X144529100Y-110947000D02*
X147281500Y-110947000D01*
X144194000Y-97612000D02*
X140905700Y-97612000D01*
X140905700Y-97612000D02*
X140136500Y-98381200D01*
X102655000Y-79718500D02*
X103927600Y-78445900D01*
X103927600Y-78445900D02*
X122463400Y-78445900D01*
X122463400Y-78445900D02*
X123863000Y-79845500D01*
X98590600Y-79744500D02*
X102629000Y-79744500D01*
X102629000Y-79744500D02*
X102655000Y-79718500D01*
X90874000Y-95342800D02*
X93143200Y-97612000D01*
X93143200Y-97612000D02*
X99744000Y-97612000D01*
X83184600Y-73379600D02*
X89549500Y-79744500D01*
X89549500Y-79744500D02*
X98590600Y-79744500D01*
X69606800Y-109393900D02*
X71730600Y-107270100D01*
X71730600Y-107270100D02*
X71730600Y-103171200D01*
X71730600Y-103171200D02*
X77289800Y-97612000D01*
X77289800Y-97612000D02*
X78154000Y-97612000D01*
X87454000Y-91262000D02*
X85464300Y-91262000D01*
X85464300Y-91262000D02*
X85320400Y-91405900D01*
X144194000Y-97612000D02*
X146395200Y-97612000D01*
X146395200Y-97612000D02*
X150205200Y-93802000D01*
X150205200Y-93802000D02*
X153494000Y-93802000D01*
X83184600Y-73379600D02*
X82652100Y-73379600D01*
X82652100Y-73379600D02*
X82119700Y-72847200D01*
X83184600Y-72847200D02*
X83184600Y-73379600D01*
X80644600Y-72847200D02*
X82119700Y-72847200D01*
X52858500Y-39538900D02*
X49741200Y-39538900D01*
X49741200Y-39538900D02*
X47849200Y-37646900D01*
X47849200Y-37646900D02*
X47849200Y-36409600D01*
X47849200Y-36409600D02*
X50826400Y-33432400D01*
X50826400Y-33432400D02*
X50826400Y-31899800D01*
X50826400Y-31899800D02*
X49984600Y-31058000D01*
X41305300Y-38954600D02*
X44361000Y-42010300D01*
X44361000Y-42010300D02*
X44361000Y-42557700D01*
X79932200Y-112475100D02*
X81241500Y-111165800D01*
X81241500Y-111165800D02*
X81241500Y-110947000D01*
X78154000Y-97612000D02*
X80651100Y-97612000D01*
X80651100Y-97612000D02*
X81668900Y-96594200D01*
X131904000Y-91262000D02*
X131904000Y-92532000D01*
X81698600Y-62902500D02*
X86652600Y-62902500D01*
X80644600Y-72847200D02*
X79169500Y-72847200D01*
X93382600Y-62902500D02*
X86652600Y-62902500D01*
X98399600Y-62902500D02*
X93382600Y-62902500D01*
X69585200Y-111618400D02*
X68728500Y-112475100D01*
X69606800Y-111618400D02*
X69585200Y-111618400D01*
X69606800Y-111618400D02*
X69606800Y-109393900D01*
X67661700Y-112475100D02*
X70100100Y-112475100D01*
X70100100Y-112475100D02*
X79932200Y-112475100D01*
X69606800Y-112475100D02*
X70100100Y-112475100D01*
X67661700Y-112475100D02*
X68728500Y-112475100D01*
X59651500Y-110947000D02*
X59651500Y-111975500D01*
X60151100Y-112475100D02*
X61827500Y-112475100D01*
X59651500Y-111975500D02*
X60151100Y-112475100D01*
X61827500Y-112475100D02*
X67661700Y-112475100D01*
X55604000Y-111836900D02*
X56920700Y-111836900D01*
X57810600Y-110947000D02*
X59651500Y-110947000D01*
X56920700Y-111836900D02*
X57810600Y-110947000D01*
X51535600Y-100324800D02*
X51535600Y-98476800D01*
X52400400Y-97612000D02*
X54584800Y-97612000D01*
X51535600Y-98476800D02*
X52400400Y-97612000D01*
X54584800Y-97612000D02*
X56564000Y-97612000D01*
X39533500Y-27482800D02*
X39533500Y-28916300D01*
X41305300Y-30688100D02*
X41305300Y-33736100D01*
X41305300Y-33736100D02*
X41305300Y-38954600D01*
X41305300Y-31931500D02*
X41305300Y-33736100D01*
X40792400Y-30175200D02*
X42875200Y-30175200D01*
X49984600Y-31058000D02*
X43758000Y-31058000D01*
X39533500Y-28916300D02*
X40792400Y-30175200D01*
X42875200Y-30175200D02*
X43758000Y-31058000D01*
X40792400Y-30175200D02*
X41305300Y-30688100D01*
X80644600Y-72847200D02*
X78994000Y-72847200D01*
X78994000Y-72847200D02*
X77271800Y-71125000D01*
X77271800Y-71125000D02*
X77271800Y-63952200D01*
X75417600Y-62098000D02*
X52858500Y-39538900D01*
X76222100Y-62902500D02*
X76205000Y-62885400D01*
X81698600Y-62902500D02*
X76222100Y-62902500D01*
X76205000Y-62885400D02*
X75417600Y-62098000D01*
X77271800Y-63952200D02*
X76205000Y-62885400D01*
X53086000Y-33098400D02*
X53086000Y-34403700D01*
X43998400Y-29926800D02*
X49914400Y-29926800D01*
X49914400Y-29926800D02*
X53086000Y-33098400D01*
X42508500Y-28436900D02*
X43998400Y-29926800D01*
X42508500Y-27482800D02*
X42508500Y-28436900D01*
X70872500Y-35414100D02*
X83851500Y-35414100D01*
X68783200Y-33324800D02*
X70872500Y-35414100D01*
X65328800Y-25146000D02*
X68783200Y-28600400D01*
X47752000Y-25146000D02*
X65328800Y-25146000D01*
X83851500Y-35414100D02*
X118744600Y-70307200D01*
X68783200Y-28600400D02*
X68783200Y-33324800D01*
X46467700Y-26430300D02*
X47752000Y-25146000D01*
X46467700Y-27432000D02*
X46467700Y-26430300D01*
X49442700Y-27432000D02*
X50088800Y-27432000D01*
X56896000Y-34239200D02*
X56896000Y-34403700D01*
X50088800Y-27432000D02*
X56896000Y-34239200D01*
X82116400Y-36219000D02*
X116204600Y-70307200D01*
X60297500Y-27444700D02*
X60297500Y-28344300D01*
X63269250Y-31316050D02*
X63269250Y-34622350D01*
X60297500Y-28344300D02*
X63269250Y-31316050D01*
X68762750Y-35943150D02*
X69038600Y-36219000D01*
X64590050Y-35943150D02*
X68762750Y-35943150D01*
X69038600Y-36219000D02*
X82116400Y-36219000D01*
X63269250Y-34622350D02*
X64590050Y-35943150D01*
X63272500Y-29059700D02*
X65341000Y-31128200D01*
X63272500Y-27444700D02*
X63272500Y-29059700D01*
X65341000Y-31128200D02*
X65341000Y-34403700D01*
X53427300Y-27482800D02*
X53427300Y-27824100D01*
X53427300Y-27824100D02*
X58724800Y-33121600D01*
X58724800Y-33121600D02*
X58724800Y-35001200D01*
X59529800Y-35806200D02*
X62796600Y-35806200D01*
X58724800Y-35001200D02*
X59529800Y-35806200D01*
X62796600Y-35806200D02*
X63452900Y-36462500D01*
X56402300Y-28385100D02*
X61151000Y-33133800D01*
X56402300Y-27482800D02*
X56402300Y-28385100D01*
X61151000Y-33133800D02*
X61151000Y-34403700D01*
X123863000Y-76745500D02*
X125371200Y-78253700D01*
X125371200Y-78253700D02*
X125371200Y-80664900D01*
X125371200Y-80664900D02*
X124914400Y-81121700D01*
X124914400Y-81121700D02*
X107501900Y-81121700D01*
X107501900Y-81121700D02*
X106844200Y-81779400D01*
X106844200Y-81779400D02*
X98371100Y-81779400D01*
X98371100Y-81779400D02*
X96535300Y-83615200D01*
X96535300Y-83615200D02*
X77572800Y-83615200D01*
X77572800Y-83615200D02*
X71051000Y-90137000D01*
X71051000Y-90137000D02*
X71051000Y-93393300D01*
X71051000Y-93393300D02*
X66832300Y-97612000D01*
X66832300Y-97612000D02*
X65864000Y-97612000D01*
X123824600Y-72847200D02*
X123824600Y-76707100D01*
X123824600Y-76707100D02*
X123863000Y-76745500D01*
X104266900Y-81029200D02*
X105824600Y-79471500D01*
X105824600Y-79471500D02*
X111124600Y-79471500D01*
X47461000Y-42557700D02*
X47072500Y-42169200D01*
X45076300Y-34785100D02*
X42824400Y-32533200D01*
X42824400Y-32533200D02*
X46177200Y-35886000D01*
X46177200Y-35886000D02*
X46177200Y-39725600D01*
X47461000Y-41009400D02*
X47461000Y-42557700D01*
X46177200Y-39725600D02*
X47461000Y-41009400D01*
X42824400Y-32533200D02*
X49324400Y-32533200D01*
X47461000Y-42557700D02*
X47461000Y-44616200D01*
X47461000Y-44616200D02*
X82499200Y-79654400D01*
X87522000Y-79654400D02*
X88896800Y-81029200D01*
X82499200Y-79654400D02*
X87522000Y-79654400D01*
X88896800Y-81029200D02*
X104266900Y-81029200D01*
X139437500Y-85221400D02*
X139108400Y-84892300D01*
X139108400Y-84892300D02*
X117770000Y-84892300D01*
X149164000Y-96976900D02*
X150076300Y-97889200D01*
X150076300Y-97889200D02*
X153216800Y-97889200D01*
X153216800Y-97889200D02*
X153494000Y-97612000D01*
X100964600Y-72847200D02*
X100964600Y-74928100D01*
X100964600Y-74928100D02*
X102655000Y-76618500D01*
X125519700Y-95471400D02*
X127660300Y-97612000D01*
X127660300Y-97612000D02*
X131904000Y-97612000D01*
X98424600Y-72847200D02*
X98424600Y-76478500D01*
X98424600Y-76478500D02*
X98590600Y-76644500D01*
X114409500Y-96588400D02*
X113385900Y-97612000D01*
X113385900Y-97612000D02*
X109044000Y-97612000D01*
X98424600Y-70307200D02*
X98424600Y-66027500D01*
X98424600Y-66027500D02*
X98399600Y-66002500D01*
X87454000Y-95072000D02*
X88756100Y-95072000D01*
X88756100Y-95072000D02*
X91059700Y-92768400D01*
X93344600Y-82575700D02*
X93192800Y-82727500D01*
X93192800Y-82727500D02*
X77287000Y-82727500D01*
X77287000Y-82727500D02*
X67981800Y-92032700D01*
X67981800Y-92032700D02*
X67981800Y-93924100D01*
X67981800Y-93924100D02*
X66833900Y-95072000D01*
X66833900Y-95072000D02*
X65864000Y-95072000D01*
X150500800Y-96864100D02*
X152292900Y-95072000D01*
X152292900Y-95072000D02*
X153494000Y-95072000D01*
X131904000Y-95072000D02*
X129674700Y-95072000D01*
X129674700Y-95072000D02*
X128721400Y-96025300D01*
X109044000Y-95072000D02*
X108052400Y-95072000D01*
X108052400Y-95072000D02*
X106521900Y-96602500D01*
X93382600Y-66002500D02*
X92078600Y-64698500D01*
X92078600Y-64698500D02*
X85665700Y-64698500D01*
X85665700Y-64698500D02*
X83843300Y-66520900D01*
X83843300Y-66520900D02*
X83843300Y-68019100D01*
X93344600Y-70307200D02*
X93344600Y-66040500D01*
X93344600Y-66040500D02*
X93382600Y-66002500D01*
X87454000Y-97612000D02*
X83880400Y-97612000D01*
X83880400Y-97612000D02*
X83746600Y-97478200D01*
X144194000Y-93802000D02*
X138177600Y-93802000D01*
X138177600Y-93802000D02*
X133959000Y-89583400D01*
X133959000Y-89583400D02*
X128987200Y-89583400D01*
X128987200Y-89583400D02*
X124874400Y-93696200D01*
X124874400Y-93696200D02*
X122709800Y-93696200D01*
X122709800Y-93696200D02*
X122604000Y-93802000D01*
X85724600Y-70307200D02*
X85724600Y-66930500D01*
X85724600Y-66930500D02*
X86652600Y-66002500D01*
X78154000Y-93802000D02*
X81474400Y-93802000D01*
X81474400Y-93802000D02*
X84986700Y-90289700D01*
X84986700Y-90289700D02*
X91365400Y-90289700D01*
X91365400Y-90289700D02*
X94877700Y-93802000D01*
X94877700Y-93802000D02*
X99744000Y-93802000D01*
X56564000Y-93802000D02*
X58282000Y-93802000D01*
X58282000Y-93802000D02*
X59183800Y-94703800D01*
X78154000Y-93802000D02*
X76967600Y-93802000D01*
X76967600Y-93802000D02*
X76127900Y-92962300D01*
X122604000Y-93802000D02*
X116235400Y-93802000D01*
X116235400Y-93802000D02*
X112767100Y-90333700D01*
X112767100Y-90333700D02*
X104863600Y-90333700D01*
X104863600Y-90333700D02*
X101395300Y-93802000D01*
X101395300Y-93802000D02*
X99744000Y-93802000D01*
X80735800Y-89539500D02*
X79919300Y-88723000D01*
X99744000Y-92532000D02*
X94796900Y-92532000D01*
X94796900Y-92532000D02*
X91804400Y-89539500D01*
X91804400Y-89539500D02*
X80735800Y-89539500D01*
X78154000Y-92532000D02*
X79015000Y-92532000D01*
X79015000Y-92532000D02*
X80735800Y-90811200D01*
X80735800Y-90811200D02*
X80735800Y-89539500D01*
X75076500Y-92068000D02*
X75207300Y-91937200D01*
X75207300Y-91937200D02*
X76624300Y-91937200D01*
X76624300Y-91937200D02*
X77219100Y-92532000D01*
X77219100Y-92532000D02*
X78154000Y-92532000D01*
X59078300Y-92454900D02*
X56641100Y-92454900D01*
X56641100Y-92454900D02*
X56564000Y-92532000D01*
X144194000Y-92532000D02*
X137968500Y-92532000D01*
X137968500Y-92532000D02*
X134244900Y-88808400D01*
X134244900Y-88808400D02*
X128638900Y-88808400D01*
X128638900Y-88808400D02*
X124915300Y-92532000D01*
X124915300Y-92532000D02*
X122604000Y-92532000D01*
X99744000Y-92532000D02*
X100809300Y-92532000D01*
X100809300Y-92532000D02*
X103758000Y-89583300D01*
X103758000Y-89583300D02*
X115565600Y-89583300D01*
X115565600Y-89583300D02*
X118514300Y-92532000D01*
X118514300Y-92532000D02*
X122604000Y-92532000D01*
X83184600Y-70307200D02*
X83184600Y-68832100D01*
X83184600Y-68832100D02*
X81698600Y-67346100D01*
X81698600Y-67346100D02*
X81698600Y-66002500D01*
X55259000Y-185350900D02*
X53924000Y-184015900D01*
X53924000Y-184015900D02*
X53924000Y-178410300D01*
X53924000Y-178410300D02*
X56444300Y-175890000D01*
X56444300Y-175890000D02*
X60819000Y-175890000D01*
X112308000Y-177975000D02*
X112308000Y-179362100D01*
X55259000Y-186738000D02*
X55259000Y-185350900D01*
D18*
X158863800Y-218389200D02*
X157266000Y-219987000D01*
X162560000Y-218389200D02*
X158863800Y-218389200D01*
X165811200Y-218389200D02*
X162560000Y-218389200D01*
X152044400Y-204012800D02*
X142748000Y-204012800D01*
X142153000Y-204607800D02*
X142153000Y-205940000D01*
X142748000Y-204012800D02*
X142153000Y-204607800D01*
D17*
X115675602Y-181203600D02*
X117043200Y-181203600D01*
X127268000Y-191428400D02*
X127268000Y-191945000D01*
X117043200Y-181203600D02*
X127268000Y-191428400D01*
X127268000Y-191945000D02*
X127268000Y-191044800D01*
X127268000Y-191044800D02*
X136702800Y-181610000D01*
X63261900Y-173447100D02*
X63280900Y-173447100D01*
X60819000Y-175890000D02*
X63261900Y-173447100D01*
X63280900Y-173447100D02*
X64668400Y-172059600D01*
X71594600Y-172059600D02*
X73243000Y-173708000D01*
X64668400Y-172059600D02*
X71594600Y-172059600D01*
D18*
X73243000Y-173645000D02*
X76657200Y-170230800D01*
X73243000Y-173708000D02*
X73243000Y-173645000D01*
X76657200Y-170230800D02*
X79705200Y-170230800D01*
X83007200Y-166928800D02*
X96367600Y-166928800D01*
X79705200Y-170230800D02*
X83007200Y-166928800D01*
X96367600Y-166928800D02*
X97246000Y-166050400D01*
X97246000Y-166050400D02*
X97246000Y-163929000D01*
X112308000Y-180278400D02*
X112826800Y-180797200D01*
X112308000Y-177975000D02*
X112308000Y-180278400D01*
D17*
X112826800Y-180797200D02*
X112979200Y-180949600D01*
D18*
X112979200Y-180949600D02*
X115421602Y-180949600D01*
X115421602Y-180949600D02*
X115675602Y-181203600D01*
X115421602Y-180949600D02*
X115421602Y-180953602D01*
X116030999Y-181562999D02*
X116710001Y-181562999D01*
X116710001Y-181562999D02*
X124358400Y-189211398D01*
X115421602Y-180953602D02*
X116030999Y-181562999D01*
X124534398Y-189211398D02*
X127268000Y-191945000D01*
X124358400Y-189211398D02*
X124534398Y-189211398D01*
X39181200Y-87373200D02*
X39181200Y-86476000D01*
X39181200Y-86476000D02*
X37795200Y-85090000D01*
X37795200Y-85090000D02*
X35001200Y-85090000D01*
X35001200Y-85090000D02*
X33324800Y-83413600D01*
X33324800Y-83413600D02*
X33324800Y-55067200D01*
X33324800Y-55067200D02*
X35153600Y-53238400D01*
X35153600Y-53238400D02*
X38404800Y-53238400D01*
X39130400Y-53964000D02*
X39130400Y-55826400D01*
X38404800Y-53238400D02*
X39130400Y-53964000D01*
X123476198Y-190093600D02*
X124358400Y-189211398D01*
X121716800Y-190093600D02*
X123476198Y-190093600D01*
X127268000Y-190183000D02*
X136806200Y-180644800D01*
X127268000Y-191945000D02*
X127268000Y-190183000D01*
X136806200Y-180644800D02*
X141732000Y-180644800D01*
X145501100Y-175703600D02*
X146784700Y-176987200D01*
X146784700Y-176987200D02*
X152958800Y-176987200D01*
X152958800Y-176987200D02*
X153162000Y-176784000D01*
X156074000Y-176784000D02*
X157240000Y-177950000D01*
X153162000Y-176784000D02*
X156074000Y-176784000D01*
X157240000Y-179084000D02*
X157240000Y-177950000D01*
X158648400Y-180492400D02*
X157240000Y-179084000D01*
X168910000Y-180492400D02*
X158648400Y-180492400D01*
X169418000Y-181000400D02*
X169418000Y-180949600D01*
X174193200Y-185775600D02*
X169418000Y-181000400D01*
X169418000Y-181000400D02*
X168910000Y-180492400D01*
X165303200Y-176834800D02*
X165303200Y-176479200D01*
X169418000Y-180949600D02*
X165303200Y-176834800D01*
X160138000Y-133096000D02*
X161812000Y-134770000D01*
X157327600Y-133096000D02*
X160138000Y-133096000D01*
X155956000Y-140462000D02*
X155956000Y-134467600D01*
X155956000Y-134467600D02*
X157327600Y-133096000D01*
X161280003Y-142132001D02*
X157626001Y-142132001D01*
X157626001Y-142132001D02*
X155956000Y-140462000D01*
X167640000Y-148491998D02*
X161280003Y-142132001D01*
X167640000Y-150876000D02*
X167640000Y-148491998D01*
X103073200Y-145338800D02*
X74574400Y-145338800D01*
X73395000Y-146518200D02*
X73395000Y-147749000D01*
X74574400Y-145338800D02*
X73395000Y-146518200D01*
D17*
X160207010Y-133026990D02*
X160138000Y-133096000D01*
X160207010Y-126778820D02*
X160207010Y-133026990D01*
X159870180Y-126441990D02*
X160207010Y-126778820D01*
X153732010Y-126441990D02*
X159870180Y-126441990D01*
X145404000Y-134770000D02*
X153732010Y-126441990D01*
X174193200Y-210969660D02*
X173507400Y-211655460D01*
D18*
X174193200Y-185775600D02*
X174193200Y-210969660D01*
X166773660Y-218389200D02*
X173507400Y-211655460D01*
X165811200Y-218389200D02*
X166773660Y-218389200D01*
X173507400Y-222272460D02*
X166477080Y-222272460D01*
X166460170Y-222289370D02*
X162560000Y-218389200D01*
D17*
X166477080Y-222272460D02*
X166460170Y-222289370D01*
X42130400Y-56476400D02*
X42130400Y-57863500D01*
X65864000Y-98882000D02*
X65010700Y-98882000D01*
X65010700Y-98882000D02*
X64102300Y-97973600D01*
X64102300Y-97973600D02*
X64102300Y-86781500D01*
X64102300Y-86781500D02*
X45243200Y-67922400D01*
X45243200Y-67922400D02*
X45243200Y-60976300D01*
X45243200Y-60976300D02*
X42130400Y-57863500D01*
X65864000Y-100152000D02*
X64958600Y-100152000D01*
X64958600Y-100152000D02*
X63209300Y-98402700D01*
X63209300Y-98402700D02*
X63209300Y-89356400D01*
X63209300Y-89356400D02*
X42232000Y-68379100D01*
X42232000Y-66992000D02*
X42232000Y-68379100D01*
X39145600Y-82657600D02*
X39145600Y-81270500D01*
X45328200Y-81742300D02*
X44206300Y-80620400D01*
X44206300Y-80620400D02*
X39795700Y-80620400D01*
X39795700Y-80620400D02*
X39145600Y-81270500D01*
X65864000Y-101422000D02*
X65009200Y-101422000D01*
X65009200Y-101422000D02*
X64177900Y-100590700D01*
X64177900Y-100590700D02*
X64177900Y-100494300D01*
X64177900Y-100494300D02*
X62459200Y-98775600D01*
X62459200Y-98775600D02*
X62459200Y-91203700D01*
X62459200Y-91203700D02*
X48763100Y-77507600D01*
X48763100Y-77507600D02*
X42145600Y-77507600D01*
X58204800Y-88023200D02*
X42181200Y-88023200D01*
X60124300Y-89929600D02*
X60111200Y-89929600D01*
X61603600Y-91408900D02*
X60124300Y-89929600D01*
X61603600Y-93552300D02*
X61603600Y-91408900D01*
X61709100Y-93657800D02*
X61603600Y-93552300D01*
X61709100Y-99164600D02*
X61709100Y-93657800D01*
X60111200Y-89929600D02*
X58204800Y-88023200D01*
X64064100Y-101594700D02*
X64064100Y-101519600D01*
X64064100Y-101519600D02*
X61709100Y-99164600D01*
X64193200Y-101723800D02*
X64064100Y-101594700D01*
X64193200Y-102496400D02*
X64193200Y-101723800D01*
X64388800Y-102692000D02*
X64193200Y-102496400D01*
X65864000Y-102692000D02*
X64388800Y-102692000D01*
X64134800Y-103962000D02*
X65864000Y-103962000D01*
X63443100Y-103270300D02*
X64134800Y-103962000D01*
X60959000Y-99550400D02*
X63443100Y-102034500D01*
X60959000Y-93968500D02*
X60959000Y-99550400D01*
X60853500Y-91719600D02*
X60853500Y-93863000D01*
X58135500Y-89001600D02*
X60853500Y-91719600D01*
X53035200Y-89001600D02*
X58135500Y-89001600D01*
X60853500Y-93863000D02*
X60959000Y-93968500D01*
X52125450Y-89920650D02*
X52125450Y-89911350D01*
X43507300Y-98538800D02*
X52125450Y-89920650D01*
X63443100Y-102034500D02*
X63443100Y-103270300D01*
X52125450Y-89911350D02*
X53035200Y-89001600D01*
X42120200Y-98538800D02*
X43507300Y-98538800D01*
X39130400Y-112766900D02*
X39780500Y-112116800D01*
X39780500Y-112116800D02*
X44074800Y-112116800D01*
X44074800Y-112116800D02*
X45252000Y-113294000D01*
X39130400Y-114154000D02*
X39130400Y-112766900D01*
X63576000Y-105232000D02*
X65864000Y-105232000D01*
X62693000Y-104349000D02*
X63576000Y-105232000D01*
X62693000Y-102438000D02*
X62693000Y-104349000D01*
X42130400Y-109004000D02*
X42130400Y-107616900D01*
X57989100Y-89916000D02*
X60103400Y-92030300D01*
X42130400Y-107616900D02*
X40733000Y-106219500D01*
X40733000Y-106219500D02*
X40733000Y-101951500D01*
X60103400Y-94173700D02*
X60208900Y-94279200D01*
X41032900Y-101651600D02*
X42512100Y-101651600D01*
X42512100Y-101651600D02*
X53412850Y-90750850D01*
X53412850Y-90750850D02*
X53419550Y-90750850D01*
X60103400Y-92030300D02*
X60103400Y-94173700D01*
X60208900Y-99953900D02*
X62693000Y-102438000D01*
X53419550Y-90750850D02*
X54254400Y-89916000D01*
X40733000Y-101951500D02*
X41032900Y-101651600D01*
X54254400Y-89916000D02*
X57989100Y-89916000D01*
X60208900Y-94279200D02*
X60208900Y-99953900D01*
X176072800Y-57099200D02*
X175500800Y-56527200D01*
X176072800Y-62484000D02*
X176072800Y-57099200D01*
X174547200Y-64009600D02*
X176072800Y-62484000D01*
X175500800Y-56527200D02*
X174312000Y-56527200D01*
X65864000Y-106502000D02*
X66801900Y-106502000D01*
X96846000Y-84365400D02*
X98437400Y-82774000D01*
X66801900Y-106502000D02*
X67605000Y-105698900D01*
X67605000Y-105698900D02*
X67605000Y-98017200D01*
X67605000Y-98017200D02*
X71801100Y-93821100D01*
X71801100Y-93821100D02*
X71801100Y-90472700D01*
X132160700Y-82023900D02*
X150175000Y-64009600D01*
X71801100Y-90472700D02*
X77908400Y-84365400D01*
X77908400Y-84365400D02*
X96846000Y-84365400D01*
X98437400Y-82774000D02*
X116269900Y-82774000D01*
X116269900Y-82774000D02*
X117020000Y-82023900D01*
X117020000Y-82023900D02*
X132160700Y-82023900D01*
X150175000Y-64009600D02*
X174547200Y-64009600D01*
X66758800Y-107772000D02*
X65864000Y-107772000D01*
X174312000Y-66992000D02*
X174312000Y-68308800D01*
X147633900Y-69240400D02*
X134100300Y-82774000D01*
X174312000Y-68308800D02*
X173380400Y-69240400D01*
X173380400Y-69240400D02*
X147633900Y-69240400D01*
X78310200Y-85115500D02*
X72551200Y-90874500D01*
X134100300Y-82774000D02*
X117330800Y-82774000D01*
X99808900Y-83524100D02*
X98217500Y-85115500D01*
X68355100Y-106175700D02*
X66758800Y-107772000D01*
X116580700Y-83524100D02*
X99808900Y-83524100D01*
X72551200Y-94131900D02*
X68355100Y-98328000D01*
X117330800Y-82774000D02*
X116580700Y-83524100D01*
X98217500Y-85115500D02*
X78310200Y-85115500D01*
X72551200Y-90874500D02*
X72551200Y-94131900D01*
X68355100Y-98328000D02*
X68355100Y-106175700D01*
X162775400Y-83045800D02*
X162801800Y-83045800D01*
X161543000Y-81813400D02*
X162775400Y-83045800D01*
X162801800Y-83045800D02*
X164185600Y-84429600D01*
X164185600Y-84429600D02*
X170840400Y-84429600D01*
X171276000Y-83994000D02*
X171276000Y-82657600D01*
X170840400Y-84429600D02*
X171276000Y-83994000D01*
X174276000Y-79165200D02*
X174276000Y-77507600D01*
X173939200Y-79502000D02*
X174276000Y-79165200D01*
X165963600Y-79502000D02*
X173939200Y-79502000D01*
X165667100Y-79205500D02*
X165963600Y-79502000D01*
X139893800Y-79205500D02*
X165667100Y-79205500D01*
X135575100Y-83524200D02*
X139893800Y-79205500D01*
X56564000Y-107772000D02*
X63438100Y-107772000D01*
X64378200Y-108712100D02*
X67054600Y-108712100D01*
X101195200Y-84274200D02*
X116891400Y-84274200D01*
X67054600Y-108712100D02*
X69105200Y-106661500D01*
X69105200Y-106661500D02*
X69105200Y-100199200D01*
X73301300Y-96003100D02*
X73301300Y-91262000D01*
X116891400Y-84274200D02*
X117641400Y-83524200D01*
X63438100Y-107772000D02*
X64378200Y-108712100D01*
X69105200Y-100199200D02*
X73301300Y-96003100D01*
X73301300Y-91262000D02*
X78674300Y-85889000D01*
X99580400Y-85889000D02*
X101195200Y-84274200D01*
X78674300Y-85889000D02*
X99580400Y-85889000D01*
X117641400Y-83524200D02*
X135575100Y-83524200D01*
X56564000Y-106502000D02*
X57420900Y-106502000D01*
X57420900Y-106502000D02*
X59764400Y-104158500D01*
X174261000Y-89035400D02*
X174261000Y-88023200D01*
X157486100Y-87255400D02*
X159641100Y-89410400D01*
X101241100Y-87255400D02*
X157486100Y-87255400D01*
X173886000Y-89410400D02*
X174261000Y-89035400D01*
X100833000Y-87663500D02*
X101241100Y-87255400D01*
X79478800Y-87663500D02*
X100833000Y-87663500D01*
X159641100Y-89410400D02*
X173886000Y-89410400D01*
X77224800Y-89917500D02*
X79478800Y-87663500D01*
X55296000Y-105232000D02*
X56564000Y-105232000D01*
X54911700Y-108281100D02*
X54911700Y-105616300D01*
X63224100Y-108722200D02*
X55352800Y-108722200D01*
X176837400Y-88167300D02*
X174576200Y-85906100D01*
X174576200Y-85906100D02*
X167775000Y-85906100D01*
X54911700Y-105616300D02*
X55296000Y-105232000D01*
X167775000Y-85906100D02*
X167420700Y-86260400D01*
X167420700Y-86260400D02*
X100644700Y-86260400D01*
X100644700Y-86260400D02*
X100266000Y-86639100D01*
X67365300Y-109462200D02*
X63964100Y-109462200D01*
X100266000Y-86639100D02*
X79037200Y-86639100D01*
X69855300Y-106972200D02*
X67365300Y-109462200D01*
X79037200Y-86639100D02*
X74051400Y-91624900D01*
X74051400Y-91624900D02*
X74051400Y-96417200D01*
X55352800Y-108722200D02*
X54911700Y-108281100D01*
X74051400Y-96417200D02*
X69855300Y-100613300D01*
X69855300Y-100613300D02*
X69855300Y-106972200D01*
X63964100Y-109462200D02*
X63224100Y-108722200D01*
X161709000Y-113297000D02*
X164693200Y-116281200D01*
X164693200Y-116281200D02*
X170942000Y-116281200D01*
X171261000Y-115962200D02*
X171261000Y-114154000D01*
X170942000Y-116281200D02*
X171261000Y-115962200D01*
X56564000Y-103962000D02*
X58495300Y-103962000D01*
X58495300Y-103962000D02*
X59884700Y-102572600D01*
X95653600Y-91494900D02*
X98259100Y-88889400D01*
X98259100Y-88889400D02*
X101198100Y-88889400D01*
X101198100Y-88889400D02*
X102049000Y-88038500D01*
X102049000Y-88038500D02*
X136340600Y-88038500D01*
X136340600Y-88038500D02*
X138638300Y-90336200D01*
X138638300Y-90336200D02*
X174560200Y-90336200D01*
X174560200Y-90336200D02*
X175801200Y-91577200D01*
X175801200Y-91577200D02*
X175801200Y-106076700D01*
X175801200Y-106076700D02*
X174261000Y-107616900D01*
X174261000Y-109004000D02*
X174261000Y-107616900D01*
X53365600Y-98882000D02*
X56564000Y-98882000D01*
X52547700Y-118891700D02*
X52547700Y-99699900D01*
X52547700Y-99699900D02*
X53365600Y-98882000D01*
X67539700Y-133883700D02*
X52547700Y-118891700D01*
X70017400Y-133883700D02*
X67539700Y-133883700D01*
X70468300Y-133432800D02*
X70017400Y-133883700D01*
X112387000Y-135445000D02*
X112387000Y-137041000D01*
X92816200Y-136283100D02*
X92816200Y-133799100D01*
X103538500Y-136456900D02*
X103538500Y-136440700D01*
X112166400Y-137261600D02*
X104343200Y-137261600D01*
X104343200Y-137261600D02*
X103538500Y-136456900D01*
X102787000Y-135689200D02*
X96702100Y-135689200D01*
X112387000Y-137041000D02*
X112166400Y-137261600D01*
X103538500Y-136440700D02*
X102787000Y-135689200D01*
X96702100Y-135689200D02*
X95534100Y-136857200D01*
X95534100Y-136857200D02*
X93390300Y-136857200D01*
X93390300Y-136857200D02*
X92816200Y-136283100D01*
X92816200Y-133799100D02*
X92449900Y-133432800D01*
X92449900Y-133432800D02*
X70468300Y-133432800D01*
X53975200Y-100152000D02*
X56564000Y-100152000D01*
X53317600Y-100809600D02*
X53975200Y-100152000D01*
X67850400Y-133133500D02*
X53317600Y-118600700D01*
X68773800Y-133133500D02*
X67850400Y-133133500D01*
X69251800Y-132655500D02*
X68773800Y-133133500D01*
X93001600Y-132655500D02*
X69251800Y-132655500D01*
X53317600Y-118600700D02*
X53317600Y-100809600D01*
X94429000Y-134082900D02*
X93001600Y-132655500D01*
X94429000Y-135470000D02*
X94429000Y-134082900D01*
X56564000Y-101422000D02*
X60225700Y-101422000D01*
X60225700Y-101422000D02*
X61500600Y-102696900D01*
X54534000Y-102692000D02*
X56564000Y-102692000D01*
X54116400Y-103109600D02*
X54534000Y-102692000D01*
X54116400Y-116179600D02*
X54116400Y-103109600D01*
X57458100Y-119521300D02*
X54116400Y-116179600D01*
X68656500Y-129290400D02*
X70492800Y-129290400D01*
X70492800Y-129290400D02*
X87454000Y-112329200D01*
X87454000Y-112329200D02*
X87454000Y-107772000D01*
X58285000Y-161328000D02*
X58285000Y-161018600D01*
X59191600Y-160112000D02*
X61204400Y-160112000D01*
X58285000Y-161018600D02*
X59191600Y-160112000D01*
X64474800Y-160112000D02*
X61204400Y-160112000D01*
X87454000Y-106502000D02*
X88308100Y-106502000D01*
X88308100Y-106502000D02*
X89396500Y-107590400D01*
X89396500Y-107590400D02*
X89396500Y-110062400D01*
X89396500Y-110062400D02*
X91037100Y-111703000D01*
X101738500Y-117273100D02*
X94646600Y-110181200D01*
X116085200Y-117273100D02*
X101738500Y-117273100D01*
X132509800Y-136950100D02*
X132509800Y-133697700D01*
X141920700Y-146361000D02*
X132509800Y-136950100D01*
X147072200Y-146361000D02*
X141920700Y-146361000D01*
X132509800Y-133697700D02*
X116085200Y-117273100D01*
X148429000Y-147717800D02*
X147072200Y-146361000D01*
X148429000Y-148424000D02*
X148429000Y-147717800D01*
X87454000Y-105232000D02*
X88405100Y-105232000D01*
X88405100Y-105232000D02*
X90146600Y-106973500D01*
X90146600Y-106973500D02*
X90146600Y-109312400D01*
X90146600Y-109312400D02*
X91739800Y-110905600D01*
X91739800Y-110905600D02*
X92860300Y-110905600D01*
X92860300Y-110905600D02*
X92860300Y-110905700D01*
X92860300Y-110905700D02*
X100727900Y-118773300D01*
X100727900Y-118773300D02*
X105158000Y-118773300D01*
X105158000Y-118773300D02*
X112029200Y-125644500D01*
X112029200Y-125644500D02*
X121202400Y-125644500D01*
X121202400Y-125644500D02*
X128906900Y-133349000D01*
X128906900Y-133349000D02*
X128906900Y-145649800D01*
X128906900Y-145649800D02*
X130294000Y-147036900D01*
X130294000Y-148424000D02*
X130294000Y-147036900D01*
X112412000Y-147036900D02*
X109558000Y-144182900D01*
X109558000Y-144182900D02*
X66246200Y-144182900D01*
X112412000Y-148424000D02*
X112412000Y-147036900D01*
X87454000Y-103962000D02*
X86578900Y-103962000D01*
X86578900Y-103962000D02*
X85795800Y-104745100D01*
X85795800Y-104745100D02*
X85795800Y-108275700D01*
X85795800Y-108275700D02*
X86459700Y-108939600D01*
X86459700Y-108939600D02*
X86459700Y-112262600D01*
X86459700Y-112262600D02*
X72002000Y-126720300D01*
X72002000Y-126720300D02*
X70941200Y-126720300D01*
X87454000Y-102692000D02*
X88336400Y-102692000D01*
X88336400Y-102692000D02*
X91130300Y-105485900D01*
X91130300Y-105485900D02*
X91130300Y-108817200D01*
X91130300Y-108817200D02*
X91704600Y-109391500D01*
X87454000Y-101422000D02*
X85807400Y-101422000D01*
X85807400Y-101422000D02*
X85110100Y-102119300D01*
X87454000Y-100152000D02*
X85627800Y-100152000D01*
X85627800Y-100152000D02*
X84085000Y-101694800D01*
X84085000Y-101694800D02*
X84085000Y-107625800D01*
X84085000Y-107625800D02*
X85682400Y-109223200D01*
X85682400Y-109223200D02*
X85682400Y-111979000D01*
X85682400Y-111979000D02*
X80515100Y-117146300D01*
X80515100Y-117146300D02*
X78097500Y-117146300D01*
X78097500Y-117146300D02*
X68677400Y-126566400D01*
X58310000Y-148399000D02*
X59697100Y-148399000D01*
X59697100Y-148399000D02*
X61931300Y-146164800D01*
X61931300Y-146164800D02*
X63061900Y-146164800D01*
X87454000Y-98882000D02*
X88383600Y-98882000D01*
X88383600Y-98882000D02*
X91880400Y-102378800D01*
X91880400Y-102378800D02*
X91880400Y-107420700D01*
X91880400Y-107420700D02*
X93610400Y-109150700D01*
X93610400Y-109150700D02*
X93610400Y-110595000D01*
X93610400Y-110595000D02*
X101038600Y-118023200D01*
X101038600Y-118023200D02*
X105623800Y-118023200D01*
X105623800Y-118023200D02*
X112443300Y-124842700D01*
X112443300Y-124842700D02*
X121461500Y-124842700D01*
X121461500Y-124842700D02*
X130370000Y-133751200D01*
X130370000Y-133751200D02*
X130370000Y-134032900D01*
X130370000Y-135420000D02*
X130370000Y-134032900D01*
X78154000Y-98882000D02*
X77214900Y-98882000D01*
X77214900Y-98882000D02*
X74982500Y-101114400D01*
X74982500Y-101114400D02*
X74982500Y-102066900D01*
X78154000Y-100152000D02*
X79086200Y-100152000D01*
X79086200Y-100152000D02*
X82530200Y-103596000D01*
X82530200Y-103596000D02*
X82530200Y-112004800D01*
X82530200Y-112004800D02*
X78138900Y-116396100D01*
X78138900Y-116396100D02*
X77398100Y-116396100D01*
X77398100Y-116396100D02*
X67619400Y-126174800D01*
X67619400Y-126174800D02*
X67619400Y-131378600D01*
X67619400Y-131378600D02*
X68349200Y-132108400D01*
X78154000Y-101422000D02*
X79010000Y-101422000D01*
X79010000Y-101422000D02*
X81446500Y-103858500D01*
X81446500Y-103858500D02*
X81446500Y-107380500D01*
X73505900Y-105342100D02*
X76156000Y-102692000D01*
X76156000Y-102692000D02*
X78154000Y-102692000D01*
X70647500Y-109803200D02*
X72512300Y-107938400D01*
X72512300Y-107938400D02*
X72512300Y-107514200D01*
X72512300Y-107514200D02*
X73659300Y-106367200D01*
X73659300Y-106367200D02*
X73930500Y-106367200D01*
X73930500Y-106367200D02*
X76335700Y-103962000D01*
X76335700Y-103962000D02*
X78154000Y-103962000D01*
X78154000Y-105232000D02*
X79085400Y-105232000D01*
X79085400Y-105232000D02*
X79804800Y-105951400D01*
X79804800Y-105951400D02*
X79804800Y-111152800D01*
X79804800Y-111152800D02*
X79517800Y-111439800D01*
X78154000Y-106502000D02*
X74974100Y-106502000D01*
X74974100Y-106502000D02*
X73537400Y-107938700D01*
X78154000Y-107772000D02*
X74481800Y-111444200D01*
X74481800Y-111444200D02*
X71225200Y-111444200D01*
X109044000Y-107772000D02*
X106938700Y-107772000D01*
X106938700Y-107772000D02*
X104413800Y-110296900D01*
X104413800Y-110296900D02*
X104413800Y-112434700D01*
X104413800Y-112434700D02*
X105501600Y-113522500D01*
X105501600Y-113522500D02*
X118913100Y-113522500D01*
X118913100Y-113522500D02*
X132079400Y-126688800D01*
X132079400Y-126688800D02*
X143917900Y-126688800D01*
X109044000Y-106502000D02*
X109987300Y-106502000D01*
X109987300Y-106502000D02*
X110748900Y-107263600D01*
X110748900Y-107263600D02*
X110748900Y-110773100D01*
X110748900Y-110773100D02*
X110244700Y-111277300D01*
X116523500Y-118843700D02*
X110244700Y-118843700D01*
X131759700Y-134079900D02*
X116523500Y-118843700D01*
X131759700Y-150231100D02*
X131759700Y-134079900D01*
X129511800Y-150622000D02*
X131368800Y-150622000D01*
X131368800Y-150622000D02*
X131759700Y-150231100D01*
X128906900Y-151226900D02*
X129511800Y-150622000D01*
X109044000Y-105232000D02*
X107419400Y-105232000D01*
X107419400Y-105232000D02*
X107114800Y-105536600D01*
X116593900Y-128761700D02*
X120956300Y-128761700D01*
X120956300Y-128761700D02*
X122099000Y-129904400D01*
X122099000Y-129904400D02*
X122099000Y-131780000D01*
X122099000Y-131780000D02*
X121672900Y-132206100D01*
X121672900Y-132206100D02*
X106844200Y-132206100D01*
X109044000Y-103962000D02*
X110014100Y-103962000D01*
X110014100Y-103962000D02*
X111846100Y-105794000D01*
X111846100Y-105794000D02*
X111846100Y-111735500D01*
X109044000Y-102692000D02*
X108109300Y-102692000D01*
X108109300Y-102692000D02*
X101722100Y-109079200D01*
X101722100Y-109079200D02*
X100596100Y-109079200D01*
X109044000Y-101422000D02*
X104623100Y-101422000D01*
X104623100Y-101422000D02*
X102022100Y-98821000D01*
X55619100Y-235600000D02*
X59046600Y-232172500D01*
X59046600Y-232172500D02*
X90782500Y-232172500D01*
X90782500Y-232172500D02*
X94994800Y-227960200D01*
X94994800Y-227960200D02*
X118500100Y-227960200D01*
X109044000Y-100152000D02*
X109972600Y-100152000D01*
X109972600Y-100152000D02*
X117318300Y-107497700D01*
X117318300Y-107497700D02*
X117318300Y-109685100D01*
X117318300Y-109685100D02*
X130997300Y-123364100D01*
X130997300Y-123364100D02*
X132886200Y-123364100D01*
X54232000Y-235600000D02*
X55619100Y-235600000D01*
X118500100Y-227960200D02*
X123166750Y-223293550D01*
X123166750Y-223293550D02*
X123166750Y-223289250D01*
X123166750Y-223289250D02*
X124002800Y-222453200D01*
X131622300Y-222453200D02*
X132992000Y-221083500D01*
X124002800Y-222453200D02*
X131622300Y-222453200D01*
X109044000Y-98882000D02*
X105146800Y-98882000D01*
X105146800Y-98882000D02*
X104374800Y-99654000D01*
X104028500Y-120190400D02*
X110232800Y-126394700D01*
X110232800Y-126394700D02*
X120891700Y-126394700D01*
X120891700Y-126394700D02*
X123632800Y-129135800D01*
X123632800Y-129135800D02*
X123632800Y-133442600D01*
X123632800Y-133442600D02*
X118932900Y-138142500D01*
X99744000Y-98882000D02*
X100614300Y-98882000D01*
X100614300Y-98882000D02*
X104028500Y-102296200D01*
X99744000Y-100152000D02*
X98815400Y-100152000D01*
X98815400Y-100152000D02*
X92992300Y-105975100D01*
X92992300Y-105975100D02*
X92992300Y-107082600D01*
X148437800Y-145973300D02*
X147226800Y-144762300D01*
X147226800Y-144762300D02*
X141394300Y-144762300D01*
X141394300Y-144762300D02*
X133259900Y-136627900D01*
X133259900Y-136627900D02*
X133259900Y-133361500D01*
X133259900Y-133361500D02*
X116421400Y-116523000D01*
X116421400Y-116523000D02*
X102178100Y-116523000D01*
X102178100Y-116523000D02*
X95671700Y-110016600D01*
X95671700Y-110016600D02*
X95671700Y-109756600D01*
X95671700Y-109756600D02*
X95286800Y-109371700D01*
X95286800Y-109371700D02*
X95286800Y-105015000D01*
X95286800Y-105015000D02*
X98879800Y-101422000D01*
X98879800Y-101422000D02*
X99744000Y-101422000D01*
X148493800Y-175703600D02*
X158730700Y-175703600D01*
X158730700Y-175703600D02*
X160240000Y-177212900D01*
X160240000Y-178600000D02*
X160240000Y-177212900D01*
X99744000Y-102692000D02*
X98846400Y-102692000D01*
X98846400Y-102692000D02*
X96040500Y-105497900D01*
X96040500Y-105497900D02*
X96040500Y-109064600D01*
X96040500Y-109064600D02*
X96421800Y-109445900D01*
X96421800Y-109445900D02*
X96421800Y-109696200D01*
X96421800Y-109696200D02*
X102498500Y-115772900D01*
X102498500Y-115772900D02*
X116783200Y-115772900D01*
X116783200Y-115772900D02*
X134010000Y-132999700D01*
X134010000Y-132999700D02*
X134010000Y-135880400D01*
X134010000Y-135880400D02*
X140678400Y-142548800D01*
X128957900Y-156028800D02*
X133466600Y-156028800D01*
X133466600Y-156028800D02*
X138705200Y-150790200D01*
X138705200Y-150790200D02*
X148553000Y-150790200D01*
X148553000Y-150790200D02*
X149819500Y-149523700D01*
X149819500Y-149523700D02*
X149819500Y-145832800D01*
X149819500Y-145832800D02*
X147150300Y-143163600D01*
X147150300Y-143163600D02*
X143121500Y-143163600D01*
X143121500Y-143163600D02*
X137015900Y-137058000D01*
X137015900Y-137058000D02*
X137015900Y-134900600D01*
X137015900Y-134900600D02*
X117138100Y-115022800D01*
X117138100Y-115022800D02*
X102836600Y-115022800D01*
X102836600Y-115022800D02*
X97171900Y-109358100D01*
X97171900Y-109358100D02*
X97171900Y-109135200D01*
X97171900Y-109135200D02*
X96790700Y-108754000D01*
X96790700Y-108754000D02*
X96790700Y-106058100D01*
X96790700Y-106058100D02*
X98886800Y-103962000D01*
X98886800Y-103962000D02*
X99744000Y-103962000D01*
X102319100Y-120564400D02*
X109122900Y-127368200D01*
X109122900Y-127368200D02*
X120703200Y-127368200D01*
X120703200Y-127368200D02*
X122879000Y-129544000D01*
X122879000Y-129544000D02*
X122879000Y-132746500D01*
X122879000Y-132746500D02*
X116644200Y-138981300D01*
X99744000Y-105232000D02*
X100684500Y-105232000D01*
X100684500Y-105232000D02*
X102319100Y-106866600D01*
X97815900Y-107208400D02*
X98522300Y-106502000D01*
X98522300Y-106502000D02*
X99744000Y-106502000D01*
X160266000Y-163242900D02*
X152700200Y-155677100D01*
X152700200Y-155677100D02*
X152700200Y-146783100D01*
X152700200Y-146783100D02*
X147004800Y-141087700D01*
X147004800Y-141087700D02*
X147004800Y-138788900D01*
X137273500Y-127921600D02*
X132037800Y-127921600D01*
X132037800Y-127921600D02*
X118388800Y-114272600D01*
X118388800Y-114272600D02*
X103158500Y-114272600D01*
X103158500Y-114272600D02*
X99566800Y-110680900D01*
X99566800Y-110680900D02*
X99566800Y-107949200D01*
X99566800Y-107949200D02*
X99744000Y-107772000D01*
X160266000Y-164630000D02*
X160266000Y-163242900D01*
X139448350Y-130096450D02*
X139448350Y-135943150D01*
X139448350Y-130096450D02*
X137273500Y-127921600D01*
X141307050Y-137801850D02*
X146017750Y-137801850D01*
X139448350Y-135943150D02*
X141307050Y-137801850D01*
X147004800Y-138788900D02*
X146017750Y-137801850D01*
X131904000Y-107772000D02*
X138185400Y-114053400D01*
X138185400Y-114053400D02*
X144364900Y-114053400D01*
X144364900Y-114053400D02*
X150998200Y-120686700D01*
X144706800Y-117597700D02*
X139599100Y-117597700D01*
X139599100Y-117597700D02*
X130244400Y-108243000D01*
X130244400Y-108243000D02*
X130244400Y-107296300D01*
X130244400Y-107296300D02*
X131038700Y-106502000D01*
X131038700Y-106502000D02*
X131904000Y-106502000D01*
X131904000Y-105232000D02*
X131046800Y-105232000D01*
X131046800Y-105232000D02*
X129448600Y-106830200D01*
X129448600Y-106830200D02*
X129448600Y-108508100D01*
X129448600Y-108508100D02*
X130135900Y-109195400D01*
X130135900Y-109195400D02*
X130135900Y-112685600D01*
X130135900Y-112685600D02*
X129854500Y-112967000D01*
X130294000Y-206590000D02*
X130294000Y-205202900D01*
X130294000Y-205202900D02*
X125099200Y-200008100D01*
X125099200Y-200008100D02*
X123273700Y-200008100D01*
X131904000Y-103962000D02*
X130993600Y-103962000D01*
X130993600Y-103962000D02*
X127254000Y-107701600D01*
X127254000Y-107701600D02*
X127254000Y-111689500D01*
X127254000Y-111689500D02*
X126464300Y-112479200D01*
X126464300Y-112479200D02*
X124789200Y-112479200D01*
X124789200Y-112479200D02*
X124106100Y-111796100D01*
X131904000Y-102692000D02*
X132761700Y-102692000D01*
X132761700Y-102692000D02*
X134777600Y-104707900D01*
X135802800Y-199511100D02*
X125999200Y-199511100D01*
X125999200Y-199511100D02*
X125471100Y-198983000D01*
X125471100Y-198983000D02*
X122849200Y-198983000D01*
X122849200Y-198983000D02*
X122673200Y-199159000D01*
X122673200Y-199159000D02*
X108886100Y-199159000D01*
X108886100Y-199159000D02*
X101480100Y-206565000D01*
X100093000Y-206565000D02*
X101480100Y-206565000D01*
X160240000Y-192570000D02*
X160240000Y-191182900D01*
X131904000Y-101422000D02*
X130820100Y-101422000D01*
X130820100Y-101422000D02*
X129969200Y-100571100D01*
X160240000Y-191182900D02*
X155252600Y-186195500D01*
X155252600Y-186195500D02*
X141860800Y-186195500D01*
X131904000Y-100152000D02*
X132793700Y-100152000D01*
X132793700Y-100152000D02*
X135874200Y-103232500D01*
X135874200Y-103232500D02*
X135874200Y-103351100D01*
X131904000Y-98882000D02*
X132858400Y-98882000D01*
X132858400Y-98882000D02*
X136913000Y-102936600D01*
X136913000Y-102936600D02*
X136913000Y-108239400D01*
X136913000Y-108239400D02*
X135989500Y-109162900D01*
X131655100Y-192595000D02*
X135830000Y-188420100D01*
X135830000Y-188420100D02*
X136552900Y-188420100D01*
X130268000Y-192595000D02*
X131655100Y-192595000D01*
X122604000Y-98882000D02*
X126626800Y-98882000D01*
X126626800Y-98882000D02*
X127782200Y-100037400D01*
X122604000Y-100152000D02*
X125502500Y-100152000D01*
X125502500Y-100152000D02*
X125978600Y-100628100D01*
X122604000Y-101422000D02*
X119864200Y-101422000D01*
X119864200Y-101422000D02*
X119420200Y-101866000D01*
X152587400Y-123729500D02*
X151072300Y-123729500D01*
X151072300Y-123729500D02*
X146727500Y-119384700D01*
X146727500Y-119384700D02*
X128089500Y-119384700D01*
X128089500Y-119384700D02*
X119377400Y-110672600D01*
X119377400Y-110672600D02*
X119377400Y-105067000D01*
X119377400Y-105067000D02*
X121752400Y-102692000D01*
X121752400Y-102692000D02*
X122604000Y-102692000D01*
X122604000Y-103962000D02*
X121669900Y-103962000D01*
X121669900Y-103962000D02*
X120127600Y-105504300D01*
X120127600Y-105504300D02*
X120127600Y-110361900D01*
X120127600Y-110361900D02*
X128390200Y-118624500D01*
X128390200Y-118624500D02*
X147486300Y-118624500D01*
X147486300Y-118624500D02*
X149683200Y-120821400D01*
X122604000Y-105232000D02*
X121746600Y-105232000D01*
X121746600Y-105232000D02*
X120927100Y-106051500D01*
X120927100Y-106051500D02*
X120927100Y-110087300D01*
X120927100Y-110087300D02*
X128704700Y-117864900D01*
X128704700Y-117864900D02*
X131369300Y-117864900D01*
X131369300Y-117864900D02*
X131650700Y-117583500D01*
X122604000Y-106502000D02*
X124756600Y-106502000D01*
X124756600Y-106502000D02*
X126198000Y-107943400D01*
X126198000Y-107943400D02*
X126198000Y-108758300D01*
X122604000Y-107772000D02*
X124539000Y-107772000D01*
X124539000Y-107772000D02*
X124928400Y-108161400D01*
X153494000Y-107772000D02*
X151852800Y-107772000D01*
X151852800Y-107772000D02*
X151562500Y-107481700D01*
X146104100Y-108632000D02*
X146107900Y-108632000D01*
X146107900Y-108632000D02*
X147486900Y-107253000D01*
X147486900Y-107253000D02*
X150063600Y-107253000D01*
X150063600Y-107253000D02*
X150896300Y-106420300D01*
X150896300Y-106420300D02*
X153412300Y-106420300D01*
X153412300Y-106420300D02*
X153494000Y-106502000D01*
X153494000Y-105232000D02*
X150106700Y-105232000D01*
X150106700Y-105232000D02*
X149070800Y-104196100D01*
X58259000Y-187388000D02*
X59646100Y-187388000D01*
X59646100Y-187388000D02*
X66081500Y-180952600D01*
X66081500Y-180952600D02*
X88363800Y-180952600D01*
X88363800Y-180952600D02*
X96919500Y-172396900D01*
X96919500Y-172396900D02*
X100099400Y-172396900D01*
X126160000Y-167716900D02*
X128879600Y-164997300D01*
X100849500Y-171646800D02*
X116217000Y-171646800D01*
X152034900Y-162592800D02*
X154146900Y-160480800D01*
X116217000Y-171646800D02*
X120146900Y-167716900D01*
X100099400Y-172396900D02*
X100849500Y-171646800D01*
X120146900Y-167716900D02*
X126160000Y-167716900D01*
X128879600Y-163423600D02*
X129710400Y-162592800D01*
X128879600Y-164997300D02*
X128879600Y-163423600D01*
X129710400Y-162592800D02*
X152034900Y-162592800D01*
X59748100Y-174332000D02*
X65421200Y-168658900D01*
X65421200Y-168658900D02*
X78444900Y-168658900D01*
X78444900Y-168658900D02*
X85977600Y-161126200D01*
X85977600Y-161126200D02*
X146156800Y-161126200D01*
X146156800Y-161126200D02*
X146816100Y-160466900D01*
X153494000Y-103962000D02*
X154422600Y-103962000D01*
X154422600Y-103962000D02*
X155158600Y-104698000D01*
X155158600Y-104698000D02*
X155158600Y-108266000D01*
X155158600Y-108266000D02*
X154055100Y-109369500D01*
X154055100Y-109369500D02*
X148398000Y-109369500D01*
X58361000Y-174332000D02*
X59748100Y-174332000D01*
X77706100Y-187413000D02*
X96005500Y-187413000D01*
X96005500Y-187413000D02*
X98556200Y-184862300D01*
X98556200Y-184862300D02*
X98556200Y-182277300D01*
X98556200Y-182277300D02*
X99095700Y-181737800D01*
X99095700Y-181737800D02*
X101262000Y-181737800D01*
X101262000Y-181737800D02*
X102341200Y-182817000D01*
X102341200Y-182817000D02*
X103939900Y-182817000D01*
X103939900Y-182817000D02*
X104648000Y-182108900D01*
X104648000Y-182108900D02*
X104648000Y-179631200D01*
X104648000Y-179631200D02*
X109600800Y-174678400D01*
X109600800Y-174678400D02*
X125445100Y-174678400D01*
X125445100Y-174678400D02*
X126195200Y-173928300D01*
X126195200Y-173928300D02*
X170148900Y-173928300D01*
X170148900Y-173928300D02*
X173586600Y-170490600D01*
X173586600Y-170490600D02*
X174544800Y-170490600D01*
X174544800Y-170490600D02*
X176825500Y-168209900D01*
X176825500Y-168209900D02*
X176825500Y-167149100D01*
X176825500Y-167149100D02*
X176865200Y-167109400D01*
X176865200Y-167109400D02*
X176865200Y-113663200D01*
X176865200Y-113663200D02*
X174528400Y-111326400D01*
X174528400Y-111326400D02*
X164215600Y-111326400D01*
X164215600Y-111326400D02*
X155581200Y-102692000D01*
X155581200Y-102692000D02*
X153494000Y-102692000D01*
X76319000Y-187413000D02*
X77706100Y-187413000D01*
X153494000Y-101422000D02*
X156194800Y-101422000D01*
X156194800Y-101422000D02*
X165164000Y-110391200D01*
X165164000Y-110391200D02*
X174654100Y-110391200D01*
X174654100Y-110391200D02*
X177615500Y-113352600D01*
X177615500Y-113352600D02*
X177615500Y-168480700D01*
X177615500Y-168480700D02*
X171417800Y-174678400D01*
X171417800Y-174678400D02*
X126506000Y-174678400D01*
X126506000Y-174678400D02*
X125480800Y-175703600D01*
X125480800Y-175703600D02*
X112897700Y-175703600D01*
X77630100Y-174358000D02*
X80871900Y-171116200D01*
X80871900Y-171116200D02*
X99741500Y-171116200D01*
X99741500Y-171116200D02*
X100252900Y-170604800D01*
X100252900Y-170604800D02*
X107500800Y-170604800D01*
X76243000Y-174358000D02*
X77630100Y-174358000D01*
X153494000Y-100152000D02*
X159030000Y-100152000D01*
X159030000Y-100152000D02*
X163205500Y-104327500D01*
X153494000Y-98882000D02*
X160905700Y-98882000D01*
X160905700Y-98882000D02*
X169548200Y-107524500D01*
X40782600Y-191216200D02*
X40113700Y-190547300D01*
X40113700Y-190547300D02*
X40113700Y-171397800D01*
X40113700Y-171397800D02*
X41171400Y-170340100D01*
X41171400Y-170340100D02*
X41171400Y-169894300D01*
X41171400Y-169894300D02*
X53215000Y-157850700D01*
X53215000Y-157850700D02*
X138803200Y-157850700D01*
X138803200Y-157850700D02*
X139622500Y-157031400D01*
X144194000Y-102692000D02*
X143314600Y-102692000D01*
X143314600Y-102692000D02*
X142017500Y-103989100D01*
X142017500Y-103989100D02*
X142017500Y-104596300D01*
X149639000Y-106227900D02*
X147373100Y-103962000D01*
X147373100Y-103962000D02*
X144194000Y-103962000D01*
X40146300Y-169915500D02*
X40146300Y-169798200D01*
X40146300Y-169798200D02*
X52844000Y-157100500D01*
X52844000Y-157100500D02*
X134977900Y-157100500D01*
X134977900Y-157100500D02*
X138870500Y-153207900D01*
X141558400Y-106526700D02*
X142853100Y-105232000D01*
X142853100Y-105232000D02*
X144194000Y-105232000D01*
X144194000Y-106502000D02*
X145085000Y-106502000D01*
X145085000Y-106502000D02*
X146218400Y-105368600D01*
X146218400Y-105368600D02*
X146218400Y-105186400D01*
X144194000Y-107772000D02*
X145488200Y-107772000D01*
X145488200Y-107772000D02*
X146096600Y-107163600D01*
X146096600Y-107163600D02*
X146126600Y-107163600D01*
X91429000Y-140620000D02*
X91429000Y-139232900D01*
X98653000Y-137681000D02*
X92980900Y-137681000D01*
X92980900Y-137681000D02*
X91429000Y-139232900D01*
X55310000Y-152161900D02*
X56773900Y-150698000D01*
X56773900Y-150698000D02*
X62649000Y-150698000D01*
X55310000Y-153549000D02*
X55310000Y-152161900D01*
X109412000Y-152186900D02*
X110900900Y-150698000D01*
X110900900Y-150698000D02*
X116623000Y-150698000D01*
X109412000Y-153574000D02*
X109412000Y-152186900D01*
X55285000Y-166478000D02*
X55285000Y-165090900D01*
X62649000Y-163525000D02*
X56850900Y-163525000D01*
X56850900Y-163525000D02*
X55285000Y-165090900D01*
X55234000Y-140620000D02*
X55234000Y-139232900D01*
X57101450Y-137365450D02*
X72997350Y-137365450D01*
X55234000Y-139232900D02*
X57101450Y-137365450D01*
X73319000Y-137043800D02*
X73319000Y-134820000D01*
X72997350Y-137365450D02*
X73319000Y-137043800D01*
X91429000Y-136764600D02*
X91429000Y-134820000D01*
X90224350Y-137969250D02*
X91429000Y-136764600D01*
X73319000Y-140620000D02*
X73319000Y-141391000D01*
X73319000Y-141391000D02*
X73609200Y-141681200D01*
X73609200Y-141681200D02*
X81229200Y-141681200D01*
X84941150Y-137969250D02*
X90224350Y-137969250D01*
X81229200Y-141681200D02*
X84941150Y-137969250D01*
X109387000Y-140595000D02*
X110124200Y-141332200D01*
X110124200Y-141332200D02*
X118559000Y-141332200D01*
X122046200Y-137845000D02*
X126467400Y-137845000D01*
X118559000Y-141332200D02*
X122046200Y-137845000D01*
X127370000Y-136942400D02*
X127370000Y-134770000D01*
X126467400Y-137845000D02*
X127370000Y-136942400D01*
X127370000Y-142327200D02*
X127370000Y-140570000D01*
X126920850Y-142776350D02*
X127370000Y-142327200D01*
X60474450Y-142776350D02*
X126920850Y-142776350D01*
X55501800Y-147749000D02*
X60474450Y-142776350D01*
X55310000Y-147749000D02*
X55501800Y-147749000D01*
X73395000Y-153549000D02*
X74132200Y-154286200D01*
X74132200Y-154286200D02*
X81139200Y-154286200D01*
X84591100Y-150834300D02*
X90211700Y-150834300D01*
X81139200Y-154286200D02*
X84591100Y-150834300D01*
X91429000Y-149617000D02*
X91429000Y-147774000D01*
X90211700Y-150834300D02*
X91429000Y-149617000D01*
X109412000Y-147774000D02*
X108024900Y-147774000D01*
X91429000Y-153574000D02*
X91429000Y-152186900D01*
X91429000Y-152186900D02*
X93804800Y-149811100D01*
X93804800Y-149811100D02*
X99114300Y-149811100D01*
X99114300Y-149811100D02*
X101888600Y-147036800D01*
X101888600Y-147036800D02*
X107380000Y-147036800D01*
X107380000Y-147036800D02*
X108024900Y-147681700D01*
X108024900Y-147681700D02*
X108024900Y-147774000D01*
X145429000Y-149160200D02*
X145429000Y-147774000D01*
X144765200Y-149824000D02*
X145429000Y-149160200D01*
X138506900Y-149824000D02*
X144765200Y-149824000D01*
X133492500Y-154838400D02*
X138506900Y-149824000D01*
X127660400Y-154838400D02*
X133492500Y-154838400D01*
X127294000Y-154472000D02*
X127660400Y-154838400D01*
X127294000Y-153574000D02*
X127294000Y-154472000D01*
X144041900Y-153574000D02*
X145429000Y-153574000D01*
X144041900Y-154061700D02*
X144041900Y-153574000D01*
X139227800Y-158875800D02*
X144041900Y-154061700D01*
X56414600Y-158875800D02*
X139227800Y-158875800D01*
X55285000Y-160005400D02*
X56414600Y-158875800D01*
X55285000Y-160678000D02*
X55285000Y-160005400D01*
X73464800Y-31912800D02*
X73443000Y-31934600D01*
X73443000Y-31934600D02*
X73443000Y-33858200D01*
X133641000Y-33858200D02*
X133641000Y-31589100D01*
X133641000Y-31589100D02*
X133640500Y-31588600D01*
X88795100Y-32041500D02*
X88747000Y-32089600D01*
X88747000Y-32089600D02*
X88747000Y-33858200D01*
X103239100Y-31912800D02*
X103543000Y-32216700D01*
X103543000Y-32216700D02*
X103543000Y-33858200D01*
X41141400Y-188601500D02*
X43954900Y-185788000D01*
X43954900Y-185788000D02*
X44323000Y-185788000D01*
X168797800Y-190986200D02*
X168775200Y-190986200D01*
X168775200Y-190986200D02*
X166841000Y-189052000D01*
X41361700Y-206598200D02*
X44201900Y-203758000D01*
X44201900Y-203758000D02*
X44259000Y-203758000D01*
X81193000Y-204730000D02*
X81193000Y-203342900D01*
X87096000Y-201879000D02*
X82656900Y-201879000D01*
X82656900Y-201879000D02*
X81193000Y-203342900D01*
X81244000Y-215356900D02*
X82783900Y-213817000D01*
X82783900Y-213817000D02*
X87096000Y-213817000D01*
X81244000Y-216744000D02*
X81244000Y-215356900D01*
X81218000Y-228784000D02*
X81218000Y-227396900D01*
X87159000Y-226009000D02*
X82605900Y-226009000D01*
X82605900Y-226009000D02*
X81218000Y-227396900D01*
X81218000Y-240696000D02*
X81218000Y-239308900D01*
X87033000Y-237693000D02*
X82833900Y-237693000D01*
X82833900Y-237693000D02*
X81218000Y-239308900D01*
X127345000Y-169754000D02*
X127345000Y-168366900D01*
X133070000Y-166827000D02*
X128884900Y-166827000D01*
X128884900Y-166827000D02*
X127345000Y-168366900D01*
X97169000Y-183775000D02*
X97169000Y-182387900D01*
X103098000Y-180861000D02*
X98695900Y-180861000D01*
X98695900Y-180861000D02*
X97169000Y-182387900D01*
X142280000Y-182362900D02*
X143718900Y-180924000D01*
X143718900Y-180924000D02*
X148119000Y-180924000D01*
X142280000Y-183750000D02*
X142280000Y-182362900D01*
X112308000Y-197745000D02*
X112308000Y-196357900D01*
X118084000Y-194958000D02*
X113707900Y-194958000D01*
X113707900Y-194958000D02*
X112308000Y-196357900D01*
X157240000Y-197720000D02*
X157240000Y-196332900D01*
X163513000Y-194704000D02*
X158868900Y-194704000D01*
X158868900Y-194704000D02*
X157240000Y-196332900D01*
X127294000Y-211740000D02*
X127294000Y-210352900D01*
X133070000Y-208864000D02*
X128782900Y-208864000D01*
X128782900Y-208864000D02*
X127294000Y-210352900D01*
X97169000Y-225761000D02*
X97169000Y-224373900D01*
X103098000Y-222898000D02*
X98644900Y-222898000D01*
X98644900Y-222898000D02*
X97169000Y-224373900D01*
X142178000Y-225761000D02*
X142178000Y-224373900D01*
X148056000Y-222898000D02*
X143653900Y-222898000D01*
X143653900Y-222898000D02*
X142178000Y-224373900D01*
X112333000Y-239782000D02*
X112333000Y-238394900D01*
X118084000Y-236931000D02*
X113796900Y-236931000D01*
X113796900Y-236931000D02*
X112333000Y-238394900D01*
X157342000Y-239757000D02*
X157342000Y-238369900D01*
X163613000Y-236868000D02*
X158843900Y-236868000D01*
X158843900Y-236868000D02*
X157342000Y-238369900D01*
X55361000Y-179482000D02*
X55361000Y-178094900D01*
X62712000Y-176860000D02*
X56595900Y-176860000D01*
X56595900Y-176860000D02*
X55361000Y-178094900D01*
X55259000Y-192538000D02*
X55259000Y-193638200D01*
X55259000Y-193638200D02*
X55930800Y-194310000D01*
X55930800Y-194310000D02*
X61569600Y-194310000D01*
X62585000Y-193294600D02*
X62585000Y-189814000D01*
X61569600Y-194310000D02*
X62585000Y-193294600D01*
X51272000Y-204620500D02*
X51272000Y-204755000D01*
X53067050Y-202825450D02*
X53067050Y-202812550D01*
X53067050Y-202825450D02*
X51272000Y-204620500D01*
X53067050Y-202812550D02*
X53797200Y-202082400D01*
X53797200Y-202082400D02*
X65125600Y-202082400D01*
X66232000Y-200976000D02*
X66232000Y-198955000D01*
X65125600Y-202082400D02*
X66232000Y-200976000D01*
X66232000Y-204755000D02*
X66232000Y-205678000D01*
X66232000Y-205678000D02*
X66802000Y-206248000D01*
X66802000Y-206248000D02*
X72237600Y-206248000D01*
X72237600Y-206248000D02*
X76708000Y-201777600D01*
X76708000Y-201777600D02*
X80467200Y-201777600D01*
X81193000Y-201051800D02*
X81193000Y-198930000D01*
X80467200Y-201777600D02*
X81193000Y-201051800D01*
X66181000Y-212812600D02*
X66181000Y-210944000D01*
X64922400Y-214071200D02*
X66181000Y-212812600D01*
X52070000Y-214071200D02*
X64922400Y-214071200D01*
X51246000Y-214895200D02*
X52070000Y-214071200D01*
X51246000Y-216719000D02*
X51246000Y-214895200D01*
X66181000Y-216744000D02*
X66181000Y-215356900D01*
X66181000Y-215356900D02*
X67921750Y-213616150D01*
X67921750Y-213616150D02*
X80668250Y-213616150D01*
X81244000Y-213040400D02*
X81244000Y-210944000D01*
X80668250Y-213616150D02*
X81244000Y-213040400D01*
X51246000Y-228733000D02*
X51246000Y-227345900D01*
X51386550Y-227205350D02*
X51386550Y-227200650D01*
X51386550Y-227205350D02*
X51246000Y-227345900D01*
X51386550Y-227200650D02*
X52476400Y-226110800D01*
X52476400Y-226110800D02*
X65024000Y-226110800D01*
X66181000Y-224953800D02*
X66181000Y-222958000D01*
X65024000Y-226110800D02*
X66181000Y-224953800D01*
X81218000Y-225309200D02*
X81218000Y-222984000D01*
X67543000Y-226008900D02*
X80518300Y-226008900D01*
X66181000Y-227370900D02*
X67543000Y-226008900D01*
X80518300Y-226008900D02*
X81218000Y-225309200D01*
X66181000Y-228758000D02*
X66181000Y-227370900D01*
X51232000Y-240750000D02*
X51232000Y-239362900D01*
X51232000Y-239362900D02*
X52257250Y-238337650D01*
X52257250Y-238337650D02*
X52257250Y-238318750D01*
X52257250Y-238318750D02*
X52578000Y-237998000D01*
X52578000Y-237998000D02*
X65125600Y-237998000D01*
X66192000Y-236931600D02*
X66192000Y-234950000D01*
X65125600Y-237998000D02*
X66192000Y-236931600D01*
X66192000Y-240750000D02*
X66192000Y-239362900D01*
X66747650Y-238807250D02*
X66754750Y-238807250D01*
X66192000Y-239362900D02*
X66747650Y-238807250D01*
X66754750Y-238807250D02*
X67665600Y-237896400D01*
X67665600Y-237896400D02*
X80213200Y-237896400D01*
X81218000Y-236891600D02*
X81218000Y-234896000D01*
X80213200Y-237896400D02*
X81218000Y-236891600D01*
X97246000Y-169729000D02*
X97246000Y-168341900D01*
X97564150Y-168023750D02*
X97564150Y-168018250D01*
X97246000Y-168341900D02*
X97564150Y-168023750D01*
X97564150Y-168018250D02*
X98602800Y-166979600D01*
X98602800Y-166979600D02*
X111353600Y-166979600D01*
X112257000Y-166076200D02*
X112257000Y-163954000D01*
X111353600Y-166979600D02*
X112257000Y-166076200D01*
X127345000Y-164958200D02*
X127345000Y-163954000D01*
X125915700Y-166387500D02*
X127345000Y-164958200D01*
X114236400Y-166387500D02*
X125915700Y-166387500D01*
X112257000Y-168366900D02*
X114236400Y-166387500D01*
X112257000Y-169754000D02*
X112257000Y-168366900D01*
X157266000Y-165822000D02*
X157266000Y-163980000D01*
X155874400Y-167213600D02*
X157266000Y-165822000D01*
X143484300Y-167213600D02*
X155874400Y-167213600D01*
X142305000Y-168392900D02*
X143484300Y-167213600D01*
X142305000Y-169780000D02*
X142305000Y-168392900D01*
X155878900Y-169780000D02*
X157266000Y-169780000D01*
X155878900Y-169852600D02*
X155878900Y-169780000D01*
X153678500Y-172053000D02*
X155878900Y-169852600D01*
X125574000Y-172053000D02*
X153678500Y-172053000D01*
X125198900Y-172428100D02*
X125574000Y-172053000D01*
X103009500Y-172428100D02*
X125198900Y-172428100D01*
X97462600Y-177975000D02*
X103009500Y-172428100D01*
X97169000Y-177975000D02*
X97462600Y-177975000D01*
X127345000Y-179537800D02*
X127345000Y-177950000D01*
X126747600Y-180135200D02*
X127345000Y-179537800D01*
X116732400Y-180135200D02*
X126747600Y-180135200D01*
X127345000Y-183750000D02*
X127345000Y-182362900D01*
X128641150Y-181066750D02*
X128641150Y-181035650D01*
X127345000Y-182362900D02*
X128641150Y-181066750D01*
X128641150Y-181035650D02*
X130876350Y-181035650D01*
X130876350Y-181035650D02*
X136245600Y-175666400D01*
X136245600Y-175666400D02*
X141833600Y-175666400D01*
X142280000Y-176112800D02*
X142280000Y-177950000D01*
X141833600Y-175666400D02*
X142280000Y-176112800D01*
X155852900Y-183836700D02*
X155852900Y-183750000D01*
X154545300Y-185144300D02*
X155852900Y-183836700D01*
X135232800Y-185144300D02*
X154545300Y-185144300D01*
X128880800Y-191496300D02*
X135232800Y-185144300D01*
X155852900Y-183750000D02*
X157240000Y-183750000D01*
X127655700Y-193983200D02*
X128880800Y-192758100D01*
X123123200Y-193983200D02*
X127655700Y-193983200D01*
X119697900Y-190557900D02*
X123123200Y-193983200D01*
X97681300Y-190557900D02*
X119697900Y-190557900D01*
X128880800Y-192758100D02*
X128880800Y-191496300D01*
X97195000Y-191044200D02*
X97681300Y-190557900D01*
X97195000Y-191945000D02*
X97195000Y-191044200D01*
X97195000Y-197745000D02*
X97195000Y-196357900D01*
X97195000Y-196357900D02*
X98872050Y-194680850D01*
X98872050Y-194680850D02*
X111389150Y-194680850D01*
X112308000Y-193762000D02*
X112308000Y-191945000D01*
X111389150Y-194680850D02*
X112308000Y-193762000D01*
X127268000Y-197745000D02*
X128005200Y-198482200D01*
X128005200Y-198482200D02*
X135123700Y-198482200D01*
X138507350Y-195098550D02*
X140892650Y-195098550D01*
X135123700Y-198482200D02*
X138507350Y-195098550D01*
X142204000Y-193787200D02*
X142204000Y-191970000D01*
X140892650Y-195098550D02*
X142204000Y-193787200D01*
X142204000Y-197770000D02*
X142204000Y-196382900D01*
X143766450Y-194820450D02*
X155851950Y-194820450D01*
X142204000Y-196382900D02*
X143766450Y-194820450D01*
X157240000Y-193432400D02*
X157240000Y-191920000D01*
X155851950Y-194820450D02*
X157240000Y-193432400D01*
X97093000Y-211715000D02*
X97093000Y-210327900D01*
X98795650Y-208625250D02*
X111414750Y-208625250D01*
X97093000Y-210327900D02*
X98795650Y-208625250D01*
X112206000Y-207834000D02*
X112206000Y-205915000D01*
X111414750Y-208625250D02*
X112206000Y-207834000D01*
X112206000Y-211715000D02*
X112206000Y-210327900D01*
X113591150Y-208942750D02*
X118412450Y-208942750D01*
X112206000Y-210327900D02*
X113591150Y-208942750D01*
X118412450Y-208942750D02*
X121158000Y-206197200D01*
X121158000Y-206197200D02*
X121158000Y-205181200D01*
X121158000Y-205181200D02*
X121970800Y-204368400D01*
X121970800Y-204368400D02*
X126847600Y-204368400D01*
X127294000Y-204814800D02*
X127294000Y-205940000D01*
X126847600Y-204368400D02*
X127294000Y-204814800D01*
X157367000Y-205966000D02*
X157367000Y-207353100D01*
X142153000Y-211740000D02*
X143576700Y-213163700D01*
X143576700Y-213163700D02*
X158382900Y-213163700D01*
X158382900Y-213163700D02*
X158754100Y-212792500D01*
X158754100Y-212792500D02*
X158754100Y-208740200D01*
X158754100Y-208740200D02*
X157367000Y-207353100D01*
X155979900Y-211766000D02*
X157367000Y-211766000D01*
X155979900Y-210378900D02*
X155979900Y-211766000D01*
X97169000Y-219961000D02*
X97169000Y-219569000D01*
X98164100Y-218573900D02*
X113771900Y-218573900D01*
X138331500Y-208289300D02*
X153890300Y-208289300D01*
X131725500Y-207632600D02*
X131725500Y-207494800D01*
X131364500Y-207993600D02*
X131725500Y-207632600D01*
X131725500Y-207494800D02*
X132332900Y-206887400D01*
X97169000Y-219569000D02*
X98164100Y-218573900D01*
X132332900Y-206887400D02*
X136929600Y-206887400D01*
X153890300Y-208289300D02*
X155979900Y-210378900D01*
X136929600Y-206887400D02*
X138331500Y-208289300D01*
X126460500Y-209073500D02*
X127540400Y-207993600D01*
X123272300Y-209073500D02*
X126460500Y-209073500D01*
X127540400Y-207993600D02*
X131364500Y-207993600D01*
X113771900Y-218573900D02*
X123272300Y-209073500D01*
X112206000Y-225787000D02*
X112206000Y-226506000D01*
X112206000Y-226506000D02*
X112522000Y-226822000D01*
X112522000Y-226822000D02*
X116627800Y-226822000D01*
X120416900Y-223032900D02*
X120416900Y-219993900D01*
X116627800Y-226822000D02*
X120416900Y-223032900D01*
X120960801Y-219449999D02*
X120960801Y-219399199D01*
X120416900Y-219993900D02*
X120960801Y-219449999D01*
X120960801Y-219399199D02*
X122021600Y-218338400D01*
X122021600Y-218338400D02*
X126796800Y-218338400D01*
X127294000Y-218835600D02*
X127294000Y-219987000D01*
X126796800Y-218338400D02*
X127294000Y-218835600D01*
X127294000Y-225787000D02*
X127294000Y-224399900D01*
X128323550Y-223370350D02*
X140764050Y-223370350D01*
X127294000Y-224399900D02*
X128323550Y-223370350D01*
X142178000Y-221956400D02*
X142178000Y-219961000D01*
X140764050Y-223370350D02*
X142178000Y-221956400D01*
X140296902Y-229659900D02*
X140303802Y-229666800D01*
X101593100Y-229659900D02*
X140296902Y-229659900D01*
X97271000Y-233982000D02*
X101593100Y-229659900D01*
X140303802Y-229666800D02*
X156006800Y-229666800D01*
X157266000Y-228407600D02*
X157266000Y-225787000D01*
X156006800Y-229666800D02*
X157266000Y-228407600D01*
X142305000Y-233957000D02*
X140917900Y-233957000D01*
X127294000Y-239782000D02*
X127294000Y-238394900D01*
X127294000Y-238394900D02*
X128719300Y-236969600D01*
X128719300Y-236969600D02*
X139292400Y-236969600D01*
X139292400Y-236969600D02*
X140917900Y-235344100D01*
X140917900Y-235344100D02*
X140917900Y-233957000D01*
X142305000Y-239757000D02*
X142305000Y-238369900D01*
X144109450Y-236565450D02*
X156372550Y-236565450D01*
X142305000Y-238369900D02*
X144109450Y-236565450D01*
X157342000Y-235596000D02*
X157342000Y-233957000D01*
X156372550Y-236565450D02*
X157342000Y-235596000D01*
X55361000Y-175169400D02*
X55361000Y-173682000D01*
X50241200Y-176377600D02*
X54152800Y-176377600D01*
X42806600Y-189636700D02*
X42806600Y-188092600D01*
X43561200Y-187338000D02*
X45089000Y-187338000D01*
X45089000Y-187338000D02*
X47518600Y-184908400D01*
X42806600Y-188092600D02*
X43561200Y-187338000D01*
X47518600Y-184908400D02*
X47518600Y-179100200D01*
X47518600Y-179100200D02*
X50241200Y-176377600D01*
X54152800Y-176377600D02*
X55361000Y-175169400D01*
X46955550Y-193785650D02*
X46973650Y-193785650D01*
X46955550Y-193785650D02*
X42806600Y-189636700D01*
X46973650Y-193785650D02*
X49174400Y-195986400D01*
X49174400Y-195986400D02*
X72339200Y-195986400D01*
X73319000Y-195006600D02*
X73319000Y-192563000D01*
X72339200Y-195986400D02*
X73319000Y-195006600D01*
X164812000Y-139920000D02*
X166199100Y-139920000D01*
X173469000Y-135636000D02*
X170483100Y-135636000D01*
X170483100Y-135636000D02*
X166199100Y-139920000D01*
X164812000Y-135420000D02*
X166199100Y-135420000D01*
X173469000Y-130556000D02*
X171063100Y-130556000D01*
X171063100Y-130556000D02*
X166199100Y-135420000D01*
X155676800Y-128092000D02*
X159232000Y-128092000D01*
X154025600Y-129743200D02*
X155676800Y-128092000D01*
X154025600Y-140258800D02*
X154025600Y-129743200D01*
X160424900Y-146658100D02*
X154025600Y-140258800D01*
X160424900Y-151003800D02*
X160424900Y-146658100D01*
X161812000Y-152390900D02*
X160424900Y-151003800D01*
X161812000Y-153778000D02*
X161812000Y-152390900D01*
X164493340Y-156896000D02*
X163485160Y-157904180D01*
X173380000Y-156896000D02*
X164493340Y-156896000D01*
X148404000Y-141307100D02*
X153465100Y-146368200D01*
X153465100Y-146368200D02*
X153465100Y-151385000D01*
X153465100Y-151385000D02*
X158976100Y-156896000D01*
X148404000Y-139920000D02*
X148404000Y-141307100D01*
X148404000Y-135420000D02*
X148404000Y-136807100D01*
X173380000Y-151816000D02*
X171254900Y-151816000D01*
X171254900Y-151816000D02*
X167870100Y-155200800D01*
X167870100Y-155200800D02*
X158353400Y-155200800D01*
X158353400Y-155200800D02*
X154215200Y-151062600D01*
X154215200Y-151062600D02*
X154215200Y-142618300D01*
X154215200Y-142618300D02*
X148404000Y-136807100D01*
X166974920Y-167589000D02*
X166906540Y-167520620D01*
X173380000Y-167589000D02*
X166974920Y-167589000D01*
X160791600Y-167589000D02*
X158732500Y-165529900D01*
X158732500Y-165529900D02*
X158732500Y-163038400D01*
X158732500Y-163038400D02*
X155135900Y-159441800D01*
X155135900Y-159441800D02*
X141015100Y-159441800D01*
X141015100Y-159441800D02*
X140080900Y-160376000D01*
X140080900Y-160376000D02*
X83107100Y-160376000D01*
X83107100Y-160376000D02*
X77655100Y-165828000D01*
X76268000Y-165828000D02*
X77655100Y-165828000D01*
X173380000Y-162509000D02*
X173380000Y-164634100D01*
X173380000Y-164634100D02*
X173512800Y-164634100D01*
X173512800Y-164634100D02*
X175510700Y-166632000D01*
X175510700Y-166632000D02*
X175510700Y-168463800D01*
X175510700Y-168463800D02*
X174234100Y-169740400D01*
X174234100Y-169740400D02*
X164743000Y-169740400D01*
X164743000Y-169740400D02*
X161680300Y-172803100D01*
X161680300Y-172803100D02*
X125884800Y-172803100D01*
X125884800Y-172803100D02*
X125134600Y-173553300D01*
X125134600Y-173553300D02*
X107673700Y-173553300D01*
X107673700Y-173553300D02*
X101214800Y-180012200D01*
X101214800Y-180012200D02*
X90657900Y-180012200D01*
X90657900Y-180012200D02*
X88676000Y-181994100D01*
X88676000Y-181994100D02*
X77438400Y-181994100D01*
X159376980Y-156896000D02*
X160385160Y-157904180D01*
X158976100Y-156896000D02*
X159376980Y-156896000D01*
X163738160Y-167589000D02*
X163806540Y-167520620D01*
X160791600Y-167589000D02*
X163738160Y-167589000D01*
X44277280Y-174849720D02*
X46536680Y-174849720D01*
X46536680Y-174849720D02*
X50853340Y-170533060D01*
X50853340Y-170533060D02*
X60393580Y-170533060D01*
X60393580Y-170533060D02*
X63246000Y-167680640D01*
X72065360Y-167680640D02*
X73268000Y-166478000D01*
X63246000Y-167680640D02*
X72065360Y-167680640D01*
X150269510Y-149710100D02*
X150269510Y-145435510D01*
X148739401Y-151240209D02*
X150269510Y-149710100D01*
X146616001Y-152471999D02*
X147847791Y-151240209D01*
X146616001Y-154676001D02*
X146616001Y-152471999D01*
X143956990Y-155863500D02*
X145428502Y-155863500D01*
X150269510Y-145435510D02*
X145404000Y-140570000D01*
X147847791Y-151240209D02*
X148739401Y-151240209D01*
X139894500Y-159925990D02*
X143956990Y-155863500D01*
X145428502Y-155863500D02*
X146616001Y-154676001D01*
X74020010Y-159925990D02*
X139894500Y-159925990D01*
X73268000Y-160678000D02*
X74020010Y-159925990D01*
M02*
